%TF.GenerationSoftware,KiCad,Pcbnew,10.0.0*%
%TF.CreationDate,2026-04-07T14:57:54+02:00*%
%TF.ProjectId,Controller_Board,436f6e74-726f-46c6-9c65-725f426f6172,1.0*%
%TF.SameCoordinates,Original*%
%TF.FileFunction,Copper,L6,Bot*%
%TF.FilePolarity,Positive*%
%FSLAX46Y46*%
G04 Gerber Fmt 4.6, Leading zero omitted, Abs format (unit mm)*
G04 Created by KiCad (PCBNEW 10.0.0) date 2026-04-07 14:57:54*
%MOMM*%
%LPD*%
G01*
G04 APERTURE LIST*
G04 Aperture macros list*
%AMRoundRect*
0 Rectangle with rounded corners*
0 $1 Rounding radius*
0 $2 $3 $4 $5 $6 $7 $8 $9 X,Y pos of 4 corners*
0 Add a 4 corners polygon primitive as box body*
4,1,4,$2,$3,$4,$5,$6,$7,$8,$9,$2,$3,0*
0 Add four circle primitives for the rounded corners*
1,1,$1+$1,$2,$3*
1,1,$1+$1,$4,$5*
1,1,$1+$1,$6,$7*
1,1,$1+$1,$8,$9*
0 Add four rect primitives between the rounded corners*
20,1,$1+$1,$2,$3,$4,$5,0*
20,1,$1+$1,$4,$5,$6,$7,0*
20,1,$1+$1,$6,$7,$8,$9,0*
20,1,$1+$1,$8,$9,$2,$3,0*%
G04 Aperture macros list end*
%TA.AperFunction,ComponentPad*%
%ADD10C,1.509000*%
%TD*%
%TA.AperFunction,ComponentPad*%
%ADD11C,2.475000*%
%TD*%
%TA.AperFunction,ComponentPad*%
%ADD12C,0.800000*%
%TD*%
%TA.AperFunction,ComponentPad*%
%ADD13C,6.400000*%
%TD*%
%TA.AperFunction,ComponentPad*%
%ADD14C,1.400000*%
%TD*%
%TA.AperFunction,ComponentPad*%
%ADD15RoundRect,0.770000X-0.980000X-0.980000X0.980000X-0.980000X0.980000X0.980000X-0.980000X0.980000X0*%
%TD*%
%TA.AperFunction,ComponentPad*%
%ADD16C,3.500000*%
%TD*%
%TA.AperFunction,HeatsinkPad*%
%ADD17O,1.000000X2.100000*%
%TD*%
%TA.AperFunction,HeatsinkPad*%
%ADD18O,1.000000X1.800000*%
%TD*%
%TA.AperFunction,SMDPad,CuDef*%
%ADD19RoundRect,0.140000X-0.170000X0.140000X-0.170000X-0.140000X0.170000X-0.140000X0.170000X0.140000X0*%
%TD*%
%TA.AperFunction,SMDPad,CuDef*%
%ADD20RoundRect,0.225000X0.225000X0.250000X-0.225000X0.250000X-0.225000X-0.250000X0.225000X-0.250000X0*%
%TD*%
%TA.AperFunction,SMDPad,CuDef*%
%ADD21RoundRect,0.100000X-0.130000X-0.100000X0.130000X-0.100000X0.130000X0.100000X-0.130000X0.100000X0*%
%TD*%
%TA.AperFunction,SMDPad,CuDef*%
%ADD22RoundRect,0.147500X0.226274X0.017678X0.017678X0.226274X-0.226274X-0.017678X-0.017678X-0.226274X0*%
%TD*%
%TA.AperFunction,SMDPad,CuDef*%
%ADD23RoundRect,0.135000X-0.185000X0.135000X-0.185000X-0.135000X0.185000X-0.135000X0.185000X0.135000X0*%
%TD*%
%TA.AperFunction,SMDPad,CuDef*%
%ADD24RoundRect,0.140000X-0.140000X-0.170000X0.140000X-0.170000X0.140000X0.170000X-0.140000X0.170000X0*%
%TD*%
%TA.AperFunction,SMDPad,CuDef*%
%ADD25RoundRect,0.135000X0.135000X0.185000X-0.135000X0.185000X-0.135000X-0.185000X0.135000X-0.185000X0*%
%TD*%
%TA.AperFunction,SMDPad,CuDef*%
%ADD26RoundRect,0.225000X0.250000X-0.225000X0.250000X0.225000X-0.250000X0.225000X-0.250000X-0.225000X0*%
%TD*%
%TA.AperFunction,SMDPad,CuDef*%
%ADD27RoundRect,0.140000X0.170000X-0.140000X0.170000X0.140000X-0.170000X0.140000X-0.170000X-0.140000X0*%
%TD*%
%TA.AperFunction,SMDPad,CuDef*%
%ADD28RoundRect,0.100000X0.130000X0.100000X-0.130000X0.100000X-0.130000X-0.100000X0.130000X-0.100000X0*%
%TD*%
%TA.AperFunction,SMDPad,CuDef*%
%ADD29RoundRect,0.250000X-0.650000X0.325000X-0.650000X-0.325000X0.650000X-0.325000X0.650000X0.325000X0*%
%TD*%
%TA.AperFunction,SMDPad,CuDef*%
%ADD30RoundRect,0.140000X0.140000X0.170000X-0.140000X0.170000X-0.140000X-0.170000X0.140000X-0.170000X0*%
%TD*%
%TA.AperFunction,SMDPad,CuDef*%
%ADD31RoundRect,0.135000X-0.135000X-0.185000X0.135000X-0.185000X0.135000X0.185000X-0.135000X0.185000X0*%
%TD*%
%TA.AperFunction,SMDPad,CuDef*%
%ADD32RoundRect,0.100000X0.100000X-0.130000X0.100000X0.130000X-0.100000X0.130000X-0.100000X-0.130000X0*%
%TD*%
%TA.AperFunction,SMDPad,CuDef*%
%ADD33RoundRect,0.250000X-0.325000X-0.650000X0.325000X-0.650000X0.325000X0.650000X-0.325000X0.650000X0*%
%TD*%
%TA.AperFunction,SMDPad,CuDef*%
%ADD34R,1.270000X0.610000*%
%TD*%
%TA.AperFunction,SMDPad,CuDef*%
%ADD35R,3.810000X1.650000*%
%TD*%
%TA.AperFunction,SMDPad,CuDef*%
%ADD36R,1.020000X0.610000*%
%TD*%
%TA.AperFunction,SMDPad,CuDef*%
%ADD37RoundRect,0.100000X-0.100000X0.130000X-0.100000X-0.130000X0.100000X-0.130000X0.100000X0.130000X0*%
%TD*%
%TA.AperFunction,SMDPad,CuDef*%
%ADD38RoundRect,0.147500X-0.172500X0.147500X-0.172500X-0.147500X0.172500X-0.147500X0.172500X0.147500X0*%
%TD*%
%TA.AperFunction,SMDPad,CuDef*%
%ADD39RoundRect,0.225000X-0.250000X0.225000X-0.250000X-0.225000X0.250000X-0.225000X0.250000X0.225000X0*%
%TD*%
%TA.AperFunction,SMDPad,CuDef*%
%ADD40RoundRect,0.225000X-0.225000X-0.250000X0.225000X-0.250000X0.225000X0.250000X-0.225000X0.250000X0*%
%TD*%
%TA.AperFunction,SMDPad,CuDef*%
%ADD41RoundRect,0.250000X0.250000X0.475000X-0.250000X0.475000X-0.250000X-0.475000X0.250000X-0.475000X0*%
%TD*%
%TA.AperFunction,SMDPad,CuDef*%
%ADD42RoundRect,0.135000X0.185000X-0.135000X0.185000X0.135000X-0.185000X0.135000X-0.185000X-0.135000X0*%
%TD*%
%TA.AperFunction,SMDPad,CuDef*%
%ADD43RoundRect,0.250000X0.650000X-0.325000X0.650000X0.325000X-0.650000X0.325000X-0.650000X-0.325000X0*%
%TD*%
%TA.AperFunction,SMDPad,CuDef*%
%ADD44RoundRect,0.250000X0.325000X0.650000X-0.325000X0.650000X-0.325000X-0.650000X0.325000X-0.650000X0*%
%TD*%
%TA.AperFunction,SMDPad,CuDef*%
%ADD45RoundRect,0.147500X-0.017678X0.226274X-0.226274X0.017678X0.017678X-0.226274X0.226274X-0.017678X0*%
%TD*%
%TA.AperFunction,SMDPad,CuDef*%
%ADD46RoundRect,0.250000X-0.325000X-0.250000X0.325000X-0.250000X0.325000X0.250000X-0.325000X0.250000X0*%
%TD*%
%TA.AperFunction,SMDPad,CuDef*%
%ADD47RoundRect,0.147500X0.172500X-0.147500X0.172500X0.147500X-0.172500X0.147500X-0.172500X-0.147500X0*%
%TD*%
%TA.AperFunction,SMDPad,CuDef*%
%ADD48RoundRect,0.062500X0.062500X-0.362500X0.062500X0.362500X-0.062500X0.362500X-0.062500X-0.362500X0*%
%TD*%
%TA.AperFunction,HeatsinkPad*%
%ADD49R,2.380000X1.650000*%
%TD*%
%TA.AperFunction,SMDPad,CuDef*%
%ADD50R,0.650000X0.350000*%
%TD*%
%TA.AperFunction,SMDPad,CuDef*%
%ADD51R,1.000000X1.600000*%
%TD*%
%TA.AperFunction,SMDPad,CuDef*%
%ADD52RoundRect,0.147500X0.017678X-0.226274X0.226274X-0.017678X-0.017678X0.226274X-0.226274X0.017678X0*%
%TD*%
%TA.AperFunction,SMDPad,CuDef*%
%ADD53RoundRect,0.147500X-0.147500X-0.172500X0.147500X-0.172500X0.147500X0.172500X-0.147500X0.172500X0*%
%TD*%
%TA.AperFunction,SMDPad,CuDef*%
%ADD54RoundRect,0.250000X-0.625000X0.400000X-0.625000X-0.400000X0.625000X-0.400000X0.625000X0.400000X0*%
%TD*%
%TA.AperFunction,SMDPad,CuDef*%
%ADD55RoundRect,0.200000X-0.200000X-0.275000X0.200000X-0.275000X0.200000X0.275000X-0.200000X0.275000X0*%
%TD*%
%TA.AperFunction,SMDPad,CuDef*%
%ADD56RoundRect,0.147500X0.147500X0.172500X-0.147500X0.172500X-0.147500X-0.172500X0.147500X-0.172500X0*%
%TD*%
%TA.AperFunction,ViaPad*%
%ADD57C,0.250000*%
%TD*%
%TA.AperFunction,Conductor*%
%ADD58C,0.100000*%
%TD*%
%TA.AperFunction,Conductor*%
%ADD59C,0.200000*%
%TD*%
%TA.AperFunction,Conductor*%
%ADD60C,0.500000*%
%TD*%
%TA.AperFunction,Conductor*%
%ADD61C,1.500000*%
%TD*%
%TA.AperFunction,Conductor*%
%ADD62C,0.120000*%
%TD*%
G04 APERTURE END LIST*
D10*
%TO.P,U812,1,RX_1*%
%TO.N,/Connectivity/P8_RX_P*%
X119040000Y-104280000D03*
%TO.P,U812,2,~{RX}_2*%
%TO.N,/Connectivity/P8_RX_N*%
X120820000Y-103260000D03*
%TO.P,U812,3,VCC_3*%
%TO.N,+5V*%
X119040000Y-102240000D03*
%TO.P,U812,4,CLK_4*%
%TO.N,/Connectivity/P8_CLK_P*%
X120820000Y-101220000D03*
%TO.P,U812,5,~{CLK}_5*%
%TO.N,/Connectivity/P8_CLK_N*%
X119040000Y-100200000D03*
%TO.P,U812,6,GND_6*%
%TO.N,GND*%
X120820000Y-99180000D03*
%TO.P,U812,7,~{TX}_7*%
%TO.N,/Connectivity/P8_TX_N*%
X119040000Y-98160000D03*
%TO.P,U812,8,TX_8*%
%TO.N,/Connectivity/P8_TX_P*%
X120820000Y-97140000D03*
%TO.P,U812,9,LED1_9*%
%TO.N,Net-(U812-LED1)*%
X125640000Y-93840000D03*
%TO.P,U812,10,LED2_10*%
%TO.N,GND*%
X125640000Y-96130000D03*
%TO.P,U812,11,LED3_11*%
%TO.N,Net-(U812-LED3)*%
X125640000Y-105020000D03*
%TO.P,U812,12,LED4_12*%
%TO.N,GND*%
X125640000Y-107560000D03*
D11*
%TO.P,U812,13,SHD_13*%
X119930000Y-92570000D03*
%TO.P,U812,14,SHD_14*%
X119930000Y-108830000D03*
%TD*%
D10*
%TO.P,U820,1,RX_1*%
%TO.N,/Connectivity/P6_RX_P*%
X140280000Y-137860000D03*
%TO.P,U820,2,~{RX}_2*%
%TO.N,/Connectivity/P6_RX_N*%
X139260000Y-136080000D03*
%TO.P,U820,3,VCC_3*%
%TO.N,+5V*%
X138240000Y-137860000D03*
%TO.P,U820,4,CLK_4*%
%TO.N,/Connectivity/P6_CLK_P*%
X137220000Y-136080000D03*
%TO.P,U820,5,~{CLK}_5*%
%TO.N,/Connectivity/P6_CLK_N*%
X136200000Y-137860000D03*
%TO.P,U820,6,GND_6*%
%TO.N,GND*%
X135180000Y-136080000D03*
%TO.P,U820,7,~{TX}_7*%
%TO.N,/Connectivity/P6_TX_N*%
X134160000Y-137860000D03*
%TO.P,U820,8,TX_8*%
%TO.N,/Connectivity/P6_TX_P*%
X133140000Y-136080000D03*
%TO.P,U820,9,LED1_9*%
%TO.N,Net-(U820-LED1)*%
X129840000Y-131260000D03*
%TO.P,U820,10,LED2_10*%
%TO.N,GND*%
X132130000Y-131260000D03*
%TO.P,U820,11,LED3_11*%
%TO.N,Net-(U820-LED3)*%
X141020000Y-131260000D03*
%TO.P,U820,12,LED4_12*%
%TO.N,GND*%
X143560000Y-131260000D03*
D11*
%TO.P,U820,13,SHD_13*%
X128570000Y-136970000D03*
%TO.P,U820,14,SHD_14*%
X144830000Y-136970000D03*
%TD*%
D12*
%TO.P,H804,1,1_1*%
%TO.N,GND*%
X189300000Y-136200000D03*
X190002944Y-134502944D03*
X190002944Y-137897056D03*
X191700000Y-133800000D03*
D13*
X191700000Y-136200000D03*
D12*
X191700000Y-138600000D03*
X193397056Y-134502944D03*
X193397056Y-137897056D03*
X194100000Y-136200000D03*
%TD*%
D10*
%TO.P,U819,1,RX_1*%
%TO.N,/Connectivity/P3_RX_P*%
X193360000Y-116620000D03*
%TO.P,U819,2,~{RX}_2*%
%TO.N,/Connectivity/P3_RX_N*%
X191580000Y-117640000D03*
%TO.P,U819,3,VCC_3*%
%TO.N,+5V*%
X193360000Y-118660000D03*
%TO.P,U819,4,CLK_4*%
%TO.N,/Connectivity/P3_CLK_P*%
X191580000Y-119680000D03*
%TO.P,U819,5,~{CLK}_5*%
%TO.N,/Connectivity/P3_CLK_N*%
X193360000Y-120700000D03*
%TO.P,U819,6,GND_6*%
%TO.N,GND*%
X191580000Y-121720000D03*
%TO.P,U819,7,~{TX}_7*%
%TO.N,/Connectivity/P3_TX_N*%
X193360000Y-122740000D03*
%TO.P,U819,8,TX_8*%
%TO.N,/Connectivity/P3_TX_P*%
X191580000Y-123760000D03*
%TO.P,U819,9,LED1_9*%
%TO.N,Net-(U819-LED1)*%
X186760000Y-127060000D03*
%TO.P,U819,10,LED2_10*%
%TO.N,GND*%
X186760000Y-124770000D03*
%TO.P,U819,11,LED3_11*%
%TO.N,Net-(U819-LED3)*%
X186760000Y-115880000D03*
%TO.P,U819,12,LED4_12*%
%TO.N,GND*%
X186760000Y-113340000D03*
D11*
%TO.P,U819,13,SHD_13*%
X192470000Y-128330000D03*
%TO.P,U819,14,SHD_14*%
X192470000Y-112070000D03*
%TD*%
D10*
%TO.P,U811,1,RX_1*%
%TO.N,/Connectivity/P5_RX_P*%
X179280000Y-137860000D03*
%TO.P,U811,2,~{RX}_2*%
%TO.N,/Connectivity/P5_RX_N*%
X178260000Y-136080000D03*
%TO.P,U811,3,VCC_3*%
%TO.N,+5V*%
X177240000Y-137860000D03*
%TO.P,U811,4,CLK_4*%
%TO.N,/Connectivity/P5_CLK_P*%
X176220000Y-136080000D03*
%TO.P,U811,5,~{CLK}_5*%
%TO.N,/Connectivity/P5_CLK_N*%
X175200000Y-137860000D03*
%TO.P,U811,6,GND_6*%
%TO.N,GND*%
X174180000Y-136080000D03*
%TO.P,U811,7,~{TX}_7*%
%TO.N,/Connectivity/P5_TX_N*%
X173160000Y-137860000D03*
%TO.P,U811,8,TX_8*%
%TO.N,/Connectivity/P5_TX_P*%
X172140000Y-136080000D03*
%TO.P,U811,9,LED1_9*%
%TO.N,Net-(U811-LED1)*%
X168840000Y-131260000D03*
%TO.P,U811,10,LED2_10*%
%TO.N,GND*%
X171130000Y-131260000D03*
%TO.P,U811,11,LED3_11*%
%TO.N,Net-(U811-LED3)*%
X180020000Y-131260000D03*
%TO.P,U811,12,LED4_12*%
%TO.N,GND*%
X182560000Y-131260000D03*
D11*
%TO.P,U811,13,SHD_13*%
X167570000Y-136970000D03*
%TO.P,U811,14,SHD_14*%
X183830000Y-136970000D03*
%TD*%
D10*
%TO.P,U803,1,RX_1*%
%TO.N,/Connectivity/P7_RX_P*%
X119040000Y-84780000D03*
%TO.P,U803,2,~{RX}_2*%
%TO.N,/Connectivity/P7_RX_N*%
X120820000Y-83760000D03*
%TO.P,U803,3,VCC_3*%
%TO.N,+5V*%
X119040000Y-82740000D03*
%TO.P,U803,4,CLK_4*%
%TO.N,/Connectivity/P7_CLK_P*%
X120820000Y-81720000D03*
%TO.P,U803,5,~{CLK}_5*%
%TO.N,/Connectivity/P7_CLK_N*%
X119040000Y-80700000D03*
%TO.P,U803,6,GND_6*%
%TO.N,GND*%
X120820000Y-79680000D03*
%TO.P,U803,7,~{TX}_7*%
%TO.N,/Connectivity/P7_TX_N*%
X119040000Y-78660000D03*
%TO.P,U803,8,TX_8*%
%TO.N,/Connectivity/P7_TX_P*%
X120820000Y-77640000D03*
%TO.P,U803,9,LED1_9*%
%TO.N,Net-(U803-LED1)*%
X125640000Y-74340000D03*
%TO.P,U803,10,LED2_10*%
%TO.N,GND*%
X125640000Y-76630000D03*
%TO.P,U803,11,LED3_11*%
%TO.N,Net-(U803-LED3)*%
X125640000Y-85520000D03*
%TO.P,U803,12,LED4_12*%
%TO.N,GND*%
X125640000Y-88060000D03*
D11*
%TO.P,U803,13,SHD_13*%
X119930000Y-73070000D03*
%TO.P,U803,14,SHD_14*%
X119930000Y-89330000D03*
%TD*%
D10*
%TO.P,U810,1,RX_1*%
%TO.N,/Connectivity/P2_RX_P*%
X193360000Y-97120000D03*
%TO.P,U810,2,~{RX}_2*%
%TO.N,/Connectivity/P2_RX_N*%
X191580000Y-98140000D03*
%TO.P,U810,3,VCC_3*%
%TO.N,+5V*%
X193360000Y-99160000D03*
%TO.P,U810,4,CLK_4*%
%TO.N,/Connectivity/P2_CLK_P*%
X191580000Y-100180000D03*
%TO.P,U810,5,~{CLK}_5*%
%TO.N,/Connectivity/P2_CLK_N*%
X193360000Y-101200000D03*
%TO.P,U810,6,GND_6*%
%TO.N,GND*%
X191580000Y-102220000D03*
%TO.P,U810,7,~{TX}_7*%
%TO.N,/Connectivity/P2_TX_N*%
X193360000Y-103240000D03*
%TO.P,U810,8,TX_8*%
%TO.N,/Connectivity/P2_TX_P*%
X191580000Y-104260000D03*
%TO.P,U810,9,LED1_9*%
%TO.N,Net-(U810-LED1)*%
X186760000Y-107560000D03*
%TO.P,U810,10,LED2_10*%
%TO.N,GND*%
X186760000Y-105270000D03*
%TO.P,U810,11,LED3_11*%
%TO.N,Net-(U810-LED3)*%
X186760000Y-96380000D03*
%TO.P,U810,12,LED4_12*%
%TO.N,GND*%
X186760000Y-93840000D03*
D11*
%TO.P,U810,13,SHD_13*%
X192470000Y-108830000D03*
%TO.P,U810,14,SHD_14*%
X192470000Y-92570000D03*
%TD*%
D14*
%TO.P,U103,*%
%TO.N,*%
X160700000Y-61200000D03*
X171700000Y-61200000D03*
D15*
%TO.P,U103,1,GND_1*%
%TO.N,GND*%
X168700000Y-71200000D03*
D16*
%TO.P,U103,2,VIN_2*%
%TO.N,VIN*%
X163700000Y-71200000D03*
%TD*%
D10*
%TO.P,U802,1,RX_1*%
%TO.N,/Connectivity/P4_RX_P*%
X159780000Y-137860000D03*
%TO.P,U802,2,~{RX}_2*%
%TO.N,/Connectivity/P4_RX_N*%
X158760000Y-136080000D03*
%TO.P,U802,3,VCC_3*%
%TO.N,+5V*%
X157740000Y-137860000D03*
%TO.P,U802,4,CLK_4*%
%TO.N,/Connectivity/P4_CLK_P*%
X156720000Y-136080000D03*
%TO.P,U802,5,~{CLK}_5*%
%TO.N,/Connectivity/P4_CLK_N*%
X155700000Y-137860000D03*
%TO.P,U802,6,GND_6*%
%TO.N,GND*%
X154680000Y-136080000D03*
%TO.P,U802,7,~{TX}_7*%
%TO.N,/Connectivity/P4_TX_N*%
X153660000Y-137860000D03*
%TO.P,U802,8,TX_8*%
%TO.N,/Connectivity/P4_TX_P*%
X152640000Y-136080000D03*
%TO.P,U802,9,LED1_9*%
%TO.N,Net-(U802-LED1)*%
X149340000Y-131260000D03*
%TO.P,U802,10,LED2_10*%
%TO.N,GND*%
X151630000Y-131260000D03*
%TO.P,U802,11,LED3_11*%
%TO.N,Net-(U802-LED3)*%
X160520000Y-131260000D03*
%TO.P,U802,12,LED4_12*%
%TO.N,GND*%
X163060000Y-131260000D03*
D11*
%TO.P,U802,13,SHD_13*%
X148070000Y-136970000D03*
%TO.P,U802,14,SHD_14*%
X164330000Y-136970000D03*
%TD*%
D12*
%TO.P,H801,1,1_1*%
%TO.N,GND*%
X118300000Y-65200000D03*
X119002944Y-63502944D03*
X119002944Y-66897056D03*
X120700000Y-62800000D03*
D13*
X120700000Y-65200000D03*
D12*
X120700000Y-67600000D03*
X122397056Y-63502944D03*
X122397056Y-66897056D03*
X123100000Y-65200000D03*
%TD*%
%TO.P,H802,1,1_1*%
%TO.N,GND*%
X189300000Y-65200000D03*
X190002944Y-63502944D03*
X190002944Y-66897056D03*
X191700000Y-62800000D03*
D13*
X191700000Y-65200000D03*
D12*
X191700000Y-67600000D03*
X193397056Y-63502944D03*
X193397056Y-66897056D03*
X194100000Y-65200000D03*
%TD*%
D10*
%TO.P,U821,1,RX_1*%
%TO.N,/Connectivity/P9_RX_P*%
X193360000Y-77620000D03*
%TO.P,U821,2,~{RX}_2*%
%TO.N,/Connectivity/P9_RX_N*%
X191580000Y-78640000D03*
%TO.P,U821,3,VCC_3*%
%TO.N,+5V*%
X193360000Y-79660000D03*
%TO.P,U821,4,CLK_4*%
%TO.N,/Connectivity/P9_CLK_P*%
X191580000Y-80680000D03*
%TO.P,U821,5,~{CLK}_5*%
%TO.N,/Connectivity/P9_CLK_N*%
X193360000Y-81700000D03*
%TO.P,U821,6,GND_6*%
%TO.N,GND*%
X191580000Y-82720000D03*
%TO.P,U821,7,~{TX}_7*%
%TO.N,/Connectivity/P9_TX_N*%
X193360000Y-83740000D03*
%TO.P,U821,8,TX_8*%
%TO.N,/Connectivity/P9_TX_P*%
X191580000Y-84760000D03*
%TO.P,U821,9,LED1_9*%
%TO.N,Net-(U821-LED1)*%
X186760000Y-88060000D03*
%TO.P,U821,10,LED2_10*%
%TO.N,GND*%
X186760000Y-85770000D03*
%TO.P,U821,11,LED3_11*%
%TO.N,Net-(U821-LED3)*%
X186760000Y-76880000D03*
%TO.P,U821,12,LED4_12*%
%TO.N,GND*%
X186760000Y-74340000D03*
D11*
%TO.P,U821,13,SHD_13*%
X192470000Y-89330000D03*
%TO.P,U821,14,SHD_14*%
X192470000Y-73070000D03*
%TD*%
D17*
%TO.P,J701,S1,SHIELD_S1*%
%TO.N,unconnected-(J701-SHIELD-PadS1)_2*%
X150520000Y-64805000D03*
D18*
%TO.N,unconnected-(J701-SHIELD-PadS1)*%
X150520000Y-60625000D03*
D17*
%TO.N,unconnected-(J701-SHIELD-PadS1)_3*%
X141880000Y-64805000D03*
D18*
%TO.N,unconnected-(J701-SHIELD-PadS1)_1*%
X141880000Y-60625000D03*
%TD*%
D10*
%TO.P,U801,1,RX_1*%
%TO.N,/Connectivity/P1_RX_P*%
X119040000Y-123780000D03*
%TO.P,U801,2,~{RX}_2*%
%TO.N,/Connectivity/P1_RX_N*%
X120820000Y-122760000D03*
%TO.P,U801,3,VCC_3*%
%TO.N,+5V*%
X119040000Y-121740000D03*
%TO.P,U801,4,CLK_4*%
%TO.N,/Connectivity/P1_CLK_P*%
X120820000Y-120720000D03*
%TO.P,U801,5,~{CLK}_5*%
%TO.N,/Connectivity/P1_CLK_N*%
X119040000Y-119700000D03*
%TO.P,U801,6,GND_6*%
%TO.N,GND*%
X120820000Y-118680000D03*
%TO.P,U801,7,~{TX}_7*%
%TO.N,/Connectivity/P1_TX_N*%
X119040000Y-117660000D03*
%TO.P,U801,8,TX_8*%
%TO.N,/Connectivity/P1_TX_P*%
X120820000Y-116640000D03*
%TO.P,U801,9,LED1_9*%
%TO.N,Net-(U801-LED1)*%
X125640000Y-113340000D03*
%TO.P,U801,10,LED2_10*%
%TO.N,GND*%
X125640000Y-115630000D03*
%TO.P,U801,11,LED3_11*%
%TO.N,Net-(U801-LED3)*%
X125640000Y-124520000D03*
%TO.P,U801,12,LED4_12*%
%TO.N,GND*%
X125640000Y-127060000D03*
D11*
%TO.P,U801,13,SHD_13*%
X119930000Y-112070000D03*
%TO.P,U801,14,SHD_14*%
X119930000Y-128330000D03*
%TD*%
D12*
%TO.P,H803,1,1_1*%
%TO.N,GND*%
X118300000Y-136200000D03*
X119002944Y-134502944D03*
X119002944Y-137897056D03*
X120700000Y-133800000D03*
D13*
X120700000Y-136200000D03*
D12*
X120700000Y-138600000D03*
X122397056Y-134502944D03*
X122397056Y-137897056D03*
X123100000Y-136200000D03*
%TD*%
D19*
%TO.P,C709,1*%
%TO.N,Net-(U702-PLLFILT)*%
X143965000Y-69140000D03*
%TO.P,C709,2*%
%TO.N,GND*%
X143965000Y-70100000D03*
%TD*%
D20*
%TO.P,C317,1*%
%TO.N,+2V5*%
X160025000Y-121150000D03*
%TO.P,C317,2*%
%TO.N,GND*%
X158475000Y-121150000D03*
%TD*%
D21*
%TO.P,C318,1*%
%TO.N,+1V0*%
X157480000Y-112800000D03*
%TO.P,C318,2*%
%TO.N,GND*%
X158120000Y-112800000D03*
%TD*%
D22*
%TO.P,D805,1,A1_1*%
%TO.N,GND*%
X159382947Y-139502947D03*
%TO.P,D805,2,A2_2*%
%TO.N,+5V*%
X158697053Y-138817053D03*
%TD*%
D23*
%TO.P,R811,1*%
%TO.N,P5_L2*%
X180020000Y-128750000D03*
%TO.P,R811,2*%
%TO.N,Net-(U811-LED3)*%
X180020000Y-129770000D03*
%TD*%
%TO.P,R210,1*%
%TO.N,+5V*%
X171400000Y-78390000D03*
%TO.P,R210,2*%
%TO.N,/Power/PG_2V5*%
X171400000Y-79410000D03*
%TD*%
D24*
%TO.P,C703,1*%
%TO.N,+3V3*%
X142970000Y-71330000D03*
%TO.P,C703,2*%
%TO.N,GND*%
X143930000Y-71330000D03*
%TD*%
D25*
%TO.P,R606,1*%
%TO.N,Net-(U602-DO)*%
X139460000Y-75720000D03*
%TO.P,R606,2*%
%TO.N,/Serial/EEDATA*%
X138440000Y-75720000D03*
%TD*%
D26*
%TO.P,C334,1*%
%TO.N,+1V8*%
X159400000Y-113975000D03*
%TO.P,C334,2*%
%TO.N,GND*%
X159400000Y-112425000D03*
%TD*%
D27*
%TO.P,C712,1*%
%TO.N,Net-(U702-CRFILT)*%
X144475000Y-73580000D03*
%TO.P,C712,2*%
%TO.N,GND*%
X144475000Y-72620000D03*
%TD*%
D28*
%TO.P,C327,1*%
%TO.N,+2V5*%
X161720000Y-106800000D03*
%TO.P,C327,2*%
%TO.N,GND*%
X161080000Y-106800000D03*
%TD*%
D29*
%TO.P,C209,1*%
%TO.N,+5V*%
X196000000Y-118725000D03*
%TO.P,C209,2*%
%TO.N,GND*%
X196000000Y-121675000D03*
%TD*%
D30*
%TO.P,C603,1*%
%TO.N,+3V3*%
X139180000Y-85900000D03*
%TO.P,C603,2*%
%TO.N,GND*%
X138220000Y-85900000D03*
%TD*%
D31*
%TO.P,R813,1*%
%TO.N,P3_L1*%
X184250000Y-127060000D03*
%TO.P,R813,2*%
%TO.N,Net-(U819-LED1)*%
X185270000Y-127060000D03*
%TD*%
D32*
%TO.P,C325,1*%
%TO.N,+1V0*%
X155800000Y-111120000D03*
%TO.P,C325,2*%
%TO.N,GND*%
X155800000Y-110480000D03*
%TD*%
D26*
%TO.P,C508,1*%
%TO.N,+3V3_VPHY_JTAG*%
X140350000Y-82760000D03*
%TO.P,C508,2*%
%TO.N,GND*%
X140350000Y-81210000D03*
%TD*%
D27*
%TO.P,C401,1*%
%TO.N,/FPGA_Config/FPGA_RST*%
X138350000Y-61780000D03*
%TO.P,C401,2*%
%TO.N,GND*%
X138350000Y-60820000D03*
%TD*%
D24*
%TO.P,C224,1*%
%TO.N,/Power/TR{slash}SS*%
X178220000Y-60550000D03*
%TO.P,C224,2*%
%TO.N,GND*%
X179180000Y-60550000D03*
%TD*%
D33*
%TO.P,C101,1*%
%TO.N,VIN*%
X165135000Y-68120000D03*
%TO.P,C101,2*%
%TO.N,Net-(C101-Pad2)*%
X168085000Y-68120000D03*
%TD*%
D23*
%TO.P,R204,1*%
%TO.N,+5V*%
X181400000Y-78400000D03*
%TO.P,R204,2*%
%TO.N,/Power/PG_1V8*%
X181400000Y-79420000D03*
%TD*%
D28*
%TO.P,C354,1*%
%TO.N,+3V3*%
X151720000Y-111200000D03*
%TO.P,C354,2*%
%TO.N,GND*%
X151080000Y-111200000D03*
%TD*%
D34*
%TO.P,Q101,1,S_1*%
%TO.N,Net-(Q101A-S)*%
X162610000Y-65930000D03*
%TO.P,Q101,2,G_2*%
%TO.N,/Input/GATE*%
X162610000Y-64660000D03*
%TO.P,Q101,3,S_3*%
%TO.N,Net-(Q101A-S)*%
X162610000Y-63390000D03*
%TO.P,Q101,4,G_4*%
%TO.N,/Input/GATE*%
X162610000Y-62120000D03*
D35*
%TO.P,Q101,5,D_5*%
%TO.N,VIN*%
X165970000Y-65155000D03*
D36*
X168075000Y-64660000D03*
X168075000Y-65930000D03*
D35*
%TO.P,Q101,6,D_6*%
%TO.N,/Input/SENSE*%
X165970000Y-62895000D03*
D36*
X168075000Y-62120000D03*
X168075000Y-63390000D03*
%TD*%
D33*
%TO.P,C216,1*%
%TO.N,+1V8*%
X181675000Y-113900000D03*
%TO.P,C216,2*%
%TO.N,GND*%
X184625000Y-113900000D03*
%TD*%
D29*
%TO.P,C219,1*%
%TO.N,+5V*%
X196000000Y-79725000D03*
%TO.P,C219,2*%
%TO.N,GND*%
X196000000Y-82675000D03*
%TD*%
D31*
%TO.P,R105,1*%
%TO.N,Net-(U102-~{SHDN})*%
X157090000Y-68370000D03*
%TO.P,R105,2*%
%TO.N,Net-(U102-UV)*%
X158110000Y-68370000D03*
%TD*%
D25*
%TO.P,R506,1*%
%TO.N,Net-(U503-DO)*%
X152210000Y-75720000D03*
%TO.P,R506,2*%
%TO.N,/JTAG/EEDATA*%
X151190000Y-75720000D03*
%TD*%
D37*
%TO.P,C316,1*%
%TO.N,+2V5*%
X158600000Y-118880000D03*
%TO.P,C316,2*%
%TO.N,GND*%
X158600000Y-119520000D03*
%TD*%
D25*
%TO.P,R104,1*%
%TO.N,VIN*%
X158110000Y-69370000D03*
%TO.P,R104,2*%
%TO.N,Net-(U102-~{SHDN})*%
X157090000Y-69370000D03*
%TD*%
D27*
%TO.P,C609,1*%
%TO.N,+3V3_VPHY_SER*%
X128858908Y-81607413D03*
%TO.P,C609,2*%
%TO.N,GND*%
X128858908Y-80647413D03*
%TD*%
D19*
%TO.P,C103,1*%
%TO.N,Net-(C103-Pad1)*%
X158460000Y-60590000D03*
%TO.P,C103,2*%
%TO.N,GND*%
X158460000Y-61550000D03*
%TD*%
D32*
%TO.P,C314,1*%
%TO.N,+2V5*%
X162600000Y-119520000D03*
%TO.P,C314,2*%
%TO.N,GND*%
X162600000Y-118880000D03*
%TD*%
D38*
%TO.P,FB602,1*%
%TO.N,+3V3_VPLL_SER*%
X126458908Y-82522413D03*
%TO.P,FB602,2*%
%TO.N,+3V3*%
X126458908Y-83492413D03*
%TD*%
D22*
%TO.P,D804,1,A1_1*%
%TO.N,GND*%
X178882947Y-139502946D03*
%TO.P,D804,2,A2_2*%
%TO.N,+5V*%
X178197053Y-138817054D03*
%TD*%
D39*
%TO.P,C511,1*%
%TO.N,+3V3_VPLL_JTAG*%
X140350000Y-84210000D03*
%TO.P,C511,2*%
%TO.N,GND*%
X140350000Y-85760000D03*
%TD*%
D21*
%TO.P,C332,1*%
%TO.N,+2V5*%
X157080000Y-106800000D03*
%TO.P,C332,2*%
%TO.N,GND*%
X157720000Y-106800000D03*
%TD*%
D32*
%TO.P,C322,1*%
%TO.N,+1V0*%
X155800000Y-115920000D03*
%TO.P,C322,2*%
%TO.N,GND*%
X155800000Y-115280000D03*
%TD*%
D28*
%TO.P,C305,1*%
%TO.N,+1V0*%
X154920000Y-112000000D03*
%TO.P,C305,2*%
%TO.N,GND*%
X154280000Y-112000000D03*
%TD*%
D21*
%TO.P,C307,1*%
%TO.N,+1V0*%
X154280000Y-111200000D03*
%TO.P,C307,2*%
%TO.N,GND*%
X154920000Y-111200000D03*
%TD*%
D28*
%TO.P,C347,1*%
%TO.N,+1V0*%
X157320000Y-111200000D03*
%TO.P,C347,2*%
%TO.N,GND*%
X156680000Y-111200000D03*
%TD*%
D37*
%TO.P,C338,1*%
%TO.N,+1V8*%
X158200000Y-115280000D03*
%TO.P,C338,2*%
%TO.N,GND*%
X158200000Y-115920000D03*
%TD*%
D40*
%TO.P,C333,1*%
%TO.N,+2V5*%
X164025000Y-115300000D03*
%TO.P,C333,2*%
%TO.N,GND*%
X165575000Y-115300000D03*
%TD*%
D31*
%TO.P,R818,1*%
%TO.N,P9_L2*%
X184250000Y-76880000D03*
%TO.P,R818,2*%
%TO.N,Net-(U821-LED3)*%
X185270000Y-76880000D03*
%TD*%
D41*
%TO.P,C102,1*%
%TO.N,VIN*%
X161310000Y-68120000D03*
%TO.P,C102,2*%
%TO.N,GND*%
X159410000Y-68120000D03*
%TD*%
D21*
%TO.P,C321,1*%
%TO.N,+1V0*%
X154280000Y-116000000D03*
%TO.P,C321,2*%
%TO.N,GND*%
X154920000Y-116000000D03*
%TD*%
%TO.P,C351,1*%
%TO.N,+3V3*%
X149880000Y-112400000D03*
%TO.P,C351,2*%
%TO.N,GND*%
X150520000Y-112400000D03*
%TD*%
D23*
%TO.P,R808,1*%
%TO.N,P5_L1*%
X168840000Y-128750000D03*
%TO.P,R808,2*%
%TO.N,Net-(U811-LED1)*%
X168840000Y-129770000D03*
%TD*%
D28*
%TO.P,C302,1*%
%TO.N,+2V5*%
X154840000Y-118200000D03*
%TO.P,C302,2*%
%TO.N,GND*%
X154200000Y-118200000D03*
%TD*%
D42*
%TO.P,R705,1*%
%TO.N,GND*%
X143000000Y-70110000D03*
%TO.P,R705,2*%
%TO.N,Net-(U702-RBIAS)*%
X143000000Y-69090000D03*
%TD*%
D37*
%TO.P,Re402,1*%
%TO.N,/FPGA_Config/MODE2*%
X157400000Y-116880000D03*
%TO.P,Re402,2*%
%TO.N,GND*%
X157400000Y-117520000D03*
%TD*%
D28*
%TO.P,C306,1*%
%TO.N,+1V0*%
X154920000Y-110400000D03*
%TO.P,C306,2*%
%TO.N,GND*%
X154280000Y-110400000D03*
%TD*%
D27*
%TO.P,C504,1*%
%TO.N,+3V3*%
X145250000Y-84880000D03*
%TO.P,C504,2*%
%TO.N,GND*%
X145250000Y-83920000D03*
%TD*%
D43*
%TO.P,C205,1*%
%TO.N,+5V*%
X116400000Y-82675000D03*
%TO.P,C205,2*%
%TO.N,GND*%
X116400000Y-79725000D03*
%TD*%
D32*
%TO.P,C349,1*%
%TO.N,+3V3*%
X150600000Y-107520000D03*
%TO.P,C349,2*%
%TO.N,GND*%
X150600000Y-106880000D03*
%TD*%
D28*
%TO.P,C336,1*%
%TO.N,+1V8*%
X158120000Y-112000000D03*
%TO.P,C336,2*%
%TO.N,GND*%
X157480000Y-112000000D03*
%TD*%
D37*
%TO.P,FB301,1*%
%TO.N,+1V8*%
X159800000Y-110480000D03*
%TO.P,FB301,2*%
%TO.N,Net-(U301A-VCCADC_0)*%
X159800000Y-111120000D03*
%TD*%
D42*
%TO.P,R216,1*%
%TO.N,/Power/FB_3V3*%
X164150000Y-78420000D03*
%TO.P,R216,2*%
%TO.N,GND*%
X164150000Y-77400000D03*
%TD*%
D28*
%TO.P,C315,1*%
%TO.N,+2V5*%
X161720000Y-114800000D03*
%TO.P,C315,2*%
%TO.N,GND*%
X161080000Y-114800000D03*
%TD*%
D25*
%TO.P,R106,1*%
%TO.N,Net-(U102-UV)*%
X158110000Y-67390000D03*
%TO.P,R106,2*%
%TO.N,Net-(U102-OV)*%
X157090000Y-67390000D03*
%TD*%
D23*
%TO.P,R814,1*%
%TO.N,P6_L1*%
X129840000Y-128750000D03*
%TO.P,R814,2*%
%TO.N,Net-(U820-LED1)*%
X129840000Y-129770000D03*
%TD*%
D21*
%TO.P,C328,1*%
%TO.N,+2V5*%
X161880000Y-108400000D03*
%TO.P,C328,2*%
%TO.N,GND*%
X162520000Y-108400000D03*
%TD*%
D31*
%TO.P,R505,1*%
%TO.N,/JTAG/EECLK*%
X151190000Y-74745000D03*
%TO.P,R505,2*%
%TO.N,+3V3*%
X152210000Y-74745000D03*
%TD*%
D28*
%TO.P,C352,1*%
%TO.N,+3V3*%
X152920000Y-109200000D03*
%TO.P,C352,2*%
%TO.N,GND*%
X152280000Y-109200000D03*
%TD*%
D21*
%TO.P,C326,1*%
%TO.N,+2V5*%
X161080000Y-110800000D03*
%TO.P,C326,2*%
%TO.N,GND*%
X161720000Y-110800000D03*
%TD*%
D25*
%TO.P,R801,1*%
%TO.N,P1_L1*%
X128150000Y-113340000D03*
%TO.P,R801,2*%
%TO.N,Net-(U801-LED1)*%
X127130000Y-113340000D03*
%TD*%
D39*
%TO.P,C355,1*%
%TO.N,+3V3*%
X148250000Y-110975000D03*
%TO.P,C355,2*%
%TO.N,GND*%
X148250000Y-112525000D03*
%TD*%
D44*
%TO.P,C212,1*%
%TO.N,+5V*%
X138175000Y-140500000D03*
%TO.P,C212,2*%
%TO.N,GND*%
X135225000Y-140500000D03*
%TD*%
D21*
%TO.P,C310,1*%
%TO.N,+1V0*%
X154280000Y-114400000D03*
%TO.P,C310,2*%
%TO.N,GND*%
X154920000Y-114400000D03*
%TD*%
D19*
%TO.P,C507,1*%
%TO.N,Net-(U502-VCCA)*%
X152100000Y-79020000D03*
%TO.P,C507,2*%
%TO.N,GND*%
X152100000Y-79980000D03*
%TD*%
D32*
%TO.P,C301,1*%
%TO.N,Net-(U301A-VCCADC_0)*%
X159000000Y-111120000D03*
%TO.P,C301,2*%
%TO.N,GND*%
X159000000Y-110480000D03*
%TD*%
D23*
%TO.P,R817,1*%
%TO.N,P6_L2*%
X141020000Y-128750000D03*
%TO.P,R817,2*%
%TO.N,Net-(U820-LED3)*%
X141020000Y-129770000D03*
%TD*%
D45*
%TO.P,D802,1,A1_1*%
%TO.N,GND*%
X195002947Y-97517053D03*
%TO.P,D802,2,A2_2*%
%TO.N,+5V*%
X194317053Y-98202947D03*
%TD*%
D19*
%TO.P,C607,1*%
%TO.N,Net-(U601-VCCA)*%
X139350000Y-79020000D03*
%TO.P,C607,2*%
%TO.N,GND*%
X139350000Y-79980000D03*
%TD*%
D38*
%TO.P,FB502,1*%
%TO.N,+3V3_VPLL_JTAG*%
X139150000Y-83950000D03*
%TO.P,FB502,2*%
%TO.N,+3V3*%
X139150000Y-84920000D03*
%TD*%
D46*
%TO.P,Y701,1,1_1*%
%TO.N,/USB/OSC_IN*%
X135855000Y-64150000D03*
%TO.P,Y701,2,G_2*%
%TO.N,GND*%
X137605000Y-64150000D03*
%TO.P,Y701,3,3_3*%
%TO.N,Net-(C714-Pad1)*%
X137605000Y-65550000D03*
%TO.P,Y701,4,G_4*%
%TO.N,GND*%
X135855000Y-65550000D03*
%TD*%
D21*
%TO.P,C348,1*%
%TO.N,+1V0*%
X156680000Y-110400000D03*
%TO.P,C348,2*%
%TO.N,GND*%
X157320000Y-110400000D03*
%TD*%
D42*
%TO.P,R212,1*%
%TO.N,/Power/FB_2V5*%
X169150000Y-78420000D03*
%TO.P,R212,2*%
%TO.N,GND*%
X169150000Y-77400000D03*
%TD*%
D23*
%TO.P,R601,1*%
%TO.N,+3V3*%
X141850000Y-78990000D03*
%TO.P,R601,2*%
%TO.N,Net-(U601-~{RESET})*%
X141850000Y-80010000D03*
%TD*%
D42*
%TO.P,R215,1*%
%TO.N,+3V3*%
X164150000Y-80420000D03*
%TO.P,R215,2*%
%TO.N,/Power/FB_3V3*%
X164150000Y-79400000D03*
%TD*%
D21*
%TO.P,C308,1*%
%TO.N,+1V0*%
X154280000Y-112800000D03*
%TO.P,C308,2*%
%TO.N,GND*%
X154920000Y-112800000D03*
%TD*%
D32*
%TO.P,C353,1*%
%TO.N,+3V3*%
X154200000Y-106375000D03*
%TO.P,C353,2*%
%TO.N,GND*%
X154200000Y-105735000D03*
%TD*%
D28*
%TO.P,C313,1*%
%TO.N,+2V5*%
X160120000Y-119600000D03*
%TO.P,C313,2*%
%TO.N,GND*%
X159480000Y-119600000D03*
%TD*%
D31*
%TO.P,R710,1*%
%TO.N,Net-(U702-VBUS_DET)*%
X148990000Y-67250000D03*
%TO.P,R710,2*%
%TO.N,VBUS*%
X150010000Y-67250000D03*
%TD*%
D28*
%TO.P,C312,1*%
%TO.N,+2V5*%
X160920000Y-117200000D03*
%TO.P,C312,2*%
%TO.N,GND*%
X160280000Y-117200000D03*
%TD*%
D19*
%TO.P,C506,1*%
%TO.N,Net-(U502-VCCCORE)*%
X151150000Y-79020000D03*
%TO.P,C506,2*%
%TO.N,GND*%
X151150000Y-79980000D03*
%TD*%
D31*
%TO.P,R503,1*%
%TO.N,Net-(U503-DO)*%
X149840000Y-77000000D03*
%TO.P,R503,2*%
%TO.N,+3V3*%
X150860000Y-77000000D03*
%TD*%
%TO.P,R206,1*%
%TO.N,+5V*%
X173890000Y-62000000D03*
%TO.P,R206,2*%
%TO.N,/Power/FB_5V0*%
X174910000Y-62000000D03*
%TD*%
D47*
%TO.P,FB501,1*%
%TO.N,+3V3_VPHY_JTAG*%
X139150000Y-83020000D03*
%TO.P,FB501,2*%
%TO.N,+3V3*%
X139150000Y-82050000D03*
%TD*%
D28*
%TO.P,C329,1*%
%TO.N,+2V5*%
X162520000Y-112400000D03*
%TO.P,C329,2*%
%TO.N,GND*%
X161880000Y-112400000D03*
%TD*%
D33*
%TO.P,C228,1*%
%TO.N,+2V5*%
X168675000Y-108150000D03*
%TO.P,C228,2*%
%TO.N,GND*%
X171625000Y-108150000D03*
%TD*%
D27*
%TO.P,C702,1*%
%TO.N,+3V3*%
X142950000Y-73610000D03*
%TO.P,C702,2*%
%TO.N,GND*%
X142950000Y-72650000D03*
%TD*%
%TO.P,C509,1*%
%TO.N,+3V3_VPHY_JTAG*%
X141550000Y-83035000D03*
%TO.P,C509,2*%
%TO.N,GND*%
X141550000Y-82075000D03*
%TD*%
D48*
%TO.P,U102,1,VIN_1*%
%TO.N,VIN*%
X159860000Y-65620000D03*
%TO.P,U102,2,UV_2*%
%TO.N,Net-(U102-UV)*%
X159360000Y-65620000D03*
%TO.P,U102,3,OV_3*%
%TO.N,Net-(U102-OV)*%
X158860000Y-65620000D03*
%TO.P,U102,4,RETRY_4*%
%TO.N,Net-(U102-RETRY)*%
X158360000Y-65620000D03*
%TO.P,U102,5,GND_5*%
%TO.N,GND*%
X157860000Y-65620000D03*
%TO.P,U102,6,~{SHDN}_6*%
%TO.N,Net-(U102-~{SHDN})*%
X157860000Y-62720000D03*
%TO.P,U102,7,~{FAULT}_7*%
%TO.N,unconnected-(U102-~{FAULT}-Pad7)*%
X158360000Y-62720000D03*
%TO.P,U102,8,VOUT_8*%
%TO.N,VREG_IN*%
X158860000Y-62720000D03*
%TO.P,U102,9,SENSE_9*%
%TO.N,/Input/SENSE*%
X159360000Y-62720000D03*
%TO.P,U102,10,GATE_10*%
%TO.N,/Input/GATE*%
X159860000Y-62720000D03*
D49*
%TO.P,U102,11,EP_11*%
%TO.N,GND*%
X158860000Y-64170000D03*
%TD*%
D32*
%TO.P,C324,1*%
%TO.N,+1V0*%
X157400000Y-115920000D03*
%TO.P,C324,2*%
%TO.N,GND*%
X157400000Y-115280000D03*
%TD*%
D50*
%TO.P,U101,1,VIN_1*%
%TO.N,VIN*%
X160910000Y-70570000D03*
%TO.P,U101,2,VIN_2*%
X160910000Y-71220000D03*
%TO.P,U101,3,VIN_3*%
X160910000Y-71870000D03*
%TO.P,U101,4,GND_4*%
%TO.N,GND*%
X158810000Y-71870000D03*
%TO.P,U101,5,GND_5*%
X158810000Y-71220000D03*
%TO.P,U101,6,GND_6*%
X158810000Y-70570000D03*
D51*
%TO.P,U101,7,GND_7*%
X159860000Y-71220000D03*
%TD*%
D23*
%TO.P,R805,1*%
%TO.N,P4_L2*%
X160520000Y-128750000D03*
%TO.P,R805,2*%
%TO.N,Net-(U802-LED3)*%
X160520000Y-129770000D03*
%TD*%
D19*
%TO.P,C512,1*%
%TO.N,+3V3_VPLL_JTAG*%
X141550000Y-83935000D03*
%TO.P,C512,2*%
%TO.N,GND*%
X141550000Y-84895000D03*
%TD*%
D52*
%TO.P,D808,1,A1_1*%
%TO.N,GND*%
X117397053Y-103882947D03*
%TO.P,D808,2,A2_2*%
%TO.N,+5V*%
X118082947Y-103197053D03*
%TD*%
D44*
%TO.P,C211,1*%
%TO.N,+5V*%
X157675000Y-140500000D03*
%TO.P,C211,2*%
%TO.N,GND*%
X154725000Y-140500000D03*
%TD*%
D25*
%TO.P,R806,1*%
%TO.N,P7_L2*%
X128150000Y-85520000D03*
%TO.P,R806,2*%
%TO.N,Net-(U803-LED3)*%
X127130000Y-85520000D03*
%TD*%
D21*
%TO.P,C339,1*%
%TO.N,+2V5*%
X155480000Y-120000000D03*
%TO.P,C339,2*%
%TO.N,GND*%
X156120000Y-120000000D03*
%TD*%
D42*
%TO.P,R207,1*%
%TO.N,/Power/FB_1V8*%
X179150000Y-78440000D03*
%TO.P,R207,2*%
%TO.N,GND*%
X179150000Y-77420000D03*
%TD*%
D20*
%TO.P,C303,1*%
%TO.N,+2V5*%
X152125000Y-120950000D03*
%TO.P,C303,2*%
%TO.N,GND*%
X150575000Y-120950000D03*
%TD*%
D44*
%TO.P,C203,1*%
%TO.N,+1V0*%
X143875000Y-108150000D03*
%TO.P,C203,2*%
%TO.N,GND*%
X140925000Y-108150000D03*
%TD*%
D30*
%TO.P,C602,1*%
%TO.N,+3V3*%
X137850000Y-78100000D03*
%TO.P,C602,2*%
%TO.N,GND*%
X136890000Y-78100000D03*
%TD*%
D21*
%TO.P,C340,1*%
%TO.N,+2V5*%
X151480000Y-115600000D03*
%TO.P,C340,2*%
%TO.N,GND*%
X152120000Y-115600000D03*
%TD*%
D40*
%TO.P,C331,1*%
%TO.N,+2V5*%
X157075000Y-105500000D03*
%TO.P,C331,2*%
%TO.N,GND*%
X158625000Y-105500000D03*
%TD*%
D37*
%TO.P,C335,1*%
%TO.N,+1V8*%
X158200000Y-110480000D03*
%TO.P,C335,2*%
%TO.N,GND*%
X158200000Y-111120000D03*
%TD*%
D21*
%TO.P,C319,1*%
%TO.N,+1V0*%
X157480000Y-114400000D03*
%TO.P,C319,2*%
%TO.N,GND*%
X158120000Y-114400000D03*
%TD*%
D28*
%TO.P,C309,1*%
%TO.N,+1V0*%
X154920000Y-113600000D03*
%TO.P,C309,2*%
%TO.N,GND*%
X154280000Y-113600000D03*
%TD*%
D27*
%TO.P,C104,1*%
%TO.N,Net-(U102-RETRY)*%
X156610000Y-65850000D03*
%TO.P,C104,2*%
%TO.N,GND*%
X156610000Y-64890000D03*
%TD*%
%TO.P,C610,1*%
%TO.N,Net-(U601-~{RESET})*%
X140900000Y-79980000D03*
%TO.P,C610,2*%
%TO.N,GND*%
X140900000Y-79020000D03*
%TD*%
D25*
%TO.P,R809,1*%
%TO.N,P8_L1*%
X128150000Y-93840000D03*
%TO.P,R809,2*%
%TO.N,Net-(U812-LED1)*%
X127130000Y-93840000D03*
%TD*%
D21*
%TO.P,C330,1*%
%TO.N,+2V5*%
X159480000Y-107600000D03*
%TO.P,C330,2*%
%TO.N,GND*%
X160120000Y-107600000D03*
%TD*%
D39*
%TO.P,C611,1*%
%TO.N,+3V3_VPLL_SER*%
X127658908Y-82782413D03*
%TO.P,C611,2*%
%TO.N,GND*%
X127658908Y-84332413D03*
%TD*%
D21*
%TO.P,C343,1*%
%TO.N,+2V5*%
X150680000Y-118000000D03*
%TO.P,C343,2*%
%TO.N,GND*%
X151320000Y-118000000D03*
%TD*%
D31*
%TO.P,R603,1*%
%TO.N,Net-(U602-DO)*%
X137090000Y-76900000D03*
%TO.P,R603,2*%
%TO.N,+3V3*%
X138110000Y-76900000D03*
%TD*%
D21*
%TO.P,C311,1*%
%TO.N,+2V5*%
X159000000Y-116000000D03*
%TO.P,C311,2*%
%TO.N,GND*%
X159640000Y-116000000D03*
%TD*%
D25*
%TO.P,R208,1*%
%TO.N,/Power/FB_5V0*%
X174910000Y-60100000D03*
%TO.P,R208,2*%
%TO.N,GND*%
X173890000Y-60100000D03*
%TD*%
D23*
%TO.P,R214,1*%
%TO.N,+5V*%
X166400000Y-78390000D03*
%TO.P,R214,2*%
%TO.N,/Power/PG_3V3*%
X166400000Y-79410000D03*
%TD*%
D52*
%TO.P,D807,1,A1_1*%
%TO.N,GND*%
X117397053Y-123382947D03*
%TO.P,D807,2,A2_2*%
%TO.N,+5V*%
X118082947Y-122697053D03*
%TD*%
D42*
%TO.P,R202,1*%
%TO.N,+1V0*%
X174200000Y-80420000D03*
%TO.P,R202,2*%
%TO.N,/Power/FB_1V0*%
X174200000Y-79400000D03*
%TD*%
D37*
%TO.P,R405,1*%
%TO.N,/FPGA_Config/MODE0*%
X158200000Y-116880000D03*
%TO.P,R405,2*%
%TO.N,+2V5*%
X158200000Y-117520000D03*
%TD*%
D30*
%TO.P,C505,1*%
%TO.N,+3V3*%
X147340000Y-76870000D03*
%TO.P,C505,2*%
%TO.N,GND*%
X146380000Y-76870000D03*
%TD*%
D28*
%TO.P,C337,1*%
%TO.N,+1V8*%
X158120000Y-113600000D03*
%TO.P,C337,2*%
%TO.N,GND*%
X157480000Y-113600000D03*
%TD*%
D39*
%TO.P,C346,1*%
%TO.N,+1V0*%
X156200000Y-112425000D03*
%TO.P,C346,2*%
%TO.N,GND*%
X156200000Y-113975000D03*
%TD*%
D31*
%TO.P,R807,1*%
%TO.N,P2_L1*%
X184250000Y-107560000D03*
%TO.P,R807,2*%
%TO.N,Net-(U810-LED1)*%
X185270000Y-107560000D03*
%TD*%
D30*
%TO.P,C705,1*%
%TO.N,+3V3*%
X142880000Y-68150000D03*
%TO.P,C705,2*%
%TO.N,GND*%
X141920000Y-68150000D03*
%TD*%
D43*
%TO.P,C210,1*%
%TO.N,+5V*%
X116400000Y-102175000D03*
%TO.P,C210,2*%
%TO.N,GND*%
X116400000Y-99225000D03*
%TD*%
D31*
%TO.P,R605,1*%
%TO.N,/Serial/EECLK*%
X138440000Y-74745000D03*
%TO.P,R605,2*%
%TO.N,+3V3*%
X139460000Y-74745000D03*
%TD*%
D25*
%TO.P,R803,1*%
%TO.N,P7_L1*%
X128150000Y-74340000D03*
%TO.P,R803,2*%
%TO.N,Net-(U803-LED1)*%
X127130000Y-74340000D03*
%TD*%
D42*
%TO.P,R205,1*%
%TO.N,+1V8*%
X179150000Y-80420000D03*
%TO.P,R205,2*%
%TO.N,/Power/FB_1V8*%
X179150000Y-79400000D03*
%TD*%
D22*
%TO.P,D806,1,A1_1*%
%TO.N,GND*%
X139882947Y-139502947D03*
%TO.P,D806,2,A2_2*%
%TO.N,+5V*%
X139197053Y-138817053D03*
%TD*%
D19*
%TO.P,C606,1*%
%TO.N,Net-(U601-VCCCORE)*%
X138400000Y-79020000D03*
%TO.P,C606,2*%
%TO.N,GND*%
X138400000Y-79980000D03*
%TD*%
D28*
%TO.P,C320,1*%
%TO.N,+1V0*%
X154920000Y-115200000D03*
%TO.P,C320,2*%
%TO.N,GND*%
X154280000Y-115200000D03*
%TD*%
D43*
%TO.P,C207,1*%
%TO.N,+5V*%
X116400000Y-121675000D03*
%TO.P,C207,2*%
%TO.N,GND*%
X116400000Y-118725000D03*
%TD*%
D42*
%TO.P,R709,1*%
%TO.N,GND*%
X146950000Y-69560000D03*
%TO.P,R709,2*%
%TO.N,Net-(U702-NON_REM0)*%
X146950000Y-68540000D03*
%TD*%
D19*
%TO.P,C710,1*%
%TO.N,Net-(U702-PLLFILT)*%
X144925000Y-69140000D03*
%TO.P,C710,2*%
%TO.N,GND*%
X144925000Y-70100000D03*
%TD*%
D42*
%TO.P,R203,1*%
%TO.N,/Power/FB_1V0*%
X174200000Y-78410000D03*
%TO.P,R203,2*%
%TO.N,GND*%
X174200000Y-77390000D03*
%TD*%
D29*
%TO.P,C218,1*%
%TO.N,+5V*%
X196000000Y-99225000D03*
%TO.P,C218,2*%
%TO.N,GND*%
X196000000Y-102175000D03*
%TD*%
D23*
%TO.P,R702,1*%
%TO.N,GND*%
X147450000Y-62390000D03*
%TO.P,R702,2*%
%TO.N,Net-(J701-CC1)*%
X147450000Y-63410000D03*
%TD*%
D45*
%TO.P,D803,1,A1_1*%
%TO.N,GND*%
X195002947Y-117017053D03*
%TO.P,D803,2,A2_2*%
%TO.N,+5V*%
X194317053Y-117702947D03*
%TD*%
D32*
%TO.P,R403,1*%
%TO.N,+2V5*%
X155000000Y-117450000D03*
%TO.P,R403,2*%
%TO.N,Net-(U301B-CFGBVS_0)*%
X155000000Y-116810000D03*
%TD*%
D53*
%TO.P,D702,1,A1_1*%
%TO.N,GND*%
X142915000Y-65400000D03*
%TO.P,D702,2,A2_2*%
%TO.N,VBUS*%
X143885000Y-65400000D03*
%TD*%
D23*
%TO.P,R802,1*%
%TO.N,P4_L1*%
X149340000Y-128750000D03*
%TO.P,R802,2*%
%TO.N,Net-(U802-LED1)*%
X149340000Y-129770000D03*
%TD*%
D24*
%TO.P,C223,1*%
%TO.N,+5V*%
X173920000Y-61050000D03*
%TO.P,C223,2*%
%TO.N,/Power/FB_5V0*%
X174880000Y-61050000D03*
%TD*%
D37*
%TO.P,Re401,1*%
%TO.N,/FPGA_Config/MODE1*%
X159000000Y-116880000D03*
%TO.P,Re401,2*%
%TO.N,GND*%
X159000000Y-117520000D03*
%TD*%
D42*
%TO.P,R103,1*%
%TO.N,/Input/GATE*%
X159410000Y-61580000D03*
%TO.P,R103,2*%
%TO.N,Net-(C103-Pad1)*%
X159410000Y-60560000D03*
%TD*%
D21*
%TO.P,R406,1*%
%TO.N,+2V5*%
X153480000Y-116800000D03*
%TO.P,R406,2*%
%TO.N,/FPGA_Config/FPGA_INIT*%
X154120000Y-116800000D03*
%TD*%
D39*
%TO.P,C345,1*%
%TO.N,+2V5*%
X163000000Y-105375000D03*
%TO.P,C345,2*%
%TO.N,GND*%
X163000000Y-106925000D03*
%TD*%
D28*
%TO.P,C341,1*%
%TO.N,+2V5*%
X152920000Y-117600000D03*
%TO.P,C341,2*%
%TO.N,GND*%
X152280000Y-117600000D03*
%TD*%
D21*
%TO.P,C350,1*%
%TO.N,+3V3*%
X149480000Y-111200000D03*
%TO.P,C350,2*%
%TO.N,GND*%
X150120000Y-111200000D03*
%TD*%
D30*
%TO.P,C502,1*%
%TO.N,+3V3*%
X150540000Y-78120000D03*
%TO.P,C502,2*%
%TO.N,GND*%
X149580000Y-78120000D03*
%TD*%
D54*
%TO.P,R101,1*%
%TO.N,/Input/SENSE*%
X170110000Y-62320000D03*
%TO.P,R101,2*%
%TO.N,VREG_IN*%
X170110000Y-65420000D03*
%TD*%
D42*
%TO.P,R407,1*%
%TO.N,+2V5*%
X139350000Y-61810000D03*
%TO.P,R407,2*%
%TO.N,/FPGA_Config/FPGA_RST*%
X139350000Y-60790000D03*
%TD*%
D55*
%TO.P,R102,1*%
%TO.N,Net-(C101-Pad2)*%
X169785000Y-68120000D03*
%TO.P,R102,2*%
%TO.N,GND*%
X171435000Y-68120000D03*
%TD*%
D28*
%TO.P,C342,1*%
%TO.N,+2V5*%
X150520000Y-116400000D03*
%TO.P,C342,2*%
%TO.N,GND*%
X149880000Y-116400000D03*
%TD*%
D25*
%TO.P,R804,1*%
%TO.N,P1_L2*%
X128150000Y-124520000D03*
%TO.P,R804,2*%
%TO.N,Net-(U801-LED3)*%
X127130000Y-124520000D03*
%TD*%
D19*
%TO.P,C704,1*%
%TO.N,+3V3*%
X145900000Y-68570000D03*
%TO.P,C704,2*%
%TO.N,GND*%
X145900000Y-69530000D03*
%TD*%
D31*
%TO.P,R810,1*%
%TO.N,P2_L2*%
X184250000Y-96380000D03*
%TO.P,R810,2*%
%TO.N,Net-(U810-LED3)*%
X185270000Y-96380000D03*
%TD*%
D52*
%TO.P,D809,1,A1_1*%
%TO.N,GND*%
X117397053Y-84382947D03*
%TO.P,D809,2,A2_2*%
%TO.N,+5V*%
X118082947Y-83697053D03*
%TD*%
D25*
%TO.P,R711,1*%
%TO.N,/USB/OSC_OUT*%
X139940000Y-64050000D03*
%TO.P,R711,2*%
%TO.N,Net-(C714-Pad1)*%
X138920000Y-64050000D03*
%TD*%
D26*
%TO.P,C608,1*%
%TO.N,+3V3_VPHY_SER*%
X127658908Y-81332413D03*
%TO.P,C608,2*%
%TO.N,GND*%
X127658908Y-79782413D03*
%TD*%
D23*
%TO.P,R703,1*%
%TO.N,GND*%
X144450000Y-62390000D03*
%TO.P,R703,2*%
%TO.N,Net-(J701-CC2)*%
X144450000Y-63410000D03*
%TD*%
D56*
%TO.P,D703,1,A1_1*%
%TO.N,GND*%
X149485000Y-65400000D03*
%TO.P,D703,2,A2_2*%
%TO.N,VBUS*%
X148515000Y-65400000D03*
%TD*%
D31*
%TO.P,R712,1*%
%TO.N,GND*%
X147090000Y-67250000D03*
%TO.P,R712,2*%
%TO.N,Net-(U702-VBUS_DET)*%
X148110000Y-67250000D03*
%TD*%
D27*
%TO.P,C711,1*%
%TO.N,Net-(U702-CRFILT)*%
X145425000Y-73580000D03*
%TO.P,C711,2*%
%TO.N,GND*%
X145425000Y-72620000D03*
%TD*%
D45*
%TO.P,D801,1,A1_1*%
%TO.N,GND*%
X195002947Y-78017053D03*
%TO.P,D801,2,A2_2*%
%TO.N,+5V*%
X194317053Y-78702947D03*
%TD*%
D19*
%TO.P,C612,1*%
%TO.N,+3V3_VPLL_SER*%
X128858908Y-82507413D03*
%TO.P,C612,2*%
%TO.N,GND*%
X128858908Y-83467413D03*
%TD*%
D24*
%TO.P,C714,1*%
%TO.N,Net-(C714-Pad1)*%
X138950000Y-65000000D03*
%TO.P,C714,2*%
%TO.N,GND*%
X139910000Y-65000000D03*
%TD*%
D31*
%TO.P,R816,1*%
%TO.N,P3_L2*%
X184250000Y-115880000D03*
%TO.P,R816,2*%
%TO.N,Net-(U819-LED3)*%
X185270000Y-115880000D03*
%TD*%
%TO.P,R815,1*%
%TO.N,P9_L1*%
X184250000Y-88060000D03*
%TO.P,R815,2*%
%TO.N,Net-(U821-LED1)*%
X185270000Y-88060000D03*
%TD*%
D23*
%TO.P,R107,1*%
%TO.N,Net-(U102-OV)*%
X156100000Y-67370000D03*
%TO.P,R107,2*%
%TO.N,GND*%
X156100000Y-68390000D03*
%TD*%
D43*
%TO.P,C231,1*%
%TO.N,+3V3*%
X128650000Y-71875000D03*
%TO.P,C231,2*%
%TO.N,GND*%
X128650000Y-68925000D03*
%TD*%
D26*
%TO.P,C304,1*%
%TO.N,+1V0*%
X153000000Y-113975000D03*
%TO.P,C304,2*%
%TO.N,GND*%
X153000000Y-112425000D03*
%TD*%
D47*
%TO.P,FB601,1*%
%TO.N,+3V3_VPHY_SER*%
X126458908Y-81592413D03*
%TO.P,FB601,2*%
%TO.N,+3V3*%
X126458908Y-80622413D03*
%TD*%
D44*
%TO.P,C208,1*%
%TO.N,+5V*%
X177175000Y-140500000D03*
%TO.P,C208,2*%
%TO.N,GND*%
X174225000Y-140500000D03*
%TD*%
D25*
%TO.P,R812,1*%
%TO.N,P8_L2*%
X128150000Y-105020000D03*
%TO.P,R812,2*%
%TO.N,Net-(U812-LED3)*%
X127130000Y-105020000D03*
%TD*%
D42*
%TO.P,R211,1*%
%TO.N,+2V5*%
X169150000Y-80420000D03*
%TO.P,R211,2*%
%TO.N,/Power/FB_2V5*%
X169150000Y-79400000D03*
%TD*%
D23*
%TO.P,R201,1*%
%TO.N,+5V*%
X176400000Y-78390000D03*
%TO.P,R201,2*%
%TO.N,/Power/PG_1V0*%
X176400000Y-79410000D03*
%TD*%
D37*
%TO.P,C323,1*%
%TO.N,+1V0*%
X156600000Y-115280000D03*
%TO.P,C323,2*%
%TO.N,GND*%
X156600000Y-115920000D03*
%TD*%
D28*
%TO.P,C344,1*%
%TO.N,+2V5*%
X152120000Y-119600000D03*
%TO.P,C344,2*%
%TO.N,GND*%
X151480000Y-119600000D03*
%TD*%
%TO.P,R404,1*%
%TO.N,+2V5*%
X161320000Y-113600000D03*
%TO.P,R404,2*%
%TO.N,Net-(U301B-IO_L3P_T0_DQS_PUDC_B_14)*%
X160680000Y-113600000D03*
%TD*%
D19*
%TO.P,C713,1*%
%TO.N,/USB/OSC_IN*%
X134480000Y-64370000D03*
%TO.P,C713,2*%
%TO.N,GND*%
X134480000Y-65330000D03*
%TD*%
D57*
%TO.N,/FPGA_Config/FPGA_RST*%
X154600000Y-118800000D03*
X138350000Y-62650000D03*
%TO.N,GND*%
X182500000Y-112200000D03*
X148000000Y-126250000D03*
X145250000Y-84250000D03*
X132500000Y-80750000D03*
X158200000Y-116000000D03*
X177910000Y-61820000D03*
X158810000Y-71870000D03*
X178900000Y-74400000D03*
X133570000Y-76900000D03*
X173890000Y-60100000D03*
X178310000Y-61520000D03*
X177400000Y-65150000D03*
X178810000Y-61520000D03*
X179800000Y-77800000D03*
X151150000Y-79980000D03*
X177650000Y-74400000D03*
X130650000Y-96550000D03*
X146420000Y-75420000D03*
X115650000Y-132250000D03*
X162775000Y-102500000D03*
X176400000Y-74400000D03*
X127658908Y-84332413D03*
X197050000Y-131700000D03*
X152600000Y-115200000D03*
X163000000Y-116000000D03*
X143010000Y-70100000D03*
X157400000Y-113600000D03*
X183900000Y-74400000D03*
X196000000Y-102175000D03*
X143400003Y-102400000D03*
X149400000Y-65380000D03*
X176900000Y-65150000D03*
X134100000Y-63832500D03*
X155075000Y-61200000D03*
X153400000Y-112800000D03*
X132500000Y-83250000D03*
X159000000Y-120000000D03*
X147990381Y-90108148D03*
X151000000Y-112000000D03*
X155000000Y-116000000D03*
X157400000Y-115200000D03*
X156200000Y-113200000D03*
X171625000Y-108150000D03*
X149375000Y-78125000D03*
X172000000Y-69650000D03*
X161400000Y-98520000D03*
X139618057Y-69211943D03*
X129015000Y-93500000D03*
X152200000Y-107600000D03*
X131410000Y-82625003D03*
X165900000Y-103080000D03*
X140925000Y-108150000D03*
X147090000Y-67250000D03*
X125000000Y-132600000D03*
X139910000Y-65000000D03*
X178950000Y-122900000D03*
X146375000Y-78120000D03*
X149980000Y-69150000D03*
X135225000Y-140500000D03*
X174900000Y-77400000D03*
X158810000Y-71220000D03*
X189375000Y-70150000D03*
X176100000Y-66250000D03*
X157400000Y-112000000D03*
X161800000Y-110000000D03*
X162200000Y-118400000D03*
X154200000Y-118400000D03*
X145800003Y-101650000D03*
X195002947Y-78017053D03*
X179400000Y-77800000D03*
X170700000Y-115600000D03*
X150895000Y-87100000D03*
X139582327Y-70803726D03*
X159400000Y-110000000D03*
X158200000Y-106400000D03*
X137605000Y-64150000D03*
X154200000Y-105735000D03*
X170150000Y-84625000D03*
X174500000Y-77400000D03*
X116400000Y-99225000D03*
X194600000Y-70050000D03*
X169800000Y-77800000D03*
X157000000Y-108400000D03*
X179800000Y-77400000D03*
X129900000Y-77975000D03*
X178400000Y-64650000D03*
X117397053Y-123382947D03*
X176100000Y-60624000D03*
X154200000Y-110400000D03*
X151375000Y-85875000D03*
X147450000Y-62390000D03*
X143000000Y-65380000D03*
X164400000Y-77800000D03*
X144050000Y-76225000D03*
X140475938Y-71677481D03*
X155000000Y-111200000D03*
X129015000Y-90300000D03*
X157000003Y-97200000D03*
X144925000Y-70100000D03*
X148200003Y-102400000D03*
X131410000Y-81374997D03*
X160600000Y-107200000D03*
X117397053Y-84382947D03*
X145750000Y-108800000D03*
X139350000Y-79980000D03*
X155000000Y-108000000D03*
X177900000Y-65150000D03*
X145250000Y-80750000D03*
X145425000Y-72620000D03*
X127650000Y-62700000D03*
X149800000Y-107600000D03*
X178900000Y-65150000D03*
X159382947Y-139502947D03*
X178900000Y-64650000D03*
X130700000Y-116750000D03*
X155000000Y-114400000D03*
X195002947Y-117017053D03*
X146600003Y-102400000D03*
X177510000Y-62070000D03*
X174225000Y-140500000D03*
X151650000Y-70600000D03*
X130120000Y-79375000D03*
X153000000Y-79750000D03*
X179400000Y-77400000D03*
X164800000Y-77400000D03*
X150200000Y-114400000D03*
X158510000Y-61570000D03*
X131300000Y-76225000D03*
X143930000Y-71330000D03*
X155400003Y-97200000D03*
X144160000Y-81374997D03*
X138350000Y-59200000D03*
X187750000Y-131700000D03*
X158810000Y-70570000D03*
X138625000Y-85875000D03*
X140501943Y-68328057D03*
X181400000Y-74400000D03*
X127658908Y-79782413D03*
X165150000Y-84625000D03*
X156600000Y-111200000D03*
X145250000Y-83750000D03*
X157400000Y-110400000D03*
X154200000Y-115200000D03*
X145050000Y-127200000D03*
X143450000Y-74267500D03*
X150010000Y-70575000D03*
X174100000Y-77400000D03*
X169000000Y-77400000D03*
X145000003Y-102400000D03*
X141920000Y-68150000D03*
X142650000Y-77975000D03*
X167650000Y-105400000D03*
X138400000Y-79980000D03*
X117397053Y-103882947D03*
X177510000Y-61520000D03*
X145250000Y-83250000D03*
X159610000Y-67620000D03*
X174500000Y-77800000D03*
X160200000Y-109200000D03*
X157000000Y-118000000D03*
X151800000Y-109600000D03*
X153400000Y-62187500D03*
X177010000Y-61520000D03*
X129000000Y-121800000D03*
X158200000Y-112800000D03*
X179000000Y-77400000D03*
X145700000Y-67050000D03*
X129000000Y-118600000D03*
X160600000Y-115200000D03*
X138125000Y-85875000D03*
X164400000Y-77400000D03*
X156200000Y-113975000D03*
X175150000Y-84625000D03*
X183400000Y-118600000D03*
X140000000Y-86800000D03*
X155800000Y-110400000D03*
X146750000Y-69650000D03*
X183400000Y-102300000D03*
X152100000Y-79980000D03*
X152787500Y-76750000D03*
X129000000Y-99100000D03*
X176900000Y-64650000D03*
X182450000Y-134050000D03*
X177300000Y-127900000D03*
X162100000Y-125500000D03*
X169400000Y-77800000D03*
X171200000Y-126800000D03*
X156610000Y-64890000D03*
X132350000Y-126750000D03*
X159860000Y-70820000D03*
X196000000Y-82675000D03*
X153000000Y-118800000D03*
X159400000Y-112425000D03*
X174100000Y-77800000D03*
X149400000Y-116800000D03*
X135100000Y-127900000D03*
X159110000Y-67620000D03*
X177400000Y-64650000D03*
X169800000Y-77400000D03*
X135850000Y-93000000D03*
X136625000Y-78125000D03*
X159610000Y-68620000D03*
X149000003Y-101650000D03*
X153000000Y-79250000D03*
X154200000Y-113600000D03*
X183400000Y-93500000D03*
X175150000Y-74400000D03*
X128758908Y-79910000D03*
X155650000Y-76800000D03*
X179000000Y-77800000D03*
X139200000Y-81200000D03*
X136375000Y-82000000D03*
X151400000Y-108400000D03*
X140037500Y-76750000D03*
X130250000Y-104850000D03*
X147400003Y-101650000D03*
X180150000Y-74400000D03*
X155800000Y-115200000D03*
X150850000Y-127300000D03*
X159860000Y-71620000D03*
X160700000Y-83300000D03*
X174850000Y-92000000D03*
X157400000Y-108800000D03*
X135855000Y-65550000D03*
X138300000Y-127900000D03*
X161800000Y-113200000D03*
X169000000Y-77800000D03*
X129000000Y-102300000D03*
X159800000Y-117600000D03*
X152950000Y-105300000D03*
X159110000Y-68620000D03*
X155000000Y-112800000D03*
X153000000Y-108400000D03*
X189600000Y-95100000D03*
X116400000Y-118725000D03*
X178400000Y-65150000D03*
X154600003Y-96400000D03*
X149875000Y-78125000D03*
X164800000Y-77800000D03*
X161000000Y-116400000D03*
X182650000Y-74400000D03*
X131255275Y-83764155D03*
X195002947Y-97517053D03*
X149125000Y-82000000D03*
X152300000Y-103305000D03*
X180150000Y-84625000D03*
X128650000Y-68925000D03*
X154600000Y-127900000D03*
X134125000Y-78125000D03*
X151800000Y-117600000D03*
X156100000Y-68390000D03*
X135850000Y-63300000D03*
X140250000Y-79750000D03*
X168300000Y-121400000D03*
X156600000Y-119200000D03*
X156900000Y-99900000D03*
X154200000Y-112000000D03*
X144160000Y-82625003D03*
X177910000Y-64220000D03*
X150200000Y-106400000D03*
X137125000Y-78125000D03*
X132500000Y-84250000D03*
X177900000Y-64650000D03*
X135250000Y-121500000D03*
X164000000Y-77400000D03*
X159400000Y-116400000D03*
X183400000Y-90300000D03*
X139882947Y-139502947D03*
X164000000Y-77800000D03*
X138650000Y-73650000D03*
X159600000Y-91650000D03*
X158200000Y-111200000D03*
X152350000Y-73650000D03*
X158600000Y-110000000D03*
X156900000Y-102900000D03*
X174050000Y-104850000D03*
X158200000Y-114400000D03*
X177010000Y-62070000D03*
X144200003Y-101650000D03*
X178810000Y-62070000D03*
X116400000Y-79725000D03*
X145900000Y-69750000D03*
X179726000Y-60624000D03*
X184625000Y-113900000D03*
X155170000Y-80270000D03*
X153000000Y-115600000D03*
X178310000Y-62070000D03*
X169400000Y-77400000D03*
X183400000Y-99100000D03*
X144475000Y-72620000D03*
X145950000Y-88350000D03*
X156200003Y-96400000D03*
X162400000Y-134300000D03*
X174100000Y-127900000D03*
X196000000Y-121675000D03*
X163000000Y-108000000D03*
X140250000Y-79250000D03*
X178882947Y-139502946D03*
X151000000Y-120000000D03*
X131050000Y-68450000D03*
X144450000Y-62390000D03*
X180950000Y-61360000D03*
X179726000Y-66250000D03*
X140500000Y-64050000D03*
X149400000Y-108800000D03*
X183400000Y-121800000D03*
X157860000Y-65620000D03*
X174900000Y-77800000D03*
X149980000Y-72000000D03*
X154725000Y-140500000D03*
X143800000Y-115250000D03*
X128050000Y-109700000D03*
X157800000Y-127900000D03*
X156600000Y-116000000D03*
X166500000Y-97650000D03*
X159800000Y-109600000D03*
%TO.N,+5V*%
X176300000Y-76100000D03*
X171300000Y-76100000D03*
X171300000Y-76500000D03*
X176250000Y-80350000D03*
X182650000Y-71400000D03*
X166300000Y-76900000D03*
X196000000Y-118725000D03*
X176300000Y-77700000D03*
X116400000Y-102175000D03*
X171300000Y-76900000D03*
X181300000Y-76100000D03*
X183150000Y-70400000D03*
X166300000Y-76500000D03*
X177175000Y-140500000D03*
X181300000Y-77300000D03*
X181300000Y-76900000D03*
X196000000Y-99225000D03*
X181300000Y-76500000D03*
X166300000Y-77700000D03*
X116400000Y-121675000D03*
X176300000Y-76500000D03*
X182150000Y-70400000D03*
X166300000Y-77300000D03*
X157675000Y-140500000D03*
X176300000Y-76900000D03*
X171300000Y-78390000D03*
X166300000Y-78400000D03*
X182150000Y-71400000D03*
X183150000Y-70900000D03*
X196000000Y-79725000D03*
X138175000Y-140500000D03*
X183150000Y-71400000D03*
X181300000Y-78400000D03*
X182650000Y-70400000D03*
X182650000Y-70900000D03*
X166300000Y-76100000D03*
X173920000Y-61050000D03*
X181300000Y-77700000D03*
X182150000Y-70900000D03*
X116400000Y-82675000D03*
X176300000Y-78400000D03*
X176300000Y-77300000D03*
X156640000Y-63650000D03*
X153400000Y-66900000D03*
X171300000Y-77300000D03*
X186425000Y-70150000D03*
%TO.N,+3V3*%
X126458908Y-80622413D03*
X150450000Y-73650000D03*
X126458908Y-83492413D03*
X145250000Y-84750000D03*
X152600000Y-111200000D03*
X146450000Y-69150000D03*
X149475305Y-88057538D03*
X151000000Y-108000000D03*
X142880000Y-68150000D03*
X163550000Y-79950000D03*
X131255275Y-84724155D03*
X162350000Y-79950000D03*
X155200000Y-79320000D03*
X150860000Y-77000000D03*
X142950000Y-74267500D03*
X147375000Y-78120000D03*
X163150000Y-80350000D03*
X162750000Y-79950000D03*
X134530000Y-76900000D03*
X163150000Y-79950000D03*
X162750000Y-80350000D03*
X142600000Y-71330000D03*
X136400000Y-73260000D03*
X153400000Y-108800000D03*
X139460000Y-74770000D03*
X137700000Y-73650000D03*
X151855000Y-87100000D03*
X141850000Y-78990000D03*
X152210000Y-74820000D03*
X151650000Y-68700000D03*
X145460000Y-75420000D03*
X154200000Y-106400000D03*
X149150000Y-73260000D03*
X128650000Y-71875000D03*
X152110000Y-71950000D03*
X140037500Y-76250000D03*
X137625000Y-78125000D03*
X149192462Y-87774695D03*
X150010000Y-68200000D03*
X150600000Y-110800000D03*
X149400000Y-112800000D03*
X139125000Y-85875000D03*
X153950000Y-75720000D03*
X147141852Y-89259619D03*
X129860000Y-83270000D03*
X150375000Y-78125000D03*
X147424695Y-89542462D03*
X164150000Y-80420000D03*
X149020000Y-72000000D03*
X129860000Y-83870000D03*
X163550000Y-80350000D03*
X164960000Y-80220000D03*
X162350000Y-80350000D03*
%TO.N,+2V5*%
X163000000Y-120000000D03*
X161400000Y-108800000D03*
X151050000Y-100510000D03*
X133590000Y-66295000D03*
X155800000Y-117600000D03*
X162200000Y-106400000D03*
X163000000Y-112000000D03*
X168150000Y-79950000D03*
X167750000Y-80350000D03*
X167350000Y-80350000D03*
X159000000Y-116000000D03*
X168550000Y-79950000D03*
X167350000Y-79950000D03*
X168550000Y-80350000D03*
X156600000Y-107200000D03*
X167750000Y-79950000D03*
X152600000Y-119200000D03*
X165900000Y-102120000D03*
X162200000Y-114400000D03*
X150200000Y-118400000D03*
X155000000Y-120000000D03*
X160600000Y-119200000D03*
X161400000Y-100390000D03*
X153400000Y-116800000D03*
X161400000Y-99480000D03*
X168150000Y-80350000D03*
X139350000Y-61810000D03*
X151000000Y-116000000D03*
X159000000Y-108000000D03*
X160600000Y-111200000D03*
X161400000Y-116800000D03*
X168675000Y-108150000D03*
X158200000Y-118400000D03*
X170150000Y-81675000D03*
X151050000Y-103060000D03*
X151800000Y-113600000D03*
X169150000Y-80420000D03*
%TO.N,+3V3_VPHY_SER*%
X132500000Y-80250000D03*
%TO.N,SERIAL_D-*%
X131410000Y-81775000D03*
X140219099Y-68610901D03*
%TO.N,SERIAL_D+*%
X131410000Y-82225000D03*
X139900901Y-68929099D03*
%TO.N,+3V3_VPLL_SER*%
X132500000Y-82750000D03*
%TO.N,SERIAL_RXF#*%
X151400000Y-109200000D03*
X143000000Y-102400000D03*
%TO.N,SERIAL_TXE#*%
X143800000Y-101650000D03*
X150600000Y-109200000D03*
%TO.N,SERIAL_RD#*%
X149800000Y-109200000D03*
X144600000Y-102400000D03*
%TO.N,SERIAL_WR#*%
X145400000Y-101650000D03*
X152200000Y-108400000D03*
%TO.N,SERIAL_SIWU#*%
X146200000Y-102400000D03*
X151800000Y-108000000D03*
%TO.N,SERIAL_CLK*%
X151400000Y-110000000D03*
X147000000Y-101650000D03*
%TO.N,SERIAL_OE#*%
X154200000Y-107200000D03*
X147800000Y-102400000D03*
%TO.N,SERIAL_PWR#*%
X153400000Y-106400000D03*
X148600000Y-101650000D03*
%TO.N,Net-(U601-~{RESET})*%
X140250000Y-80250000D03*
%TO.N,Net-(U601-VCCA)*%
X139125000Y-78125000D03*
%TO.N,Net-(U601-VCCCORE)*%
X138625000Y-78125000D03*
%TO.N,/Serial/EEDATA*%
X137112500Y-76250000D03*
%TO.N,/Serial/EECLK*%
X137112500Y-75750000D03*
%TO.N,Net-(U602-DO)*%
X137112500Y-76750000D03*
%TO.N,P9_L2*%
X161000000Y-106000000D03*
%TO.N,P9_L1*%
X161800000Y-106000000D03*
%TO.N,+1V8*%
X181675000Y-113900000D03*
X178550000Y-80350000D03*
X178150000Y-79950000D03*
X177350000Y-80350000D03*
X158200000Y-110400000D03*
X160200000Y-110000000D03*
X178550000Y-79950000D03*
X159400000Y-113975000D03*
X177350000Y-79950000D03*
X155000000Y-109600000D03*
X180150000Y-81675000D03*
X158200000Y-115200000D03*
X177750000Y-79950000D03*
X158200000Y-113600000D03*
X158200000Y-112000000D03*
X177750000Y-80350000D03*
X179150000Y-80420000D03*
X178150000Y-80350000D03*
%TO.N,TCK*%
X156600000Y-109600000D03*
X154200000Y-96400000D03*
%TO.N,TDI*%
X155000000Y-97200000D03*
X157400000Y-109600000D03*
%TO.N,TMS*%
X156600000Y-97200000D03*
X159400000Y-109200000D03*
%TO.N,TDO*%
X159000000Y-109600000D03*
X155800000Y-96400000D03*
%TO.N,+1V0*%
X157400000Y-116000000D03*
X155800000Y-111200000D03*
X157400000Y-111200000D03*
X173550000Y-80350000D03*
X155000000Y-115200000D03*
X172750000Y-79950000D03*
X157400000Y-112800000D03*
X172350000Y-79950000D03*
X173150000Y-79950000D03*
X173550000Y-79950000D03*
X154200000Y-112800000D03*
X175150000Y-81675000D03*
X153000000Y-113975000D03*
X154200000Y-114400000D03*
X155800000Y-116000000D03*
X154200000Y-116000000D03*
X156200000Y-112425000D03*
X157400000Y-114400000D03*
X154200000Y-111200000D03*
X155000000Y-112000000D03*
X156600000Y-110400000D03*
X172750000Y-80350000D03*
X172350000Y-80350000D03*
X174200000Y-80420000D03*
X156600000Y-115200000D03*
X173150000Y-80350000D03*
X143875000Y-108150000D03*
X155000000Y-110400000D03*
X155000000Y-113600000D03*
%TO.N,Net-(U301A-VCCADC_0)*%
X157000000Y-112400000D03*
%TO.N,P7_L2*%
X151000000Y-113600000D03*
%TO.N,/FPGA_Config/SDI_FPGA*%
X162200000Y-113600000D03*
X160100000Y-103305000D03*
%TO.N,/FPGA_Config/SDO_FPGA*%
X163000000Y-113600000D03*
X160050000Y-98550000D03*
%TO.N,P7_L1*%
X151000000Y-114400000D03*
%TO.N,Net-(U301B-IO_L3P_T0_DQS_PUDC_B_14)*%
X160600000Y-114400000D03*
%TO.N,/FPGA_Config/NHL_FPGA*%
X161400000Y-101410000D03*
X159800000Y-115200000D03*
%TO.N,P8_L1*%
X151800000Y-116800000D03*
%TO.N,P8_L2*%
X152600000Y-116800000D03*
%TO.N,/FPGA_Config/FPGA_INIT*%
X154200000Y-116800000D03*
%TO.N,Net-(U301B-CFGBVS_0)*%
X155000000Y-116810000D03*
%TO.N,/FPGA_Config/FPGA_DONE*%
X132000000Y-61900000D03*
X155400000Y-118800000D03*
%TO.N,/FPGA_Config/MODE2*%
X157400000Y-116800000D03*
%TO.N,/FPGA_Config/MODE0*%
X158200000Y-116800000D03*
%TO.N,/FPGA_Config/MODE1*%
X159000000Y-116800000D03*
%TO.N,P2_L2*%
X162200000Y-116800000D03*
%TO.N,P3_L1*%
X161800000Y-118800000D03*
%TO.N,P3_L2*%
X161400000Y-117600000D03*
%TO.N,P2_L1*%
X162200000Y-117600000D03*
%TO.N,P4_L1*%
X155800000Y-118400000D03*
%TO.N,P4_L2*%
X156600000Y-118400000D03*
%TO.N,P5_L1*%
X159800000Y-118400000D03*
%TO.N,P5_L2*%
X160600000Y-118400000D03*
%TO.N,P1_L1*%
X150600000Y-118800000D03*
%TO.N,P1_L2*%
X151400000Y-118800000D03*
%TO.N,P6_L1*%
X153400000Y-119200000D03*
%TO.N,P6_L2*%
X154200000Y-119200000D03*
%TO.N,/Power/PG_2V5*%
X166250000Y-80350000D03*
X171250000Y-79225000D03*
%TO.N,/Power/PG_3V3*%
X155525000Y-61200000D03*
X166250000Y-79225000D03*
%TO.N,/Power/FB_3V3*%
X164050000Y-79225000D03*
%TO.N,VREG_IN*%
X172860000Y-61870000D03*
X169760000Y-65170000D03*
X181900000Y-63400000D03*
X181900000Y-62900000D03*
X172360000Y-64870000D03*
X174400000Y-62900000D03*
X176013000Y-62687000D03*
X174900000Y-63400000D03*
X179813000Y-62687000D03*
X181400000Y-62900000D03*
X183150000Y-63400000D03*
X172360000Y-63870000D03*
X172360000Y-62870000D03*
X183650000Y-63400000D03*
X179813000Y-63187000D03*
X181400000Y-63400000D03*
X171360000Y-63870000D03*
X170510000Y-65170000D03*
X173900000Y-62900000D03*
X170510000Y-65670000D03*
X184150000Y-62900000D03*
X171360000Y-65870000D03*
X183650000Y-62900000D03*
X176013000Y-63687000D03*
X170360000Y-63870000D03*
X173360000Y-63870000D03*
X174400000Y-63400000D03*
X174900000Y-62900000D03*
X173360000Y-62870000D03*
X173900000Y-63400000D03*
X173360000Y-64870000D03*
X169760000Y-65670000D03*
X184150000Y-63400000D03*
X180900000Y-62900000D03*
X176013000Y-63187000D03*
X180900000Y-63400000D03*
X158860000Y-62720000D03*
X172360000Y-65870000D03*
X171360000Y-64870000D03*
X179813000Y-63687000D03*
X173360000Y-65870000D03*
X183150000Y-62900000D03*
%TO.N,/JTAG/EECLK*%
X149862500Y-75750000D03*
%TO.N,/JTAG/EEDATA*%
X149862500Y-76250000D03*
%TO.N,Net-(U503-DO)*%
X149862500Y-76750000D03*
%TO.N,VIN*%
X161860000Y-67620000D03*
X164610000Y-64620000D03*
X167110000Y-65620000D03*
X160860000Y-67620000D03*
X165860000Y-67620000D03*
X165860000Y-65620000D03*
X166860000Y-68620000D03*
X167110000Y-64620000D03*
X165860000Y-64620000D03*
X160910000Y-71870000D03*
X160860000Y-68620000D03*
X164860000Y-68620000D03*
X166860000Y-67620000D03*
X164610000Y-65620000D03*
X165860000Y-68620000D03*
X161860000Y-68620000D03*
X160910000Y-71220000D03*
X164860000Y-67620000D03*
X160910000Y-70570000D03*
%TO.N,/Power/PG_1V8*%
X171250000Y-80350000D03*
X181250000Y-79225000D03*
%TO.N,/Power/FB_2V5*%
X169050000Y-79225000D03*
%TO.N,/Power/PG_1V0*%
X181250000Y-80350000D03*
X176250000Y-79225000D03*
%TO.N,/Power/FB_1V0*%
X174050000Y-79225000D03*
%TO.N,VBUS*%
X148600000Y-65380000D03*
X143800000Y-65380000D03*
%TO.N,/Power/FB_1V8*%
X179050000Y-79225000D03*
%TO.N,/Power/TR{slash}SS*%
X178163000Y-60537000D03*
%TO.N,/Power/FB_5V0*%
X176663000Y-60537000D03*
%TO.N,+3V3_VPHY_JTAG*%
X145250000Y-80250000D03*
%TO.N,JTAG_D-*%
X139864400Y-71087339D03*
X144160000Y-81775000D03*
%TO.N,JTAG_D+*%
X140182598Y-71405537D03*
X144160000Y-82225000D03*
%TO.N,+3V3_VPLL_JTAG*%
X145250000Y-82750000D03*
%TO.N,Net-(U502-VCCA)*%
X151875000Y-78125000D03*
%TO.N,Net-(U502-VCCCORE)*%
X151375000Y-78125000D03*
%TO.N,Net-(J701-CC1)*%
X147450000Y-64500000D03*
%TO.N,Net-(J701-CC2)*%
X144450000Y-64950000D03*
%TO.N,Net-(U702-CRFILT)*%
X144950000Y-73575000D03*
%TO.N,Net-(U702-VBUS_DET)*%
X148110000Y-67250000D03*
%TO.N,Net-(U702-NON_REM0)*%
X146950000Y-68392500D03*
%TO.N,/USB/OSC_OUT*%
X139940000Y-64050000D03*
%TO.N,/USB/OSC_IN*%
X135855000Y-64150000D03*
%TO.N,Net-(U702-PLLFILT)*%
X143965000Y-69140000D03*
%TO.N,Net-(U702-RBIAS)*%
X143450000Y-68392500D03*
%TO.N,Net-(Q101A-S)*%
X161110000Y-63370000D03*
X162610000Y-63390000D03*
X162610000Y-65930000D03*
X161110000Y-65870000D03*
X161110000Y-64620000D03*
%TO.N,/Input/SENSE*%
X164610000Y-61870000D03*
X170510000Y-62070000D03*
X166610000Y-63370000D03*
X166610000Y-61870000D03*
X170610000Y-60370000D03*
X168610000Y-61870000D03*
X168610000Y-60370000D03*
X169760000Y-62070000D03*
X159360000Y-62720000D03*
X164610000Y-63370000D03*
X169760000Y-62570000D03*
X168610000Y-63370000D03*
X170510000Y-62570000D03*
X166610000Y-60370000D03*
X164610000Y-60370000D03*
%TD*%
%TO.N,/FPGA_Config/FPGA_RST*%
D58*
X146150000Y-132150000D02*
X146150000Y-125650000D01*
X153400000Y-124650000D02*
X154150000Y-123900000D01*
X154150000Y-119750000D02*
X154600000Y-119300000D01*
X124150000Y-91650000D02*
X124150000Y-128650000D01*
X138350000Y-61780000D02*
X138350000Y-62650000D01*
X123150000Y-90650000D02*
X124150000Y-91650000D01*
X131400000Y-62650000D02*
X123150000Y-70900000D01*
X145650000Y-132650000D02*
X146150000Y-132150000D01*
X154150000Y-123900000D02*
X154150000Y-119750000D01*
X138350000Y-62650000D02*
X131400000Y-62650000D01*
X138360000Y-61780000D02*
X139350000Y-60790000D01*
X123150000Y-70900000D02*
X123150000Y-90650000D01*
X138350000Y-61780000D02*
X138360000Y-61780000D01*
X147150000Y-124650000D02*
X153400000Y-124650000D01*
X154600000Y-119300000D02*
X154600000Y-118800000D01*
X128150000Y-132650000D02*
X145650000Y-132650000D01*
X146150000Y-125650000D02*
X147150000Y-124650000D01*
X124150000Y-128650000D02*
X128150000Y-132650000D01*
%TO.N,GND*%
X161720000Y-110080000D02*
X161800000Y-110000000D01*
X151400000Y-118000000D02*
X151800000Y-117600000D01*
X162520000Y-108400000D02*
X162600000Y-108400000D01*
D59*
X140350000Y-86450000D02*
X140000000Y-86800000D01*
D58*
X159080000Y-120000000D02*
X159480000Y-119600000D01*
X158600000Y-119600000D02*
X159000000Y-120000000D01*
D59*
X140350000Y-81210000D02*
X139210000Y-81210000D01*
D58*
X159000000Y-110480000D02*
X158920000Y-110480000D01*
X179254000Y-60624000D02*
X179180000Y-60550000D01*
D59*
X139210000Y-81210000D02*
X139200000Y-81200000D01*
D58*
X143450000Y-73150000D02*
X143450000Y-74267500D01*
X159000000Y-120000000D02*
X159000000Y-120625000D01*
X159000000Y-120625000D02*
X158475000Y-121150000D01*
D59*
X128523908Y-80647413D02*
X127658908Y-79782413D01*
D58*
X163000000Y-106925000D02*
X163000000Y-108000000D01*
X135635000Y-65330000D02*
X134480000Y-65330000D01*
X152520000Y-115200000D02*
X152120000Y-115600000D01*
X149750000Y-111750000D02*
X150120000Y-111380000D01*
X162600000Y-108400000D02*
X163000000Y-108000000D01*
X157400000Y-117520000D02*
X157400000Y-117600000D01*
X161720000Y-110800000D02*
X161720000Y-110080000D01*
D59*
X128858908Y-80647413D02*
X128523908Y-80647413D01*
D58*
X158625000Y-105500000D02*
X158625000Y-105975000D01*
X159640000Y-116000000D02*
X159640000Y-116160000D01*
X140900000Y-79020000D02*
X140480000Y-79020000D01*
X149880000Y-116400000D02*
X149800000Y-116400000D01*
X154200000Y-118200000D02*
X154200000Y-118400000D01*
X140480000Y-79020000D02*
X140250000Y-79250000D01*
D60*
X168700000Y-71200000D02*
X168700000Y-70855000D01*
D58*
X152280000Y-109200000D02*
X152200000Y-109200000D01*
X161080000Y-114800000D02*
X161000000Y-114800000D01*
X135855000Y-65550000D02*
X135635000Y-65330000D01*
X159000000Y-120000000D02*
X159080000Y-120000000D01*
D59*
X141550000Y-84895000D02*
X141215000Y-84895000D01*
D58*
X145250000Y-83750000D02*
X145250000Y-84250000D01*
X149800000Y-116400000D02*
X149400000Y-116800000D01*
D59*
X141215000Y-84895000D02*
X140350000Y-85760000D01*
D58*
X160120000Y-107600000D02*
X160200000Y-107600000D01*
X151400000Y-119600000D02*
X151000000Y-120000000D01*
X159640000Y-116160000D02*
X159400000Y-116400000D01*
X161000000Y-106800000D02*
X160600000Y-107200000D01*
D60*
X171435000Y-68120000D02*
X171435000Y-68465000D01*
D58*
X161000000Y-114800000D02*
X160600000Y-115200000D01*
D59*
X143010000Y-70100000D02*
X143000000Y-70110000D01*
D58*
X150600000Y-106800000D02*
X150200000Y-106400000D01*
X150600000Y-106880000D02*
X150600000Y-106800000D01*
X162600000Y-118880000D02*
X162600000Y-118800000D01*
X150120000Y-111200000D02*
X151080000Y-111200000D01*
X156600000Y-119200000D02*
X156600000Y-119520000D01*
X164875000Y-116000000D02*
X163000000Y-116000000D01*
X179726000Y-60624000D02*
X179254000Y-60624000D01*
X158625000Y-105975000D02*
X158200000Y-106400000D01*
X146375000Y-77135000D02*
X146360000Y-77120000D01*
X150120000Y-111380000D02*
X150120000Y-111200000D01*
D59*
X141215000Y-82075000D02*
X140350000Y-81210000D01*
D58*
X157860000Y-65620000D02*
X157860000Y-65170000D01*
X161080000Y-106800000D02*
X161000000Y-106800000D01*
X160280000Y-117200000D02*
X160200000Y-117200000D01*
X156600000Y-119520000D02*
X156120000Y-120000000D01*
X150520000Y-112400000D02*
X150600000Y-112400000D01*
X151080000Y-111200000D02*
X151080000Y-111920000D01*
X146360000Y-77120000D02*
X146380000Y-77100000D01*
X149025000Y-111750000D02*
X149750000Y-111750000D01*
X152200000Y-109200000D02*
X151800000Y-109600000D01*
X146375000Y-78120000D02*
X146375000Y-77135000D01*
X162600000Y-118800000D02*
X162200000Y-118400000D01*
X160200000Y-117200000D02*
X159800000Y-117600000D01*
X151320000Y-118000000D02*
X151400000Y-118000000D01*
D59*
X141550000Y-82075000D02*
X141215000Y-82075000D01*
D58*
X165575000Y-115300000D02*
X164875000Y-116000000D01*
X146380000Y-77100000D02*
X146380000Y-76870000D01*
X142950000Y-72650000D02*
X143450000Y-73150000D01*
X139350000Y-79980000D02*
X138400000Y-79980000D01*
D59*
X143965000Y-70100000D02*
X144925000Y-70100000D01*
D58*
X138350000Y-60820000D02*
X138350000Y-59200000D01*
X160200000Y-107600000D02*
X160600000Y-107200000D01*
X161880000Y-113120000D02*
X161800000Y-113200000D01*
X150575000Y-120950000D02*
X150575000Y-120425000D01*
D59*
X128523908Y-83467413D02*
X127658908Y-84332413D01*
D58*
X158600000Y-119520000D02*
X158600000Y-119600000D01*
D59*
X128858908Y-83467413D02*
X128523908Y-83467413D01*
D58*
X157720000Y-106800000D02*
X157800000Y-106800000D01*
X157800000Y-106800000D02*
X158200000Y-106400000D01*
X159720000Y-117520000D02*
X159800000Y-117600000D01*
X161880000Y-112400000D02*
X161880000Y-113120000D01*
X161720000Y-110800000D02*
X161800000Y-110800000D01*
X157400000Y-117600000D02*
X157000000Y-118000000D01*
X157860000Y-65170000D02*
X158860000Y-64170000D01*
D60*
X171435000Y-68465000D02*
X168700000Y-71200000D01*
D58*
X152600000Y-115200000D02*
X152520000Y-115200000D01*
X150600000Y-112400000D02*
X151000000Y-112000000D01*
X152280000Y-117600000D02*
X151800000Y-117600000D01*
X159000000Y-117520000D02*
X159720000Y-117520000D01*
X151480000Y-119600000D02*
X151400000Y-119600000D01*
X148250000Y-112525000D02*
X149025000Y-111750000D01*
D59*
X140350000Y-85760000D02*
X140350000Y-86450000D01*
D58*
X150575000Y-120425000D02*
X151000000Y-120000000D01*
X151080000Y-111920000D02*
X151000000Y-112000000D01*
X158920000Y-110480000D02*
X158200000Y-111200000D01*
%TO.N,+5V*%
D59*
X194317053Y-78702947D02*
X193360000Y-79660000D01*
X118082947Y-103197053D02*
X119040000Y-102240000D01*
X118082947Y-122697053D02*
X119040000Y-121740000D01*
D58*
X173150000Y-59650000D02*
X173150000Y-60900000D01*
X186650000Y-61900000D02*
X184150000Y-59400000D01*
X173300000Y-61050000D02*
X173920000Y-61050000D01*
X177110000Y-78870000D02*
X176630000Y-78390000D01*
X184150000Y-59400000D02*
X173400000Y-59400000D01*
X173150000Y-60900000D02*
X173300000Y-61050000D01*
X177110000Y-79490000D02*
X177110000Y-78870000D01*
X173400000Y-59400000D02*
X173150000Y-59650000D01*
D59*
X118082947Y-83697053D02*
X119040000Y-82740000D01*
X178197053Y-138817054D02*
X177240000Y-137860000D01*
D58*
X183150000Y-70400000D02*
X183900000Y-70400000D01*
X186650000Y-67650000D02*
X186650000Y-61900000D01*
X183900000Y-70400000D02*
X186650000Y-67650000D01*
X176630000Y-78390000D02*
X176400000Y-78390000D01*
D59*
X139197053Y-138817053D02*
X138240000Y-137860000D01*
X194317053Y-117702947D02*
X193360000Y-118660000D01*
D58*
X173890000Y-62000000D02*
X173890000Y-61080000D01*
D59*
X194317053Y-98202947D02*
X193360000Y-99160000D01*
D58*
X176250000Y-80350000D02*
X177110000Y-79490000D01*
X173890000Y-61080000D02*
X173920000Y-61050000D01*
D59*
X158697053Y-138817053D02*
X157740000Y-137860000D01*
%TO.N,+3V3*%
X151720000Y-111000001D02*
X151720000Y-111200000D01*
D58*
X149192462Y-87774695D02*
X149517157Y-87450000D01*
D59*
X151519999Y-110800000D02*
X151720000Y-111000001D01*
X139150000Y-82050000D02*
X138500000Y-82050000D01*
D58*
X152700000Y-87450000D02*
X153050000Y-87100000D01*
X150600000Y-107600000D02*
X151000000Y-108000000D01*
D59*
X138150000Y-84500000D02*
X138570000Y-84920000D01*
X149025000Y-113175000D02*
X147775000Y-113175000D01*
D58*
X153000000Y-109200000D02*
X153400000Y-108800000D01*
X137625000Y-78125000D02*
X137625000Y-77385000D01*
D61*
X155725000Y-85075000D02*
X153700000Y-87100000D01*
D60*
X132360000Y-85620000D02*
X133060000Y-84920000D01*
D59*
X145250000Y-84880000D02*
X155530000Y-84880000D01*
X138150000Y-82400000D02*
X138150000Y-84500000D01*
D60*
X129860000Y-84620000D02*
X130860000Y-85620000D01*
D58*
X148450000Y-111200000D02*
X148250000Y-111000000D01*
D59*
X149475305Y-88057538D02*
X149567462Y-87965381D01*
D58*
X149800000Y-112400000D02*
X149400000Y-112800000D01*
D59*
X147400000Y-112800000D02*
X147400000Y-110975000D01*
D58*
X142600000Y-71330000D02*
X142970000Y-71330000D01*
D59*
X138570000Y-84920000D02*
X139150000Y-84920000D01*
X139150000Y-85850000D02*
X139125000Y-85875000D01*
D58*
X145900000Y-68600000D02*
X146450000Y-69150000D01*
X147424695Y-89542462D02*
X147632233Y-89750000D01*
D61*
X137900000Y-109275000D02*
X139600000Y-110975000D01*
D59*
X151720000Y-111200000D02*
X152600000Y-111200000D01*
X138500000Y-82050000D02*
X138150000Y-82400000D01*
X151855000Y-87100000D02*
X153700000Y-87100000D01*
D58*
X147632233Y-89750000D02*
X151050000Y-89750000D01*
D59*
X149480000Y-111000001D02*
X149680001Y-110800000D01*
X139130000Y-84940000D02*
X139150000Y-84920000D01*
D58*
X147375000Y-77135000D02*
X147340000Y-77100000D01*
X151050000Y-89750000D02*
X151500000Y-89300000D01*
X152920000Y-109200000D02*
X153000000Y-109200000D01*
D60*
X133060000Y-84920000D02*
X139150000Y-84920000D01*
D61*
X151500000Y-89300000D02*
X137900000Y-102900000D01*
D59*
X149567462Y-87965381D02*
X152834619Y-87965381D01*
D60*
X129860000Y-83870000D02*
X129860000Y-84620000D01*
D61*
X162650000Y-80150000D02*
X160650000Y-80150000D01*
D58*
X147141852Y-89259619D02*
X147451471Y-88950000D01*
X153050000Y-87100000D02*
X153700000Y-87100000D01*
D61*
X139600000Y-110975000D02*
X147400000Y-110975000D01*
D58*
X137625000Y-77385000D02*
X138110000Y-76900000D01*
D59*
X149480000Y-111200000D02*
X148475000Y-111200000D01*
D58*
X145900000Y-68570000D02*
X145900000Y-68600000D01*
X149880000Y-112400000D02*
X149800000Y-112400000D01*
D59*
X155530000Y-84880000D02*
X155725000Y-85075000D01*
D60*
X130860000Y-85620000D02*
X132360000Y-85620000D01*
D58*
X147340000Y-77100000D02*
X147340000Y-76870000D01*
D61*
X137900000Y-102900000D02*
X137900000Y-109275000D01*
D58*
X147451471Y-88950000D02*
X151350000Y-88950000D01*
X149517157Y-87450000D02*
X152700000Y-87450000D01*
X142950000Y-74267500D02*
X142950000Y-73610000D01*
X150600000Y-107520000D02*
X150600000Y-107600000D01*
D61*
X151850000Y-88950000D02*
X151500000Y-89300000D01*
X160650000Y-80150000D02*
X155725000Y-85075000D01*
D59*
X149400000Y-112800000D02*
X149025000Y-113175000D01*
X149480000Y-111200000D02*
X149480000Y-111000001D01*
X139150000Y-84920000D02*
X139150000Y-85850000D01*
X149680001Y-110800000D02*
X150600000Y-110800000D01*
D61*
X153700000Y-87100000D02*
X151850000Y-88950000D01*
D59*
X147775000Y-113175000D02*
X147400000Y-112800000D01*
D60*
X129860000Y-83270000D02*
X129860000Y-83870000D01*
D59*
X152834619Y-87965381D02*
X153700000Y-87100000D01*
X150600000Y-110800000D02*
X151519999Y-110800000D01*
D58*
X147375000Y-78120000D02*
X147375000Y-77135000D01*
D59*
X148475000Y-111200000D02*
X148250000Y-110975000D01*
%TO.N,Net-(U812-LED1)*%
D58*
X127130000Y-93840000D02*
X125640000Y-93840000D01*
%TO.N,Net-(U812-LED3)*%
X127130000Y-105020000D02*
X125640000Y-105020000D01*
%TO.N,+2V5*%
X164025000Y-115300000D02*
X162900000Y-115300000D01*
X163000000Y-105375000D02*
X163000000Y-105600000D01*
X163000000Y-105600000D02*
X162200000Y-106400000D01*
X158200000Y-117520000D02*
X158200000Y-118400000D01*
X151400000Y-115600000D02*
X151000000Y-116000000D01*
X155650000Y-117450000D02*
X155800000Y-117600000D01*
X161080000Y-110800000D02*
X161000000Y-110800000D01*
X157075000Y-106795000D02*
X157080000Y-106800000D01*
X155000000Y-120000000D02*
X155480000Y-120000000D01*
X161400000Y-113600000D02*
X162200000Y-114400000D01*
X152120000Y-119600000D02*
X152200000Y-119600000D01*
X161000000Y-110800000D02*
X160600000Y-111200000D01*
X161800000Y-106800000D02*
X162200000Y-106400000D01*
X161320000Y-113600000D02*
X161400000Y-113600000D01*
X150520000Y-116400000D02*
X150600000Y-116400000D01*
X161720000Y-106800000D02*
X161800000Y-106800000D01*
X160520000Y-119200000D02*
X160120000Y-119600000D01*
X161000000Y-117200000D02*
X161400000Y-116800000D01*
X159400000Y-107600000D02*
X159000000Y-108000000D01*
X159480000Y-107600000D02*
X159400000Y-107600000D01*
X152125000Y-119605000D02*
X152120000Y-119600000D01*
X152125000Y-120950000D02*
X152125000Y-119605000D01*
X161720000Y-114800000D02*
X161800000Y-114800000D01*
X162600000Y-119600000D02*
X163000000Y-120000000D01*
X157000000Y-106800000D02*
X156600000Y-107200000D01*
X155000000Y-117450000D02*
X155000000Y-118040000D01*
X161800000Y-114800000D02*
X162200000Y-114400000D01*
X153400000Y-117120000D02*
X152920000Y-117600000D01*
X157075000Y-105500000D02*
X157075000Y-106795000D01*
X158200000Y-118400000D02*
X158200000Y-118480000D01*
X155000000Y-117450000D02*
X155650000Y-117450000D01*
X150680000Y-118000000D02*
X150600000Y-118000000D01*
X155000000Y-118040000D02*
X154840000Y-118200000D01*
X160600000Y-119200000D02*
X160520000Y-119200000D01*
X161800000Y-108400000D02*
X161400000Y-108800000D01*
X153400000Y-116800000D02*
X153400000Y-117120000D01*
X162600000Y-112400000D02*
X163000000Y-112000000D01*
X162520000Y-112400000D02*
X162600000Y-112400000D01*
X151480000Y-115600000D02*
X151400000Y-115600000D01*
X162900000Y-115300000D02*
X161400000Y-116800000D01*
X162600000Y-119520000D02*
X162600000Y-119600000D01*
X160025000Y-119695000D02*
X160120000Y-119600000D01*
X160025000Y-121150000D02*
X160025000Y-119695000D01*
X152200000Y-119600000D02*
X152600000Y-119200000D01*
X160920000Y-117200000D02*
X161000000Y-117200000D01*
X158200000Y-118480000D02*
X158600000Y-118880000D01*
X150600000Y-118000000D02*
X150200000Y-118400000D01*
X161880000Y-108400000D02*
X161800000Y-108400000D01*
X157080000Y-106800000D02*
X157000000Y-106800000D01*
X150600000Y-116400000D02*
X151000000Y-116000000D01*
%TO.N,+3V3_VPHY_SER*%
D59*
X129552587Y-81607413D02*
X130910000Y-80250000D01*
X128858908Y-81607413D02*
X129552587Y-81607413D01*
X126458908Y-81592413D02*
X128843908Y-81592413D01*
X128843908Y-81592413D02*
X128858908Y-81607413D01*
X130910000Y-80250000D02*
X132500000Y-80250000D01*
%TO.N,SERIAL_D-*%
D62*
X132285000Y-78697636D02*
X132285000Y-72102364D01*
X133785000Y-80852364D02*
X133785000Y-80197636D01*
X132752364Y-81885000D02*
X133785000Y-80852364D01*
X132752364Y-81885000D02*
X131520000Y-81885000D01*
X139487635Y-68035000D02*
X140063536Y-68610901D01*
X133785000Y-80197636D02*
X132285000Y-78697636D01*
X132285000Y-72102364D02*
X136352364Y-68035000D01*
X136352364Y-68035000D02*
X139487635Y-68035000D01*
X131520000Y-81885000D02*
X131410000Y-81775000D01*
X140063536Y-68610901D02*
X140219099Y-68610901D01*
%TO.N,SERIAL_D+*%
X136447636Y-68265000D02*
X139392365Y-68265000D01*
X132515000Y-72197636D02*
X136447636Y-68265000D01*
X134015000Y-80947636D02*
X134015000Y-80102364D01*
X131520000Y-82115000D02*
X131410000Y-82225000D01*
X139900901Y-68773536D02*
X139900901Y-68929099D01*
X139392365Y-68265000D02*
X139900901Y-68773536D01*
X132847636Y-82115000D02*
X131520000Y-82115000D01*
X132847636Y-82115000D02*
X134015000Y-80947636D01*
X134015000Y-80102364D02*
X132515000Y-78602364D01*
X132515000Y-78602364D02*
X132515000Y-72197636D01*
%TO.N,+3V3_VPLL_SER*%
D59*
X128843908Y-82522413D02*
X128858908Y-82507413D01*
X132210000Y-82770000D02*
X131910000Y-83070000D01*
X130247413Y-82507413D02*
X128858908Y-82507413D01*
X132480000Y-82770000D02*
X132210000Y-82770000D01*
X130810000Y-83070000D02*
X130247413Y-82507413D01*
X131910000Y-83070000D02*
X130810000Y-83070000D01*
X126458908Y-82522413D02*
X128843908Y-82522413D01*
X132500000Y-82750000D02*
X132480000Y-82770000D01*
%TO.N,SERIAL_RXF#*%
D58*
X143000000Y-102400000D02*
X143000000Y-104800000D01*
X150600000Y-110000000D02*
X151400000Y-109200000D01*
X148200000Y-110000000D02*
X150600000Y-110000000D01*
X143000000Y-104800000D02*
X148200000Y-110000000D01*
%TO.N,SERIAL_TXE#*%
X143800000Y-104941421D02*
X148458579Y-109600000D01*
X143800000Y-101650000D02*
X143800000Y-104941421D01*
X150200000Y-109600000D02*
X150600000Y-109200000D01*
X148458579Y-109600000D02*
X150200000Y-109600000D01*
%TO.N,SERIAL_RD#*%
X149000000Y-109200000D02*
X149800000Y-109200000D01*
X144600000Y-102400000D02*
X144600000Y-104800000D01*
X144600000Y-104800000D02*
X149000000Y-109200000D01*
%TO.N,SERIAL_WR#*%
X150200000Y-108800000D02*
X151800000Y-108800000D01*
X145400000Y-104800000D02*
X149000000Y-108400000D01*
X149800000Y-108400000D02*
X150200000Y-108800000D01*
X145400000Y-101650000D02*
X145400000Y-104800000D01*
X149000000Y-108400000D02*
X149800000Y-108400000D01*
X151800000Y-108800000D02*
X152200000Y-108400000D01*
%TO.N,SERIAL_SIWU#*%
X147400000Y-106000000D02*
X150600000Y-106000000D01*
X146200000Y-104800000D02*
X147400000Y-106000000D01*
X150600000Y-106000000D02*
X151800000Y-107200000D01*
X151800000Y-107200000D02*
X151800000Y-108000000D01*
X146200000Y-102400000D02*
X146200000Y-104800000D01*
%TO.N,SERIAL_CLK*%
X147000000Y-101650000D02*
X147000000Y-104800000D01*
X147800000Y-105600000D02*
X151000000Y-105600000D01*
X147000000Y-104800000D02*
X147800000Y-105600000D01*
X153800000Y-108000000D02*
X154200000Y-108400000D01*
X153400000Y-108000000D02*
X153800000Y-108000000D01*
X151000000Y-105600000D02*
X153400000Y-108000000D01*
X154200000Y-109200000D02*
X153400000Y-110000000D01*
X153400000Y-110000000D02*
X151400000Y-110000000D01*
X154200000Y-108400000D02*
X154200000Y-109200000D01*
%TO.N,SERIAL_OE#*%
X151400000Y-105200000D02*
X153400000Y-107200000D01*
X147800000Y-104800000D02*
X148200000Y-105200000D01*
X153400000Y-107200000D02*
X154200000Y-107200000D01*
X148200000Y-105200000D02*
X151400000Y-105200000D01*
X147800000Y-102400000D02*
X147800000Y-104800000D01*
%TO.N,SERIAL_PWR#*%
X149000000Y-104800000D02*
X151800000Y-104800000D01*
X148600000Y-101650000D02*
X148600000Y-104400000D01*
X151800000Y-104800000D02*
X153400000Y-106400000D01*
X148600000Y-104400000D02*
X149000000Y-104800000D01*
%TO.N,Net-(U601-~{RESET})*%
X141850000Y-80010000D02*
X140490000Y-80010000D01*
X140490000Y-80010000D02*
X140250000Y-80250000D01*
%TO.N,Net-(U601-VCCA)*%
X139125000Y-78795000D02*
X139350000Y-79020000D01*
X139125000Y-78125000D02*
X139125000Y-78795000D01*
%TO.N,Net-(U601-VCCCORE)*%
X138625000Y-78125000D02*
X138625000Y-78795000D01*
X138625000Y-78795000D02*
X138400000Y-79020000D01*
%TO.N,/Serial/EEDATA*%
X137642500Y-75720000D02*
X138440000Y-75720000D01*
X137112500Y-76250000D02*
X137642500Y-75720000D01*
%TO.N,/Serial/EECLK*%
X137112500Y-75750000D02*
X138117500Y-74745000D01*
X138117500Y-74745000D02*
X138440000Y-74745000D01*
%TO.N,Net-(U602-DO)*%
X137112500Y-76750000D02*
X137592500Y-76270000D01*
X137592500Y-76270000D02*
X138910000Y-76270000D01*
X138910000Y-76270000D02*
X139460000Y-75720000D01*
%TO.N,Net-(U820-LED1)*%
X129840000Y-129770000D02*
X129840000Y-131260000D01*
%TO.N,Net-(U820-LED3)*%
X141020000Y-129770000D02*
X141020000Y-131260000D01*
%TO.N,Net-(U819-LED1)*%
X185270000Y-127060000D02*
X186760000Y-127060000D01*
%TO.N,Net-(U819-LED3)*%
X185270000Y-115880000D02*
X186760000Y-115880000D01*
%TO.N,P9_L2*%
X161400000Y-93770000D02*
X177400000Y-93770000D01*
X177400000Y-93770000D02*
X184250000Y-86920000D01*
X184250000Y-86920000D02*
X184250000Y-76880000D01*
X161000000Y-106000000D02*
X160865000Y-106000000D01*
X158650000Y-96520000D02*
X161400000Y-93770000D01*
X160865000Y-106000000D02*
X158650000Y-103785000D01*
X158650000Y-103785000D02*
X158650000Y-96520000D01*
%TO.N,P9_L1*%
X161800000Y-106000000D02*
X159400000Y-103600000D01*
X161650000Y-94520000D02*
X177790000Y-94520000D01*
X177790000Y-94520000D02*
X184250000Y-88060000D01*
X159400000Y-103600000D02*
X159400000Y-96770000D01*
X159400000Y-96770000D02*
X161650000Y-94520000D01*
%TO.N,+1V8*%
X159800000Y-110480000D02*
X160200000Y-110080000D01*
X157800000Y-110000000D02*
X158200000Y-110400000D01*
X155400000Y-110000000D02*
X157800000Y-110000000D01*
X155000000Y-109600000D02*
X155400000Y-110000000D01*
X160200000Y-110080000D02*
X160200000Y-110000000D01*
%TO.N,TCK*%
X154200000Y-98800000D02*
X154800000Y-99400000D01*
X154800000Y-99400000D02*
X154800000Y-107317547D01*
X154200000Y-96400000D02*
X154200000Y-98800000D01*
X156600000Y-109117547D02*
X156600000Y-109600000D01*
X154800000Y-107317547D02*
X156600000Y-109117547D01*
%TO.N,TDI*%
X155000000Y-97200000D02*
X155000000Y-98800000D01*
X155200000Y-107300000D02*
X157400000Y-109500000D01*
X157400000Y-109500000D02*
X157400000Y-109600000D01*
X155000000Y-98800000D02*
X155200000Y-99000000D01*
X155200000Y-99000000D02*
X155200000Y-107300000D01*
%TO.N,TMS*%
X156000000Y-99400000D02*
X156600000Y-98800000D01*
X159400000Y-109200000D02*
X157900000Y-107700000D01*
X156000000Y-107300000D02*
X156000000Y-99400000D01*
X156400000Y-107700000D02*
X156000000Y-107300000D01*
X157900000Y-107700000D02*
X156400000Y-107700000D01*
X156600000Y-98800000D02*
X156600000Y-97200000D01*
%TO.N,TDO*%
X155600000Y-99000000D02*
X155600000Y-107275000D01*
X156325000Y-108000000D02*
X157800000Y-108000000D01*
X157800000Y-108000000D02*
X159000000Y-109200000D01*
X155800000Y-98800000D02*
X155600000Y-99000000D01*
X155600000Y-107275000D02*
X156325000Y-108000000D01*
X159000000Y-109200000D02*
X159000000Y-109600000D01*
X155800000Y-96400000D02*
X155800000Y-98800000D01*
%TO.N,Net-(U301A-VCCADC_0)*%
X157293676Y-111600000D02*
X157000000Y-111893676D01*
X157000000Y-111893676D02*
X157000000Y-112400000D01*
X159000000Y-111120000D02*
X158520000Y-111600000D01*
X159800000Y-111120000D02*
X159000000Y-111120000D01*
X158520000Y-111600000D02*
X157293676Y-111600000D01*
%TO.N,P7_L2*%
X134650000Y-109770000D02*
X140650000Y-115770000D01*
X150320000Y-113600000D02*
X151000000Y-113600000D01*
X128150000Y-86520000D02*
X134650000Y-93020000D01*
X148150000Y-115770000D02*
X150320000Y-113600000D01*
X134650000Y-93020000D02*
X134650000Y-109770000D01*
X140650000Y-115770000D02*
X148150000Y-115770000D01*
X128150000Y-85520000D02*
X128150000Y-86520000D01*
%TO.N,/FPGA_Config/SDI_FPGA*%
X160795000Y-104000000D02*
X163800000Y-104000000D01*
X164100000Y-111700000D02*
X162200000Y-113600000D01*
X160100000Y-103305000D02*
X160795000Y-104000000D01*
X163800000Y-104000000D02*
X164100000Y-104300000D01*
X164100000Y-104300000D02*
X164100000Y-111700000D01*
%TO.N,/FPGA_Config/SDO_FPGA*%
X161950000Y-103200000D02*
X164200000Y-103200000D01*
X164600000Y-112000000D02*
X163000000Y-113600000D01*
X160050000Y-101300000D02*
X161950000Y-103200000D01*
X164200000Y-103200000D02*
X164600000Y-103600000D01*
X160050000Y-98550000D02*
X160050000Y-101300000D01*
X164600000Y-103600000D02*
X164600000Y-112000000D01*
%TO.N,P7_L1*%
X133650000Y-110020000D02*
X140150000Y-116520000D01*
X148640000Y-116520000D02*
X150760000Y-114400000D01*
X133650000Y-93520000D02*
X133650000Y-110020000D01*
X140150000Y-116520000D02*
X148640000Y-116520000D01*
X128150000Y-76760000D02*
X123900000Y-81010000D01*
X128150000Y-74340000D02*
X128150000Y-76760000D01*
X131100000Y-90970000D02*
X133650000Y-93520000D01*
X124470000Y-90970000D02*
X131100000Y-90970000D01*
X150760000Y-114400000D02*
X151000000Y-114400000D01*
X123900000Y-81010000D02*
X123900000Y-90400000D01*
X123900000Y-90400000D02*
X124470000Y-90970000D01*
%TO.N,Net-(U301B-IO_L3P_T0_DQS_PUDC_B_14)*%
X160600000Y-113680000D02*
X160680000Y-113600000D01*
X160600000Y-114400000D02*
X160600000Y-113680000D01*
%TO.N,/FPGA_Config/NHL_FPGA*%
X165100000Y-112300000D02*
X161650000Y-115750000D01*
X161650000Y-115750000D02*
X160350000Y-115750000D01*
X163610000Y-101410000D02*
X165100000Y-102900000D01*
X165100000Y-102900000D02*
X165100000Y-112300000D01*
X161400000Y-101410000D02*
X163610000Y-101410000D01*
X160350000Y-115750000D02*
X159800000Y-115200000D01*
%TO.N,P8_L1*%
X139610000Y-117230000D02*
X132650000Y-110270000D01*
X149870000Y-116800000D02*
X149440000Y-117230000D01*
X129220000Y-93840000D02*
X128150000Y-93840000D01*
X132650000Y-110270000D02*
X132650000Y-97270000D01*
X151800000Y-116800000D02*
X149870000Y-116800000D01*
X132650000Y-97270000D02*
X129220000Y-93840000D01*
X149440000Y-117230000D02*
X139610000Y-117230000D01*
%TO.N,P8_L2*%
X149650000Y-118020000D02*
X150395000Y-117275000D01*
X131650000Y-107520000D02*
X131650000Y-110520000D01*
X129150000Y-105020000D02*
X131650000Y-107520000D01*
X131650000Y-110520000D02*
X139150000Y-118020000D01*
X139150000Y-118020000D02*
X149650000Y-118020000D01*
X150395000Y-117275000D02*
X151895000Y-117275000D01*
X152370000Y-116800000D02*
X152600000Y-116800000D01*
X151895000Y-117275000D02*
X152370000Y-116800000D01*
X128150000Y-105020000D02*
X129150000Y-105020000D01*
%TO.N,/FPGA_Config/FPGA_DONE*%
X122400000Y-70650000D02*
X122400000Y-90900000D01*
X155300000Y-119500000D02*
X155400000Y-119400000D01*
X154650000Y-124400000D02*
X154650000Y-120433579D01*
X122400000Y-90900000D02*
X123400000Y-91900000D01*
X131150000Y-61900000D02*
X122400000Y-70650000D01*
X145900000Y-133400000D02*
X146900000Y-132400000D01*
X127900000Y-133400000D02*
X145900000Y-133400000D01*
X146900000Y-132400000D02*
X146900000Y-125900000D01*
X147500000Y-125300000D02*
X153750000Y-125300000D01*
X132000000Y-61900000D02*
X131150000Y-61900000D01*
X154550000Y-120333579D02*
X154550000Y-119800000D01*
X154850000Y-119500000D02*
X155300000Y-119500000D01*
X123400000Y-91900000D02*
X123400000Y-128900000D01*
X155400000Y-119400000D02*
X155400000Y-118800000D01*
X154650000Y-120433579D02*
X154550000Y-120333579D01*
X154550000Y-119800000D02*
X154850000Y-119500000D01*
X123400000Y-128900000D02*
X127900000Y-133400000D01*
X146900000Y-125900000D02*
X147500000Y-125300000D01*
X153750000Y-125300000D02*
X154650000Y-124400000D01*
%TO.N,P2_L2*%
X175760000Y-116800000D02*
X162200000Y-116800000D01*
X183180000Y-96380000D02*
X179750000Y-99810000D01*
X179750000Y-99810000D02*
X179750000Y-112810000D01*
X179750000Y-112810000D02*
X175760000Y-116800000D01*
X184250000Y-96380000D02*
X183180000Y-96380000D01*
%TO.N,P3_L1*%
X180200000Y-119510000D02*
X181500000Y-120810000D01*
X161800000Y-119860000D02*
X162500000Y-120560000D01*
X164550000Y-119510000D02*
X180200000Y-119510000D01*
X163500000Y-120560000D02*
X164550000Y-119510000D01*
X181500000Y-120810000D02*
X181500000Y-125560000D01*
X162500000Y-120560000D02*
X163500000Y-120560000D01*
X183000000Y-127060000D02*
X184250000Y-127060000D01*
X161800000Y-118800000D02*
X161800000Y-119860000D01*
X181500000Y-125560000D02*
X183000000Y-127060000D01*
%TO.N,P3_L2*%
X184250000Y-115880000D02*
X183082500Y-115880000D01*
X183082500Y-115880000D02*
X180152500Y-118810000D01*
X161860000Y-118060000D02*
X161400000Y-117600000D01*
X163765000Y-118060000D02*
X161860000Y-118060000D01*
X180152500Y-118810000D02*
X164515000Y-118810000D01*
X164515000Y-118810000D02*
X163765000Y-118060000D01*
%TO.N,P2_L1*%
X180750000Y-110060000D02*
X183250000Y-107560000D01*
X180750000Y-113060000D02*
X180750000Y-110060000D01*
X176210000Y-117600000D02*
X180750000Y-113060000D01*
X162200000Y-117600000D02*
X176210000Y-117600000D01*
X184250000Y-107560000D02*
X183250000Y-107560000D01*
%TO.N,P4_L1*%
X156975000Y-118725000D02*
X156125000Y-118725000D01*
X154142500Y-125900000D02*
X157020000Y-123022500D01*
X157020000Y-120500000D02*
X157385000Y-120135000D01*
X149340000Y-126930000D02*
X150370000Y-125900000D01*
X150370000Y-125900000D02*
X154142500Y-125900000D01*
X149340000Y-128750000D02*
X149340000Y-126930000D01*
X157385000Y-119135000D02*
X156975000Y-118725000D01*
X156125000Y-118725000D02*
X155800000Y-118400000D01*
X157020000Y-123022500D02*
X157020000Y-120500000D01*
X157385000Y-120135000D02*
X157385000Y-119135000D01*
%TO.N,P4_L2*%
X156600000Y-118400000D02*
X157150000Y-118400000D01*
X157150000Y-118400000D02*
X157650000Y-118900000D01*
X157650000Y-123050000D02*
X160520000Y-125920000D01*
X157650000Y-118900000D02*
X157650000Y-123050000D01*
X160520000Y-125920000D02*
X160520000Y-128750000D01*
%TO.N,P5_L1*%
X160860000Y-122800000D02*
X162060000Y-124000000D01*
X161150000Y-120120000D02*
X160860000Y-120410000D01*
X160860000Y-120410000D02*
X160860000Y-122800000D01*
X160125000Y-118725000D02*
X160975000Y-118725000D01*
X165660000Y-124000000D02*
X168840000Y-127180000D01*
X168840000Y-127180000D02*
X168840000Y-128750000D01*
X162060000Y-124000000D02*
X165660000Y-124000000D01*
X161150000Y-118900000D02*
X161150000Y-120120000D01*
X159800000Y-118400000D02*
X160125000Y-118725000D01*
X160975000Y-118725000D02*
X161150000Y-118900000D01*
%TO.N,P5_L2*%
X161400000Y-120130000D02*
X161660000Y-120390000D01*
X180020000Y-128750000D02*
X180020000Y-127160000D01*
X161660000Y-120390000D02*
X161660000Y-122400000D01*
X176060000Y-123200000D02*
X162460000Y-123200000D01*
X161660000Y-122400000D02*
X162460000Y-123200000D01*
X161150000Y-118400000D02*
X161400000Y-118650000D01*
X180020000Y-127160000D02*
X176060000Y-123200000D01*
X160600000Y-118400000D02*
X161150000Y-118400000D01*
X161400000Y-118650000D02*
X161400000Y-120130000D01*
%TO.N,P1_L1*%
X128150000Y-113340000D02*
X129110000Y-113340000D01*
X129110000Y-113340000D02*
X134570000Y-118800000D01*
X134570000Y-118800000D02*
X150600000Y-118800000D01*
%TO.N,P1_L2*%
X150700000Y-119500000D02*
X151400000Y-118800000D01*
X129500000Y-124520000D02*
X134520000Y-119500000D01*
X128150000Y-124520000D02*
X129500000Y-124520000D01*
X134520000Y-119500000D02*
X150700000Y-119500000D01*
%TO.N,P6_L1*%
X152600000Y-123200000D02*
X153150000Y-122650000D01*
X153150000Y-119450000D02*
X153400000Y-119200000D01*
X133800000Y-123200000D02*
X152600000Y-123200000D01*
X129840000Y-127160000D02*
X133800000Y-123200000D01*
X153150000Y-122650000D02*
X153150000Y-119450000D01*
X129840000Y-128750000D02*
X129840000Y-127160000D01*
%TO.N,P6_L2*%
X144200000Y-124000000D02*
X153000000Y-124000000D01*
X141020000Y-127180000D02*
X144200000Y-124000000D01*
X153650000Y-123350000D02*
X153650000Y-119750000D01*
X141020000Y-128750000D02*
X141020000Y-127180000D01*
X153650000Y-119750000D02*
X154200000Y-119200000D01*
X153000000Y-124000000D02*
X153650000Y-123350000D01*
%TO.N,Net-(U811-LED1)*%
X168840000Y-129770000D02*
X168840000Y-131260000D01*
%TO.N,Net-(U811-LED3)*%
X180020000Y-129770000D02*
X180020000Y-131260000D01*
%TO.N,Net-(U803-LED1)*%
X127130000Y-74340000D02*
X125640000Y-74340000D01*
%TO.N,Net-(U803-LED3)*%
X127130000Y-85520000D02*
X125640000Y-85520000D01*
%TO.N,Net-(U810-LED1)*%
X185270000Y-107560000D02*
X186760000Y-107560000D01*
%TO.N,Net-(U810-LED3)*%
X185270000Y-96380000D02*
X186760000Y-96380000D01*
%TO.N,/Power/PG_2V5*%
X169900000Y-75400000D02*
X166150000Y-75400000D01*
X170360000Y-75860000D02*
X169900000Y-75400000D01*
X165650000Y-75900000D02*
X165650000Y-79750000D01*
X170360000Y-79120000D02*
X170360000Y-75860000D01*
X166150000Y-75400000D02*
X165650000Y-75900000D01*
X170650000Y-79410000D02*
X170360000Y-79120000D01*
X165650000Y-79750000D02*
X166250000Y-80350000D01*
X171400000Y-79410000D02*
X170650000Y-79410000D01*
%TO.N,/Power/PG_3V3*%
X164900000Y-75400000D02*
X156400000Y-75400000D01*
X154610000Y-63370000D02*
X155525000Y-62455000D01*
X156400000Y-75400000D02*
X154610000Y-73610000D01*
X166400000Y-79410000D02*
X166650000Y-79660000D01*
X155525000Y-62455000D02*
X155525000Y-61200000D01*
X166400000Y-80900000D02*
X165600000Y-80900000D01*
X165400000Y-80700000D02*
X165400000Y-75900000D01*
X154610000Y-73610000D02*
X154610000Y-63370000D01*
X165400000Y-75900000D02*
X164900000Y-75400000D01*
X166650000Y-80650000D02*
X166400000Y-80900000D01*
X166650000Y-79660000D02*
X166650000Y-80650000D01*
X165600000Y-80900000D02*
X165400000Y-80700000D01*
%TO.N,/Power/FB_3V3*%
X164150000Y-78420000D02*
X164150000Y-79400000D01*
%TO.N,/JTAG/EECLK*%
X150867500Y-74745000D02*
X151190000Y-74745000D01*
X149862500Y-75750000D02*
X150867500Y-74745000D01*
%TO.N,/JTAG/EEDATA*%
X150392500Y-75720000D02*
X151190000Y-75720000D01*
X149862500Y-76250000D02*
X150392500Y-75720000D01*
%TO.N,Net-(U503-DO)*%
X151660000Y-76270000D02*
X152210000Y-75720000D01*
X150342500Y-76270000D02*
X151660000Y-76270000D01*
X149862500Y-76750000D02*
X150342500Y-76270000D01*
%TO.N,VIN*%
X159860000Y-66370000D02*
X160610000Y-67120000D01*
D59*
X158110000Y-69370000D02*
X160610000Y-69370000D01*
D58*
X159860000Y-65620000D02*
X159860000Y-66370000D01*
%TO.N,Net-(U802-LED1)*%
X149340000Y-129770000D02*
X149340000Y-131260000D01*
%TO.N,Net-(U802-LED3)*%
X160520000Y-129770000D02*
X160520000Y-131260000D01*
%TO.N,/Power/PG_1V8*%
X173020000Y-82120000D02*
X171250000Y-80350000D01*
X181610000Y-79630000D02*
X181610000Y-81370000D01*
X180860000Y-82120000D02*
X173020000Y-82120000D01*
X181400000Y-79420000D02*
X181610000Y-79630000D01*
X181610000Y-81370000D02*
X180860000Y-82120000D01*
%TO.N,/Power/FB_2V5*%
X169150000Y-78420000D02*
X169150000Y-79400000D01*
%TO.N,/Power/PG_1V0*%
X180890000Y-81120000D02*
X181250000Y-80760000D01*
X175360000Y-80620000D02*
X175860000Y-81120000D01*
X175360000Y-79870000D02*
X175360000Y-80620000D01*
X175820000Y-79410000D02*
X175360000Y-79870000D01*
X181250000Y-80760000D02*
X181250000Y-80350000D01*
X176400000Y-79410000D02*
X175820000Y-79410000D01*
X175860000Y-81120000D02*
X180890000Y-81120000D01*
%TO.N,/Power/FB_1V0*%
X174200000Y-78410000D02*
X174200000Y-79400000D01*
%TO.N,VBUS*%
X150010000Y-66760000D02*
X149650000Y-66400000D01*
X150010000Y-67250000D02*
X150010000Y-66760000D01*
X148515000Y-66015000D02*
X148515000Y-65400000D01*
X149650000Y-66400000D02*
X148900000Y-66400000D01*
X148900000Y-66400000D02*
X148515000Y-66015000D01*
%TO.N,Net-(U821-LED1)*%
X185270000Y-88060000D02*
X186760000Y-88060000D01*
%TO.N,Net-(U821-LED3)*%
X185270000Y-76880000D02*
X186760000Y-76880000D01*
%TO.N,/Power/FB_1V8*%
X179150000Y-78440000D02*
X179150000Y-79400000D01*
%TO.N,/Power/FB_5V0*%
X176663000Y-60537000D02*
X176226000Y-60100000D01*
X176226000Y-60100000D02*
X174910000Y-60100000D01*
X174910000Y-60100000D02*
X174910000Y-62000000D01*
%TO.N,+3V3_VPHY_JTAG*%
D59*
X142950000Y-80250000D02*
X142600000Y-80600000D01*
X139150000Y-83035000D02*
X141535000Y-83035000D01*
X145250000Y-80250000D02*
X142950000Y-80250000D01*
X142600000Y-80600000D02*
X142600000Y-82800000D01*
X141535000Y-83035000D02*
X141550000Y-83020000D01*
X142600000Y-82800000D02*
X142365000Y-83035000D01*
X142365000Y-83035000D02*
X141550000Y-83035000D01*
%TO.N,JTAG_D-*%
D62*
X139535000Y-71572302D02*
X139864400Y-71242902D01*
X146285000Y-79810272D02*
X139535000Y-73060270D01*
X146285000Y-81102364D02*
X146285000Y-79810272D01*
X144270000Y-81885000D02*
X144160000Y-81775000D01*
X139535000Y-73060270D02*
X139535000Y-71572302D01*
X145502364Y-81885000D02*
X146285000Y-81102364D01*
X139864400Y-71242902D02*
X139864400Y-71087339D01*
X145502364Y-81885000D02*
X144270000Y-81885000D01*
%TO.N,JTAG_D+*%
X144270000Y-82115000D02*
X144160000Y-82225000D01*
X139765000Y-71667572D02*
X140027035Y-71405537D01*
X140027035Y-71405537D02*
X140182598Y-71405537D01*
X139765000Y-72965000D02*
X139765000Y-71667572D01*
X145597636Y-82115000D02*
X146515000Y-81197636D01*
X146515000Y-79715000D02*
X139765000Y-72965000D01*
X145597636Y-82115000D02*
X144270000Y-82115000D01*
X146515000Y-81197636D02*
X146515000Y-79715000D01*
%TO.N,+3V3_VPLL_JTAG*%
D59*
X145050000Y-82750000D02*
X143865000Y-83935000D01*
X139165000Y-83950000D02*
X139150000Y-83935000D01*
X141550000Y-83950000D02*
X139165000Y-83950000D01*
X145250000Y-82750000D02*
X145050000Y-82750000D01*
X143865000Y-83935000D02*
X141550000Y-83935000D01*
%TO.N,Net-(U502-VCCA)*%
D58*
X151875000Y-78125000D02*
X151875000Y-78795000D01*
X151875000Y-78795000D02*
X152100000Y-79020000D01*
%TO.N,Net-(U502-VCCCORE)*%
X151375000Y-78125000D02*
X151375000Y-78795000D01*
X151375000Y-78795000D02*
X151150000Y-79020000D01*
%TO.N,Net-(J701-CC1)*%
X147450000Y-64500000D02*
X147450000Y-63410000D01*
%TO.N,Net-(J701-CC2)*%
X144450000Y-64950000D02*
X144450000Y-63410000D01*
%TO.N,Net-(U801-LED1)*%
X127130000Y-113340000D02*
X125640000Y-113340000D01*
%TO.N,Net-(U801-LED3)*%
X127130000Y-124520000D02*
X125640000Y-124520000D01*
%TO.N,Net-(U702-CRFILT)*%
D59*
X144475000Y-73580000D02*
X145425000Y-73580000D01*
%TO.N,Net-(U702-VBUS_DET)*%
D58*
X148110000Y-67250000D02*
X148990000Y-67250000D01*
%TO.N,/USB/OSC_IN*%
X134480000Y-64370000D02*
X135635000Y-64370000D01*
X135635000Y-64370000D02*
X135855000Y-64150000D01*
%TO.N,Net-(U702-PLLFILT)*%
D59*
X143965000Y-69140000D02*
X144925000Y-69140000D01*
%TO.N,Net-(U702-RBIAS)*%
D58*
X143000000Y-69090000D02*
X143000000Y-68842500D01*
X143000000Y-68842500D02*
X143450000Y-68392500D01*
%TO.N,Net-(C101-Pad2)*%
D60*
X169785000Y-68120000D02*
X168085000Y-68120000D01*
%TO.N,/Input/GATE*%
D59*
X159860000Y-62370000D02*
X159410000Y-61920000D01*
X162610000Y-62120000D02*
X163110000Y-62120000D01*
X159670000Y-61580000D02*
X159410000Y-61580000D01*
X159410000Y-61920000D02*
X159410000Y-61580000D01*
X162610000Y-62120000D02*
X160210000Y-62120000D01*
X163110000Y-62120000D02*
X163610000Y-62620000D01*
X163070000Y-64660000D02*
X162610000Y-64660000D01*
X159860000Y-62720000D02*
X159860000Y-62370000D01*
X163610000Y-62620000D02*
X163610000Y-64120000D01*
X163610000Y-64120000D02*
X163070000Y-64660000D01*
X160210000Y-62120000D02*
X159670000Y-61580000D01*
%TO.N,Net-(U102-~{SHDN})*%
X157090000Y-69370000D02*
X157090000Y-68370000D01*
D58*
X156510000Y-62720000D02*
X157860000Y-62720000D01*
X156590000Y-67870000D02*
X155860000Y-67870000D01*
X155610000Y-67620000D02*
X155610000Y-63620000D01*
X157090000Y-68370000D02*
X156590000Y-67870000D01*
X155860000Y-67870000D02*
X155610000Y-67620000D01*
X155610000Y-63620000D02*
X156510000Y-62720000D01*
%TO.N,Net-(U102-UV)*%
X158110000Y-67390000D02*
X158590000Y-67390000D01*
X158590000Y-67390000D02*
X159360000Y-66620000D01*
D59*
X158110000Y-67390000D02*
X158110000Y-68370000D01*
D58*
X159360000Y-66620000D02*
X159360000Y-65620000D01*
%TO.N,Net-(C103-Pad1)*%
D59*
X158460000Y-60590000D02*
X159380000Y-60590000D01*
X159380000Y-60590000D02*
X159410000Y-60560000D01*
%TO.N,Net-(U102-OV)*%
D58*
X157090000Y-67390000D02*
X157610000Y-66870000D01*
D59*
X157070000Y-67370000D02*
X157090000Y-67390000D01*
X156100000Y-67370000D02*
X157070000Y-67370000D01*
D58*
X158367139Y-66870000D02*
X158860000Y-66377139D01*
X157610000Y-66870000D02*
X158367139Y-66870000D01*
X158860000Y-66377139D02*
X158860000Y-65620000D01*
%TO.N,Net-(C714-Pad1)*%
X138920000Y-64970000D02*
X138950000Y-65000000D01*
X138950000Y-65000000D02*
X138155000Y-65000000D01*
X138920000Y-64050000D02*
X138920000Y-64970000D01*
X138155000Y-65000000D02*
X137605000Y-65550000D01*
%TO.N,Net-(U102-RETRY)*%
D59*
X158034999Y-66370000D02*
X158360000Y-66044999D01*
X156610000Y-65870000D02*
X157110000Y-66370000D01*
X158360000Y-66044999D02*
X158360000Y-65620000D01*
X157110000Y-66370000D02*
X158034999Y-66370000D01*
X156610000Y-65850000D02*
X156610000Y-65870000D01*
%TD*%
%TA.AperFunction,Conductor*%
%TO.N,/Input/SENSE*%
G36*
X171069999Y-59123727D02*
G01*
X171076893Y-59126583D01*
X171103413Y-59153098D01*
X171106270Y-59159997D01*
X171106270Y-59171749D01*
X171107145Y-59171748D01*
X171110000Y-60486351D01*
X171106270Y-60505210D01*
X171099377Y-60521850D01*
X171088755Y-60537745D01*
X171000532Y-60625967D01*
X170901983Y-60773459D01*
X170834104Y-60937334D01*
X170799500Y-61111299D01*
X170799500Y-61288699D01*
X170834104Y-61462664D01*
X170901982Y-61626539D01*
X170901985Y-61626544D01*
X170931321Y-61670448D01*
X171000532Y-61774031D01*
X171088755Y-61862254D01*
X171099377Y-61878149D01*
X171106270Y-61894789D01*
X171110000Y-61913542D01*
X171110000Y-62829968D01*
X171106269Y-62848722D01*
X171101176Y-62861016D01*
X171077820Y-62886089D01*
X169125448Y-63862275D01*
X169114796Y-63866136D01*
X169103989Y-63868688D01*
X169092728Y-63870000D01*
X163969247Y-63870000D01*
X163950499Y-63866271D01*
X163943601Y-63863414D01*
X163917085Y-63836898D01*
X163914227Y-63829997D01*
X163910500Y-63811252D01*
X163910500Y-62580438D01*
X163908415Y-62572658D01*
X163908415Y-62572656D01*
X163907583Y-62569551D01*
X163890023Y-62504015D01*
X163890022Y-62504014D01*
X163890022Y-62504012D01*
X163869789Y-62468968D01*
X163864896Y-62457155D01*
X163861668Y-62445110D01*
X163860000Y-62432432D01*
X163860000Y-59178747D01*
X163863727Y-59160002D01*
X163866583Y-59153106D01*
X163893094Y-59126588D01*
X163900002Y-59123726D01*
X163918747Y-59120000D01*
X171051253Y-59120000D01*
X171069999Y-59123727D01*
G37*
%TD.AperFunction*%
%TD*%
%TA.AperFunction,Conductor*%
%TO.N,Net-(Q101A-S)*%
G36*
X163295148Y-62884352D02*
G01*
X163309500Y-62919000D01*
X163309500Y-63975233D01*
X163295148Y-64009881D01*
X163164881Y-64140148D01*
X163130233Y-64154500D01*
X161955252Y-64154500D01*
X161896769Y-64166133D01*
X161830447Y-64210447D01*
X161794403Y-64264392D01*
X161786133Y-64276769D01*
X161774500Y-64335252D01*
X161774500Y-64984748D01*
X161786133Y-65043231D01*
X161803882Y-65069795D01*
X161830447Y-65109552D01*
X161857012Y-65127301D01*
X161896769Y-65153867D01*
X161955252Y-65165500D01*
X161955255Y-65165500D01*
X163264747Y-65165500D01*
X163264748Y-65165500D01*
X163301441Y-65158201D01*
X163338222Y-65165517D01*
X163359058Y-65196699D01*
X163360000Y-65206259D01*
X163360000Y-66321000D01*
X163345648Y-66355648D01*
X163311000Y-66370000D01*
X160409000Y-66370000D01*
X160374352Y-66355648D01*
X160360000Y-66321000D01*
X160360000Y-62919000D01*
X160374352Y-62884352D01*
X160409000Y-62870000D01*
X163260500Y-62870000D01*
X163295148Y-62884352D01*
G37*
%TD.AperFunction*%
%TD*%
%TA.AperFunction,Conductor*%
%TO.N,VIN*%
G36*
X168834508Y-64147174D02*
G01*
X168850547Y-64171178D01*
X168854368Y-64180404D01*
X168860000Y-64208718D01*
X168860000Y-66781281D01*
X168854367Y-66809599D01*
X168850056Y-66820007D01*
X168810008Y-66860055D01*
X168810007Y-66860056D01*
X168799599Y-66864367D01*
X168771281Y-66870000D01*
X167360000Y-66870000D01*
X167360000Y-67132541D01*
X167356213Y-67155912D01*
X167349026Y-67177504D01*
X167338052Y-67198480D01*
X167316214Y-67227649D01*
X167316202Y-67227668D01*
X167316201Y-67227669D01*
X167316201Y-67227670D01*
X167265911Y-67362505D01*
X167265909Y-67362511D01*
X167259500Y-67422125D01*
X167259500Y-68817873D01*
X167265909Y-68877484D01*
X167265910Y-68877489D01*
X167315745Y-69011103D01*
X167316335Y-69012686D01*
X167317637Y-69014561D01*
X167319367Y-69016557D01*
X167338053Y-69041517D01*
X167349027Y-69062495D01*
X167356213Y-69084085D01*
X167360000Y-69107455D01*
X167360000Y-69196218D01*
X167354366Y-69224539D01*
X167346535Y-69243443D01*
X167313052Y-69280384D01*
X167150307Y-69367371D01*
X167150290Y-69367383D01*
X166994917Y-69494895D01*
X166994895Y-69494917D01*
X166867383Y-69650290D01*
X166867371Y-69650307D01*
X166772622Y-69827574D01*
X166772619Y-69827579D01*
X166714267Y-70019937D01*
X166714267Y-70019938D01*
X166714266Y-70019943D01*
X166714266Y-70019945D01*
X166701952Y-70144974D01*
X166699500Y-70169866D01*
X166699500Y-72230133D01*
X166704787Y-72283811D01*
X166714266Y-72380054D01*
X166772625Y-72572438D01*
X166772734Y-72572765D01*
X166773719Y-72574476D01*
X166867371Y-72749691D01*
X166867387Y-72749715D01*
X166994873Y-72905055D01*
X166994908Y-72905096D01*
X167085521Y-72979460D01*
X167103840Y-73001783D01*
X167107594Y-73008807D01*
X167113143Y-73065171D01*
X167077228Y-73108941D01*
X167072903Y-73111254D01*
X167038005Y-73120000D01*
X160448719Y-73120000D01*
X160420404Y-73114368D01*
X160409995Y-73110057D01*
X160369946Y-73070013D01*
X160365629Y-73059591D01*
X160360000Y-73031281D01*
X160360000Y-72350855D01*
X160365631Y-72322541D01*
X160371542Y-72308271D01*
X160405023Y-72271330D01*
X160409883Y-72268732D01*
X160430325Y-72261418D01*
X160457740Y-72255966D01*
X160540601Y-72200601D01*
X160595966Y-72117740D01*
X160610500Y-72044674D01*
X160610500Y-70395326D01*
X160595966Y-70322260D01*
X160540601Y-70239399D01*
X160457740Y-70184034D01*
X160457739Y-70184033D01*
X160457736Y-70184032D01*
X160433995Y-70179309D01*
X160407322Y-70168260D01*
X160394486Y-70159683D01*
X160364785Y-70119633D01*
X160363186Y-70114361D01*
X160360000Y-70092883D01*
X160360000Y-66699500D01*
X160381674Y-66647174D01*
X160434000Y-66625500D01*
X163311001Y-66625500D01*
X163311002Y-66625500D01*
X163408778Y-66606050D01*
X163443426Y-66591698D01*
X163526312Y-66536315D01*
X163581698Y-66453426D01*
X163595055Y-66421177D01*
X163595744Y-66419670D01*
X163596050Y-66418778D01*
X163596051Y-66418776D01*
X163615500Y-66321000D01*
X163615500Y-65206259D01*
X163614269Y-65181204D01*
X163613327Y-65171644D01*
X163609648Y-65146849D01*
X163571496Y-65054747D01*
X163571493Y-65054742D01*
X163571492Y-65054740D01*
X163550663Y-65023569D01*
X163550658Y-65023563D01*
X163517175Y-64990081D01*
X163495500Y-64937755D01*
X163495500Y-64775550D01*
X163501132Y-64747234D01*
X163511540Y-64722104D01*
X163527577Y-64698102D01*
X163890469Y-64335212D01*
X163936614Y-64255288D01*
X163939505Y-64244500D01*
X163954360Y-64189057D01*
X163967131Y-64163164D01*
X163973822Y-64154445D01*
X164022874Y-64126132D01*
X164032525Y-64125500D01*
X168782182Y-64125500D01*
X168834508Y-64147174D01*
G37*
%TD.AperFunction*%
%TD*%
%TA.AperFunction,Conductor*%
%TO.N,VREG_IN*%
G36*
X172927972Y-61125631D02*
G01*
X172953104Y-61136041D01*
X172977110Y-61152081D01*
X173059540Y-61234511D01*
X173115489Y-61290460D01*
X173184011Y-61330021D01*
X173184012Y-61330021D01*
X173184014Y-61330022D01*
X173222224Y-61340260D01*
X173255748Y-61349243D01*
X173259451Y-61350500D01*
X173260436Y-61350500D01*
X173260438Y-61350500D01*
X173271281Y-61350500D01*
X173299591Y-61356129D01*
X173310003Y-61360442D01*
X173350053Y-61400485D01*
X173350056Y-61400492D01*
X173354367Y-61410900D01*
X173360000Y-61439218D01*
X173360000Y-62137217D01*
X173363868Y-62146555D01*
X173369500Y-62174871D01*
X173369500Y-62221591D01*
X173380000Y-62293650D01*
X173380417Y-62296517D01*
X173417916Y-62373221D01*
X173436924Y-62412102D01*
X173527898Y-62503076D01*
X173643482Y-62559582D01*
X173718418Y-62570500D01*
X173718424Y-62570500D01*
X174061576Y-62570500D01*
X174061582Y-62570500D01*
X174136518Y-62559582D01*
X174252102Y-62503076D01*
X174330286Y-62424891D01*
X174343419Y-62414450D01*
X174349992Y-62410346D01*
X174349993Y-62410347D01*
X174361815Y-62402966D01*
X174417674Y-62393641D01*
X174417687Y-62393644D01*
X174422349Y-62394723D01*
X174457989Y-62414491D01*
X174472663Y-62429165D01*
X174474924Y-62430102D01*
X174547898Y-62503076D01*
X174663482Y-62559582D01*
X174738418Y-62570500D01*
X174738424Y-62570500D01*
X175081576Y-62570500D01*
X175081582Y-62570500D01*
X175156518Y-62559582D01*
X175272102Y-62503076D01*
X175363076Y-62412102D01*
X175419582Y-62296518D01*
X175430500Y-62221582D01*
X175430500Y-62208718D01*
X175436129Y-62180409D01*
X175440443Y-62169994D01*
X175480482Y-62129948D01*
X175490911Y-62125628D01*
X175519219Y-62120000D01*
X176563150Y-62120000D01*
X176591465Y-62125631D01*
X176606985Y-62132060D01*
X176642757Y-62163433D01*
X176644479Y-62166415D01*
X176651866Y-62184252D01*
X176660088Y-62214934D01*
X176660090Y-62214939D01*
X176705534Y-62293649D01*
X176705535Y-62293651D01*
X176709522Y-62300558D01*
X176709524Y-62300561D01*
X176709525Y-62300562D01*
X176779438Y-62370475D01*
X176865062Y-62419910D01*
X176865063Y-62419910D01*
X176865065Y-62419911D01*
X176912813Y-62432705D01*
X176955877Y-62444243D01*
X176959578Y-62445500D01*
X177059437Y-62445500D01*
X177069700Y-62445500D01*
X177078588Y-62440367D01*
X177154938Y-62419910D01*
X177210256Y-62387970D01*
X177237588Y-62378692D01*
X177258356Y-62375958D01*
X177305012Y-62385239D01*
X177365062Y-62419910D01*
X177365063Y-62419910D01*
X177365065Y-62419911D01*
X177383666Y-62424895D01*
X177412811Y-62432705D01*
X177412812Y-62432705D01*
X177431533Y-62437720D01*
X177455876Y-62444243D01*
X177459578Y-62445500D01*
X177559437Y-62445500D01*
X177569700Y-62445500D01*
X177578588Y-62440367D01*
X177654938Y-62419910D01*
X177740562Y-62370475D01*
X177810475Y-62300562D01*
X177838556Y-62251921D01*
X177857592Y-62230217D01*
X177866534Y-62223355D01*
X177921227Y-62208700D01*
X177922088Y-62208813D01*
X177964762Y-62229855D01*
X177967195Y-62232288D01*
X177978955Y-62247614D01*
X178009522Y-62300558D01*
X178009523Y-62300559D01*
X178009525Y-62300562D01*
X178079438Y-62370475D01*
X178165062Y-62419910D01*
X178165063Y-62419910D01*
X178165065Y-62419911D01*
X178212813Y-62432705D01*
X178255877Y-62444243D01*
X178259578Y-62445500D01*
X178359437Y-62445500D01*
X178369700Y-62445500D01*
X178378588Y-62440367D01*
X178454938Y-62419910D01*
X178510256Y-62387970D01*
X178537588Y-62378692D01*
X178558356Y-62375958D01*
X178605012Y-62385239D01*
X178665062Y-62419910D01*
X178665063Y-62419910D01*
X178665065Y-62419911D01*
X178683666Y-62424895D01*
X178712811Y-62432705D01*
X178712812Y-62432705D01*
X178731533Y-62437720D01*
X178755876Y-62444243D01*
X178759578Y-62445500D01*
X178859437Y-62445500D01*
X178869700Y-62445500D01*
X178878588Y-62440367D01*
X178954938Y-62419910D01*
X179040562Y-62370475D01*
X179110475Y-62300562D01*
X179159910Y-62214938D01*
X179163779Y-62200500D01*
X179166842Y-62189066D01*
X179179610Y-62163173D01*
X179189839Y-62149842D01*
X179229408Y-62123409D01*
X179232736Y-62122518D01*
X179251874Y-62120000D01*
X184811281Y-62120000D01*
X184839591Y-62125629D01*
X184850003Y-62129942D01*
X184890053Y-62169985D01*
X184890056Y-62169992D01*
X184894367Y-62180400D01*
X184900000Y-62208718D01*
X184900000Y-64031281D01*
X184894367Y-64059599D01*
X184890056Y-64070007D01*
X184850008Y-64110055D01*
X184850007Y-64110056D01*
X184839599Y-64114367D01*
X184811281Y-64120000D01*
X178342688Y-64120000D01*
X178314370Y-64114367D01*
X178296384Y-64106917D01*
X178263167Y-64079652D01*
X178262906Y-64079262D01*
X178262747Y-64079023D01*
X178260043Y-64074975D01*
X178257492Y-64070873D01*
X178210476Y-63989440D01*
X178210475Y-63989439D01*
X178210474Y-63989437D01*
X178140562Y-63919525D01*
X178140559Y-63919523D01*
X178140558Y-63919522D01*
X178054938Y-63870089D01*
X178034759Y-63864682D01*
X177959437Y-63844500D01*
X177959436Y-63844500D01*
X177860564Y-63844500D01*
X177860563Y-63844500D01*
X177818452Y-63855783D01*
X177765060Y-63870089D01*
X177679440Y-63919522D01*
X177609525Y-63989436D01*
X177565561Y-64065585D01*
X177553807Y-64080905D01*
X177536396Y-64098320D01*
X177484072Y-64120000D01*
X173610000Y-64120000D01*
X173610000Y-66781281D01*
X173604367Y-66809599D01*
X173600056Y-66820007D01*
X173560008Y-66860055D01*
X173560007Y-66860056D01*
X173549599Y-66864367D01*
X173521281Y-66870000D01*
X169188409Y-66870000D01*
X169136083Y-66848326D01*
X169114409Y-66796000D01*
X169114765Y-66788749D01*
X169115500Y-66781281D01*
X169115500Y-64208720D01*
X169115500Y-64208718D01*
X169114121Y-64194719D01*
X169130562Y-64140523D01*
X169170767Y-64115446D01*
X169173516Y-64114797D01*
X169201863Y-64106343D01*
X169212515Y-64102482D01*
X169239711Y-64090801D01*
X171192083Y-63114615D01*
X171264774Y-63060240D01*
X171288130Y-63035167D01*
X171337223Y-62958802D01*
X171342316Y-62946508D01*
X171356858Y-62898575D01*
X171360589Y-62879821D01*
X171365499Y-62829974D01*
X171365500Y-62829974D01*
X171365500Y-62192754D01*
X171387174Y-62140428D01*
X171439500Y-62118754D01*
X171453930Y-62120175D01*
X171606384Y-62150500D01*
X171606385Y-62150500D01*
X171793615Y-62150500D01*
X171793616Y-62150500D01*
X171977251Y-62113973D01*
X172150231Y-62042322D01*
X172305908Y-61938302D01*
X172438302Y-61805908D01*
X172542322Y-61650231D01*
X172613973Y-61477251D01*
X172650500Y-61293616D01*
X172650500Y-61208718D01*
X172656129Y-61180409D01*
X172660443Y-61169994D01*
X172700482Y-61129948D01*
X172710911Y-61125628D01*
X172739219Y-61120000D01*
X172899658Y-61120000D01*
X172927972Y-61125631D01*
G37*
%TD.AperFunction*%
%TD*%
%TA.AperFunction,Conductor*%
%TO.N,/Power/PG_1V0*%
G36*
X176724508Y-78977174D02*
G01*
X176740547Y-79001178D01*
X176744368Y-79010404D01*
X176750000Y-79038718D01*
X176750000Y-79379657D01*
X176744367Y-79407973D01*
X176733959Y-79433103D01*
X176717918Y-79457109D01*
X176507109Y-79667918D01*
X176483103Y-79683958D01*
X176457973Y-79694367D01*
X176429657Y-79700000D01*
X175988719Y-79700000D01*
X175960404Y-79694368D01*
X175949995Y-79690057D01*
X175909946Y-79650013D01*
X175905629Y-79639591D01*
X175900000Y-79611281D01*
X175900000Y-79038718D01*
X175905631Y-79010404D01*
X175909451Y-79001181D01*
X175949498Y-78961133D01*
X175977818Y-78955500D01*
X176672182Y-78955500D01*
X176724508Y-78977174D01*
G37*
%TD.AperFunction*%
%TD*%
%TA.AperFunction,Conductor*%
%TO.N,GND*%
G36*
X146075554Y-69241674D02*
G01*
X146094706Y-69274847D01*
X146100088Y-69294934D01*
X146100090Y-69294939D01*
X146109210Y-69310735D01*
X146149525Y-69380562D01*
X146219438Y-69450475D01*
X146305062Y-69499910D01*
X146305063Y-69499910D01*
X146305065Y-69499911D01*
X146351642Y-69512391D01*
X146400562Y-69525499D01*
X146400563Y-69525500D01*
X146400565Y-69525500D01*
X146499437Y-69525500D01*
X146499437Y-69525499D01*
X146594938Y-69499910D01*
X146680562Y-69450475D01*
X146750475Y-69380562D01*
X146799910Y-69294938D01*
X146800467Y-69292857D01*
X146805294Y-69274847D01*
X146839773Y-69229914D01*
X146876772Y-69220000D01*
X147236000Y-69220000D01*
X147288326Y-69241674D01*
X147310000Y-69294000D01*
X147310000Y-69996000D01*
X147288326Y-70048326D01*
X147236000Y-70070000D01*
X145584000Y-70070000D01*
X145531674Y-70048326D01*
X145510000Y-69996000D01*
X145510000Y-69294000D01*
X145531674Y-69241674D01*
X145584000Y-69220000D01*
X146023228Y-69220000D01*
X146075554Y-69241674D01*
G37*
%TD.AperFunction*%
%TD*%
%TA.AperFunction,Conductor*%
%TO.N,GND*%
G36*
X150035967Y-77691674D02*
G01*
X150057641Y-77744000D01*
X150049576Y-77777595D01*
X150023983Y-77827824D01*
X150009500Y-77919264D01*
X150009500Y-78028500D01*
X150006979Y-78047651D01*
X149999500Y-78075564D01*
X149999500Y-78174435D01*
X150006979Y-78202349D01*
X150009500Y-78221499D01*
X150009500Y-78320734D01*
X150023983Y-78412175D01*
X150023983Y-78412177D01*
X150024100Y-78412406D01*
X150024113Y-78412577D01*
X150025783Y-78417716D01*
X150024549Y-78418116D01*
X150028543Y-78468868D01*
X149991759Y-78511935D01*
X149958165Y-78520000D01*
X149334000Y-78520000D01*
X149281674Y-78498326D01*
X149260000Y-78446000D01*
X149260000Y-77744000D01*
X149281674Y-77691674D01*
X149334000Y-77670000D01*
X149983641Y-77670000D01*
X150035967Y-77691674D01*
G37*
%TD.AperFunction*%
%TD*%
%TA.AperFunction,Conductor*%
%TO.N,/Power/PG_1V8*%
G36*
X180988719Y-78955500D02*
G01*
X180988723Y-78955500D01*
X181661281Y-78955500D01*
X181661285Y-78955500D01*
X181663927Y-78955239D01*
X181664630Y-78955170D01*
X181718831Y-78971601D01*
X181740261Y-79000489D01*
X181744365Y-79010395D01*
X181750000Y-79038718D01*
X181750000Y-79611281D01*
X181744367Y-79639599D01*
X181740056Y-79650007D01*
X181700008Y-79690055D01*
X181700007Y-79690056D01*
X181689599Y-79694367D01*
X181661281Y-79700000D01*
X180988719Y-79700000D01*
X180960404Y-79694368D01*
X180949995Y-79690057D01*
X180909946Y-79650013D01*
X180905629Y-79639591D01*
X180900000Y-79611281D01*
X180900000Y-79038718D01*
X180905631Y-79010404D01*
X180909736Y-79000493D01*
X180949783Y-78960445D01*
X180985364Y-78955169D01*
X180988719Y-78955500D01*
G37*
%TD.AperFunction*%
%TD*%
%TA.AperFunction,Conductor*%
%TO.N,/Power/PG_3V3*%
G36*
X166754508Y-78997174D02*
G01*
X166770547Y-79021178D01*
X166774368Y-79030404D01*
X166780000Y-79058718D01*
X166780000Y-79631281D01*
X166774367Y-79659599D01*
X166770056Y-79670007D01*
X166730008Y-79710055D01*
X166730007Y-79710056D01*
X166719599Y-79714367D01*
X166691281Y-79720000D01*
X166090342Y-79720000D01*
X166062024Y-79714367D01*
X166036895Y-79703958D01*
X166012889Y-79687918D01*
X165982581Y-79657610D01*
X165966541Y-79633604D01*
X165956131Y-79608472D01*
X165950500Y-79580158D01*
X165950500Y-79058718D01*
X165956131Y-79030404D01*
X165959951Y-79021181D01*
X165999998Y-78981133D01*
X166028318Y-78975500D01*
X166702182Y-78975500D01*
X166754508Y-78997174D01*
G37*
%TD.AperFunction*%
%TD*%
%TA.AperFunction,Conductor*%
%TO.N,+5V*%
G36*
X166758326Y-77991674D02*
G01*
X166780000Y-78044000D01*
X166780000Y-78646000D01*
X166758326Y-78698326D01*
X166706000Y-78720000D01*
X166024500Y-78720000D01*
X165972174Y-78698326D01*
X165950500Y-78646000D01*
X165950500Y-78044000D01*
X165972174Y-77991674D01*
X166024500Y-77970000D01*
X166706000Y-77970000D01*
X166758326Y-77991674D01*
G37*
%TD.AperFunction*%
%TD*%
%TA.AperFunction,Conductor*%
%TO.N,+5V*%
G36*
X171728326Y-78021674D02*
G01*
X171750000Y-78074000D01*
X171750000Y-78676000D01*
X171728326Y-78728326D01*
X171676000Y-78750000D01*
X170974000Y-78750000D01*
X170921674Y-78728326D01*
X170900000Y-78676000D01*
X170900000Y-78074000D01*
X170921674Y-78021674D01*
X170974000Y-78000000D01*
X171676000Y-78000000D01*
X171728326Y-78021674D01*
G37*
%TD.AperFunction*%
%TD*%
%TA.AperFunction,Conductor*%
%TO.N,/Power/FB_1V8*%
G36*
X179439591Y-78955629D02*
G01*
X179450003Y-78959942D01*
X179490053Y-78999985D01*
X179490056Y-78999992D01*
X179494367Y-79010400D01*
X179494367Y-79027772D01*
X179495687Y-79027763D01*
X179499998Y-79610734D01*
X179494367Y-79639599D01*
X179490056Y-79650007D01*
X179450008Y-79690055D01*
X179450007Y-79690056D01*
X179439599Y-79694367D01*
X179411281Y-79700000D01*
X178876408Y-79700000D01*
X178848090Y-79694367D01*
X178822961Y-79683958D01*
X178798955Y-79667918D01*
X178780562Y-79649525D01*
X178704396Y-79605550D01*
X178689061Y-79593781D01*
X178671665Y-79576379D01*
X178650000Y-79524062D01*
X178650000Y-79038718D01*
X178655629Y-79010409D01*
X178659943Y-78999994D01*
X178699982Y-78959948D01*
X178710411Y-78955628D01*
X178738719Y-78950000D01*
X179411281Y-78950000D01*
X179439591Y-78955629D01*
G37*
%TD.AperFunction*%
%TD*%
%TA.AperFunction,Conductor*%
%TO.N,GND*%
G36*
X145638326Y-83641674D02*
G01*
X145660000Y-83694000D01*
X145660000Y-84303261D01*
X145638326Y-84355587D01*
X145586000Y-84377261D01*
X145552406Y-84369196D01*
X145542175Y-84363983D01*
X145542170Y-84363982D01*
X145450736Y-84349500D01*
X145049265Y-84349500D01*
X144957824Y-84363983D01*
X144917595Y-84384481D01*
X144861133Y-84388924D01*
X144818065Y-84352141D01*
X144810000Y-84318546D01*
X144810000Y-83694000D01*
X144831674Y-83641674D01*
X144884000Y-83620000D01*
X145586000Y-83620000D01*
X145638326Y-83641674D01*
G37*
%TD.AperFunction*%
%TD*%
%TA.AperFunction,Conductor*%
%TO.N,+5V*%
G36*
X181689591Y-77955629D02*
G01*
X181700003Y-77959942D01*
X181740053Y-77999985D01*
X181740056Y-77999992D01*
X181744367Y-78010400D01*
X181744367Y-78027772D01*
X181745687Y-78027763D01*
X181749998Y-78610734D01*
X181744367Y-78639599D01*
X181740056Y-78650007D01*
X181700008Y-78690055D01*
X181700007Y-78690056D01*
X181689599Y-78694367D01*
X181661281Y-78700000D01*
X180988719Y-78700000D01*
X180960404Y-78694368D01*
X180949995Y-78690057D01*
X180909946Y-78650013D01*
X180905629Y-78639591D01*
X180900000Y-78611281D01*
X180900000Y-78038718D01*
X180905629Y-78010409D01*
X180909943Y-77999994D01*
X180949982Y-77959948D01*
X180960411Y-77955628D01*
X180988719Y-77950000D01*
X181661281Y-77950000D01*
X181689591Y-77955629D01*
G37*
%TD.AperFunction*%
%TD*%
%TA.AperFunction,Conductor*%
%TO.N,Net-(U503-DO)*%
G36*
X149619842Y-76545132D02*
G01*
X149633050Y-76551117D01*
X149717562Y-76599910D01*
X149717563Y-76599910D01*
X149717565Y-76599911D01*
X149743895Y-76606966D01*
X149808386Y-76624246D01*
X149812079Y-76625500D01*
X149911937Y-76625500D01*
X149919973Y-76625500D01*
X149925076Y-76622256D01*
X149928037Y-76621184D01*
X150007438Y-76599910D01*
X150041928Y-76579995D01*
X150048086Y-76577769D01*
X150051946Y-76577945D01*
X150063593Y-76573991D01*
X150074764Y-76572521D01*
X150103871Y-76580318D01*
X150104664Y-76580355D01*
X150104876Y-76580587D01*
X150129461Y-76587174D01*
X150130148Y-76587701D01*
X150156585Y-76627257D01*
X150157477Y-76630585D01*
X150160000Y-76649743D01*
X150160000Y-77231281D01*
X150154367Y-77259599D01*
X150150056Y-77270007D01*
X150110008Y-77310055D01*
X150110007Y-77310056D01*
X150099599Y-77314367D01*
X150071281Y-77320000D01*
X149598719Y-77320000D01*
X149570404Y-77314368D01*
X149559995Y-77310057D01*
X149519946Y-77270013D01*
X149515629Y-77259591D01*
X149510000Y-77231281D01*
X149510000Y-76621684D01*
X149515632Y-76593368D01*
X149519473Y-76584095D01*
X149559521Y-76544049D01*
X149611624Y-76542343D01*
X149619842Y-76545132D01*
G37*
%TD.AperFunction*%
%TD*%
%TA.AperFunction,Conductor*%
%TO.N,/Power/FB_1V0*%
G36*
X174528326Y-78971674D02*
G01*
X174550000Y-79024000D01*
X174550000Y-79626000D01*
X174528326Y-79678326D01*
X174476000Y-79700000D01*
X173861689Y-79700000D01*
X173817312Y-79685217D01*
X173813090Y-79682053D01*
X173780562Y-79649525D01*
X173733176Y-79622167D01*
X173729623Y-79619504D01*
X173717270Y-79598659D01*
X173702521Y-79579438D01*
X173701562Y-79572154D01*
X173700748Y-79570781D01*
X173701166Y-79569146D01*
X173700000Y-79560287D01*
X173700000Y-79024000D01*
X173721674Y-78971674D01*
X173774000Y-78950000D01*
X174476000Y-78950000D01*
X174528326Y-78971674D01*
G37*
%TD.AperFunction*%
%TD*%
%TA.AperFunction,Conductor*%
%TO.N,+5V*%
G36*
X176728326Y-77971674D02*
G01*
X176750000Y-78024000D01*
X176750000Y-78626000D01*
X176728326Y-78678326D01*
X176676000Y-78700000D01*
X175974000Y-78700000D01*
X175921674Y-78678326D01*
X175900000Y-78626000D01*
X175900000Y-78024000D01*
X175921674Y-77971674D01*
X175974000Y-77950000D01*
X176676000Y-77950000D01*
X176728326Y-77971674D01*
G37*
%TD.AperFunction*%
%TD*%
%TA.AperFunction,Conductor*%
%TO.N,GND*%
G36*
X137288326Y-77691674D02*
G01*
X137310000Y-77744000D01*
X137310000Y-77899767D01*
X137300086Y-77936766D01*
X137275092Y-77980057D01*
X137275088Y-77980066D01*
X137249500Y-78075562D01*
X137249500Y-78174437D01*
X137275088Y-78269934D01*
X137275091Y-78269941D01*
X137300085Y-78313230D01*
X137310000Y-78350231D01*
X137310000Y-78446000D01*
X137288326Y-78498326D01*
X137236000Y-78520000D01*
X136584000Y-78520000D01*
X136531674Y-78498326D01*
X136510000Y-78446000D01*
X136510000Y-77744000D01*
X136531674Y-77691674D01*
X136584000Y-77670000D01*
X137236000Y-77670000D01*
X137288326Y-77691674D01*
G37*
%TD.AperFunction*%
%TD*%
%TA.AperFunction,Conductor*%
%TO.N,GND*%
G36*
X138643576Y-85541674D02*
G01*
X138665250Y-85594000D01*
X138664339Y-85605576D01*
X138649500Y-85699263D01*
X138649500Y-86100734D01*
X138663983Y-86192175D01*
X138663984Y-86192179D01*
X138699766Y-86262405D01*
X138704210Y-86318867D01*
X138667427Y-86361934D01*
X138633832Y-86370000D01*
X138034000Y-86370000D01*
X137981674Y-86348326D01*
X137960000Y-86296000D01*
X137960000Y-85594000D01*
X137981674Y-85541674D01*
X138034000Y-85520000D01*
X138591250Y-85520000D01*
X138643576Y-85541674D01*
G37*
%TD.AperFunction*%
%TD*%
%TA.AperFunction,Conductor*%
%TO.N,/Power/FB_3V3*%
G36*
X164508326Y-79001674D02*
G01*
X164530000Y-79054000D01*
X164530000Y-79656000D01*
X164508326Y-79708326D01*
X164456000Y-79730000D01*
X163891688Y-79730000D01*
X163839363Y-79708326D01*
X163839362Y-79708325D01*
X163780564Y-79649526D01*
X163717000Y-79612827D01*
X163682521Y-79567893D01*
X163680000Y-79548741D01*
X163680000Y-79054000D01*
X163701674Y-79001674D01*
X163754000Y-78980000D01*
X164456000Y-78980000D01*
X164508326Y-79001674D01*
G37*
%TD.AperFunction*%
%TD*%
%TA.AperFunction,Conductor*%
%TO.N,+3V3*%
G36*
X163402809Y-79421220D02*
G01*
X163424500Y-79473539D01*
X163424500Y-79548741D01*
X163426686Y-79582096D01*
X163426687Y-79582101D01*
X163429203Y-79601215D01*
X163429209Y-79601253D01*
X163435726Y-79634019D01*
X163479818Y-79723430D01*
X163479819Y-79723431D01*
X163514298Y-79768365D01*
X163589249Y-79834096D01*
X163615256Y-79849110D01*
X163623814Y-79854885D01*
X163627375Y-79857668D01*
X163658695Y-79888989D01*
X163719022Y-79929300D01*
X163721186Y-79930991D01*
X163733873Y-79953426D01*
X163748194Y-79974859D01*
X163748659Y-79979572D01*
X163749066Y-79980291D01*
X163748818Y-79981182D01*
X163749616Y-79989252D01*
X163750093Y-80811238D01*
X163744475Y-80839563D01*
X163740170Y-80849972D01*
X163700154Y-80890038D01*
X163692930Y-80893035D01*
X163689767Y-80894348D01*
X163661403Y-80900000D01*
X162267830Y-80900000D01*
X162255969Y-80899043D01*
X162244342Y-80897155D01*
X162232798Y-80894313D01*
X161564559Y-80671523D01*
X161539478Y-80657224D01*
X161525857Y-80645410D01*
X161502315Y-80606476D01*
X161501972Y-80605020D01*
X161500000Y-80588052D01*
X161500000Y-79488854D01*
X161505630Y-79460543D01*
X161509946Y-79450122D01*
X161549982Y-79410078D01*
X161560383Y-79405768D01*
X161588685Y-79400131D01*
X163350478Y-79399563D01*
X163402809Y-79421220D01*
G37*
%TD.AperFunction*%
%TD*%
%TA.AperFunction,Conductor*%
%TO.N,GND*%
G36*
X179938326Y-77141674D02*
G01*
X179960000Y-77194000D01*
X179960000Y-77896000D01*
X179938326Y-77948326D01*
X179886000Y-77970000D01*
X179544605Y-77970000D01*
X179512105Y-77962481D01*
X179446520Y-77930418D01*
X179371586Y-77919500D01*
X179371582Y-77919500D01*
X178928418Y-77919500D01*
X178928413Y-77919500D01*
X178853480Y-77930418D01*
X178816499Y-77948497D01*
X178759971Y-77952005D01*
X178717518Y-77914514D01*
X178710000Y-77882015D01*
X178710000Y-77194000D01*
X178731674Y-77141674D01*
X178784000Y-77120000D01*
X179886000Y-77120000D01*
X179938326Y-77141674D01*
G37*
%TD.AperFunction*%
%TD*%
M02*
