%TF.GenerationSoftware,KiCad,Pcbnew,10.0.0*%
%TF.CreationDate,2026-04-07T14:57:54+02:00*%
%TF.ProjectId,Controller_Board,436f6e74-726f-46c6-9c65-725f426f6172,1.0*%
%TF.SameCoordinates,Original*%
%TF.FileFunction,Paste,Top*%
%TF.FilePolarity,Positive*%
%FSLAX46Y46*%
G04 Gerber Fmt 4.6, Leading zero omitted, Abs format (unit mm)*
G04 Created by KiCad (PCBNEW 10.0.0) date 2026-04-07 14:57:54*
%MOMM*%
%LPD*%
G01*
G04 APERTURE LIST*
G04 Aperture macros list*
%AMRoundRect*
0 Rectangle with rounded corners*
0 $1 Rounding radius*
0 $2 $3 $4 $5 $6 $7 $8 $9 X,Y pos of 4 corners*
0 Add a 4 corners polygon primitive as box body*
4,1,4,$2,$3,$4,$5,$6,$7,$8,$9,$2,$3,0*
0 Add four circle primitives for the rounded corners*
1,1,$1+$1,$2,$3*
1,1,$1+$1,$4,$5*
1,1,$1+$1,$6,$7*
1,1,$1+$1,$8,$9*
0 Add four rect primitives between the rounded corners*
20,1,$1+$1,$2,$3,$4,$5,0*
20,1,$1+$1,$4,$5,$6,$7,0*
20,1,$1+$1,$6,$7,$8,$9,0*
20,1,$1+$1,$8,$9,$2,$3,0*%
G04 Aperture macros list end*
%ADD10RoundRect,0.200000X0.800000X-0.200000X0.800000X0.200000X-0.800000X0.200000X-0.800000X-0.200000X0*%
%ADD11RoundRect,0.075000X-0.200000X0.075000X-0.200000X-0.075000X0.200000X-0.075000X0.200000X0.075000X0*%
%ADD12RoundRect,0.225000X0.225000X0.250000X-0.225000X0.250000X-0.225000X-0.250000X0.225000X-0.250000X0*%
%ADD13RoundRect,0.140000X0.140000X0.170000X-0.140000X0.170000X-0.140000X-0.170000X0.140000X-0.170000X0*%
%ADD14RoundRect,0.140000X0.170000X-0.140000X0.170000X0.140000X-0.170000X0.140000X-0.170000X-0.140000X0*%
%ADD15RoundRect,0.250000X-0.250000X-0.250000X0.250000X-0.250000X0.250000X0.250000X-0.250000X0.250000X0*%
%ADD16RoundRect,0.062500X-0.412500X-0.062500X0.412500X-0.062500X0.412500X0.062500X-0.412500X0.062500X0*%
%ADD17RoundRect,0.062500X-0.062500X-0.412500X0.062500X-0.412500X0.062500X0.412500X-0.062500X0.412500X0*%
%ADD18RoundRect,0.130000X-0.130000X-0.150000X0.130000X-0.150000X0.130000X0.150000X-0.130000X0.150000X0*%
%ADD19RoundRect,0.062500X-0.325000X-0.062500X0.325000X-0.062500X0.325000X0.062500X-0.325000X0.062500X0*%
%ADD20RoundRect,0.135000X-0.135000X-0.185000X0.135000X-0.185000X0.135000X0.185000X-0.135000X0.185000X0*%
%ADD21RoundRect,0.135000X0.135000X0.185000X-0.135000X0.185000X-0.135000X-0.185000X0.135000X-0.185000X0*%
%ADD22RoundRect,0.075000X-0.075000X-0.200000X0.075000X-0.200000X0.075000X0.200000X-0.075000X0.200000X0*%
%ADD23RoundRect,0.250000X-2.500000X0.465000X-2.500000X-0.465000X2.500000X-0.465000X2.500000X0.465000X0*%
%ADD24RoundRect,0.135000X0.185000X-0.135000X0.185000X0.135000X-0.185000X0.135000X-0.185000X-0.135000X0*%
%ADD25C,0.400000*%
%ADD26RoundRect,0.140000X-0.140000X-0.170000X0.140000X-0.170000X0.140000X0.170000X-0.140000X0.170000X0*%
%ADD27RoundRect,0.135000X-0.185000X0.135000X-0.185000X-0.135000X0.185000X-0.135000X0.185000X0.135000X0*%
%ADD28RoundRect,0.192500X0.252500X0.192500X-0.252500X0.192500X-0.252500X-0.192500X0.252500X-0.192500X0*%
%ADD29RoundRect,0.125000X0.200000X0.125000X-0.200000X0.125000X-0.200000X-0.125000X0.200000X-0.125000X0*%
%ADD30RoundRect,0.250000X-0.475000X0.250000X-0.475000X-0.250000X0.475000X-0.250000X0.475000X0.250000X0*%
%ADD31R,0.950000X0.450000*%
%ADD32R,4.750000X4.650000*%
%ADD33RoundRect,0.218750X0.256250X-0.218750X0.256250X0.218750X-0.256250X0.218750X-0.256250X-0.218750X0*%
%ADD34RoundRect,0.250000X-0.250000X-0.475000X0.250000X-0.475000X0.250000X0.475000X-0.250000X0.475000X0*%
%ADD35RoundRect,0.140000X-0.170000X0.140000X-0.170000X-0.140000X0.170000X-0.140000X0.170000X0.140000X0*%
%ADD36RoundRect,0.250000X-0.650000X0.325000X-0.650000X-0.325000X0.650000X-0.325000X0.650000X0.325000X0*%
%ADD37RoundRect,0.225000X0.250000X-0.225000X0.250000X0.225000X-0.250000X0.225000X-0.250000X-0.225000X0*%
%ADD38RoundRect,0.250000X-0.250000X0.325000X-0.250000X-0.325000X0.250000X-0.325000X0.250000X0.325000X0*%
%ADD39R,0.250000X0.400000*%
%ADD40R,0.700000X0.400000*%
%ADD41RoundRect,0.125000X0.125000X-0.125000X0.125000X0.125000X-0.125000X0.125000X-0.125000X-0.125000X0*%
%ADD42RoundRect,0.250000X-0.325000X-0.650000X0.325000X-0.650000X0.325000X0.650000X-0.325000X0.650000X0*%
%ADD43RoundRect,0.250000X0.325000X0.250000X-0.325000X0.250000X-0.325000X-0.250000X0.325000X-0.250000X0*%
%ADD44R,0.700000X0.250000*%
%ADD45R,0.250000X0.700000*%
%ADD46R,1.125000X1.355000*%
%ADD47R,1.125000X1.340000*%
%ADD48R,0.375000X0.375000*%
%ADD49RoundRect,0.050000X-0.318198X0.247487X0.247487X-0.318198X0.318198X-0.247487X-0.247487X0.318198X0*%
%ADD50RoundRect,0.050000X-0.282843X0.212132X0.212132X-0.282843X0.282843X-0.212132X-0.212132X0.282843X0*%
%ADD51RoundRect,0.050000X-0.282843X-0.212132X-0.212132X-0.282843X0.282843X0.212132X0.212132X0.282843X0*%
%ADD52RoundRect,0.150000X0.150000X0.425000X-0.150000X0.425000X-0.150000X-0.425000X0.150000X-0.425000X0*%
%ADD53RoundRect,0.075000X0.075000X0.500000X-0.075000X0.500000X-0.075000X-0.500000X0.075000X-0.500000X0*%
%ADD54O,1.000000X2.100000*%
%ADD55O,1.000000X1.800000*%
%ADD56R,0.200000X0.200000*%
%ADD57RoundRect,0.247500X-0.247500X-0.247500X0.247500X-0.247500X0.247500X0.247500X-0.247500X0.247500X0*%
%ADD58RoundRect,0.062500X-0.350000X-0.062500X0.350000X-0.062500X0.350000X0.062500X-0.350000X0.062500X0*%
%ADD59RoundRect,0.062500X-0.062500X-0.350000X0.062500X-0.350000X0.062500X0.350000X-0.062500X0.350000X0*%
%ADD60RoundRect,0.250000X0.475000X-0.250000X0.475000X0.250000X-0.475000X0.250000X-0.475000X-0.250000X0*%
G04 APERTURE END LIST*
D10*
%TO.C,SW401*%
X138350000Y-63400000D03*
X138350000Y-59200000D03*
%TD*%
D11*
%TO.C,U809*%
X128615000Y-92500000D03*
X128615000Y-93000000D03*
X128615000Y-93500000D03*
X128615000Y-94000000D03*
X128615000Y-94500000D03*
X129385000Y-94500000D03*
X129385000Y-94000000D03*
X129385000Y-93500000D03*
X129385000Y-93000000D03*
X129385000Y-92500000D03*
%TD*%
D12*
%TO.C,C229*%
X165925000Y-76425000D03*
X164375000Y-76425000D03*
%TD*%
D13*
%TO.C,C503*%
X151855000Y-87100000D03*
X150895000Y-87100000D03*
%TD*%
D11*
%TO.C,U815*%
X128615000Y-98100000D03*
X128615000Y-98600000D03*
X128615000Y-99100000D03*
X128615000Y-99600000D03*
X128615000Y-100100000D03*
X129385000Y-100100000D03*
X129385000Y-99600000D03*
X129385000Y-99100000D03*
X129385000Y-98600000D03*
X129385000Y-98100000D03*
%TD*%
%TO.C,U822*%
X183015000Y-120800000D03*
X183015000Y-121300000D03*
X183015000Y-121800000D03*
X183015000Y-122300000D03*
X183015000Y-122800000D03*
X183785000Y-122800000D03*
X183785000Y-122300000D03*
X183785000Y-121800000D03*
X183785000Y-121300000D03*
X183785000Y-120800000D03*
%TD*%
D14*
%TO.C,C402*%
X161400000Y-99480000D03*
X161400000Y-98520000D03*
%TD*%
D15*
%TO.C,U601*%
X133895000Y-79520000D03*
X133895000Y-80760000D03*
X133895000Y-82000000D03*
X133895000Y-83240000D03*
X133895000Y-84480000D03*
X135135000Y-79520000D03*
X135135000Y-80760000D03*
X135135000Y-82000000D03*
X135135000Y-83240000D03*
X135135000Y-84480000D03*
X136375000Y-79520000D03*
X136375000Y-80760000D03*
X136375000Y-82000000D03*
X136375000Y-83240000D03*
X136375000Y-84480000D03*
X137615000Y-79520000D03*
X137615000Y-80760000D03*
X137615000Y-82000000D03*
X137615000Y-83240000D03*
X137615000Y-84480000D03*
X138855000Y-79520000D03*
X138855000Y-80760000D03*
X138855000Y-82000000D03*
X138855000Y-83240000D03*
X138855000Y-84480000D03*
D16*
X132500000Y-79250000D03*
X132500000Y-79750000D03*
X132500000Y-80250000D03*
X132500000Y-80750000D03*
X132500000Y-81250000D03*
X132500000Y-81750000D03*
X132500000Y-82250000D03*
X132500000Y-82750000D03*
X132500000Y-83250000D03*
X132500000Y-83750000D03*
X132500000Y-84250000D03*
X132500000Y-84750000D03*
D17*
X133625000Y-85875000D03*
X134125000Y-85875000D03*
X134625000Y-85875000D03*
X135125000Y-85875000D03*
X135625000Y-85875000D03*
X136125000Y-85875000D03*
X136625000Y-85875000D03*
X137125000Y-85875000D03*
X137625000Y-85875000D03*
X138125000Y-85875000D03*
X138625000Y-85875000D03*
X139125000Y-85875000D03*
D16*
X140250000Y-84750000D03*
X140250000Y-84250000D03*
X140250000Y-83750000D03*
X140250000Y-83250000D03*
X140250000Y-82750000D03*
X140250000Y-82250000D03*
X140250000Y-81750000D03*
X140250000Y-81250000D03*
X140250000Y-80750000D03*
X140250000Y-80250000D03*
X140250000Y-79750000D03*
X140250000Y-79250000D03*
D17*
X139125000Y-78125000D03*
X138625000Y-78125000D03*
X138125000Y-78125000D03*
X137625000Y-78125000D03*
X137125000Y-78125000D03*
X136625000Y-78125000D03*
X136125000Y-78125000D03*
X135625000Y-78125000D03*
X135125000Y-78125000D03*
X134625000Y-78125000D03*
X134125000Y-78125000D03*
X133625000Y-78125000D03*
%TD*%
D18*
%TO.C,U602*%
X138250000Y-75650000D03*
X138250000Y-76350000D03*
X138900000Y-75650000D03*
X138900000Y-76350000D03*
D19*
X137112500Y-75250000D03*
X137112500Y-75750000D03*
X137112500Y-76250000D03*
X137112500Y-76750000D03*
X140037500Y-76750000D03*
X140037500Y-76250000D03*
X140037500Y-75750000D03*
X140037500Y-75250000D03*
%TD*%
D20*
%TO.C,R213*%
X156640000Y-63650000D03*
X157660000Y-63650000D03*
%TD*%
D11*
%TO.C,U825*%
X183015000Y-117600000D03*
X183015000Y-118100000D03*
X183015000Y-118600000D03*
X183015000Y-119100000D03*
X183015000Y-119600000D03*
X183785000Y-119600000D03*
X183785000Y-119100000D03*
X183785000Y-118600000D03*
X183785000Y-118100000D03*
X183785000Y-117600000D03*
%TD*%
D21*
%TO.C,R708*%
X150010000Y-70100000D03*
X148990000Y-70100000D03*
%TD*%
D22*
%TO.C,U823*%
X134100000Y-128285000D03*
X134600000Y-128285000D03*
X135100000Y-128285000D03*
X135600000Y-128285000D03*
X136100000Y-128285000D03*
X136100000Y-127515000D03*
X135600000Y-127515000D03*
X135100000Y-127515000D03*
X134600000Y-127515000D03*
X134100000Y-127515000D03*
%TD*%
D14*
%TO.C,C604*%
X131248815Y-84730000D03*
X131248815Y-83770000D03*
%TD*%
D23*
%TO.C,L201*%
X177900000Y-68480000D03*
X177900000Y-72520000D03*
%TD*%
D21*
%TO.C,R507*%
X143860000Y-80350000D03*
X142840000Y-80350000D03*
%TD*%
D22*
%TO.C,U808*%
X156800000Y-128285000D03*
X157300000Y-128285000D03*
X157800000Y-128285000D03*
X158300000Y-128285000D03*
X158800000Y-128285000D03*
X158800000Y-127515000D03*
X158300000Y-127515000D03*
X157800000Y-127515000D03*
X157300000Y-127515000D03*
X156800000Y-127515000D03*
%TD*%
%TO.C,U814*%
X173100000Y-128285000D03*
X173600000Y-128285000D03*
X174100000Y-128285000D03*
X174600000Y-128285000D03*
X175100000Y-128285000D03*
X175100000Y-127515000D03*
X174600000Y-127515000D03*
X174100000Y-127515000D03*
X173600000Y-127515000D03*
X173100000Y-127515000D03*
%TD*%
D11*
%TO.C,U818*%
X128615000Y-101300000D03*
X128615000Y-101800000D03*
X128615000Y-102300000D03*
X128615000Y-102800000D03*
X128615000Y-103300000D03*
X129385000Y-103300000D03*
X129385000Y-102800000D03*
X129385000Y-102300000D03*
X129385000Y-101800000D03*
X129385000Y-101300000D03*
%TD*%
D24*
%TO.C,R409*%
X151050000Y-103060000D03*
X151050000Y-102040000D03*
%TD*%
D25*
%TO.C,U301*%
X149400000Y-106400000D03*
X150200000Y-106400000D03*
X151000000Y-106400000D03*
X151800000Y-106400000D03*
X152600000Y-106400000D03*
X153400000Y-106400000D03*
X154200000Y-106400000D03*
X155000000Y-106400000D03*
X155800000Y-106400000D03*
X156600000Y-106400000D03*
X157400000Y-106400000D03*
X158200000Y-106400000D03*
X159000000Y-106400000D03*
X159800000Y-106400000D03*
X160600000Y-106400000D03*
X161400000Y-106400000D03*
X162200000Y-106400000D03*
X163000000Y-106400000D03*
X149400000Y-107200000D03*
X150200000Y-107200000D03*
X151000000Y-107200000D03*
X151800000Y-107200000D03*
X152600000Y-107200000D03*
X153400000Y-107200000D03*
X154200000Y-107200000D03*
X155000000Y-107200000D03*
X155800000Y-107200000D03*
X156600000Y-107200000D03*
X157400000Y-107200000D03*
X158200000Y-107200000D03*
X159000000Y-107200000D03*
X159800000Y-107200000D03*
X160600000Y-107200000D03*
X161400000Y-107200000D03*
X162200000Y-107200000D03*
X163000000Y-107200000D03*
X149400000Y-108000000D03*
X150200000Y-108000000D03*
X151000000Y-108000000D03*
X151800000Y-108000000D03*
X152600000Y-108000000D03*
X153400000Y-108000000D03*
X154200000Y-108000000D03*
X155000000Y-108000000D03*
X155800000Y-108000000D03*
X156600000Y-108000000D03*
X157400000Y-108000000D03*
X158200000Y-108000000D03*
X159000000Y-108000000D03*
X159800000Y-108000000D03*
X160600000Y-108000000D03*
X161400000Y-108000000D03*
X162200000Y-108000000D03*
X163000000Y-108000000D03*
X149400000Y-108800000D03*
X150200000Y-108800000D03*
X151000000Y-108800000D03*
X151800000Y-108800000D03*
X152600000Y-108800000D03*
X153400000Y-108800000D03*
X154200000Y-108800000D03*
X155000000Y-108800000D03*
X155800000Y-108800000D03*
X156600000Y-108800000D03*
X157400000Y-108800000D03*
X158200000Y-108800000D03*
X159000000Y-108800000D03*
X159800000Y-108800000D03*
X160600000Y-108800000D03*
X161400000Y-108800000D03*
X162200000Y-108800000D03*
X163000000Y-108800000D03*
X149400000Y-109600000D03*
X150200000Y-109600000D03*
X151000000Y-109600000D03*
X151800000Y-109600000D03*
X152600000Y-109600000D03*
X153400000Y-109600000D03*
X154200000Y-109600000D03*
X155000000Y-109600000D03*
X155800000Y-109600000D03*
X156600000Y-109600000D03*
X157400000Y-109600000D03*
X158200000Y-109600000D03*
X159000000Y-109600000D03*
X159800000Y-109600000D03*
X160600000Y-109600000D03*
X161400000Y-109600000D03*
X162200000Y-109600000D03*
X163000000Y-109600000D03*
X149400000Y-110400000D03*
X150200000Y-110400000D03*
X151000000Y-110400000D03*
X151800000Y-110400000D03*
X152600000Y-110400000D03*
X153400000Y-110400000D03*
X154200000Y-110400000D03*
X155000000Y-110400000D03*
X155800000Y-110400000D03*
X156600000Y-110400000D03*
X157400000Y-110400000D03*
X158200000Y-110400000D03*
X159000000Y-110400000D03*
X159800000Y-110400000D03*
X160600000Y-110400000D03*
X161400000Y-110400000D03*
X162200000Y-110400000D03*
X163000000Y-110400000D03*
X149400000Y-111200000D03*
X150200000Y-111200000D03*
X151000000Y-111200000D03*
X151800000Y-111200000D03*
X152600000Y-111200000D03*
X153400000Y-111200000D03*
X154200000Y-111200000D03*
X155000000Y-111200000D03*
X155800000Y-111200000D03*
X156600000Y-111200000D03*
X157400000Y-111200000D03*
X158200000Y-111200000D03*
X159000000Y-111200000D03*
X159800000Y-111200000D03*
X160600000Y-111200000D03*
X161400000Y-111200000D03*
X162200000Y-111200000D03*
X163000000Y-111200000D03*
X149400000Y-112000000D03*
X150200000Y-112000000D03*
X151000000Y-112000000D03*
X151800000Y-112000000D03*
X152600000Y-112000000D03*
X153400000Y-112000000D03*
X154200000Y-112000000D03*
X155000000Y-112000000D03*
X155800000Y-112000000D03*
X156600000Y-112000000D03*
X157400000Y-112000000D03*
X158200000Y-112000000D03*
X159000000Y-112000000D03*
X159800000Y-112000000D03*
X160600000Y-112000000D03*
X161400000Y-112000000D03*
X162200000Y-112000000D03*
X163000000Y-112000000D03*
X149400000Y-112800000D03*
X150200000Y-112800000D03*
X151000000Y-112800000D03*
X151800000Y-112800000D03*
X152600000Y-112800000D03*
X153400000Y-112800000D03*
X154200000Y-112800000D03*
X155000000Y-112800000D03*
X155800000Y-112800000D03*
X156600000Y-112800000D03*
X157400000Y-112800000D03*
X158200000Y-112800000D03*
X159000000Y-112800000D03*
X159800000Y-112800000D03*
X160600000Y-112800000D03*
X161400000Y-112800000D03*
X162200000Y-112800000D03*
X163000000Y-112800000D03*
X149400000Y-113600000D03*
X150200000Y-113600000D03*
X151000000Y-113600000D03*
X151800000Y-113600000D03*
X152600000Y-113600000D03*
X153400000Y-113600000D03*
X154200000Y-113600000D03*
X155000000Y-113600000D03*
X155800000Y-113600000D03*
X156600000Y-113600000D03*
X157400000Y-113600000D03*
X158200000Y-113600000D03*
X159000000Y-113600000D03*
X159800000Y-113600000D03*
X160600000Y-113600000D03*
X161400000Y-113600000D03*
X162200000Y-113600000D03*
X163000000Y-113600000D03*
X149400000Y-114400000D03*
X150200000Y-114400000D03*
X151000000Y-114400000D03*
X151800000Y-114400000D03*
X152600000Y-114400000D03*
X153400000Y-114400000D03*
X154200000Y-114400000D03*
X155000000Y-114400000D03*
X155800000Y-114400000D03*
X156600000Y-114400000D03*
X157400000Y-114400000D03*
X158200000Y-114400000D03*
X159000000Y-114400000D03*
X159800000Y-114400000D03*
X160600000Y-114400000D03*
X161400000Y-114400000D03*
X162200000Y-114400000D03*
X163000000Y-114400000D03*
X149400000Y-115200000D03*
X150200000Y-115200000D03*
X151000000Y-115200000D03*
X151800000Y-115200000D03*
X152600000Y-115200000D03*
X153400000Y-115200000D03*
X154200000Y-115200000D03*
X155000000Y-115200000D03*
X155800000Y-115200000D03*
X156600000Y-115200000D03*
X157400000Y-115200000D03*
X158200000Y-115200000D03*
X159000000Y-115200000D03*
X159800000Y-115200000D03*
X160600000Y-115200000D03*
X161400000Y-115200000D03*
X162200000Y-115200000D03*
X163000000Y-115200000D03*
X149400000Y-116000000D03*
X150200000Y-116000000D03*
X151000000Y-116000000D03*
X151800000Y-116000000D03*
X152600000Y-116000000D03*
X153400000Y-116000000D03*
X154200000Y-116000000D03*
X155000000Y-116000000D03*
X155800000Y-116000000D03*
X156600000Y-116000000D03*
X157400000Y-116000000D03*
X158200000Y-116000000D03*
X159000000Y-116000000D03*
X159800000Y-116000000D03*
X160600000Y-116000000D03*
X161400000Y-116000000D03*
X162200000Y-116000000D03*
X163000000Y-116000000D03*
X149400000Y-116800000D03*
X150200000Y-116800000D03*
X151000000Y-116800000D03*
X151800000Y-116800000D03*
X152600000Y-116800000D03*
X153400000Y-116800000D03*
X154200000Y-116800000D03*
X155000000Y-116800000D03*
X155800000Y-116800000D03*
X156600000Y-116800000D03*
X157400000Y-116800000D03*
X158200000Y-116800000D03*
X159000000Y-116800000D03*
X159800000Y-116800000D03*
X160600000Y-116800000D03*
X161400000Y-116800000D03*
X162200000Y-116800000D03*
X163000000Y-116800000D03*
X149400000Y-117600000D03*
X150200000Y-117600000D03*
X151000000Y-117600000D03*
X151800000Y-117600000D03*
X152600000Y-117600000D03*
X153400000Y-117600000D03*
X154200000Y-117600000D03*
X155000000Y-117600000D03*
X155800000Y-117600000D03*
X156600000Y-117600000D03*
X157400000Y-117600000D03*
X158200000Y-117600000D03*
X159000000Y-117600000D03*
X159800000Y-117600000D03*
X160600000Y-117600000D03*
X161400000Y-117600000D03*
X162200000Y-117600000D03*
X163000000Y-117600000D03*
X149400000Y-118400000D03*
X150200000Y-118400000D03*
X151000000Y-118400000D03*
X151800000Y-118400000D03*
X152600000Y-118400000D03*
X153400000Y-118400000D03*
X154200000Y-118400000D03*
X155000000Y-118400000D03*
X155800000Y-118400000D03*
X156600000Y-118400000D03*
X157400000Y-118400000D03*
X158200000Y-118400000D03*
X159000000Y-118400000D03*
X159800000Y-118400000D03*
X160600000Y-118400000D03*
X161400000Y-118400000D03*
X162200000Y-118400000D03*
X163000000Y-118400000D03*
X149400000Y-119200000D03*
X150200000Y-119200000D03*
X151000000Y-119200000D03*
X151800000Y-119200000D03*
X152600000Y-119200000D03*
X153400000Y-119200000D03*
X154200000Y-119200000D03*
X155000000Y-119200000D03*
X155800000Y-119200000D03*
X156600000Y-119200000D03*
X157400000Y-119200000D03*
X158200000Y-119200000D03*
X159000000Y-119200000D03*
X159800000Y-119200000D03*
X160600000Y-119200000D03*
X161400000Y-119200000D03*
X162200000Y-119200000D03*
X163000000Y-119200000D03*
X149400000Y-120000000D03*
X150200000Y-120000000D03*
X151000000Y-120000000D03*
X151800000Y-120000000D03*
X152600000Y-120000000D03*
X153400000Y-120000000D03*
X154200000Y-120000000D03*
X155000000Y-120000000D03*
X155800000Y-120000000D03*
X156600000Y-120000000D03*
X157400000Y-120000000D03*
X158200000Y-120000000D03*
X159000000Y-120000000D03*
X159800000Y-120000000D03*
X160600000Y-120000000D03*
X161400000Y-120000000D03*
X162200000Y-120000000D03*
X163000000Y-120000000D03*
%TD*%
D13*
%TO.C,C515*%
X143830000Y-79350000D03*
X142870000Y-79350000D03*
%TD*%
D26*
%TO.C,C708*%
X149020000Y-69150000D03*
X149980000Y-69150000D03*
%TD*%
D21*
%TO.C,R704*%
X150010000Y-68200000D03*
X148990000Y-68200000D03*
%TD*%
D27*
%TO.C,R209*%
X180950000Y-60340000D03*
X180950000Y-61360000D03*
%TD*%
D28*
%TO.C,U205*%
X165150000Y-79375000D03*
X165150000Y-78425000D03*
D29*
X166250000Y-79875000D03*
X166250000Y-79225000D03*
X166250000Y-78575000D03*
X166250000Y-77925000D03*
X164050000Y-77925000D03*
X164050000Y-78575000D03*
X164050000Y-79225000D03*
X164050000Y-79875000D03*
%TD*%
D22*
%TO.C,U817*%
X176300000Y-128285000D03*
X176800000Y-128285000D03*
X177300000Y-128285000D03*
X177800000Y-128285000D03*
X178300000Y-128285000D03*
X178300000Y-127515000D03*
X177800000Y-127515000D03*
X177300000Y-127515000D03*
X176800000Y-127515000D03*
X176300000Y-127515000D03*
%TD*%
D24*
%TO.C,R410*%
X151050000Y-100510000D03*
X151050000Y-99490000D03*
%TD*%
D30*
%TO.C,C222*%
X181400000Y-63200000D03*
X181400000Y-65100000D03*
%TD*%
D18*
%TO.C,U503*%
X151000000Y-75650000D03*
X151000000Y-76350000D03*
X151650000Y-75650000D03*
X151650000Y-76350000D03*
D19*
X149862500Y-75250000D03*
X149862500Y-75750000D03*
X149862500Y-76250000D03*
X149862500Y-76750000D03*
X152787500Y-76750000D03*
X152787500Y-76250000D03*
X152787500Y-75750000D03*
X152787500Y-75250000D03*
%TD*%
D31*
%TO.C,U401*%
X152300000Y-99495000D03*
X152300000Y-100765000D03*
X152300000Y-102035000D03*
X152300000Y-103305000D03*
X160100000Y-103305000D03*
X160100000Y-102035000D03*
X160100000Y-100765000D03*
X160100000Y-99495000D03*
D32*
X156200000Y-101400000D03*
%TD*%
D33*
%TO.C,D401*%
X134100000Y-63832500D03*
X134100000Y-62257500D03*
%TD*%
D34*
%TO.C,C601*%
X137700000Y-73770000D03*
X139600000Y-73770000D03*
%TD*%
D28*
%TO.C,U204*%
X170150000Y-79375000D03*
X170150000Y-78425000D03*
D29*
X171250000Y-79875000D03*
X171250000Y-79225000D03*
X171250000Y-78575000D03*
X171250000Y-77925000D03*
X169050000Y-77925000D03*
X169050000Y-78575000D03*
X169050000Y-79225000D03*
X169050000Y-79875000D03*
%TD*%
D35*
%TO.C,C403*%
X165900000Y-102120000D03*
X165900000Y-103080000D03*
%TD*%
D36*
%TO.C,C227*%
X170150000Y-81675000D03*
X170150000Y-84625000D03*
%TD*%
D24*
%TO.C,R411*%
X161400000Y-104160000D03*
X161400000Y-103140000D03*
%TD*%
D37*
%TO.C,C226*%
X167675000Y-79675000D03*
X167675000Y-78125000D03*
%TD*%
D35*
%TO.C,C513*%
X153950000Y-75720000D03*
X153950000Y-76680000D03*
%TD*%
D27*
%TO.C,R602*%
X128758908Y-79910000D03*
X128758908Y-80930000D03*
%TD*%
%TO.C,R408*%
X161400000Y-100390000D03*
X161400000Y-101410000D03*
%TD*%
D11*
%TO.C,U813*%
X183015000Y-101300000D03*
X183015000Y-101800000D03*
X183015000Y-102300000D03*
X183015000Y-102800000D03*
X183015000Y-103300000D03*
X183785000Y-103300000D03*
X183785000Y-102800000D03*
X183785000Y-102300000D03*
X183785000Y-101800000D03*
X183785000Y-101300000D03*
%TD*%
%TO.C,U824*%
X183015000Y-89300000D03*
X183015000Y-89800000D03*
X183015000Y-90300000D03*
X183015000Y-90800000D03*
X183015000Y-91300000D03*
X183785000Y-91300000D03*
X183785000Y-90800000D03*
X183785000Y-90300000D03*
X183785000Y-89800000D03*
X183785000Y-89300000D03*
%TD*%
D38*
%TO.C,Y601*%
X129900000Y-76225000D03*
X129900000Y-77975000D03*
X131300000Y-77975000D03*
X131300000Y-76225000D03*
%TD*%
D26*
%TO.C,C510*%
X154210000Y-80270000D03*
X155170000Y-80270000D03*
%TD*%
D37*
%TO.C,C214*%
X177650000Y-79675000D03*
X177650000Y-78125000D03*
%TD*%
D28*
%TO.C,U201*%
X175150000Y-79375000D03*
X175150000Y-78425000D03*
D29*
X176250000Y-79875000D03*
X176250000Y-79225000D03*
X176250000Y-78575000D03*
X176250000Y-77925000D03*
X174050000Y-77925000D03*
X174050000Y-78575000D03*
X174050000Y-79225000D03*
X174050000Y-79875000D03*
%TD*%
D35*
%TO.C,C514*%
X141200000Y-76620000D03*
X141200000Y-77580000D03*
%TD*%
D30*
%TO.C,C701*%
X151650000Y-68700000D03*
X151650000Y-70600000D03*
%TD*%
D21*
%TO.C,R402*%
X134600000Y-65235000D03*
X133580000Y-65235000D03*
%TD*%
D20*
%TO.C,R706*%
X151090000Y-71950000D03*
X152110000Y-71950000D03*
%TD*%
D34*
%TO.C,C501*%
X150450000Y-73770000D03*
X152350000Y-73770000D03*
%TD*%
D27*
%TO.C,R502*%
X141540000Y-79910000D03*
X141540000Y-80930000D03*
%TD*%
D11*
%TO.C,U804*%
X128615000Y-117600000D03*
X128615000Y-118100000D03*
X128615000Y-118600000D03*
X128615000Y-119100000D03*
X128615000Y-119600000D03*
X129385000Y-119600000D03*
X129385000Y-119100000D03*
X129385000Y-118600000D03*
X129385000Y-118100000D03*
X129385000Y-117600000D03*
%TD*%
D39*
%TO.C,Q201*%
X155525000Y-61200000D03*
X155075000Y-61200000D03*
D40*
X155300000Y-61900000D03*
%TD*%
D36*
%TO.C,C220*%
X183650000Y-63175000D03*
X183650000Y-66125000D03*
%TD*%
%TO.C,C215*%
X180150000Y-81675000D03*
X180150000Y-84625000D03*
%TD*%
D41*
%TO.C,D701*%
X153400000Y-66900000D03*
X153400000Y-64700000D03*
%TD*%
D22*
%TO.C,U805*%
X153600000Y-128285000D03*
X154100000Y-128285000D03*
X154600000Y-128285000D03*
X155100000Y-128285000D03*
X155600000Y-128285000D03*
X155600000Y-127515000D03*
X155100000Y-127515000D03*
X154600000Y-127515000D03*
X154100000Y-127515000D03*
X153600000Y-127515000D03*
%TD*%
D37*
%TO.C,C230*%
X162650000Y-79700000D03*
X162650000Y-78150000D03*
%TD*%
D11*
%TO.C,U806*%
X128615000Y-89300000D03*
X128615000Y-89800000D03*
X128615000Y-90300000D03*
X128615000Y-90800000D03*
X128615000Y-91300000D03*
X129385000Y-91300000D03*
X129385000Y-90800000D03*
X129385000Y-90300000D03*
X129385000Y-89800000D03*
X129385000Y-89300000D03*
%TD*%
D24*
%TO.C,R504*%
X149150000Y-74280000D03*
X149150000Y-73260000D03*
%TD*%
D11*
%TO.C,U816*%
X183015000Y-98100000D03*
X183015000Y-98600000D03*
X183015000Y-99100000D03*
X183015000Y-99600000D03*
X183015000Y-100100000D03*
X183785000Y-100100000D03*
X183785000Y-99600000D03*
X183785000Y-99100000D03*
X183785000Y-98600000D03*
X183785000Y-98100000D03*
%TD*%
D12*
%TO.C,C213*%
X180925000Y-76400000D03*
X179375000Y-76400000D03*
%TD*%
D30*
%TO.C,C221*%
X174400000Y-63200000D03*
X174400000Y-65100000D03*
%TD*%
D35*
%TO.C,C613*%
X141200000Y-74770000D03*
X141200000Y-75730000D03*
%TD*%
D13*
%TO.C,C605*%
X134530000Y-76900000D03*
X133570000Y-76900000D03*
%TD*%
D11*
%TO.C,U827*%
X183015000Y-92500000D03*
X183015000Y-93000000D03*
X183015000Y-93500000D03*
X183015000Y-94000000D03*
X183015000Y-94500000D03*
X183785000Y-94500000D03*
X183785000Y-94000000D03*
X183785000Y-93500000D03*
X183785000Y-93000000D03*
X183785000Y-92500000D03*
%TD*%
D28*
%TO.C,U202*%
X180150000Y-79375000D03*
X180150000Y-78425000D03*
D29*
X181250000Y-79875000D03*
X181250000Y-79225000D03*
X181250000Y-78575000D03*
X181250000Y-77925000D03*
X179050000Y-77925000D03*
X179050000Y-78575000D03*
X179050000Y-79225000D03*
X179050000Y-79875000D03*
%TD*%
D42*
%TO.C,C206*%
X186425000Y-70150000D03*
X189375000Y-70150000D03*
%TD*%
D20*
%TO.C,R701*%
X152890000Y-63600000D03*
X153910000Y-63600000D03*
%TD*%
D43*
%TO.C,Y401*%
X164525000Y-102500000D03*
X162775000Y-102500000D03*
X162775000Y-103900000D03*
X164525000Y-103900000D03*
%TD*%
D26*
%TO.C,C707*%
X145460000Y-75420000D03*
X146420000Y-75420000D03*
%TD*%
D24*
%TO.C,R604*%
X136400000Y-74280000D03*
X136400000Y-73260000D03*
%TD*%
D21*
%TO.C,R607*%
X131110000Y-80375000D03*
X130090000Y-80375000D03*
%TD*%
D44*
%TO.C,U203*%
X176013000Y-61187000D03*
X176013000Y-61687000D03*
X176013000Y-62187000D03*
X176013000Y-62687000D03*
X176013000Y-63187000D03*
X176013000Y-63687000D03*
X176013000Y-64187000D03*
X176013000Y-64687000D03*
X176013000Y-65187000D03*
X176013000Y-65687000D03*
D45*
X176663000Y-66337000D03*
X177163000Y-66337000D03*
X177663000Y-66337000D03*
X178163000Y-66337000D03*
X178663000Y-66337000D03*
X179163000Y-66337000D03*
D44*
X179813000Y-65687000D03*
X179813000Y-65187000D03*
X179813000Y-64687000D03*
X179813000Y-64187000D03*
X179813000Y-63687000D03*
X179813000Y-63187000D03*
X179813000Y-62687000D03*
X179813000Y-62187000D03*
X179813000Y-61687000D03*
X179813000Y-61187000D03*
D45*
X179163000Y-60537000D03*
X178663000Y-60537000D03*
X178163000Y-60537000D03*
X177663000Y-60537000D03*
X177163000Y-60537000D03*
X176663000Y-60537000D03*
D46*
X177250000Y-61889000D03*
X178575000Y-61889000D03*
D47*
X177250000Y-63437000D03*
X178575000Y-63437000D03*
D46*
X177250000Y-64985000D03*
X178575000Y-64985000D03*
D48*
X176100000Y-60624000D03*
X176100000Y-66250000D03*
X179726000Y-66250000D03*
X179726000Y-60624000D03*
%TD*%
D11*
%TO.C,U807*%
X128615000Y-120800000D03*
X128615000Y-121300000D03*
X128615000Y-121800000D03*
X128615000Y-122300000D03*
X128615000Y-122800000D03*
X129385000Y-122800000D03*
X129385000Y-122300000D03*
X129385000Y-121800000D03*
X129385000Y-121300000D03*
X129385000Y-120800000D03*
%TD*%
D49*
%TO.C,U501*%
X148308579Y-87810051D03*
D50*
X147990381Y-88057538D03*
X147707538Y-88340381D03*
X147424695Y-88623223D03*
D51*
X147141852Y-89259619D03*
X147424695Y-89542462D03*
X147707538Y-89825305D03*
X147990381Y-90108148D03*
D50*
X148626777Y-89825305D03*
X148909619Y-89542462D03*
X149192462Y-89259619D03*
X149475305Y-88976777D03*
D51*
X149758148Y-88340381D03*
X149475305Y-88057538D03*
X149192462Y-87774695D03*
X148909619Y-87491852D03*
%TD*%
D13*
%TO.C,C615*%
X131080000Y-79375000D03*
X130120000Y-79375000D03*
%TD*%
D20*
%TO.C,R401*%
X133590000Y-66295000D03*
X134610000Y-66295000D03*
%TD*%
D35*
%TO.C,C614*%
X128610000Y-76620000D03*
X128610000Y-77580000D03*
%TD*%
D33*
%TO.C,D201*%
X157150000Y-62187500D03*
X157150000Y-60612500D03*
%TD*%
D26*
%TO.C,C706*%
X149020000Y-72000000D03*
X149980000Y-72000000D03*
%TD*%
D22*
%TO.C,U826*%
X137300000Y-128285000D03*
X137800000Y-128285000D03*
X138300000Y-128285000D03*
X138800000Y-128285000D03*
X139300000Y-128285000D03*
X139300000Y-127515000D03*
X138800000Y-127515000D03*
X138300000Y-127515000D03*
X137800000Y-127515000D03*
X137300000Y-127515000D03*
%TD*%
D12*
%TO.C,C201*%
X175925000Y-76400000D03*
X174375000Y-76400000D03*
%TD*%
D15*
%TO.C,U502*%
X146645000Y-79520000D03*
X146645000Y-80760000D03*
X146645000Y-82000000D03*
X146645000Y-83240000D03*
X146645000Y-84480000D03*
X147885000Y-79520000D03*
X147885000Y-80760000D03*
X147885000Y-82000000D03*
X147885000Y-83240000D03*
X147885000Y-84480000D03*
X149125000Y-79520000D03*
X149125000Y-80760000D03*
X149125000Y-82000000D03*
X149125000Y-83240000D03*
X149125000Y-84480000D03*
X150365000Y-79520000D03*
X150365000Y-80760000D03*
X150365000Y-82000000D03*
X150365000Y-83240000D03*
X150365000Y-84480000D03*
X151605000Y-79520000D03*
X151605000Y-80760000D03*
X151605000Y-82000000D03*
X151605000Y-83240000D03*
X151605000Y-84480000D03*
D16*
X145250000Y-79250000D03*
X145250000Y-79750000D03*
X145250000Y-80250000D03*
X145250000Y-80750000D03*
X145250000Y-81250000D03*
X145250000Y-81750000D03*
X145250000Y-82250000D03*
X145250000Y-82750000D03*
X145250000Y-83250000D03*
X145250000Y-83750000D03*
X145250000Y-84250000D03*
X145250000Y-84750000D03*
D17*
X146375000Y-85875000D03*
X146875000Y-85875000D03*
X147375000Y-85875000D03*
X147875000Y-85875000D03*
X148375000Y-85875000D03*
X148875000Y-85875000D03*
X149375000Y-85875000D03*
X149875000Y-85875000D03*
X150375000Y-85875000D03*
X150875000Y-85875000D03*
X151375000Y-85875000D03*
X151875000Y-85875000D03*
D16*
X153000000Y-84750000D03*
X153000000Y-84250000D03*
X153000000Y-83750000D03*
X153000000Y-83250000D03*
X153000000Y-82750000D03*
X153000000Y-82250000D03*
X153000000Y-81750000D03*
X153000000Y-81250000D03*
X153000000Y-80750000D03*
X153000000Y-80250000D03*
X153000000Y-79750000D03*
X153000000Y-79250000D03*
D17*
X151875000Y-78125000D03*
X151375000Y-78125000D03*
X150875000Y-78125000D03*
X150375000Y-78125000D03*
X149875000Y-78125000D03*
X149375000Y-78125000D03*
X148875000Y-78125000D03*
X148375000Y-78125000D03*
X147875000Y-78125000D03*
X147375000Y-78125000D03*
X146875000Y-78125000D03*
X146375000Y-78125000D03*
%TD*%
D52*
%TO.C,J701*%
X149400000Y-65380000D03*
X148600000Y-65380000D03*
D53*
X147450000Y-65380000D03*
X146450000Y-65380000D03*
X145950000Y-65380000D03*
X144950000Y-65380000D03*
D52*
X143800000Y-65380000D03*
X143000000Y-65380000D03*
X143000000Y-65380000D03*
X143800000Y-65380000D03*
D53*
X144450000Y-65380000D03*
X145450000Y-65380000D03*
X146950000Y-65380000D03*
X147950000Y-65380000D03*
D52*
X148600000Y-65380000D03*
X149400000Y-65380000D03*
D54*
X150520000Y-64805000D03*
D55*
X150520000Y-60625000D03*
D54*
X141880000Y-64805000D03*
D55*
X141880000Y-60625000D03*
%TD*%
D12*
%TO.C,C225*%
X170925000Y-76400000D03*
X169375000Y-76400000D03*
%TD*%
D36*
%TO.C,C232*%
X165150000Y-81675000D03*
X165150000Y-84625000D03*
%TD*%
%TO.C,C204*%
X175150000Y-81675000D03*
X175150000Y-84625000D03*
%TD*%
D21*
%TO.C,R707*%
X150010000Y-71050000D03*
X148990000Y-71050000D03*
%TD*%
D33*
%TO.C,D704*%
X153400000Y-62187500D03*
X153400000Y-60612500D03*
%TD*%
D21*
%TO.C,R501*%
X155200000Y-79320000D03*
X154180000Y-79320000D03*
%TD*%
D37*
%TO.C,C202*%
X172650000Y-79675000D03*
X172650000Y-78125000D03*
%TD*%
D56*
%TO.C,U701*%
X145700000Y-67050000D03*
X146040000Y-66750000D03*
X145360000Y-66750000D03*
%TD*%
D57*
%TO.C,U702*%
X143720000Y-70100000D03*
X143720000Y-71330000D03*
X143720000Y-72560000D03*
X144950000Y-70100000D03*
X144950000Y-71330000D03*
X144950000Y-72560000D03*
X146180000Y-70100000D03*
X146180000Y-71330000D03*
X146180000Y-72560000D03*
D58*
X142012500Y-69330000D03*
X142012500Y-69830000D03*
X142012500Y-70330000D03*
X142012500Y-70830000D03*
X142012500Y-71330000D03*
X142012500Y-71830000D03*
X142012500Y-72330000D03*
X142012500Y-72830000D03*
X142012500Y-73330000D03*
D59*
X142950000Y-74267500D03*
X143450000Y-74267500D03*
X143950000Y-74267500D03*
X144450000Y-74267500D03*
X144950000Y-74267500D03*
X145450000Y-74267500D03*
X145950000Y-74267500D03*
X146450000Y-74267500D03*
X146950000Y-74267500D03*
D58*
X147887500Y-73330000D03*
X147887500Y-72830000D03*
X147887500Y-72330000D03*
X147887500Y-71830000D03*
X147887500Y-71330000D03*
X147887500Y-70830000D03*
X147887500Y-70330000D03*
X147887500Y-69830000D03*
X147887500Y-69330000D03*
D59*
X146950000Y-68392500D03*
X146450000Y-68392500D03*
X145950000Y-68392500D03*
X145450000Y-68392500D03*
X144950000Y-68392500D03*
X144450000Y-68392500D03*
X143950000Y-68392500D03*
X143450000Y-68392500D03*
X142950000Y-68392500D03*
%TD*%
D38*
%TO.C,Y501*%
X142650000Y-76225000D03*
X142650000Y-77975000D03*
X144050000Y-77975000D03*
X144050000Y-76225000D03*
%TD*%
D60*
%TO.C,C217*%
X182650000Y-70650000D03*
X182650000Y-68750000D03*
%TD*%
M02*
