M48
; DRILL file KiCad 10.0.0 date 2026-04-07T14:57:59
; FORMAT={-:-/ absolute / metric / decimal}
; #@! TF.CreationDate,2026-04-07T14:57:59+02:00
; #@! TF.GenerationSoftware,Kicad,Pcbnew,10.0.0
; #@! TF.FileFunction,NonPlated,1,6,NPTH
FMAT,2
METRIC
; #@! TA.AperFunction,NonPlated,NPTH,ComponentDrill
T1C0.650
; #@! TA.AperFunction,NonPlated,NPTH,ComponentDrill
T2C3.330
%
G90
G05
T1
X143.31Y-64.305
X149.09Y-64.305
T2
X116.5Y-74.85
X116.5Y-87.55
X116.5Y-94.35
X116.5Y-107.05
X116.5Y-113.85
X116.5Y-126.55
X130.35Y-140.4
X143.05Y-140.4
X149.85Y-140.4
X162.55Y-140.4
X169.35Y-140.4
X182.05Y-140.4
X195.9Y-74.85
X195.9Y-87.55
X195.9Y-94.35
X195.9Y-107.05
X195.9Y-113.85
X195.9Y-126.55
M30
