M48
; DRILL file KiCad 10.0.0 date 2026-04-07T14:57:59
; FORMAT={-:-/ absolute / metric / decimal}
; #@! TF.CreationDate,2026-04-07T14:57:59+02:00
; #@! TF.GenerationSoftware,Kicad,Pcbnew,10.0.0
; #@! TF.FileFunction,Plated,1,6,PTH
FMAT,2
METRIC
; #@! TA.AperFunction,Plated,PTH,ViaDrill
T1C0.150
; #@! TA.AperFunction,Plated,PTH,ComponentDrill
T2C0.500
; #@! TA.AperFunction,Plated,PTH,ComponentDrill
T3C0.600
; #@! TA.AperFunction,Plated,PTH,ComponentDrill
T4C0.970
; #@! TA.AperFunction,Plated,PTH,ComponentDrill
T5C1.000
; #@! TA.AperFunction,Plated,PTH,ComponentDrill
T6C1.650
; #@! TA.AperFunction,Plated,PTH,ComponentDrill
T7C1.900
; #@! TA.AperFunction,Plated,PTH,ComponentDrill
T8C3.200
%
G90
G05
T1
X115.65Y-132.25
X116.4Y-79.725
X116.4Y-82.675
X116.4Y-99.225
X116.4Y-102.175
X116.4Y-118.725
X116.4Y-121.675
X117.397Y-84.383
X117.397Y-103.883
X117.397Y-123.383
X125.0Y-132.6
X126.459Y-80.622
X126.459Y-83.492
X127.65Y-62.7
X127.659Y-79.782
X127.659Y-84.332
X128.05Y-109.7
X128.65Y-68.925
X128.65Y-71.875
X128.759Y-79.91
X129.0Y-99.1
X129.0Y-102.3
X129.0Y-118.6
X129.0Y-121.8
X129.015Y-90.3
X129.015Y-93.5
X129.86Y-83.27
X129.86Y-83.87
X129.9Y-77.975
X130.12Y-79.375
X130.25Y-104.85
X130.65Y-96.55
X130.7Y-116.75
X131.05Y-68.45
X131.255Y-83.764
X131.255Y-84.724
X131.3Y-76.225
X131.41Y-81.375
X131.41Y-81.775
X131.41Y-82.225
X131.41Y-82.625
X132.0Y-61.9
X132.35Y-126.75
X132.5Y-80.25
X132.5Y-80.75
X132.5Y-82.75
X132.5Y-83.25
X132.5Y-84.25
X133.57Y-76.9
X133.59Y-66.295
X134.1Y-63.832
X134.125Y-78.125
X134.53Y-76.9
X135.1Y-127.9
X135.225Y-140.5
X135.25Y-121.5
X135.85Y-63.3
X135.85Y-93.0
X135.855Y-64.15
X135.855Y-65.55
X136.375Y-82.0
X136.4Y-73.26
X136.625Y-78.125
X137.112Y-75.75
X137.112Y-76.25
X137.112Y-76.75
X137.125Y-78.125
X137.605Y-64.15
X137.625Y-78.125
X137.7Y-73.65
X138.125Y-85.875
X138.175Y-140.5
X138.3Y-127.9
X138.35Y-59.2
X138.35Y-62.65
X138.4Y-79.98
X138.625Y-78.125
X138.625Y-85.875
X138.65Y-73.65
X139.125Y-78.125
X139.125Y-85.875
X139.2Y-81.2
X139.35Y-61.81
X139.35Y-79.98
X139.46Y-74.77
X139.582Y-70.804
X139.618Y-69.212
X139.864Y-71.087
X139.883Y-139.503
X139.901Y-68.929
X139.91Y-65.0
X139.94Y-64.05
X140.0Y-86.8
X140.037Y-76.25
X140.037Y-76.75
X140.183Y-71.406
X140.219Y-68.611
X140.25Y-79.25
X140.25Y-79.75
X140.25Y-80.25
X140.476Y-71.677
X140.5Y-64.05
X140.502Y-68.328
X140.925Y-108.15
X141.85Y-78.99
X141.92Y-68.15
X142.6Y-71.33
X142.65Y-77.975
X142.88Y-68.15
X142.95Y-74.267
X143.0Y-65.38
X143.0Y-102.4
X143.01Y-70.1
X143.4Y-102.4
X143.45Y-68.392
X143.45Y-74.267
X143.8Y-65.38
X143.8Y-101.65
X143.8Y-115.25
X143.875Y-108.15
X143.93Y-71.33
X143.965Y-69.14
X144.05Y-76.225
X144.16Y-81.375
X144.16Y-81.775
X144.16Y-82.225
X144.16Y-82.625
X144.2Y-101.65
X144.45Y-62.39
X144.45Y-64.95
X144.475Y-72.62
X144.6Y-102.4
X144.925Y-70.1
X144.95Y-73.575
X145.0Y-102.4
X145.05Y-127.2
X145.25Y-80.25
X145.25Y-80.75
X145.25Y-82.75
X145.25Y-83.25
X145.25Y-83.75
X145.25Y-84.25
X145.25Y-84.75
X145.4Y-101.65
X145.425Y-72.62
X145.46Y-75.42
X145.7Y-67.05
X145.75Y-108.8
X145.8Y-101.65
X145.9Y-69.75
X145.95Y-88.35
X146.2Y-102.4
X146.375Y-78.12
X146.42Y-75.42
X146.45Y-69.15
X146.6Y-102.4
X146.75Y-69.65
X146.95Y-68.392
X147.0Y-101.65
X147.09Y-67.25
X147.142Y-89.26
X147.375Y-78.12
X147.4Y-101.65
X147.425Y-89.542
X147.45Y-62.39
X147.45Y-64.5
X147.8Y-102.4
X147.99Y-90.108
X148.0Y-126.25
X148.11Y-67.25
X148.2Y-102.4
X148.6Y-65.38
X148.6Y-101.65
X149.0Y-101.65
X149.02Y-72.0
X149.125Y-82.0
X149.15Y-73.26
X149.192Y-87.775
X149.375Y-78.125
X149.4Y-65.38
X149.4Y-108.8
X149.4Y-112.8
X149.4Y-116.8
X149.475Y-88.058
X149.8Y-107.6
X149.8Y-109.2
X149.862Y-75.75
X149.862Y-76.25
X149.862Y-76.75
X149.875Y-78.125
X149.98Y-69.15
X149.98Y-72.0
X150.01Y-68.2
X150.01Y-70.575
X150.2Y-106.4
X150.2Y-114.4
X150.2Y-118.4
X150.375Y-78.125
X150.45Y-73.65
X150.6Y-109.2
X150.6Y-110.8
X150.6Y-118.8
X150.85Y-127.3
X150.86Y-77.0
X150.895Y-87.1
X151.0Y-108.0
X151.0Y-112.0
X151.0Y-113.6
X151.0Y-114.4
X151.0Y-116.0
X151.0Y-120.0
X151.05Y-100.51
X151.05Y-103.06
X151.15Y-79.98
X151.375Y-78.125
X151.375Y-85.875
X151.4Y-108.4
X151.4Y-109.2
X151.4Y-110.0
X151.4Y-118.8
X151.65Y-68.7
X151.65Y-70.6
X151.8Y-108.0
X151.8Y-109.6
X151.8Y-113.6
X151.8Y-116.8
X151.8Y-117.6
X151.855Y-87.1
X151.875Y-78.125
X152.1Y-79.98
X152.11Y-71.95
X152.2Y-107.6
X152.2Y-108.4
X152.21Y-74.82
X152.3Y-103.305
X152.35Y-73.65
X152.6Y-111.2
X152.6Y-115.2
X152.6Y-116.8
X152.6Y-119.2
X152.787Y-76.75
X152.95Y-105.3
X153.0Y-79.25
X153.0Y-79.75
X153.0Y-108.4
X153.0Y-113.975
X153.0Y-115.6
X153.0Y-118.8
X153.4Y-62.188
X153.4Y-66.9
X153.4Y-106.4
X153.4Y-108.8
X153.4Y-112.8
X153.4Y-116.8
X153.4Y-119.2
X153.95Y-75.72
X154.2Y-96.4
X154.2Y-105.735
X154.2Y-106.4
X154.2Y-107.2
X154.2Y-110.4
X154.2Y-111.2
X154.2Y-112.0
X154.2Y-112.8
X154.2Y-113.6
X154.2Y-114.4
X154.2Y-115.2
X154.2Y-116.0
X154.2Y-116.8
X154.2Y-118.4
X154.2Y-119.2
X154.6Y-118.8
X154.6Y-127.9
X154.6Y-96.4
X154.725Y-140.5
X155.0Y-97.2
X155.0Y-108.0
X155.0Y-109.6
X155.0Y-110.4
X155.0Y-111.2
X155.0Y-112.0
X155.0Y-112.8
X155.0Y-113.6
X155.0Y-114.4
X155.0Y-115.2
X155.0Y-116.0
X155.0Y-116.81
X155.0Y-120.0
X155.075Y-61.2
X155.17Y-80.27
X155.2Y-79.32
X155.4Y-118.8
X155.4Y-97.2
X155.525Y-61.2
X155.65Y-76.8
X155.8Y-96.4
X155.8Y-110.4
X155.8Y-111.2
X155.8Y-115.2
X155.8Y-116.0
X155.8Y-117.6
X155.8Y-118.4
X156.1Y-68.39
X156.2Y-112.425
X156.2Y-113.2
X156.2Y-113.975
X156.2Y-96.4
X156.6Y-97.2
X156.6Y-107.2
X156.6Y-109.6
X156.6Y-110.4
X156.6Y-111.2
X156.6Y-115.2
X156.6Y-116.0
X156.6Y-118.4
X156.6Y-119.2
X156.61Y-64.89
X156.64Y-63.65
X156.9Y-99.9
X156.9Y-102.9
X157.0Y-108.4
X157.0Y-112.4
X157.0Y-118.0
X157.0Y-97.2
X157.4Y-108.8
X157.4Y-109.6
X157.4Y-110.4
X157.4Y-111.2
X157.4Y-112.0
X157.4Y-112.8
X157.4Y-113.6
X157.4Y-114.4
X157.4Y-115.2
X157.4Y-116.0
X157.4Y-116.8
X157.675Y-140.5
X157.8Y-127.9
X157.86Y-65.62
X158.2Y-106.4
X158.2Y-110.4
X158.2Y-111.2
X158.2Y-112.0
X158.2Y-112.8
X158.2Y-113.6
X158.2Y-114.4
X158.2Y-115.2
X158.2Y-116.0
X158.2Y-116.8
X158.2Y-118.4
X158.51Y-61.57
X158.6Y-110.0
X158.81Y-70.57
X158.81Y-71.22
X158.81Y-71.87
X158.86Y-62.72
X159.0Y-108.0
X159.0Y-109.6
X159.0Y-116.0
X159.0Y-116.8
X159.0Y-120.0
X159.11Y-67.62
X159.11Y-68.62
X159.36Y-62.72
X159.383Y-139.503
X159.4Y-109.2
X159.4Y-110.0
X159.4Y-112.425
X159.4Y-113.975
X159.4Y-116.4
X159.6Y-91.65
X159.61Y-67.62
X159.61Y-68.62
X159.8Y-109.6
X159.8Y-115.2
X159.8Y-117.6
X159.8Y-118.4
X159.86Y-70.82
X159.86Y-71.62
X160.05Y-98.55
X160.1Y-103.305
X160.2Y-109.2
X160.2Y-110.0
X160.6Y-107.2
X160.6Y-111.2
X160.6Y-114.4
X160.6Y-115.2
X160.6Y-118.4
X160.6Y-119.2
X160.7Y-83.3
X160.86Y-67.62
X160.86Y-68.62
X160.91Y-70.57
X160.91Y-71.22
X160.91Y-71.87
X161.0Y-106.0
X161.0Y-116.4
X161.11Y-63.37
X161.11Y-64.62
X161.11Y-65.87
X161.4Y-98.52
X161.4Y-99.48
X161.4Y-100.39
X161.4Y-101.41
X161.4Y-108.8
X161.4Y-116.8
X161.4Y-117.6
X161.8Y-106.0
X161.8Y-110.0
X161.8Y-113.2
X161.8Y-118.8
X161.86Y-67.62
X161.86Y-68.62
X162.1Y-125.5
X162.2Y-106.4
X162.2Y-113.6
X162.2Y-114.4
X162.2Y-116.8
X162.2Y-117.6
X162.2Y-118.4
X162.35Y-79.95
X162.35Y-80.35
X162.4Y-134.3
X162.61Y-63.39
X162.61Y-65.93
X162.75Y-79.95
X162.75Y-80.35
X162.775Y-102.5
X163.0Y-108.0
X163.0Y-112.0
X163.0Y-113.6
X163.0Y-116.0
X163.0Y-120.0
X163.15Y-79.95
X163.15Y-80.35
X163.55Y-79.95
X163.55Y-80.35
X164.0Y-77.4
X164.0Y-77.8
X164.05Y-79.225
X164.15Y-80.42
X164.4Y-77.4
X164.4Y-77.8
X164.61Y-60.37
X164.61Y-61.87
X164.61Y-63.37
X164.61Y-64.62
X164.61Y-65.62
X164.8Y-77.4
X164.8Y-77.8
X164.86Y-67.62
X164.86Y-68.62
X164.96Y-80.22
X165.15Y-84.625
X165.86Y-64.62
X165.86Y-65.62
X165.86Y-67.62
X165.86Y-68.62
X165.9Y-102.12
X165.9Y-103.08
X166.25Y-79.225
X166.25Y-80.35
X166.3Y-76.1
X166.3Y-76.5
X166.3Y-76.9
X166.3Y-77.3
X166.3Y-77.7
X166.3Y-78.4
X166.5Y-97.65
X166.61Y-60.37
X166.61Y-61.87
X166.61Y-63.37
X166.86Y-67.62
X166.86Y-68.62
X167.11Y-64.62
X167.11Y-65.62
X167.35Y-79.95
X167.35Y-80.35
X167.65Y-105.4
X167.75Y-79.95
X167.75Y-80.35
X168.15Y-79.95
X168.15Y-80.35
X168.3Y-121.4
X168.55Y-79.95
X168.55Y-80.35
X168.61Y-60.37
X168.61Y-61.87
X168.61Y-63.37
X168.675Y-108.15
X169.0Y-77.4
X169.0Y-77.8
X169.05Y-79.225
X169.15Y-80.42
X169.4Y-77.4
X169.4Y-77.8
X169.76Y-62.07
X169.76Y-62.57
X169.76Y-65.17
X169.76Y-65.67
X169.8Y-77.4
X169.8Y-77.8
X170.15Y-81.675
X170.15Y-84.625
X170.36Y-63.87
X170.51Y-62.07
X170.51Y-62.57
X170.51Y-65.17
X170.51Y-65.67
X170.61Y-60.37
X170.7Y-115.6
X171.2Y-126.8
X171.25Y-79.225
X171.25Y-80.35
X171.3Y-76.1
X171.3Y-76.5
X171.3Y-76.9
X171.3Y-77.3
X171.3Y-78.39
X171.36Y-63.87
X171.36Y-64.87
X171.36Y-65.87
X171.625Y-108.15
X172.0Y-69.65
X172.35Y-79.95
X172.35Y-80.35
X172.36Y-62.87
X172.36Y-63.87
X172.36Y-64.87
X172.36Y-65.87
X172.75Y-79.95
X172.75Y-80.35
X172.86Y-61.87
X173.15Y-79.95
X173.15Y-80.35
X173.36Y-62.87
X173.36Y-63.87
X173.36Y-64.87
X173.36Y-65.87
X173.55Y-79.95
X173.55Y-80.35
X173.89Y-60.1
X173.9Y-62.9
X173.9Y-63.4
X173.92Y-61.05
X174.05Y-79.225
X174.05Y-104.85
X174.1Y-77.4
X174.1Y-77.8
X174.1Y-127.9
X174.2Y-80.42
X174.225Y-140.5
X174.4Y-62.9
X174.4Y-63.4
X174.5Y-77.4
X174.5Y-77.8
X174.85Y-92.0
X174.9Y-62.9
X174.9Y-63.4
X174.9Y-77.4
X174.9Y-77.8
X175.15Y-74.4
X175.15Y-81.675
X175.15Y-84.625
X176.013Y-62.687
X176.013Y-63.187
X176.013Y-63.687
X176.1Y-60.624
X176.1Y-66.25
X176.25Y-79.225
X176.25Y-80.35
X176.3Y-76.1
X176.3Y-76.5
X176.3Y-76.9
X176.3Y-77.3
X176.3Y-77.7
X176.3Y-78.4
X176.4Y-74.4
X176.663Y-60.537
X176.9Y-64.65
X176.9Y-65.15
X177.01Y-61.52
X177.01Y-62.07
X177.175Y-140.5
X177.3Y-127.9
X177.35Y-79.95
X177.35Y-80.35
X177.4Y-64.65
X177.4Y-65.15
X177.51Y-61.52
X177.51Y-62.07
X177.65Y-74.4
X177.75Y-79.95
X177.75Y-80.35
X177.9Y-64.65
X177.9Y-65.15
X177.91Y-61.82
X177.91Y-64.22
X178.15Y-79.95
X178.15Y-80.35
X178.163Y-60.537
X178.31Y-61.52
X178.31Y-62.07
X178.4Y-64.65
X178.4Y-65.15
X178.55Y-79.95
X178.55Y-80.35
X178.81Y-61.52
X178.81Y-62.07
X178.883Y-139.503
X178.9Y-64.65
X178.9Y-65.15
X178.9Y-74.4
X178.95Y-122.9
X179.0Y-77.4
X179.0Y-77.8
X179.05Y-79.225
X179.15Y-80.42
X179.4Y-77.4
X179.4Y-77.8
X179.726Y-60.624
X179.726Y-66.25
X179.8Y-77.4
X179.8Y-77.8
X179.813Y-62.687
X179.813Y-63.187
X179.813Y-63.687
X180.15Y-74.4
X180.15Y-81.675
X180.15Y-84.625
X180.9Y-62.9
X180.9Y-63.4
X180.95Y-61.36
X181.25Y-79.225
X181.25Y-80.35
X181.3Y-76.1
X181.3Y-76.5
X181.3Y-76.9
X181.3Y-77.3
X181.3Y-77.7
X181.3Y-78.4
X181.4Y-62.9
X181.4Y-63.4
X181.4Y-74.4
X181.675Y-113.9
X181.9Y-62.9
X181.9Y-63.4
X182.15Y-70.4
X182.15Y-70.9
X182.15Y-71.4
X182.45Y-134.05
X182.5Y-112.2
X182.65Y-70.4
X182.65Y-70.9
X182.65Y-71.4
X182.65Y-74.4
X183.15Y-62.9
X183.15Y-63.4
X183.15Y-70.4
X183.15Y-70.9
X183.15Y-71.4
X183.4Y-90.3
X183.4Y-93.5
X183.4Y-99.1
X183.4Y-102.3
X183.4Y-118.6
X183.4Y-121.8
X183.65Y-62.9
X183.65Y-63.4
X183.9Y-74.4
X184.15Y-62.9
X184.15Y-63.4
X184.625Y-113.9
X186.425Y-70.15
X187.75Y-131.7
X189.375Y-70.15
X189.6Y-95.1
X194.6Y-70.05
X195.003Y-78.017
X195.003Y-97.517
X195.003Y-117.017
X196.0Y-79.725
X196.0Y-82.675
X196.0Y-99.225
X196.0Y-102.175
X196.0Y-118.725
X196.0Y-121.675
X197.05Y-131.7
T2
X118.3Y-65.2
X118.3Y-136.2
X119.003Y-63.503
X119.003Y-66.897
X119.003Y-134.503
X119.003Y-137.897
X120.7Y-62.8
X120.7Y-67.6
X120.7Y-133.8
X120.7Y-138.6
X122.397Y-63.503
X122.397Y-66.897
X122.397Y-134.503
X122.397Y-137.897
X123.1Y-65.2
X123.1Y-136.2
X189.3Y-65.2
X189.3Y-136.2
X190.003Y-63.503
X190.003Y-66.897
X190.003Y-134.503
X190.003Y-137.897
X191.7Y-62.8
X191.7Y-67.6
X191.7Y-133.8
X191.7Y-138.6
X193.397Y-63.503
X193.397Y-66.897
X193.397Y-134.503
X193.397Y-137.897
X194.1Y-65.2
X194.1Y-136.2
T4
X119.04Y-78.66
X119.04Y-80.7
X119.04Y-82.74
X119.04Y-84.78
X119.04Y-98.16
X119.04Y-100.2
X119.04Y-102.24
X119.04Y-104.28
X119.04Y-117.66
X119.04Y-119.7
X119.04Y-121.74
X119.04Y-123.78
X120.82Y-77.64
X120.82Y-79.68
X120.82Y-81.72
X120.82Y-83.76
X120.82Y-97.14
X120.82Y-99.18
X120.82Y-101.22
X120.82Y-103.26
X120.82Y-116.64
X120.82Y-118.68
X120.82Y-120.72
X120.82Y-122.76
X125.64Y-74.34
X125.64Y-76.63
X125.64Y-85.52
X125.64Y-88.06
X125.64Y-93.84
X125.64Y-96.13
X125.64Y-105.02
X125.64Y-107.56
X125.64Y-113.34
X125.64Y-115.63
X125.64Y-124.52
X125.64Y-127.06
X129.84Y-131.26
X132.13Y-131.26
X133.14Y-136.08
X134.16Y-137.86
X135.18Y-136.08
X136.2Y-137.86
X137.22Y-136.08
X138.24Y-137.86
X139.26Y-136.08
X140.28Y-137.86
X141.02Y-131.26
X143.56Y-131.26
X149.34Y-131.26
X151.63Y-131.26
X152.64Y-136.08
X153.66Y-137.86
X154.68Y-136.08
X155.7Y-137.86
X156.72Y-136.08
X157.74Y-137.86
X158.76Y-136.08
X159.78Y-137.86
X160.52Y-131.26
X163.06Y-131.26
X168.84Y-131.26
X171.13Y-131.26
X172.14Y-136.08
X173.16Y-137.86
X174.18Y-136.08
X175.2Y-137.86
X176.22Y-136.08
X177.24Y-137.86
X178.26Y-136.08
X179.28Y-137.86
X180.02Y-131.26
X182.56Y-131.26
X186.76Y-74.34
X186.76Y-76.88
X186.76Y-85.77
X186.76Y-88.06
X186.76Y-93.84
X186.76Y-96.38
X186.76Y-105.27
X186.76Y-107.56
X186.76Y-113.34
X186.76Y-115.88
X186.76Y-124.77
X186.76Y-127.06
X191.58Y-78.64
X191.58Y-80.68
X191.58Y-82.72
X191.58Y-84.76
X191.58Y-98.14
X191.58Y-100.18
X191.58Y-102.22
X191.58Y-104.26
X191.58Y-117.64
X191.58Y-119.68
X191.58Y-121.72
X191.58Y-123.76
X193.36Y-77.62
X193.36Y-79.66
X193.36Y-81.7
X193.36Y-83.74
X193.36Y-97.12
X193.36Y-99.16
X193.36Y-101.2
X193.36Y-103.24
X193.36Y-116.62
X193.36Y-118.66
X193.36Y-120.7
X193.36Y-122.74
T5
X160.7Y-61.2
X171.7Y-61.2
T6
X119.93Y-73.07
X119.93Y-89.33
X119.93Y-92.57
X119.93Y-108.83
X119.93Y-112.07
X119.93Y-128.33
X128.57Y-136.97
X144.83Y-136.97
X148.07Y-136.97
X164.33Y-136.97
X167.57Y-136.97
X183.83Y-136.97
X192.47Y-73.07
X192.47Y-89.33
X192.47Y-92.57
X192.47Y-108.83
X192.47Y-112.07
X192.47Y-128.33
T7
X163.7Y-71.2
X168.7Y-71.2
T8
X120.7Y-65.2
X120.7Y-136.2
X191.7Y-65.2
X191.7Y-136.2
T3
G00X141.88Y-61.025
M15
G01X141.88Y-60.225
M16
G05
G00X141.88Y-65.355
M15
G01X141.88Y-64.255
M16
G05
G00X150.52Y-61.025
M15
G01X150.52Y-60.225
M16
G05
G00X150.52Y-65.355
M15
G01X150.52Y-64.255
M16
G05
M30
