%TF.GenerationSoftware,KiCad,Pcbnew,10.0.0*%
%TF.CreationDate,2026-04-08T16:58:37+02:00*%
%TF.ProjectId,Programmer_Shell_Module,50726f67-7261-46d6-9d65-725f5368656c,1.0*%
%TF.SameCoordinates,Original*%
%TF.FileFunction,Copper,L2,Inr*%
%TF.FilePolarity,Positive*%
%FSLAX46Y46*%
G04 Gerber Fmt 4.6, Leading zero omitted, Abs format (unit mm)*
G04 Created by KiCad (PCBNEW 10.0.0) date 2026-04-08 16:58:37*
%MOMM*%
%LPD*%
G01*
G04 APERTURE LIST*
%TA.AperFunction,ComponentPad*%
%ADD10R,1.000000X1.000000*%
%TD*%
%TA.AperFunction,ComponentPad*%
%ADD11C,1.000000*%
%TD*%
%TA.AperFunction,ComponentPad*%
%ADD12C,0.800000*%
%TD*%
%TA.AperFunction,ComponentPad*%
%ADD13C,6.400000*%
%TD*%
%TA.AperFunction,ComponentPad*%
%ADD14C,3.759200*%
%TD*%
%TA.AperFunction,ComponentPad*%
%ADD15C,1.397000*%
%TD*%
%TA.AperFunction,ViaPad*%
%ADD16C,0.600000*%
%TD*%
G04 APERTURE END LIST*
D10*
%TO.N,/NRESET*%
%TO.C,U1*%
X132460000Y-79500000D03*
D11*
%TO.N,/DONE*%
X133730000Y-79500000D03*
%TO.N,/FLASH_MOSI*%
X135000000Y-79500000D03*
%TO.N,/FLASH_SCK*%
X136270000Y-79500000D03*
%TO.N,/FLASH_MISO*%
X137540000Y-79500000D03*
%TO.N,/FLASH_NCS*%
X138810000Y-79500000D03*
%TO.N,unconnected-(U1-IOT_25A-Pad7)*%
X140500000Y-81190000D03*
%TO.N,unconnected-(U1-IOT_19A-Pad8)*%
X140500000Y-82460000D03*
%TO.N,unconnected-(U1-BARCODE-Pad9)*%
X140500000Y-83730000D03*
%TO.N,unconnected-(U1-IRLED-Pad10)*%
X140500000Y-85000000D03*
%TO.N,unconnected-(U1-IOT_27A-Pad11)*%
X140500000Y-86270000D03*
%TO.N,unconnected-(U1-IOT_24B-Pad12)*%
X140500000Y-87540000D03*
%TO.N,unconnected-(U1-IOT_21A_G1-Pad13)*%
X140500000Y-88810000D03*
%TO.N,unconnected-(U1-IOT_22B_G0-Pad14)*%
X138810000Y-90500000D03*
%TO.N,unconnected-(U1-IO_10A-Pad15)*%
X137540000Y-90500000D03*
%TO.N,unconnected-(U1-IO_6A-Pad16)*%
X136270000Y-90500000D03*
%TO.N,unconnected-(U1-IOB_7B_G5-Pad17)*%
X135000000Y-90500000D03*
%TO.N,unconnected-(U1-IOB_3B_G6-Pad18)*%
X133730000Y-90500000D03*
%TO.N,unconnected-(U1-IOB_0A-Pad19)*%
X132460000Y-90500000D03*
%TO.N,unconnected-(U1-IOB_1B-Pad20)*%
X131190000Y-90500000D03*
%TO.N,unconnected-(U1-IOT_18B-Pad21)*%
X129500000Y-88810000D03*
%TO.N,unconnected-(U1-IOT_4A-Pad22)*%
X129500000Y-87540000D03*
%TO.N,unconnected-(U1-IOT_5B-Pad23)*%
X129500000Y-86270000D03*
%TO.N,unconnected-(U1-RGB1-Pad24)*%
X129500000Y-85000000D03*
%TO.N,unconnected-(U1-RGB2-Pad25)*%
X129500000Y-83730000D03*
%TO.N,+5V*%
X129500000Y-82460000D03*
%TO.N,GND*%
X129500000Y-81190000D03*
%TD*%
D12*
%TO.N,GND*%
%TO.C,H804*%
X160600000Y-52000000D03*
X161302944Y-50302944D03*
X161302944Y-53697056D03*
X163000000Y-49600000D03*
D13*
X163000000Y-52000000D03*
D12*
X163000000Y-54400000D03*
X164697056Y-50302944D03*
X164697056Y-53697056D03*
X165400000Y-52000000D03*
%TD*%
%TO.N,GND*%
%TO.C,H803*%
X160600000Y-108000000D03*
X161302944Y-106302944D03*
X161302944Y-109697056D03*
X163000000Y-105600000D03*
D13*
X163000000Y-108000000D03*
D12*
X163000000Y-110400000D03*
X164697056Y-106302944D03*
X164697056Y-109697056D03*
X165400000Y-108000000D03*
%TD*%
%TO.N,GND*%
%TO.C,H802*%
X104600000Y-108000000D03*
X105302944Y-106302944D03*
X105302944Y-109697056D03*
X107000000Y-105600000D03*
D13*
X107000000Y-108000000D03*
D12*
X107000000Y-110400000D03*
X108697056Y-106302944D03*
X108697056Y-109697056D03*
X109400000Y-108000000D03*
%TD*%
%TO.N,GND*%
%TO.C,H801*%
X104600000Y-52000000D03*
X105302944Y-50302944D03*
X105302944Y-53697056D03*
X107000000Y-49600000D03*
D13*
X107000000Y-52000000D03*
D12*
X107000000Y-54400000D03*
X108697056Y-50302944D03*
X108697056Y-53697056D03*
X109400000Y-52000000D03*
%TD*%
D14*
%TO.N,GND*%
%TO.C,J2*%
X129285000Y-53135101D03*
X140715000Y-53135101D03*
D15*
%TO.N,/FLASH_MISO*%
X130555000Y-62025101D03*
%TO.N,/FLASH_MOSI*%
X131825000Y-59485101D03*
%TO.N,/DONE*%
X133095000Y-62025101D03*
%TO.N,+5V*%
X134365000Y-59485101D03*
%TO.N,/FLASH_NCS*%
X135635000Y-62025101D03*
%TO.N,/FLASH_SCK*%
X136905000Y-59485101D03*
%TO.N,GND*%
X138175000Y-62025101D03*
%TO.N,/NRESET*%
X139445000Y-59485101D03*
%TD*%
D16*
%TO.N,GND*%
X130800000Y-74700000D03*
X129200000Y-74700000D03*
X132250000Y-97500000D03*
X109750000Y-107000000D03*
X164500000Y-83750000D03*
X134500000Y-54000000D03*
X156000000Y-63250000D03*
X143750000Y-101500000D03*
X161750000Y-101000000D03*
X106500000Y-95500000D03*
X114000000Y-76250000D03*
X122750000Y-90000000D03*
X105250000Y-59500000D03*
X118250000Y-52000000D03*
X158750000Y-54750000D03*
X127200000Y-65150000D03*
%TD*%
%TA.AperFunction,Conductor*%
%TO.N,GND*%
G36*
X166814360Y-45522174D02*
G01*
X169477826Y-48185640D01*
X169499500Y-48237966D01*
X169499500Y-111762034D01*
X169477826Y-111814360D01*
X166814360Y-114477826D01*
X166762034Y-114499500D01*
X103237966Y-114499500D01*
X103185640Y-114477826D01*
X100522174Y-111814360D01*
X100500500Y-111762034D01*
X100500500Y-90426083D01*
X130439500Y-90426083D01*
X130439500Y-90573916D01*
X130468340Y-90718907D01*
X130468343Y-90718917D01*
X130524915Y-90855494D01*
X130524916Y-90855495D01*
X130607049Y-90978416D01*
X130711584Y-91082951D01*
X130834505Y-91165084D01*
X130971087Y-91221658D01*
X131116082Y-91250500D01*
X131116084Y-91250500D01*
X131263916Y-91250500D01*
X131263918Y-91250500D01*
X131408913Y-91221658D01*
X131545495Y-91165084D01*
X131668416Y-91082951D01*
X131772674Y-90978693D01*
X131825000Y-90957019D01*
X131877326Y-90978693D01*
X131981584Y-91082951D01*
X132104505Y-91165084D01*
X132241087Y-91221658D01*
X132386082Y-91250500D01*
X132386084Y-91250500D01*
X132533916Y-91250500D01*
X132533918Y-91250500D01*
X132678913Y-91221658D01*
X132815495Y-91165084D01*
X132938416Y-91082951D01*
X133042674Y-90978693D01*
X133095000Y-90957019D01*
X133147326Y-90978693D01*
X133251584Y-91082951D01*
X133374505Y-91165084D01*
X133511087Y-91221658D01*
X133656082Y-91250500D01*
X133656084Y-91250500D01*
X133803916Y-91250500D01*
X133803918Y-91250500D01*
X133948913Y-91221658D01*
X134085495Y-91165084D01*
X134208416Y-91082951D01*
X134312674Y-90978693D01*
X134365000Y-90957019D01*
X134417326Y-90978693D01*
X134521584Y-91082951D01*
X134644505Y-91165084D01*
X134781087Y-91221658D01*
X134926082Y-91250500D01*
X134926084Y-91250500D01*
X135073916Y-91250500D01*
X135073918Y-91250500D01*
X135218913Y-91221658D01*
X135355495Y-91165084D01*
X135478416Y-91082951D01*
X135582674Y-90978693D01*
X135635000Y-90957019D01*
X135687326Y-90978693D01*
X135791584Y-91082951D01*
X135914505Y-91165084D01*
X136051087Y-91221658D01*
X136196082Y-91250500D01*
X136196084Y-91250500D01*
X136343916Y-91250500D01*
X136343918Y-91250500D01*
X136488913Y-91221658D01*
X136625495Y-91165084D01*
X136748416Y-91082951D01*
X136852674Y-90978693D01*
X136905000Y-90957019D01*
X136957326Y-90978693D01*
X137061584Y-91082951D01*
X137184505Y-91165084D01*
X137321087Y-91221658D01*
X137466082Y-91250500D01*
X137466084Y-91250500D01*
X137613916Y-91250500D01*
X137613918Y-91250500D01*
X137758913Y-91221658D01*
X137895495Y-91165084D01*
X138018416Y-91082951D01*
X138122674Y-90978693D01*
X138175000Y-90957019D01*
X138227326Y-90978693D01*
X138331584Y-91082951D01*
X138454505Y-91165084D01*
X138591087Y-91221658D01*
X138736082Y-91250500D01*
X138736084Y-91250500D01*
X138883916Y-91250500D01*
X138883918Y-91250500D01*
X139028913Y-91221658D01*
X139165495Y-91165084D01*
X139288416Y-91082951D01*
X139392951Y-90978416D01*
X139475084Y-90855495D01*
X139531658Y-90718913D01*
X139560500Y-90573918D01*
X139560500Y-90426082D01*
X139531658Y-90281087D01*
X139475084Y-90144505D01*
X139392951Y-90021584D01*
X139288416Y-89917049D01*
X139165495Y-89834916D01*
X139165496Y-89834916D01*
X139165494Y-89834915D01*
X139028917Y-89778343D01*
X139028907Y-89778340D01*
X138931811Y-89759026D01*
X138883918Y-89749500D01*
X138736082Y-89749500D01*
X138694977Y-89757676D01*
X138591092Y-89778340D01*
X138591082Y-89778343D01*
X138454505Y-89834915D01*
X138331584Y-89917048D01*
X138331583Y-89917050D01*
X138227326Y-90021307D01*
X138175000Y-90042981D01*
X138122674Y-90021307D01*
X138018415Y-89917048D01*
X137895494Y-89834915D01*
X137758917Y-89778343D01*
X137758907Y-89778340D01*
X137661811Y-89759026D01*
X137613918Y-89749500D01*
X137466082Y-89749500D01*
X137424977Y-89757676D01*
X137321092Y-89778340D01*
X137321082Y-89778343D01*
X137184505Y-89834915D01*
X137061584Y-89917048D01*
X137061583Y-89917050D01*
X136957326Y-90021307D01*
X136905000Y-90042981D01*
X136852674Y-90021307D01*
X136748415Y-89917048D01*
X136625494Y-89834915D01*
X136488917Y-89778343D01*
X136488907Y-89778340D01*
X136391811Y-89759026D01*
X136343918Y-89749500D01*
X136196082Y-89749500D01*
X136154977Y-89757676D01*
X136051092Y-89778340D01*
X136051082Y-89778343D01*
X135914505Y-89834915D01*
X135791584Y-89917048D01*
X135791583Y-89917050D01*
X135687326Y-90021307D01*
X135635000Y-90042981D01*
X135582674Y-90021307D01*
X135478415Y-89917048D01*
X135355494Y-89834915D01*
X135218917Y-89778343D01*
X135218907Y-89778340D01*
X135121811Y-89759026D01*
X135073918Y-89749500D01*
X134926082Y-89749500D01*
X134884977Y-89757676D01*
X134781092Y-89778340D01*
X134781082Y-89778343D01*
X134644505Y-89834915D01*
X134521584Y-89917048D01*
X134521583Y-89917050D01*
X134417326Y-90021307D01*
X134365000Y-90042981D01*
X134312674Y-90021307D01*
X134208415Y-89917048D01*
X134085494Y-89834915D01*
X133948917Y-89778343D01*
X133948907Y-89778340D01*
X133851811Y-89759026D01*
X133803918Y-89749500D01*
X133656082Y-89749500D01*
X133614977Y-89757676D01*
X133511092Y-89778340D01*
X133511082Y-89778343D01*
X133374505Y-89834915D01*
X133251584Y-89917048D01*
X133251583Y-89917050D01*
X133147326Y-90021307D01*
X133095000Y-90042981D01*
X133042674Y-90021307D01*
X132938415Y-89917048D01*
X132815494Y-89834915D01*
X132678917Y-89778343D01*
X132678907Y-89778340D01*
X132581811Y-89759026D01*
X132533918Y-89749500D01*
X132386082Y-89749500D01*
X132344977Y-89757676D01*
X132241092Y-89778340D01*
X132241082Y-89778343D01*
X132104505Y-89834915D01*
X131981584Y-89917048D01*
X131981583Y-89917050D01*
X131877326Y-90021307D01*
X131825000Y-90042981D01*
X131772674Y-90021307D01*
X131668415Y-89917048D01*
X131545494Y-89834915D01*
X131408917Y-89778343D01*
X131408907Y-89778340D01*
X131311811Y-89759026D01*
X131263918Y-89749500D01*
X131116082Y-89749500D01*
X131074977Y-89757676D01*
X130971092Y-89778340D01*
X130971082Y-89778343D01*
X130834505Y-89834915D01*
X130711584Y-89917048D01*
X130711583Y-89917050D01*
X130607050Y-90021583D01*
X130607048Y-90021584D01*
X130524915Y-90144505D01*
X130468343Y-90281082D01*
X130468340Y-90281092D01*
X130439500Y-90426083D01*
X100500500Y-90426083D01*
X100500500Y-82386083D01*
X128749500Y-82386083D01*
X128749500Y-82533916D01*
X128778340Y-82678907D01*
X128778343Y-82678917D01*
X128834915Y-82815494D01*
X128917048Y-82938415D01*
X129021307Y-83042674D01*
X129042981Y-83095000D01*
X129021307Y-83147326D01*
X128917050Y-83251583D01*
X128917048Y-83251584D01*
X128834915Y-83374505D01*
X128778343Y-83511082D01*
X128778340Y-83511092D01*
X128749500Y-83656083D01*
X128749500Y-83803916D01*
X128778340Y-83948907D01*
X128778343Y-83948917D01*
X128834915Y-84085494D01*
X128917048Y-84208415D01*
X129021307Y-84312674D01*
X129042981Y-84365000D01*
X129021307Y-84417326D01*
X128917050Y-84521583D01*
X128917048Y-84521584D01*
X128834915Y-84644505D01*
X128778343Y-84781082D01*
X128778340Y-84781092D01*
X128749500Y-84926083D01*
X128749500Y-85073916D01*
X128778340Y-85218907D01*
X128778343Y-85218917D01*
X128834915Y-85355494D01*
X128917048Y-85478415D01*
X129021307Y-85582674D01*
X129042981Y-85635000D01*
X129021307Y-85687326D01*
X128917050Y-85791583D01*
X128917048Y-85791584D01*
X128834915Y-85914505D01*
X128778343Y-86051082D01*
X128778340Y-86051092D01*
X128749500Y-86196083D01*
X128749500Y-86343916D01*
X128778340Y-86488907D01*
X128778343Y-86488917D01*
X128834915Y-86625494D01*
X128917048Y-86748415D01*
X129021307Y-86852674D01*
X129042981Y-86905000D01*
X129021307Y-86957326D01*
X128917050Y-87061583D01*
X128917048Y-87061584D01*
X128834915Y-87184505D01*
X128778343Y-87321082D01*
X128778340Y-87321092D01*
X128749500Y-87466083D01*
X128749500Y-87613916D01*
X128778340Y-87758907D01*
X128778343Y-87758917D01*
X128834915Y-87895494D01*
X128917048Y-88018415D01*
X129021307Y-88122674D01*
X129042981Y-88175000D01*
X129021307Y-88227326D01*
X128917050Y-88331583D01*
X128917048Y-88331584D01*
X128834915Y-88454505D01*
X128778343Y-88591082D01*
X128778340Y-88591092D01*
X128749500Y-88736083D01*
X128749500Y-88883916D01*
X128778340Y-89028907D01*
X128778343Y-89028917D01*
X128834915Y-89165494D01*
X128834916Y-89165495D01*
X128917049Y-89288416D01*
X129021584Y-89392951D01*
X129144505Y-89475084D01*
X129281087Y-89531658D01*
X129426082Y-89560500D01*
X129426084Y-89560500D01*
X129573916Y-89560500D01*
X129573918Y-89560500D01*
X129718913Y-89531658D01*
X129855495Y-89475084D01*
X129978416Y-89392951D01*
X130082951Y-89288416D01*
X130165084Y-89165495D01*
X130221658Y-89028913D01*
X130250500Y-88883918D01*
X130250500Y-88736082D01*
X130221658Y-88591087D01*
X130165084Y-88454505D01*
X130082951Y-88331584D01*
X129978693Y-88227326D01*
X129957019Y-88175000D01*
X129978693Y-88122674D01*
X130082950Y-88018417D01*
X130082951Y-88018416D01*
X130165084Y-87895495D01*
X130221658Y-87758913D01*
X130250500Y-87613918D01*
X130250500Y-87466082D01*
X130221658Y-87321087D01*
X130165084Y-87184505D01*
X130082951Y-87061584D01*
X129978693Y-86957326D01*
X129957019Y-86905000D01*
X129978693Y-86852674D01*
X130082950Y-86748417D01*
X130082951Y-86748416D01*
X130165084Y-86625495D01*
X130221658Y-86488913D01*
X130250500Y-86343918D01*
X130250500Y-86196082D01*
X130221658Y-86051087D01*
X130165084Y-85914505D01*
X130082951Y-85791584D01*
X129978693Y-85687326D01*
X129957019Y-85635000D01*
X129978693Y-85582674D01*
X130082950Y-85478417D01*
X130082951Y-85478416D01*
X130165084Y-85355495D01*
X130221658Y-85218913D01*
X130250500Y-85073918D01*
X130250500Y-84926082D01*
X130221658Y-84781087D01*
X130165084Y-84644505D01*
X130082951Y-84521584D01*
X129978693Y-84417326D01*
X129957019Y-84365000D01*
X129978693Y-84312674D01*
X130082950Y-84208417D01*
X130082951Y-84208416D01*
X130165084Y-84085495D01*
X130221658Y-83948913D01*
X130250500Y-83803918D01*
X130250500Y-83656082D01*
X130221658Y-83511087D01*
X130165084Y-83374505D01*
X130082951Y-83251584D01*
X129978693Y-83147326D01*
X129957019Y-83095000D01*
X129978693Y-83042674D01*
X130082950Y-82938417D01*
X130082951Y-82938416D01*
X130165084Y-82815495D01*
X130221658Y-82678913D01*
X130250500Y-82533918D01*
X130250500Y-82386082D01*
X130221658Y-82241087D01*
X130165084Y-82104505D01*
X130082951Y-81981584D01*
X129979410Y-81878043D01*
X129957737Y-81825719D01*
X129976402Y-81780656D01*
X129977136Y-81773202D01*
X129670672Y-81466738D01*
X129699554Y-81450064D01*
X129760064Y-81389554D01*
X129776738Y-81360672D01*
X130083202Y-81667136D01*
X130164643Y-81545253D01*
X130221177Y-81408767D01*
X130221179Y-81408760D01*
X130250000Y-81263868D01*
X130250000Y-81116138D01*
X130249998Y-81116124D01*
X130249990Y-81116083D01*
X139749500Y-81116083D01*
X139749500Y-81263916D01*
X139778340Y-81408907D01*
X139778343Y-81408917D01*
X139834915Y-81545494D01*
X139917048Y-81668415D01*
X140021307Y-81772674D01*
X140042981Y-81825000D01*
X140021307Y-81877326D01*
X139917050Y-81981583D01*
X139917048Y-81981584D01*
X139834915Y-82104505D01*
X139778343Y-82241082D01*
X139778340Y-82241092D01*
X139749500Y-82386083D01*
X139749500Y-82533916D01*
X139778340Y-82678907D01*
X139778343Y-82678917D01*
X139834915Y-82815494D01*
X139917048Y-82938415D01*
X140021307Y-83042674D01*
X140042981Y-83095000D01*
X140021307Y-83147326D01*
X139917050Y-83251583D01*
X139917048Y-83251584D01*
X139834915Y-83374505D01*
X139778343Y-83511082D01*
X139778340Y-83511092D01*
X139749500Y-83656083D01*
X139749500Y-83803916D01*
X139778340Y-83948907D01*
X139778343Y-83948917D01*
X139834915Y-84085494D01*
X139917048Y-84208415D01*
X140021307Y-84312674D01*
X140042981Y-84365000D01*
X140021307Y-84417326D01*
X139917050Y-84521583D01*
X139917048Y-84521584D01*
X139834915Y-84644505D01*
X139778343Y-84781082D01*
X139778340Y-84781092D01*
X139749500Y-84926083D01*
X139749500Y-85073916D01*
X139778340Y-85218907D01*
X139778343Y-85218917D01*
X139834915Y-85355494D01*
X139917048Y-85478415D01*
X140021307Y-85582674D01*
X140042981Y-85635000D01*
X140021307Y-85687326D01*
X139917050Y-85791583D01*
X139917048Y-85791584D01*
X139834915Y-85914505D01*
X139778343Y-86051082D01*
X139778340Y-86051092D01*
X139749500Y-86196083D01*
X139749500Y-86343916D01*
X139778340Y-86488907D01*
X139778343Y-86488917D01*
X139834915Y-86625494D01*
X139917048Y-86748415D01*
X140021307Y-86852674D01*
X140042981Y-86905000D01*
X140021307Y-86957326D01*
X139917050Y-87061583D01*
X139917048Y-87061584D01*
X139834915Y-87184505D01*
X139778343Y-87321082D01*
X139778340Y-87321092D01*
X139749500Y-87466083D01*
X139749500Y-87613916D01*
X139778340Y-87758907D01*
X139778343Y-87758917D01*
X139834915Y-87895494D01*
X139917048Y-88018415D01*
X140021307Y-88122674D01*
X140042981Y-88175000D01*
X140021307Y-88227326D01*
X139917050Y-88331583D01*
X139917048Y-88331584D01*
X139834915Y-88454505D01*
X139778343Y-88591082D01*
X139778340Y-88591092D01*
X139749500Y-88736083D01*
X139749500Y-88883916D01*
X139778340Y-89028907D01*
X139778343Y-89028917D01*
X139834915Y-89165494D01*
X139834916Y-89165495D01*
X139917049Y-89288416D01*
X140021584Y-89392951D01*
X140144505Y-89475084D01*
X140281087Y-89531658D01*
X140426082Y-89560500D01*
X140426084Y-89560500D01*
X140573916Y-89560500D01*
X140573918Y-89560500D01*
X140718913Y-89531658D01*
X140855495Y-89475084D01*
X140978416Y-89392951D01*
X141082951Y-89288416D01*
X141165084Y-89165495D01*
X141221658Y-89028913D01*
X141250500Y-88883918D01*
X141250500Y-88736082D01*
X141221658Y-88591087D01*
X141165084Y-88454505D01*
X141082951Y-88331584D01*
X140978693Y-88227326D01*
X140957019Y-88175000D01*
X140978693Y-88122674D01*
X141082950Y-88018417D01*
X141082951Y-88018416D01*
X141165084Y-87895495D01*
X141221658Y-87758913D01*
X141250500Y-87613918D01*
X141250500Y-87466082D01*
X141221658Y-87321087D01*
X141165084Y-87184505D01*
X141082951Y-87061584D01*
X140978693Y-86957326D01*
X140957019Y-86905000D01*
X140978693Y-86852674D01*
X141082950Y-86748417D01*
X141082951Y-86748416D01*
X141165084Y-86625495D01*
X141221658Y-86488913D01*
X141250500Y-86343918D01*
X141250500Y-86196082D01*
X141221658Y-86051087D01*
X141165084Y-85914505D01*
X141082951Y-85791584D01*
X140978693Y-85687326D01*
X140957019Y-85635000D01*
X140978693Y-85582674D01*
X141082950Y-85478417D01*
X141082951Y-85478416D01*
X141165084Y-85355495D01*
X141221658Y-85218913D01*
X141250500Y-85073918D01*
X141250500Y-84926082D01*
X141221658Y-84781087D01*
X141165084Y-84644505D01*
X141082951Y-84521584D01*
X140978693Y-84417326D01*
X140957019Y-84365000D01*
X140978693Y-84312674D01*
X141082950Y-84208417D01*
X141082951Y-84208416D01*
X141165084Y-84085495D01*
X141221658Y-83948913D01*
X141250500Y-83803918D01*
X141250500Y-83656082D01*
X141221658Y-83511087D01*
X141165084Y-83374505D01*
X141082951Y-83251584D01*
X140978693Y-83147326D01*
X140957019Y-83095000D01*
X140978693Y-83042674D01*
X141082950Y-82938417D01*
X141082951Y-82938416D01*
X141165084Y-82815495D01*
X141221658Y-82678913D01*
X141250500Y-82533918D01*
X141250500Y-82386082D01*
X141221658Y-82241087D01*
X141165084Y-82104505D01*
X141082951Y-81981584D01*
X140978693Y-81877326D01*
X140957019Y-81825000D01*
X140978693Y-81772674D01*
X141082950Y-81668417D01*
X141082951Y-81668416D01*
X141165084Y-81545495D01*
X141221658Y-81408913D01*
X141250500Y-81263918D01*
X141250500Y-81116082D01*
X141221658Y-80971087D01*
X141165084Y-80834505D01*
X141082951Y-80711584D01*
X140978416Y-80607049D01*
X140978038Y-80606796D01*
X140855494Y-80524915D01*
X140718917Y-80468343D01*
X140718907Y-80468340D01*
X140621811Y-80449026D01*
X140573918Y-80439500D01*
X140426082Y-80439500D01*
X140384977Y-80447676D01*
X140281092Y-80468340D01*
X140281082Y-80468343D01*
X140144505Y-80524915D01*
X140021584Y-80607048D01*
X140021583Y-80607050D01*
X139917050Y-80711583D01*
X139917048Y-80711584D01*
X139834915Y-80834505D01*
X139778343Y-80971082D01*
X139778340Y-80971092D01*
X139749500Y-81116083D01*
X130249990Y-81116083D01*
X130221179Y-80971239D01*
X130221177Y-80971232D01*
X130164641Y-80834742D01*
X130083202Y-80712862D01*
X129776738Y-81019326D01*
X129760064Y-80990446D01*
X129699554Y-80929936D01*
X129670671Y-80913260D01*
X129977136Y-80606796D01*
X129977136Y-80606795D01*
X129855257Y-80525358D01*
X129718767Y-80468822D01*
X129718760Y-80468820D01*
X129573868Y-80440000D01*
X129426132Y-80440000D01*
X129281239Y-80468820D01*
X129281232Y-80468822D01*
X129144741Y-80525359D01*
X129022862Y-80606796D01*
X129329327Y-80913261D01*
X129300446Y-80929936D01*
X129239936Y-80990446D01*
X129223261Y-81019327D01*
X128916796Y-80712862D01*
X128835359Y-80834741D01*
X128778822Y-80971232D01*
X128778820Y-80971239D01*
X128750000Y-81116131D01*
X128750000Y-81263868D01*
X128778820Y-81408760D01*
X128778822Y-81408767D01*
X128835358Y-81545257D01*
X128916796Y-81667136D01*
X129223260Y-81360671D01*
X129239936Y-81389554D01*
X129300446Y-81450064D01*
X129329326Y-81466738D01*
X129022862Y-81773202D01*
X129024153Y-81786309D01*
X129040840Y-81811281D01*
X129029791Y-81866830D01*
X129020588Y-81878045D01*
X128917050Y-81981583D01*
X128917048Y-81981584D01*
X128834915Y-82104505D01*
X128778343Y-82241082D01*
X128778340Y-82241092D01*
X128749500Y-82386083D01*
X100500500Y-82386083D01*
X100500500Y-78975326D01*
X131709500Y-78975326D01*
X131709500Y-80024674D01*
X131724034Y-80097740D01*
X131779399Y-80180601D01*
X131862260Y-80235966D01*
X131935326Y-80250500D01*
X131935328Y-80250500D01*
X132984672Y-80250500D01*
X132984674Y-80250500D01*
X133057740Y-80235966D01*
X133140601Y-80180601D01*
X133178853Y-80123351D01*
X133225943Y-80091886D01*
X133281490Y-80102933D01*
X133374505Y-80165084D01*
X133511087Y-80221658D01*
X133656082Y-80250500D01*
X133656084Y-80250500D01*
X133803916Y-80250500D01*
X133803918Y-80250500D01*
X133948913Y-80221658D01*
X134085495Y-80165084D01*
X134208416Y-80082951D01*
X134312674Y-79978693D01*
X134365000Y-79957019D01*
X134417326Y-79978693D01*
X134521584Y-80082951D01*
X134644505Y-80165084D01*
X134781087Y-80221658D01*
X134926082Y-80250500D01*
X134926084Y-80250500D01*
X135073916Y-80250500D01*
X135073918Y-80250500D01*
X135218913Y-80221658D01*
X135355495Y-80165084D01*
X135478416Y-80082951D01*
X135582674Y-79978693D01*
X135635000Y-79957019D01*
X135687326Y-79978693D01*
X135791584Y-80082951D01*
X135914505Y-80165084D01*
X136051087Y-80221658D01*
X136196082Y-80250500D01*
X136196084Y-80250500D01*
X136343916Y-80250500D01*
X136343918Y-80250500D01*
X136488913Y-80221658D01*
X136625495Y-80165084D01*
X136748416Y-80082951D01*
X136852674Y-79978693D01*
X136905000Y-79957019D01*
X136957326Y-79978693D01*
X137061584Y-80082951D01*
X137184505Y-80165084D01*
X137321087Y-80221658D01*
X137466082Y-80250500D01*
X137466084Y-80250500D01*
X137613916Y-80250500D01*
X137613918Y-80250500D01*
X137758913Y-80221658D01*
X137895495Y-80165084D01*
X138018416Y-80082951D01*
X138122674Y-79978693D01*
X138175000Y-79957019D01*
X138227326Y-79978693D01*
X138331584Y-80082951D01*
X138454505Y-80165084D01*
X138591087Y-80221658D01*
X138736082Y-80250500D01*
X138736084Y-80250500D01*
X138883916Y-80250500D01*
X138883918Y-80250500D01*
X139028913Y-80221658D01*
X139165495Y-80165084D01*
X139288416Y-80082951D01*
X139392951Y-79978416D01*
X139475084Y-79855495D01*
X139531658Y-79718913D01*
X139560500Y-79573918D01*
X139560500Y-79426082D01*
X139531658Y-79281087D01*
X139475084Y-79144505D01*
X139392951Y-79021584D01*
X139288416Y-78917049D01*
X139275043Y-78908113D01*
X139165494Y-78834915D01*
X139028917Y-78778343D01*
X139028907Y-78778340D01*
X138931811Y-78759026D01*
X138883918Y-78749500D01*
X138736082Y-78749500D01*
X138694977Y-78757676D01*
X138591092Y-78778340D01*
X138591082Y-78778343D01*
X138454505Y-78834915D01*
X138331584Y-78917048D01*
X138331583Y-78917050D01*
X138227326Y-79021307D01*
X138175000Y-79042981D01*
X138122674Y-79021307D01*
X138018415Y-78917048D01*
X137895494Y-78834915D01*
X137758917Y-78778343D01*
X137758907Y-78778340D01*
X137661811Y-78759026D01*
X137613918Y-78749500D01*
X137466082Y-78749500D01*
X137424977Y-78757676D01*
X137321092Y-78778340D01*
X137321082Y-78778343D01*
X137184505Y-78834915D01*
X137061584Y-78917048D01*
X137061583Y-78917050D01*
X136957326Y-79021307D01*
X136905000Y-79042981D01*
X136852674Y-79021307D01*
X136748415Y-78917048D01*
X136625494Y-78834915D01*
X136488917Y-78778343D01*
X136488907Y-78778340D01*
X136391811Y-78759026D01*
X136343918Y-78749500D01*
X136196082Y-78749500D01*
X136154977Y-78757676D01*
X136051092Y-78778340D01*
X136051082Y-78778343D01*
X135914505Y-78834915D01*
X135791584Y-78917048D01*
X135791583Y-78917050D01*
X135687326Y-79021307D01*
X135635000Y-79042981D01*
X135582674Y-79021307D01*
X135478415Y-78917048D01*
X135355494Y-78834915D01*
X135218917Y-78778343D01*
X135218907Y-78778340D01*
X135121811Y-78759026D01*
X135073918Y-78749500D01*
X134926082Y-78749500D01*
X134884977Y-78757676D01*
X134781092Y-78778340D01*
X134781082Y-78778343D01*
X134644505Y-78834915D01*
X134521584Y-78917048D01*
X134521583Y-78917050D01*
X134417326Y-79021307D01*
X134365000Y-79042981D01*
X134312674Y-79021307D01*
X134208415Y-78917048D01*
X134085494Y-78834915D01*
X133948917Y-78778343D01*
X133948907Y-78778340D01*
X133851811Y-78759026D01*
X133803918Y-78749500D01*
X133656082Y-78749500D01*
X133614977Y-78757676D01*
X133511092Y-78778340D01*
X133511082Y-78778343D01*
X133374505Y-78834915D01*
X133281493Y-78897064D01*
X133225944Y-78908113D01*
X133178852Y-78876647D01*
X133178852Y-78876646D01*
X133140603Y-78819401D01*
X133140600Y-78819398D01*
X133057740Y-78764034D01*
X132984674Y-78749500D01*
X131935326Y-78749500D01*
X131886615Y-78759189D01*
X131862259Y-78764034D01*
X131779399Y-78819398D01*
X131779398Y-78819399D01*
X131724034Y-78902259D01*
X131724034Y-78902260D01*
X131709500Y-78975326D01*
X100500500Y-78975326D01*
X100500500Y-61931633D01*
X129606000Y-61931633D01*
X129606000Y-62118568D01*
X129642467Y-62301907D01*
X129642469Y-62301914D01*
X129713908Y-62474384D01*
X129714007Y-62474621D01*
X129783555Y-62578707D01*
X129817652Y-62629738D01*
X129817863Y-62630053D01*
X129950048Y-62762238D01*
X130105480Y-62866094D01*
X130278187Y-62937632D01*
X130461532Y-62974101D01*
X130461533Y-62974101D01*
X130648467Y-62974101D01*
X130648468Y-62974101D01*
X130831813Y-62937632D01*
X131004520Y-62866094D01*
X131159952Y-62762238D01*
X131292137Y-62630053D01*
X131395993Y-62474621D01*
X131467531Y-62301914D01*
X131504000Y-62118569D01*
X131504000Y-61931633D01*
X132146000Y-61931633D01*
X132146000Y-62118568D01*
X132182467Y-62301907D01*
X132182469Y-62301914D01*
X132253908Y-62474384D01*
X132254007Y-62474621D01*
X132323555Y-62578707D01*
X132357652Y-62629738D01*
X132357863Y-62630053D01*
X132490048Y-62762238D01*
X132645480Y-62866094D01*
X132818187Y-62937632D01*
X133001532Y-62974101D01*
X133001533Y-62974101D01*
X133188467Y-62974101D01*
X133188468Y-62974101D01*
X133371813Y-62937632D01*
X133544520Y-62866094D01*
X133699952Y-62762238D01*
X133832137Y-62630053D01*
X133935993Y-62474621D01*
X134007531Y-62301914D01*
X134044000Y-62118569D01*
X134044000Y-61931633D01*
X134686000Y-61931633D01*
X134686000Y-62118568D01*
X134722467Y-62301907D01*
X134722469Y-62301914D01*
X134793908Y-62474384D01*
X134794007Y-62474621D01*
X134863555Y-62578707D01*
X134897652Y-62629738D01*
X134897863Y-62630053D01*
X135030048Y-62762238D01*
X135185480Y-62866094D01*
X135358187Y-62937632D01*
X135541532Y-62974101D01*
X135541533Y-62974101D01*
X135728467Y-62974101D01*
X135728468Y-62974101D01*
X135911813Y-62937632D01*
X136084520Y-62866094D01*
X136239952Y-62762238D01*
X136372137Y-62630053D01*
X136475993Y-62474621D01*
X136547531Y-62301914D01*
X136584000Y-62118569D01*
X136584000Y-61931683D01*
X137226500Y-61931683D01*
X137226500Y-62118518D01*
X137262949Y-62301762D01*
X137262951Y-62301768D01*
X137334451Y-62474384D01*
X137438251Y-62629733D01*
X137451276Y-62642758D01*
X137810779Y-62283253D01*
X137819311Y-62298031D01*
X137902070Y-62380790D01*
X137916845Y-62389320D01*
X137557342Y-62748824D01*
X137570367Y-62761849D01*
X137725716Y-62865649D01*
X137898332Y-62937149D01*
X137898338Y-62937151D01*
X138081583Y-62973601D01*
X138268417Y-62973601D01*
X138451661Y-62937151D01*
X138451667Y-62937149D01*
X138624283Y-62865649D01*
X138779633Y-62761848D01*
X138779637Y-62761845D01*
X138792657Y-62748825D01*
X138792656Y-62748824D01*
X138433153Y-62389321D01*
X138447930Y-62380790D01*
X138530689Y-62298031D01*
X138539220Y-62283254D01*
X138898724Y-62642758D01*
X138911744Y-62629738D01*
X138911747Y-62629734D01*
X139015548Y-62474384D01*
X139087048Y-62301768D01*
X139087050Y-62301762D01*
X139123500Y-62118518D01*
X139123500Y-61931683D01*
X139087050Y-61748439D01*
X139087048Y-61748433D01*
X139015548Y-61575817D01*
X138911748Y-61420468D01*
X138898723Y-61407443D01*
X138539219Y-61766946D01*
X138530689Y-61752171D01*
X138447930Y-61669412D01*
X138433152Y-61660880D01*
X138792657Y-61301377D01*
X138779632Y-61288352D01*
X138624283Y-61184552D01*
X138451667Y-61113052D01*
X138451661Y-61113050D01*
X138268417Y-61076601D01*
X138081583Y-61076601D01*
X137898338Y-61113050D01*
X137898332Y-61113052D01*
X137725716Y-61184552D01*
X137570368Y-61288351D01*
X137570360Y-61288358D01*
X137557342Y-61301376D01*
X137557342Y-61301377D01*
X137916846Y-61660881D01*
X137902070Y-61669412D01*
X137819311Y-61752171D01*
X137810780Y-61766947D01*
X137451276Y-61407443D01*
X137451275Y-61407443D01*
X137438257Y-61420461D01*
X137438250Y-61420469D01*
X137334451Y-61575817D01*
X137262951Y-61748433D01*
X137262949Y-61748439D01*
X137226500Y-61931683D01*
X136584000Y-61931683D01*
X136584000Y-61931633D01*
X136547531Y-61748288D01*
X136475993Y-61575581D01*
X136372137Y-61420149D01*
X136239952Y-61287964D01*
X136084520Y-61184108D01*
X136084517Y-61184106D01*
X136084516Y-61184106D01*
X135911813Y-61112570D01*
X135911806Y-61112568D01*
X135773681Y-61085094D01*
X135728468Y-61076101D01*
X135541532Y-61076101D01*
X135505262Y-61083315D01*
X135358193Y-61112568D01*
X135358186Y-61112570D01*
X135185483Y-61184106D01*
X135030048Y-61287963D01*
X135030047Y-61287965D01*
X134897864Y-61420148D01*
X134897862Y-61420149D01*
X134794005Y-61575584D01*
X134722469Y-61748287D01*
X134722467Y-61748294D01*
X134686000Y-61931633D01*
X134044000Y-61931633D01*
X134007531Y-61748288D01*
X133935993Y-61575581D01*
X133832137Y-61420149D01*
X133699952Y-61287964D01*
X133544520Y-61184108D01*
X133544517Y-61184106D01*
X133544516Y-61184106D01*
X133371813Y-61112570D01*
X133371806Y-61112568D01*
X133233681Y-61085094D01*
X133188468Y-61076101D01*
X133001532Y-61076101D01*
X132965262Y-61083315D01*
X132818193Y-61112568D01*
X132818186Y-61112570D01*
X132645483Y-61184106D01*
X132490048Y-61287963D01*
X132490047Y-61287965D01*
X132357864Y-61420148D01*
X132357862Y-61420149D01*
X132254005Y-61575584D01*
X132182469Y-61748287D01*
X132182467Y-61748294D01*
X132146000Y-61931633D01*
X131504000Y-61931633D01*
X131467531Y-61748288D01*
X131395993Y-61575581D01*
X131292137Y-61420149D01*
X131159952Y-61287964D01*
X131004520Y-61184108D01*
X131004517Y-61184106D01*
X131004516Y-61184106D01*
X130831813Y-61112570D01*
X130831806Y-61112568D01*
X130693681Y-61085094D01*
X130648468Y-61076101D01*
X130461532Y-61076101D01*
X130425262Y-61083315D01*
X130278193Y-61112568D01*
X130278186Y-61112570D01*
X130105483Y-61184106D01*
X129950048Y-61287963D01*
X129950047Y-61287965D01*
X129817864Y-61420148D01*
X129817862Y-61420149D01*
X129714005Y-61575584D01*
X129642469Y-61748287D01*
X129642467Y-61748294D01*
X129606000Y-61931633D01*
X100500500Y-61931633D01*
X100500500Y-59391633D01*
X130876000Y-59391633D01*
X130876000Y-59578568D01*
X130912467Y-59761907D01*
X130912469Y-59761914D01*
X130984007Y-59934621D01*
X131087863Y-60090053D01*
X131220048Y-60222238D01*
X131375480Y-60326094D01*
X131548187Y-60397632D01*
X131731532Y-60434101D01*
X131731533Y-60434101D01*
X131918467Y-60434101D01*
X131918468Y-60434101D01*
X132101813Y-60397632D01*
X132274520Y-60326094D01*
X132429952Y-60222238D01*
X132562137Y-60090053D01*
X132665993Y-59934621D01*
X132737531Y-59761914D01*
X132774000Y-59578569D01*
X132774000Y-59391633D01*
X133416000Y-59391633D01*
X133416000Y-59578568D01*
X133452467Y-59761907D01*
X133452469Y-59761914D01*
X133524007Y-59934621D01*
X133627863Y-60090053D01*
X133760048Y-60222238D01*
X133915480Y-60326094D01*
X134088187Y-60397632D01*
X134271532Y-60434101D01*
X134271533Y-60434101D01*
X134458467Y-60434101D01*
X134458468Y-60434101D01*
X134641813Y-60397632D01*
X134814520Y-60326094D01*
X134969952Y-60222238D01*
X135102137Y-60090053D01*
X135205993Y-59934621D01*
X135277531Y-59761914D01*
X135314000Y-59578569D01*
X135314000Y-59391633D01*
X135956000Y-59391633D01*
X135956000Y-59578568D01*
X135992467Y-59761907D01*
X135992469Y-59761914D01*
X136064007Y-59934621D01*
X136167863Y-60090053D01*
X136300048Y-60222238D01*
X136455480Y-60326094D01*
X136628187Y-60397632D01*
X136811532Y-60434101D01*
X136811533Y-60434101D01*
X136998467Y-60434101D01*
X136998468Y-60434101D01*
X137181813Y-60397632D01*
X137354520Y-60326094D01*
X137509952Y-60222238D01*
X137642137Y-60090053D01*
X137745993Y-59934621D01*
X137817531Y-59761914D01*
X137854000Y-59578569D01*
X137854000Y-59391633D01*
X138496000Y-59391633D01*
X138496000Y-59578568D01*
X138532467Y-59761907D01*
X138532469Y-59761914D01*
X138604007Y-59934621D01*
X138707863Y-60090053D01*
X138840048Y-60222238D01*
X138995480Y-60326094D01*
X139168187Y-60397632D01*
X139351532Y-60434101D01*
X139351533Y-60434101D01*
X139538467Y-60434101D01*
X139538468Y-60434101D01*
X139721813Y-60397632D01*
X139894520Y-60326094D01*
X140049952Y-60222238D01*
X140182137Y-60090053D01*
X140285993Y-59934621D01*
X140357531Y-59761914D01*
X140394000Y-59578569D01*
X140394000Y-59391633D01*
X140357531Y-59208288D01*
X140285993Y-59035581D01*
X140182137Y-58880149D01*
X140049952Y-58747964D01*
X139894520Y-58644108D01*
X139894517Y-58644106D01*
X139894516Y-58644106D01*
X139721813Y-58572570D01*
X139721806Y-58572568D01*
X139583681Y-58545094D01*
X139538468Y-58536101D01*
X139351532Y-58536101D01*
X139315262Y-58543315D01*
X139168193Y-58572568D01*
X139168186Y-58572570D01*
X138995483Y-58644106D01*
X138840048Y-58747963D01*
X138840047Y-58747965D01*
X138707864Y-58880148D01*
X138707862Y-58880149D01*
X138604005Y-59035584D01*
X138532469Y-59208287D01*
X138532467Y-59208294D01*
X138496000Y-59391633D01*
X137854000Y-59391633D01*
X137817531Y-59208288D01*
X137745993Y-59035581D01*
X137642137Y-58880149D01*
X137509952Y-58747964D01*
X137354520Y-58644108D01*
X137354517Y-58644106D01*
X137354516Y-58644106D01*
X137181813Y-58572570D01*
X137181806Y-58572568D01*
X137043681Y-58545094D01*
X136998468Y-58536101D01*
X136811532Y-58536101D01*
X136775262Y-58543315D01*
X136628193Y-58572568D01*
X136628186Y-58572570D01*
X136455483Y-58644106D01*
X136300048Y-58747963D01*
X136300047Y-58747965D01*
X136167864Y-58880148D01*
X136167862Y-58880149D01*
X136064005Y-59035584D01*
X135992469Y-59208287D01*
X135992467Y-59208294D01*
X135956000Y-59391633D01*
X135314000Y-59391633D01*
X135277531Y-59208288D01*
X135205993Y-59035581D01*
X135102137Y-58880149D01*
X134969952Y-58747964D01*
X134814520Y-58644108D01*
X134814517Y-58644106D01*
X134814516Y-58644106D01*
X134641813Y-58572570D01*
X134641806Y-58572568D01*
X134503681Y-58545094D01*
X134458468Y-58536101D01*
X134271532Y-58536101D01*
X134235262Y-58543315D01*
X134088193Y-58572568D01*
X134088186Y-58572570D01*
X133915483Y-58644106D01*
X133760048Y-58747963D01*
X133760047Y-58747965D01*
X133627864Y-58880148D01*
X133627862Y-58880149D01*
X133524005Y-59035584D01*
X133452469Y-59208287D01*
X133452467Y-59208294D01*
X133416000Y-59391633D01*
X132774000Y-59391633D01*
X132737531Y-59208288D01*
X132665993Y-59035581D01*
X132562137Y-58880149D01*
X132429952Y-58747964D01*
X132274520Y-58644108D01*
X132274517Y-58644106D01*
X132274516Y-58644106D01*
X132101813Y-58572570D01*
X132101806Y-58572568D01*
X131963681Y-58545094D01*
X131918468Y-58536101D01*
X131731532Y-58536101D01*
X131695262Y-58543315D01*
X131548193Y-58572568D01*
X131548186Y-58572570D01*
X131375483Y-58644106D01*
X131220048Y-58747963D01*
X131220047Y-58747965D01*
X131087864Y-58880148D01*
X131087862Y-58880149D01*
X130984005Y-59035584D01*
X130912469Y-59208287D01*
X130912467Y-59208294D01*
X130876000Y-59391633D01*
X100500500Y-59391633D01*
X100500500Y-52995521D01*
X127155400Y-52995521D01*
X127155400Y-53274680D01*
X127191836Y-53551450D01*
X127191838Y-53551459D01*
X127264090Y-53821106D01*
X127370918Y-54079011D01*
X127370921Y-54079019D01*
X127510502Y-54320781D01*
X127680451Y-54542260D01*
X127726113Y-54587922D01*
X128082494Y-54231541D01*
X128188560Y-54337607D01*
X127832179Y-54693988D01*
X127877840Y-54739649D01*
X128099319Y-54909598D01*
X128341081Y-55049179D01*
X128341089Y-55049182D01*
X128598994Y-55156010D01*
X128868641Y-55228262D01*
X128868650Y-55228264D01*
X129145421Y-55264701D01*
X129424579Y-55264701D01*
X129701349Y-55228264D01*
X129701358Y-55228262D01*
X129971005Y-55156010D01*
X130228910Y-55049182D01*
X130228918Y-55049179D01*
X130470680Y-54909598D01*
X130692159Y-54739649D01*
X130737821Y-54693988D01*
X130381440Y-54337607D01*
X130487506Y-54231541D01*
X130843887Y-54587922D01*
X130889548Y-54542260D01*
X131059497Y-54320781D01*
X131199078Y-54079019D01*
X131199081Y-54079011D01*
X131305909Y-53821106D01*
X131378161Y-53551459D01*
X131378163Y-53551450D01*
X131414600Y-53274680D01*
X131414600Y-52995521D01*
X138585400Y-52995521D01*
X138585400Y-53274680D01*
X138621836Y-53551450D01*
X138621838Y-53551459D01*
X138694090Y-53821106D01*
X138800918Y-54079011D01*
X138800921Y-54079019D01*
X138940502Y-54320781D01*
X139110451Y-54542260D01*
X139156113Y-54587922D01*
X139512494Y-54231541D01*
X139618560Y-54337607D01*
X139262179Y-54693988D01*
X139307840Y-54739649D01*
X139529319Y-54909598D01*
X139771081Y-55049179D01*
X139771089Y-55049182D01*
X140028994Y-55156010D01*
X140298641Y-55228262D01*
X140298650Y-55228264D01*
X140575421Y-55264701D01*
X140854579Y-55264701D01*
X141131349Y-55228264D01*
X141131358Y-55228262D01*
X141401005Y-55156010D01*
X141658910Y-55049182D01*
X141658918Y-55049179D01*
X141900680Y-54909598D01*
X142122159Y-54739649D01*
X142167821Y-54693988D01*
X141811440Y-54337607D01*
X141917506Y-54231541D01*
X142273887Y-54587922D01*
X142319548Y-54542260D01*
X142489497Y-54320781D01*
X142629078Y-54079019D01*
X142629081Y-54079011D01*
X142735909Y-53821106D01*
X142808161Y-53551459D01*
X142808163Y-53551450D01*
X142844600Y-53274680D01*
X142844600Y-52995521D01*
X142808163Y-52718751D01*
X142808161Y-52718742D01*
X142735909Y-52449095D01*
X142629081Y-52191190D01*
X142629078Y-52191182D01*
X142489497Y-51949420D01*
X142319548Y-51727941D01*
X142273887Y-51682280D01*
X141917506Y-52038661D01*
X141811440Y-51932595D01*
X142167821Y-51576214D01*
X142122159Y-51530552D01*
X141900680Y-51360603D01*
X141658918Y-51221022D01*
X141658910Y-51221019D01*
X141401005Y-51114191D01*
X141131358Y-51041939D01*
X141131349Y-51041937D01*
X140854579Y-51005501D01*
X140575421Y-51005501D01*
X140298650Y-51041937D01*
X140298641Y-51041939D01*
X140028994Y-51114191D01*
X139771089Y-51221019D01*
X139771081Y-51221022D01*
X139529319Y-51360603D01*
X139307840Y-51530552D01*
X139262179Y-51576214D01*
X139618560Y-51932595D01*
X139512494Y-52038661D01*
X139156113Y-51682280D01*
X139110451Y-51727941D01*
X138940502Y-51949420D01*
X138800921Y-52191182D01*
X138800918Y-52191190D01*
X138694090Y-52449095D01*
X138621838Y-52718742D01*
X138621836Y-52718751D01*
X138585400Y-52995521D01*
X131414600Y-52995521D01*
X131378163Y-52718751D01*
X131378161Y-52718742D01*
X131305909Y-52449095D01*
X131199081Y-52191190D01*
X131199078Y-52191182D01*
X131059497Y-51949420D01*
X130889548Y-51727941D01*
X130843887Y-51682280D01*
X130487506Y-52038661D01*
X130381440Y-51932595D01*
X130737821Y-51576214D01*
X130692159Y-51530552D01*
X130470680Y-51360603D01*
X130228918Y-51221022D01*
X130228910Y-51221019D01*
X129971005Y-51114191D01*
X129701358Y-51041939D01*
X129701349Y-51041937D01*
X129424579Y-51005501D01*
X129145421Y-51005501D01*
X128868650Y-51041937D01*
X128868641Y-51041939D01*
X128598994Y-51114191D01*
X128341089Y-51221019D01*
X128341081Y-51221022D01*
X128099319Y-51360603D01*
X127877840Y-51530552D01*
X127832179Y-51576214D01*
X128188560Y-51932595D01*
X128082494Y-52038661D01*
X127726113Y-51682280D01*
X127680451Y-51727941D01*
X127510502Y-51949420D01*
X127370921Y-52191182D01*
X127370918Y-52191190D01*
X127264090Y-52449095D01*
X127191838Y-52718742D01*
X127191836Y-52718751D01*
X127155400Y-52995521D01*
X100500500Y-52995521D01*
X100500500Y-48237966D01*
X100522174Y-48185640D01*
X103185640Y-45522174D01*
X103237966Y-45500500D01*
X166762034Y-45500500D01*
X166814360Y-45522174D01*
G37*
%TD.AperFunction*%
%TD*%
M02*
