%TF.GenerationSoftware,KiCad,Pcbnew,10.0.0*%
%TF.CreationDate,2026-04-08T16:58:37+02:00*%
%TF.ProjectId,Programmer_Shell_Module,50726f67-7261-46d6-9d65-725f5368656c,1.0*%
%TF.SameCoordinates,Original*%
%TF.FileFunction,Legend,Top*%
%TF.FilePolarity,Positive*%
%FSLAX46Y46*%
G04 Gerber Fmt 4.6, Leading zero omitted, Abs format (unit mm)*
G04 Created by KiCad (PCBNEW 10.0.0) date 2026-04-08 16:58:37*
%MOMM*%
%LPD*%
G01*
G04 APERTURE LIST*
%ADD10C,0.200000*%
%ADD11C,0.450000*%
%ADD12C,0.100000*%
%ADD13C,0.300000*%
%ADD14C,0.120000*%
%ADD15C,0.508000*%
%ADD16C,0.152400*%
G04 APERTURE END LIST*
D10*
G36*
X118446092Y-104406765D02*
G01*
X118664689Y-104406765D01*
X118321100Y-105415000D01*
X118122287Y-105415000D01*
X117782117Y-104406765D01*
X118006882Y-104406765D01*
X118225479Y-105172161D01*
X118446092Y-104406765D01*
G37*
G36*
X119052558Y-104653093D02*
G01*
X119108048Y-104664809D01*
X119158731Y-104683859D01*
X119205026Y-104711183D01*
X119245862Y-104747468D01*
X119281707Y-104793707D01*
X119307083Y-104839372D01*
X119326046Y-104890279D01*
X119338433Y-104947213D01*
X119343479Y-105004013D01*
X119344600Y-105094553D01*
X118834987Y-105094553D01*
X118841766Y-105151079D01*
X118856297Y-105194790D01*
X118877500Y-105228377D01*
X118905329Y-105253738D01*
X118933410Y-105269258D01*
X118965441Y-105278804D01*
X119002355Y-105282131D01*
X119041080Y-105278051D01*
X119073149Y-105266496D01*
X119099991Y-105247754D01*
X119118647Y-105226499D01*
X119136200Y-105196158D01*
X119335013Y-105196158D01*
X119324877Y-105238080D01*
X119302715Y-105282415D01*
X119266015Y-105330247D01*
X119225677Y-105368439D01*
X119179696Y-105398237D01*
X119127269Y-105420031D01*
X119067261Y-105433664D01*
X118998264Y-105438447D01*
X118928802Y-105432635D01*
X118864541Y-105415549D01*
X118804398Y-105387188D01*
X118747548Y-105346856D01*
X118710663Y-105308513D01*
X118681011Y-105261338D01*
X118658604Y-105203782D01*
X118644133Y-105133787D01*
X118638921Y-105048879D01*
X118644937Y-104965593D01*
X118839750Y-104965593D01*
X119142367Y-104965593D01*
X119134409Y-104916145D01*
X119118580Y-104878116D01*
X119095594Y-104849028D01*
X119065575Y-104827068D01*
X119031278Y-104813851D01*
X118991425Y-104809277D01*
X118948203Y-104814332D01*
X118913928Y-104828484D01*
X118886523Y-104851409D01*
X118865560Y-104881418D01*
X118849806Y-104918935D01*
X118839750Y-104965593D01*
X118644937Y-104965593D01*
X118645927Y-104951894D01*
X118665438Y-104872057D01*
X118695927Y-104806310D01*
X118736924Y-104752247D01*
X118789161Y-104707405D01*
X118848023Y-104675489D01*
X118914826Y-104655878D01*
X118991425Y-104649054D01*
X119052558Y-104653093D01*
G37*
G36*
X119879736Y-104649054D02*
G01*
X119888895Y-104649054D01*
X119905687Y-104649054D01*
X119905687Y-104848356D01*
X119872897Y-104848356D01*
X119849694Y-104848356D01*
X119791715Y-104853981D01*
X119748128Y-104869218D01*
X119715544Y-104892789D01*
X119691852Y-104925109D01*
X119680426Y-104954969D01*
X119672410Y-104997957D01*
X119669321Y-105058039D01*
X119669321Y-105415000D01*
X119473255Y-105415000D01*
X119473255Y-104668593D01*
X119659063Y-104668593D01*
X119659063Y-104798469D01*
X119704818Y-104730373D01*
X119737648Y-104695399D01*
X119776442Y-104670262D01*
X119823118Y-104654610D01*
X119879736Y-104649054D01*
G37*
G36*
X120171179Y-105168803D02*
G01*
X120181935Y-105216189D01*
X120197801Y-105242991D01*
X120224961Y-105262903D01*
X120267522Y-105276714D01*
X120331707Y-105282131D01*
X120385682Y-105277375D01*
X120422871Y-105265034D01*
X120442128Y-105251262D01*
X120452993Y-105234505D01*
X120456699Y-105213743D01*
X120449842Y-105184816D01*
X120429405Y-105163857D01*
X120384034Y-105146477D01*
X120226500Y-105106093D01*
X120142953Y-105081130D01*
X120085633Y-105055141D01*
X120048203Y-105028913D01*
X120020105Y-104995138D01*
X120002603Y-104952080D01*
X119996301Y-104896899D01*
X120001332Y-104847972D01*
X120016160Y-104803176D01*
X120041065Y-104761465D01*
X120077206Y-104722144D01*
X120119420Y-104691527D01*
X120170239Y-104668775D01*
X120231386Y-104654252D01*
X120305024Y-104649054D01*
X120396544Y-104655879D01*
X120471196Y-104674825D01*
X120532109Y-104704375D01*
X120569918Y-104735498D01*
X120599343Y-104776255D01*
X120620642Y-104828560D01*
X120632920Y-104895251D01*
X120438258Y-104895251D01*
X120430495Y-104860919D01*
X120417070Y-104836632D01*
X120392774Y-104816128D01*
X120357647Y-104802652D01*
X120307772Y-104797554D01*
X120249550Y-104803321D01*
X120217280Y-104817093D01*
X120196609Y-104838991D01*
X120190291Y-104862766D01*
X120193581Y-104883008D01*
X120202945Y-104898533D01*
X120218989Y-104910516D01*
X120265297Y-104926404D01*
X120421833Y-104963333D01*
X120497392Y-104986089D01*
X120554243Y-105013805D01*
X120596039Y-105045643D01*
X120627858Y-105086193D01*
X120646873Y-105132521D01*
X120653436Y-105186449D01*
X120648116Y-105240351D01*
X120632717Y-105287756D01*
X120607344Y-105330023D01*
X120571127Y-105368044D01*
X120528697Y-105396606D01*
X120474116Y-105418606D01*
X120404561Y-105433119D01*
X120316625Y-105438447D01*
X120227293Y-105432740D01*
X120156517Y-105417166D01*
X120100818Y-105393461D01*
X120057362Y-105362487D01*
X120020664Y-105321737D01*
X119994841Y-105276562D01*
X119979135Y-105226037D01*
X119973709Y-105168803D01*
X120171179Y-105168803D01*
G37*
G36*
X120997330Y-104578712D02*
G01*
X120799921Y-104578712D01*
X120799921Y-104402857D01*
X120997330Y-104402857D01*
X120997330Y-104578712D01*
G37*
G36*
X120799921Y-104668593D02*
G01*
X120997330Y-104668593D01*
X120997330Y-105415000D01*
X120799921Y-105415000D01*
X120799921Y-104668593D01*
G37*
G36*
X121598221Y-104654409D02*
G01*
X121663865Y-104669493D01*
X121719565Y-104693304D01*
X121766889Y-104725511D01*
X121806934Y-104766474D01*
X121848017Y-104827563D01*
X121877271Y-104893506D01*
X121895096Y-104965276D01*
X121901212Y-105044117D01*
X121895037Y-105124387D01*
X121877121Y-105196728D01*
X121847856Y-105262493D01*
X121806934Y-105322737D01*
X121766984Y-105363025D01*
X121719719Y-105394758D01*
X121664025Y-105418254D01*
X121598329Y-105433154D01*
X121520682Y-105438447D01*
X121443062Y-105433155D01*
X121377384Y-105418256D01*
X121321702Y-105394761D01*
X121274441Y-105363027D01*
X121234490Y-105322737D01*
X121193568Y-105262493D01*
X121164304Y-105196728D01*
X121146387Y-105124387D01*
X121140212Y-105044117D01*
X121140269Y-105043384D01*
X121342445Y-105043384D01*
X121348327Y-105117250D01*
X121364252Y-105173915D01*
X121388546Y-105217102D01*
X121413831Y-105243659D01*
X121443518Y-105262493D01*
X121478479Y-105274128D01*
X121520071Y-105278224D01*
X121561632Y-105274123D01*
X121596503Y-105262483D01*
X121626055Y-105243652D01*
X121651168Y-105217102D01*
X121675292Y-105173939D01*
X121691117Y-105117275D01*
X121696964Y-105043384D01*
X121691109Y-104969493D01*
X121675277Y-104912967D01*
X121651168Y-104870033D01*
X121616758Y-104836613D01*
X121573952Y-104816421D01*
X121520071Y-104809277D01*
X121466135Y-104816414D01*
X121423178Y-104836604D01*
X121388546Y-104870033D01*
X121364266Y-104912992D01*
X121348335Y-104969518D01*
X121342445Y-105043384D01*
X121140269Y-105043384D01*
X121146328Y-104965276D01*
X121164153Y-104893506D01*
X121193407Y-104827563D01*
X121234490Y-104766474D01*
X121274536Y-104725508D01*
X121321856Y-104693301D01*
X121377545Y-104669491D01*
X121443171Y-104654408D01*
X121520682Y-104649054D01*
X121598221Y-104654409D01*
G37*
G36*
X122453445Y-104649054D02*
G01*
X122528318Y-104656234D01*
X122590403Y-104676489D01*
X122642306Y-104709016D01*
X122672580Y-104741379D01*
X122695371Y-104783863D01*
X122710279Y-104838953D01*
X122715762Y-104909966D01*
X122715762Y-105415000D01*
X122516277Y-105415000D01*
X122516277Y-104958143D01*
X122511796Y-104902659D01*
X122500584Y-104867163D01*
X122483518Y-104842392D01*
X122460597Y-104824663D01*
X122430577Y-104813393D01*
X122391285Y-104809277D01*
X122344107Y-104814974D01*
X122307118Y-104830884D01*
X122277901Y-104856694D01*
X122255364Y-104894030D01*
X122241488Y-104942381D01*
X122236252Y-105008457D01*
X122236252Y-105415000D01*
X122042201Y-105415000D01*
X122042201Y-104668593D01*
X122230085Y-104668593D01*
X122230085Y-104775633D01*
X122268913Y-104724117D01*
X122301099Y-104693750D01*
X122343279Y-104669547D01*
X122393421Y-104654416D01*
X122453445Y-104649054D01*
G37*
G36*
X123290710Y-104731120D02*
G01*
X123290710Y-104598251D01*
X123375944Y-104592544D01*
X123419792Y-104586161D01*
X123457336Y-104574480D01*
X123488906Y-104557458D01*
X123515413Y-104535115D01*
X123537077Y-104505543D01*
X123553698Y-104465261D01*
X123561209Y-104426304D01*
X123723080Y-104426304D01*
X123723080Y-105415000D01*
X123523656Y-105415000D01*
X123523656Y-104731120D01*
X123290710Y-104731120D01*
G37*
G36*
X124058792Y-105211789D02*
G01*
X124265788Y-105211789D01*
X124265788Y-105415000D01*
X124058792Y-105415000D01*
X124058792Y-105211789D01*
G37*
G36*
X124821230Y-104424569D02*
G01*
X124883440Y-104441539D01*
X124934652Y-104468239D01*
X124976760Y-104504566D01*
X125010851Y-104551479D01*
X125041636Y-104617899D01*
X125065566Y-104700751D01*
X125081319Y-104803274D01*
X125087055Y-104929139D01*
X125081310Y-105055077D01*
X125065544Y-105157490D01*
X125041612Y-105240100D01*
X125010851Y-105306189D01*
X124976799Y-105352801D01*
X124934719Y-105388925D01*
X124883513Y-105415495D01*
X124821281Y-105432392D01*
X124745481Y-105438447D01*
X124669682Y-105432392D01*
X124607443Y-105415497D01*
X124556223Y-105388927D01*
X124514124Y-105352803D01*
X124480050Y-105306189D01*
X124449315Y-105240104D01*
X124425402Y-105157495D01*
X124409648Y-105055081D01*
X124403907Y-104929139D01*
X124403954Y-104928101D01*
X124602721Y-104928101D01*
X124606506Y-105042355D01*
X124616449Y-105127072D01*
X124630687Y-105188159D01*
X124649356Y-105229095D01*
X124674107Y-105256258D01*
X124705423Y-105272486D01*
X124745481Y-105278224D01*
X124785482Y-105272474D01*
X124816576Y-105256243D01*
X124840982Y-105229097D01*
X124859176Y-105188159D01*
X124872912Y-105127098D01*
X124882511Y-105042375D01*
X124886165Y-104928101D01*
X124882411Y-104808137D01*
X124872722Y-104722794D01*
X124859176Y-104664380D01*
X124841209Y-104625779D01*
X124816963Y-104599908D01*
X124785813Y-104584281D01*
X124745481Y-104578712D01*
X124705095Y-104584269D01*
X124673720Y-104599891D01*
X124649127Y-104625778D01*
X124630687Y-104664380D01*
X124616646Y-104722817D01*
X124606610Y-104808153D01*
X124602721Y-104928101D01*
X124403954Y-104928101D01*
X124409639Y-104803270D01*
X124425380Y-104700746D01*
X124449291Y-104617896D01*
X124480050Y-104551479D01*
X124514164Y-104504565D01*
X124556291Y-104468237D01*
X124607516Y-104441537D01*
X124669733Y-104424568D01*
X124745481Y-104418489D01*
X124821230Y-104424569D01*
G37*
D11*
G36*
X118612282Y-101613531D02*
G01*
X119049476Y-101613531D01*
X118362299Y-103630000D01*
X117964672Y-103630000D01*
X117284333Y-101613531D01*
X117733862Y-101613531D01*
X118171057Y-103144323D01*
X118612282Y-101613531D01*
G37*
G36*
X119887091Y-102108818D02*
G01*
X120018380Y-102138987D01*
X120129780Y-102186609D01*
X120224428Y-102251022D01*
X120304518Y-102332948D01*
X120386685Y-102455127D01*
X120445193Y-102587013D01*
X120480842Y-102730552D01*
X120493074Y-102888234D01*
X120480724Y-103048774D01*
X120444891Y-103193457D01*
X120386362Y-103324987D01*
X120304518Y-103445474D01*
X120224617Y-103526050D01*
X120130087Y-103589517D01*
X120018701Y-103636509D01*
X119887308Y-103666309D01*
X119732013Y-103676894D01*
X119576774Y-103666310D01*
X119445419Y-103636513D01*
X119334054Y-103589523D01*
X119239532Y-103526055D01*
X119159630Y-103445474D01*
X119077786Y-103324987D01*
X119019257Y-103193457D01*
X118983424Y-103048774D01*
X118971074Y-102888234D01*
X118971188Y-102886769D01*
X119375541Y-102886769D01*
X119387303Y-103034500D01*
X119419154Y-103147830D01*
X119467742Y-103234204D01*
X119518312Y-103287319D01*
X119577686Y-103324986D01*
X119647609Y-103348256D01*
X119730792Y-103356448D01*
X119813914Y-103348247D01*
X119883656Y-103324967D01*
X119942760Y-103287304D01*
X119992987Y-103234204D01*
X120041233Y-103147879D01*
X120072884Y-103034550D01*
X120084578Y-102886769D01*
X120072868Y-102738986D01*
X120041205Y-102625935D01*
X119992987Y-102540066D01*
X119924166Y-102473226D01*
X119838554Y-102432842D01*
X119730792Y-102418555D01*
X119622920Y-102432828D01*
X119537005Y-102473208D01*
X119467742Y-102540066D01*
X119419183Y-102625984D01*
X119387320Y-102739036D01*
X119375541Y-102886769D01*
X118971188Y-102886769D01*
X118983306Y-102730552D01*
X119018956Y-102587013D01*
X119077464Y-102455127D01*
X119159630Y-102332948D01*
X119239722Y-102251017D01*
X119334361Y-102186603D01*
X119445739Y-102138982D01*
X119576991Y-102108817D01*
X119732013Y-102098108D01*
X119887091Y-102108818D01*
G37*
G36*
X120626186Y-103630000D02*
G01*
X121134455Y-102872602D01*
X120648046Y-102137187D01*
X121124808Y-102137187D01*
X121373447Y-102570230D01*
X121616713Y-102137187D01*
X122079797Y-102137187D01*
X121590701Y-102865764D01*
X122098970Y-103630000D01*
X121613904Y-103630000D01*
X121357083Y-103181814D01*
X121098918Y-103630000D01*
X120626186Y-103630000D01*
G37*
G36*
X122359089Y-101613531D02*
G01*
X122779920Y-101613531D01*
X122779920Y-103278290D01*
X123777285Y-103278290D01*
X123777285Y-103630000D01*
X122359089Y-103630000D01*
X122359089Y-101613531D01*
G37*
G36*
X124437718Y-101957424D02*
G01*
X124042899Y-101957424D01*
X124042899Y-101605715D01*
X124437718Y-101605715D01*
X124437718Y-101957424D01*
G37*
G36*
X124042899Y-102137187D02*
G01*
X124437718Y-102137187D01*
X124437718Y-103630000D01*
X124042899Y-103630000D01*
X124042899Y-102137187D01*
G37*
G36*
X125640248Y-102098108D02*
G01*
X125789992Y-102112468D01*
X125914163Y-102152979D01*
X126017969Y-102218032D01*
X126078518Y-102282759D01*
X126124100Y-102367727D01*
X126153916Y-102477907D01*
X126164881Y-102619933D01*
X126164881Y-103630000D01*
X125765910Y-103630000D01*
X125765910Y-102716287D01*
X125756949Y-102605319D01*
X125734525Y-102534326D01*
X125700394Y-102484784D01*
X125654552Y-102449326D01*
X125594511Y-102426786D01*
X125515928Y-102418555D01*
X125421572Y-102429949D01*
X125347594Y-102461768D01*
X125289160Y-102513389D01*
X125244086Y-102588060D01*
X125216333Y-102684762D01*
X125205862Y-102816915D01*
X125205862Y-103630000D01*
X124817760Y-103630000D01*
X124817760Y-102137187D01*
X125193527Y-102137187D01*
X125193527Y-102351266D01*
X125271182Y-102248235D01*
X125335555Y-102187501D01*
X125419915Y-102139095D01*
X125520200Y-102108832D01*
X125640248Y-102098108D01*
G37*
G36*
X126520621Y-101621346D02*
G01*
X126903227Y-101621346D01*
X126903227Y-102705662D01*
X127388171Y-102145003D01*
X127870551Y-102145003D01*
X127349947Y-102701266D01*
X127890945Y-103630000D01*
X127421022Y-103630000D01*
X127063695Y-102992159D01*
X126903227Y-103160565D01*
X126903227Y-103630000D01*
X126520621Y-103630000D01*
X126520621Y-101621346D01*
G37*
G36*
X129927311Y-101624366D02*
G01*
X130055994Y-101654961D01*
X130165719Y-101703446D01*
X130259490Y-101769357D01*
X130334961Y-101852901D01*
X130390900Y-101957688D01*
X130426848Y-102088435D01*
X130439864Y-102251493D01*
X130426258Y-102431598D01*
X130389423Y-102570173D01*
X130333429Y-102675972D01*
X130259490Y-102755610D01*
X130166593Y-102816615D01*
X130052789Y-102862657D01*
X129913817Y-102892403D01*
X129744504Y-102903133D01*
X129316835Y-102903133D01*
X129316835Y-103630000D01*
X128898813Y-103630000D01*
X128898813Y-102559239D01*
X129316835Y-102559239D01*
X129708967Y-102559239D01*
X129805621Y-102550119D01*
X129881267Y-102525028D01*
X129940509Y-102485722D01*
X129984280Y-102431085D01*
X130012632Y-102355754D01*
X130023185Y-102252836D01*
X130012485Y-102149935D01*
X129984051Y-102076731D01*
X129940509Y-102025446D01*
X129881697Y-101989271D01*
X129806061Y-101965947D01*
X129708967Y-101957424D01*
X129316835Y-101957424D01*
X129316835Y-102559239D01*
X128898813Y-102559239D01*
X128898813Y-101613531D01*
X129775890Y-101613531D01*
X129927311Y-101624366D01*
G37*
G36*
X131532606Y-102098108D02*
G01*
X131550924Y-102098108D01*
X131584508Y-102098108D01*
X131584508Y-102496713D01*
X131518929Y-102496713D01*
X131472522Y-102496713D01*
X131356563Y-102507963D01*
X131269390Y-102538437D01*
X131204222Y-102585579D01*
X131156839Y-102650219D01*
X131133987Y-102709939D01*
X131117954Y-102795914D01*
X131111776Y-102916078D01*
X131111776Y-103630000D01*
X130719644Y-103630000D01*
X130719644Y-102137187D01*
X131091259Y-102137187D01*
X131091259Y-102396939D01*
X131182771Y-102260746D01*
X131248430Y-102190799D01*
X131326019Y-102140524D01*
X131419370Y-102109220D01*
X131532606Y-102098108D01*
G37*
G36*
X132636568Y-102108818D02*
G01*
X132767857Y-102138987D01*
X132879256Y-102186609D01*
X132973904Y-102251022D01*
X133053995Y-102332948D01*
X133136161Y-102455127D01*
X133194669Y-102587013D01*
X133230318Y-102730552D01*
X133242550Y-102888234D01*
X133230201Y-103048774D01*
X133194368Y-103193457D01*
X133135839Y-103324987D01*
X133053995Y-103445474D01*
X132974094Y-103526050D01*
X132879564Y-103589517D01*
X132768177Y-103636509D01*
X132636784Y-103666309D01*
X132481490Y-103676894D01*
X132326251Y-103666310D01*
X132194895Y-103636513D01*
X132083531Y-103589523D01*
X131989009Y-103526055D01*
X131909107Y-103445474D01*
X131827263Y-103324987D01*
X131768734Y-103193457D01*
X131732901Y-103048774D01*
X131720551Y-102888234D01*
X131720665Y-102886769D01*
X132125017Y-102886769D01*
X132136780Y-103034500D01*
X132168631Y-103147830D01*
X132217219Y-103234204D01*
X132267789Y-103287319D01*
X132327163Y-103324986D01*
X132397085Y-103348256D01*
X132480268Y-103356448D01*
X132563390Y-103348247D01*
X132633133Y-103324967D01*
X132692237Y-103287304D01*
X132742463Y-103234204D01*
X132790710Y-103147879D01*
X132822361Y-103034550D01*
X132834054Y-102886769D01*
X132822345Y-102738986D01*
X132790681Y-102625935D01*
X132742463Y-102540066D01*
X132673643Y-102473226D01*
X132588031Y-102432842D01*
X132480268Y-102418555D01*
X132372397Y-102432828D01*
X132286482Y-102473208D01*
X132217219Y-102540066D01*
X132168659Y-102625984D01*
X132136796Y-102739036D01*
X132125017Y-102886769D01*
X131720665Y-102886769D01*
X131732783Y-102730552D01*
X131768432Y-102587013D01*
X131826940Y-102455127D01*
X131909107Y-102332948D01*
X131989199Y-102251017D01*
X132083838Y-102186603D01*
X132195216Y-102138982D01*
X132326468Y-102108817D01*
X132481490Y-102098108D01*
X132636568Y-102108818D01*
G37*
G36*
X134171774Y-102107264D02*
G01*
X134259578Y-102132791D01*
X134346299Y-102182143D01*
X134422520Y-102253900D01*
X134489166Y-102351755D01*
X134489166Y-102137187D01*
X134867620Y-102137187D01*
X134867620Y-103552452D01*
X134854789Y-103743752D01*
X134820809Y-103885116D01*
X134770656Y-103987815D01*
X134698658Y-104072227D01*
X134604050Y-104140450D01*
X134482372Y-104192693D01*
X134327338Y-104227039D01*
X134131228Y-104239630D01*
X133943504Y-104225836D01*
X133790284Y-104187552D01*
X133665213Y-104127889D01*
X133584871Y-104064843D01*
X133525891Y-103989680D01*
X133486152Y-103900545D01*
X133465788Y-103794131D01*
X133889305Y-103794131D01*
X133912135Y-103854052D01*
X133942550Y-103890484D01*
X133987877Y-103917014D01*
X134055794Y-103935463D01*
X134154431Y-103942630D01*
X134258098Y-103932464D01*
X134335873Y-103904934D01*
X134393889Y-103862318D01*
X134435921Y-103803778D01*
X134458969Y-103741800D01*
X134475711Y-103645933D01*
X134482327Y-103504337D01*
X134482327Y-103409937D01*
X134421743Y-103494917D01*
X134362037Y-103550743D01*
X134280417Y-103597623D01*
X134181229Y-103627228D01*
X134060153Y-103637815D01*
X133920365Y-103624452D01*
X133799696Y-103586119D01*
X133694329Y-103523603D01*
X133601710Y-103435216D01*
X133529507Y-103330105D01*
X133476118Y-103206145D01*
X133442276Y-103059767D01*
X133430692Y-102892875D01*
X133833374Y-102892875D01*
X133844760Y-103019327D01*
X133877093Y-103126493D01*
X133925970Y-103211791D01*
X133987939Y-103269766D01*
X134064801Y-103304920D01*
X134161270Y-103317369D01*
X134247709Y-103305735D01*
X134323683Y-103271506D01*
X134392079Y-103212955D01*
X134441012Y-103137335D01*
X134473883Y-103030010D01*
X134486357Y-102880418D01*
X134474861Y-102739876D01*
X134443897Y-102633634D01*
X134396842Y-102553988D01*
X134330534Y-102491813D01*
X134251959Y-102454848D01*
X134157118Y-102442002D01*
X134060979Y-102454654D01*
X133984474Y-102490419D01*
X133922849Y-102549588D01*
X133874407Y-102637030D01*
X133844481Y-102747665D01*
X133833374Y-102892875D01*
X133430692Y-102892875D01*
X133430251Y-102886524D01*
X133441403Y-102720355D01*
X133473411Y-102573286D01*
X133524901Y-102442450D01*
X133595603Y-102325498D01*
X133667435Y-102243473D01*
X133748618Y-102180793D01*
X133840350Y-102135717D01*
X133944644Y-102107837D01*
X134064183Y-102098108D01*
X134171774Y-102107264D01*
G37*
G36*
X136040352Y-102098108D02*
G01*
X136058670Y-102098108D01*
X136092254Y-102098108D01*
X136092254Y-102496713D01*
X136026675Y-102496713D01*
X135980268Y-102496713D01*
X135864309Y-102507963D01*
X135777136Y-102538437D01*
X135711968Y-102585579D01*
X135664585Y-102650219D01*
X135641733Y-102709939D01*
X135625700Y-102795914D01*
X135619522Y-102916078D01*
X135619522Y-103630000D01*
X135227390Y-103630000D01*
X135227390Y-102137187D01*
X135599005Y-102137187D01*
X135599005Y-102396939D01*
X135690517Y-102260746D01*
X135756176Y-102190799D01*
X135833765Y-102140524D01*
X135927116Y-102109220D01*
X136040352Y-102098108D01*
G37*
G36*
X137066695Y-102109474D02*
G01*
X137210618Y-102142308D01*
X137340457Y-102195561D01*
X137421399Y-102253015D01*
X137479621Y-102330252D01*
X137516768Y-102431594D01*
X137530356Y-102564368D01*
X137530356Y-103253133D01*
X137533042Y-103426789D01*
X137542269Y-103500191D01*
X137556245Y-103535844D01*
X137579433Y-103561303D01*
X137613765Y-103583105D01*
X137613765Y-103630000D01*
X137190125Y-103630000D01*
X137165579Y-103545980D01*
X137154710Y-103456465D01*
X137068232Y-103536835D01*
X136968841Y-103604720D01*
X136882537Y-103644421D01*
X136788387Y-103668596D01*
X136684665Y-103676894D01*
X136554232Y-103663236D01*
X136444312Y-103624288D01*
X136350541Y-103560757D01*
X136294201Y-103498475D01*
X136253414Y-103424558D01*
X136227842Y-103336663D01*
X136218772Y-103231517D01*
X136221094Y-103204284D01*
X136609560Y-103204284D01*
X136616597Y-103269282D01*
X136635509Y-103316497D01*
X136664881Y-103350464D01*
X136725290Y-103383958D01*
X136799459Y-103395526D01*
X136880896Y-103387238D01*
X136957567Y-103362543D01*
X137031001Y-103320666D01*
X137074676Y-103279271D01*
X137108178Y-103222798D01*
X137131050Y-103147382D01*
X137141033Y-103047725D01*
X137141033Y-102900812D01*
X137066539Y-102938914D01*
X136963346Y-102965903D01*
X136875907Y-102982512D01*
X136762443Y-103009646D01*
X136699686Y-103036612D01*
X136649766Y-103079102D01*
X136620068Y-103133657D01*
X136609560Y-103204284D01*
X136221094Y-103204284D01*
X136228084Y-103122320D01*
X136254397Y-103030491D01*
X136296429Y-102952782D01*
X136354507Y-102886846D01*
X136430530Y-102831448D01*
X136510891Y-102794159D01*
X136622129Y-102761389D01*
X136772104Y-102735216D01*
X136904606Y-102718729D01*
X137004559Y-102701532D01*
X137059089Y-102684291D01*
X137107098Y-102654504D01*
X137133493Y-102618098D01*
X137142376Y-102572916D01*
X137134508Y-102515210D01*
X137113172Y-102474326D01*
X137078751Y-102445788D01*
X137006858Y-102420776D01*
X136892271Y-102410739D01*
X136802885Y-102419633D01*
X136740162Y-102443068D01*
X136696999Y-102478517D01*
X136663833Y-102534900D01*
X136642289Y-102613949D01*
X136266643Y-102613949D01*
X136285328Y-102487490D01*
X136322176Y-102382134D01*
X136375942Y-102294113D01*
X136440991Y-102228007D01*
X136522894Y-102174649D01*
X136624767Y-102134074D01*
X136750807Y-102107680D01*
X136906071Y-102098108D01*
X137066695Y-102109474D01*
G37*
G36*
X139539253Y-102098108D02*
G01*
X139636475Y-102107414D01*
X139733304Y-102135722D01*
X139822609Y-102186044D01*
X139906839Y-102267491D01*
X139958606Y-102353324D01*
X139991469Y-102460565D01*
X140001158Y-102545214D01*
X140005146Y-102682581D01*
X140002460Y-103630000D01*
X139603489Y-103630000D01*
X139603489Y-102665851D01*
X139596052Y-102584368D01*
X139576134Y-102524190D01*
X139532847Y-102466406D01*
X139471264Y-102431341D01*
X139384892Y-102418555D01*
X139307951Y-102427721D01*
X139247411Y-102453331D01*
X139199409Y-102494836D01*
X139162142Y-102554720D01*
X139139123Y-102631400D01*
X139130757Y-102728377D01*
X139130757Y-103630000D01*
X138738625Y-103630000D01*
X138738625Y-102736926D01*
X138730468Y-102612892D01*
X138711270Y-102542875D01*
X138669210Y-102483543D01*
X138607409Y-102447447D01*
X138518684Y-102434187D01*
X138436446Y-102442151D01*
X138374578Y-102463729D01*
X138328289Y-102497112D01*
X138294592Y-102542875D01*
X138272284Y-102613046D01*
X138263206Y-102727278D01*
X138263206Y-103630000D01*
X137868388Y-103630000D01*
X137868388Y-102137187D01*
X138246842Y-102137187D01*
X138246842Y-102344305D01*
X138321879Y-102242060D01*
X138383496Y-102183227D01*
X138463140Y-102137361D01*
X138559659Y-102108439D01*
X138677198Y-102098108D01*
X138789042Y-102107121D01*
X138879666Y-102132129D01*
X138953192Y-102171259D01*
X139027225Y-102248181D01*
X139081664Y-102345648D01*
X139138373Y-102266097D01*
X139201526Y-102204246D01*
X139271563Y-102157948D01*
X139353549Y-102125065D01*
X139442338Y-102104991D01*
X139539253Y-102098108D01*
G37*
G36*
X142028576Y-102098108D02*
G01*
X142125798Y-102107414D01*
X142222627Y-102135722D01*
X142311932Y-102186044D01*
X142396162Y-102267491D01*
X142447929Y-102353324D01*
X142480792Y-102460565D01*
X142490481Y-102545214D01*
X142494469Y-102682581D01*
X142491783Y-103630000D01*
X142092812Y-103630000D01*
X142092812Y-102665851D01*
X142085375Y-102584368D01*
X142065457Y-102524190D01*
X142022170Y-102466406D01*
X141960587Y-102431341D01*
X141874215Y-102418555D01*
X141797274Y-102427721D01*
X141736734Y-102453331D01*
X141688732Y-102494836D01*
X141651465Y-102554720D01*
X141628446Y-102631400D01*
X141620080Y-102728377D01*
X141620080Y-103630000D01*
X141227948Y-103630000D01*
X141227948Y-102736926D01*
X141219792Y-102612892D01*
X141200593Y-102542875D01*
X141158533Y-102483543D01*
X141096732Y-102447447D01*
X141008007Y-102434187D01*
X140925769Y-102442151D01*
X140863901Y-102463729D01*
X140817612Y-102497112D01*
X140783915Y-102542875D01*
X140761608Y-102613046D01*
X140752529Y-102727278D01*
X140752529Y-103630000D01*
X140357711Y-103630000D01*
X140357711Y-102137187D01*
X140736165Y-102137187D01*
X140736165Y-102344305D01*
X140811202Y-102242060D01*
X140872819Y-102183227D01*
X140952463Y-102137361D01*
X141048982Y-102108439D01*
X141166521Y-102098108D01*
X141278365Y-102107121D01*
X141368990Y-102132129D01*
X141442516Y-102171259D01*
X141516548Y-102248181D01*
X141570987Y-102345648D01*
X141627696Y-102266097D01*
X141690849Y-102204246D01*
X141760886Y-102157948D01*
X141842872Y-102125065D01*
X141931662Y-102104991D01*
X142028576Y-102098108D01*
G37*
G36*
X143563665Y-102106186D02*
G01*
X143674645Y-102129618D01*
X143776012Y-102167718D01*
X143868601Y-102222367D01*
X143950274Y-102294936D01*
X144021964Y-102387414D01*
X144072714Y-102478744D01*
X144110641Y-102580558D01*
X144135415Y-102694427D01*
X144145507Y-102808026D01*
X144147749Y-102989106D01*
X143128524Y-102989106D01*
X143142082Y-103102159D01*
X143171144Y-103189581D01*
X143213549Y-103256754D01*
X143269208Y-103307477D01*
X143325369Y-103338516D01*
X143389430Y-103357608D01*
X143463259Y-103364263D01*
X143540710Y-103356103D01*
X143604847Y-103332992D01*
X143658531Y-103295509D01*
X143695843Y-103252999D01*
X143730949Y-103192316D01*
X144128576Y-103192316D01*
X144108304Y-103276160D01*
X144063979Y-103364830D01*
X143990579Y-103460495D01*
X143909902Y-103536878D01*
X143817941Y-103596475D01*
X143713088Y-103640062D01*
X143593072Y-103667329D01*
X143455077Y-103676894D01*
X143316154Y-103665270D01*
X143187630Y-103631098D01*
X143067345Y-103574376D01*
X142953646Y-103493712D01*
X142879876Y-103417027D01*
X142820571Y-103322676D01*
X142775757Y-103207564D01*
X142746816Y-103067574D01*
X142736392Y-102897759D01*
X142748424Y-102731186D01*
X143138049Y-102731186D01*
X143743283Y-102731186D01*
X143727368Y-102632290D01*
X143695710Y-102556232D01*
X143649738Y-102498056D01*
X143589700Y-102454136D01*
X143521104Y-102427703D01*
X143441399Y-102418555D01*
X143354955Y-102428665D01*
X143286406Y-102456968D01*
X143231594Y-102502819D01*
X143189670Y-102562837D01*
X143158162Y-102637870D01*
X143138049Y-102731186D01*
X142748424Y-102731186D01*
X142750403Y-102703788D01*
X142789424Y-102544115D01*
X142850403Y-102412621D01*
X142932397Y-102304494D01*
X143036871Y-102214810D01*
X143154595Y-102150978D01*
X143288202Y-102111757D01*
X143441399Y-102098108D01*
X143563665Y-102106186D01*
G37*
G36*
X145218021Y-102098108D02*
G01*
X145236340Y-102098108D01*
X145269923Y-102098108D01*
X145269923Y-102496713D01*
X145204344Y-102496713D01*
X145157938Y-102496713D01*
X145041979Y-102507963D01*
X144954805Y-102538437D01*
X144889638Y-102585579D01*
X144842254Y-102650219D01*
X144819402Y-102709939D01*
X144803369Y-102795914D01*
X144797191Y-102916078D01*
X144797191Y-103630000D01*
X144405059Y-103630000D01*
X144405059Y-102137187D01*
X144776675Y-102137187D01*
X144776675Y-102396939D01*
X144868186Y-102260746D01*
X144933845Y-102190799D01*
X145011434Y-102140524D01*
X145104785Y-102109220D01*
X145218021Y-102098108D01*
G37*
G36*
X146611305Y-103004738D02*
G01*
X146629899Y-103092354D01*
X146655411Y-103157409D01*
X146686409Y-103204651D01*
X146741374Y-103253783D01*
X146814822Y-103291245D01*
X146911510Y-103316011D01*
X147037631Y-103325184D01*
X147179121Y-103316247D01*
X147279431Y-103293066D01*
X147359760Y-103253432D01*
X147412984Y-103203132D01*
X147444581Y-103141255D01*
X147455652Y-103063967D01*
X147445905Y-103003588D01*
X147417510Y-102954092D01*
X147368213Y-102912658D01*
X147267016Y-102867025D01*
X147093562Y-102819113D01*
X146880460Y-102770997D01*
X146669972Y-102715073D01*
X146531389Y-102663228D01*
X146445952Y-102616147D01*
X146358554Y-102538525D01*
X146295844Y-102442785D01*
X146256467Y-102325190D01*
X146242376Y-102179930D01*
X146255028Y-102048511D01*
X146291787Y-101931597D01*
X146352487Y-101826163D01*
X146439114Y-101730157D01*
X146541562Y-101655968D01*
X146668376Y-101600143D01*
X146824742Y-101564056D01*
X147017114Y-101551004D01*
X147174890Y-101562166D01*
X147316379Y-101594423D01*
X147444126Y-101646758D01*
X147560188Y-101719288D01*
X147640698Y-101791733D01*
X147703869Y-101875042D01*
X147750937Y-101970581D01*
X147781975Y-102080486D01*
X147795883Y-102207529D01*
X147391416Y-102207529D01*
X147376657Y-102121725D01*
X147345473Y-102052708D01*
X147298247Y-101996956D01*
X147232903Y-101952662D01*
X147127044Y-101916123D01*
X146988416Y-101902714D01*
X146881694Y-101910860D01*
X146796565Y-101933268D01*
X146728786Y-101967927D01*
X146674509Y-102017567D01*
X146642789Y-102077024D01*
X146631821Y-102149644D01*
X146642609Y-102215541D01*
X146673702Y-102267763D01*
X146727442Y-102309745D01*
X146807029Y-102342794D01*
X146989759Y-102393154D01*
X147336828Y-102476929D01*
X147486981Y-102521412D01*
X147599278Y-102570777D01*
X147681088Y-102623597D01*
X147758754Y-102701080D01*
X147814436Y-102793301D01*
X147849160Y-102903229D01*
X147861462Y-103035268D01*
X147848009Y-103168814D01*
X147808817Y-103287903D01*
X147743770Y-103395713D01*
X147650314Y-103494323D01*
X147540836Y-103570421D01*
X147408236Y-103627315D01*
X147247871Y-103663799D01*
X147053995Y-103676894D01*
X146855869Y-103664115D01*
X146690033Y-103628362D01*
X146551217Y-103572443D01*
X146435084Y-103497620D01*
X146354021Y-103420645D01*
X146291820Y-103334450D01*
X146247003Y-103237796D01*
X146219294Y-103128736D01*
X146209647Y-103004738D01*
X146611305Y-103004738D01*
G37*
G36*
X148962386Y-102098108D02*
G01*
X149095902Y-102110462D01*
X149213102Y-102146102D01*
X149283947Y-102183777D01*
X149345338Y-102232373D01*
X149398238Y-102292648D01*
X149448418Y-102379083D01*
X149473342Y-102464717D01*
X149482895Y-102567036D01*
X149487020Y-102753046D01*
X149487020Y-103630000D01*
X149089393Y-103630000D01*
X149089393Y-102718363D01*
X149078162Y-102604534D01*
X149048360Y-102523091D01*
X149004060Y-102466528D01*
X148939223Y-102431514D01*
X148846249Y-102418555D01*
X148748418Y-102430958D01*
X148672024Y-102465664D01*
X148611898Y-102522358D01*
X148569805Y-102595846D01*
X148542222Y-102692488D01*
X148532031Y-102818747D01*
X148532031Y-103630000D01*
X148143929Y-103630000D01*
X148143929Y-101621346D01*
X148532031Y-101621346D01*
X148532031Y-102327941D01*
X148594103Y-102248080D01*
X148659276Y-102189390D01*
X148728035Y-102148789D01*
X148842239Y-102110794D01*
X148962386Y-102098108D01*
G37*
G36*
X150560734Y-102106186D02*
G01*
X150671714Y-102129618D01*
X150773081Y-102167718D01*
X150865670Y-102222367D01*
X150947343Y-102294936D01*
X151019033Y-102387414D01*
X151069783Y-102478744D01*
X151107710Y-102580558D01*
X151132484Y-102694427D01*
X151142576Y-102808026D01*
X151144818Y-102989106D01*
X150125593Y-102989106D01*
X150139151Y-103102159D01*
X150168213Y-103189581D01*
X150210618Y-103256754D01*
X150266277Y-103307477D01*
X150322438Y-103338516D01*
X150386499Y-103357608D01*
X150460328Y-103364263D01*
X150537779Y-103356103D01*
X150601916Y-103332992D01*
X150655600Y-103295509D01*
X150692912Y-103252999D01*
X150728018Y-103192316D01*
X151125645Y-103192316D01*
X151105373Y-103276160D01*
X151061048Y-103364830D01*
X150987648Y-103460495D01*
X150906972Y-103536878D01*
X150815010Y-103596475D01*
X150710157Y-103640062D01*
X150590141Y-103667329D01*
X150452146Y-103676894D01*
X150313223Y-103665270D01*
X150184699Y-103631098D01*
X150064414Y-103574376D01*
X149950715Y-103493712D01*
X149876945Y-103417027D01*
X149817640Y-103322676D01*
X149772826Y-103207564D01*
X149743885Y-103067574D01*
X149733461Y-102897759D01*
X149745493Y-102731186D01*
X150135118Y-102731186D01*
X150740352Y-102731186D01*
X150724437Y-102632290D01*
X150692779Y-102556232D01*
X150646807Y-102498056D01*
X150586769Y-102454136D01*
X150518174Y-102427703D01*
X150438468Y-102418555D01*
X150352025Y-102428665D01*
X150283475Y-102456968D01*
X150228663Y-102502819D01*
X150186739Y-102562837D01*
X150155231Y-102637870D01*
X150135118Y-102731186D01*
X149745493Y-102731186D01*
X149747472Y-102703788D01*
X149786494Y-102544115D01*
X149847472Y-102412621D01*
X149929466Y-102304494D01*
X150033940Y-102214810D01*
X150151664Y-102150978D01*
X150285271Y-102111757D01*
X150438468Y-102098108D01*
X150560734Y-102106186D01*
G37*
G36*
X151803908Y-103630000D02*
G01*
X151414462Y-103630000D01*
X151414462Y-101621346D01*
X151803908Y-101621346D01*
X151803908Y-103630000D01*
G37*
G36*
X152581577Y-103630000D02*
G01*
X152192132Y-103630000D01*
X152192132Y-101621346D01*
X152581577Y-101621346D01*
X152581577Y-103630000D01*
G37*
D12*
X128250000Y-78250000D02*
X127500000Y-78250000D01*
X128250000Y-77500000D01*
X128250000Y-78250000D01*
G36*
X128250000Y-78250000D02*
G01*
X127500000Y-78250000D01*
X128250000Y-77500000D01*
X128250000Y-78250000D01*
G37*
D13*
G36*
X134843326Y-84724631D02*
G01*
X134907535Y-84754919D01*
X134959150Y-84805049D01*
X134995314Y-84869451D01*
X135019061Y-84954239D01*
X135027844Y-85065076D01*
X135019074Y-85175912D01*
X134995335Y-85260909D01*
X134959150Y-85325653D01*
X134921481Y-85365478D01*
X134877152Y-85393725D01*
X134824846Y-85411185D01*
X134762504Y-85417336D01*
X134700117Y-85411192D01*
X134647675Y-85393740D01*
X134603145Y-85365489D01*
X134565217Y-85325653D01*
X134528776Y-85260873D01*
X134504888Y-85175875D01*
X134496066Y-85065076D01*
X134504900Y-84954277D01*
X134528797Y-84869488D01*
X134565217Y-84805049D01*
X134617164Y-84754906D01*
X134681601Y-84724621D01*
X134762504Y-84713916D01*
X134843326Y-84724631D01*
G37*
G36*
X136860368Y-84720777D02*
G01*
X136911815Y-84740602D01*
X136956843Y-84773542D01*
X136991322Y-84817174D01*
X137015065Y-84874218D01*
X137027002Y-84948389D01*
X136573077Y-84948389D01*
X136588161Y-84878402D01*
X136611792Y-84822127D01*
X136643235Y-84777114D01*
X136684344Y-84742726D01*
X136735756Y-84721499D01*
X136800589Y-84713916D01*
X136860368Y-84720777D01*
G37*
G36*
X137497019Y-85824337D02*
G01*
X132537420Y-85824337D01*
X132537420Y-84874842D01*
X132704087Y-84874842D01*
X132712550Y-85023263D01*
X132736593Y-85152447D01*
X132774693Y-85265056D01*
X132826038Y-85363370D01*
X132890566Y-85449209D01*
X132969250Y-85523097D01*
X133058106Y-85580567D01*
X133158565Y-85622446D01*
X133272663Y-85648545D01*
X133402927Y-85657670D01*
X133532969Y-85647288D01*
X133646517Y-85617538D01*
X133746428Y-85569487D01*
X133834870Y-85502790D01*
X133910468Y-85420491D01*
X133970325Y-85327139D01*
X134015072Y-85221256D01*
X134044430Y-85100797D01*
X133731830Y-85100797D01*
X133693460Y-85207414D01*
X133651871Y-85274453D01*
X133604613Y-85320647D01*
X133548081Y-85353928D01*
X133480391Y-85374764D01*
X133398805Y-85382165D01*
X133320699Y-85374121D01*
X133251345Y-85350708D01*
X133188797Y-85311829D01*
X133131817Y-85255860D01*
X133089004Y-85190820D01*
X133056208Y-85108469D01*
X133047422Y-85066175D01*
X134192716Y-85066175D01*
X134201979Y-85186580D01*
X134228853Y-85295093D01*
X134272750Y-85393740D01*
X134334133Y-85484105D01*
X134394060Y-85544541D01*
X134464951Y-85592142D01*
X134548475Y-85627385D01*
X134646991Y-85649732D01*
X134763420Y-85657670D01*
X134879891Y-85649731D01*
X134978436Y-85627382D01*
X135061976Y-85592138D01*
X135132874Y-85544537D01*
X135192799Y-85484105D01*
X135254182Y-85393740D01*
X135298079Y-85295093D01*
X135324954Y-85186580D01*
X135334216Y-85066175D01*
X135325042Y-84947914D01*
X135298305Y-84840259D01*
X135254424Y-84741345D01*
X135192799Y-84649711D01*
X135132731Y-84588267D01*
X135061745Y-84539956D01*
X134978196Y-84504240D01*
X134972321Y-84502890D01*
X135540570Y-84502890D01*
X135540570Y-85622500D01*
X135834669Y-85622500D01*
X135834669Y-85087058D01*
X135835375Y-85073319D01*
X136271834Y-85073319D01*
X136279652Y-85200680D01*
X136301357Y-85305673D01*
X136334968Y-85392007D01*
X136379447Y-85462770D01*
X136434774Y-85520284D01*
X136520049Y-85580782D01*
X136610262Y-85623324D01*
X136706655Y-85648953D01*
X136810847Y-85657670D01*
X136914343Y-85650496D01*
X137004356Y-85630046D01*
X137082995Y-85597356D01*
X137151966Y-85552658D01*
X137212474Y-85495371D01*
X137267524Y-85423623D01*
X137300768Y-85357120D01*
X137315972Y-85294237D01*
X137017751Y-85294237D01*
X136991422Y-85339749D01*
X136963438Y-85371632D01*
X136923175Y-85399744D01*
X136875072Y-85417077D01*
X136816984Y-85423197D01*
X136761612Y-85418206D01*
X136713566Y-85403887D01*
X136671445Y-85380607D01*
X136629701Y-85342565D01*
X136597897Y-85292186D01*
X136576101Y-85226619D01*
X136565932Y-85141830D01*
X137330352Y-85141830D01*
X137328670Y-85006019D01*
X137321101Y-84920820D01*
X137302520Y-84835419D01*
X137274075Y-84759058D01*
X137236013Y-84690560D01*
X137182245Y-84621202D01*
X137120990Y-84566775D01*
X137051548Y-84525788D01*
X136975523Y-84497213D01*
X136892288Y-84479639D01*
X136800589Y-84473581D01*
X136685691Y-84483818D01*
X136585486Y-84513233D01*
X136497193Y-84561107D01*
X136418837Y-84628370D01*
X136357341Y-84709465D01*
X136311608Y-84808086D01*
X136282342Y-84927841D01*
X136280858Y-84948389D01*
X136271834Y-85073319D01*
X135835375Y-85073319D01*
X135839303Y-84996935D01*
X135851328Y-84932454D01*
X135868467Y-84887664D01*
X135904004Y-84839184D01*
X135952880Y-84803828D01*
X136018260Y-84780972D01*
X136105229Y-84772534D01*
X136140034Y-84772534D01*
X136189218Y-84772534D01*
X136189218Y-84473581D01*
X136164031Y-84473581D01*
X136150292Y-84473581D01*
X136065365Y-84481915D01*
X135995352Y-84505393D01*
X135937160Y-84543099D01*
X135887916Y-84595559D01*
X135819282Y-84697704D01*
X135819282Y-84502890D01*
X135540570Y-84502890D01*
X134972321Y-84502890D01*
X134879729Y-84481614D01*
X134763420Y-84473581D01*
X134647154Y-84481613D01*
X134548715Y-84504237D01*
X134465181Y-84539952D01*
X134394202Y-84588263D01*
X134334133Y-84649711D01*
X134272508Y-84741345D01*
X134228627Y-84840259D01*
X134201890Y-84947914D01*
X134192801Y-85065076D01*
X134192716Y-85066175D01*
X133047422Y-85066175D01*
X133034705Y-85004962D01*
X133026854Y-84875666D01*
X133034156Y-84746570D01*
X133054357Y-84640564D01*
X133085445Y-84553874D01*
X133126230Y-84483290D01*
X133181213Y-84421966D01*
X133243641Y-84379374D01*
X133314997Y-84353573D01*
X133397797Y-84344621D01*
X133481725Y-84351593D01*
X133550407Y-84371046D01*
X133606776Y-84401694D01*
X133652970Y-84443539D01*
X133694446Y-84507858D01*
X133731830Y-84608403D01*
X134047453Y-84608403D01*
X134033377Y-84517686D01*
X133999383Y-84425047D01*
X133942947Y-84328867D01*
X133880474Y-84255017D01*
X133807828Y-84194590D01*
X133723927Y-84146683D01*
X133627097Y-84111178D01*
X133515159Y-84088751D01*
X133385524Y-84080839D01*
X133272460Y-84088728D01*
X133170554Y-84111570D01*
X133078080Y-84148687D01*
X132993635Y-84200167D01*
X132916212Y-84266860D01*
X132842817Y-84355194D01*
X132784508Y-84457711D01*
X132741197Y-84576553D01*
X132713779Y-84714498D01*
X132704087Y-84874842D01*
X132537420Y-84874842D01*
X132537420Y-83914172D01*
X137497019Y-83914172D01*
X137497019Y-85824337D01*
G37*
%TO.C,C1*%
D14*
X128690000Y-76590580D02*
X128690000Y-76309420D01*
X129710000Y-76590580D02*
X129710000Y-76309420D01*
%TO.C,R1*%
X132922500Y-76212742D02*
X132922500Y-76687258D01*
X131877500Y-76212742D02*
X131877500Y-76687258D01*
%TO.C,R2*%
X130277500Y-76687258D02*
X130277500Y-76212742D01*
X131322500Y-76687258D02*
X131322500Y-76212742D01*
%TO.C,J2*%
D15*
X139826000Y-57585101D02*
G75*
G02*
X139064000Y-57585101I-381000J0D01*
G01*
X139064000Y-57585101D02*
G75*
G02*
X139826000Y-57585101I381000J0D01*
G01*
D16*
X127253000Y-45117900D02*
X127253000Y-52260216D01*
X127253000Y-54009986D02*
X127253000Y-63482101D01*
X127253000Y-63482101D02*
X142747000Y-63482101D01*
X142747000Y-45117900D02*
X127253000Y-45117900D01*
X142747000Y-52260216D02*
X142747000Y-45117900D01*
X142747000Y-63482101D02*
X142747000Y-54009986D01*
%TO.C,R3*%
D14*
X129237258Y-65672500D02*
X128762742Y-65672500D01*
X129237258Y-64627500D02*
X128762742Y-64627500D01*
%TO.C,C2*%
X133611252Y-66060000D02*
X132188748Y-66060000D01*
X133611252Y-64240000D02*
X132188748Y-64240000D01*
%TD*%
M02*
