%TF.GenerationSoftware,KiCad,Pcbnew,10.0.0*%
%TF.CreationDate,2026-04-08T16:58:37+02:00*%
%TF.ProjectId,Programmer_Shell_Module,50726f67-7261-46d6-9d65-725f5368656c,1.0*%
%TF.SameCoordinates,Original*%
%TF.FileFunction,Soldermask,Top*%
%TF.FilePolarity,Negative*%
%FSLAX46Y46*%
G04 Gerber Fmt 4.6, Leading zero omitted, Abs format (unit mm)*
G04 Created by KiCad (PCBNEW 10.0.0) date 2026-04-08 16:58:37*
%MOMM*%
%LPD*%
G01*
G04 APERTURE LIST*
G04 Aperture macros list*
%AMRoundRect*
0 Rectangle with rounded corners*
0 $1 Rounding radius*
0 $2 $3 $4 $5 $6 $7 $8 $9 X,Y pos of 4 corners*
0 Add a 4 corners polygon primitive as box body*
4,1,4,$2,$3,$4,$5,$6,$7,$8,$9,$2,$3,0*
0 Add four circle primitives for the rounded corners*
1,1,$1+$1,$2,$3*
1,1,$1+$1,$4,$5*
1,1,$1+$1,$6,$7*
1,1,$1+$1,$8,$9*
0 Add four rect primitives between the rounded corners*
20,1,$1+$1,$2,$3,$4,$5,0*
20,1,$1+$1,$4,$5,$6,$7,0*
20,1,$1+$1,$6,$7,$8,$9,0*
20,1,$1+$1,$8,$9,$2,$3,0*%
G04 Aperture macros list end*
%ADD10RoundRect,0.225000X0.250000X-0.225000X0.250000X0.225000X-0.250000X0.225000X-0.250000X-0.225000X0*%
%ADD11RoundRect,0.200000X-0.275000X0.200000X-0.275000X-0.200000X0.275000X-0.200000X0.275000X0.200000X0*%
%ADD12RoundRect,0.200000X0.275000X-0.200000X0.275000X0.200000X-0.275000X0.200000X-0.275000X-0.200000X0*%
%ADD13R,1.000000X1.000000*%
%ADD14C,1.000000*%
%ADD15C,0.800000*%
%ADD16C,6.400000*%
%ADD17C,3.759200*%
%ADD18C,1.397000*%
%ADD19RoundRect,0.200000X0.200000X0.275000X-0.200000X0.275000X-0.200000X-0.275000X0.200000X-0.275000X0*%
%ADD20RoundRect,0.250000X0.325000X0.650000X-0.325000X0.650000X-0.325000X-0.650000X0.325000X-0.650000X0*%
G04 APERTURE END LIST*
D10*
%TO.C,C1*%
X129200000Y-77225000D03*
X129200000Y-75675000D03*
%TD*%
D11*
%TO.C,R1*%
X132400000Y-75625000D03*
X132400000Y-77275000D03*
%TD*%
D12*
%TO.C,R2*%
X130800000Y-77275000D03*
X130800000Y-75625000D03*
%TD*%
D13*
%TO.C,U1*%
X132460000Y-79500000D03*
D14*
X133730000Y-79500000D03*
X135000000Y-79500000D03*
X136270000Y-79500000D03*
X137540000Y-79500000D03*
X138810000Y-79500000D03*
X140500000Y-81190000D03*
X140500000Y-82460000D03*
X140500000Y-83730000D03*
X140500000Y-85000000D03*
X140500000Y-86270000D03*
X140500000Y-87540000D03*
X140500000Y-88810000D03*
X138810000Y-90500000D03*
X137540000Y-90500000D03*
X136270000Y-90500000D03*
X135000000Y-90500000D03*
X133730000Y-90500000D03*
X132460000Y-90500000D03*
X131190000Y-90500000D03*
X129500000Y-88810000D03*
X129500000Y-87540000D03*
X129500000Y-86270000D03*
X129500000Y-85000000D03*
X129500000Y-83730000D03*
X129500000Y-82460000D03*
X129500000Y-81190000D03*
%TD*%
D15*
%TO.C,H804*%
X160600000Y-52000000D03*
X161302944Y-50302944D03*
X161302944Y-53697056D03*
X163000000Y-49600000D03*
D16*
X163000000Y-52000000D03*
D15*
X163000000Y-54400000D03*
X164697056Y-50302944D03*
X164697056Y-53697056D03*
X165400000Y-52000000D03*
%TD*%
%TO.C,H803*%
X160600000Y-108000000D03*
X161302944Y-106302944D03*
X161302944Y-109697056D03*
X163000000Y-105600000D03*
D16*
X163000000Y-108000000D03*
D15*
X163000000Y-110400000D03*
X164697056Y-106302944D03*
X164697056Y-109697056D03*
X165400000Y-108000000D03*
%TD*%
%TO.C,H802*%
X104600000Y-108000000D03*
X105302944Y-106302944D03*
X105302944Y-109697056D03*
X107000000Y-105600000D03*
D16*
X107000000Y-108000000D03*
D15*
X107000000Y-110400000D03*
X108697056Y-106302944D03*
X108697056Y-109697056D03*
X109400000Y-108000000D03*
%TD*%
%TO.C,H801*%
X104600000Y-52000000D03*
X105302944Y-50302944D03*
X105302944Y-53697056D03*
X107000000Y-49600000D03*
D16*
X107000000Y-52000000D03*
D15*
X107000000Y-54400000D03*
X108697056Y-50302944D03*
X108697056Y-53697056D03*
X109400000Y-52000000D03*
%TD*%
D17*
%TO.C,J2*%
X129285000Y-53135101D03*
X140715000Y-53135101D03*
D18*
X130555000Y-62025101D03*
X131825000Y-59485101D03*
X133095000Y-62025101D03*
X134365000Y-59485101D03*
X135635000Y-62025101D03*
X136905000Y-59485101D03*
X138175000Y-62025101D03*
X139445000Y-59485101D03*
%TD*%
D19*
%TO.C,R3*%
X129825000Y-65150000D03*
X128175000Y-65150000D03*
%TD*%
D20*
%TO.C,C2*%
X134375000Y-65150000D03*
X131425000Y-65150000D03*
%TD*%
M02*
