M48
; DRILL file KiCad 10.0.0 date 2026-04-08T16:58:41
; FORMAT={-:-/ absolute / metric / decimal}
; #@! TF.CreationDate,2026-04-08T16:58:41+02:00
; #@! TF.GenerationSoftware,Kicad,Pcbnew,10.0.0
; #@! TF.FileFunction,Plated,1,4,PTH
FMAT,2
METRIC
; #@! TA.AperFunction,Plated,PTH,ViaDrill
T1C0.300
; #@! TA.AperFunction,Plated,PTH,ComponentDrill
T2C0.500
; #@! TA.AperFunction,Plated,PTH,ComponentDrill
T3C0.650
; #@! TA.AperFunction,Plated,PTH,ComponentDrill
T4C0.889
; #@! TA.AperFunction,Plated,PTH,ComponentDrill
T5C3.200
; #@! TA.AperFunction,Plated,PTH,ComponentDrill
T6C3.251
%
G90
G05
T1
X105.25Y-59.5
X106.5Y-95.5
X109.75Y-107.0
X114.0Y-76.25
X118.25Y-52.0
X122.75Y-90.0
X127.2Y-65.15
X129.2Y-74.7
X130.8Y-74.7
X132.25Y-97.5
X134.5Y-54.0
X143.75Y-101.5
X156.0Y-63.25
X158.75Y-54.75
X161.75Y-101.0
X164.5Y-83.75
T2
X104.6Y-52.0
X104.6Y-108.0
X105.303Y-50.303
X105.303Y-53.697
X105.303Y-106.303
X105.303Y-109.697
X107.0Y-49.6
X107.0Y-54.4
X107.0Y-105.6
X107.0Y-110.4
X108.697Y-50.303
X108.697Y-53.697
X108.697Y-106.303
X108.697Y-109.697
X109.4Y-52.0
X109.4Y-108.0
X160.6Y-52.0
X160.6Y-108.0
X161.303Y-50.303
X161.303Y-53.697
X161.303Y-106.303
X161.303Y-109.697
X163.0Y-49.6
X163.0Y-54.4
X163.0Y-105.6
X163.0Y-110.4
X164.697Y-50.303
X164.697Y-53.697
X164.697Y-106.303
X164.697Y-109.697
X165.4Y-52.0
X165.4Y-108.0
T3
X129.5Y-81.19
X129.5Y-82.46
X129.5Y-83.73
X129.5Y-85.0
X129.5Y-86.27
X129.5Y-87.54
X129.5Y-88.81
X131.19Y-90.5
X132.46Y-79.5
X132.46Y-90.5
X133.73Y-79.5
X133.73Y-90.5
X135.0Y-79.5
X135.0Y-90.5
X136.27Y-79.5
X136.27Y-90.5
X137.54Y-79.5
X137.54Y-90.5
X138.81Y-79.5
X138.81Y-90.5
X140.5Y-81.19
X140.5Y-82.46
X140.5Y-83.73
X140.5Y-85.0
X140.5Y-86.27
X140.5Y-87.54
X140.5Y-88.81
T4
X130.555Y-62.025
X131.825Y-59.485
X133.095Y-62.025
X134.365Y-59.485
X135.635Y-62.025
X136.905Y-59.485
X138.175Y-62.025
X139.445Y-59.485
T5
X107.0Y-52.0
X107.0Y-108.0
X163.0Y-52.0
X163.0Y-108.0
T6
X129.285Y-53.135
X140.715Y-53.135
M30
