M48
; DRILL file KiCad 10.0.0 date 2026-04-03T15:20:14
; FORMAT={-:-/ absolute / metric / decimal}
; #@! TF.CreationDate,2026-04-03T15:20:14+02:00
; #@! TF.GenerationSoftware,Kicad,Pcbnew,10.0.0
; #@! TF.FileFunction,Plated,1,4,PTH
FMAT,2
METRIC
; #@! TA.AperFunction,Plated,PTH,ViaDrill
T1C0.200
; #@! TA.AperFunction,Plated,PTH,ComponentDrill
T2C0.650
%
G90
G05
T1
X143.3Y-96.15
X144.3Y-89.175
X144.3Y-90.45
X144.3Y-91.725
X144.3Y-93.0
X144.3Y-94.275
X144.55Y-96.25
X145.1Y-92.275
X145.773Y-89.2
X146.15Y-92.3
X146.178Y-85.95
X146.225Y-94.95
X146.225Y-97.075
X147.703Y-88.025
X147.95Y-89.05
X148.15Y-86.0
X148.25Y-90.95
X148.45Y-93.85
X149.0Y-92.27
X149.175Y-93.425
X149.35Y-88.35
X149.75Y-90.95
X150.65Y-95.4
X150.67Y-85.85
X151.3Y-95.75
X151.4Y-95.0
X151.958Y-89.194
X152.165Y-90.321
X152.5Y-92.175
X153.2Y-87.925
X153.2Y-89.175
X153.2Y-90.45
X153.2Y-91.725
X153.2Y-93.0
X153.2Y-94.275
X153.6Y-86.1
T2
X142.25Y-87.44
X142.25Y-88.71
X142.25Y-89.98
X142.25Y-91.25
X142.25Y-92.52
X142.25Y-93.79
X142.25Y-95.06
X143.25Y-87.44
X143.25Y-88.71
X143.25Y-89.98
X143.25Y-91.25
X143.25Y-92.52
X143.25Y-93.79
X143.25Y-95.06
X154.25Y-87.44
X154.25Y-88.71
X154.25Y-89.98
X154.25Y-91.25
X154.25Y-92.52
X154.25Y-93.79
X154.25Y-95.06
X155.25Y-87.44
X155.25Y-88.71
X155.25Y-89.98
X155.25Y-91.25
X155.25Y-92.52
X155.25Y-93.79
X155.25Y-95.06
M30
