%TF.GenerationSoftware,KiCad,Pcbnew,10.0.0*%
%TF.CreationDate,2026-04-03T15:20:12+02:00*%
%TF.ProjectId,Sensor_Module,53656e73-6f72-45f4-9d6f-64756c652e6b,2.0*%
%TF.SameCoordinates,Original*%
%TF.FileFunction,Copper,L4,Bot*%
%TF.FilePolarity,Positive*%
%FSLAX46Y46*%
G04 Gerber Fmt 4.6, Leading zero omitted, Abs format (unit mm)*
G04 Created by KiCad (PCBNEW 10.0.0) date 2026-04-03 15:20:12*
%MOMM*%
%LPD*%
G01*
G04 APERTURE LIST*
%TA.AperFunction,ComponentPad*%
%ADD10C,1.000000*%
%TD*%
%TA.AperFunction,ComponentPad*%
%ADD11O,3.000000X1.000000*%
%TD*%
%TA.AperFunction,ViaPad*%
%ADD12C,0.450000*%
%TD*%
%TA.AperFunction,Conductor*%
%ADD13C,0.500000*%
%TD*%
%TA.AperFunction,Conductor*%
%ADD14C,0.100000*%
%TD*%
G04 APERTURE END LIST*
D10*
%TO.P,J1,1,Pin_1_1*%
%TO.N,~{H_CS}*%
X143250000Y-95060000D03*
D11*
X142250000Y-95060000D03*
D10*
%TO.P,J1,2,Pin_2_2*%
%TO.N,~{H_INT}*%
X143250000Y-93790000D03*
D11*
X142250000Y-93790000D03*
D10*
%TO.P,J1,3,Pin_3_3*%
%TO.N,BNO_~{RST}*%
X143250000Y-92520000D03*
D11*
X142250000Y-92520000D03*
D10*
%TO.P,J1,4,Pin_4_4*%
%TO.N,BNO_SDA*%
X143250000Y-91250000D03*
D11*
X142250000Y-91250000D03*
D10*
%TO.P,J1,5,Pin_5_5*%
%TO.N,BNO_SCL*%
X143250000Y-89980000D03*
D11*
X142250000Y-89980000D03*
D10*
%TO.P,J1,6,Pin_6_6*%
%TO.N,+5V*%
X143250000Y-88710000D03*
D11*
X142250000Y-88710000D03*
D10*
%TO.P,J1,7,Pin_7_7*%
%TO.N,GND*%
X143250000Y-87440000D03*
D11*
X142250000Y-87440000D03*
%TD*%
D10*
%TO.P,J2,1,Pin_1_1*%
%TO.N,GND*%
X154250000Y-87440000D03*
D11*
X155250000Y-87440000D03*
D10*
%TO.P,J2,2,Pin_2_2*%
%TO.N,+3V3*%
X154250000Y-88710000D03*
D11*
X155250000Y-88710000D03*
D10*
%TO.P,J2,3,Pin_3_3*%
%TO.N,BNO_ADDR*%
X154250000Y-89980000D03*
D11*
X155250000Y-89980000D03*
D10*
%TO.P,J2,4,Pin_4_4*%
%TO.N,ENV_SCL*%
X154250000Y-91250000D03*
D11*
X155250000Y-91250000D03*
D10*
%TO.P,J2,5,Pin_5_5*%
%TO.N,ENV_SDA*%
X154250000Y-92520000D03*
D11*
X155250000Y-92520000D03*
D10*
%TO.P,J2,6,Pin_6_6*%
%TO.N,NC1*%
X154250000Y-93790000D03*
D11*
X155250000Y-93790000D03*
D10*
%TO.P,J2,7,Pin_7_7*%
%TO.N,NC2*%
X154250000Y-95060000D03*
D11*
X155250000Y-95060000D03*
%TD*%
D12*
%TO.N,GND*%
X149750000Y-90950000D03*
X151400000Y-95000000D03*
X147702678Y-88025000D03*
X153200000Y-89175000D03*
X144300000Y-91725000D03*
X153600000Y-86100000D03*
X153200000Y-93000000D03*
X149350000Y-88350000D03*
X151958196Y-89194071D03*
X153200000Y-91725000D03*
X150670000Y-85850000D03*
X144300000Y-93000000D03*
X149000000Y-92270000D03*
X153200000Y-87925000D03*
X144300000Y-94275000D03*
X153200000Y-94275000D03*
X148250000Y-90950000D03*
X143300000Y-96150000D03*
X146177678Y-85950000D03*
X144300000Y-90450000D03*
X148450000Y-93850000D03*
X144300000Y-89175000D03*
X153200000Y-90450000D03*
%TO.N,+3V3*%
X147950000Y-89050000D03*
X145100000Y-92275000D03*
X148150000Y-86000000D03*
X152165284Y-90321423D03*
X151300000Y-95750000D03*
X144550000Y-96250000D03*
%TO.N,BNO_SDA*%
X150650000Y-95400000D03*
X146150000Y-92300000D03*
%TO.N,BNO_SCL*%
X145773248Y-89200001D03*
X149175000Y-93425000D03*
%TO.N,ENV_SCL*%
X146225000Y-97075000D03*
X152500000Y-92175000D03*
X146225000Y-94950000D03*
%TD*%
%TO.N,+3V3*%
D13*
X152550000Y-89011827D02*
X152961827Y-88600000D01*
X147850000Y-86000000D02*
X145100000Y-88750000D01*
X148771423Y-90321423D02*
X147950000Y-89500000D01*
X145100000Y-95700000D02*
X145100000Y-92275000D01*
X145100000Y-92700000D02*
X145100000Y-92275000D01*
X148950000Y-87750000D02*
X148950000Y-86550000D01*
X147950000Y-89050000D02*
X147950000Y-88750000D01*
X148400000Y-86000000D02*
X148150000Y-86000000D01*
X144550000Y-96250000D02*
X145100000Y-95700000D01*
X147950000Y-89500000D02*
X147950000Y-89050000D01*
X152165284Y-90321423D02*
X148771423Y-90321423D01*
X152165284Y-90321423D02*
X152550000Y-89936707D01*
X151300000Y-95750000D02*
X150750000Y-96300000D01*
X148950000Y-86550000D02*
X148400000Y-86000000D01*
X148700000Y-96300000D02*
X145100000Y-92700000D01*
X154140000Y-88600000D02*
X154250000Y-88710000D01*
X152550000Y-89936707D02*
X152550000Y-89011827D01*
X145100000Y-88750000D02*
X145100000Y-92275000D01*
X147950000Y-88750000D02*
X148950000Y-87750000D01*
X152961827Y-88600000D02*
X154140000Y-88600000D01*
X148150000Y-86000000D02*
X147850000Y-86000000D01*
X150750000Y-96300000D02*
X148700000Y-96300000D01*
%TO.N,BNO_SDA*%
D14*
X149250000Y-95400000D02*
X150650000Y-95400000D01*
X146150000Y-92300000D02*
X149250000Y-95400000D01*
%TO.N,BNO_SCL*%
X145773248Y-89200001D02*
X145773248Y-89273248D01*
X149175000Y-93425000D02*
X146150000Y-90400000D01*
X146150000Y-90400000D02*
X146150000Y-89576753D01*
X146150000Y-89576753D02*
X145773248Y-89200001D01*
%TO.N,ENV_SCL*%
X152375000Y-95900000D02*
X152375000Y-92625000D01*
X152500000Y-92500000D02*
X152500000Y-92175000D01*
X151200000Y-97075000D02*
X152375000Y-95900000D01*
X146225000Y-97075000D02*
X151200000Y-97075000D01*
X146225000Y-94950000D02*
X146225000Y-97075000D01*
X152375000Y-92625000D02*
X152500000Y-92500000D01*
%TD*%
M02*
