%TF.GenerationSoftware,KiCad,Pcbnew,10.0.0*%
%TF.CreationDate,2026-04-03T15:20:12+02:00*%
%TF.ProjectId,Sensor_Module,53656e73-6f72-45f4-9d6f-64756c652e6b,2.0*%
%TF.SameCoordinates,Original*%
%TF.FileFunction,Legend,Top*%
%TF.FilePolarity,Positive*%
%FSLAX46Y46*%
G04 Gerber Fmt 4.6, Leading zero omitted, Abs format (unit mm)*
G04 Created by KiCad (PCBNEW 10.0.0) date 2026-04-03 15:20:12*
%MOMM*%
%LPD*%
G01*
G04 APERTURE LIST*
%ADD10C,0.100000*%
%ADD11C,0.140000*%
%ADD12C,0.120000*%
G04 APERTURE END LIST*
D10*
X143450000Y-86582283D02*
X142950000Y-86082283D01*
X143450000Y-85582283D01*
X143450000Y-86582283D01*
G36*
X143450000Y-86582283D02*
G01*
X142950000Y-86082283D01*
X143450000Y-85582283D01*
X143450000Y-86582283D01*
G37*
G36*
X143800000Y-84860000D02*
G01*
X144700000Y-84860000D01*
X144700000Y-85720000D01*
X143800000Y-85720000D01*
X143800000Y-84860000D01*
G37*
X152309485Y-96429125D02*
X152259485Y-96579125D01*
X152409485Y-97129125D02*
X152559485Y-97329125D01*
X152409485Y-97329125D02*
X152559485Y-97129125D01*
X152484485Y-96079125D02*
X152484485Y-96954125D01*
X152484485Y-96079125D02*
X153359485Y-96079125D01*
X152484485Y-96954125D02*
X152334485Y-96804125D01*
X152484485Y-96954125D02*
X152634485Y-96804125D01*
X152709485Y-96429125D02*
G75*
G02*
X152309485Y-96429125I-200000J0D01*
G01*
X153009485Y-96279125D02*
X152859485Y-96329125D01*
X153009485Y-96279125D02*
G75*
G02*
X153009485Y-95879075I15J200025D01*
G01*
X153084485Y-96629125D02*
X153234485Y-96629125D01*
X153084485Y-96829125D02*
X153234485Y-96829125D01*
X153159486Y-97179125D02*
X153159486Y-97179125D01*
X153159486Y-97179125D01*
X153159486Y-97179125D01*
X153159486Y-97179125D01*
X153159486Y-97179125D01*
X153159486Y-97179126D01*
X153159486Y-97179126D01*
X153159486Y-97179126D01*
X153159486Y-97179126D01*
X153159486Y-97179126D01*
X153159486Y-97179126D01*
X153159486Y-97179126D01*
X153159485Y-97179126D01*
X153159485Y-97179126D01*
X153159485Y-97179126D01*
X153159485Y-97179126D01*
X153159485Y-97179126D01*
X153159485Y-97179126D01*
X153159485Y-97179126D01*
X153159485Y-97179126D01*
X153159485Y-97179126D01*
X153159485Y-97179126D01*
X153159485Y-97179126D01*
X153159485Y-97179126D01*
X153159484Y-97179126D01*
X153159484Y-97179126D01*
X153159484Y-97179126D01*
X153159484Y-97179126D01*
X153159484Y-97179126D01*
X153159484Y-97179126D01*
X153159484Y-97179125D01*
X153159484Y-97179125D01*
X153159484Y-97179125D01*
X153159484Y-97179125D01*
X153159484Y-97179125D01*
X153159484Y-97179125D01*
X153159484Y-97179125D02*
X153159484Y-97179125D01*
X153159484Y-97179125D01*
X153159484Y-97179125D01*
X153159484Y-97179125D01*
X153159484Y-97179125D01*
X153159484Y-97179125D01*
X153159484Y-97179124D01*
X153159484Y-97179124D01*
X153159484Y-97179124D01*
X153159484Y-97179124D01*
X153159484Y-97179124D01*
X153159485Y-97179124D01*
X153159485Y-97179124D01*
X153159485Y-97179124D01*
X153159485Y-97179124D01*
X153159485Y-97179124D01*
X153159485Y-97179124D01*
X153159485Y-97179124D01*
X153159485Y-97179124D01*
X153159485Y-97179124D01*
X153159485Y-97179124D01*
X153159485Y-97179124D01*
X153159485Y-97179124D01*
X153159486Y-97179124D01*
X153159486Y-97179124D01*
X153159486Y-97179124D01*
X153159486Y-97179124D01*
X153159486Y-97179124D01*
X153159486Y-97179124D01*
X153159486Y-97179125D01*
X153159486Y-97179125D01*
X153159486Y-97179125D01*
X153159486Y-97179125D01*
X153159486Y-97179125D01*
X153159486Y-97179125D01*
X153159486Y-97179125D01*
X153359485Y-97179125D02*
G75*
G02*
X152959485Y-97179125I-200000J0D01*
G01*
X152959485Y-97179125D02*
G75*
G02*
X153359485Y-97179125I200000J0D01*
G01*
X153234485Y-96629125D02*
X153084485Y-96829125D01*
X153359485Y-96079125D02*
X153209485Y-95929125D01*
X153359485Y-96079125D02*
X153209485Y-96229125D01*
X153422652Y-96810692D02*
X153509485Y-96779125D01*
X153422652Y-96810692D02*
G75*
G02*
X153609473Y-97129126I-263152J-368408D01*
G01*
X153509485Y-95979125D02*
X153609485Y-96079125D01*
X153609485Y-96079125D02*
X153609485Y-96229125D01*
X153609485Y-96079125D02*
X153709485Y-95979125D01*
D11*
G36*
X145003077Y-85058081D02*
G01*
X145029550Y-85066244D01*
X145050134Y-85078906D01*
X145065374Y-85096856D01*
X145075326Y-85122477D01*
X145079071Y-85158492D01*
X145075377Y-85194514D01*
X145065454Y-85220879D01*
X145050134Y-85240002D01*
X145029399Y-85253760D01*
X145002924Y-85262541D01*
X144969095Y-85265733D01*
X144831848Y-85265733D01*
X144831848Y-85055098D01*
X144969095Y-85055098D01*
X145003077Y-85058081D01*
G37*
G36*
X146622893Y-85058737D02*
G01*
X146650072Y-85067665D01*
X146668017Y-85080766D01*
X146681088Y-85098757D01*
X146689529Y-85122792D01*
X146692643Y-85154731D01*
X146689518Y-85183862D01*
X146680975Y-85205951D01*
X146667525Y-85222674D01*
X146648661Y-85234959D01*
X146620476Y-85243201D01*
X146574033Y-85246585D01*
X146407166Y-85246585D01*
X146407166Y-85055098D01*
X146578350Y-85055098D01*
X146622893Y-85058737D01*
G37*
G36*
X146929167Y-85718278D02*
G01*
X144607763Y-85718278D01*
X144607763Y-85265733D01*
X144685541Y-85265733D01*
X144685541Y-85640500D01*
X144831848Y-85640500D01*
X144831848Y-85386096D01*
X144981533Y-85386096D01*
X145040792Y-85382341D01*
X145089432Y-85371930D01*
X145129264Y-85355815D01*
X145161778Y-85334463D01*
X145187656Y-85306590D01*
X145207254Y-85269560D01*
X145220146Y-85221059D01*
X145224908Y-85158022D01*
X145220353Y-85100952D01*
X145207771Y-85055190D01*
X145188193Y-85018515D01*
X145161778Y-84989275D01*
X145128958Y-84966206D01*
X145090554Y-84949236D01*
X145045515Y-84938528D01*
X144992517Y-84934735D01*
X145275045Y-84934735D01*
X145474909Y-85640500D01*
X145611685Y-85640500D01*
X145696786Y-85227778D01*
X145721662Y-85091301D01*
X145746538Y-85227778D01*
X145831638Y-85640500D01*
X145972218Y-85640500D01*
X146082983Y-85246585D01*
X146263252Y-85246585D01*
X146263252Y-85640500D01*
X146407166Y-85640500D01*
X146407166Y-85364212D01*
X146559244Y-85364212D01*
X146602347Y-85367401D01*
X146630448Y-85375423D01*
X146647934Y-85386695D01*
X146659812Y-85403607D01*
X146668571Y-85431886D01*
X146672554Y-85476539D01*
X146673537Y-85542021D01*
X146679735Y-85602715D01*
X146689309Y-85640500D01*
X146851389Y-85640500D01*
X146851389Y-85622804D01*
X146834395Y-85606629D01*
X146824632Y-85582669D01*
X146821998Y-85561590D01*
X146820785Y-85517187D01*
X146820785Y-85469829D01*
X146818025Y-85420386D01*
X146810818Y-85384648D01*
X146800440Y-85359468D01*
X146784451Y-85337857D01*
X146761879Y-85319208D01*
X146731368Y-85303475D01*
X146767405Y-85286381D01*
X146794855Y-85263590D01*
X146815058Y-85234745D01*
X146829322Y-85201627D01*
X146837655Y-85168805D01*
X146840404Y-85135882D01*
X146836917Y-85095702D01*
X146827025Y-85061638D01*
X146811258Y-85030518D01*
X146790694Y-85002269D01*
X146759951Y-84973691D01*
X146722990Y-84952944D01*
X146695747Y-84944216D01*
X146658564Y-84937842D01*
X146608953Y-84934735D01*
X146263252Y-84934735D01*
X146263252Y-85246585D01*
X146082983Y-85246585D01*
X146170672Y-84934735D01*
X146020987Y-84934735D01*
X145926783Y-85343140D01*
X145905283Y-85451364D01*
X145883741Y-85338866D01*
X145800094Y-84934735D01*
X145644682Y-84934735D01*
X145565267Y-85341259D01*
X145544708Y-85451364D01*
X145524662Y-85338866D01*
X145431397Y-84934735D01*
X145275045Y-84934735D01*
X144992517Y-84934735D01*
X144685541Y-84934735D01*
X144685541Y-85265733D01*
X144607763Y-85265733D01*
X144607763Y-84856957D01*
X146929167Y-84856957D01*
X146929167Y-85718278D01*
G37*
G36*
X148938449Y-96900209D02*
G01*
X148975009Y-96912440D01*
X149006907Y-96932465D01*
X149034921Y-96960961D01*
X149056183Y-96994348D01*
X149072237Y-97035096D01*
X149082605Y-97084681D01*
X149086340Y-97144882D01*
X149082596Y-97205353D01*
X149072215Y-97255048D01*
X149056159Y-97295781D01*
X149034921Y-97329059D01*
X149006923Y-97357430D01*
X148975031Y-97377379D01*
X148938465Y-97389569D01*
X148896008Y-97393814D01*
X148853577Y-97389581D01*
X148816880Y-97377406D01*
X148784732Y-97357455D01*
X148756368Y-97329059D01*
X148734824Y-97295736D01*
X148718559Y-97254986D01*
X148708053Y-97205306D01*
X148704265Y-97144882D01*
X148708053Y-97084458D01*
X148718559Y-97034778D01*
X148734824Y-96994028D01*
X148756368Y-96960704D01*
X148784732Y-96932309D01*
X148816880Y-96912358D01*
X148853577Y-96900183D01*
X148896008Y-96895950D01*
X148938449Y-96900209D01*
G37*
G36*
X149569438Y-96918997D02*
G01*
X149591243Y-96929935D01*
X149608215Y-96948045D01*
X149620792Y-96975066D01*
X149630274Y-97015956D01*
X149637056Y-97075696D01*
X149639684Y-97159671D01*
X149637127Y-97239662D01*
X149630407Y-97298968D01*
X149620792Y-97341711D01*
X149608056Y-97370368D01*
X149590972Y-97389370D01*
X149569207Y-97400732D01*
X149541206Y-97404756D01*
X149513165Y-97400740D01*
X149491244Y-97389380D01*
X149473918Y-97370367D01*
X149460850Y-97341711D01*
X149450884Y-97298951D01*
X149443923Y-97239649D01*
X149441274Y-97159671D01*
X149443996Y-97075707D01*
X149451022Y-97015972D01*
X149460850Y-96975066D01*
X149473758Y-96948044D01*
X149490973Y-96929923D01*
X149512935Y-96918988D01*
X149541206Y-96915098D01*
X149569438Y-96918997D01*
G37*
G36*
X150112633Y-97191938D02*
G01*
X150136524Y-97201199D01*
X150156099Y-97216219D01*
X150170491Y-97236214D01*
X150179726Y-97262495D01*
X150183113Y-97296960D01*
X150179837Y-97330133D01*
X150170803Y-97356114D01*
X150156569Y-97376504D01*
X150137208Y-97391863D01*
X150113201Y-97401366D01*
X150083181Y-97404756D01*
X150053160Y-97401366D01*
X150029153Y-97391863D01*
X150009792Y-97376504D01*
X149995558Y-97356114D01*
X149986524Y-97330133D01*
X149983249Y-97296960D01*
X149986635Y-97262495D01*
X149995870Y-97236214D01*
X150010262Y-97216219D01*
X150029837Y-97201199D01*
X150053728Y-97191938D01*
X150083181Y-97188650D01*
X150112633Y-97191938D01*
G37*
G36*
X150109999Y-96917889D02*
G01*
X150130987Y-96925603D01*
X150147465Y-96937837D01*
X150159757Y-96954289D01*
X150167444Y-96974890D01*
X150170204Y-97000840D01*
X150167539Y-97024593D01*
X150159936Y-97044450D01*
X150147465Y-97061278D01*
X150130934Y-97073909D01*
X150109944Y-97081839D01*
X150083181Y-97084700D01*
X150056725Y-97081862D01*
X150035687Y-97073950D01*
X150018853Y-97061278D01*
X150006131Y-97044419D01*
X149998395Y-97024562D01*
X149995687Y-97000840D01*
X149998491Y-96974924D01*
X150006313Y-96954322D01*
X150018853Y-96937837D01*
X150035635Y-96925563D01*
X150056671Y-96917866D01*
X150083181Y-96915098D01*
X150109999Y-96917889D01*
G37*
G36*
X150656789Y-97164851D02*
G01*
X150680723Y-97175268D01*
X150702135Y-97192967D01*
X150717950Y-97215827D01*
X150728090Y-97245560D01*
X150731798Y-97284180D01*
X150728643Y-97318994D01*
X150719798Y-97347602D01*
X150705725Y-97371246D01*
X150686306Y-97389801D01*
X150662911Y-97400883D01*
X150634260Y-97404756D01*
X150604917Y-97400835D01*
X150579771Y-97389413D01*
X150557751Y-97370049D01*
X150541354Y-97345373D01*
X150531204Y-97315931D01*
X150527617Y-97280461D01*
X150530511Y-97246627D01*
X150538481Y-97219827D01*
X150550895Y-97198608D01*
X150567752Y-97181940D01*
X150586493Y-97170481D01*
X150606881Y-97163631D01*
X150629430Y-97161295D01*
X150656789Y-97164851D01*
G37*
G36*
X147531564Y-97195035D02*
G01*
X147559706Y-97203396D01*
X147579596Y-97215890D01*
X147593455Y-97232144D01*
X147602052Y-97252815D01*
X147605142Y-97279264D01*
X147601807Y-97311108D01*
X147592681Y-97335398D01*
X147578334Y-97353909D01*
X147558296Y-97367656D01*
X147529585Y-97376607D01*
X147486061Y-97380137D01*
X147312954Y-97380137D01*
X147312954Y-97191386D01*
X147488455Y-97191386D01*
X147531564Y-97195035D01*
G37*
G36*
X147516643Y-96918201D02*
G01*
X147552055Y-96926340D01*
X147572924Y-96940467D01*
X147585624Y-96961716D01*
X147590310Y-96992719D01*
X147586676Y-97021427D01*
X147576894Y-97041752D01*
X147561373Y-97055935D01*
X147541310Y-97065432D01*
X147516562Y-97071548D01*
X147486061Y-97073758D01*
X147312954Y-97073758D01*
X147312954Y-96915098D01*
X147467895Y-96915098D01*
X147516643Y-96918201D01*
G37*
G36*
X150947763Y-97594691D02*
G01*
X147094596Y-97594691D01*
X147094596Y-97073758D01*
X147172374Y-97073758D01*
X147172374Y-97380137D01*
X147172374Y-97500500D01*
X147491788Y-97500500D01*
X147874718Y-97500500D01*
X148011965Y-97500500D01*
X148011965Y-96999087D01*
X148299835Y-97500500D01*
X148447126Y-97500500D01*
X148447126Y-97144882D01*
X148557957Y-97144882D01*
X148562831Y-97221625D01*
X148576617Y-97287491D01*
X148598419Y-97344133D01*
X148627855Y-97392923D01*
X148665070Y-97434890D01*
X148698181Y-97463237D01*
X148736855Y-97485766D01*
X148781945Y-97502521D01*
X148834567Y-97513148D01*
X148896050Y-97516913D01*
X148957514Y-97513149D01*
X149010123Y-97502523D01*
X149055206Y-97485768D01*
X149093877Y-97463239D01*
X149126988Y-97434890D01*
X149164021Y-97392949D01*
X149193326Y-97344174D01*
X149215041Y-97287533D01*
X149228775Y-97221653D01*
X149232650Y-97160397D01*
X149302104Y-97160397D01*
X149306122Y-97248556D01*
X149317151Y-97320247D01*
X149333889Y-97378073D01*
X149355404Y-97424332D01*
X149379256Y-97456962D01*
X149408725Y-97482249D01*
X149444579Y-97500848D01*
X149488147Y-97512675D01*
X149541206Y-97516913D01*
X149594266Y-97512674D01*
X149637828Y-97500846D01*
X149673672Y-97482247D01*
X149703128Y-97456961D01*
X149726965Y-97424332D01*
X149748498Y-97378070D01*
X149765250Y-97320243D01*
X149767406Y-97306235D01*
X149841685Y-97306235D01*
X149845521Y-97348958D01*
X149856706Y-97387542D01*
X149875180Y-97422824D01*
X149901440Y-97455406D01*
X149933050Y-97481168D01*
X149971835Y-97500278D01*
X150019310Y-97512511D01*
X150077453Y-97516913D01*
X150135430Y-97512582D01*
X150183862Y-97500432D01*
X150224425Y-97481274D01*
X150258425Y-97455278D01*
X150287111Y-97422352D01*
X150307101Y-97386925D01*
X150319118Y-97348387D01*
X150323222Y-97305850D01*
X150320266Y-97267507D01*
X150311625Y-97232365D01*
X150297406Y-97199849D01*
X150289090Y-97187539D01*
X150390841Y-97187539D01*
X150394271Y-97255435D01*
X150398422Y-97280461D01*
X150403929Y-97313657D01*
X150419051Y-97363529D01*
X150439140Y-97406210D01*
X150467261Y-97446650D01*
X150499932Y-97477096D01*
X150537597Y-97498802D01*
X150581250Y-97512211D01*
X150632336Y-97516913D01*
X150681722Y-97513523D01*
X150723215Y-97504009D01*
X150758126Y-97489048D01*
X150787512Y-97468885D01*
X150812111Y-97443310D01*
X150837461Y-97405009D01*
X150855410Y-97364281D01*
X150866278Y-97320586D01*
X150869985Y-97273238D01*
X150866049Y-97225527D01*
X150854751Y-97183762D01*
X150836441Y-97146885D01*
X150810914Y-97114107D01*
X150779449Y-97086970D01*
X150744285Y-97067731D01*
X150704677Y-97055958D01*
X150659563Y-97051874D01*
X150618094Y-97055509D01*
X150583054Y-97065808D01*
X150551927Y-97083560D01*
X150524240Y-97109961D01*
X150533207Y-97035157D01*
X150545270Y-96989256D01*
X150562955Y-96955098D01*
X150584268Y-96932704D01*
X150609494Y-96919615D01*
X150639987Y-96915098D01*
X150667940Y-96918899D01*
X150689576Y-96929559D01*
X150706452Y-96947155D01*
X150716430Y-96967007D01*
X150719360Y-96983486D01*
X150855153Y-96983486D01*
X150848170Y-96943621D01*
X150835067Y-96909007D01*
X150815982Y-96878758D01*
X150790569Y-96852267D01*
X150760746Y-96831415D01*
X150725825Y-96816066D01*
X150684848Y-96806375D01*
X150636610Y-96802942D01*
X150592880Y-96806558D01*
X150554882Y-96816908D01*
X150521590Y-96833631D01*
X150491624Y-96856166D01*
X150465827Y-96882837D01*
X150443927Y-96913987D01*
X150424262Y-96954058D01*
X150408624Y-97002191D01*
X150397552Y-97059739D01*
X150392718Y-97112648D01*
X150390841Y-97187539D01*
X150289090Y-97187539D01*
X150277625Y-97170567D01*
X150252188Y-97145239D01*
X150220427Y-97123596D01*
X150251546Y-97102141D01*
X150272648Y-97079818D01*
X150285652Y-97056405D01*
X150297164Y-97017966D01*
X150300740Y-96983914D01*
X150297157Y-96947632D01*
X150286646Y-96914673D01*
X150269109Y-96884269D01*
X150243850Y-96855900D01*
X150214090Y-96833677D01*
X150178261Y-96817202D01*
X150135141Y-96806700D01*
X150083181Y-96802942D01*
X150031229Y-96806707D01*
X149988112Y-96817233D01*
X149952280Y-96833747D01*
X149922512Y-96856028D01*
X149897258Y-96884458D01*
X149879719Y-96914931D01*
X149869206Y-96947970D01*
X149865621Y-96984341D01*
X149867346Y-97000840D01*
X149869187Y-97018444D01*
X149880667Y-97056961D01*
X149893554Y-97080703D01*
X149914649Y-97104637D01*
X149945934Y-97129067D01*
X149914275Y-97147844D01*
X149888591Y-97171489D01*
X149868229Y-97200404D01*
X149853596Y-97232904D01*
X149844720Y-97267985D01*
X149842421Y-97296960D01*
X149841685Y-97306235D01*
X149767406Y-97306235D01*
X149776286Y-97248554D01*
X149780307Y-97160397D01*
X149776293Y-97072292D01*
X149765266Y-97000525D01*
X149748514Y-96942529D01*
X149726965Y-96896035D01*
X149703101Y-96863196D01*
X149673625Y-96837767D01*
X149637777Y-96819077D01*
X149594230Y-96807198D01*
X149541206Y-96802942D01*
X149488182Y-96807197D01*
X149444630Y-96819076D01*
X149408773Y-96837766D01*
X149379284Y-96863195D01*
X149355404Y-96896035D01*
X149333873Y-96942527D01*
X149317135Y-97000522D01*
X149306116Y-97072289D01*
X149302137Y-97159671D01*
X149302104Y-97160397D01*
X149232650Y-97160397D01*
X149233631Y-97144882D01*
X149228693Y-97066212D01*
X149214810Y-96999590D01*
X149193007Y-96943137D01*
X149163763Y-96895289D01*
X149126988Y-96854874D01*
X149093877Y-96826525D01*
X149055206Y-96803996D01*
X149010123Y-96787241D01*
X148957514Y-96776615D01*
X148896050Y-96772851D01*
X148834567Y-96776615D01*
X148781945Y-96787242D01*
X148736855Y-96803998D01*
X148698181Y-96826527D01*
X148665070Y-96854874D01*
X148628114Y-96895315D01*
X148598740Y-96943179D01*
X148576848Y-96999634D01*
X148562913Y-97066242D01*
X148557957Y-97144882D01*
X148447126Y-97144882D01*
X148447126Y-96794735D01*
X148309880Y-96794735D01*
X148309880Y-97283667D01*
X148029190Y-96794735D01*
X147874718Y-96794735D01*
X147874718Y-97500500D01*
X147491788Y-97500500D01*
X147544717Y-97498033D01*
X147591977Y-97490968D01*
X147635580Y-97477123D01*
X147672076Y-97455620D01*
X147699620Y-97430649D01*
X147722299Y-97400268D01*
X147739723Y-97365985D01*
X147750246Y-97328832D01*
X147753843Y-97288069D01*
X147750577Y-97248466D01*
X147741274Y-97214435D01*
X147726317Y-97184974D01*
X147705468Y-97159603D01*
X147678635Y-97138969D01*
X147644807Y-97122912D01*
X147677039Y-97102826D01*
X147698363Y-97082563D01*
X147715902Y-97054621D01*
X147726939Y-97020402D01*
X147730890Y-96978272D01*
X147727099Y-96937383D01*
X147716188Y-96901690D01*
X147698363Y-96870176D01*
X147675301Y-96844996D01*
X147646557Y-96824734D01*
X147611169Y-96809276D01*
X147567784Y-96798997D01*
X147514741Y-96794735D01*
X147172374Y-96794735D01*
X147172374Y-97073758D01*
X147094596Y-97073758D01*
X147094596Y-96695073D01*
X150947763Y-96695073D01*
X150947763Y-97594691D01*
G37*
D10*
%TO.C,U2*%
X146850000Y-86150000D02*
X146750000Y-86050000D01*
X146950000Y-86049820D01*
X146850000Y-86150000D01*
G36*
X146850000Y-86150000D02*
G01*
X146750000Y-86050000D01*
X146950000Y-86049820D01*
X146850000Y-86150000D01*
G37*
%TO.C,U1*%
D12*
X146990000Y-89810000D02*
X146990000Y-90070000D01*
X146990000Y-89810000D02*
X147250000Y-89810000D01*
X146990000Y-95230000D02*
X146990000Y-94970000D01*
X146990000Y-95230000D02*
X147250000Y-95230000D01*
X151010000Y-95230000D02*
X150750000Y-95230000D01*
X151010000Y-95230000D02*
X151010000Y-94970000D01*
D10*
X150650000Y-89770000D02*
X150450000Y-89570000D01*
X150850000Y-89570000D01*
X150650000Y-89770000D01*
G36*
X150650000Y-89770000D02*
G01*
X150450000Y-89570000D01*
X150850000Y-89570000D01*
X150650000Y-89770000D01*
G37*
%TO.C,D1*%
X144100000Y-86700000D02*
X144400000Y-86700000D01*
%TD*%
M02*
