%TF.GenerationSoftware,KiCad,Pcbnew,10.0.0*%
%TF.CreationDate,2026-04-04T11:07:05+02:00*%
%TF.ProjectId,Sensor_Module,53656e73-6f72-45f4-9d6f-64756c652e6b,2.0*%
%TF.SameCoordinates,Original*%
%TF.FileFunction,Soldermask,Top*%
%TF.FilePolarity,Negative*%
%FSLAX46Y46*%
G04 Gerber Fmt 4.6, Leading zero omitted, Abs format (unit mm)*
G04 Created by KiCad (PCBNEW 10.0.0) date 2026-04-04 11:07:05*
%MOMM*%
%LPD*%
G01*
G04 APERTURE LIST*
G04 Aperture macros list*
%AMRoundRect*
0 Rectangle with rounded corners*
0 $1 Rounding radius*
0 $2 $3 $4 $5 $6 $7 $8 $9 X,Y pos of 4 corners*
0 Add a 4 corners polygon primitive as box body*
4,1,4,$2,$3,$4,$5,$6,$7,$8,$9,$2,$3,0*
0 Add four circle primitives for the rounded corners*
1,1,$1+$1,$2,$3*
1,1,$1+$1,$4,$5*
1,1,$1+$1,$6,$7*
1,1,$1+$1,$8,$9*
0 Add four rect primitives between the rounded corners*
20,1,$1+$1,$2,$3,$4,$5,0*
20,1,$1+$1,$4,$5,$6,$7,0*
20,1,$1+$1,$6,$7,$8,$9,0*
20,1,$1+$1,$8,$9,$2,$3,0*%
%AMFreePoly0*
4,1,6,0.180000,0.075000,0.000000,-0.105000,-0.180000,-0.105000,-0.180000,0.105000,0.180000,0.105000,0.180000,0.075000,0.180000,0.075000,$1*%
%AMFreePoly1*
4,1,6,0.180000,-0.075000,0.180000,-0.105000,-0.180000,-0.105000,-0.180000,0.105000,0.000000,0.105000,0.180000,-0.075000,0.180000,-0.075000,$1*%
%AMFreePoly2*
4,1,6,0.180000,-0.105000,0.000000,-0.105000,-0.180000,0.075000,-0.180000,0.105000,0.180000,0.105000,0.180000,-0.105000,0.180000,-0.105000,$1*%
%AMFreePoly3*
4,1,6,0.180000,-0.105000,-0.180000,-0.105000,-0.180000,-0.075000,0.000000,0.105000,0.180000,0.105000,0.180000,-0.105000,0.180000,-0.105000,$1*%
G04 Aperture macros list end*
%ADD10RoundRect,0.140000X0.170000X-0.140000X0.170000X0.140000X-0.170000X0.140000X-0.170000X-0.140000X0*%
%ADD11RoundRect,0.140000X-0.140000X-0.170000X0.140000X-0.170000X0.140000X0.170000X-0.140000X0.170000X0*%
%ADD12RoundRect,0.135000X0.135000X0.185000X-0.135000X0.185000X-0.135000X-0.185000X0.135000X-0.185000X0*%
%ADD13FreePoly0,270.000000*%
%ADD14FreePoly1,270.000000*%
%ADD15FreePoly2,270.000000*%
%ADD16FreePoly3,270.000000*%
%ADD17RoundRect,0.120000X-0.169706X0.000000X0.000000X-0.169706X0.169706X0.000000X0.000000X0.169706X0*%
%ADD18C,1.000000*%
%ADD19O,3.000000X1.000000*%
%ADD20R,0.240000X0.170000*%
%ADD21RoundRect,0.135000X-0.185000X0.135000X-0.185000X-0.135000X0.185000X-0.135000X0.185000X0.135000X0*%
%ADD22RoundRect,0.150000X-0.450000X0.150000X-0.450000X-0.150000X0.450000X-0.150000X0.450000X0.150000X0*%
%ADD23RoundRect,0.135000X-0.135000X-0.185000X0.135000X-0.185000X0.135000X0.185000X-0.135000X0.185000X0*%
%ADD24R,0.675000X0.254000*%
%ADD25R,0.254000X0.675000*%
%ADD26RoundRect,0.135000X0.185000X-0.135000X0.185000X0.135000X-0.185000X0.135000X-0.185000X-0.135000X0*%
%ADD27RoundRect,0.140000X-0.170000X0.140000X-0.170000X-0.140000X0.170000X-0.140000X0.170000X0.140000X0*%
%ADD28RoundRect,0.147500X0.172500X-0.147500X0.172500X0.147500X-0.172500X0.147500X-0.172500X-0.147500X0*%
%ADD29RoundRect,0.140000X0.140000X0.170000X-0.140000X0.170000X-0.140000X-0.170000X0.140000X-0.170000X0*%
G04 APERTURE END LIST*
D10*
%TO.C,C6*%
X149750000Y-87430000D03*
X149750000Y-86470000D03*
%TD*%
D11*
%TO.C,C1*%
X148670000Y-89050000D03*
X149630000Y-89050000D03*
%TD*%
D12*
%TO.C,R3*%
X150850000Y-96225000D03*
X149830000Y-96225000D03*
%TD*%
D10*
%TO.C,C2*%
X151700000Y-90780000D03*
X151700000Y-89820000D03*
%TD*%
%TO.C,C3*%
X145277678Y-87430000D03*
X145277678Y-86470000D03*
%TD*%
D13*
%TO.C,U2*%
X146825000Y-86520000D03*
D14*
X146175000Y-86520000D03*
D15*
X146825000Y-87380000D03*
D16*
X146175000Y-87380000D03*
D17*
X146500000Y-86950000D03*
%TD*%
D18*
%TO.C,J1*%
X143250000Y-95060000D03*
D19*
X142250000Y-95060000D03*
D18*
X143250000Y-93790000D03*
D19*
X142250000Y-93790000D03*
D18*
X143250000Y-92520000D03*
D19*
X142250000Y-92520000D03*
D18*
X143250000Y-91250000D03*
D19*
X142250000Y-91250000D03*
D18*
X143250000Y-89980000D03*
D19*
X142250000Y-89980000D03*
D18*
X143250000Y-88710000D03*
D19*
X142250000Y-88710000D03*
D18*
X143250000Y-87440000D03*
D19*
X142250000Y-87440000D03*
%TD*%
D10*
%TO.C,C5*%
X146225000Y-91555000D03*
X146225000Y-90595000D03*
%TD*%
D20*
%TO.C,D10*%
X153200000Y-89620000D03*
X153200000Y-89980000D03*
%TD*%
D18*
%TO.C,J2*%
X154250000Y-87440000D03*
D19*
X155250000Y-87440000D03*
D18*
X154250000Y-88710000D03*
D19*
X155250000Y-88710000D03*
D18*
X154250000Y-89980000D03*
D19*
X155250000Y-89980000D03*
D18*
X154250000Y-91250000D03*
D19*
X155250000Y-91250000D03*
D18*
X154250000Y-92520000D03*
D19*
X155250000Y-92520000D03*
D18*
X154250000Y-93790000D03*
D19*
X155250000Y-93790000D03*
D18*
X154250000Y-95060000D03*
D19*
X155250000Y-95060000D03*
%TD*%
D12*
%TO.C,R4*%
X146260000Y-93075000D03*
X145240000Y-93075000D03*
%TD*%
D21*
%TO.C,R2*%
X145275000Y-88690000D03*
X145275000Y-89710000D03*
%TD*%
D22*
%TO.C,Y1*%
X151100000Y-87600000D03*
X151100000Y-88800000D03*
%TD*%
D23*
%TO.C,R5*%
X147140000Y-96250000D03*
X148160000Y-96250000D03*
%TD*%
D20*
%TO.C,D2*%
X144300000Y-88710000D03*
X144300000Y-88350000D03*
%TD*%
D24*
%TO.C,U1*%
X150662500Y-90270000D03*
D25*
X149750000Y-90132500D03*
X149250000Y-90132500D03*
X148750000Y-90132500D03*
X148250000Y-90132500D03*
D24*
X147337500Y-90270000D03*
X147337500Y-90770000D03*
X147337500Y-91270000D03*
X147337500Y-91770000D03*
X147337500Y-92270000D03*
X147337500Y-92770000D03*
X147337500Y-93270000D03*
X147337500Y-93770000D03*
X147337500Y-94270000D03*
X147337500Y-94770000D03*
D25*
X148250000Y-94907500D03*
X148750000Y-94907500D03*
X149250000Y-94907500D03*
X149750000Y-94907500D03*
D24*
X150662500Y-94770000D03*
X150662500Y-94270000D03*
X150662500Y-93770000D03*
X150662500Y-93270000D03*
X150662500Y-92770000D03*
X150662500Y-92270000D03*
X150662500Y-91770000D03*
X150662500Y-91270000D03*
X150662500Y-90770000D03*
%TD*%
D20*
%TO.C,D9*%
X153200000Y-90890000D03*
X153200000Y-91250000D03*
%TD*%
%TO.C,D4*%
X144300000Y-90890000D03*
X144300000Y-91250000D03*
%TD*%
D23*
%TO.C,R6*%
X145165000Y-96250000D03*
X146185000Y-96250000D03*
%TD*%
D20*
%TO.C,D7*%
X144300000Y-94700000D03*
X144300000Y-95060000D03*
%TD*%
D26*
%TO.C,R1*%
X145275000Y-91585000D03*
X145275000Y-90565000D03*
%TD*%
D20*
%TO.C,D13*%
X153200000Y-93430000D03*
X153200000Y-93790000D03*
%TD*%
D27*
%TO.C,C4*%
X147702678Y-86470000D03*
X147702678Y-87430000D03*
%TD*%
D20*
%TO.C,D11*%
X153200000Y-88350000D03*
X153200000Y-88710000D03*
%TD*%
%TO.C,D6*%
X144300000Y-93430000D03*
X144300000Y-93790000D03*
%TD*%
D26*
%TO.C,R9*%
X152500000Y-87460000D03*
X152500000Y-86440000D03*
%TD*%
D28*
%TO.C,D1*%
X144250000Y-86235000D03*
X144250000Y-85265000D03*
%TD*%
D20*
%TO.C,D12*%
X153200000Y-94700000D03*
X153200000Y-95060000D03*
%TD*%
%TO.C,D8*%
X153200000Y-92160000D03*
X153200000Y-92520000D03*
%TD*%
%TO.C,D5*%
X144300000Y-92160000D03*
X144300000Y-92520000D03*
%TD*%
D29*
%TO.C,C7*%
X151630000Y-86500000D03*
X150670000Y-86500000D03*
%TD*%
D21*
%TO.C,R8*%
X146225000Y-88690000D03*
X146225000Y-89710000D03*
%TD*%
%TO.C,R7*%
X148650000Y-86440000D03*
X148650000Y-87460000D03*
%TD*%
D20*
%TO.C,D3*%
X144300000Y-89620000D03*
X144300000Y-89980000D03*
%TD*%
M02*
