%TF.GenerationSoftware,KiCad,Pcbnew,10.0.0*%
%TF.CreationDate,2026-04-04T11:07:05+02:00*%
%TF.ProjectId,Sensor_Module,53656e73-6f72-45f4-9d6f-64756c652e6b,2.0*%
%TF.SameCoordinates,Original*%
%TF.FileFunction,Copper,L1,Top*%
%TF.FilePolarity,Positive*%
%FSLAX46Y46*%
G04 Gerber Fmt 4.6, Leading zero omitted, Abs format (unit mm)*
G04 Created by KiCad (PCBNEW 10.0.0) date 2026-04-04 11:07:05*
%MOMM*%
%LPD*%
G01*
G04 APERTURE LIST*
G04 Aperture macros list*
%AMRoundRect*
0 Rectangle with rounded corners*
0 $1 Rounding radius*
0 $2 $3 $4 $5 $6 $7 $8 $9 X,Y pos of 4 corners*
0 Add a 4 corners polygon primitive as box body*
4,1,4,$2,$3,$4,$5,$6,$7,$8,$9,$2,$3,0*
0 Add four circle primitives for the rounded corners*
1,1,$1+$1,$2,$3*
1,1,$1+$1,$4,$5*
1,1,$1+$1,$6,$7*
1,1,$1+$1,$8,$9*
0 Add four rect primitives between the rounded corners*
20,1,$1+$1,$2,$3,$4,$5,0*
20,1,$1+$1,$4,$5,$6,$7,0*
20,1,$1+$1,$6,$7,$8,$9,0*
20,1,$1+$1,$8,$9,$2,$3,0*%
%AMFreePoly0*
4,1,6,0.230000,0.054289,0.020711,-0.155000,-0.230000,-0.155000,-0.230000,0.155000,0.230000,0.155000,0.230000,0.054289,0.230000,0.054289,$1*%
%AMFreePoly1*
4,1,6,0.230000,-0.054289,0.230000,-0.155000,-0.230000,-0.155000,-0.230000,0.155000,0.020711,0.155000,0.230000,-0.054289,0.230000,-0.054289,$1*%
%AMFreePoly2*
4,1,6,0.230000,-0.155000,-0.230000,-0.155000,-0.230000,-0.054289,-0.020711,0.155000,0.230000,0.155000,0.230000,-0.155000,0.230000,-0.155000,$1*%
%AMFreePoly3*
4,1,6,0.230000,-0.155000,-0.020711,-0.155000,-0.230000,0.054289,-0.230000,0.155000,0.230000,0.155000,0.230000,-0.155000,0.230000,-0.155000,$1*%
G04 Aperture macros list end*
%TA.AperFunction,SMDPad,CuDef*%
%ADD10RoundRect,0.140000X0.170000X-0.140000X0.170000X0.140000X-0.170000X0.140000X-0.170000X-0.140000X0*%
%TD*%
%TA.AperFunction,SMDPad,CuDef*%
%ADD11RoundRect,0.140000X-0.140000X-0.170000X0.140000X-0.170000X0.140000X0.170000X-0.140000X0.170000X0*%
%TD*%
%TA.AperFunction,SMDPad,CuDef*%
%ADD12RoundRect,0.135000X0.135000X0.185000X-0.135000X0.185000X-0.135000X-0.185000X0.135000X-0.185000X0*%
%TD*%
%TA.AperFunction,SMDPad,CuDef*%
%ADD13FreePoly0,270.000000*%
%TD*%
%TA.AperFunction,SMDPad,CuDef*%
%ADD14FreePoly1,270.000000*%
%TD*%
%TA.AperFunction,SMDPad,CuDef*%
%ADD15FreePoly2,270.000000*%
%TD*%
%TA.AperFunction,SMDPad,CuDef*%
%ADD16FreePoly3,270.000000*%
%TD*%
%TA.AperFunction,SMDPad,CuDef*%
%ADD17RoundRect,0.145000X-0.205061X0.000000X0.000000X-0.205061X0.205061X0.000000X0.000000X0.205061X0*%
%TD*%
%TA.AperFunction,ComponentPad*%
%ADD18C,1.000000*%
%TD*%
%TA.AperFunction,ComponentPad*%
%ADD19O,3.000000X1.000000*%
%TD*%
%TA.AperFunction,SMDPad,CuDef*%
%ADD20R,0.240000X0.170000*%
%TD*%
%TA.AperFunction,SMDPad,CuDef*%
%ADD21RoundRect,0.135000X-0.185000X0.135000X-0.185000X-0.135000X0.185000X-0.135000X0.185000X0.135000X0*%
%TD*%
%TA.AperFunction,SMDPad,CuDef*%
%ADD22RoundRect,0.150000X-0.450000X0.150000X-0.450000X-0.150000X0.450000X-0.150000X0.450000X0.150000X0*%
%TD*%
%TA.AperFunction,SMDPad,CuDef*%
%ADD23RoundRect,0.135000X-0.135000X-0.185000X0.135000X-0.185000X0.135000X0.185000X-0.135000X0.185000X0*%
%TD*%
%TA.AperFunction,SMDPad,CuDef*%
%ADD24R,0.675000X0.254000*%
%TD*%
%TA.AperFunction,SMDPad,CuDef*%
%ADD25R,0.254000X0.675000*%
%TD*%
%TA.AperFunction,SMDPad,CuDef*%
%ADD26RoundRect,0.135000X0.185000X-0.135000X0.185000X0.135000X-0.185000X0.135000X-0.185000X-0.135000X0*%
%TD*%
%TA.AperFunction,SMDPad,CuDef*%
%ADD27RoundRect,0.140000X-0.170000X0.140000X-0.170000X-0.140000X0.170000X-0.140000X0.170000X0.140000X0*%
%TD*%
%TA.AperFunction,SMDPad,CuDef*%
%ADD28RoundRect,0.147500X0.172500X-0.147500X0.172500X0.147500X-0.172500X0.147500X-0.172500X-0.147500X0*%
%TD*%
%TA.AperFunction,SMDPad,CuDef*%
%ADD29RoundRect,0.140000X0.140000X0.170000X-0.140000X0.170000X-0.140000X-0.170000X0.140000X-0.170000X0*%
%TD*%
%TA.AperFunction,ViaPad*%
%ADD30C,0.450000*%
%TD*%
%TA.AperFunction,Conductor*%
%ADD31C,0.100000*%
%TD*%
%TA.AperFunction,Conductor*%
%ADD32C,0.500000*%
%TD*%
%TA.AperFunction,Conductor*%
%ADD33C,0.200000*%
%TD*%
G04 APERTURE END LIST*
D10*
%TO.P,C6,1*%
%TO.N,/Sensor/XIN32*%
X149750000Y-87430000D03*
%TO.P,C6,2*%
%TO.N,GND*%
X149750000Y-86470000D03*
%TD*%
D11*
%TO.P,C1,1*%
%TO.N,+3V3*%
X148670000Y-89050000D03*
%TO.P,C1,2*%
%TO.N,GND*%
X149630000Y-89050000D03*
%TD*%
D12*
%TO.P,R3,1*%
%TO.N,+3V3*%
X150850000Y-96225000D03*
%TO.P,R3,2*%
%TO.N,BNO_ADDR*%
X149830000Y-96225000D03*
%TD*%
D10*
%TO.P,C2,1*%
%TO.N,+3V3*%
X151700000Y-90780000D03*
%TO.P,C2,2*%
%TO.N,GND*%
X151700000Y-89820000D03*
%TD*%
%TO.P,C3,1*%
%TO.N,+5V*%
X145277678Y-87430000D03*
%TO.P,C3,2*%
%TO.N,GND*%
X145277678Y-86470000D03*
%TD*%
D13*
%TO.P,U2,1,OUT_1*%
%TO.N,+3V3*%
X146825000Y-86520000D03*
D14*
%TO.P,U2,2,GND_2*%
%TO.N,GND*%
X146175000Y-86520000D03*
D15*
%TO.P,U2,3,EN_3*%
%TO.N,+5V*%
X146175000Y-87380000D03*
D16*
%TO.P,U2,4,IN_4*%
X146825000Y-87380000D03*
D17*
%TO.P,U2,5,Pad_5*%
%TO.N,GND*%
X146500000Y-86950000D03*
%TD*%
D18*
%TO.P,J1,1,Pin_1_1*%
%TO.N,~{H_CS}*%
X143250000Y-95060000D03*
D19*
X142250000Y-95060000D03*
D18*
%TO.P,J1,2,Pin_2_2*%
%TO.N,~{H_INT}*%
X143250000Y-93790000D03*
D19*
X142250000Y-93790000D03*
D18*
%TO.P,J1,3,Pin_3_3*%
%TO.N,BNO_~{RST}*%
X143250000Y-92520000D03*
D19*
X142250000Y-92520000D03*
D18*
%TO.P,J1,4,Pin_4_4*%
%TO.N,BNO_SDA*%
X143250000Y-91250000D03*
D19*
X142250000Y-91250000D03*
D18*
%TO.P,J1,5,Pin_5_5*%
%TO.N,BNO_SCL*%
X143250000Y-89980000D03*
D19*
X142250000Y-89980000D03*
D18*
%TO.P,J1,6,Pin_6_6*%
%TO.N,+5V*%
X143250000Y-88710000D03*
D19*
X142250000Y-88710000D03*
D18*
%TO.P,J1,7,Pin_7_7*%
%TO.N,GND*%
X143250000Y-87440000D03*
D19*
X142250000Y-87440000D03*
%TD*%
D10*
%TO.P,C5,1*%
%TO.N,Net-(U1-CAP)*%
X146225000Y-91555000D03*
%TO.P,C5,2*%
%TO.N,GND*%
X146225000Y-90595000D03*
%TD*%
D20*
%TO.P,D10,1,A1_1*%
%TO.N,GND*%
X153200000Y-89620000D03*
%TO.P,D10,2,A2_2*%
%TO.N,BNO_ADDR*%
X153200000Y-89980000D03*
%TD*%
D18*
%TO.P,J2,1,Pin_1_1*%
%TO.N,GND*%
X154250000Y-87440000D03*
D19*
X155250000Y-87440000D03*
D18*
%TO.P,J2,2,Pin_2_2*%
%TO.N,+3V3*%
X154250000Y-88710000D03*
D19*
X155250000Y-88710000D03*
D18*
%TO.P,J2,3,Pin_3_3*%
%TO.N,BNO_ADDR*%
X154250000Y-89980000D03*
D19*
X155250000Y-89980000D03*
D18*
%TO.P,J2,4,Pin_4_4*%
%TO.N,ENV_SCL*%
X154250000Y-91250000D03*
D19*
X155250000Y-91250000D03*
D18*
%TO.P,J2,5,Pin_5_5*%
%TO.N,ENV_SDA*%
X154250000Y-92520000D03*
D19*
X155250000Y-92520000D03*
D18*
%TO.P,J2,6,Pin_6_6*%
%TO.N,NC1*%
X154250000Y-93790000D03*
D19*
X155250000Y-93790000D03*
D18*
%TO.P,J2,7,Pin_7_7*%
%TO.N,NC2*%
X154250000Y-95060000D03*
D19*
X155250000Y-95060000D03*
%TD*%
D12*
%TO.P,R4,1*%
%TO.N,+3V3*%
X146260000Y-93075000D03*
%TO.P,R4,2*%
%TO.N,BNO_~{RST}*%
X145240000Y-93075000D03*
%TD*%
D21*
%TO.P,R2,1*%
%TO.N,+3V3*%
X145275000Y-88690000D03*
%TO.P,R2,2*%
%TO.N,BNO_SCL*%
X145275000Y-89710000D03*
%TD*%
D22*
%TO.P,Y1,1,1_1*%
%TO.N,/Sensor/XOUT32_INT*%
X151100000Y-87600000D03*
%TO.P,Y1,2,2_2*%
%TO.N,/Sensor/XIN32*%
X151100000Y-88800000D03*
%TD*%
D23*
%TO.P,R5,1*%
%TO.N,+3V3*%
X147140000Y-96250000D03*
%TO.P,R5,2*%
%TO.N,ENV_SDA*%
X148160000Y-96250000D03*
%TD*%
D20*
%TO.P,D2,1,A1_1*%
%TO.N,GND*%
X144300000Y-88710000D03*
%TO.P,D2,2,A2_2*%
%TO.N,+5V*%
X144300000Y-88350000D03*
%TD*%
D24*
%TO.P,U1,1*%
%TO.N,N/C*%
X150662500Y-90270000D03*
D25*
%TO.P,U1,2,GND_2*%
%TO.N,GND*%
X149750000Y-90132500D03*
%TO.P,U1,3,VDD_3*%
%TO.N,+3V3*%
X149250000Y-90132500D03*
%TO.P,U1,4,~{BOOT}_4*%
%TO.N,Net-(U1-~{BOOT})*%
X148750000Y-90132500D03*
%TO.P,U1,5,PS1_5*%
%TO.N,GND*%
X148250000Y-90132500D03*
D24*
%TO.P,U1,6,PS0/WAKE_6*%
X147337500Y-90270000D03*
%TO.P,U1,7*%
%TO.N,N/C*%
X147337500Y-90770000D03*
%TO.P,U1,8*%
X147337500Y-91270000D03*
%TO.P,U1,9,CAP_9*%
%TO.N,Net-(U1-CAP)*%
X147337500Y-91770000D03*
%TO.P,U1,10,CLKSEL0_10*%
%TO.N,GND*%
X147337500Y-92270000D03*
%TO.P,U1,11,~{RST}_11*%
%TO.N,BNO_~{RST}*%
X147337500Y-92770000D03*
%TO.P,U1,12*%
%TO.N,N/C*%
X147337500Y-93270000D03*
%TO.P,U1,13*%
X147337500Y-93770000D03*
%TO.P,U1,14,~{H_INT}_14*%
%TO.N,~{H_INT}*%
X147337500Y-94270000D03*
%TO.P,U1,15,ENV_SCL_15*%
%TO.N,ENV_SCL*%
X147337500Y-94770000D03*
D25*
%TO.P,U1,16,ENV_SDA_16*%
%TO.N,ENV_SDA*%
X148250000Y-94907500D03*
%TO.P,U1,17,SA0/H_MOSI_17*%
%TO.N,BNO_ADDR*%
X148750000Y-94907500D03*
%TO.P,U1,18,~{H_CS}_18*%
%TO.N,~{H_CS}*%
X149250000Y-94907500D03*
%TO.P,U1,19,H_SCL/SCK/RX_19*%
%TO.N,BNO_SCL*%
X149750000Y-94907500D03*
D24*
%TO.P,U1,20,H_SDA/H_MISO/TX_20*%
%TO.N,BNO_SDA*%
X150662500Y-94770000D03*
%TO.P,U1,21*%
%TO.N,N/C*%
X150662500Y-94270000D03*
%TO.P,U1,22*%
X150662500Y-93770000D03*
%TO.P,U1,23*%
X150662500Y-93270000D03*
%TO.P,U1,24*%
X150662500Y-92770000D03*
%TO.P,U1,25,GND_25*%
%TO.N,GND*%
X150662500Y-92270000D03*
%TO.P,U1,26,XOUT32_26*%
%TO.N,/Sensor/XOUT32*%
X150662500Y-91770000D03*
%TO.P,U1,27,XIN32_27*%
%TO.N,/Sensor/XIN32*%
X150662500Y-91270000D03*
%TO.P,U1,28,VDDIO_28*%
%TO.N,+3V3*%
X150662500Y-90770000D03*
%TD*%
D20*
%TO.P,D9,1,A1_1*%
%TO.N,GND*%
X153200000Y-90890000D03*
%TO.P,D9,2,A2_2*%
%TO.N,ENV_SCL*%
X153200000Y-91250000D03*
%TD*%
%TO.P,D4,1,A1_1*%
%TO.N,GND*%
X144300000Y-90890000D03*
%TO.P,D4,2,A2_2*%
%TO.N,BNO_SDA*%
X144300000Y-91250000D03*
%TD*%
D23*
%TO.P,R6,1*%
%TO.N,+3V3*%
X145165000Y-96250000D03*
%TO.P,R6,2*%
%TO.N,ENV_SCL*%
X146185000Y-96250000D03*
%TD*%
D20*
%TO.P,D7,1,A1_1*%
%TO.N,GND*%
X144300000Y-94700000D03*
%TO.P,D7,2,A2_2*%
%TO.N,~{H_CS}*%
X144300000Y-95060000D03*
%TD*%
D26*
%TO.P,R1,1*%
%TO.N,+3V3*%
X145275000Y-91585000D03*
%TO.P,R1,2*%
%TO.N,BNO_SDA*%
X145275000Y-90565000D03*
%TD*%
D20*
%TO.P,D13,1,A1_1*%
%TO.N,GND*%
X153200000Y-93430000D03*
%TO.P,D13,2,A2_2*%
%TO.N,NC1*%
X153200000Y-93790000D03*
%TD*%
D27*
%TO.P,C4,1*%
%TO.N,+3V3*%
X147702678Y-86470000D03*
%TO.P,C4,2*%
%TO.N,GND*%
X147702678Y-87430000D03*
%TD*%
D20*
%TO.P,D11,1,A1_1*%
%TO.N,GND*%
X153200000Y-88350000D03*
%TO.P,D11,2,A2_2*%
%TO.N,+3V3*%
X153200000Y-88710000D03*
%TD*%
%TO.P,D6,1,A1_1*%
%TO.N,GND*%
X144300000Y-93430000D03*
%TO.P,D6,2,A2_2*%
%TO.N,~{H_INT}*%
X144300000Y-93790000D03*
%TD*%
D26*
%TO.P,R9,1*%
%TO.N,/Sensor/XOUT32*%
X152500000Y-87460000D03*
%TO.P,R9,2*%
%TO.N,/Sensor/XOUT32_INT*%
X152500000Y-86440000D03*
%TD*%
D28*
%TO.P,D1,1,K_1*%
%TO.N,GND*%
X144250000Y-86235000D03*
%TO.P,D1,2,A_2*%
%TO.N,Net-(D1-A)*%
X144250000Y-85265000D03*
%TD*%
D20*
%TO.P,D12,1,A1_1*%
%TO.N,GND*%
X153200000Y-94700000D03*
%TO.P,D12,2,A2_2*%
%TO.N,NC2*%
X153200000Y-95060000D03*
%TD*%
%TO.P,D8,1,A1_1*%
%TO.N,GND*%
X153200000Y-92160000D03*
%TO.P,D8,2,A2_2*%
%TO.N,ENV_SDA*%
X153200000Y-92520000D03*
%TD*%
%TO.P,D5,1,A1_1*%
%TO.N,GND*%
X144300000Y-92160000D03*
%TO.P,D5,2,A2_2*%
%TO.N,BNO_~{RST}*%
X144300000Y-92520000D03*
%TD*%
D29*
%TO.P,C7,1*%
%TO.N,/Sensor/XOUT32_INT*%
X151630000Y-86500000D03*
%TO.P,C7,2*%
%TO.N,GND*%
X150670000Y-86500000D03*
%TD*%
D21*
%TO.P,R8,1*%
%TO.N,+3V3*%
X146225000Y-88690000D03*
%TO.P,R8,2*%
%TO.N,Net-(U1-~{BOOT})*%
X146225000Y-89710000D03*
%TD*%
%TO.P,R7,1*%
%TO.N,+3V3*%
X148650000Y-86440000D03*
%TO.P,R7,2*%
%TO.N,Net-(D1-A)*%
X148650000Y-87460000D03*
%TD*%
D20*
%TO.P,D3,1,A1_1*%
%TO.N,GND*%
X144300000Y-89620000D03*
%TO.P,D3,2,A2_2*%
%TO.N,BNO_SCL*%
X144300000Y-89980000D03*
%TD*%
D30*
%TO.N,GND*%
X149750000Y-90950000D03*
X151400000Y-95000000D03*
X147702678Y-88025000D03*
X153200000Y-89175000D03*
X144300000Y-91725000D03*
X153600000Y-86100000D03*
X153200000Y-93000000D03*
X149350000Y-88350000D03*
X151958196Y-89194071D03*
X153200000Y-91725000D03*
X150670000Y-85850000D03*
X144300000Y-93000000D03*
X149000000Y-92270000D03*
X153200000Y-87925000D03*
X144300000Y-94275000D03*
X153200000Y-94275000D03*
X148250000Y-90950000D03*
X143300000Y-96150000D03*
X146177678Y-85950000D03*
X144300000Y-90450000D03*
X148450000Y-93850000D03*
X144300000Y-89175000D03*
X153200000Y-90450000D03*
%TO.N,+3V3*%
X147950000Y-89050000D03*
X145100000Y-92275000D03*
X148150000Y-86000000D03*
X152165284Y-90321423D03*
X151300000Y-95750000D03*
X144550000Y-96250000D03*
%TO.N,BNO_SDA*%
X150650000Y-95400000D03*
X146150000Y-92300000D03*
%TO.N,BNO_SCL*%
X145773248Y-89200001D03*
X149175000Y-93425000D03*
%TO.N,ENV_SCL*%
X146225000Y-97075000D03*
X152500000Y-92175000D03*
X146225000Y-94950000D03*
%TD*%
%TO.N,/Sensor/XIN32*%
D31*
X150175000Y-90993000D02*
X150452000Y-91270000D01*
X150452000Y-91270000D02*
X150662500Y-91270000D01*
X150450000Y-88800000D02*
X151100000Y-88800000D01*
X150175000Y-89725000D02*
X150175000Y-90993000D01*
X149750000Y-88100000D02*
X150450000Y-88800000D01*
X149750000Y-87430000D02*
X149750000Y-88100000D01*
X151100000Y-88800000D02*
X150175000Y-89725000D01*
%TO.N,GND*%
X147337500Y-92270000D02*
X149000000Y-92270000D01*
X148250000Y-90132500D02*
X147475000Y-90132500D01*
X144300000Y-93000000D02*
X144300000Y-93430000D01*
X144300000Y-88710000D02*
X144300000Y-89175000D01*
X146550000Y-90270000D02*
X147337500Y-90270000D01*
X148250000Y-90132500D02*
X148250000Y-90950000D01*
X147475000Y-90132500D02*
X147337500Y-90270000D01*
X149750000Y-91622000D02*
X150398000Y-92270000D01*
X153200000Y-89175000D02*
X153200000Y-89620000D01*
X149750000Y-89170000D02*
X149630000Y-89050000D01*
D32*
X144220000Y-86470000D02*
X145277678Y-86470000D01*
D31*
X153200000Y-90450000D02*
X153200000Y-90890000D01*
X144300000Y-89175000D02*
X144300000Y-89620000D01*
X151700000Y-89452267D02*
X151958196Y-89194071D01*
X149750000Y-90950000D02*
X149750000Y-91622000D01*
X144300000Y-90450000D02*
X144300000Y-90890000D01*
X153200000Y-94275000D02*
X153200000Y-94700000D01*
X148250000Y-91622000D02*
X147602000Y-92270000D01*
X149750000Y-90132500D02*
X149750000Y-89170000D01*
X149750000Y-90132500D02*
X149750000Y-90950000D01*
X153200000Y-93000000D02*
X153200000Y-93430000D01*
X144300000Y-94275000D02*
X144300000Y-94700000D01*
D33*
X146175000Y-86520000D02*
X146175000Y-85952678D01*
D31*
X146250000Y-90570000D02*
X146225000Y-90595000D01*
D33*
X146175000Y-85952678D02*
X146177678Y-85950000D01*
D32*
X143250000Y-87440000D02*
X144220000Y-86470000D01*
D33*
X147702678Y-88025000D02*
X147702678Y-87430000D01*
D31*
X149000000Y-92270000D02*
X150662500Y-92270000D01*
X150640000Y-86470000D02*
X150670000Y-86500000D01*
X144300000Y-91725000D02*
X144300000Y-92160000D01*
X148250000Y-90950000D02*
X148250000Y-91622000D01*
X153200000Y-91725000D02*
X153200000Y-92160000D01*
X147602000Y-92270000D02*
X147337500Y-92270000D01*
X149750000Y-86470000D02*
X150640000Y-86470000D01*
X151700000Y-89820000D02*
X151700000Y-89452267D01*
X153200000Y-87925000D02*
X153200000Y-88350000D01*
X150670000Y-85850000D02*
X150670000Y-86500000D01*
X150398000Y-92270000D02*
X150662500Y-92270000D01*
X146225000Y-90595000D02*
X146550000Y-90270000D01*
%TO.N,+3V3*%
D33*
X148150000Y-86022678D02*
X147702678Y-86470000D01*
D31*
X145100000Y-92275000D02*
X145100000Y-91835000D01*
X145635000Y-95780000D02*
X145165000Y-96250000D01*
X145225000Y-92275000D02*
X146050000Y-93100000D01*
X146050000Y-93100000D02*
X146110000Y-93100000D01*
X150850000Y-96200000D02*
X151300000Y-95750000D01*
X151706707Y-90780000D02*
X151700000Y-90780000D01*
D33*
X147590000Y-88690000D02*
X147950000Y-89050000D01*
D31*
X150850000Y-96225000D02*
X150850000Y-96200000D01*
X145165000Y-96250000D02*
X144550000Y-96250000D01*
X147140000Y-96250000D02*
X146670000Y-95780000D01*
X149250000Y-90132500D02*
X149250000Y-90397000D01*
X154250000Y-88710000D02*
X153200000Y-88710000D01*
X152165284Y-90321423D02*
X151706707Y-90780000D01*
X150672500Y-90780000D02*
X150662500Y-90770000D01*
X146670000Y-95780000D02*
X145635000Y-95780000D01*
X145100000Y-92275000D02*
X145225000Y-92275000D01*
X148670000Y-89050000D02*
X149250000Y-89630000D01*
D33*
X145275000Y-88690000D02*
X146225000Y-88690000D01*
X146225000Y-88690000D02*
X147590000Y-88690000D01*
X148150000Y-86000000D02*
X148150000Y-86022678D01*
D31*
X151700000Y-90780000D02*
X150672500Y-90780000D01*
X148670000Y-89050000D02*
X147950000Y-89050000D01*
X149250000Y-89630000D02*
X149250000Y-90132500D01*
%TO.N,BNO_ADDR*%
X152800000Y-91032842D02*
X152800000Y-90319669D01*
X151900000Y-95901792D02*
X151900000Y-91932842D01*
X148750000Y-95145000D02*
X149830000Y-96225000D01*
X152800000Y-90319669D02*
X153139669Y-89980000D01*
X151106792Y-96695000D02*
X151900000Y-95901792D01*
X154250000Y-89980000D02*
X153200000Y-89980000D01*
X148750000Y-94907500D02*
X148750000Y-95145000D01*
X150300000Y-96695000D02*
X151106792Y-96695000D01*
X149830000Y-96225000D02*
X150300000Y-96695000D01*
X151900000Y-91932842D02*
X152800000Y-91032842D01*
X153139669Y-89980000D02*
X153200000Y-89980000D01*
%TO.N,+5V*%
D32*
X143250000Y-88642082D02*
X144467082Y-87425000D01*
X144467082Y-87425000D02*
X144702678Y-87425000D01*
X143250000Y-88710000D02*
X143250000Y-88642082D01*
%TO.N,~{H_CS}*%
D31*
X148050000Y-94350000D02*
X147900000Y-94500000D01*
X143250000Y-95060000D02*
X144300000Y-95060000D01*
X149076500Y-94350000D02*
X148050000Y-94350000D01*
X147900000Y-94500000D02*
X147900000Y-94972000D01*
X149250000Y-94907500D02*
X149250000Y-94523500D01*
X144960000Y-95060000D02*
X144300000Y-95060000D01*
X145400000Y-95500000D02*
X144960000Y-95060000D01*
X147900000Y-94972000D02*
X147372000Y-95500000D01*
X147372000Y-95500000D02*
X145400000Y-95500000D01*
X149250000Y-94523500D02*
X149076500Y-94350000D01*
%TO.N,~{H_INT}*%
X144615000Y-93790000D02*
X145095000Y-94270000D01*
X145095000Y-94270000D02*
X147337500Y-94270000D01*
X143250000Y-93790000D02*
X144300000Y-93790000D01*
X144300000Y-93790000D02*
X144615000Y-93790000D01*
%TO.N,BNO_~{RST}*%
X144300000Y-92520000D02*
X144510000Y-92520000D01*
X145090000Y-93100000D02*
X145560000Y-93570000D01*
X144510000Y-92520000D02*
X145090000Y-93100000D01*
X146850000Y-93225000D02*
X146850000Y-92993000D01*
X146505000Y-93570000D02*
X146850000Y-93225000D01*
X145560000Y-93570000D02*
X146505000Y-93570000D01*
X147073000Y-92770000D02*
X147337500Y-92770000D01*
X143250000Y-92520000D02*
X144300000Y-92520000D01*
X146850000Y-92993000D02*
X147073000Y-92770000D01*
%TO.N,BNO_SDA*%
X150662500Y-95387500D02*
X150662500Y-94770000D01*
X145275000Y-90565000D02*
X144590000Y-91250000D01*
X143250000Y-91250000D02*
X144300000Y-91250000D01*
X144590000Y-91250000D02*
X144300000Y-91250000D01*
X150650000Y-95400000D02*
X150662500Y-95387500D01*
X146150000Y-92300000D02*
X145750000Y-91900000D01*
X145750000Y-91900000D02*
X145750000Y-91040000D01*
X145750000Y-91040000D02*
X145275000Y-90565000D01*
%TO.N,BNO_SCL*%
X145275000Y-89710000D02*
X145275000Y-89698249D01*
X144300000Y-89980000D02*
X145005000Y-89980000D01*
X145275000Y-89698249D02*
X145773248Y-89200001D01*
X149175000Y-93425000D02*
X149750000Y-94000000D01*
X149750000Y-94000000D02*
X149750000Y-94907500D01*
X145005000Y-89980000D02*
X145275000Y-89710000D01*
X143250000Y-89980000D02*
X144300000Y-89980000D01*
%TO.N,Net-(U1-CAP)*%
X146440000Y-91770000D02*
X147337500Y-91770000D01*
X146225000Y-91555000D02*
X146440000Y-91770000D01*
%TO.N,ENV_SCL*%
X146225000Y-96290000D02*
X146185000Y-96250000D01*
X154250000Y-91250000D02*
X153200000Y-91250000D01*
X153100000Y-91250000D02*
X153200000Y-91250000D01*
X146405000Y-94770000D02*
X146225000Y-94950000D01*
X146225000Y-97075000D02*
X146225000Y-96290000D01*
X147337500Y-94770000D02*
X146405000Y-94770000D01*
X152500000Y-91850000D02*
X153100000Y-91250000D01*
X152500000Y-92175000D02*
X152500000Y-91850000D01*
%TO.N,ENV_SDA*%
X148250000Y-94907500D02*
X148250000Y-96625000D01*
X148250000Y-96625000D02*
X148725000Y-97100000D01*
X148725000Y-97100000D02*
X151575000Y-97100000D01*
X152980000Y-92520000D02*
X153200000Y-92520000D01*
X154250000Y-92520000D02*
X153200000Y-92520000D01*
X152450000Y-96225000D02*
X152450000Y-93050000D01*
X152450000Y-93050000D02*
X152980000Y-92520000D01*
X151575000Y-97100000D02*
X152450000Y-96225000D01*
%TO.N,NC1*%
X154250000Y-93790000D02*
X153200000Y-93790000D01*
%TO.N,NC2*%
X154250000Y-95060000D02*
X153200000Y-95060000D01*
%TO.N,/Sensor/XOUT32_INT*%
X151100000Y-87600000D02*
X151100000Y-87030000D01*
X152440000Y-86500000D02*
X152500000Y-86440000D01*
X151100000Y-87030000D02*
X151630000Y-86500000D01*
X151630000Y-87570000D02*
X151600000Y-87600000D01*
X151630000Y-86500000D02*
X152440000Y-86500000D01*
%TO.N,Net-(U1-~{BOOT})*%
X147556002Y-89710000D02*
X147653001Y-89613001D01*
X148495001Y-89613001D02*
X148750000Y-89868000D01*
X147653001Y-89613001D02*
X148495001Y-89613001D01*
X146225000Y-89710000D02*
X147556002Y-89710000D01*
X148750000Y-89868000D02*
X148750000Y-90132500D01*
%TO.N,/Sensor/XOUT32*%
X152600000Y-90950000D02*
X151780000Y-91770000D01*
X152500000Y-87460000D02*
X152600000Y-87560000D01*
X152450000Y-87460000D02*
X152500000Y-87460000D01*
X152600000Y-87560000D02*
X152600000Y-90950000D01*
X151780000Y-91770000D02*
X150662500Y-91770000D01*
%TO.N,Net-(D1-A)*%
D33*
X148650000Y-87460000D02*
X148650000Y-87325286D01*
X148650000Y-87325286D02*
X149170000Y-86805286D01*
X149170000Y-85870000D02*
X148565000Y-85265000D01*
X149170000Y-86805286D02*
X149170000Y-85870000D01*
X148565000Y-85265000D02*
X144250000Y-85265000D01*
%TD*%
%TA.AperFunction,Conductor*%
%TO.N,+5V*%
G36*
X145250000Y-87700000D02*
G01*
X144529791Y-88420207D01*
X144495143Y-88434559D01*
X144485584Y-88433617D01*
X144439753Y-88424500D01*
X144439748Y-88424500D01*
X144160252Y-88424500D01*
X144114418Y-88433617D01*
X144101769Y-88436133D01*
X144035448Y-88480447D01*
X144032034Y-88483862D01*
X144030521Y-88482349D01*
X144005925Y-88498766D01*
X143996358Y-88499703D01*
X143168622Y-88499165D01*
X143133983Y-88484791D01*
X143119654Y-88450133D01*
X143134026Y-88415497D01*
X143421361Y-88128536D01*
X143446423Y-88115152D01*
X143454328Y-88113580D01*
X143581811Y-88060775D01*
X143696542Y-87984114D01*
X143794114Y-87886542D01*
X143870775Y-87771811D01*
X143923580Y-87644328D01*
X143924985Y-87637263D01*
X143938414Y-87612155D01*
X144386824Y-87164328D01*
X144421450Y-87150000D01*
X145800000Y-87150000D01*
X145250000Y-87700000D01*
G37*
%TD.AperFunction*%
%TD*%
%TA.AperFunction,Conductor*%
%TO.N,+3V3*%
G36*
X148409999Y-85703727D02*
G01*
X148416893Y-85706583D01*
X148443413Y-85733098D01*
X148446270Y-85739997D01*
X148446270Y-85751525D01*
X148447144Y-85751520D01*
X148449861Y-86149861D01*
X148450000Y-86150000D01*
X148810753Y-86150000D01*
X148829499Y-86153727D01*
X148836393Y-86156583D01*
X148862913Y-86183098D01*
X148865771Y-86189999D01*
X148869500Y-86208747D01*
X148869500Y-86650771D01*
X148865770Y-86669524D01*
X148858877Y-86686164D01*
X148848255Y-86702059D01*
X148721559Y-86828755D01*
X148705665Y-86839376D01*
X148689026Y-86846269D01*
X148670272Y-86850000D01*
X147080394Y-86850000D01*
X147061640Y-86846269D01*
X147057440Y-86844529D01*
X147050268Y-86841558D01*
X147027725Y-86822660D01*
X147027513Y-86822328D01*
X147022768Y-86812721D01*
X147021165Y-86808316D01*
X147008888Y-86774584D01*
X146987425Y-86746613D01*
X146978002Y-86734332D01*
X146977991Y-86734320D01*
X146715679Y-86472008D01*
X146715667Y-86471997D01*
X146689170Y-86451665D01*
X146670419Y-86419188D01*
X146670000Y-86412792D01*
X146670000Y-86309079D01*
X146670034Y-86307241D01*
X146670232Y-86301944D01*
X146670514Y-86301988D01*
X146672251Y-86290760D01*
X146674155Y-86244850D01*
X146672936Y-86240838D01*
X146672937Y-86236587D01*
X146667364Y-86208551D01*
X146674686Y-86171772D01*
X146705871Y-86150940D01*
X146715424Y-86150000D01*
X147850000Y-86150000D01*
X147850000Y-85758747D01*
X147853727Y-85740002D01*
X147856583Y-85733106D01*
X147883094Y-85706588D01*
X147890002Y-85703726D01*
X147908747Y-85700000D01*
X148391253Y-85700000D01*
X148409999Y-85703727D01*
G37*
%TD.AperFunction*%
%TD*%
%TA.AperFunction,Conductor*%
%TO.N,+5V*%
G36*
X145995060Y-87153730D02*
G01*
X146011658Y-87160605D01*
X146027555Y-87171227D01*
X146284324Y-87427995D01*
X146284331Y-87428002D01*
X146324580Y-87458886D01*
X146324583Y-87458888D01*
X146439079Y-87500561D01*
X146560921Y-87500561D01*
X146675416Y-87458888D01*
X146715677Y-87427994D01*
X146887140Y-87256530D01*
X146903030Y-87245912D01*
X146907908Y-87243891D01*
X146945410Y-87243891D01*
X146971929Y-87270410D01*
X146973948Y-87275284D01*
X146977678Y-87294036D01*
X146977678Y-87641252D01*
X146973949Y-87660003D01*
X146971094Y-87666896D01*
X146944576Y-87693414D01*
X146937681Y-87696270D01*
X146918931Y-87700000D01*
X145368296Y-87700000D01*
X145333648Y-87685648D01*
X145319296Y-87651000D01*
X145333648Y-87616352D01*
X145785648Y-87164352D01*
X145820296Y-87150000D01*
X145976309Y-87150000D01*
X145995060Y-87153730D01*
G37*
%TD.AperFunction*%
%TD*%
%TA.AperFunction,Conductor*%
%TO.N,GND*%
G36*
X146432597Y-86203727D02*
G01*
X146439491Y-86206583D01*
X146466011Y-86233098D01*
X146467084Y-86235688D01*
X146467437Y-86236541D01*
X146467432Y-86259073D01*
X146469167Y-86259342D01*
X146467430Y-86270570D01*
X146467430Y-86274044D01*
X146466795Y-86274678D01*
X146464695Y-86288257D01*
X146464500Y-86289994D01*
X146464500Y-86289997D01*
X146464500Y-86290000D01*
X146464500Y-86540711D01*
X146476032Y-86608583D01*
X146491488Y-86633181D01*
X146497080Y-86645679D01*
X146500763Y-86658461D01*
X146502678Y-86672022D01*
X146502678Y-86791252D01*
X146498949Y-86810003D01*
X146496094Y-86816896D01*
X146469576Y-86843414D01*
X146462681Y-86846270D01*
X146443931Y-86850000D01*
X145036425Y-86850000D01*
X145017677Y-86846271D01*
X145010779Y-86843414D01*
X144984263Y-86816898D01*
X144981405Y-86809997D01*
X144977678Y-86791252D01*
X144977678Y-86258747D01*
X144981405Y-86240002D01*
X144984261Y-86233106D01*
X145010772Y-86206588D01*
X145017680Y-86203726D01*
X145036425Y-86200000D01*
X146413851Y-86200000D01*
X146432597Y-86203727D01*
G37*
%TD.AperFunction*%
%TD*%
M02*
