%TF.GenerationSoftware,KiCad,Pcbnew,9.0.6*%
%TF.CreationDate,2025-12-29T16:38:57+01:00*%
%TF.ProjectId,Programmer_Board,50726f67-7261-46d6-9d65-725f426f6172,1.0*%
%TF.SameCoordinates,Original*%
%TF.FileFunction,Legend,Bot*%
%TF.FilePolarity,Positive*%
%FSLAX46Y46*%
G04 Gerber Fmt 4.6, Leading zero omitted, Abs format (unit mm)*
G04 Created by KiCad (PCBNEW 9.0.6) date 2025-12-29 16:38:57*
%MOMM*%
%LPD*%
G01*
G04 APERTURE LIST*
%ADD10C,0.087500*%
%ADD11C,0.120000*%
G04 APERTURE END LIST*
D10*
G36*
X143121097Y-110981000D02*
G01*
X142837543Y-110981000D01*
X142778210Y-110976222D01*
X142727175Y-110962617D01*
X142682975Y-110940772D01*
X142644510Y-110910571D01*
X142611126Y-110871213D01*
X142582670Y-110821271D01*
X142559604Y-110759760D01*
X142545442Y-110692667D01*
X142541643Y-110635255D01*
X142637636Y-110635255D01*
X142639353Y-110669837D01*
X142644817Y-110708901D01*
X142655455Y-110752495D01*
X142669129Y-110788469D01*
X142685465Y-110817937D01*
X142711811Y-110850011D01*
X142741923Y-110873618D01*
X142776336Y-110889659D01*
X142809669Y-110896925D01*
X142855709Y-110899703D01*
X143025482Y-110899703D01*
X143025482Y-110360336D01*
X142856649Y-110360336D01*
X142810066Y-110363667D01*
X142771257Y-110372992D01*
X142738880Y-110387635D01*
X142711874Y-110407388D01*
X142689526Y-110432528D01*
X142668177Y-110469305D01*
X142651949Y-110514235D01*
X142641431Y-110568923D01*
X142637636Y-110635255D01*
X142541643Y-110635255D01*
X142540568Y-110619013D01*
X142545457Y-110546682D01*
X142559372Y-110483904D01*
X142581564Y-110429200D01*
X142611820Y-110381365D01*
X142646171Y-110344538D01*
X142685046Y-110316207D01*
X142729053Y-110295724D01*
X142779144Y-110283011D01*
X142836560Y-110278569D01*
X143121097Y-110278569D01*
X143121097Y-110981000D01*
G37*
G36*
X142269065Y-110462437D02*
G01*
X142314928Y-110476940D01*
X142355431Y-110500694D01*
X142391482Y-110534383D01*
X142420052Y-110574518D01*
X142440855Y-110620514D01*
X142453852Y-110673453D01*
X142458417Y-110734717D01*
X142453742Y-110797269D01*
X142440633Y-110849454D01*
X142419974Y-110893099D01*
X142391953Y-110929623D01*
X142356476Y-110960345D01*
X142318137Y-110981807D01*
X142276260Y-110994739D01*
X142229873Y-110999165D01*
X142191749Y-110997150D01*
X142159562Y-110991514D01*
X142122527Y-110979601D01*
X142090400Y-110962410D01*
X142062493Y-110939881D01*
X142040759Y-110915447D01*
X142020178Y-110883205D01*
X142004704Y-110848803D01*
X141997952Y-110820330D01*
X142082582Y-110820330D01*
X142095542Y-110852313D01*
X142115109Y-110880084D01*
X142136625Y-110899355D01*
X142161271Y-110913112D01*
X142189665Y-110921607D01*
X142222692Y-110924579D01*
X142258206Y-110921291D01*
X142286969Y-110912120D01*
X142310368Y-110897584D01*
X142329335Y-110877477D01*
X142347974Y-110844415D01*
X142360508Y-110803357D01*
X142366136Y-110752413D01*
X141990771Y-110752413D01*
X141992942Y-110684067D01*
X142079248Y-110684067D01*
X142363743Y-110684067D01*
X142357702Y-110641684D01*
X142343494Y-110605874D01*
X142321214Y-110575288D01*
X142292162Y-110551407D01*
X142259430Y-110537294D01*
X142221752Y-110532460D01*
X142181640Y-110536726D01*
X142149657Y-110548629D01*
X142123994Y-110567688D01*
X142103612Y-110594607D01*
X142088579Y-110631529D01*
X142079248Y-110684067D01*
X141992942Y-110684067D01*
X141993064Y-110680220D01*
X141998422Y-110639572D01*
X142011580Y-110590515D01*
X142032873Y-110549215D01*
X142052857Y-110524372D01*
X142078552Y-110502326D01*
X142110792Y-110483007D01*
X142145615Y-110468672D01*
X142180719Y-110460215D01*
X142216495Y-110457404D01*
X142269065Y-110462437D01*
G37*
G36*
X141753598Y-110458615D02*
G01*
X141791101Y-110467457D01*
X141823018Y-110481451D01*
X141850234Y-110500446D01*
X141873172Y-110524683D01*
X141889323Y-110551909D01*
X141899175Y-110582733D01*
X141902594Y-110618073D01*
X141899097Y-110647356D01*
X141888953Y-110672660D01*
X141871984Y-110694936D01*
X141847114Y-110714671D01*
X141811194Y-110732334D01*
X141750516Y-110751002D01*
X141682171Y-110768227D01*
X141631939Y-110782702D01*
X141608525Y-110792591D01*
X141592108Y-110806057D01*
X141582612Y-110822464D01*
X141579332Y-110842813D01*
X141583518Y-110869721D01*
X141595435Y-110890667D01*
X141615706Y-110907140D01*
X141640678Y-110918500D01*
X141668522Y-110925491D01*
X141699823Y-110927913D01*
X141740347Y-110924778D01*
X141771404Y-110916296D01*
X141795021Y-110903397D01*
X141812706Y-110886325D01*
X141826355Y-110860067D01*
X141834206Y-110820330D01*
X141916955Y-110820330D01*
X141912333Y-110857874D01*
X141902256Y-110891371D01*
X141886877Y-110921489D01*
X141866006Y-110948729D01*
X141840779Y-110969735D01*
X141806979Y-110985892D01*
X141762376Y-110996631D01*
X141704140Y-111000618D01*
X141650477Y-110996949D01*
X141607517Y-110986871D01*
X141573263Y-110971385D01*
X141546121Y-110950909D01*
X141523034Y-110924327D01*
X141507037Y-110896115D01*
X141497479Y-110865817D01*
X141494232Y-110832769D01*
X141497686Y-110798244D01*
X141507352Y-110770283D01*
X141522804Y-110747489D01*
X141544454Y-110728990D01*
X141584212Y-110710147D01*
X141668750Y-110685478D01*
X141725683Y-110671629D01*
X141760376Y-110661068D01*
X141782103Y-110650557D01*
X141800957Y-110635107D01*
X141811546Y-110617544D01*
X141815100Y-110597001D01*
X141812287Y-110577847D01*
X141804082Y-110561696D01*
X141790010Y-110547762D01*
X141772245Y-110538033D01*
X141748217Y-110531551D01*
X141716108Y-110529126D01*
X141668514Y-110533643D01*
X141635573Y-110545442D01*
X141613312Y-110563063D01*
X141599026Y-110588365D01*
X141592711Y-110616150D01*
X141511457Y-110616150D01*
X141514416Y-110584003D01*
X141524599Y-110553315D01*
X141542531Y-110523398D01*
X141570547Y-110494911D01*
X141606384Y-110473903D01*
X141651828Y-110460393D01*
X141709398Y-110455480D01*
X141753598Y-110458615D01*
G37*
G36*
X141395710Y-110471252D02*
G01*
X141308217Y-110471252D01*
X141308217Y-110981000D01*
X141395710Y-110981000D01*
X141395710Y-110471252D01*
G37*
G36*
X141395710Y-110278569D02*
G01*
X141308217Y-110278569D01*
X141308217Y-110376108D01*
X141395710Y-110376108D01*
X141395710Y-110278569D01*
G37*
G36*
X141040209Y-110464284D02*
G01*
X141079183Y-110477498D01*
X141115355Y-110499706D01*
X141149343Y-110531990D01*
X141175681Y-110569501D01*
X141195263Y-110614446D01*
X141207753Y-110668284D01*
X141212217Y-110732837D01*
X141207470Y-110802130D01*
X141194621Y-110855784D01*
X141175186Y-110896964D01*
X141149813Y-110928170D01*
X141116802Y-110954326D01*
X141081909Y-110972560D01*
X141044611Y-110983486D01*
X141004189Y-110987197D01*
X140964618Y-110984776D01*
X140933080Y-110978161D01*
X140908104Y-110968091D01*
X140885458Y-110953435D01*
X140864774Y-110934176D01*
X140845914Y-110909748D01*
X140847682Y-110981297D01*
X140853880Y-111027955D01*
X140862626Y-111056568D01*
X140877081Y-111081032D01*
X140896332Y-111099971D01*
X140921023Y-111114009D01*
X140952408Y-111123067D01*
X140992221Y-111126367D01*
X141033049Y-111122639D01*
X141062733Y-111112715D01*
X141084032Y-111097687D01*
X141099137Y-111076029D01*
X141108908Y-111044600D01*
X141196402Y-111044600D01*
X141189525Y-111082963D01*
X141176620Y-111114270D01*
X141158009Y-111139853D01*
X141133314Y-111160561D01*
X141094102Y-111180633D01*
X141048206Y-111193187D01*
X140994145Y-111197618D01*
X140934456Y-111192774D01*
X140886333Y-111179355D01*
X140847516Y-111158393D01*
X140816340Y-111130002D01*
X140791887Y-111093370D01*
X140776889Y-111054612D01*
X140766875Y-111004215D01*
X140763164Y-110939411D01*
X140763164Y-110722792D01*
X140842580Y-110722792D01*
X140845081Y-110764439D01*
X140852222Y-110801017D01*
X140863609Y-110833239D01*
X140881426Y-110864055D01*
X140902889Y-110887016D01*
X140928241Y-110903302D01*
X140958256Y-110913375D01*
X140994145Y-110916928D01*
X141022814Y-110913990D01*
X141047620Y-110905529D01*
X141069379Y-110891623D01*
X141088606Y-110871750D01*
X141107042Y-110839670D01*
X141119213Y-110796784D01*
X141123740Y-110739975D01*
X141121472Y-110690883D01*
X141115305Y-110651769D01*
X141106045Y-110620937D01*
X141089778Y-110589408D01*
X141069681Y-110566080D01*
X141045579Y-110549598D01*
X141016687Y-110539402D01*
X140981707Y-110535794D01*
X140952323Y-110538738D01*
X140926314Y-110547289D01*
X140902956Y-110561433D01*
X140881775Y-110581699D01*
X140865848Y-110605366D01*
X140853602Y-110635696D01*
X140845537Y-110674220D01*
X140842580Y-110722792D01*
X140763164Y-110722792D01*
X140763164Y-110473646D01*
X140842580Y-110473646D01*
X140842580Y-110538187D01*
X140868738Y-110508957D01*
X140892289Y-110489418D01*
X140923444Y-110473167D01*
X140958225Y-110463233D01*
X140997479Y-110459797D01*
X141040209Y-110464284D01*
G37*
G36*
X140633868Y-110468859D02*
G01*
X140552102Y-110468859D01*
X140552102Y-110541564D01*
X140526291Y-110513341D01*
X140500689Y-110492147D01*
X140475122Y-110477023D01*
X140432745Y-110462426D01*
X140384765Y-110457404D01*
X140340942Y-110460953D01*
X140305769Y-110470766D01*
X140277543Y-110486061D01*
X140255008Y-110506742D01*
X140237474Y-110533400D01*
X140226627Y-110562038D01*
X140219231Y-110600843D01*
X140216445Y-110652481D01*
X140216445Y-110981000D01*
X140303939Y-110981000D01*
X140303939Y-110658208D01*
X140307761Y-110614000D01*
X140317787Y-110582682D01*
X140331507Y-110561856D01*
X140349325Y-110547244D01*
X140372000Y-110538134D01*
X140401007Y-110534853D01*
X140430179Y-110536570D01*
X140451229Y-110541051D01*
X140473496Y-110550233D01*
X140494121Y-110564093D01*
X140513377Y-110583152D01*
X140531428Y-110609505D01*
X140541331Y-110635512D01*
X140545916Y-110665421D01*
X140547785Y-110712748D01*
X140547785Y-110981000D01*
X140633868Y-110981000D01*
X140633868Y-110468859D01*
G37*
G36*
X139928828Y-110462437D02*
G01*
X139974690Y-110476940D01*
X140015194Y-110500694D01*
X140051245Y-110534383D01*
X140079814Y-110574518D01*
X140100618Y-110620514D01*
X140113615Y-110673453D01*
X140118180Y-110734717D01*
X140113505Y-110797269D01*
X140100396Y-110849454D01*
X140079737Y-110893099D01*
X140051715Y-110929623D01*
X140016239Y-110960345D01*
X139977900Y-110981807D01*
X139936023Y-110994739D01*
X139889636Y-110999165D01*
X139851511Y-110997150D01*
X139819324Y-110991514D01*
X139782290Y-110979601D01*
X139750163Y-110962410D01*
X139722256Y-110939881D01*
X139700522Y-110915447D01*
X139679941Y-110883205D01*
X139664467Y-110848803D01*
X139657715Y-110820330D01*
X139742345Y-110820330D01*
X139755305Y-110852313D01*
X139774872Y-110880084D01*
X139796388Y-110899355D01*
X139821034Y-110913112D01*
X139849428Y-110921607D01*
X139882455Y-110924579D01*
X139917969Y-110921291D01*
X139946731Y-110912120D01*
X139970130Y-110897584D01*
X139989098Y-110877477D01*
X140007737Y-110844415D01*
X140020271Y-110803357D01*
X140025899Y-110752413D01*
X139650534Y-110752413D01*
X139652705Y-110684067D01*
X139739011Y-110684067D01*
X140023505Y-110684067D01*
X140017465Y-110641684D01*
X140003257Y-110605874D01*
X139980976Y-110575288D01*
X139951925Y-110551407D01*
X139919192Y-110537294D01*
X139881515Y-110532460D01*
X139841402Y-110536726D01*
X139809420Y-110548629D01*
X139783757Y-110567688D01*
X139763374Y-110594607D01*
X139748342Y-110631529D01*
X139739011Y-110684067D01*
X139652705Y-110684067D01*
X139652827Y-110680220D01*
X139658185Y-110639572D01*
X139671343Y-110590515D01*
X139692636Y-110549215D01*
X139712620Y-110524372D01*
X139738314Y-110502326D01*
X139770555Y-110483007D01*
X139805378Y-110468672D01*
X139840482Y-110460215D01*
X139876257Y-110457404D01*
X139928828Y-110462437D01*
G37*
G36*
X139210415Y-110534853D02*
G01*
X139239849Y-110502619D01*
X139262518Y-110484631D01*
X139290022Y-110471231D01*
X139322504Y-110462791D01*
X139361039Y-110459797D01*
X139402773Y-110463291D01*
X139439136Y-110473305D01*
X139471097Y-110489519D01*
X139499370Y-110512127D01*
X139524358Y-110541820D01*
X139549008Y-110583987D01*
X139566777Y-110629902D01*
X139577698Y-110680212D01*
X139581462Y-110735700D01*
X139577134Y-110795276D01*
X139564882Y-110846141D01*
X139545406Y-110889744D01*
X139518845Y-110927229D01*
X139484958Y-110959582D01*
X139449397Y-110981691D01*
X139411582Y-110994755D01*
X139370614Y-110999165D01*
X139335731Y-110996710D01*
X139304521Y-110989622D01*
X139276409Y-110978136D01*
X139250971Y-110961787D01*
X139227267Y-110939303D01*
X139205157Y-110909748D01*
X139205157Y-110981000D01*
X139127708Y-110981000D01*
X139127708Y-110725186D01*
X139207081Y-110725186D01*
X139209919Y-110774067D01*
X139217756Y-110813982D01*
X139229798Y-110846434D01*
X139245592Y-110872690D01*
X139266773Y-110895725D01*
X139289854Y-110911500D01*
X139315279Y-110920898D01*
X139343814Y-110924109D01*
X139381302Y-110920292D01*
X139411501Y-110909624D01*
X139435985Y-110892570D01*
X139455714Y-110868629D01*
X139474560Y-110830186D01*
X139486427Y-110784783D01*
X139490635Y-110730913D01*
X139487642Y-110681804D01*
X139479411Y-110642101D01*
X139466792Y-110610158D01*
X139450243Y-110584606D01*
X139428261Y-110562656D01*
X139403761Y-110547337D01*
X139376217Y-110538059D01*
X139344797Y-110534853D01*
X139308023Y-110540021D01*
X139275781Y-110555259D01*
X139246789Y-110581485D01*
X139230670Y-110605516D01*
X139218262Y-110636370D01*
X139210082Y-110675626D01*
X139207081Y-110725186D01*
X139127708Y-110725186D01*
X139127708Y-110276176D01*
X139210415Y-110276176D01*
X139210415Y-110534853D01*
G37*
G36*
X138735289Y-110981000D02*
G01*
X138655916Y-110981000D01*
X138655916Y-110915475D01*
X138627959Y-110948875D01*
X138604754Y-110969032D01*
X138576737Y-110984381D01*
X138544243Y-110993900D01*
X138506232Y-110997242D01*
X138465293Y-110993848D01*
X138429281Y-110984083D01*
X138397315Y-110968219D01*
X138368739Y-110946055D01*
X138343169Y-110916928D01*
X138318135Y-110875604D01*
X138299812Y-110828847D01*
X138288363Y-110775734D01*
X138284639Y-110719415D01*
X138372363Y-110719415D01*
X138376689Y-110779203D01*
X138388607Y-110827244D01*
X138407027Y-110865766D01*
X138426633Y-110890113D01*
X138450014Y-110907129D01*
X138477879Y-110917568D01*
X138511489Y-110921245D01*
X138547340Y-110917624D01*
X138576869Y-110907411D01*
X138601409Y-110890961D01*
X138621788Y-110867776D01*
X138638221Y-110836573D01*
X138647748Y-110806053D01*
X138654068Y-110767544D01*
X138656386Y-110719415D01*
X138653006Y-110668475D01*
X138643865Y-110629053D01*
X138630075Y-110598835D01*
X138612148Y-110575972D01*
X138580551Y-110551513D01*
X138546558Y-110537260D01*
X138509096Y-110532460D01*
X138476604Y-110535968D01*
X138449453Y-110545953D01*
X138426484Y-110562248D01*
X138407027Y-110585546D01*
X138388360Y-110622440D01*
X138376564Y-110666526D01*
X138372363Y-110719415D01*
X138284639Y-110719415D01*
X138284356Y-110715141D01*
X138288707Y-110650399D01*
X138300723Y-110597891D01*
X138319281Y-110555422D01*
X138343896Y-110521218D01*
X138375798Y-110492546D01*
X138411695Y-110472239D01*
X138452390Y-110459802D01*
X138499051Y-110455480D01*
X138543540Y-110460378D01*
X138584194Y-110474843D01*
X138620397Y-110498371D01*
X138651599Y-110531049D01*
X138651599Y-110276176D01*
X138735289Y-110276176D01*
X138735289Y-110981000D01*
G37*
G36*
X137864325Y-110468859D02*
G01*
X137769138Y-110468859D01*
X137849964Y-110693599D01*
X137928396Y-110908807D01*
X137981793Y-111042975D01*
X138014685Y-111115134D01*
X138033586Y-111147866D01*
X138050503Y-111165803D01*
X138072735Y-111179111D01*
X138101556Y-111187743D01*
X138138775Y-111190908D01*
X138166771Y-111189455D01*
X138190921Y-111184240D01*
X138190921Y-111105808D01*
X138158394Y-111113459D01*
X138140698Y-111114912D01*
X138118688Y-111112632D01*
X138105564Y-111107004D01*
X138086672Y-111087642D01*
X138069446Y-111048404D01*
X138047947Y-110995831D01*
X138237296Y-110468859D01*
X138139758Y-110468859D01*
X138002512Y-110885855D01*
X137864325Y-110468859D01*
G37*
G36*
X137413306Y-110278569D02*
G01*
X137277001Y-110278569D01*
X137075213Y-110872434D01*
X136874879Y-110278569D01*
X136740027Y-110278569D01*
X136740027Y-110981000D01*
X136830384Y-110981000D01*
X136830384Y-110566397D01*
X136829444Y-110495188D01*
X136828461Y-110388546D01*
X137028838Y-110981000D01*
X137123042Y-110981000D01*
X137324829Y-110388546D01*
X137324829Y-110410045D01*
X137323633Y-110488734D01*
X137322436Y-110566397D01*
X137322436Y-110981000D01*
X137413306Y-110981000D01*
X137413306Y-110278569D01*
G37*
G36*
X136606499Y-110471252D02*
G01*
X136519005Y-110471252D01*
X136519005Y-110981000D01*
X136606499Y-110981000D01*
X136606499Y-110471252D01*
G37*
G36*
X136606499Y-110278569D02*
G01*
X136519005Y-110278569D01*
X136519005Y-110376108D01*
X136606499Y-110376108D01*
X136606499Y-110278569D01*
G37*
G36*
X136240692Y-110458861D02*
G01*
X136284162Y-110472886D01*
X136323155Y-110496040D01*
X136358464Y-110529126D01*
X136385859Y-110568122D01*
X136406254Y-110615001D01*
X136419283Y-110671324D01*
X136423946Y-110739034D01*
X136419939Y-110793542D01*
X136408431Y-110841623D01*
X136389858Y-110884316D01*
X136364192Y-110922442D01*
X136331721Y-110954577D01*
X136294865Y-110977198D01*
X136252742Y-110991021D01*
X136203993Y-110995831D01*
X136159538Y-110992628D01*
X136120843Y-110983487D01*
X136086981Y-110968837D01*
X136057215Y-110948729D01*
X136032490Y-110923411D01*
X136012129Y-110891103D01*
X135996250Y-110850470D01*
X135985450Y-110799771D01*
X136069140Y-110799771D01*
X136079805Y-110836486D01*
X136094319Y-110865975D01*
X136112396Y-110889445D01*
X136135164Y-110907300D01*
X136162970Y-110918288D01*
X136197282Y-110922186D01*
X136231102Y-110918622D01*
X136258609Y-110908603D01*
X136281176Y-110892461D01*
X136299608Y-110869613D01*
X136317181Y-110833203D01*
X136328226Y-110790442D01*
X136332135Y-110739975D01*
X136329309Y-110689286D01*
X136321425Y-110646839D01*
X136309182Y-110611362D01*
X136292379Y-110581351D01*
X136272580Y-110559262D01*
X136249653Y-110543801D01*
X136222985Y-110534353D01*
X136191555Y-110531049D01*
X136152651Y-110535062D01*
X136124384Y-110545812D01*
X136104061Y-110562379D01*
X136088356Y-110584504D01*
X136076678Y-110610483D01*
X136069140Y-110641026D01*
X135985450Y-110641026D01*
X135994677Y-110589398D01*
X136009079Y-110549461D01*
X136027834Y-110518950D01*
X136050718Y-110496129D01*
X136078716Y-110478302D01*
X136110986Y-110465187D01*
X136148289Y-110456935D01*
X136191555Y-110454027D01*
X136240692Y-110458861D01*
G37*
G36*
X135899367Y-110276176D02*
G01*
X135813284Y-110276176D01*
X135813284Y-110538187D01*
X135782319Y-110503316D01*
X135758317Y-110483691D01*
X135729420Y-110468965D01*
X135695220Y-110459705D01*
X135654538Y-110456421D01*
X135609809Y-110460050D01*
X135573809Y-110470096D01*
X135544827Y-110485777D01*
X135521603Y-110507003D01*
X135503443Y-110534383D01*
X135492268Y-110563632D01*
X135484747Y-110602231D01*
X135481944Y-110652481D01*
X135481944Y-110981000D01*
X135570378Y-110981000D01*
X135570378Y-110658208D01*
X135574600Y-110605884D01*
X135584740Y-110575501D01*
X135598326Y-110557742D01*
X135616667Y-110544800D01*
X135640874Y-110536464D01*
X135672704Y-110533400D01*
X135707090Y-110537445D01*
X135739175Y-110549528D01*
X135769772Y-110570244D01*
X135787044Y-110589961D01*
X135800596Y-110617967D01*
X135809802Y-110656726D01*
X135813284Y-110709371D01*
X135813284Y-110981000D01*
X135899367Y-110981000D01*
X135899367Y-110276176D01*
G37*
G36*
X135205049Y-110460717D02*
G01*
X135250386Y-110473150D01*
X135291184Y-110493479D01*
X135316113Y-110514426D01*
X135334739Y-110542202D01*
X135347200Y-110578359D01*
X135352605Y-110625211D01*
X135272292Y-110625211D01*
X135264141Y-110588690D01*
X135251733Y-110565457D01*
X135230223Y-110546269D01*
X135199445Y-110533808D01*
X135156075Y-110529126D01*
X135117471Y-110531711D01*
X135088264Y-110538630D01*
X135066444Y-110548958D01*
X135049336Y-110564474D01*
X135038886Y-110585177D01*
X135035114Y-110612816D01*
X135036749Y-110632933D01*
X135040841Y-110645813D01*
X135049327Y-110657554D01*
X135062113Y-110665841D01*
X135080549Y-110670646D01*
X135217752Y-110687871D01*
X135264421Y-110697775D01*
X135302857Y-110713997D01*
X135334482Y-110736170D01*
X135353519Y-110757192D01*
X135367275Y-110782044D01*
X135375885Y-110811493D01*
X135378934Y-110846617D01*
X135373786Y-110888061D01*
X135358843Y-110923707D01*
X135333756Y-110954969D01*
X135301319Y-110978675D01*
X135263045Y-110993148D01*
X135217282Y-110998225D01*
X135178384Y-110995334D01*
X135142383Y-110986857D01*
X135108759Y-110972878D01*
X135077251Y-110954140D01*
X135052371Y-110934200D01*
X135033190Y-110913082D01*
X135026880Y-110941611D01*
X135018359Y-110960440D01*
X135002662Y-110977662D01*
X134981735Y-110988186D01*
X134953818Y-110991984D01*
X134925137Y-110990531D01*
X134894534Y-110983393D01*
X134894534Y-110919792D01*
X134909836Y-110921972D01*
X134922744Y-110922656D01*
X134938323Y-110920280D01*
X134945953Y-110914535D01*
X134949942Y-110905527D01*
X134951424Y-110892993D01*
X134951424Y-110789727D01*
X135037507Y-110789727D01*
X135042168Y-110827307D01*
X135055413Y-110857946D01*
X135077267Y-110883279D01*
X135109229Y-110904020D01*
X135152748Y-110919850D01*
X135197193Y-110925050D01*
X135221319Y-110922583D01*
X135242644Y-110915418D01*
X135261777Y-110903550D01*
X135276846Y-110887526D01*
X135285855Y-110868267D01*
X135289004Y-110844736D01*
X135284373Y-110814186D01*
X135271316Y-110790868D01*
X135249339Y-110772972D01*
X135222637Y-110762128D01*
X135179028Y-110753396D01*
X135126925Y-110746685D01*
X135078155Y-110737154D01*
X135054701Y-110729254D01*
X135037507Y-110720398D01*
X135037507Y-110789727D01*
X134951424Y-110789727D01*
X134951424Y-110597984D01*
X134955188Y-110562844D01*
X134965803Y-110534112D01*
X134982972Y-110510389D01*
X135007374Y-110490871D01*
X135046471Y-110472521D01*
X135094706Y-110460695D01*
X135154152Y-110456421D01*
X135205049Y-110460717D01*
G37*
G36*
X134808237Y-110278569D02*
G01*
X134722196Y-110278569D01*
X134722196Y-110981000D01*
X134808237Y-110981000D01*
X134808237Y-110278569D01*
G37*
G36*
X134254037Y-110278569D02*
G01*
X134052250Y-110876751D01*
X133852856Y-110278569D01*
X133746214Y-110278569D01*
X134002498Y-110981000D01*
X134103413Y-110981000D01*
X134359227Y-110278569D01*
X134254037Y-110278569D01*
G37*
G36*
X133589725Y-110460717D02*
G01*
X133635062Y-110473150D01*
X133675860Y-110493479D01*
X133700788Y-110514426D01*
X133719415Y-110542202D01*
X133731875Y-110578359D01*
X133737281Y-110625211D01*
X133656967Y-110625211D01*
X133648817Y-110588690D01*
X133636408Y-110565457D01*
X133614898Y-110546269D01*
X133584121Y-110533808D01*
X133540751Y-110529126D01*
X133502147Y-110531711D01*
X133472939Y-110538630D01*
X133451120Y-110548958D01*
X133434011Y-110564474D01*
X133423561Y-110585177D01*
X133419789Y-110612816D01*
X133421424Y-110632933D01*
X133425517Y-110645813D01*
X133434003Y-110657554D01*
X133446788Y-110665841D01*
X133465225Y-110670646D01*
X133602428Y-110687871D01*
X133649096Y-110697775D01*
X133687533Y-110713997D01*
X133719158Y-110736170D01*
X133738194Y-110757192D01*
X133751951Y-110782044D01*
X133760561Y-110811493D01*
X133763610Y-110846617D01*
X133758461Y-110888061D01*
X133743518Y-110923707D01*
X133718431Y-110954969D01*
X133685995Y-110978675D01*
X133647721Y-110993148D01*
X133601958Y-110998225D01*
X133563060Y-110995334D01*
X133527058Y-110986857D01*
X133493435Y-110972878D01*
X133461927Y-110954140D01*
X133437047Y-110934200D01*
X133417866Y-110913082D01*
X133411555Y-110941611D01*
X133403034Y-110960440D01*
X133387337Y-110977662D01*
X133366411Y-110988186D01*
X133338493Y-110991984D01*
X133309813Y-110990531D01*
X133279209Y-110983393D01*
X133279209Y-110919792D01*
X133294511Y-110921972D01*
X133307419Y-110922656D01*
X133322998Y-110920280D01*
X133330628Y-110914535D01*
X133334618Y-110905527D01*
X133336099Y-110892993D01*
X133336099Y-110789727D01*
X133422183Y-110789727D01*
X133426844Y-110827307D01*
X133440088Y-110857946D01*
X133461943Y-110883279D01*
X133493905Y-110904020D01*
X133537424Y-110919850D01*
X133581869Y-110925050D01*
X133605995Y-110922583D01*
X133627320Y-110915418D01*
X133646453Y-110903550D01*
X133661521Y-110887526D01*
X133670531Y-110868267D01*
X133673680Y-110844736D01*
X133669048Y-110814186D01*
X133655992Y-110790868D01*
X133634015Y-110772972D01*
X133607312Y-110762128D01*
X133563703Y-110753396D01*
X133511600Y-110746685D01*
X133462831Y-110737154D01*
X133439376Y-110729254D01*
X133422183Y-110720398D01*
X133422183Y-110789727D01*
X133336099Y-110789727D01*
X133336099Y-110597984D01*
X133339864Y-110562844D01*
X133350478Y-110534112D01*
X133367647Y-110510389D01*
X133392049Y-110490871D01*
X133431147Y-110472521D01*
X133479381Y-110460695D01*
X133538827Y-110456421D01*
X133589725Y-110460717D01*
G37*
G36*
X133192912Y-110468859D02*
G01*
X133111146Y-110468859D01*
X133111146Y-110557336D01*
X133095932Y-110531465D01*
X133061906Y-110494462D01*
X133034033Y-110473641D01*
X133004197Y-110461492D01*
X132971506Y-110457404D01*
X132963428Y-110457874D01*
X132943809Y-110459797D01*
X132943809Y-110550625D01*
X132957914Y-110548745D01*
X132972019Y-110548232D01*
X133003991Y-110551099D01*
X133030670Y-110559187D01*
X133053085Y-110572123D01*
X133071951Y-110590077D01*
X133091420Y-110619516D01*
X133102957Y-110651344D01*
X133106871Y-110686418D01*
X133106871Y-110981000D01*
X133192912Y-110981000D01*
X133192912Y-110468859D01*
G37*
G36*
X132737325Y-110458615D02*
G01*
X132774828Y-110467457D01*
X132806744Y-110481451D01*
X132833961Y-110500446D01*
X132856898Y-110524683D01*
X132873049Y-110551909D01*
X132882902Y-110582733D01*
X132886320Y-110618073D01*
X132882823Y-110647356D01*
X132872680Y-110672660D01*
X132855711Y-110694936D01*
X132830840Y-110714671D01*
X132794921Y-110732334D01*
X132734242Y-110751002D01*
X132665897Y-110768227D01*
X132615666Y-110782702D01*
X132592252Y-110792591D01*
X132575835Y-110806057D01*
X132566339Y-110822464D01*
X132563059Y-110842813D01*
X132567244Y-110869721D01*
X132579161Y-110890667D01*
X132599433Y-110907140D01*
X132624404Y-110918500D01*
X132652248Y-110925491D01*
X132683550Y-110927913D01*
X132724073Y-110924778D01*
X132755131Y-110916296D01*
X132778747Y-110903397D01*
X132796433Y-110886325D01*
X132810082Y-110860067D01*
X132817932Y-110820330D01*
X132900682Y-110820330D01*
X132896060Y-110857874D01*
X132885982Y-110891371D01*
X132870603Y-110921489D01*
X132849733Y-110948729D01*
X132824505Y-110969735D01*
X132790705Y-110985892D01*
X132746102Y-110996631D01*
X132687867Y-111000618D01*
X132634203Y-110996949D01*
X132591243Y-110986871D01*
X132556989Y-110971385D01*
X132529848Y-110950909D01*
X132506761Y-110924327D01*
X132490763Y-110896115D01*
X132481205Y-110865817D01*
X132477958Y-110832769D01*
X132481412Y-110798244D01*
X132491079Y-110770283D01*
X132506530Y-110747489D01*
X132528181Y-110728990D01*
X132567938Y-110710147D01*
X132652476Y-110685478D01*
X132709409Y-110671629D01*
X132744102Y-110661068D01*
X132765829Y-110650557D01*
X132784684Y-110635107D01*
X132795273Y-110617544D01*
X132798826Y-110597001D01*
X132796013Y-110577847D01*
X132787809Y-110561696D01*
X132773736Y-110547762D01*
X132755971Y-110538033D01*
X132731944Y-110531551D01*
X132699835Y-110529126D01*
X132652240Y-110533643D01*
X132619299Y-110545442D01*
X132597039Y-110563063D01*
X132582752Y-110588365D01*
X132576437Y-110616150D01*
X132495184Y-110616150D01*
X132498142Y-110584003D01*
X132508326Y-110553315D01*
X132526257Y-110523398D01*
X132554274Y-110494911D01*
X132590111Y-110473903D01*
X132635555Y-110460393D01*
X132693124Y-110455480D01*
X132737325Y-110458615D01*
G37*
G36*
X132229487Y-110460717D02*
G01*
X132274824Y-110473150D01*
X132315622Y-110493479D01*
X132340551Y-110514426D01*
X132359178Y-110542202D01*
X132371638Y-110578359D01*
X132377043Y-110625211D01*
X132296730Y-110625211D01*
X132288579Y-110588690D01*
X132276171Y-110565457D01*
X132254661Y-110546269D01*
X132223883Y-110533808D01*
X132180513Y-110529126D01*
X132141909Y-110531711D01*
X132112702Y-110538630D01*
X132090882Y-110548958D01*
X132073774Y-110564474D01*
X132063324Y-110585177D01*
X132059552Y-110612816D01*
X132061187Y-110632933D01*
X132065280Y-110645813D01*
X132073766Y-110657554D01*
X132086551Y-110665841D01*
X132104987Y-110670646D01*
X132242191Y-110687871D01*
X132288859Y-110697775D01*
X132327295Y-110713997D01*
X132358920Y-110736170D01*
X132377957Y-110757192D01*
X132391714Y-110782044D01*
X132400323Y-110811493D01*
X132403373Y-110846617D01*
X132398224Y-110888061D01*
X132383281Y-110923707D01*
X132358194Y-110954969D01*
X132325757Y-110978675D01*
X132287483Y-110993148D01*
X132241721Y-110998225D01*
X132202823Y-110995334D01*
X132166821Y-110986857D01*
X132133197Y-110972878D01*
X132101689Y-110954140D01*
X132076809Y-110934200D01*
X132057629Y-110913082D01*
X132051318Y-110941611D01*
X132042797Y-110960440D01*
X132027100Y-110977662D01*
X132006174Y-110988186D01*
X131978256Y-110991984D01*
X131949576Y-110990531D01*
X131918972Y-110983393D01*
X131918972Y-110919792D01*
X131934274Y-110921972D01*
X131947182Y-110922656D01*
X131962761Y-110920280D01*
X131970391Y-110914535D01*
X131974380Y-110905527D01*
X131975862Y-110892993D01*
X131975862Y-110789727D01*
X132061946Y-110789727D01*
X132066607Y-110827307D01*
X132079851Y-110857946D01*
X132101705Y-110883279D01*
X132133668Y-110904020D01*
X132177186Y-110919850D01*
X132221632Y-110925050D01*
X132245758Y-110922583D01*
X132267082Y-110915418D01*
X132286215Y-110903550D01*
X132301284Y-110887526D01*
X132310294Y-110868267D01*
X132313442Y-110844736D01*
X132308811Y-110814186D01*
X132295755Y-110790868D01*
X132273777Y-110772972D01*
X132247075Y-110762128D01*
X132203466Y-110753396D01*
X132151363Y-110746685D01*
X132102594Y-110737154D01*
X132079139Y-110729254D01*
X132061946Y-110720398D01*
X132061946Y-110789727D01*
X131975862Y-110789727D01*
X131975862Y-110597984D01*
X131979627Y-110562844D01*
X131990241Y-110534112D01*
X132007410Y-110510389D01*
X132031812Y-110490871D01*
X132070909Y-110472521D01*
X132119144Y-110460695D01*
X132178590Y-110456421D01*
X132229487Y-110460717D01*
G37*
G36*
X131835068Y-110468859D02*
G01*
X131753302Y-110468859D01*
X131753302Y-110541564D01*
X131727491Y-110513341D01*
X131701889Y-110492147D01*
X131676323Y-110477023D01*
X131633946Y-110462426D01*
X131585965Y-110457404D01*
X131542142Y-110460953D01*
X131506969Y-110470766D01*
X131478743Y-110486061D01*
X131456208Y-110506742D01*
X131438674Y-110533400D01*
X131427828Y-110562038D01*
X131420431Y-110600843D01*
X131417645Y-110652481D01*
X131417645Y-110981000D01*
X131505139Y-110981000D01*
X131505139Y-110658208D01*
X131508961Y-110614000D01*
X131518988Y-110582682D01*
X131532707Y-110561856D01*
X131550525Y-110547244D01*
X131573200Y-110538134D01*
X131602207Y-110534853D01*
X131631379Y-110536570D01*
X131652430Y-110541051D01*
X131674696Y-110550233D01*
X131695322Y-110564093D01*
X131714577Y-110583152D01*
X131732628Y-110609505D01*
X131742531Y-110635512D01*
X131747116Y-110665421D01*
X131748985Y-110712748D01*
X131748985Y-110981000D01*
X131835068Y-110981000D01*
X131835068Y-110468859D01*
G37*
G36*
X130970815Y-110468859D02*
G01*
X130875628Y-110468859D01*
X130956454Y-110693599D01*
X131034886Y-110908807D01*
X131088283Y-111042975D01*
X131121175Y-111115134D01*
X131140075Y-111147866D01*
X131156993Y-111165803D01*
X131179225Y-111179111D01*
X131208046Y-111187743D01*
X131245265Y-111190908D01*
X131273261Y-111189455D01*
X131297411Y-111184240D01*
X131297411Y-111105808D01*
X131264883Y-111113459D01*
X131247188Y-111114912D01*
X131225178Y-111112632D01*
X131212054Y-111107004D01*
X131193162Y-111087642D01*
X131175936Y-111048404D01*
X131154437Y-110995831D01*
X131343786Y-110468859D01*
X131246248Y-110468859D01*
X131109002Y-110885855D01*
X130970815Y-110468859D01*
G37*
G36*
X130801042Y-110471252D02*
G01*
X130713548Y-110471252D01*
X130713548Y-110981000D01*
X130801042Y-110981000D01*
X130801042Y-110471252D01*
G37*
G36*
X130801042Y-110278569D02*
G01*
X130713548Y-110278569D01*
X130713548Y-110376108D01*
X130801042Y-110376108D01*
X130801042Y-110278569D01*
G37*
D11*
%TO.C,J102*%
X129780000Y-97785000D02*
X129780000Y-103770000D01*
X129780000Y-109755000D02*
X129780000Y-103770000D01*
X135200000Y-98855000D02*
X135500000Y-98855000D01*
X135200000Y-103770000D02*
X135200000Y-98855000D01*
X135200000Y-103770000D02*
X135200000Y-108685000D01*
X135200000Y-108685000D02*
X135500000Y-108685000D01*
X135490000Y-108395000D02*
X135790000Y-108395000D01*
X135500000Y-97785000D02*
X129780000Y-97785000D01*
X135500000Y-98855000D02*
X135500000Y-97785000D01*
X135500000Y-108685000D02*
X135500000Y-109755000D01*
X135500000Y-109755000D02*
X129780000Y-109755000D01*
X135790000Y-108395000D02*
X135790000Y-108895000D01*
%TD*%
M02*
