%TF.GenerationSoftware,KiCad,Pcbnew,9.0.6*%
%TF.CreationDate,2025-12-29T16:38:56+01:00*%
%TF.ProjectId,Programmer_Board,50726f67-7261-46d6-9d65-725f426f6172,1.0*%
%TF.SameCoordinates,Original*%
%TF.FileFunction,Paste,Top*%
%TF.FilePolarity,Positive*%
%FSLAX46Y46*%
G04 Gerber Fmt 4.6, Leading zero omitted, Abs format (unit mm)*
G04 Created by KiCad (PCBNEW 9.0.6) date 2025-12-29 16:38:56*
%MOMM*%
%LPD*%
G01*
G04 APERTURE LIST*
G04 Aperture macros list*
%AMRoundRect*
0 Rectangle with rounded corners*
0 $1 Rounding radius*
0 $2 $3 $4 $5 $6 $7 $8 $9 X,Y pos of 4 corners*
0 Add a 4 corners polygon primitive as box body*
4,1,4,$2,$3,$4,$5,$6,$7,$8,$9,$2,$3,0*
0 Add four circle primitives for the rounded corners*
1,1,$1+$1,$2,$3*
1,1,$1+$1,$4,$5*
1,1,$1+$1,$6,$7*
1,1,$1+$1,$8,$9*
0 Add four rect primitives between the rounded corners*
20,1,$1+$1,$2,$3,$4,$5,0*
20,1,$1+$1,$4,$5,$6,$7,0*
20,1,$1+$1,$6,$7,$8,$9,0*
20,1,$1+$1,$8,$9,$2,$3,0*%
%AMFreePoly0*
4,1,6,0.180000,0.075000,0.000000,-0.105000,-0.220000,-0.105000,-0.220000,0.105000,0.180000,0.105000,0.180000,0.075000,0.180000,0.075000,$1*%
%AMFreePoly1*
4,1,6,0.180000,-0.075000,0.180000,-0.105000,-0.220000,-0.105000,-0.220000,0.105000,0.000000,0.105000,0.180000,-0.075000,0.180000,-0.075000,$1*%
%AMFreePoly2*
4,1,6,0.220000,-0.105000,0.000000,-0.105000,-0.180000,0.075000,-0.180000,0.105000,0.220000,0.105000,0.220000,-0.105000,0.220000,-0.105000,$1*%
%AMFreePoly3*
4,1,6,0.220000,-0.105000,-0.180000,-0.105000,-0.180000,-0.075000,0.000000,0.105000,0.220000,0.105000,0.220000,-0.105000,0.220000,-0.105000,$1*%
G04 Aperture macros list end*
%ADD10C,0.010000*%
%ADD11RoundRect,0.140000X0.140000X0.170000X-0.140000X0.170000X-0.140000X-0.170000X0.140000X-0.170000X0*%
%ADD12RoundRect,0.135000X0.135000X0.185000X-0.135000X0.185000X-0.135000X-0.185000X0.135000X-0.185000X0*%
%ADD13RoundRect,0.135000X-0.135000X-0.185000X0.135000X-0.185000X0.135000X0.185000X-0.135000X0.185000X0*%
%ADD14RoundRect,0.250000X0.335000X0.335000X-0.335000X0.335000X-0.335000X-0.335000X0.335000X-0.335000X0*%
%ADD15RoundRect,0.062500X0.337500X0.062500X-0.337500X0.062500X-0.337500X-0.062500X0.337500X-0.062500X0*%
%ADD16RoundRect,0.062500X0.062500X0.337500X-0.062500X0.337500X-0.062500X-0.337500X0.062500X-0.337500X0*%
%ADD17RoundRect,0.135000X0.185000X-0.135000X0.185000X0.135000X-0.185000X0.135000X-0.185000X-0.135000X0*%
%ADD18RoundRect,0.147500X0.172500X-0.147500X0.172500X0.147500X-0.172500X0.147500X-0.172500X-0.147500X0*%
%ADD19RoundRect,0.147500X0.147500X0.172500X-0.147500X0.172500X-0.147500X-0.172500X0.147500X-0.172500X0*%
%ADD20RoundRect,0.140000X-0.170000X0.140000X-0.170000X-0.140000X0.170000X-0.140000X0.170000X0.140000X0*%
%ADD21FreePoly0,270.000000*%
%ADD22FreePoly1,270.000000*%
%ADD23FreePoly2,270.000000*%
%ADD24FreePoly3,270.000000*%
%ADD25RoundRect,0.112500X-0.159099X0.000000X0.000000X-0.159099X0.159099X0.000000X0.000000X0.159099X0*%
%ADD26RoundRect,0.140000X0.170000X-0.140000X0.170000X0.140000X-0.170000X0.140000X-0.170000X-0.140000X0*%
%ADD27RoundRect,0.130000X0.130000X0.150000X-0.130000X0.150000X-0.130000X-0.150000X0.130000X-0.150000X0*%
%ADD28RoundRect,0.062500X0.325000X0.062500X-0.325000X0.062500X-0.325000X-0.062500X0.325000X-0.062500X0*%
%ADD29R,0.550000X0.365000*%
%ADD30R,0.550000X0.250000*%
%ADD31RoundRect,0.218750X0.218750X0.256250X-0.218750X0.256250X-0.218750X-0.256250X0.218750X-0.256250X0*%
%ADD32RoundRect,0.150000X0.512500X0.150000X-0.512500X0.150000X-0.512500X-0.150000X0.512500X-0.150000X0*%
%ADD33RoundRect,0.225000X0.250000X-0.225000X0.250000X0.225000X-0.250000X0.225000X-0.250000X-0.225000X0*%
%ADD34RoundRect,0.147500X-0.147500X-0.172500X0.147500X-0.172500X0.147500X0.172500X-0.147500X0.172500X0*%
%ADD35RoundRect,0.150000X0.425000X-0.150000X0.425000X0.150000X-0.425000X0.150000X-0.425000X-0.150000X0*%
%ADD36RoundRect,0.075000X0.500000X-0.075000X0.500000X0.075000X-0.500000X0.075000X-0.500000X-0.075000X0*%
%ADD37O,2.100000X1.000000*%
%ADD38O,1.800000X1.000000*%
G04 APERTURE END LIST*
%TO.C,Y201*%
D10*
X166370000Y-105420000D02*
X167070000Y-105420000D01*
X167070000Y-104670000D01*
X166370000Y-104670000D01*
X166370000Y-105420000D01*
G36*
X166370000Y-105420000D02*
G01*
X167070000Y-105420000D01*
X167070000Y-104670000D01*
X166370000Y-104670000D01*
X166370000Y-105420000D01*
G37*
X166370000Y-107170000D02*
X167070000Y-107170000D01*
X167070000Y-106420000D01*
X166370000Y-106420000D01*
X166370000Y-107170000D01*
G36*
X166370000Y-107170000D02*
G01*
X167070000Y-107170000D01*
X167070000Y-106420000D01*
X166370000Y-106420000D01*
X166370000Y-107170000D01*
G37*
X167770000Y-105420000D02*
X168470000Y-105420000D01*
X168470000Y-104670000D01*
X167770000Y-104670000D01*
X167770000Y-105420000D01*
G36*
X167770000Y-105420000D02*
G01*
X168470000Y-105420000D01*
X168470000Y-104670000D01*
X167770000Y-104670000D01*
X167770000Y-105420000D01*
G37*
X167770000Y-107170000D02*
X168470000Y-107170000D01*
X168470000Y-106420000D01*
X167770000Y-106420000D01*
X167770000Y-107170000D01*
G36*
X167770000Y-107170000D02*
G01*
X168470000Y-107170000D01*
X168470000Y-106420000D01*
X167770000Y-106420000D01*
X167770000Y-107170000D01*
G37*
%TO.C,U1*%
X146410000Y-102990000D02*
X145960000Y-102990000D01*
X145960000Y-102790000D01*
X146410000Y-102790000D01*
X146410000Y-102990000D01*
G36*
X146410000Y-102990000D02*
G01*
X145960000Y-102990000D01*
X145960000Y-102790000D01*
X146410000Y-102790000D01*
X146410000Y-102990000D01*
G37*
X146410000Y-103490000D02*
X145960000Y-103490000D01*
X145960000Y-103290000D01*
X146410000Y-103290000D01*
X146410000Y-103490000D01*
G36*
X146410000Y-103490000D02*
G01*
X145960000Y-103490000D01*
X145960000Y-103290000D01*
X146410000Y-103290000D01*
X146410000Y-103490000D01*
G37*
X146410000Y-103990000D02*
X145960000Y-103990000D01*
X145960000Y-103790000D01*
X146410000Y-103790000D01*
X146410000Y-103990000D01*
G36*
X146410000Y-103990000D02*
G01*
X145960000Y-103990000D01*
X145960000Y-103790000D01*
X146410000Y-103790000D01*
X146410000Y-103990000D01*
G37*
X146410000Y-104490000D02*
X145960000Y-104490000D01*
X145960000Y-104290000D01*
X146410000Y-104290000D01*
X146410000Y-104490000D01*
G36*
X146410000Y-104490000D02*
G01*
X145960000Y-104490000D01*
X145960000Y-104290000D01*
X146410000Y-104290000D01*
X146410000Y-104490000D01*
G37*
X146410000Y-104990000D02*
X145960000Y-104990000D01*
X145960000Y-104790000D01*
X146410000Y-104790000D01*
X146410000Y-104990000D01*
G36*
X146410000Y-104990000D02*
G01*
X145960000Y-104990000D01*
X145960000Y-104790000D01*
X146410000Y-104790000D01*
X146410000Y-104990000D01*
G37*
X147185000Y-102990000D02*
X146735000Y-102990000D01*
X146735000Y-102790000D01*
X147185000Y-102790000D01*
X147185000Y-102990000D01*
G36*
X147185000Y-102990000D02*
G01*
X146735000Y-102990000D01*
X146735000Y-102790000D01*
X147185000Y-102790000D01*
X147185000Y-102990000D01*
G37*
X147185000Y-103490000D02*
X146735000Y-103490000D01*
X146735000Y-103290000D01*
X147185000Y-103290000D01*
X147185000Y-103490000D01*
G36*
X147185000Y-103490000D02*
G01*
X146735000Y-103490000D01*
X146735000Y-103290000D01*
X147185000Y-103290000D01*
X147185000Y-103490000D01*
G37*
X147185000Y-103990000D02*
X146735000Y-103990000D01*
X146735000Y-103790000D01*
X147185000Y-103790000D01*
X147185000Y-103990000D01*
G36*
X147185000Y-103990000D02*
G01*
X146735000Y-103990000D01*
X146735000Y-103790000D01*
X147185000Y-103790000D01*
X147185000Y-103990000D01*
G37*
X147185000Y-104490000D02*
X146735000Y-104490000D01*
X146735000Y-104290000D01*
X147185000Y-104290000D01*
X147185000Y-104490000D01*
G36*
X147185000Y-104490000D02*
G01*
X146735000Y-104490000D01*
X146735000Y-104290000D01*
X147185000Y-104290000D01*
X147185000Y-104490000D01*
G37*
X147185000Y-104990000D02*
X146735000Y-104990000D01*
X146735000Y-104790000D01*
X147185000Y-104790000D01*
X147185000Y-104990000D01*
G36*
X147185000Y-104990000D02*
G01*
X146735000Y-104990000D01*
X146735000Y-104790000D01*
X147185000Y-104790000D01*
X147185000Y-104990000D01*
G37*
%TD*%
D11*
%TO.C,C203*%
X153100000Y-99900000D03*
X152140000Y-99900000D03*
%TD*%
D12*
%TO.C,R202*%
X165500000Y-109200000D03*
X164480000Y-109200000D03*
%TD*%
D13*
%TO.C,R201*%
X164410000Y-106700000D03*
X165430000Y-106700000D03*
%TD*%
D11*
%TO.C,C208*%
X153100000Y-104300000D03*
X152140000Y-104300000D03*
%TD*%
D12*
%TO.C,R203*%
X167510000Y-110200000D03*
X166490000Y-110200000D03*
%TD*%
D14*
%TO.C,U201*%
X160270000Y-105060000D03*
X160270000Y-103610000D03*
X160270000Y-102160000D03*
X158820000Y-105060000D03*
X158820000Y-103610000D03*
X158820000Y-102160000D03*
X157370000Y-105060000D03*
X157370000Y-103610000D03*
X157370000Y-102160000D03*
D15*
X163270000Y-107360000D03*
X163270000Y-106860000D03*
X163270000Y-106360000D03*
X163270000Y-105860000D03*
X163270000Y-105360000D03*
X163270000Y-104860000D03*
X163270000Y-104360000D03*
X163270000Y-103860000D03*
X163270000Y-103360000D03*
X163270000Y-102860000D03*
X163270000Y-102360000D03*
X163270000Y-101860000D03*
X163270000Y-101360000D03*
X163270000Y-100860000D03*
X163270000Y-100360000D03*
X163270000Y-99860000D03*
D16*
X162570000Y-99160000D03*
X162070000Y-99160000D03*
X161570000Y-99160000D03*
X161070000Y-99160000D03*
X160570000Y-99160000D03*
X160070000Y-99160000D03*
X159570000Y-99160000D03*
X159070000Y-99160000D03*
X158570000Y-99160000D03*
X158070000Y-99160000D03*
X157570000Y-99160000D03*
X157070000Y-99160000D03*
X156570000Y-99160000D03*
X156070000Y-99160000D03*
X155570000Y-99160000D03*
X155070000Y-99160000D03*
D15*
X154370000Y-99860000D03*
X154370000Y-100360000D03*
X154370000Y-100860000D03*
X154370000Y-101360000D03*
X154370000Y-101860000D03*
X154370000Y-102360000D03*
X154370000Y-102860000D03*
X154370000Y-103360000D03*
X154370000Y-103860000D03*
X154370000Y-104360000D03*
X154370000Y-104860000D03*
X154370000Y-105360000D03*
X154370000Y-105860000D03*
X154370000Y-106360000D03*
X154370000Y-106860000D03*
X154370000Y-107360000D03*
D16*
X155070000Y-108060000D03*
X155570000Y-108060000D03*
X156070000Y-108060000D03*
X156570000Y-108060000D03*
X157070000Y-108060000D03*
X157570000Y-108060000D03*
X158070000Y-108060000D03*
X158570000Y-108060000D03*
X159070000Y-108060000D03*
X159570000Y-108060000D03*
X160070000Y-108060000D03*
X160570000Y-108060000D03*
X161070000Y-108060000D03*
X161570000Y-108060000D03*
X162070000Y-108060000D03*
X162570000Y-108060000D03*
%TD*%
D17*
%TO.C,R212*%
X159400000Y-98020000D03*
X159400000Y-97000000D03*
%TD*%
%TO.C,R213*%
X158400000Y-98020000D03*
X158400000Y-97000000D03*
%TD*%
D18*
%TO.C,D104*%
X169200000Y-100100000D03*
X169200000Y-99130000D03*
%TD*%
D19*
%TO.C,D101*%
X143085000Y-108700000D03*
X142115000Y-108700000D03*
%TD*%
D12*
%TO.C,R204*%
X167500000Y-109200000D03*
X166480000Y-109200000D03*
%TD*%
D11*
%TO.C,C215*%
X153100000Y-101900000D03*
X152140000Y-101900000D03*
%TD*%
D20*
%TO.C,C213*%
X155120000Y-109240000D03*
X155120000Y-110200000D03*
%TD*%
D13*
%TO.C,R103*%
X142100000Y-96800000D03*
X143120000Y-96800000D03*
%TD*%
D11*
%TO.C,C202*%
X153100000Y-105300000D03*
X152140000Y-105300000D03*
%TD*%
D13*
%TO.C,R105*%
X170490000Y-97000000D03*
X171510000Y-97000000D03*
%TD*%
%TO.C,R104*%
X170790000Y-109800000D03*
X171810000Y-109800000D03*
%TD*%
D21*
%TO.C,U102*%
X151960000Y-109300000D03*
D22*
X151310000Y-109300000D03*
D23*
X151960000Y-110160000D03*
D24*
X151310000Y-110160000D03*
D25*
X151635000Y-109730000D03*
%TD*%
D26*
%TO.C,C102*%
X150360000Y-110230000D03*
X150360000Y-109270000D03*
%TD*%
D27*
%TO.C,U202*%
X159145000Y-110420000D03*
X159145000Y-109720000D03*
X158495000Y-110420000D03*
X158495000Y-109720000D03*
D28*
X160282500Y-110820000D03*
X160282500Y-110320000D03*
X160282500Y-109820000D03*
X160282500Y-109320000D03*
X157357500Y-109320000D03*
X157357500Y-109820000D03*
X157357500Y-110320000D03*
X157357500Y-110820000D03*
%TD*%
D29*
%TO.C,R101*%
X149300000Y-104697000D03*
D30*
X149300000Y-104140000D03*
X149300000Y-103640000D03*
D29*
X149300000Y-103083000D03*
X148250000Y-103083000D03*
D30*
X148250000Y-103640000D03*
X148250000Y-104140000D03*
D29*
X148250000Y-104697000D03*
%TD*%
D20*
%TO.C,C211*%
X153120000Y-109240000D03*
X153120000Y-110200000D03*
%TD*%
D26*
%TO.C,C205*%
X169420000Y-106400000D03*
X169420000Y-105440000D03*
%TD*%
D20*
%TO.C,C12*%
X154120000Y-109240000D03*
X154120000Y-110200000D03*
%TD*%
D11*
%TO.C,C103*%
X153100000Y-108300000D03*
X152140000Y-108300000D03*
%TD*%
D13*
%TO.C,R208*%
X164490000Y-99300000D03*
X165510000Y-99300000D03*
%TD*%
D11*
%TO.C,C204*%
X153100000Y-100900000D03*
X152140000Y-100900000D03*
%TD*%
D31*
%TO.C,D105*%
X175187500Y-97600000D03*
X173612500Y-97600000D03*
%TD*%
D12*
%TO.C,R106*%
X168910000Y-97000000D03*
X167890000Y-97000000D03*
%TD*%
D26*
%TO.C,C207*%
X156620000Y-98000000D03*
X156620000Y-97040000D03*
%TD*%
D32*
%TO.C,U103*%
X168520000Y-103420000D03*
X168520000Y-102470000D03*
X168520000Y-101520000D03*
X166245000Y-101520000D03*
X166245000Y-102470000D03*
X166245000Y-103420000D03*
%TD*%
D26*
%TO.C,C216*%
X156120000Y-110200000D03*
X156120000Y-109240000D03*
%TD*%
D12*
%TO.C,R207*%
X165460000Y-104700000D03*
X164440000Y-104700000D03*
%TD*%
D33*
%TO.C,C101*%
X167900000Y-99875000D03*
X167900000Y-98325000D03*
%TD*%
D13*
%TO.C,R210*%
X164490000Y-97300000D03*
X165510000Y-97300000D03*
%TD*%
D34*
%TO.C,FB202*%
X152135000Y-98900000D03*
X153105000Y-98900000D03*
%TD*%
D26*
%TO.C,C214*%
X163400000Y-110100000D03*
X163400000Y-109140000D03*
%TD*%
%TO.C,C210*%
X161400000Y-97990000D03*
X161400000Y-97030000D03*
%TD*%
D13*
%TO.C,R102*%
X142090000Y-99800000D03*
X143110000Y-99800000D03*
%TD*%
%TO.C,R205*%
X164490000Y-110200000D03*
X165510000Y-110200000D03*
%TD*%
D34*
%TO.C,FB201*%
X152135000Y-107300000D03*
X153105000Y-107300000D03*
%TD*%
D11*
%TO.C,C206*%
X165420000Y-105700000D03*
X164460000Y-105700000D03*
%TD*%
D12*
%TO.C,R206*%
X165510000Y-100300000D03*
X164490000Y-100300000D03*
%TD*%
D34*
%TO.C,D103*%
X142100000Y-98800000D03*
X143070000Y-98800000D03*
%TD*%
D35*
%TO.C,J103*%
X171410000Y-107090000D03*
X171410000Y-106290000D03*
D36*
X171410000Y-105140000D03*
X171410000Y-104140000D03*
X171410000Y-103640000D03*
X171410000Y-102640000D03*
D35*
X171410000Y-101490000D03*
X171410000Y-100690000D03*
X171410000Y-100690000D03*
X171410000Y-101490000D03*
D36*
X171410000Y-102140000D03*
X171410000Y-103140000D03*
X171410000Y-104640000D03*
X171410000Y-105640000D03*
D35*
X171410000Y-106290000D03*
X171410000Y-107090000D03*
D37*
X171985000Y-108210000D03*
D38*
X176165000Y-108210000D03*
D37*
X171985000Y-99570000D03*
D38*
X176165000Y-99570000D03*
%TD*%
D13*
%TO.C,R209*%
X164490000Y-98300000D03*
X165510000Y-98300000D03*
%TD*%
D11*
%TO.C,C201*%
X153100000Y-106300000D03*
X152140000Y-106300000D03*
%TD*%
D26*
%TO.C,C209*%
X155620000Y-98000000D03*
X155620000Y-97040000D03*
%TD*%
D12*
%TO.C,R107*%
X171510000Y-98000000D03*
X170490000Y-98000000D03*
%TD*%
D34*
%TO.C,D102*%
X142100000Y-97800000D03*
X143070000Y-97800000D03*
%TD*%
D17*
%TO.C,R211*%
X160400000Y-98020000D03*
X160400000Y-97000000D03*
%TD*%
M02*
