M48
; DRILL file {KiCad 9.0.6} date 2025-12-28T22:44:01+0100
; FORMAT={-:-/ absolute / metric / decimal}
; #@! TF.CreationDate,2025-12-28T22:44:01+01:00
; #@! TF.GenerationSoftware,Kicad,Pcbnew,9.0.6
; #@! TF.FileFunction,Plated,1,4,PTH
FMAT,2
METRIC
; #@! TA.AperFunction,Plated,PTH,ViaDrill
T1C0.200
; #@! TA.AperFunction,Plated,PTH,ViaDrill
T2C0.300
; #@! TA.AperFunction,Plated,PTH,ComponentDrill
T3C0.400
; #@! TA.AperFunction,Plated,PTH,ComponentDrill
T4C0.500
; #@! TA.AperFunction,Plated,PTH,ComponentDrill
T5C0.600
; #@! TA.AperFunction,Plated,PTH,ComponentDrill
T6C1.000
; #@! TA.AperFunction,Plated,PTH,ComponentDrill
T7C2.200
%
G90
G05
T1
X131.0Y-107.1
X131.2Y-97.0
X131.9Y-101.4
X132.4Y-109.0
X136.7Y-98.4
X136.8Y-107.2
X138.0Y-102.0
X139.7Y-109.1
X140.6Y-99.7
X141.4Y-108.7
X150.0Y-106.7
X151.4Y-99.9
X151.4Y-100.9
X151.4Y-101.9
X151.4Y-104.3
X151.4Y-105.3
X151.4Y-106.3
X153.1Y-97.1
X154.86Y-97.04
X155.22Y-100.86
X156.318Y-107.245
X158.57Y-100.01
X158.82Y-103.61
X158.82Y-110.07
X159.2Y-108.91
X162.42Y-100.85
X162.42Y-102.86
X162.42Y-105.36
X162.457Y-102.104
X164.3Y-101.7
X167.42Y-105.92
X169.42Y-104.72
X170.4Y-100.4
X170.8Y-110.6
X172.7Y-104.4
X173.1Y-107.3
X175.3Y-103.0
X177.2Y-101.7
X177.4Y-106.1
T2
X143.9Y-97.8
X143.9Y-98.8
X145.2Y-104.8
X145.43Y-103.89
X146.2Y-105.8
X149.3Y-102.4
X149.3Y-105.4
X150.075Y-103.08
X150.075Y-104.71
X150.36Y-108.49
X150.5Y-97.3
X151.4Y-107.3
X153.2Y-103.1
X154.2Y-108.3
X155.276Y-106.076
X155.9Y-102.5
X155.9Y-103.8
X157.527Y-97.265
X157.88Y-106.52
X159.6Y-107.1
X160.45Y-100.25
X160.5Y-106.5
X161.7Y-104.4
X162.2Y-97.7
X162.207Y-106.079
X162.9Y-97.0
X163.3Y-107.9
X164.5Y-108.4
X165.5Y-108.4
X166.3Y-97.3
X166.3Y-98.3
X166.3Y-99.3
X166.3Y-100.3
X167.4Y-102.8
X168.3Y-109.2
X169.1Y-108.1
X169.2Y-98.3
X169.7Y-97.0
X173.4Y-100.9
X173.4Y-106.5
X176.1Y-97.6
T3
X145.35Y-99.14
X145.35Y-108.64
X145.833Y-97.973
X145.833Y-100.307
X145.833Y-107.473
X145.833Y-109.807
X147.0Y-97.49
X147.0Y-100.79
X147.0Y-106.99
X147.0Y-110.29
X148.167Y-97.973
X148.167Y-100.307
X148.167Y-107.473
X148.167Y-109.807
X148.65Y-99.14
X148.65Y-108.64
T4
X134.34Y-99.395
X134.34Y-100.645
X134.34Y-101.895
X134.34Y-103.145
X134.34Y-104.395
X134.34Y-105.645
X134.34Y-106.895
X134.34Y-108.145
T6
X140.5Y-101.32
X140.5Y-103.86
X140.5Y-106.4
X143.04Y-101.32
X143.04Y-103.86
X143.04Y-106.4
T7
X147.0Y-99.14
X147.0Y-108.64
T5
G00X171.435Y-99.57
M15
G01X172.535Y-99.57
M16
G05
G00X171.435Y-108.21
M15
G01X172.535Y-108.21
M16
G05
G00X175.765Y-99.57
M15
G01X176.565Y-99.57
M16
G05
G00X175.765Y-108.21
M15
G01X176.565Y-108.21
M16
G05
M30
