%TF.GenerationSoftware,KiCad,Pcbnew,9.0.6*%
%TF.CreationDate,2025-12-28T22:43:58+01:00*%
%TF.ProjectId,Programmer_Board,50726f67-7261-46d6-9d65-725f426f6172,1.0*%
%TF.SameCoordinates,Original*%
%TF.FileFunction,Soldermask,Top*%
%TF.FilePolarity,Negative*%
%FSLAX46Y46*%
G04 Gerber Fmt 4.6, Leading zero omitted, Abs format (unit mm)*
G04 Created by KiCad (PCBNEW 9.0.6) date 2025-12-28 22:43:58*
%MOMM*%
%LPD*%
G01*
G04 APERTURE LIST*
G04 Aperture macros list*
%AMRoundRect*
0 Rectangle with rounded corners*
0 $1 Rounding radius*
0 $2 $3 $4 $5 $6 $7 $8 $9 X,Y pos of 4 corners*
0 Add a 4 corners polygon primitive as box body*
4,1,4,$2,$3,$4,$5,$6,$7,$8,$9,$2,$3,0*
0 Add four circle primitives for the rounded corners*
1,1,$1+$1,$2,$3*
1,1,$1+$1,$4,$5*
1,1,$1+$1,$6,$7*
1,1,$1+$1,$8,$9*
0 Add four rect primitives between the rounded corners*
20,1,$1+$1,$2,$3,$4,$5,0*
20,1,$1+$1,$4,$5,$6,$7,0*
20,1,$1+$1,$6,$7,$8,$9,0*
20,1,$1+$1,$8,$9,$2,$3,0*%
%AMFreePoly0*
4,1,6,0.180000,0.075000,0.000000,-0.105000,-0.180000,-0.105000,-0.180000,0.105000,0.180000,0.105000,0.180000,0.075000,0.180000,0.075000,$1*%
%AMFreePoly1*
4,1,6,0.180000,-0.075000,0.180000,-0.105000,-0.180000,-0.105000,-0.180000,0.105000,0.000000,0.105000,0.180000,-0.075000,0.180000,-0.075000,$1*%
%AMFreePoly2*
4,1,6,0.180000,-0.105000,0.000000,-0.105000,-0.180000,0.075000,-0.180000,0.105000,0.180000,0.105000,0.180000,-0.105000,0.180000,-0.105000,$1*%
%AMFreePoly3*
4,1,6,0.180000,-0.105000,-0.180000,-0.105000,-0.180000,-0.075000,0.000000,0.105000,0.180000,0.105000,0.180000,-0.105000,0.180000,-0.105000,$1*%
G04 Aperture macros list end*
%ADD10C,0.000000*%
%ADD11RoundRect,0.140000X0.140000X0.170000X-0.140000X0.170000X-0.140000X-0.170000X0.140000X-0.170000X0*%
%ADD12RoundRect,0.135000X0.135000X0.185000X-0.135000X0.185000X-0.135000X-0.185000X0.135000X-0.185000X0*%
%ADD13RoundRect,0.135000X-0.135000X-0.185000X0.135000X-0.185000X0.135000X0.185000X-0.135000X0.185000X0*%
%ADD14RoundRect,0.062500X0.337500X0.062500X-0.337500X0.062500X-0.337500X-0.062500X0.337500X-0.062500X0*%
%ADD15RoundRect,0.062500X0.062500X0.337500X-0.062500X0.337500X-0.062500X-0.337500X0.062500X-0.337500X0*%
%ADD16R,4.350000X4.350000*%
%ADD17RoundRect,0.135000X0.185000X-0.135000X0.185000X0.135000X-0.185000X0.135000X-0.185000X-0.135000X0*%
%ADD18RoundRect,0.147500X0.172500X-0.147500X0.172500X0.147500X-0.172500X0.147500X-0.172500X-0.147500X0*%
%ADD19RoundRect,0.250000X0.250000X-0.325000X0.250000X0.325000X-0.250000X0.325000X-0.250000X-0.325000X0*%
%ADD20RoundRect,0.147500X0.147500X0.172500X-0.147500X0.172500X-0.147500X-0.172500X0.147500X-0.172500X0*%
%ADD21RoundRect,0.075000X0.200000X-0.075000X0.200000X0.075000X-0.200000X0.075000X-0.200000X-0.075000X0*%
%ADD22RoundRect,0.140000X-0.170000X0.140000X-0.170000X-0.140000X0.170000X-0.140000X0.170000X0.140000X0*%
%ADD23FreePoly0,270.000000*%
%ADD24FreePoly1,270.000000*%
%ADD25FreePoly2,270.000000*%
%ADD26FreePoly3,270.000000*%
%ADD27RoundRect,0.120000X-0.169706X0.000000X0.000000X-0.169706X0.169706X0.000000X0.000000X0.169706X0*%
%ADD28RoundRect,0.140000X0.170000X-0.140000X0.170000X0.140000X-0.170000X0.140000X-0.170000X-0.140000X0*%
%ADD29RoundRect,0.062500X0.325000X0.062500X-0.325000X0.062500X-0.325000X-0.062500X0.325000X-0.062500X0*%
%ADD30R,1.300000X1.400000*%
%ADD31R,0.550000X0.365000*%
%ADD32R,0.550000X0.250000*%
%ADD33RoundRect,0.218750X0.218750X0.256250X-0.218750X0.256250X-0.218750X-0.256250X0.218750X-0.256250X0*%
%ADD34C,0.700000*%
%ADD35C,4.400000*%
%ADD36RoundRect,0.150000X0.512500X0.150000X-0.512500X0.150000X-0.512500X-0.150000X0.512500X-0.150000X0*%
%ADD37RoundRect,0.250000X0.600000X0.600000X-0.600000X0.600000X-0.600000X-0.600000X0.600000X-0.600000X0*%
%ADD38C,1.700000*%
%ADD39RoundRect,0.225000X0.250000X-0.225000X0.250000X0.225000X-0.250000X0.225000X-0.250000X-0.225000X0*%
%ADD40RoundRect,0.147500X-0.147500X-0.172500X0.147500X-0.172500X0.147500X0.172500X-0.147500X0.172500X0*%
%ADD41C,0.650000*%
%ADD42RoundRect,0.150000X0.425000X-0.150000X0.425000X0.150000X-0.425000X0.150000X-0.425000X-0.150000X0*%
%ADD43RoundRect,0.075000X0.500000X-0.075000X0.500000X0.075000X-0.500000X0.075000X-0.500000X-0.075000X0*%
%ADD44O,2.100000X1.000000*%
%ADD45O,1.800000X1.000000*%
%ADD46RoundRect,0.200000X0.450000X-0.200000X0.450000X0.200000X-0.450000X0.200000X-0.450000X-0.200000X0*%
%ADD47O,1.300000X0.800000*%
G04 APERTURE END LIST*
D10*
%TO.C,G\u002A\u002A\u002A*%
G36*
X177067046Y-109327056D02*
G01*
X177074630Y-109339590D01*
X177080075Y-109363282D01*
X177083044Y-109395197D01*
X177083198Y-109432407D01*
X177081862Y-109455272D01*
X177077364Y-109510207D01*
X177096251Y-109498316D01*
X177109789Y-109488349D01*
X177130289Y-109471584D01*
X177154299Y-109450880D01*
X177166468Y-109440014D01*
X177194506Y-109414949D01*
X177214295Y-109398450D01*
X177227967Y-109389389D01*
X177237651Y-109386646D01*
X177245484Y-109389094D01*
X177252503Y-109394618D01*
X177268929Y-109405663D01*
X177289564Y-109415233D01*
X177290074Y-109415417D01*
X177313938Y-109423897D01*
X177259258Y-109508145D01*
X177234147Y-109547753D01*
X177215444Y-109580417D01*
X177201685Y-109610051D01*
X177191397Y-109640559D01*
X177183113Y-109675857D01*
X177175367Y-109719857D01*
X177172204Y-109740011D01*
X177169377Y-109762826D01*
X177167648Y-109788743D01*
X177167036Y-109819731D01*
X177167560Y-109857760D01*
X177169232Y-109904798D01*
X177172071Y-109962809D01*
X177174395Y-110004690D01*
X177174413Y-110046870D01*
X177170712Y-110097849D01*
X177163886Y-110152898D01*
X177154532Y-110207291D01*
X177143240Y-110256293D01*
X177142329Y-110259635D01*
X177125127Y-110309585D01*
X177099264Y-110367485D01*
X177065830Y-110430973D01*
X177047769Y-110462150D01*
X176985247Y-110554239D01*
X176909635Y-110643198D01*
X176821815Y-110728469D01*
X176722668Y-110809509D01*
X176613067Y-110885753D01*
X176493896Y-110956651D01*
X176366029Y-111021654D01*
X176230351Y-111080207D01*
X176087734Y-111131753D01*
X175939060Y-111175741D01*
X175898043Y-111186238D01*
X175755761Y-111218237D01*
X175618926Y-111242059D01*
X175483385Y-111258152D01*
X175344983Y-111266964D01*
X175199564Y-111268945D01*
X175140626Y-111267974D01*
X174957653Y-111256520D01*
X174776681Y-111231019D01*
X174597957Y-111191519D01*
X174421724Y-111138062D01*
X174389928Y-111126833D01*
X174281206Y-111082355D01*
X174170861Y-111027400D01*
X174062653Y-110964199D01*
X173960342Y-110894979D01*
X173867686Y-110821966D01*
X173850842Y-110807281D01*
X173826568Y-110785380D01*
X173805687Y-110765891D01*
X173790913Y-110751382D01*
X173785679Y-110745593D01*
X173774126Y-110732532D01*
X173758678Y-110717342D01*
X173758133Y-110716842D01*
X173743843Y-110702204D01*
X173722449Y-110677792D01*
X173693547Y-110643141D01*
X173656745Y-110597779D01*
X173637383Y-110573596D01*
X173625220Y-110557007D01*
X173617612Y-110544105D01*
X173616753Y-110541781D01*
X173609292Y-110529710D01*
X173606965Y-110527767D01*
X173598659Y-110518030D01*
X173585139Y-110497615D01*
X173567549Y-110468532D01*
X173547035Y-110432805D01*
X173524746Y-110392448D01*
X173501821Y-110349480D01*
X173479412Y-110305919D01*
X173468044Y-110283096D01*
X173455934Y-110255732D01*
X173441665Y-110219317D01*
X173426711Y-110178091D01*
X173412545Y-110136288D01*
X173400646Y-110098152D01*
X173392485Y-110067917D01*
X173391334Y-110062725D01*
X173386063Y-110037457D01*
X173427606Y-110014773D01*
X173455713Y-109996629D01*
X173485099Y-109973356D01*
X173503388Y-109956089D01*
X173522457Y-109936147D01*
X173539027Y-109919011D01*
X173549146Y-109908755D01*
X173564397Y-109902762D01*
X173590355Y-109902666D01*
X173625000Y-109908079D01*
X173666299Y-109918611D01*
X173712231Y-109933874D01*
X173743126Y-109945949D01*
X173787482Y-109964567D01*
X173828773Y-109982406D01*
X173864682Y-109998421D01*
X173892883Y-110011567D01*
X173911051Y-110020803D01*
X173914614Y-110022921D01*
X173924987Y-110028525D01*
X173944499Y-110038198D01*
X173969384Y-110050081D01*
X173975835Y-110053099D01*
X174001088Y-110065248D01*
X174035095Y-110082138D01*
X174074058Y-110101858D01*
X174114183Y-110122492D01*
X174129652Y-110130547D01*
X174164811Y-110148746D01*
X174196110Y-110164612D01*
X174221146Y-110176950D01*
X174237515Y-110184571D01*
X174242245Y-110186400D01*
X174255888Y-110191607D01*
X174273996Y-110200484D01*
X174275249Y-110201163D01*
X174293412Y-110210122D01*
X174307709Y-110215596D01*
X174308372Y-110215759D01*
X174323819Y-110220763D01*
X174348663Y-110230389D01*
X174379421Y-110243261D01*
X174390538Y-110248102D01*
X174413658Y-110257168D01*
X174447452Y-110268973D01*
X174488880Y-110282583D01*
X174534896Y-110297055D01*
X174582462Y-110311448D01*
X174628536Y-110324822D01*
X174670077Y-110336236D01*
X174699849Y-110343765D01*
X174867805Y-110377216D01*
X175036764Y-110398189D01*
X175205261Y-110406679D01*
X175371829Y-110402682D01*
X175535001Y-110386192D01*
X175693308Y-110357207D01*
X175736303Y-110346918D01*
X175846177Y-110316565D01*
X175946550Y-110282840D01*
X176042048Y-110243907D01*
X176137289Y-110197919D01*
X176212907Y-110156793D01*
X176251182Y-110134669D01*
X176285746Y-110113615D01*
X176319210Y-110091833D01*
X176354191Y-110067532D01*
X176393303Y-110038918D01*
X176439151Y-110004198D01*
X176472127Y-109978800D01*
X176536697Y-109932558D01*
X176610771Y-109886575D01*
X176696106Y-109839795D01*
X176748645Y-109813263D01*
X176798995Y-109787656D01*
X176838671Y-109764920D01*
X176870225Y-109742747D01*
X176896200Y-109718826D01*
X176919150Y-109690851D01*
X176941622Y-109656510D01*
X176963185Y-109618906D01*
X177001649Y-109543015D01*
X177028787Y-109474830D01*
X177044798Y-109413756D01*
X177049878Y-109359205D01*
X177049874Y-109358784D01*
X177051779Y-109335037D01*
X177057980Y-109324819D01*
X177067046Y-109327056D01*
G37*
%TD*%
D11*
%TO.C,C203*%
X153100000Y-99900000D03*
X152140000Y-99900000D03*
%TD*%
D12*
%TO.C,R202*%
X165500000Y-109200000D03*
X164480000Y-109200000D03*
%TD*%
D13*
%TO.C,R201*%
X164410000Y-106700000D03*
X165430000Y-106700000D03*
%TD*%
D11*
%TO.C,C208*%
X153100000Y-104300000D03*
X152140000Y-104300000D03*
%TD*%
D12*
%TO.C,R203*%
X167510000Y-110200000D03*
X166490000Y-110200000D03*
%TD*%
D14*
%TO.C,U201*%
X163270000Y-107360000D03*
X163270000Y-106860000D03*
X163270000Y-106360000D03*
X163270000Y-105860000D03*
X163270000Y-105360000D03*
X163270000Y-104860000D03*
X163270000Y-104360000D03*
X163270000Y-103860000D03*
X163270000Y-103360000D03*
X163270000Y-102860000D03*
X163270000Y-102360000D03*
X163270000Y-101860000D03*
X163270000Y-101360000D03*
X163270000Y-100860000D03*
X163270000Y-100360000D03*
X163270000Y-99860000D03*
D15*
X162570000Y-99160000D03*
X162070000Y-99160000D03*
X161570000Y-99160000D03*
X161070000Y-99160000D03*
X160570000Y-99160000D03*
X160070000Y-99160000D03*
X159570000Y-99160000D03*
X159070000Y-99160000D03*
X158570000Y-99160000D03*
X158070000Y-99160000D03*
X157570000Y-99160000D03*
X157070000Y-99160000D03*
X156570000Y-99160000D03*
X156070000Y-99160000D03*
X155570000Y-99160000D03*
X155070000Y-99160000D03*
D14*
X154370000Y-99860000D03*
X154370000Y-100360000D03*
X154370000Y-100860000D03*
X154370000Y-101360000D03*
X154370000Y-101860000D03*
X154370000Y-102360000D03*
X154370000Y-102860000D03*
X154370000Y-103360000D03*
X154370000Y-103860000D03*
X154370000Y-104360000D03*
X154370000Y-104860000D03*
X154370000Y-105360000D03*
X154370000Y-105860000D03*
X154370000Y-106360000D03*
X154370000Y-106860000D03*
X154370000Y-107360000D03*
D15*
X155070000Y-108060000D03*
X155570000Y-108060000D03*
X156070000Y-108060000D03*
X156570000Y-108060000D03*
X157070000Y-108060000D03*
X157570000Y-108060000D03*
X158070000Y-108060000D03*
X158570000Y-108060000D03*
X159070000Y-108060000D03*
X159570000Y-108060000D03*
X160070000Y-108060000D03*
X160570000Y-108060000D03*
X161070000Y-108060000D03*
X161570000Y-108060000D03*
X162070000Y-108060000D03*
X162570000Y-108060000D03*
D16*
X158820000Y-103610000D03*
%TD*%
D17*
%TO.C,R212*%
X159400000Y-98020000D03*
X159400000Y-97000000D03*
%TD*%
%TO.C,R213*%
X158400000Y-98020000D03*
X158400000Y-97000000D03*
%TD*%
D18*
%TO.C,D104*%
X169200000Y-100100000D03*
X169200000Y-99130000D03*
%TD*%
D19*
%TO.C,Y201*%
X168120000Y-106795000D03*
X168120000Y-105045000D03*
X166720000Y-105045000D03*
X166720000Y-106795000D03*
%TD*%
D20*
%TO.C,D101*%
X143085000Y-108700000D03*
X142115000Y-108700000D03*
%TD*%
D12*
%TO.C,R204*%
X167500000Y-109200000D03*
X166480000Y-109200000D03*
%TD*%
D21*
%TO.C,U1*%
X146960000Y-104890000D03*
X146960000Y-104390000D03*
X146960000Y-103890000D03*
X146960000Y-103390000D03*
X146960000Y-102890000D03*
X146190000Y-102890000D03*
X146190000Y-103390000D03*
X146190000Y-103890000D03*
X146190000Y-104390000D03*
X146190000Y-104890000D03*
%TD*%
D11*
%TO.C,C215*%
X153100000Y-101900000D03*
X152140000Y-101900000D03*
%TD*%
D22*
%TO.C,C213*%
X155120000Y-109240000D03*
X155120000Y-110200000D03*
%TD*%
D13*
%TO.C,R103*%
X142100000Y-96800000D03*
X143120000Y-96800000D03*
%TD*%
D11*
%TO.C,C202*%
X153100000Y-105300000D03*
X152140000Y-105300000D03*
%TD*%
D13*
%TO.C,R105*%
X170490000Y-97000000D03*
X171510000Y-97000000D03*
%TD*%
%TO.C,R104*%
X170790000Y-109800000D03*
X171810000Y-109800000D03*
%TD*%
D23*
%TO.C,U102*%
X151960000Y-109300000D03*
D24*
X151310000Y-109300000D03*
D25*
X151960000Y-110160000D03*
D26*
X151310000Y-110160000D03*
D27*
X151635000Y-109730000D03*
%TD*%
D28*
%TO.C,C102*%
X150360000Y-110230000D03*
X150360000Y-109270000D03*
%TD*%
D29*
%TO.C,U202*%
X160282500Y-110820000D03*
X160282500Y-110320000D03*
X160282500Y-109820000D03*
X160282500Y-109320000D03*
X157357500Y-109320000D03*
X157357500Y-109820000D03*
X157357500Y-110320000D03*
X157357500Y-110820000D03*
D30*
X158820000Y-110070000D03*
%TD*%
D31*
%TO.C,R101*%
X149300000Y-104697000D03*
D32*
X149300000Y-104140000D03*
X149300000Y-103640000D03*
D31*
X149300000Y-103083000D03*
X148250000Y-103083000D03*
D32*
X148250000Y-103640000D03*
X148250000Y-104140000D03*
D31*
X148250000Y-104697000D03*
%TD*%
D22*
%TO.C,C211*%
X153120000Y-109240000D03*
X153120000Y-110200000D03*
%TD*%
D28*
%TO.C,C205*%
X169420000Y-106400000D03*
X169420000Y-105440000D03*
%TD*%
D22*
%TO.C,C12*%
X154120000Y-109240000D03*
X154120000Y-110200000D03*
%TD*%
D11*
%TO.C,C103*%
X153100000Y-108300000D03*
X152140000Y-108300000D03*
%TD*%
D13*
%TO.C,R208*%
X164490000Y-99300000D03*
X165510000Y-99300000D03*
%TD*%
D11*
%TO.C,C204*%
X153100000Y-100900000D03*
X152140000Y-100900000D03*
%TD*%
D33*
%TO.C,D105*%
X175187500Y-97600000D03*
X173612500Y-97600000D03*
%TD*%
D12*
%TO.C,R106*%
X168910000Y-97000000D03*
X167890000Y-97000000D03*
%TD*%
D34*
%TO.C,H101*%
X145350000Y-99140000D03*
X145833274Y-97973274D03*
X145833274Y-100306726D03*
X147000000Y-97490000D03*
D35*
X147000000Y-99140000D03*
D34*
X147000000Y-100790000D03*
X148166726Y-97973274D03*
X148166726Y-100306726D03*
X148650000Y-99140000D03*
%TD*%
D28*
%TO.C,C207*%
X156620000Y-98000000D03*
X156620000Y-97040000D03*
%TD*%
D36*
%TO.C,U103*%
X168520000Y-103420000D03*
X168520000Y-102470000D03*
X168520000Y-101520000D03*
X166245000Y-101520000D03*
X166245000Y-102470000D03*
X166245000Y-103420000D03*
%TD*%
D37*
%TO.C,J101*%
X143040000Y-106400000D03*
D38*
X140500000Y-106400000D03*
X143040000Y-103860000D03*
X140500000Y-103860000D03*
X143040000Y-101320000D03*
X140500000Y-101320000D03*
%TD*%
D28*
%TO.C,C216*%
X156120000Y-110200000D03*
X156120000Y-109240000D03*
%TD*%
D12*
%TO.C,R207*%
X165460000Y-104700000D03*
X164440000Y-104700000D03*
%TD*%
D39*
%TO.C,C101*%
X167900000Y-99875000D03*
X167900000Y-98325000D03*
%TD*%
D13*
%TO.C,R210*%
X164490000Y-97300000D03*
X165510000Y-97300000D03*
%TD*%
D40*
%TO.C,FB202*%
X152135000Y-98900000D03*
X153105000Y-98900000D03*
%TD*%
D28*
%TO.C,C214*%
X163400000Y-110100000D03*
X163400000Y-109140000D03*
%TD*%
%TO.C,C210*%
X161400000Y-97990000D03*
X161400000Y-97030000D03*
%TD*%
D13*
%TO.C,R102*%
X142090000Y-99800000D03*
X143110000Y-99800000D03*
%TD*%
%TO.C,R205*%
X164490000Y-110200000D03*
X165510000Y-110200000D03*
%TD*%
D40*
%TO.C,FB201*%
X152135000Y-107300000D03*
X153105000Y-107300000D03*
%TD*%
D11*
%TO.C,C206*%
X165420000Y-105700000D03*
X164460000Y-105700000D03*
%TD*%
D12*
%TO.C,R206*%
X165510000Y-100300000D03*
X164490000Y-100300000D03*
%TD*%
D34*
%TO.C,H102*%
X145350000Y-108640000D03*
X145833274Y-107473274D03*
X145833274Y-109806726D03*
X147000000Y-106990000D03*
D35*
X147000000Y-108640000D03*
D34*
X147000000Y-110290000D03*
X148166726Y-107473274D03*
X148166726Y-109806726D03*
X148650000Y-108640000D03*
%TD*%
D40*
%TO.C,D103*%
X142100000Y-98800000D03*
X143070000Y-98800000D03*
%TD*%
D41*
%TO.C,J103*%
X172485000Y-106780000D03*
X172485000Y-101000000D03*
D42*
X171410000Y-107090000D03*
X171410000Y-106290000D03*
D43*
X171410000Y-105140000D03*
X171410000Y-104140000D03*
X171410000Y-103640000D03*
X171410000Y-102640000D03*
D42*
X171410000Y-101490000D03*
X171410000Y-100690000D03*
X171410000Y-100690000D03*
X171410000Y-101490000D03*
D43*
X171410000Y-102140000D03*
X171410000Y-103140000D03*
X171410000Y-104640000D03*
X171410000Y-105640000D03*
D42*
X171410000Y-106290000D03*
X171410000Y-107090000D03*
D44*
X171985000Y-108210000D03*
D45*
X176165000Y-108210000D03*
D44*
X171985000Y-99570000D03*
D45*
X176165000Y-99570000D03*
%TD*%
D13*
%TO.C,R209*%
X164490000Y-98300000D03*
X165510000Y-98300000D03*
%TD*%
D11*
%TO.C,C201*%
X153100000Y-106300000D03*
X152140000Y-106300000D03*
%TD*%
D28*
%TO.C,C209*%
X155620000Y-98000000D03*
X155620000Y-97040000D03*
%TD*%
D12*
%TO.C,R107*%
X171510000Y-98000000D03*
X170490000Y-98000000D03*
%TD*%
D40*
%TO.C,D102*%
X142100000Y-97800000D03*
X143070000Y-97800000D03*
%TD*%
D17*
%TO.C,R211*%
X160400000Y-98020000D03*
X160400000Y-97000000D03*
%TD*%
D46*
%TO.C,J102*%
X134340000Y-108145000D03*
D47*
X134340000Y-106895000D03*
X134340000Y-105645000D03*
X134340000Y-104395000D03*
X134340000Y-103145000D03*
X134340000Y-101895000D03*
X134340000Y-100645000D03*
X134340000Y-99395000D03*
%TD*%
M02*
