%TF.GenerationSoftware,KiCad,Pcbnew,9.0.6*%
%TF.CreationDate,2025-12-29T16:38:56+01:00*%
%TF.ProjectId,Programmer_Board,50726f67-7261-46d6-9d65-725f426f6172,1.0*%
%TF.SameCoordinates,Original*%
%TF.FileFunction,Copper,L3,Inr*%
%TF.FilePolarity,Positive*%
%FSLAX46Y46*%
G04 Gerber Fmt 4.6, Leading zero omitted, Abs format (unit mm)*
G04 Created by KiCad (PCBNEW 9.0.6) date 2025-12-29 16:38:56*
%MOMM*%
%LPD*%
G01*
G04 APERTURE LIST*
G04 Aperture macros list*
%AMRoundRect*
0 Rectangle with rounded corners*
0 $1 Rounding radius*
0 $2 $3 $4 $5 $6 $7 $8 $9 X,Y pos of 4 corners*
0 Add a 4 corners polygon primitive as box body*
4,1,4,$2,$3,$4,$5,$6,$7,$8,$9,$2,$3,0*
0 Add four circle primitives for the rounded corners*
1,1,$1+$1,$2,$3*
1,1,$1+$1,$4,$5*
1,1,$1+$1,$6,$7*
1,1,$1+$1,$8,$9*
0 Add four rect primitives between the rounded corners*
20,1,$1+$1,$2,$3,$4,$5,0*
20,1,$1+$1,$4,$5,$6,$7,0*
20,1,$1+$1,$6,$7,$8,$9,0*
20,1,$1+$1,$8,$9,$2,$3,0*%
G04 Aperture macros list end*
%TA.AperFunction,ComponentPad*%
%ADD10C,0.700000*%
%TD*%
%TA.AperFunction,ComponentPad*%
%ADD11C,4.400000*%
%TD*%
%TA.AperFunction,ComponentPad*%
%ADD12RoundRect,0.250000X0.600000X0.600000X-0.600000X0.600000X-0.600000X-0.600000X0.600000X-0.600000X0*%
%TD*%
%TA.AperFunction,ComponentPad*%
%ADD13C,1.700000*%
%TD*%
%TA.AperFunction,HeatsinkPad*%
%ADD14O,2.100000X1.000000*%
%TD*%
%TA.AperFunction,HeatsinkPad*%
%ADD15O,1.800000X1.000000*%
%TD*%
%TA.AperFunction,ComponentPad*%
%ADD16RoundRect,0.200000X0.450000X-0.200000X0.450000X0.200000X-0.450000X0.200000X-0.450000X-0.200000X0*%
%TD*%
%TA.AperFunction,ComponentPad*%
%ADD17O,1.300000X0.800000*%
%TD*%
%TA.AperFunction,ViaPad*%
%ADD18C,0.600000*%
%TD*%
%TA.AperFunction,ViaPad*%
%ADD19C,0.500000*%
%TD*%
G04 APERTURE END LIST*
D10*
%TO.N,GND*%
%TO.C,H101*%
X145350000Y-99140000D03*
X145833274Y-97973274D03*
X145833274Y-100306726D03*
X147000000Y-97490000D03*
D11*
X147000000Y-99140000D03*
D10*
X147000000Y-100790000D03*
X148166726Y-97973274D03*
X148166726Y-100306726D03*
X148650000Y-99140000D03*
%TD*%
D12*
%TO.N,VBUS*%
%TO.C,J101*%
X143040000Y-106400000D03*
D13*
%TO.N,/Programming/FLASH_MISO_NOESD*%
X140500000Y-106400000D03*
%TO.N,/Programming/FLASH_~{CS}_NOESD*%
X143040000Y-103860000D03*
%TO.N,/Programming/FLASH_MOSI_NOESD*%
X140500000Y-103860000D03*
%TO.N,GND*%
X143040000Y-101320000D03*
%TO.N,/Programming/FLASH_SCK_NOESD*%
X140500000Y-101320000D03*
%TD*%
D10*
%TO.N,GND*%
%TO.C,H102*%
X145350000Y-108640000D03*
X145833274Y-107473274D03*
X145833274Y-109806726D03*
X147000000Y-106990000D03*
D11*
X147000000Y-108640000D03*
D10*
X147000000Y-110290000D03*
X148166726Y-107473274D03*
X148166726Y-109806726D03*
X148650000Y-108640000D03*
%TD*%
D14*
%TO.N,unconnected-(J103-SHIELD-PadS1)_1*%
%TO.C,J103*%
X171985000Y-108210000D03*
D15*
%TO.N,unconnected-(J103-SHIELD-PadS1)*%
X176165000Y-108210000D03*
D14*
%TO.N,unconnected-(J103-SHIELD-PadS1)_2*%
X171985000Y-99570000D03*
D15*
%TO.N,unconnected-(J103-SHIELD-PadS1)_3*%
X176165000Y-99570000D03*
%TD*%
D16*
%TO.N,VBUS*%
%TO.C,J102*%
X134340000Y-108145000D03*
D17*
%TO.N,/Programming/FLASH_~{CS}_NOESD*%
X134340000Y-106895000D03*
%TO.N,/Programming/FLASH_MOSI_NOESD*%
X134340000Y-105645000D03*
%TO.N,/Programming/FLASH_MISO_NOESD*%
X134340000Y-104395000D03*
%TO.N,/Programming/FLASH_SCK_NOESD*%
X134340000Y-103145000D03*
%TO.N,/Programming/CD*%
X134340000Y-101895000D03*
%TO.N,/Programming/~{CR}*%
X134340000Y-100645000D03*
%TO.N,GND*%
X134340000Y-99395000D03*
%TD*%
D18*
%TO.N,VBUS*%
X173400000Y-100900000D03*
X173400000Y-106500000D03*
D19*
%TO.N,GND*%
X139700000Y-109100000D03*
D18*
X162200000Y-97700000D03*
X169700000Y-97000000D03*
D19*
X172700000Y-104400000D03*
D18*
X143900000Y-98800000D03*
X166300000Y-100300000D03*
D19*
X158820000Y-103610000D03*
D18*
X150360000Y-108490000D03*
D19*
X136700000Y-98400000D03*
D18*
X176100000Y-97600000D03*
X169200000Y-98300000D03*
X163300000Y-107900000D03*
D19*
X175300000Y-103000000D03*
X132400000Y-109000000D03*
X140600000Y-99700000D03*
X151400000Y-99900000D03*
X150000000Y-106700000D03*
X131900000Y-101400000D03*
X155220000Y-100860000D03*
X169420000Y-104720000D03*
X162420000Y-105360000D03*
X153100000Y-97100000D03*
X177200000Y-101700000D03*
X151400000Y-101900000D03*
X154860000Y-97040000D03*
X162420000Y-100850178D03*
D18*
X167400000Y-102800000D03*
D19*
X170400000Y-100400000D03*
D18*
X143900000Y-97800000D03*
D19*
X151400000Y-100900000D03*
X138000000Y-102000000D03*
X131200000Y-97000000D03*
X158570000Y-100010000D03*
X164300000Y-101700000D03*
X162420000Y-102860000D03*
X131000000Y-107100000D03*
X170800000Y-110600000D03*
X141400000Y-108700000D03*
X151400000Y-104300000D03*
X173100000Y-107300000D03*
X167420000Y-105920000D03*
X136800000Y-107200000D03*
X177400000Y-106100000D03*
X151400000Y-105300000D03*
X156318029Y-107245001D03*
D18*
X145430000Y-103890000D03*
D19*
X158820000Y-110070000D03*
D18*
X155275735Y-106075735D03*
D19*
X151400000Y-106300000D03*
D18*
%TO.N,+3V3*%
X169100000Y-108100000D03*
X160450000Y-100250000D03*
X154200000Y-108300000D03*
X157880000Y-106520000D03*
%TO.N,+3V3_VPHY*%
X151400000Y-107300000D03*
X162206530Y-106078979D03*
%TO.N,+3V3_VPLL*%
X153200000Y-103100000D03*
X155900000Y-102500000D03*
%TO.N,+1V8*%
X161700000Y-104400000D03*
X155900000Y-103800000D03*
D19*
X162456577Y-102104087D03*
D18*
%TO.N,/Programming/FLASH_~{CS}_NOESD*%
X146200000Y-105800000D03*
%TO.N,/Programming/FLASH_MOSI_NOESD*%
X145200000Y-104800000D03*
%TO.N,FLASH_SCK*%
X166300000Y-99300000D03*
X149300000Y-102400000D03*
%TO.N,FLASH_~{CS}*%
X162900000Y-97000000D03*
X149300000Y-105400000D03*
%TO.N,FLASH_MOSI*%
X166300000Y-98300000D03*
X150075002Y-104710000D03*
%TO.N,FLASH_MISO*%
X166300000Y-97300000D03*
X150075002Y-103080000D03*
%TO.N,~{CRESET}*%
X150500000Y-97300000D03*
X157527088Y-97264562D03*
%TO.N,/FTDI/EEDATA*%
X159600000Y-107100000D03*
X164500000Y-108400000D03*
%TO.N,Net-(U202-DO)*%
X165500000Y-108400000D03*
D19*
X159200000Y-108910000D03*
D18*
%TO.N,/FTDI/EECLK*%
X168300000Y-109200000D03*
X160500000Y-106500000D03*
%TD*%
%TA.AperFunction,Conductor*%
%TO.N,GND*%
G36*
X176702426Y-96332174D02*
G01*
X176702802Y-96332553D01*
X178543214Y-98200571D01*
X178564500Y-98252505D01*
X178564500Y-109525080D01*
X178542826Y-109577406D01*
X178542429Y-109577800D01*
X176704440Y-111388220D01*
X176652511Y-111409500D01*
X129924500Y-111409500D01*
X129872174Y-111387826D01*
X129850500Y-111335500D01*
X129850500Y-108850688D01*
X158749500Y-108850688D01*
X158749500Y-108969311D01*
X158780199Y-109083882D01*
X158780201Y-109083887D01*
X158839508Y-109186609D01*
X158839509Y-109186610D01*
X158839511Y-109186613D01*
X158923387Y-109270489D01*
X159026114Y-109329799D01*
X159026115Y-109329799D01*
X159026117Y-109329800D01*
X159083402Y-109345149D01*
X159140688Y-109360499D01*
X159140689Y-109360500D01*
X159140691Y-109360500D01*
X159259311Y-109360500D01*
X159259311Y-109360499D01*
X159373886Y-109329799D01*
X159476613Y-109270489D01*
X159560489Y-109186613D01*
X159590805Y-109134105D01*
X167799500Y-109134105D01*
X167799500Y-109265894D01*
X167833606Y-109393181D01*
X167833607Y-109393184D01*
X167833608Y-109393186D01*
X167899500Y-109507314D01*
X167992686Y-109600500D01*
X168106814Y-109666392D01*
X168234105Y-109700499D01*
X168234106Y-109700500D01*
X168234108Y-109700500D01*
X168365894Y-109700500D01*
X168365894Y-109700499D01*
X168493186Y-109666392D01*
X168607314Y-109600500D01*
X168700500Y-109507314D01*
X168766392Y-109393186D01*
X168800499Y-109265894D01*
X168800500Y-109265894D01*
X168800500Y-109134106D01*
X168800499Y-109134105D01*
X168766393Y-109006818D01*
X168766392Y-109006814D01*
X168700500Y-108892686D01*
X168607314Y-108799500D01*
X168549971Y-108766393D01*
X168493190Y-108733610D01*
X168493181Y-108733606D01*
X168365894Y-108699500D01*
X168365892Y-108699500D01*
X168234108Y-108699500D01*
X168234106Y-108699500D01*
X168106818Y-108733606D01*
X168106809Y-108733610D01*
X167992685Y-108799500D01*
X167899500Y-108892685D01*
X167833610Y-109006809D01*
X167833606Y-109006818D01*
X167799500Y-109134105D01*
X159590805Y-109134105D01*
X159614966Y-109092258D01*
X159614966Y-109092257D01*
X159619797Y-109083889D01*
X159619798Y-109083887D01*
X159619799Y-109083886D01*
X159650499Y-108969311D01*
X159650500Y-108969311D01*
X159650500Y-108850689D01*
X159650499Y-108850688D01*
X159619800Y-108736117D01*
X159619798Y-108736112D01*
X159560491Y-108633390D01*
X159560490Y-108633389D01*
X159560489Y-108633387D01*
X159476613Y-108549511D01*
X159476610Y-108549509D01*
X159476609Y-108549508D01*
X159373887Y-108490201D01*
X159373882Y-108490199D01*
X159259311Y-108459500D01*
X159259309Y-108459500D01*
X159140691Y-108459500D01*
X159140689Y-108459500D01*
X159026117Y-108490199D01*
X159026112Y-108490201D01*
X158923390Y-108549508D01*
X158839508Y-108633390D01*
X158780201Y-108736112D01*
X158780199Y-108736117D01*
X158749500Y-108850688D01*
X129850500Y-108850688D01*
X129850500Y-100565940D01*
X133489500Y-100565940D01*
X133489500Y-100724059D01*
X133530421Y-100876779D01*
X133530422Y-100876781D01*
X133530423Y-100876784D01*
X133609480Y-101013716D01*
X133721284Y-101125520D01*
X133793998Y-101167501D01*
X133860532Y-101205914D01*
X133895010Y-101250847D01*
X133887618Y-101307000D01*
X133860532Y-101334086D01*
X133721283Y-101414480D01*
X133609480Y-101526283D01*
X133530424Y-101663214D01*
X133530421Y-101663220D01*
X133489500Y-101815940D01*
X133489500Y-101974059D01*
X133530421Y-102126779D01*
X133530422Y-102126781D01*
X133530423Y-102126784D01*
X133609480Y-102263716D01*
X133721284Y-102375520D01*
X133858216Y-102454577D01*
X133860532Y-102455914D01*
X133895010Y-102500847D01*
X133887618Y-102557000D01*
X133860532Y-102584086D01*
X133721283Y-102664480D01*
X133609480Y-102776283D01*
X133530424Y-102913214D01*
X133530421Y-102913220D01*
X133489500Y-103065940D01*
X133489500Y-103224059D01*
X133530421Y-103376779D01*
X133530422Y-103376781D01*
X133530423Y-103376784D01*
X133609480Y-103513716D01*
X133721284Y-103625520D01*
X133830917Y-103688816D01*
X133860532Y-103705914D01*
X133895010Y-103750847D01*
X133887618Y-103807000D01*
X133860532Y-103834086D01*
X133721283Y-103914480D01*
X133609480Y-104026283D01*
X133530424Y-104163214D01*
X133530421Y-104163220D01*
X133489500Y-104315940D01*
X133489500Y-104474059D01*
X133530421Y-104626779D01*
X133530422Y-104626781D01*
X133530423Y-104626784D01*
X133609480Y-104763716D01*
X133721284Y-104875520D01*
X133824070Y-104934863D01*
X133860532Y-104955914D01*
X133895010Y-105000847D01*
X133887618Y-105057000D01*
X133860532Y-105084086D01*
X133721283Y-105164480D01*
X133609480Y-105276283D01*
X133530424Y-105413214D01*
X133530421Y-105413220D01*
X133489500Y-105565940D01*
X133489500Y-105724059D01*
X133530421Y-105876779D01*
X133530422Y-105876781D01*
X133530423Y-105876784D01*
X133609480Y-106013716D01*
X133721284Y-106125520D01*
X133858216Y-106204577D01*
X133860532Y-106205914D01*
X133895010Y-106250847D01*
X133887618Y-106307000D01*
X133860532Y-106334086D01*
X133721283Y-106414480D01*
X133609480Y-106526283D01*
X133530424Y-106663214D01*
X133530421Y-106663220D01*
X133489500Y-106815940D01*
X133489500Y-106974059D01*
X133530421Y-107126779D01*
X133530422Y-107126781D01*
X133530423Y-107126784D01*
X133609480Y-107263716D01*
X133721284Y-107375520D01*
X133799522Y-107420690D01*
X133834000Y-107465623D01*
X133826608Y-107521776D01*
X133781675Y-107556254D01*
X133774097Y-107557865D01*
X133764695Y-107559353D01*
X133764693Y-107559354D01*
X133651657Y-107616950D01*
X133561951Y-107706656D01*
X133504353Y-107819698D01*
X133489500Y-107913480D01*
X133489500Y-108376519D01*
X133504353Y-108470304D01*
X133504354Y-108470306D01*
X133553314Y-108566393D01*
X133561950Y-108583342D01*
X133651658Y-108673050D01*
X133764696Y-108730646D01*
X133858481Y-108745500D01*
X134821518Y-108745499D01*
X134821519Y-108745499D01*
X134915304Y-108730646D01*
X134915306Y-108730645D01*
X134961095Y-108707314D01*
X135028342Y-108673050D01*
X135118050Y-108583342D01*
X135175646Y-108470304D01*
X135190500Y-108376519D01*
X135190499Y-108234105D01*
X153699500Y-108234105D01*
X153699500Y-108365894D01*
X153733606Y-108493181D01*
X153733610Y-108493190D01*
X153766127Y-108549511D01*
X153799500Y-108607314D01*
X153892686Y-108700500D01*
X154006814Y-108766392D01*
X154134105Y-108800499D01*
X154134106Y-108800500D01*
X154134108Y-108800500D01*
X154265894Y-108800500D01*
X154265894Y-108800499D01*
X154393186Y-108766392D01*
X154507314Y-108700500D01*
X154600500Y-108607314D01*
X154666392Y-108493186D01*
X154700499Y-108365894D01*
X154700500Y-108365894D01*
X154700500Y-108334105D01*
X163999500Y-108334105D01*
X163999500Y-108465894D01*
X164033606Y-108593181D01*
X164033610Y-108593190D01*
X164056818Y-108633387D01*
X164099500Y-108707314D01*
X164192686Y-108800500D01*
X164306814Y-108866392D01*
X164434105Y-108900499D01*
X164434106Y-108900500D01*
X164434108Y-108900500D01*
X164565894Y-108900500D01*
X164565894Y-108900499D01*
X164693186Y-108866392D01*
X164807314Y-108800500D01*
X164900500Y-108707314D01*
X164935914Y-108645974D01*
X164980847Y-108611496D01*
X165037000Y-108618889D01*
X165064085Y-108645974D01*
X165099500Y-108707314D01*
X165192686Y-108800500D01*
X165306814Y-108866392D01*
X165434105Y-108900499D01*
X165434106Y-108900500D01*
X165434108Y-108900500D01*
X165565894Y-108900500D01*
X165565894Y-108900499D01*
X165693186Y-108866392D01*
X165807314Y-108800500D01*
X165900500Y-108707314D01*
X165966392Y-108593186D01*
X166000499Y-108465894D01*
X166000500Y-108465894D01*
X166000500Y-108334106D01*
X166000499Y-108334105D01*
X165985731Y-108278991D01*
X165966392Y-108206814D01*
X165900500Y-108092686D01*
X165841919Y-108034105D01*
X168599500Y-108034105D01*
X168599500Y-108165894D01*
X168633606Y-108293181D01*
X168633610Y-108293190D01*
X168657233Y-108334106D01*
X168699500Y-108407314D01*
X168792686Y-108500500D01*
X168906814Y-108566392D01*
X169034105Y-108600499D01*
X169034106Y-108600500D01*
X169034108Y-108600500D01*
X169165894Y-108600500D01*
X169165894Y-108600499D01*
X169293186Y-108566392D01*
X169407314Y-108500500D01*
X169500500Y-108407314D01*
X169566392Y-108293186D01*
X169600499Y-108165894D01*
X169600500Y-108165894D01*
X169600500Y-108141008D01*
X170734500Y-108141008D01*
X170734500Y-108278991D01*
X170761418Y-108414322D01*
X170761421Y-108414332D01*
X170814223Y-108541808D01*
X170830649Y-108566392D01*
X170890886Y-108656542D01*
X170988458Y-108754114D01*
X171103189Y-108830775D01*
X171103190Y-108830775D01*
X171103191Y-108830776D01*
X171189169Y-108866389D01*
X171230672Y-108883580D01*
X171366007Y-108910500D01*
X171366009Y-108910500D01*
X172603991Y-108910500D01*
X172603993Y-108910500D01*
X172739328Y-108883580D01*
X172866811Y-108830775D01*
X172981542Y-108754114D01*
X173079114Y-108656542D01*
X173155775Y-108541811D01*
X173208580Y-108414328D01*
X173235500Y-108278993D01*
X173235500Y-108141008D01*
X175064500Y-108141008D01*
X175064500Y-108278991D01*
X175091418Y-108414322D01*
X175091421Y-108414332D01*
X175144223Y-108541808D01*
X175160649Y-108566392D01*
X175220886Y-108656542D01*
X175318458Y-108754114D01*
X175433189Y-108830775D01*
X175433190Y-108830775D01*
X175433191Y-108830776D01*
X175519169Y-108866389D01*
X175560672Y-108883580D01*
X175696007Y-108910500D01*
X175696009Y-108910500D01*
X176633991Y-108910500D01*
X176633993Y-108910500D01*
X176769328Y-108883580D01*
X176896811Y-108830775D01*
X177011542Y-108754114D01*
X177109114Y-108656542D01*
X177185775Y-108541811D01*
X177238580Y-108414328D01*
X177265500Y-108278993D01*
X177265500Y-108141007D01*
X177238580Y-108005672D01*
X177238578Y-108005667D01*
X177185776Y-107878191D01*
X177155985Y-107833606D01*
X177109114Y-107763458D01*
X177011542Y-107665886D01*
X176896811Y-107589225D01*
X176896810Y-107589224D01*
X176896808Y-107589223D01*
X176769332Y-107536421D01*
X176769322Y-107536418D01*
X176678694Y-107518391D01*
X176633993Y-107509500D01*
X175696007Y-107509500D01*
X175657642Y-107517131D01*
X175560677Y-107536418D01*
X175560667Y-107536421D01*
X175433191Y-107589223D01*
X175318461Y-107665883D01*
X175220883Y-107763461D01*
X175144223Y-107878191D01*
X175091421Y-108005667D01*
X175091418Y-108005677D01*
X175064500Y-108141008D01*
X173235500Y-108141008D01*
X173235500Y-108141007D01*
X173208580Y-108005672D01*
X173208578Y-108005667D01*
X173155776Y-107878191D01*
X173125985Y-107833606D01*
X173079114Y-107763458D01*
X172981542Y-107665886D01*
X172866811Y-107589225D01*
X172866810Y-107589224D01*
X172866808Y-107589223D01*
X172739332Y-107536421D01*
X172739322Y-107536418D01*
X172648694Y-107518391D01*
X172603993Y-107509500D01*
X171366007Y-107509500D01*
X171327642Y-107517131D01*
X171230677Y-107536418D01*
X171230667Y-107536421D01*
X171103191Y-107589223D01*
X170988461Y-107665883D01*
X170890883Y-107763461D01*
X170814223Y-107878191D01*
X170761421Y-108005667D01*
X170761418Y-108005677D01*
X170734500Y-108141008D01*
X169600500Y-108141008D01*
X169600500Y-108034106D01*
X169600499Y-108034105D01*
X169566393Y-107906818D01*
X169566392Y-107906814D01*
X169500500Y-107792686D01*
X169407314Y-107699500D01*
X169349088Y-107665883D01*
X169293190Y-107633610D01*
X169293181Y-107633606D01*
X169165894Y-107599500D01*
X169165892Y-107599500D01*
X169034108Y-107599500D01*
X169034106Y-107599500D01*
X168906818Y-107633606D01*
X168906809Y-107633610D01*
X168792685Y-107699500D01*
X168699500Y-107792685D01*
X168633610Y-107906809D01*
X168633606Y-107906818D01*
X168599500Y-108034105D01*
X165841919Y-108034105D01*
X165807314Y-107999500D01*
X165795510Y-107992685D01*
X165693190Y-107933610D01*
X165693181Y-107933606D01*
X165565894Y-107899500D01*
X165565892Y-107899500D01*
X165434108Y-107899500D01*
X165434106Y-107899500D01*
X165306818Y-107933606D01*
X165306809Y-107933610D01*
X165192685Y-107999500D01*
X165099500Y-108092685D01*
X165064086Y-108154024D01*
X165019152Y-108188503D01*
X164963000Y-108181110D01*
X164935914Y-108154024D01*
X164900499Y-108092685D01*
X164807314Y-107999500D01*
X164693190Y-107933610D01*
X164693181Y-107933606D01*
X164565894Y-107899500D01*
X164565892Y-107899500D01*
X164434108Y-107899500D01*
X164434106Y-107899500D01*
X164306818Y-107933606D01*
X164306809Y-107933610D01*
X164192685Y-107999500D01*
X164099500Y-108092685D01*
X164033610Y-108206809D01*
X164033606Y-108206818D01*
X163999500Y-108334105D01*
X154700500Y-108334105D01*
X154700500Y-108234106D01*
X154700499Y-108234105D01*
X154693186Y-108206814D01*
X154666392Y-108106814D01*
X154600500Y-107992686D01*
X154507314Y-107899500D01*
X154470406Y-107878191D01*
X154393190Y-107833610D01*
X154393181Y-107833606D01*
X154265894Y-107799500D01*
X154265892Y-107799500D01*
X154134108Y-107799500D01*
X154134106Y-107799500D01*
X154006818Y-107833606D01*
X154006809Y-107833610D01*
X153892685Y-107899500D01*
X153799500Y-107992685D01*
X153733610Y-108106809D01*
X153733606Y-108106818D01*
X153699500Y-108234105D01*
X135190499Y-108234105D01*
X135190499Y-108141008D01*
X135190499Y-107913480D01*
X135175646Y-107819695D01*
X135175645Y-107819693D01*
X135118049Y-107706657D01*
X135028343Y-107616951D01*
X135028342Y-107616950D01*
X134915304Y-107559354D01*
X134915300Y-107559353D01*
X134915298Y-107559352D01*
X134915299Y-107559352D01*
X134905898Y-107557863D01*
X134857608Y-107528268D01*
X134844390Y-107473195D01*
X134873985Y-107424905D01*
X134880468Y-107420695D01*
X134958716Y-107375520D01*
X135070520Y-107263716D01*
X135149577Y-107126784D01*
X135190499Y-106974059D01*
X135190500Y-106974059D01*
X135190500Y-106815941D01*
X135190499Y-106815940D01*
X135161151Y-106706413D01*
X135149577Y-106663216D01*
X135070520Y-106526284D01*
X134958716Y-106414480D01*
X134859132Y-106356985D01*
X134819468Y-106334086D01*
X134790654Y-106296535D01*
X139449500Y-106296535D01*
X139449500Y-106503464D01*
X139489868Y-106706413D01*
X139489870Y-106706420D01*
X139569059Y-106897598D01*
X139673735Y-107054259D01*
X139684023Y-107069655D01*
X139830345Y-107215977D01*
X140002402Y-107330941D01*
X140193580Y-107410130D01*
X140396535Y-107450500D01*
X140396536Y-107450500D01*
X140603464Y-107450500D01*
X140603465Y-107450500D01*
X140806420Y-107410130D01*
X140997598Y-107330941D01*
X141169655Y-107215977D01*
X141315977Y-107069655D01*
X141430941Y-106897598D01*
X141510130Y-106706420D01*
X141550500Y-106503465D01*
X141550500Y-106296535D01*
X141510130Y-106093580D01*
X141430941Y-105902402D01*
X141343585Y-105771664D01*
X141326259Y-105745734D01*
X141989500Y-105745734D01*
X141989500Y-107054266D01*
X141992354Y-107084699D01*
X141992354Y-107084701D01*
X141992355Y-107084704D01*
X142037206Y-107212881D01*
X142037207Y-107212883D01*
X142117846Y-107322146D01*
X142117853Y-107322153D01*
X142227116Y-107402792D01*
X142227118Y-107402793D01*
X142355295Y-107447644D01*
X142355301Y-107447646D01*
X142385734Y-107450500D01*
X142385741Y-107450500D01*
X143694258Y-107450500D01*
X143694266Y-107450500D01*
X143724699Y-107447646D01*
X143852882Y-107402793D01*
X143962150Y-107322150D01*
X144027130Y-107234105D01*
X150899500Y-107234105D01*
X150899500Y-107365894D01*
X150933606Y-107493181D01*
X150933610Y-107493190D01*
X150971809Y-107559352D01*
X150999500Y-107607314D01*
X151092686Y-107700500D01*
X151206814Y-107766392D01*
X151334105Y-107800499D01*
X151334106Y-107800500D01*
X151334108Y-107800500D01*
X151465894Y-107800500D01*
X151465894Y-107800499D01*
X151593186Y-107766392D01*
X151707314Y-107700500D01*
X151800500Y-107607314D01*
X151866392Y-107493186D01*
X151900499Y-107365894D01*
X151900500Y-107365894D01*
X151900500Y-107234106D01*
X151900499Y-107234105D01*
X151895641Y-107215976D01*
X151866392Y-107106814D01*
X151824413Y-107034105D01*
X159099500Y-107034105D01*
X159099500Y-107165894D01*
X159133606Y-107293181D01*
X159133607Y-107293184D01*
X159133608Y-107293186D01*
X159199500Y-107407314D01*
X159292686Y-107500500D01*
X159406814Y-107566392D01*
X159534105Y-107600499D01*
X159534106Y-107600500D01*
X159534108Y-107600500D01*
X159665894Y-107600500D01*
X159665894Y-107600499D01*
X159793186Y-107566392D01*
X159907314Y-107500500D01*
X160000500Y-107407314D01*
X160066392Y-107293186D01*
X160100499Y-107165894D01*
X160100500Y-107165894D01*
X160100500Y-107034106D01*
X160091495Y-107000500D01*
X160087515Y-106985647D01*
X160094907Y-106929496D01*
X160139839Y-106895017D01*
X160195992Y-106902409D01*
X160306814Y-106966392D01*
X160434105Y-107000499D01*
X160434106Y-107000500D01*
X160434108Y-107000500D01*
X160565894Y-107000500D01*
X160565894Y-107000499D01*
X160693186Y-106966392D01*
X160807314Y-106900500D01*
X160900500Y-106807314D01*
X160948614Y-106723979D01*
X172059500Y-106723979D01*
X172059500Y-106836020D01*
X172088495Y-106944232D01*
X172088499Y-106944241D01*
X172105715Y-106974059D01*
X172144515Y-107041263D01*
X172223737Y-107120485D01*
X172320763Y-107176503D01*
X172428979Y-107205499D01*
X172428980Y-107205500D01*
X172428982Y-107205500D01*
X172541020Y-107205500D01*
X172541020Y-107205499D01*
X172649237Y-107176503D01*
X172746263Y-107120485D01*
X172825485Y-107041263D01*
X172881503Y-106944237D01*
X172893222Y-106900500D01*
X172902201Y-106866992D01*
X172936679Y-106822059D01*
X172992832Y-106814667D01*
X173026005Y-106833819D01*
X173092686Y-106900500D01*
X173206814Y-106966392D01*
X173334105Y-107000499D01*
X173334106Y-107000500D01*
X173334108Y-107000500D01*
X173465894Y-107000500D01*
X173465894Y-107000499D01*
X173593186Y-106966392D01*
X173707314Y-106900500D01*
X173800500Y-106807314D01*
X173866392Y-106693186D01*
X173900499Y-106565894D01*
X173900500Y-106565894D01*
X173900500Y-106434106D01*
X173900499Y-106434105D01*
X173866393Y-106306818D01*
X173866392Y-106306814D01*
X173800500Y-106192686D01*
X173707314Y-106099500D01*
X173660242Y-106072323D01*
X173593190Y-106033610D01*
X173593181Y-106033606D01*
X173465894Y-105999500D01*
X173465892Y-105999500D01*
X173334108Y-105999500D01*
X173334106Y-105999500D01*
X173206818Y-106033606D01*
X173206809Y-106033610D01*
X173092685Y-106099500D01*
X172999500Y-106192685D01*
X172933610Y-106306809D01*
X172933606Y-106306818D01*
X172899147Y-106435422D01*
X172864669Y-106480355D01*
X172808516Y-106487747D01*
X172775343Y-106468595D01*
X172746263Y-106439515D01*
X172649241Y-106383499D01*
X172649232Y-106383495D01*
X172541020Y-106354500D01*
X172541018Y-106354500D01*
X172428982Y-106354500D01*
X172428980Y-106354500D01*
X172320767Y-106383495D01*
X172320758Y-106383499D01*
X172223736Y-106439515D01*
X172144515Y-106518736D01*
X172088499Y-106615758D01*
X172088495Y-106615767D01*
X172059500Y-106723979D01*
X160948614Y-106723979D01*
X160966392Y-106693186D01*
X161000499Y-106565894D01*
X161000500Y-106565894D01*
X161000500Y-106434106D01*
X161000499Y-106434105D01*
X160966393Y-106306818D01*
X160966392Y-106306814D01*
X160900500Y-106192686D01*
X160807314Y-106099500D01*
X160743696Y-106062770D01*
X160693190Y-106033610D01*
X160693181Y-106033606D01*
X160616591Y-106013084D01*
X161706030Y-106013084D01*
X161706030Y-106144873D01*
X161740136Y-106272160D01*
X161740140Y-106272169D01*
X161804415Y-106383495D01*
X161806030Y-106386293D01*
X161899216Y-106479479D01*
X162013344Y-106545371D01*
X162140635Y-106579478D01*
X162140636Y-106579479D01*
X162140638Y-106579479D01*
X162272424Y-106579479D01*
X162272424Y-106579478D01*
X162399716Y-106545371D01*
X162513844Y-106479479D01*
X162607030Y-106386293D01*
X162672922Y-106272165D01*
X162707029Y-106144873D01*
X162707030Y-106144873D01*
X162707030Y-106013085D01*
X162707029Y-106013084D01*
X162701698Y-105993190D01*
X162672922Y-105885793D01*
X162607030Y-105771665D01*
X162513844Y-105678479D01*
X162399720Y-105612589D01*
X162399711Y-105612585D01*
X162272424Y-105578479D01*
X162272422Y-105578479D01*
X162140638Y-105578479D01*
X162140636Y-105578479D01*
X162013348Y-105612585D01*
X162013339Y-105612589D01*
X161899215Y-105678479D01*
X161806030Y-105771664D01*
X161740140Y-105885788D01*
X161740136Y-105885797D01*
X161706030Y-106013084D01*
X160616591Y-106013084D01*
X160565894Y-105999500D01*
X160565892Y-105999500D01*
X160434108Y-105999500D01*
X160434106Y-105999500D01*
X160306818Y-106033606D01*
X160306809Y-106033610D01*
X160192685Y-106099500D01*
X160099500Y-106192685D01*
X160033610Y-106306809D01*
X160033606Y-106306818D01*
X159999500Y-106434105D01*
X159999500Y-106565894D01*
X160012484Y-106614351D01*
X160005092Y-106670504D01*
X159960159Y-106704982D01*
X159904006Y-106697590D01*
X159793190Y-106633610D01*
X159793181Y-106633606D01*
X159665894Y-106599500D01*
X159665892Y-106599500D01*
X159534108Y-106599500D01*
X159534106Y-106599500D01*
X159406818Y-106633606D01*
X159406809Y-106633610D01*
X159292685Y-106699500D01*
X159199500Y-106792685D01*
X159133610Y-106906809D01*
X159133606Y-106906818D01*
X159099500Y-107034105D01*
X151824413Y-107034105D01*
X151800500Y-106992686D01*
X151707314Y-106899500D01*
X151597364Y-106836020D01*
X151593190Y-106833610D01*
X151593181Y-106833606D01*
X151465894Y-106799500D01*
X151465892Y-106799500D01*
X151334108Y-106799500D01*
X151334106Y-106799500D01*
X151206818Y-106833606D01*
X151206809Y-106833610D01*
X151092685Y-106899500D01*
X150999500Y-106992685D01*
X150933610Y-107106809D01*
X150933606Y-107106818D01*
X150899500Y-107234105D01*
X144027130Y-107234105D01*
X144042793Y-107212882D01*
X144045376Y-107205500D01*
X144045616Y-107204815D01*
X144045617Y-107204813D01*
X144087644Y-107084704D01*
X144087643Y-107084704D01*
X144087646Y-107084699D01*
X144090500Y-107054266D01*
X144090500Y-106454105D01*
X157379500Y-106454105D01*
X157379500Y-106585894D01*
X157413606Y-106713181D01*
X157413610Y-106713190D01*
X157467953Y-106807314D01*
X157479500Y-106827314D01*
X157572686Y-106920500D01*
X157686814Y-106986392D01*
X157814105Y-107020499D01*
X157814106Y-107020500D01*
X157814108Y-107020500D01*
X157945894Y-107020500D01*
X157945894Y-107020499D01*
X158073186Y-106986392D01*
X158187314Y-106920500D01*
X158280500Y-106827314D01*
X158346392Y-106713186D01*
X158380499Y-106585894D01*
X158380500Y-106585894D01*
X158380500Y-106454106D01*
X158380499Y-106454105D01*
X158375140Y-106434106D01*
X158346392Y-106326814D01*
X158280500Y-106212686D01*
X158187314Y-106119500D01*
X158142430Y-106093586D01*
X158073190Y-106053610D01*
X158073181Y-106053606D01*
X157945894Y-106019500D01*
X157945892Y-106019500D01*
X157814108Y-106019500D01*
X157814106Y-106019500D01*
X157686818Y-106053606D01*
X157686809Y-106053610D01*
X157572685Y-106119500D01*
X157479500Y-106212685D01*
X157413610Y-106326809D01*
X157413606Y-106326818D01*
X157379500Y-106454105D01*
X144090500Y-106454105D01*
X144090500Y-105745734D01*
X144089409Y-105734105D01*
X145699500Y-105734105D01*
X145699500Y-105865894D01*
X145733606Y-105993181D01*
X145733610Y-105993190D01*
X145768493Y-106053608D01*
X145799500Y-106107314D01*
X145892686Y-106200500D01*
X146006814Y-106266392D01*
X146134105Y-106300499D01*
X146134106Y-106300500D01*
X146134108Y-106300500D01*
X146265894Y-106300500D01*
X146265894Y-106300499D01*
X146393186Y-106266392D01*
X146507314Y-106200500D01*
X146600500Y-106107314D01*
X146666392Y-105993186D01*
X146700499Y-105865894D01*
X146700500Y-105865894D01*
X146700500Y-105734106D01*
X146700499Y-105734105D01*
X146693320Y-105707314D01*
X146666392Y-105606814D01*
X146600500Y-105492686D01*
X146507314Y-105399500D01*
X146507313Y-105399499D01*
X146496652Y-105393344D01*
X146420712Y-105349500D01*
X146394047Y-105334105D01*
X148799500Y-105334105D01*
X148799500Y-105465894D01*
X148833606Y-105593181D01*
X148833607Y-105593184D01*
X148833608Y-105593186D01*
X148899500Y-105707314D01*
X148992686Y-105800500D01*
X149106814Y-105866392D01*
X149234105Y-105900499D01*
X149234106Y-105900500D01*
X149234108Y-105900500D01*
X149365894Y-105900500D01*
X149365894Y-105900499D01*
X149493186Y-105866392D01*
X149607314Y-105800500D01*
X149700500Y-105707314D01*
X149766392Y-105593186D01*
X149800499Y-105465894D01*
X149800500Y-105465894D01*
X149800500Y-105334106D01*
X149800499Y-105334105D01*
X149781650Y-105263758D01*
X149789042Y-105207607D01*
X149833975Y-105173128D01*
X149876916Y-105175940D01*
X149877132Y-105175137D01*
X149881170Y-105176219D01*
X149881442Y-105176237D01*
X149881813Y-105176390D01*
X149881816Y-105176392D01*
X150009107Y-105210499D01*
X150009108Y-105210500D01*
X150009110Y-105210500D01*
X150140896Y-105210500D01*
X150140896Y-105210499D01*
X150268188Y-105176392D01*
X150382316Y-105110500D01*
X150475502Y-105017314D01*
X150541394Y-104903186D01*
X150575501Y-104775894D01*
X150575502Y-104775894D01*
X150575502Y-104644106D01*
X150575501Y-104644105D01*
X150561857Y-104593186D01*
X150541394Y-104516814D01*
X150475502Y-104402686D01*
X150406921Y-104334105D01*
X161199500Y-104334105D01*
X161199500Y-104465894D01*
X161233606Y-104593181D01*
X161233610Y-104593190D01*
X161299500Y-104707314D01*
X161392686Y-104800500D01*
X161506814Y-104866392D01*
X161634105Y-104900499D01*
X161634106Y-104900500D01*
X161634108Y-104900500D01*
X161765894Y-104900500D01*
X161765894Y-104900499D01*
X161893186Y-104866392D01*
X162007314Y-104800500D01*
X162100500Y-104707314D01*
X162166392Y-104593186D01*
X162200499Y-104465894D01*
X162200500Y-104465894D01*
X162200500Y-104334106D01*
X162200499Y-104334105D01*
X162200366Y-104333610D01*
X162166392Y-104206814D01*
X162100500Y-104092686D01*
X162007314Y-103999500D01*
X161944898Y-103963464D01*
X161893190Y-103933610D01*
X161893181Y-103933606D01*
X161765894Y-103899500D01*
X161765892Y-103899500D01*
X161634108Y-103899500D01*
X161634106Y-103899500D01*
X161506818Y-103933606D01*
X161506809Y-103933610D01*
X161392685Y-103999500D01*
X161299500Y-104092685D01*
X161233610Y-104206809D01*
X161233606Y-104206818D01*
X161199500Y-104334105D01*
X150406921Y-104334105D01*
X150382316Y-104309500D01*
X150305538Y-104265172D01*
X150268192Y-104243610D01*
X150268183Y-104243606D01*
X150140896Y-104209500D01*
X150140894Y-104209500D01*
X150009110Y-104209500D01*
X150009108Y-104209500D01*
X149881820Y-104243606D01*
X149881811Y-104243610D01*
X149767687Y-104309500D01*
X149674502Y-104402685D01*
X149608612Y-104516809D01*
X149608608Y-104516818D01*
X149574502Y-104644105D01*
X149574502Y-104644108D01*
X149574502Y-104775892D01*
X149581096Y-104800500D01*
X149593352Y-104846240D01*
X149585959Y-104902393D01*
X149541026Y-104936872D01*
X149498084Y-104934060D01*
X149497870Y-104934863D01*
X149493838Y-104933782D01*
X149493566Y-104933765D01*
X149493187Y-104933608D01*
X149365894Y-104899500D01*
X149365892Y-104899500D01*
X149234108Y-104899500D01*
X149234106Y-104899500D01*
X149106818Y-104933606D01*
X149106809Y-104933610D01*
X148992685Y-104999500D01*
X148899500Y-105092685D01*
X148833610Y-105206809D01*
X148833606Y-105206818D01*
X148799500Y-105334105D01*
X146394047Y-105334105D01*
X146393190Y-105333610D01*
X146393181Y-105333606D01*
X146265894Y-105299500D01*
X146265892Y-105299500D01*
X146134108Y-105299500D01*
X146134106Y-105299500D01*
X146006818Y-105333606D01*
X146006809Y-105333610D01*
X145892685Y-105399500D01*
X145799500Y-105492685D01*
X145733610Y-105606809D01*
X145733606Y-105606818D01*
X145699500Y-105734105D01*
X144089409Y-105734105D01*
X144087646Y-105715301D01*
X144074761Y-105678479D01*
X144042793Y-105587118D01*
X144042792Y-105587116D01*
X143962153Y-105477853D01*
X143962146Y-105477846D01*
X143852883Y-105397207D01*
X143852881Y-105397206D01*
X143724704Y-105352355D01*
X143724705Y-105352355D01*
X143724700Y-105352354D01*
X143724699Y-105352354D01*
X143694266Y-105349500D01*
X142385734Y-105349500D01*
X142355301Y-105352354D01*
X142355299Y-105352354D01*
X142355295Y-105352355D01*
X142227118Y-105397206D01*
X142227116Y-105397207D01*
X142117853Y-105477846D01*
X142117846Y-105477853D01*
X142037207Y-105587116D01*
X142037206Y-105587118D01*
X141992355Y-105715295D01*
X141992354Y-105715299D01*
X141992354Y-105715301D01*
X141989500Y-105745734D01*
X141326259Y-105745734D01*
X141315977Y-105730345D01*
X141169654Y-105584022D01*
X140997598Y-105469059D01*
X140806420Y-105389870D01*
X140806413Y-105389868D01*
X140653516Y-105359455D01*
X140603465Y-105349500D01*
X140396535Y-105349500D01*
X140382182Y-105352355D01*
X140193586Y-105389868D01*
X140193579Y-105389870D01*
X140002401Y-105469059D01*
X139830345Y-105584022D01*
X139830344Y-105584024D01*
X139684024Y-105730344D01*
X139684022Y-105730345D01*
X139569059Y-105902401D01*
X139489870Y-106093579D01*
X139489868Y-106093586D01*
X139449500Y-106296535D01*
X134790654Y-106296535D01*
X134784989Y-106289153D01*
X134792381Y-106233001D01*
X134819467Y-106205914D01*
X134821781Y-106204577D01*
X134821784Y-106204577D01*
X134958716Y-106125520D01*
X135070520Y-106013716D01*
X135149577Y-105876784D01*
X135190499Y-105724059D01*
X135190500Y-105724059D01*
X135190500Y-105565941D01*
X135190499Y-105565940D01*
X135170870Y-105492685D01*
X135149577Y-105413216D01*
X135070520Y-105276284D01*
X134958716Y-105164480D01*
X134821784Y-105085423D01*
X134821781Y-105085422D01*
X134819467Y-105084086D01*
X134784989Y-105039153D01*
X134792381Y-104983000D01*
X134819467Y-104955914D01*
X134821781Y-104954577D01*
X134821784Y-104954577D01*
X134958716Y-104875520D01*
X135070520Y-104763716D01*
X135149577Y-104626784D01*
X135190499Y-104474059D01*
X135190500Y-104474059D01*
X135190500Y-104315941D01*
X135190499Y-104315940D01*
X135188773Y-104309500D01*
X135149577Y-104163216D01*
X135070520Y-104026284D01*
X134958716Y-103914480D01*
X134821784Y-103835423D01*
X134821781Y-103835422D01*
X134819467Y-103834086D01*
X134807706Y-103818759D01*
X134792381Y-103806999D01*
X134791076Y-103797085D01*
X134784989Y-103789153D01*
X134787510Y-103769999D01*
X134785738Y-103756535D01*
X139449500Y-103756535D01*
X139449500Y-103963464D01*
X139489868Y-104166413D01*
X139489870Y-104166420D01*
X139569059Y-104357598D01*
X139675445Y-104516818D01*
X139684023Y-104529655D01*
X139830345Y-104675977D01*
X140002402Y-104790941D01*
X140193580Y-104870130D01*
X140396535Y-104910500D01*
X140396536Y-104910500D01*
X140603464Y-104910500D01*
X140603465Y-104910500D01*
X140806420Y-104870130D01*
X140997598Y-104790941D01*
X141169655Y-104675977D01*
X141315977Y-104529655D01*
X141430941Y-104357598D01*
X141510130Y-104166420D01*
X141550500Y-103963465D01*
X141550500Y-103756535D01*
X141989500Y-103756535D01*
X141989500Y-103963464D01*
X142029868Y-104166413D01*
X142029870Y-104166420D01*
X142109059Y-104357598D01*
X142215445Y-104516818D01*
X142224023Y-104529655D01*
X142370345Y-104675977D01*
X142542402Y-104790941D01*
X142733580Y-104870130D01*
X142936535Y-104910500D01*
X142936536Y-104910500D01*
X143143464Y-104910500D01*
X143143465Y-104910500D01*
X143346420Y-104870130D01*
X143537598Y-104790941D01*
X143622660Y-104734105D01*
X144699500Y-104734105D01*
X144699500Y-104865894D01*
X144733606Y-104993181D01*
X144733607Y-104993184D01*
X144733608Y-104993186D01*
X144799500Y-105107314D01*
X144892686Y-105200500D01*
X145006814Y-105266392D01*
X145134105Y-105300499D01*
X145134106Y-105300500D01*
X145134108Y-105300500D01*
X145265894Y-105300500D01*
X145265894Y-105300499D01*
X145393186Y-105266392D01*
X145507314Y-105200500D01*
X145600500Y-105107314D01*
X145666392Y-104993186D01*
X145700499Y-104865894D01*
X145700500Y-104865894D01*
X145700500Y-104734106D01*
X145700499Y-104734105D01*
X145693320Y-104707314D01*
X145666392Y-104606814D01*
X145600500Y-104492686D01*
X145507314Y-104399500D01*
X145434738Y-104357598D01*
X145393190Y-104333610D01*
X145393181Y-104333606D01*
X145265894Y-104299500D01*
X145265892Y-104299500D01*
X145134108Y-104299500D01*
X145134106Y-104299500D01*
X145006818Y-104333606D01*
X145006809Y-104333610D01*
X144892685Y-104399500D01*
X144799500Y-104492685D01*
X144733610Y-104606809D01*
X144733606Y-104606818D01*
X144699500Y-104734105D01*
X143622660Y-104734105D01*
X143709655Y-104675977D01*
X143855977Y-104529655D01*
X143970941Y-104357598D01*
X144050130Y-104166420D01*
X144090500Y-103963465D01*
X144090500Y-103756535D01*
X144089369Y-103750847D01*
X144087946Y-103743693D01*
X144086039Y-103734105D01*
X155399500Y-103734105D01*
X155399500Y-103865894D01*
X155433606Y-103993181D01*
X155433610Y-103993190D01*
X155452717Y-104026284D01*
X155499500Y-104107314D01*
X155592686Y-104200500D01*
X155706814Y-104266392D01*
X155834105Y-104300499D01*
X155834106Y-104300500D01*
X155834108Y-104300500D01*
X155965894Y-104300500D01*
X155965894Y-104300499D01*
X156093186Y-104266392D01*
X156094775Y-104265474D01*
X156095298Y-104265173D01*
X156095299Y-104265172D01*
X156132645Y-104243610D01*
X156207314Y-104200500D01*
X156300500Y-104107314D01*
X156366392Y-103993186D01*
X156400499Y-103865894D01*
X156400500Y-103865894D01*
X156400500Y-103734106D01*
X156400499Y-103734105D01*
X156392945Y-103705914D01*
X156366392Y-103606814D01*
X156300500Y-103492686D01*
X156207314Y-103399500D01*
X156143057Y-103362401D01*
X156093190Y-103333610D01*
X156093181Y-103333606D01*
X155965894Y-103299500D01*
X155965892Y-103299500D01*
X155834108Y-103299500D01*
X155834106Y-103299500D01*
X155706818Y-103333606D01*
X155706809Y-103333610D01*
X155592685Y-103399500D01*
X155499500Y-103492685D01*
X155433610Y-103606809D01*
X155433606Y-103606818D01*
X155399500Y-103734105D01*
X144086039Y-103734105D01*
X144050131Y-103553585D01*
X144050130Y-103553584D01*
X144050130Y-103553580D01*
X143970941Y-103362402D01*
X143855977Y-103190345D01*
X143709655Y-103044023D01*
X143694816Y-103034108D01*
X143537598Y-102929059D01*
X143346420Y-102849870D01*
X143346413Y-102849868D01*
X143193516Y-102819455D01*
X143143465Y-102809500D01*
X142936535Y-102809500D01*
X142896385Y-102817486D01*
X142733586Y-102849868D01*
X142733579Y-102849870D01*
X142542401Y-102929059D01*
X142370345Y-103044022D01*
X142370344Y-103044024D01*
X142224024Y-103190344D01*
X142224022Y-103190345D01*
X142109059Y-103362401D01*
X142029870Y-103553579D01*
X142029868Y-103553586D01*
X141989500Y-103756535D01*
X141550500Y-103756535D01*
X141510130Y-103553580D01*
X141430941Y-103362402D01*
X141315977Y-103190345D01*
X141169655Y-103044023D01*
X141154816Y-103034108D01*
X140997598Y-102929059D01*
X140806420Y-102849870D01*
X140806413Y-102849868D01*
X140653516Y-102819455D01*
X140603465Y-102809500D01*
X140396535Y-102809500D01*
X140356385Y-102817486D01*
X140193586Y-102849868D01*
X140193579Y-102849870D01*
X140002401Y-102929059D01*
X139830345Y-103044022D01*
X139830344Y-103044024D01*
X139684024Y-103190344D01*
X139684022Y-103190345D01*
X139569059Y-103362401D01*
X139489870Y-103553579D01*
X139489868Y-103553586D01*
X139449500Y-103756535D01*
X134785738Y-103756535D01*
X134784989Y-103750846D01*
X134791075Y-103742913D01*
X134792381Y-103733000D01*
X134819468Y-103705914D01*
X134821784Y-103704577D01*
X134958716Y-103625520D01*
X135070520Y-103513716D01*
X135149577Y-103376784D01*
X135190499Y-103224059D01*
X135190500Y-103224059D01*
X135190500Y-103065941D01*
X135190499Y-103065940D01*
X135184626Y-103044023D01*
X135149577Y-102913216D01*
X135070520Y-102776284D01*
X134958716Y-102664480D01*
X134821784Y-102585423D01*
X134821781Y-102585422D01*
X134819467Y-102584086D01*
X134784989Y-102539153D01*
X134792381Y-102483000D01*
X134819467Y-102455914D01*
X134821781Y-102454577D01*
X134821784Y-102454577D01*
X134958716Y-102375520D01*
X135070520Y-102263716D01*
X135149577Y-102126784D01*
X135190499Y-101974059D01*
X135190500Y-101974059D01*
X135190500Y-101815941D01*
X135190499Y-101815940D01*
X135149578Y-101663220D01*
X135149577Y-101663216D01*
X135070520Y-101526284D01*
X134958716Y-101414480D01*
X134821784Y-101335423D01*
X134821781Y-101335422D01*
X134819467Y-101334086D01*
X134807705Y-101318758D01*
X134792381Y-101306999D01*
X134791076Y-101297085D01*
X134784989Y-101289153D01*
X134787510Y-101269999D01*
X134784989Y-101250847D01*
X134791075Y-101242914D01*
X134792381Y-101233000D01*
X134808847Y-101216535D01*
X139449500Y-101216535D01*
X139449500Y-101423465D01*
X139459455Y-101473516D01*
X139489868Y-101626413D01*
X139489870Y-101626420D01*
X139569059Y-101817598D01*
X139673611Y-101974073D01*
X139684023Y-101989655D01*
X139830345Y-102135977D01*
X140002402Y-102250941D01*
X140193580Y-102330130D01*
X140396535Y-102370500D01*
X140396536Y-102370500D01*
X140603464Y-102370500D01*
X140603465Y-102370500D01*
X140786436Y-102334105D01*
X148799500Y-102334105D01*
X148799500Y-102465894D01*
X148833606Y-102593181D01*
X148833610Y-102593190D01*
X148891340Y-102693181D01*
X148899500Y-102707314D01*
X148992686Y-102800500D01*
X149106814Y-102866392D01*
X149234105Y-102900499D01*
X149234106Y-102900500D01*
X149234108Y-102900500D01*
X149365894Y-102900500D01*
X149365894Y-102900499D01*
X149489081Y-102867492D01*
X149497870Y-102865137D01*
X149498501Y-102867492D01*
X149547162Y-102867480D01*
X149587219Y-102907519D01*
X149590338Y-102955006D01*
X149574502Y-103014108D01*
X149574502Y-103145894D01*
X149608608Y-103273181D01*
X149608612Y-103273190D01*
X149643495Y-103333608D01*
X149674502Y-103387314D01*
X149767688Y-103480500D01*
X149881816Y-103546392D01*
X150009107Y-103580499D01*
X150009108Y-103580500D01*
X150009110Y-103580500D01*
X150140896Y-103580500D01*
X150140896Y-103580499D01*
X150268188Y-103546392D01*
X150382316Y-103480500D01*
X150475502Y-103387314D01*
X150541394Y-103273186D01*
X150575501Y-103145894D01*
X150575502Y-103145894D01*
X150575502Y-103034105D01*
X152699500Y-103034105D01*
X152699500Y-103165894D01*
X152733606Y-103293181D01*
X152733610Y-103293190D01*
X152781873Y-103376784D01*
X152799500Y-103407314D01*
X152892686Y-103500500D01*
X153006814Y-103566392D01*
X153134105Y-103600499D01*
X153134106Y-103600500D01*
X153134108Y-103600500D01*
X153265894Y-103600500D01*
X153265894Y-103600499D01*
X153393186Y-103566392D01*
X153507314Y-103500500D01*
X153600500Y-103407314D01*
X153666392Y-103293186D01*
X153700499Y-103165894D01*
X153700500Y-103165894D01*
X153700500Y-103034106D01*
X153700499Y-103034105D01*
X153695140Y-103014106D01*
X153666392Y-102906814D01*
X153600500Y-102792686D01*
X153507314Y-102699500D01*
X153446658Y-102664480D01*
X153393190Y-102633610D01*
X153393181Y-102633606D01*
X153265894Y-102599500D01*
X153265892Y-102599500D01*
X153134108Y-102599500D01*
X153134106Y-102599500D01*
X153006818Y-102633606D01*
X153006809Y-102633610D01*
X152892685Y-102699500D01*
X152799500Y-102792685D01*
X152733610Y-102906809D01*
X152733606Y-102906818D01*
X152699500Y-103034105D01*
X150575502Y-103034105D01*
X150575502Y-103014106D01*
X150575501Y-103014105D01*
X150571855Y-103000499D01*
X150541394Y-102886814D01*
X150475502Y-102772686D01*
X150382316Y-102679500D01*
X150356301Y-102664480D01*
X150268192Y-102613610D01*
X150268183Y-102613606D01*
X150140896Y-102579500D01*
X150140894Y-102579500D01*
X150009110Y-102579500D01*
X150009108Y-102579500D01*
X149877132Y-102614863D01*
X149876504Y-102612520D01*
X149864172Y-102612515D01*
X149844466Y-102617218D01*
X149836796Y-102612503D01*
X149827795Y-102612500D01*
X149813475Y-102598168D01*
X149796215Y-102587559D01*
X149794705Y-102579383D01*
X149787763Y-102572435D01*
X149783069Y-102532469D01*
X149783671Y-102528695D01*
X149800500Y-102465892D01*
X149800500Y-102434105D01*
X155399500Y-102434105D01*
X155399500Y-102565894D01*
X155433606Y-102693181D01*
X155433607Y-102693184D01*
X155433608Y-102693186D01*
X155499500Y-102807314D01*
X155592686Y-102900500D01*
X155706814Y-102966392D01*
X155834105Y-103000499D01*
X155834106Y-103000500D01*
X155834108Y-103000500D01*
X155965894Y-103000500D01*
X155965894Y-103000499D01*
X156093186Y-102966392D01*
X156207314Y-102900500D01*
X156300500Y-102807314D01*
X156366392Y-102693186D01*
X156400499Y-102565894D01*
X156400500Y-102565894D01*
X156400500Y-102434106D01*
X156400499Y-102434105D01*
X156386189Y-102380700D01*
X156366392Y-102306814D01*
X156300500Y-102192686D01*
X156207314Y-102099500D01*
X156112533Y-102044778D01*
X156112528Y-102044775D01*
X162006077Y-102044775D01*
X162006077Y-102163398D01*
X162036776Y-102277969D01*
X162036778Y-102277974D01*
X162096085Y-102380696D01*
X162096086Y-102380697D01*
X162096088Y-102380700D01*
X162179964Y-102464576D01*
X162179966Y-102464577D01*
X162179967Y-102464578D01*
X162282689Y-102523885D01*
X162282691Y-102523886D01*
X162282692Y-102523886D01*
X162282694Y-102523887D01*
X162314723Y-102532469D01*
X162397265Y-102554586D01*
X162397266Y-102554587D01*
X162397268Y-102554587D01*
X162515888Y-102554587D01*
X162515888Y-102554586D01*
X162630463Y-102523886D01*
X162733190Y-102464576D01*
X162817066Y-102380700D01*
X162876376Y-102277973D01*
X162907076Y-102163398D01*
X162907077Y-102163398D01*
X162907077Y-102044776D01*
X162907076Y-102044775D01*
X162904084Y-102033610D01*
X162883680Y-101957459D01*
X162876377Y-101930204D01*
X162876375Y-101930199D01*
X162817068Y-101827477D01*
X162817067Y-101827476D01*
X162817066Y-101827474D01*
X162733190Y-101743598D01*
X162733187Y-101743596D01*
X162733186Y-101743595D01*
X162630464Y-101684288D01*
X162630459Y-101684286D01*
X162515888Y-101653587D01*
X162515886Y-101653587D01*
X162397268Y-101653587D01*
X162397266Y-101653587D01*
X162282694Y-101684286D01*
X162282689Y-101684288D01*
X162179967Y-101743595D01*
X162096085Y-101827477D01*
X162036778Y-101930199D01*
X162036776Y-101930204D01*
X162006077Y-102044775D01*
X156112528Y-102044775D01*
X156093190Y-102033610D01*
X156093181Y-102033606D01*
X155965894Y-101999500D01*
X155965892Y-101999500D01*
X155834108Y-101999500D01*
X155834106Y-101999500D01*
X155706818Y-102033606D01*
X155706809Y-102033610D01*
X155592685Y-102099500D01*
X155499500Y-102192685D01*
X155433610Y-102306809D01*
X155433606Y-102306818D01*
X155399500Y-102434105D01*
X149800500Y-102434105D01*
X149800500Y-102334108D01*
X149800500Y-102334106D01*
X149800499Y-102334105D01*
X149793186Y-102306814D01*
X149766392Y-102206814D01*
X149700500Y-102092686D01*
X149607314Y-101999500D01*
X149534497Y-101957459D01*
X149493190Y-101933610D01*
X149493181Y-101933606D01*
X149365894Y-101899500D01*
X149365892Y-101899500D01*
X149234108Y-101899500D01*
X149234106Y-101899500D01*
X149106818Y-101933606D01*
X149106809Y-101933610D01*
X148992685Y-101999500D01*
X148899500Y-102092685D01*
X148833610Y-102206809D01*
X148833606Y-102206818D01*
X148799500Y-102334105D01*
X140786436Y-102334105D01*
X140806420Y-102330130D01*
X140997598Y-102250941D01*
X141169655Y-102135977D01*
X141315977Y-101989655D01*
X141430941Y-101817598D01*
X141510130Y-101626420D01*
X141550500Y-101423465D01*
X141550500Y-101221509D01*
X142040000Y-101221509D01*
X142040000Y-101418490D01*
X142078427Y-101611682D01*
X142078430Y-101611693D01*
X142153809Y-101793675D01*
X142263246Y-101957459D01*
X142279860Y-101974073D01*
X142635152Y-101618781D01*
X142639901Y-101627007D01*
X142732993Y-101720099D01*
X142741217Y-101724847D01*
X142385926Y-102080139D01*
X142402540Y-102096753D01*
X142566324Y-102206190D01*
X142748306Y-102281569D01*
X142748317Y-102281572D01*
X142941510Y-102320000D01*
X143138490Y-102320000D01*
X143331682Y-102281572D01*
X143331693Y-102281569D01*
X143381616Y-102260891D01*
X143513675Y-102206190D01*
X143677459Y-102096753D01*
X143694073Y-102080139D01*
X143338781Y-101724847D01*
X143347007Y-101720099D01*
X143440099Y-101627007D01*
X143444847Y-101618781D01*
X143800139Y-101974073D01*
X143816753Y-101957459D01*
X143926190Y-101793675D01*
X144001569Y-101611693D01*
X144001572Y-101611682D01*
X144040000Y-101418490D01*
X144040000Y-101221509D01*
X144001572Y-101028317D01*
X144001569Y-101028306D01*
X143976362Y-100967450D01*
X143966640Y-100943979D01*
X172059500Y-100943979D01*
X172059500Y-101056020D01*
X172088495Y-101164232D01*
X172088499Y-101164241D01*
X172118691Y-101216535D01*
X172144515Y-101261263D01*
X172223737Y-101340485D01*
X172320763Y-101396503D01*
X172428979Y-101425499D01*
X172428980Y-101425500D01*
X172428982Y-101425500D01*
X172541020Y-101425500D01*
X172541020Y-101425499D01*
X172649237Y-101396503D01*
X172746263Y-101340485D01*
X172825485Y-101261263D01*
X172863980Y-101194586D01*
X172908913Y-101160109D01*
X172965066Y-101167501D01*
X172992150Y-101194584D01*
X172999500Y-101207314D01*
X173092686Y-101300500D01*
X173206814Y-101366392D01*
X173334105Y-101400499D01*
X173334106Y-101400500D01*
X173334108Y-101400500D01*
X173465894Y-101400500D01*
X173465894Y-101400499D01*
X173593186Y-101366392D01*
X173707314Y-101300500D01*
X173800500Y-101207314D01*
X173866392Y-101093186D01*
X173900499Y-100965894D01*
X173900500Y-100965894D01*
X173900500Y-100834106D01*
X173900499Y-100834105D01*
X173878097Y-100750500D01*
X173866392Y-100706814D01*
X173800500Y-100592686D01*
X173707314Y-100499500D01*
X173593190Y-100433610D01*
X173593181Y-100433606D01*
X173465894Y-100399500D01*
X173465892Y-100399500D01*
X173334108Y-100399500D01*
X173334106Y-100399500D01*
X173206818Y-100433606D01*
X173206809Y-100433610D01*
X173092685Y-100499500D01*
X172999500Y-100592685D01*
X172931183Y-100711014D01*
X172928836Y-100709659D01*
X172894918Y-100743573D01*
X172838281Y-100743569D01*
X172814278Y-100727530D01*
X172746263Y-100659515D01*
X172649241Y-100603499D01*
X172649232Y-100603495D01*
X172541020Y-100574500D01*
X172541018Y-100574500D01*
X172428982Y-100574500D01*
X172428980Y-100574500D01*
X172320767Y-100603495D01*
X172320758Y-100603499D01*
X172223736Y-100659515D01*
X172144515Y-100738736D01*
X172088499Y-100835758D01*
X172088495Y-100835767D01*
X172059500Y-100943979D01*
X143966640Y-100943979D01*
X143926190Y-100846324D01*
X143816753Y-100682540D01*
X143800139Y-100665926D01*
X143444847Y-101021217D01*
X143440099Y-101012993D01*
X143347007Y-100919901D01*
X143338781Y-100915152D01*
X143694074Y-100559860D01*
X143677461Y-100543248D01*
X143677459Y-100543246D01*
X143513675Y-100433809D01*
X143331693Y-100358430D01*
X143331682Y-100358427D01*
X143138490Y-100320000D01*
X142941510Y-100320000D01*
X142748317Y-100358427D01*
X142748306Y-100358430D01*
X142566324Y-100433809D01*
X142402540Y-100543246D01*
X142385926Y-100559860D01*
X142741218Y-100915152D01*
X142732993Y-100919901D01*
X142639901Y-101012993D01*
X142635152Y-101021218D01*
X142279860Y-100665926D01*
X142263246Y-100682540D01*
X142153809Y-100846324D01*
X142078430Y-101028306D01*
X142078427Y-101028317D01*
X142040000Y-101221509D01*
X141550500Y-101221509D01*
X141550500Y-101216535D01*
X141510130Y-101013580D01*
X141430941Y-100822402D01*
X141315977Y-100650345D01*
X141169655Y-100504023D01*
X141078611Y-100443190D01*
X140997598Y-100389059D01*
X140806420Y-100309870D01*
X140806413Y-100309868D01*
X140653516Y-100279455D01*
X140603465Y-100269500D01*
X140396535Y-100269500D01*
X140362434Y-100276283D01*
X140193586Y-100309868D01*
X140193579Y-100309870D01*
X140002401Y-100389059D01*
X139830345Y-100504022D01*
X139830344Y-100504024D01*
X139684024Y-100650344D01*
X139684022Y-100650345D01*
X139569059Y-100822401D01*
X139489870Y-101013579D01*
X139489868Y-101013586D01*
X139459902Y-101164241D01*
X139449500Y-101216535D01*
X134808847Y-101216535D01*
X134819468Y-101205914D01*
X134886002Y-101167501D01*
X134958716Y-101125520D01*
X135070520Y-101013716D01*
X135149577Y-100876784D01*
X135190499Y-100724059D01*
X135190500Y-100724059D01*
X135190500Y-100565941D01*
X135190499Y-100565940D01*
X135173908Y-100504023D01*
X135149577Y-100413216D01*
X135070520Y-100276284D01*
X134978341Y-100184105D01*
X159949500Y-100184105D01*
X159949500Y-100315894D01*
X159983606Y-100443181D01*
X159983607Y-100443184D01*
X159983608Y-100443186D01*
X160049500Y-100557314D01*
X160142686Y-100650500D01*
X160256814Y-100716392D01*
X160384105Y-100750499D01*
X160384106Y-100750500D01*
X160384108Y-100750500D01*
X160515894Y-100750500D01*
X160515894Y-100750499D01*
X160643186Y-100716392D01*
X160757314Y-100650500D01*
X160850500Y-100557314D01*
X160916392Y-100443186D01*
X160950499Y-100315894D01*
X160950500Y-100315894D01*
X160950500Y-100184106D01*
X160950499Y-100184105D01*
X160916393Y-100056818D01*
X160916392Y-100056814D01*
X160850500Y-99942686D01*
X160757314Y-99849500D01*
X160672442Y-99800499D01*
X160643190Y-99783610D01*
X160643181Y-99783606D01*
X160515894Y-99749500D01*
X160515892Y-99749500D01*
X160384108Y-99749500D01*
X160384106Y-99749500D01*
X160256818Y-99783606D01*
X160256809Y-99783610D01*
X160142685Y-99849500D01*
X160049500Y-99942685D01*
X159983610Y-100056809D01*
X159983606Y-100056818D01*
X159949500Y-100184105D01*
X134978341Y-100184105D01*
X134958716Y-100164480D01*
X134821784Y-100085423D01*
X134821781Y-100085422D01*
X134821779Y-100085421D01*
X134746824Y-100065337D01*
X134701891Y-100030859D01*
X134694499Y-99974706D01*
X134728977Y-99929773D01*
X134746824Y-99922381D01*
X134802289Y-99907518D01*
X134927708Y-99835109D01*
X135030109Y-99732708D01*
X135102519Y-99607289D01*
X135139306Y-99470000D01*
X134579532Y-99470000D01*
X134590000Y-99444728D01*
X134590000Y-99345272D01*
X134579532Y-99320000D01*
X135139307Y-99320000D01*
X135139306Y-99319999D01*
X135102519Y-99182710D01*
X135030109Y-99057291D01*
X134927708Y-98954890D01*
X134802289Y-98882480D01*
X134662411Y-98845000D01*
X134415000Y-98845000D01*
X134415000Y-99155467D01*
X134389728Y-99145000D01*
X134290272Y-99145000D01*
X134265000Y-99155467D01*
X134265000Y-98845000D01*
X134017589Y-98845000D01*
X133877710Y-98882480D01*
X133752291Y-98954890D01*
X133649890Y-99057291D01*
X133577480Y-99182710D01*
X133540693Y-99319999D01*
X133540693Y-99320000D01*
X134100468Y-99320000D01*
X134090000Y-99345272D01*
X134090000Y-99444728D01*
X134100468Y-99470000D01*
X133540693Y-99470000D01*
X133577480Y-99607289D01*
X133649890Y-99732708D01*
X133752291Y-99835109D01*
X133877710Y-99907519D01*
X133933175Y-99922381D01*
X133978108Y-99956859D01*
X133985500Y-100013012D01*
X133951022Y-100057945D01*
X133933175Y-100065337D01*
X133858220Y-100085421D01*
X133858214Y-100085424D01*
X133721283Y-100164480D01*
X133609480Y-100276283D01*
X133530424Y-100413214D01*
X133530421Y-100413220D01*
X133489500Y-100565940D01*
X129850500Y-100565940D01*
X129850500Y-97234105D01*
X149999500Y-97234105D01*
X149999500Y-97365894D01*
X150033606Y-97493181D01*
X150033610Y-97493190D01*
X150079040Y-97571876D01*
X150099500Y-97607314D01*
X150192686Y-97700500D01*
X150306814Y-97766392D01*
X150434105Y-97800499D01*
X150434106Y-97800500D01*
X150434108Y-97800500D01*
X150565894Y-97800500D01*
X150565894Y-97800499D01*
X150693186Y-97766392D01*
X150807314Y-97700500D01*
X150900500Y-97607314D01*
X150966392Y-97493186D01*
X151000499Y-97365894D01*
X151000500Y-97365894D01*
X151000500Y-97234106D01*
X150994837Y-97212971D01*
X150994837Y-97212969D01*
X150991005Y-97198667D01*
X157026588Y-97198667D01*
X157026588Y-97330456D01*
X157060694Y-97457743D01*
X157060698Y-97457752D01*
X157085378Y-97500499D01*
X157126588Y-97571876D01*
X157219774Y-97665062D01*
X157333902Y-97730954D01*
X157461193Y-97765061D01*
X157461194Y-97765062D01*
X157461196Y-97765062D01*
X157592982Y-97765062D01*
X157592982Y-97765061D01*
X157720274Y-97730954D01*
X157834402Y-97665062D01*
X157927588Y-97571876D01*
X157993480Y-97457748D01*
X158027587Y-97330456D01*
X158027588Y-97330456D01*
X158027588Y-97198668D01*
X158027587Y-97198667D01*
X158026119Y-97193190D01*
X157993480Y-97071376D01*
X157927588Y-96957248D01*
X157904445Y-96934105D01*
X162399500Y-96934105D01*
X162399500Y-97065894D01*
X162433606Y-97193181D01*
X162433610Y-97193190D01*
X162457233Y-97234106D01*
X162499500Y-97307314D01*
X162592686Y-97400500D01*
X162706814Y-97466392D01*
X162834105Y-97500499D01*
X162834106Y-97500500D01*
X162834108Y-97500500D01*
X162965894Y-97500500D01*
X162965894Y-97500499D01*
X163093186Y-97466392D01*
X163207314Y-97400500D01*
X163300500Y-97307314D01*
X163342767Y-97234105D01*
X165799500Y-97234105D01*
X165799500Y-97365894D01*
X165833606Y-97493181D01*
X165833610Y-97493190D01*
X165879040Y-97571876D01*
X165899500Y-97607314D01*
X165992686Y-97700500D01*
X166024251Y-97718724D01*
X166054024Y-97735914D01*
X166088503Y-97780848D01*
X166081110Y-97837000D01*
X166054024Y-97864086D01*
X165992685Y-97899500D01*
X165899500Y-97992685D01*
X165833610Y-98106809D01*
X165833606Y-98106818D01*
X165799500Y-98234105D01*
X165799500Y-98365894D01*
X165833606Y-98493181D01*
X165833607Y-98493184D01*
X165833608Y-98493186D01*
X165899500Y-98607314D01*
X165992686Y-98700500D01*
X166024251Y-98718724D01*
X166054024Y-98735914D01*
X166088503Y-98780848D01*
X166081110Y-98837000D01*
X166054024Y-98864086D01*
X165992685Y-98899500D01*
X165899500Y-98992685D01*
X165833610Y-99106809D01*
X165833606Y-99106818D01*
X165799500Y-99234105D01*
X165799500Y-99365894D01*
X165833606Y-99493181D01*
X165833607Y-99493184D01*
X165833608Y-99493186D01*
X165899500Y-99607314D01*
X165992686Y-99700500D01*
X166106814Y-99766392D01*
X166234105Y-99800499D01*
X166234106Y-99800500D01*
X166234108Y-99800500D01*
X166365894Y-99800500D01*
X166365894Y-99800499D01*
X166493186Y-99766392D01*
X166607314Y-99700500D01*
X166700500Y-99607314D01*
X166761876Y-99501008D01*
X170734500Y-99501008D01*
X170734500Y-99638991D01*
X170761418Y-99774322D01*
X170761421Y-99774332D01*
X170814223Y-99901808D01*
X170814224Y-99901810D01*
X170814225Y-99901811D01*
X170890886Y-100016542D01*
X170988458Y-100114114D01*
X171103189Y-100190775D01*
X171230672Y-100243580D01*
X171366007Y-100270500D01*
X171366009Y-100270500D01*
X172603991Y-100270500D01*
X172603993Y-100270500D01*
X172739328Y-100243580D01*
X172866811Y-100190775D01*
X172981542Y-100114114D01*
X173079114Y-100016542D01*
X173155775Y-99901811D01*
X173208580Y-99774328D01*
X173235500Y-99638993D01*
X173235500Y-99501008D01*
X175064500Y-99501008D01*
X175064500Y-99638991D01*
X175091418Y-99774322D01*
X175091421Y-99774332D01*
X175144223Y-99901808D01*
X175144224Y-99901810D01*
X175144225Y-99901811D01*
X175220886Y-100016542D01*
X175318458Y-100114114D01*
X175433189Y-100190775D01*
X175560672Y-100243580D01*
X175696007Y-100270500D01*
X175696009Y-100270500D01*
X176633991Y-100270500D01*
X176633993Y-100270500D01*
X176769328Y-100243580D01*
X176896811Y-100190775D01*
X177011542Y-100114114D01*
X177109114Y-100016542D01*
X177185775Y-99901811D01*
X177238580Y-99774328D01*
X177265500Y-99638993D01*
X177265500Y-99501007D01*
X177238580Y-99365672D01*
X177185775Y-99238189D01*
X177109114Y-99123458D01*
X177011542Y-99025886D01*
X176961853Y-98992685D01*
X176896808Y-98949223D01*
X176769332Y-98896421D01*
X176769322Y-98896418D01*
X176678694Y-98878391D01*
X176633993Y-98869500D01*
X175696007Y-98869500D01*
X175657642Y-98877131D01*
X175560677Y-98896418D01*
X175560667Y-98896421D01*
X175433191Y-98949223D01*
X175318461Y-99025883D01*
X175220883Y-99123461D01*
X175144223Y-99238191D01*
X175091421Y-99365667D01*
X175091418Y-99365677D01*
X175064500Y-99501008D01*
X173235500Y-99501008D01*
X173235500Y-99501007D01*
X173208580Y-99365672D01*
X173155775Y-99238189D01*
X173079114Y-99123458D01*
X172981542Y-99025886D01*
X172931853Y-98992685D01*
X172866808Y-98949223D01*
X172739332Y-98896421D01*
X172739322Y-98896418D01*
X172648694Y-98878391D01*
X172603993Y-98869500D01*
X171366007Y-98869500D01*
X171327642Y-98877131D01*
X171230677Y-98896418D01*
X171230667Y-98896421D01*
X171103191Y-98949223D01*
X170988461Y-99025883D01*
X170890883Y-99123461D01*
X170814223Y-99238191D01*
X170761421Y-99365667D01*
X170761418Y-99365677D01*
X170734500Y-99501008D01*
X166761876Y-99501008D01*
X166766392Y-99493186D01*
X166800500Y-99365892D01*
X166800500Y-99234108D01*
X166800500Y-99234106D01*
X166800499Y-99234105D01*
X166770852Y-99123461D01*
X166766392Y-99106814D01*
X166700500Y-98992686D01*
X166607314Y-98899500D01*
X166545974Y-98864085D01*
X166511496Y-98819153D01*
X166518889Y-98763000D01*
X166545975Y-98735914D01*
X166607314Y-98700500D01*
X166700500Y-98607314D01*
X166766392Y-98493186D01*
X166800499Y-98365894D01*
X166800500Y-98365894D01*
X166800500Y-98234106D01*
X166800499Y-98234105D01*
X166791513Y-98200570D01*
X166766392Y-98106814D01*
X166700500Y-97992686D01*
X166607314Y-97899500D01*
X166545974Y-97864085D01*
X166511496Y-97819153D01*
X166518889Y-97763000D01*
X166545975Y-97735914D01*
X166607314Y-97700500D01*
X166700500Y-97607314D01*
X166766392Y-97493186D01*
X166800499Y-97365894D01*
X166800500Y-97365894D01*
X166800500Y-97234106D01*
X166800499Y-97234105D01*
X166791004Y-97198670D01*
X166766392Y-97106814D01*
X166700500Y-96992686D01*
X166607314Y-96899500D01*
X166545934Y-96864062D01*
X166493190Y-96833610D01*
X166493181Y-96833606D01*
X166365894Y-96799500D01*
X166365892Y-96799500D01*
X166234108Y-96799500D01*
X166234106Y-96799500D01*
X166106818Y-96833606D01*
X166106809Y-96833610D01*
X165992685Y-96899500D01*
X165899500Y-96992685D01*
X165833610Y-97106809D01*
X165833606Y-97106818D01*
X165799500Y-97234105D01*
X163342767Y-97234105D01*
X163366392Y-97193186D01*
X163400499Y-97065894D01*
X163400500Y-97065894D01*
X163400500Y-96934106D01*
X163400499Y-96934105D01*
X163366393Y-96806818D01*
X163366392Y-96806814D01*
X163300500Y-96692686D01*
X163207314Y-96599500D01*
X163093190Y-96533610D01*
X163093181Y-96533606D01*
X162965894Y-96499500D01*
X162965892Y-96499500D01*
X162834108Y-96499500D01*
X162834106Y-96499500D01*
X162706818Y-96533606D01*
X162706809Y-96533610D01*
X162592685Y-96599500D01*
X162499500Y-96692685D01*
X162433610Y-96806809D01*
X162433606Y-96806818D01*
X162399500Y-96934105D01*
X157904445Y-96934105D01*
X157834402Y-96864062D01*
X157781658Y-96833610D01*
X157720278Y-96798172D01*
X157720269Y-96798168D01*
X157592982Y-96764062D01*
X157592980Y-96764062D01*
X157461196Y-96764062D01*
X157461194Y-96764062D01*
X157333906Y-96798168D01*
X157333897Y-96798172D01*
X157219773Y-96864062D01*
X157126588Y-96957247D01*
X157060698Y-97071371D01*
X157060694Y-97071380D01*
X157026588Y-97198667D01*
X150991005Y-97198667D01*
X150966393Y-97106818D01*
X150966392Y-97106814D01*
X150900500Y-96992686D01*
X150807314Y-96899500D01*
X150745934Y-96864062D01*
X150693190Y-96833610D01*
X150693181Y-96833606D01*
X150565894Y-96799500D01*
X150565892Y-96799500D01*
X150434108Y-96799500D01*
X150434106Y-96799500D01*
X150306818Y-96833606D01*
X150306809Y-96833610D01*
X150192685Y-96899500D01*
X150099500Y-96992685D01*
X150033610Y-97106809D01*
X150033606Y-97106818D01*
X149999500Y-97234105D01*
X129850500Y-97234105D01*
X129850500Y-96384500D01*
X129872174Y-96332174D01*
X129924500Y-96310500D01*
X176650100Y-96310500D01*
X176702426Y-96332174D01*
G37*
%TD.AperFunction*%
%TD*%
M02*
