%TF.GenerationSoftware,KiCad,Pcbnew,10.0.0*%
%TF.CreationDate,2026-04-08T14:29:19+02:00*%
%TF.ProjectId,Shell_Module_BUS,5368656c-6c5f-44d6-9f64-756c655f4255,1.0*%
%TF.SameCoordinates,Original*%
%TF.FileFunction,Legend,Top*%
%TF.FilePolarity,Positive*%
%FSLAX46Y46*%
G04 Gerber Fmt 4.6, Leading zero omitted, Abs format (unit mm)*
G04 Created by KiCad (PCBNEW 10.0.0) date 2026-04-08 14:29:19*
%MOMM*%
%LPD*%
G01*
G04 APERTURE LIST*
%ADD10C,0.100000*%
%ADD11C,0.200000*%
%ADD12C,0.300000*%
%ADD13C,0.152400*%
%ADD14C,0.120000*%
G04 APERTURE END LIST*
D10*
X108846383Y-72675000D02*
X107846383Y-72675000D01*
X108346383Y-72175000D01*
X108846383Y-72675000D01*
G36*
X108846383Y-72675000D02*
G01*
X107846383Y-72675000D01*
X108346383Y-72175000D01*
X108846383Y-72675000D01*
G37*
X113550463Y-72625000D02*
X112550463Y-72625000D01*
X113050463Y-72125000D01*
X113550463Y-72625000D01*
G36*
X113550463Y-72625000D02*
G01*
X112550463Y-72625000D01*
X113050463Y-72125000D01*
X113550463Y-72625000D01*
G37*
D11*
G36*
X93696407Y-72728621D02*
G01*
X93736610Y-72740566D01*
X93765025Y-72758415D01*
X93784822Y-72781634D01*
X93797104Y-72811164D01*
X93801518Y-72848949D01*
X93796754Y-72894440D01*
X93783717Y-72929141D01*
X93763222Y-72955585D01*
X93734595Y-72975223D01*
X93693580Y-72988010D01*
X93631402Y-72993053D01*
X93384107Y-72993053D01*
X93384107Y-72723408D01*
X93634822Y-72723408D01*
X93696407Y-72728621D01*
G37*
G36*
X93675091Y-72333145D02*
G01*
X93725680Y-72344771D01*
X93755493Y-72364953D01*
X93773635Y-72395309D01*
X93780329Y-72439598D01*
X93775139Y-72480610D01*
X93761164Y-72509647D01*
X93738991Y-72529907D01*
X93710330Y-72543474D01*
X93674975Y-72552212D01*
X93631402Y-72555369D01*
X93384107Y-72555369D01*
X93384107Y-72328712D01*
X93605452Y-72328712D01*
X93675091Y-72333145D01*
G37*
G36*
X96088771Y-73299558D02*
G01*
X93072167Y-73299558D01*
X93072167Y-72555369D01*
X93183278Y-72555369D01*
X93183278Y-72993053D01*
X93183278Y-73165000D01*
X93639585Y-73165000D01*
X93715197Y-73161476D01*
X93782711Y-73151383D01*
X93845001Y-73131605D01*
X93897139Y-73100886D01*
X93936486Y-73065213D01*
X93968885Y-73021812D01*
X93993776Y-72972836D01*
X94008810Y-72919760D01*
X94013948Y-72861528D01*
X94009282Y-72804952D01*
X94001079Y-72774944D01*
X94190047Y-72774944D01*
X94196532Y-72881343D01*
X94213944Y-72962913D01*
X94239933Y-73024682D01*
X94273887Y-73072569D01*
X94316088Y-73112018D01*
X94367499Y-73143690D01*
X94429691Y-73167563D01*
X94504739Y-73182930D01*
X94595124Y-73188447D01*
X94685534Y-73182923D01*
X94760530Y-73167546D01*
X94822614Y-73143666D01*
X94873876Y-73111995D01*
X94915896Y-73072557D01*
X94949642Y-73024682D01*
X94975631Y-72962913D01*
X94993044Y-72881343D01*
X94994810Y-72852369D01*
X95151753Y-72852369D01*
X95156576Y-72914368D01*
X95170431Y-72968898D01*
X95192839Y-73017225D01*
X95223940Y-73060322D01*
X95264471Y-73098810D01*
X95322538Y-73136221D01*
X95391946Y-73164181D01*
X95474864Y-73182057D01*
X95573927Y-73188447D01*
X95670865Y-73181899D01*
X95751047Y-73163657D01*
X95817347Y-73135210D01*
X95872086Y-73097161D01*
X95918814Y-73047856D01*
X95951338Y-72993951D01*
X95970934Y-72934407D01*
X95977660Y-72867634D01*
X95971509Y-72801614D01*
X95954147Y-72746650D01*
X95926306Y-72700540D01*
X95887474Y-72661798D01*
X95846568Y-72635388D01*
X95790420Y-72610706D01*
X95715343Y-72588464D01*
X95541809Y-72546577D01*
X95450444Y-72521397D01*
X95410650Y-72504872D01*
X95383781Y-72483881D01*
X95368234Y-72457770D01*
X95362840Y-72424822D01*
X95368324Y-72388512D01*
X95384184Y-72358783D01*
X95411322Y-72333963D01*
X95445212Y-72316634D01*
X95487777Y-72305430D01*
X95541137Y-72301357D01*
X95610451Y-72308061D01*
X95663381Y-72326331D01*
X95696053Y-72348478D01*
X95719666Y-72376354D01*
X95735258Y-72410862D01*
X95742638Y-72453764D01*
X95944871Y-72453764D01*
X95937917Y-72390243D01*
X95922398Y-72335290D01*
X95898864Y-72287521D01*
X95867278Y-72245866D01*
X95827023Y-72209644D01*
X95768993Y-72173379D01*
X95705119Y-72147211D01*
X95634375Y-72131083D01*
X95555486Y-72125502D01*
X95459301Y-72132028D01*
X95381118Y-72150071D01*
X95317711Y-72177984D01*
X95266486Y-72215078D01*
X95223173Y-72263081D01*
X95192823Y-72315798D01*
X95174443Y-72374255D01*
X95168117Y-72439965D01*
X95175163Y-72512595D01*
X95194851Y-72571392D01*
X95226206Y-72619262D01*
X95269906Y-72658073D01*
X95312624Y-72681614D01*
X95381916Y-72707536D01*
X95487160Y-72735498D01*
X95593711Y-72759556D01*
X95680438Y-72783512D01*
X95731036Y-72806329D01*
X95755684Y-72827046D01*
X95769882Y-72851794D01*
X95774756Y-72881983D01*
X95769220Y-72920627D01*
X95753421Y-72951566D01*
X95726809Y-72976716D01*
X95686645Y-72996533D01*
X95636490Y-73008123D01*
X95565745Y-73012592D01*
X95502685Y-73008005D01*
X95454340Y-72995622D01*
X95417616Y-72976891D01*
X95390134Y-72952325D01*
X95374635Y-72928704D01*
X95361879Y-72896177D01*
X95352582Y-72852369D01*
X95151753Y-72852369D01*
X94994810Y-72852369D01*
X94999529Y-72774944D01*
X94999529Y-72156765D01*
X94785755Y-72156765D01*
X94785755Y-72776104D01*
X94782334Y-72845777D01*
X94773534Y-72894690D01*
X94761148Y-72927840D01*
X94737785Y-72963487D01*
X94704257Y-72989441D01*
X94658104Y-73006310D01*
X94595185Y-73012592D01*
X94531858Y-73006296D01*
X94485479Y-72989405D01*
X94451857Y-72963448D01*
X94428489Y-72927840D01*
X94416103Y-72894690D01*
X94407303Y-72845777D01*
X94403881Y-72776104D01*
X94403881Y-72156765D01*
X94190047Y-72156765D01*
X94190047Y-72774944D01*
X94001079Y-72774944D01*
X93995993Y-72756336D01*
X93974625Y-72714249D01*
X93944841Y-72678005D01*
X93906509Y-72648528D01*
X93858182Y-72625589D01*
X93904229Y-72596895D01*
X93934691Y-72567948D01*
X93959746Y-72528030D01*
X93975514Y-72479146D01*
X93981158Y-72418960D01*
X93975743Y-72360547D01*
X93960155Y-72309558D01*
X93934691Y-72264537D01*
X93901745Y-72228565D01*
X93860682Y-72199621D01*
X93810128Y-72177537D01*
X93748150Y-72162853D01*
X93672374Y-72156765D01*
X93183278Y-72156765D01*
X93183278Y-72555369D01*
X93072167Y-72555369D01*
X93072167Y-72014391D01*
X96088771Y-72014391D01*
X96088771Y-73299558D01*
G37*
D12*
G36*
X118048389Y-67357732D02*
G01*
X117978402Y-67342648D01*
X117922127Y-67319017D01*
X117877114Y-67287573D01*
X117842726Y-67246465D01*
X117821499Y-67195052D01*
X117813916Y-67130220D01*
X117820777Y-67070441D01*
X117840602Y-67018994D01*
X117873542Y-66973965D01*
X117917174Y-66939487D01*
X117974218Y-66915743D01*
X118048389Y-66903807D01*
X118048389Y-67357732D01*
G37*
G36*
X118275912Y-63197918D02*
G01*
X118360909Y-63221656D01*
X118425653Y-63257841D01*
X118465478Y-63295511D01*
X118493725Y-63339839D01*
X118511185Y-63392146D01*
X118517336Y-63454487D01*
X118511192Y-63516874D01*
X118493740Y-63569316D01*
X118465489Y-63613847D01*
X118425653Y-63651774D01*
X118360873Y-63688215D01*
X118275875Y-63712104D01*
X118165076Y-63720926D01*
X118054277Y-63712091D01*
X117969488Y-63688194D01*
X117905049Y-63651774D01*
X117854906Y-63599827D01*
X117824621Y-63535391D01*
X117813916Y-63454487D01*
X117824631Y-63373665D01*
X117854919Y-63309456D01*
X117905049Y-63257841D01*
X117969451Y-63221677D01*
X118054239Y-63197930D01*
X118165076Y-63189148D01*
X118275912Y-63197918D01*
G37*
G36*
X118924337Y-69186227D02*
G01*
X116996586Y-69186227D01*
X116996586Y-68413960D01*
X117163253Y-68413960D01*
X117173042Y-68558239D01*
X117200107Y-68675514D01*
X117241976Y-68770624D01*
X117297617Y-68847461D01*
X117369622Y-68912431D01*
X117448698Y-68957956D01*
X117536383Y-68985525D01*
X117634947Y-68995014D01*
X117743893Y-68984446D01*
X117832089Y-68954913D01*
X117903893Y-68907880D01*
X117962110Y-68842332D01*
X117997421Y-68778254D01*
X118036305Y-68674317D01*
X118078248Y-68516451D01*
X118114335Y-68356624D01*
X118150268Y-68226534D01*
X118184494Y-68150636D01*
X118215569Y-68113663D01*
X118252691Y-68092367D01*
X118297975Y-68085057D01*
X118355941Y-68093360D01*
X118402349Y-68117058D01*
X118440074Y-68156976D01*
X118469800Y-68217223D01*
X118487185Y-68292455D01*
X118493888Y-68398573D01*
X118487008Y-68493163D01*
X118468434Y-68565680D01*
X118440337Y-68620766D01*
X118403488Y-68661989D01*
X118368056Y-68685238D01*
X118319266Y-68704371D01*
X118253553Y-68718317D01*
X118253553Y-69019560D01*
X118346552Y-69012325D01*
X118428347Y-68991544D01*
X118500837Y-68957931D01*
X118565483Y-68911280D01*
X118623215Y-68850483D01*
X118679332Y-68763383D01*
X118721271Y-68659271D01*
X118748086Y-68534894D01*
X118757670Y-68386300D01*
X118747849Y-68240893D01*
X118720486Y-68120619D01*
X118677815Y-68021169D01*
X118620742Y-67939061D01*
X118546785Y-67868969D01*
X118465927Y-67820183D01*
X118376610Y-67790789D01*
X118276451Y-67780700D01*
X118177421Y-67789926D01*
X118094975Y-67815969D01*
X118025810Y-67857731D01*
X117967698Y-67915980D01*
X117928083Y-67977338D01*
X117891059Y-68061560D01*
X117857697Y-68174175D01*
X117794865Y-68434477D01*
X117757096Y-68571524D01*
X117732308Y-68631214D01*
X117700822Y-68671519D01*
X117661656Y-68694839D01*
X117612233Y-68702930D01*
X117557768Y-68694704D01*
X117513175Y-68670914D01*
X117475945Y-68630207D01*
X117449951Y-68579372D01*
X117433145Y-68515525D01*
X117427035Y-68435484D01*
X117437092Y-68331513D01*
X117464496Y-68252119D01*
X117497717Y-68203111D01*
X117539531Y-68167691D01*
X117591294Y-68144303D01*
X117655647Y-68133234D01*
X117655647Y-67829884D01*
X117560364Y-67840315D01*
X117477935Y-67863593D01*
X117406281Y-67898894D01*
X117343799Y-67946273D01*
X117289466Y-68006655D01*
X117235069Y-68093701D01*
X117195817Y-68189512D01*
X117171625Y-68295628D01*
X117163253Y-68413960D01*
X116996586Y-68413960D01*
X116996586Y-67130220D01*
X117573581Y-67130220D01*
X117583818Y-67245118D01*
X117613233Y-67345323D01*
X117661107Y-67433616D01*
X117728370Y-67511971D01*
X117809465Y-67573467D01*
X117908086Y-67619201D01*
X118027841Y-67648467D01*
X118173319Y-67658975D01*
X118300680Y-67651157D01*
X118405673Y-67629452D01*
X118492007Y-67595841D01*
X118562770Y-67551362D01*
X118620284Y-67496035D01*
X118680782Y-67410760D01*
X118723324Y-67320546D01*
X118748953Y-67224153D01*
X118757670Y-67119962D01*
X118750496Y-67016465D01*
X118730046Y-66926453D01*
X118697356Y-66847813D01*
X118652658Y-66778842D01*
X118595371Y-66718335D01*
X118523623Y-66663285D01*
X118457120Y-66630041D01*
X118394237Y-66614837D01*
X118394237Y-66913057D01*
X118439749Y-66939387D01*
X118471632Y-66967371D01*
X118499744Y-67007634D01*
X118517077Y-67055737D01*
X118523197Y-67113825D01*
X118518206Y-67169196D01*
X118503887Y-67217243D01*
X118480607Y-67259363D01*
X118442565Y-67301108D01*
X118392186Y-67332911D01*
X118326619Y-67354707D01*
X118241830Y-67364876D01*
X118241830Y-66600457D01*
X118106019Y-66602139D01*
X118020820Y-66609708D01*
X117935419Y-66628288D01*
X117859058Y-66656733D01*
X117790560Y-66694796D01*
X117721202Y-66748563D01*
X117666775Y-66809818D01*
X117625788Y-66879260D01*
X117597213Y-66955285D01*
X117579639Y-67038520D01*
X117573581Y-67130220D01*
X116996586Y-67130220D01*
X116996586Y-65785480D01*
X117573581Y-65785480D01*
X117581624Y-65875516D01*
X117604321Y-65950729D01*
X117640626Y-66014000D01*
X117686176Y-66062279D01*
X117763449Y-66120520D01*
X117602890Y-66120520D01*
X117602890Y-66402346D01*
X118722500Y-66402346D01*
X118722500Y-66111269D01*
X118112686Y-66111269D01*
X118013571Y-66103415D01*
X117941045Y-66082601D01*
X117885042Y-66048795D01*
X117846326Y-66004970D01*
X117822462Y-65949486D01*
X117813916Y-65878720D01*
X117820089Y-65819782D01*
X117836995Y-65774751D01*
X117863588Y-65740370D01*
X117900744Y-65714771D01*
X117953989Y-65697954D01*
X118037215Y-65691233D01*
X118722500Y-65691233D01*
X118722500Y-65392005D01*
X117964950Y-65392005D01*
X117858430Y-65400229D01*
X117775795Y-65422590D01*
X117712069Y-65456777D01*
X117663524Y-65502189D01*
X117614734Y-65580043D01*
X117584351Y-65673171D01*
X117573581Y-65785480D01*
X116996586Y-65785480D01*
X116996586Y-64693806D01*
X117573581Y-64693806D01*
X117581378Y-64804263D01*
X117603163Y-64895983D01*
X117637291Y-64972212D01*
X117683216Y-65035532D01*
X117742197Y-65089744D01*
X117804764Y-65127102D01*
X117871958Y-65149344D01*
X117945349Y-65156890D01*
X118028120Y-65147437D01*
X118092707Y-65121185D01*
X118143369Y-65079038D01*
X118182712Y-65022893D01*
X118221696Y-64936912D01*
X118259140Y-64811592D01*
X118319716Y-64575290D01*
X118345785Y-64507235D01*
X118377224Y-64476579D01*
X118420615Y-64466294D01*
X118451758Y-64471852D01*
X118476894Y-64488150D01*
X118497552Y-64517035D01*
X118516062Y-64572819D01*
X118523197Y-64653781D01*
X118515071Y-64750059D01*
X118494355Y-64813900D01*
X118464487Y-64854640D01*
X118424284Y-64878439D01*
X118353204Y-64894573D01*
X118353204Y-65190779D01*
X118439055Y-65182640D01*
X118514844Y-65159080D01*
X118582606Y-65120346D01*
X118643731Y-65065299D01*
X118690191Y-65000114D01*
X118725749Y-64916567D01*
X118749111Y-64810402D01*
X118757670Y-64676404D01*
X118749679Y-64544500D01*
X118727909Y-64440168D01*
X118694909Y-64358297D01*
X118652066Y-64294652D01*
X118595035Y-64240326D01*
X118531635Y-64202266D01*
X118460526Y-64179167D01*
X118379674Y-64171187D01*
X118298782Y-64181032D01*
X118229289Y-64209554D01*
X118168465Y-64257283D01*
X118120708Y-64319978D01*
X118079133Y-64405254D01*
X118045000Y-64518592D01*
X117989606Y-64753396D01*
X117965774Y-64822858D01*
X117947800Y-64846924D01*
X117924513Y-64860971D01*
X117894150Y-64865905D01*
X117858487Y-64856429D01*
X117825640Y-64825422D01*
X117804981Y-64777017D01*
X117796331Y-64689684D01*
X117803978Y-64614871D01*
X117824193Y-64562180D01*
X117854949Y-64525736D01*
X117891379Y-64505600D01*
X117942876Y-64493954D01*
X117942876Y-64201962D01*
X117842841Y-64220378D01*
X117764383Y-64252328D01*
X117703247Y-64296464D01*
X117656563Y-64353179D01*
X117612238Y-64444548D01*
X117583819Y-64556526D01*
X117573581Y-64693806D01*
X116996586Y-64693806D01*
X116996586Y-63453571D01*
X117573581Y-63453571D01*
X117573644Y-63454487D01*
X117581613Y-63569838D01*
X117604237Y-63668277D01*
X117639952Y-63751810D01*
X117688263Y-63822789D01*
X117749711Y-63882859D01*
X117841345Y-63944483D01*
X117940259Y-63988364D01*
X118047914Y-64015101D01*
X118166175Y-64024275D01*
X118286580Y-64015013D01*
X118395093Y-63988138D01*
X118493740Y-63944241D01*
X118584105Y-63882859D01*
X118644541Y-63822932D01*
X118692142Y-63752040D01*
X118727385Y-63668517D01*
X118749732Y-63570000D01*
X118757670Y-63453571D01*
X118749731Y-63337100D01*
X118727382Y-63238556D01*
X118692138Y-63155016D01*
X118644537Y-63084118D01*
X118584105Y-63024192D01*
X118493740Y-62962809D01*
X118395093Y-62918913D01*
X118286580Y-62892038D01*
X118166175Y-62882776D01*
X118047914Y-62891950D01*
X117940259Y-62918687D01*
X117841345Y-62962568D01*
X117749711Y-63024192D01*
X117688267Y-63084260D01*
X117639956Y-63155246D01*
X117604240Y-63238796D01*
X117581614Y-63337263D01*
X117573581Y-63453571D01*
X116996586Y-63453571D01*
X116996586Y-62052961D01*
X117573581Y-62052961D01*
X117573581Y-62066699D01*
X117581915Y-62151627D01*
X117605393Y-62221640D01*
X117643099Y-62279832D01*
X117695559Y-62329076D01*
X117797704Y-62397709D01*
X117602890Y-62397709D01*
X117602890Y-62676421D01*
X118722500Y-62676421D01*
X118722500Y-62382322D01*
X118187058Y-62382322D01*
X118096935Y-62377689D01*
X118032454Y-62365664D01*
X117987664Y-62348525D01*
X117939184Y-62312987D01*
X117903828Y-62264112D01*
X117880972Y-62198731D01*
X117872534Y-62111762D01*
X117872534Y-62076957D01*
X117872534Y-62027773D01*
X117573581Y-62027773D01*
X117573581Y-62052961D01*
X116996586Y-62052961D01*
X116996586Y-61861106D01*
X118924337Y-61861106D01*
X118924337Y-69186227D01*
G37*
G36*
X102661838Y-65721597D02*
G01*
X102638207Y-65777872D01*
X102606764Y-65822885D01*
X102565655Y-65857273D01*
X102514243Y-65878500D01*
X102449410Y-65886083D01*
X102389631Y-65879222D01*
X102338184Y-65859397D01*
X102293156Y-65826457D01*
X102258677Y-65782825D01*
X102234934Y-65725781D01*
X102222997Y-65651610D01*
X102676922Y-65651610D01*
X102661838Y-65721597D01*
G37*
G36*
X104549882Y-65188807D02*
G01*
X104602324Y-65206259D01*
X104646854Y-65234510D01*
X104684782Y-65274346D01*
X104721223Y-65339126D01*
X104745111Y-65424124D01*
X104753933Y-65534923D01*
X104745099Y-65645722D01*
X104721202Y-65730511D01*
X104684782Y-65794950D01*
X104632835Y-65845093D01*
X104568398Y-65875378D01*
X104487495Y-65886083D01*
X104406673Y-65875368D01*
X104342464Y-65845080D01*
X104290849Y-65794950D01*
X104254685Y-65730548D01*
X104230938Y-65645760D01*
X104222155Y-65534923D01*
X104230925Y-65424087D01*
X104254664Y-65339090D01*
X104290849Y-65274346D01*
X104328518Y-65234521D01*
X104372847Y-65206274D01*
X104425153Y-65188814D01*
X104487495Y-65182663D01*
X104549882Y-65188807D01*
G37*
G36*
X106712579Y-66685827D02*
G01*
X101752980Y-66685827D01*
X101752980Y-65458169D01*
X101919647Y-65458169D01*
X101921329Y-65593980D01*
X101926449Y-65651610D01*
X101928898Y-65679179D01*
X101947479Y-65764580D01*
X101975924Y-65840941D01*
X102013986Y-65909439D01*
X102067754Y-65978797D01*
X102129009Y-66033224D01*
X102198451Y-66074211D01*
X102274476Y-66102786D01*
X102357711Y-66120360D01*
X102449410Y-66126418D01*
X102564308Y-66116181D01*
X102664513Y-66086766D01*
X102752806Y-66038892D01*
X102831162Y-65971629D01*
X102892658Y-65890534D01*
X102921905Y-65827465D01*
X103060781Y-65827465D01*
X103060781Y-66126418D01*
X103085968Y-66126418D01*
X103099707Y-66126418D01*
X103184634Y-66118084D01*
X103254647Y-66094606D01*
X103312839Y-66056900D01*
X103362083Y-66004440D01*
X103430717Y-65902295D01*
X103430717Y-66097109D01*
X103709429Y-66097109D01*
X103709429Y-65533824D01*
X103915783Y-65533824D01*
X103915868Y-65534923D01*
X103924957Y-65652085D01*
X103951694Y-65759740D01*
X103995575Y-65858654D01*
X104057200Y-65950288D01*
X104117268Y-66011732D01*
X104188254Y-66060043D01*
X104271803Y-66095759D01*
X104370270Y-66118385D01*
X104486579Y-66126418D01*
X104602845Y-66118386D01*
X104701284Y-66095762D01*
X104784818Y-66060047D01*
X104855797Y-66011736D01*
X104875485Y-65991596D01*
X105202546Y-65991596D01*
X105216622Y-66082313D01*
X105250616Y-66174952D01*
X105307052Y-66271132D01*
X105369525Y-66344982D01*
X105442171Y-66405409D01*
X105526072Y-66453316D01*
X105622902Y-66488821D01*
X105734840Y-66511248D01*
X105864475Y-66519160D01*
X105977539Y-66511271D01*
X106079445Y-66488429D01*
X106171919Y-66451312D01*
X106256364Y-66399832D01*
X106333787Y-66333139D01*
X106407182Y-66244805D01*
X106465491Y-66142288D01*
X106508802Y-66023446D01*
X106536220Y-65885501D01*
X106545912Y-65725157D01*
X106537449Y-65576736D01*
X106513406Y-65447552D01*
X106475306Y-65334943D01*
X106423961Y-65236629D01*
X106359433Y-65150790D01*
X106280749Y-65076902D01*
X106191893Y-65019432D01*
X106091434Y-64977553D01*
X105977336Y-64951454D01*
X105847072Y-64942329D01*
X105717030Y-64952711D01*
X105603482Y-64982461D01*
X105503571Y-65030512D01*
X105415129Y-65097209D01*
X105339531Y-65179508D01*
X105279674Y-65272860D01*
X105234927Y-65378743D01*
X105205569Y-65499202D01*
X105518169Y-65499202D01*
X105556539Y-65392585D01*
X105598128Y-65325546D01*
X105645386Y-65279352D01*
X105701918Y-65246071D01*
X105769608Y-65225235D01*
X105851194Y-65217834D01*
X105929300Y-65225878D01*
X105998654Y-65249291D01*
X106061202Y-65288170D01*
X106118182Y-65344139D01*
X106160995Y-65409179D01*
X106193791Y-65491530D01*
X106215294Y-65595037D01*
X106223145Y-65724333D01*
X106215843Y-65853429D01*
X106195642Y-65959435D01*
X106164554Y-66046125D01*
X106123769Y-66116709D01*
X106068786Y-66178033D01*
X106006358Y-66220625D01*
X105935002Y-66246426D01*
X105852202Y-66255378D01*
X105768274Y-66248406D01*
X105699592Y-66228953D01*
X105643223Y-66198305D01*
X105597029Y-66156460D01*
X105555553Y-66092141D01*
X105518169Y-65991596D01*
X105202546Y-65991596D01*
X104875485Y-65991596D01*
X104915866Y-65950288D01*
X104977491Y-65858654D01*
X105021372Y-65759740D01*
X105048109Y-65652085D01*
X105057283Y-65533824D01*
X105048020Y-65413419D01*
X105021146Y-65304906D01*
X104977249Y-65206259D01*
X104915866Y-65115894D01*
X104855939Y-65055458D01*
X104785048Y-65007857D01*
X104701524Y-64972614D01*
X104603008Y-64950267D01*
X104486579Y-64942329D01*
X104370108Y-64950268D01*
X104271563Y-64972617D01*
X104188023Y-65007861D01*
X104117125Y-65055462D01*
X104057200Y-65115894D01*
X103995817Y-65206259D01*
X103951920Y-65304906D01*
X103925045Y-65413419D01*
X103915783Y-65533824D01*
X103709429Y-65533824D01*
X103709429Y-64977500D01*
X103415330Y-64977500D01*
X103415330Y-65512941D01*
X103410696Y-65603064D01*
X103398671Y-65667545D01*
X103381532Y-65712335D01*
X103345995Y-65760815D01*
X103297119Y-65796171D01*
X103231739Y-65819027D01*
X103144770Y-65827465D01*
X103109965Y-65827465D01*
X103060781Y-65827465D01*
X102921905Y-65827465D01*
X102938391Y-65791913D01*
X102967657Y-65672158D01*
X102978165Y-65526680D01*
X102970347Y-65399319D01*
X102948642Y-65294326D01*
X102915031Y-65207992D01*
X102870552Y-65137229D01*
X102815225Y-65079715D01*
X102729950Y-65019217D01*
X102639737Y-64976675D01*
X102543344Y-64951046D01*
X102439152Y-64942329D01*
X102335656Y-64949503D01*
X102245643Y-64969953D01*
X102167004Y-65002643D01*
X102098033Y-65047341D01*
X102037525Y-65104628D01*
X101982475Y-65176376D01*
X101949231Y-65242879D01*
X101934027Y-65305762D01*
X102232248Y-65305762D01*
X102258577Y-65260250D01*
X102286561Y-65228367D01*
X102326824Y-65200255D01*
X102374927Y-65182922D01*
X102433015Y-65176802D01*
X102488387Y-65181793D01*
X102536433Y-65196112D01*
X102578554Y-65219392D01*
X102620298Y-65257434D01*
X102652102Y-65307813D01*
X102673898Y-65373380D01*
X102684067Y-65458169D01*
X101919647Y-65458169D01*
X101752980Y-65458169D01*
X101752980Y-64775662D01*
X106712579Y-64775662D01*
X106712579Y-66685827D01*
G37*
%TO.C,J2*%
D13*
X125617900Y-57952800D02*
X125617900Y-73446800D01*
X125617900Y-73446800D02*
X135090015Y-73446800D01*
X135090015Y-57952800D02*
X125617900Y-57952800D01*
X136839785Y-73446800D02*
X143982101Y-73446800D01*
X143982101Y-57952800D02*
X136839785Y-57952800D01*
X143982101Y-73446800D02*
X143982101Y-57952800D01*
D10*
X131364900Y-70644800D02*
X130864900Y-70144800D01*
X131364900Y-69644800D01*
X131364900Y-70644800D01*
G36*
X131364900Y-70644800D02*
G01*
X130864900Y-70144800D01*
X131364900Y-69644800D01*
X131364900Y-70644800D01*
G37*
%TO.C,J1*%
D14*
X90290000Y-59690000D02*
X90290000Y-65675000D01*
X90290000Y-71660000D02*
X90290000Y-65675000D01*
X95710000Y-60760000D02*
X96010000Y-60760000D01*
X95710000Y-65675000D02*
X95710000Y-60760000D01*
X95710000Y-65675000D02*
X95710000Y-70590000D01*
X95710000Y-70590000D02*
X96010000Y-70590000D01*
X96000000Y-61050000D02*
X96300000Y-61050000D01*
X96010000Y-59690000D02*
X90290000Y-59690000D01*
X96010000Y-60760000D02*
X96010000Y-59690000D01*
X96010000Y-70590000D02*
X96010000Y-71660000D01*
X96010000Y-71660000D02*
X90290000Y-71660000D01*
X96300000Y-61050000D02*
X96300000Y-60550000D01*
%TD*%
M02*
