%TF.GenerationSoftware,KiCad,Pcbnew,10.0.0*%
%TF.CreationDate,2026-04-08T14:29:19+02:00*%
%TF.ProjectId,Shell_Module_BUS,5368656c-6c5f-44d6-9f64-756c655f4255,1.0*%
%TF.SameCoordinates,Original*%
%TF.FileFunction,Copper,L1,Top*%
%TF.FilePolarity,Positive*%
%FSLAX46Y46*%
G04 Gerber Fmt 4.6, Leading zero omitted, Abs format (unit mm)*
G04 Created by KiCad (PCBNEW 10.0.0) date 2026-04-08 14:29:19*
%MOMM*%
%LPD*%
G01*
G04 APERTURE LIST*
G04 Aperture macros list*
%AMRoundRect*
0 Rectangle with rounded corners*
0 $1 Rounding radius*
0 $2 $3 $4 $5 $6 $7 $8 $9 X,Y pos of 4 corners*
0 Add a 4 corners polygon primitive as box body*
4,1,4,$2,$3,$4,$5,$6,$7,$8,$9,$2,$3,0*
0 Add four circle primitives for the rounded corners*
1,1,$1+$1,$2,$3*
1,1,$1+$1,$4,$5*
1,1,$1+$1,$6,$7*
1,1,$1+$1,$8,$9*
0 Add four rect primitives between the rounded corners*
20,1,$1+$1,$2,$3,$4,$5,0*
20,1,$1+$1,$4,$5,$6,$7,0*
20,1,$1+$1,$6,$7,$8,$9,0*
20,1,$1+$1,$8,$9,$2,$3,0*%
G04 Aperture macros list end*
%TA.AperFunction,ComponentPad*%
%ADD10C,1.700000*%
%TD*%
%TA.AperFunction,ComponentPad*%
%ADD11R,1.000000X1.000000*%
%TD*%
%TA.AperFunction,ComponentPad*%
%ADD12C,1.000000*%
%TD*%
%TA.AperFunction,ComponentPad*%
%ADD13C,1.397000*%
%TD*%
%TA.AperFunction,ComponentPad*%
%ADD14C,3.759200*%
%TD*%
%TA.AperFunction,ComponentPad*%
%ADD15RoundRect,0.200000X-0.450000X0.200000X-0.450000X-0.200000X0.450000X-0.200000X0.450000X0.200000X0*%
%TD*%
%TA.AperFunction,ComponentPad*%
%ADD16O,1.300000X0.800000*%
%TD*%
%TA.AperFunction,ViaPad*%
%ADD17C,0.550000*%
%TD*%
%TA.AperFunction,ViaPad*%
%ADD18C,0.600000*%
%TD*%
%TA.AperFunction,Conductor*%
%ADD19C,0.100000*%
%TD*%
%TA.AperFunction,Conductor*%
%ADD20C,0.200000*%
%TD*%
G04 APERTURE END LIST*
D10*
%TO.P,SW301,1,1_1*%
%TO.N,/NRESET*%
X107500000Y-63350000D03*
X101000000Y-63350000D03*
%TO.P,SW301,2,2_2*%
%TO.N,GND*%
X107500000Y-67850000D03*
X101000000Y-67850000D03*
%TD*%
D11*
%TO.P,U1,1,NRESET_1*%
%TO.N,/NRESET*%
X106790000Y-71100000D03*
D12*
%TO.P,U1,2,DONE_2*%
%TO.N,unconnected-(U1-DONE-Pad2)*%
X105520000Y-71100000D03*
%TO.P,U1,3,FLASH_MOSI_3*%
%TO.N,unconnected-(U1-FLASH_MOSI-Pad3)*%
X104250000Y-71100000D03*
%TO.P,U1,4,FLASH_SCK_4*%
%TO.N,unconnected-(U1-FLASH_SCK-Pad4)*%
X102980000Y-71100000D03*
%TO.P,U1,5,FLASH_MISO_5*%
%TO.N,unconnected-(U1-FLASH_MISO-Pad5)*%
X101710000Y-71100000D03*
%TO.P,U1,6,FLASH_NSC_6*%
%TO.N,unconnected-(U1-FLASH_NSC-Pad6)*%
X100440000Y-71100000D03*
%TO.P,U1,7,IOT_25A_7*%
%TO.N,/RX_N*%
X98750000Y-69410000D03*
%TO.P,U1,8,IOT_19A_8*%
%TO.N,/RX_P*%
X98750000Y-68140000D03*
%TO.P,U1,9,BARCODE_9*%
%TO.N,unconnected-(U1-BARCODE-Pad9)*%
X98750000Y-66870000D03*
%TO.P,U1,10,IRLED_10*%
%TO.N,unconnected-(U1-IRLED-Pad10)*%
X98750000Y-65600000D03*
%TO.P,U1,11,IOT_27A_11*%
%TO.N,unconnected-(U1-IOT_27A-Pad11)*%
X98750000Y-64330000D03*
%TO.P,U1,12,IOT_24B_12*%
%TO.N,/CLK_N*%
X98750000Y-63060000D03*
%TO.P,U1,13,IOT_21A_G1_13*%
%TO.N,/CLK_P*%
X98750000Y-61790000D03*
%TO.P,U1,14,IOT_22B_G0_14*%
%TO.N,/TX_P*%
X100440000Y-60100000D03*
%TO.P,U1,15,IO_10A_15*%
%TO.N,/TX_N*%
X101710000Y-60100000D03*
%TO.P,U1,16,IO_6A_16*%
%TO.N,unconnected-(U1-IO_6A-Pad16)*%
X102980000Y-60100000D03*
%TO.P,U1,17,IOB_7B_G5_17*%
%TO.N,unconnected-(U1-IOB_7B_G5-Pad17)*%
X104250000Y-60100000D03*
%TO.P,U1,18,IOB_3B_G6_18*%
%TO.N,unconnected-(U1-IOB_3B_G6-Pad18)*%
X105520000Y-60100000D03*
%TO.P,U1,19,IOB_0A_19*%
%TO.N,unconnected-(U1-IOB_0A-Pad19)*%
X106790000Y-60100000D03*
%TO.P,U1,20,IOB_1B_20*%
%TO.N,/BNO_NINT*%
X108060000Y-60100000D03*
%TO.P,U1,21,IOT_18B_21*%
%TO.N,/BNO_NRST*%
X109750000Y-61790000D03*
%TO.P,U1,22,IOT_4A_22*%
%TO.N,/BNO_SDA*%
X109750000Y-63060000D03*
%TO.P,U1,23,IOT_5B_23*%
%TO.N,/BNO_SCL*%
X109750000Y-64330000D03*
%TO.P,U1,24,RGB1_24*%
%TO.N,unconnected-(U1-RGB1-Pad24)*%
X109750000Y-65600000D03*
%TO.P,U1,25,RGB2_25*%
%TO.N,unconnected-(U1-RGB2-Pad25)*%
X109750000Y-66870000D03*
%TO.P,U1,26,5V_26*%
%TO.N,+5V*%
X109750000Y-68140000D03*
%TO.P,U1,27,GND_27*%
%TO.N,GND*%
X109750000Y-69410000D03*
%TD*%
D13*
%TO.P,J2,1,RX_1*%
%TO.N,/RX_P*%
X129614900Y-70144800D03*
%TO.P,J2,2,~{RX}_2*%
%TO.N,/RX_N*%
X127074900Y-68874800D03*
%TO.P,J2,3,VCC_3*%
%TO.N,+5V*%
X129614900Y-67604800D03*
%TO.P,J2,4,CLK_4*%
%TO.N,/CLK_P*%
X127074900Y-66334800D03*
%TO.P,J2,5,~{CLK}_5*%
%TO.N,/CLK_N*%
X129614900Y-65064800D03*
%TO.P,J2,6,GND_6*%
%TO.N,GND*%
X127074900Y-63794800D03*
%TO.P,J2,7,~{TX}_7*%
%TO.N,/TX_N*%
X129614900Y-62524800D03*
%TO.P,J2,8,TX_8*%
%TO.N,/TX_P*%
X127074900Y-61254800D03*
D14*
%TO.P,J2,9,SHD_9*%
%TO.N,GND*%
X135964900Y-71414800D03*
%TO.P,J2,10,SHD_10*%
X135964900Y-59984800D03*
%TD*%
D15*
%TO.P,J1,1,Pin_1_1*%
%TO.N,/CLK_N*%
X94850000Y-61300000D03*
D16*
%TO.P,J1,2,Pin_2_2*%
%TO.N,/CLK_P*%
X94850000Y-62550000D03*
%TO.P,J1,3,Pin_3_3*%
%TO.N,/TX_N*%
X94850000Y-63800000D03*
%TO.P,J1,4,Pin_4_4*%
%TO.N,/TX_P*%
X94850000Y-65050000D03*
%TO.P,J1,5,Pin_5_5*%
%TO.N,+5V*%
X94850000Y-66300000D03*
%TO.P,J1,6,Pin_6_6*%
%TO.N,GND*%
X94850000Y-67550000D03*
%TO.P,J1,7,Pin_7_7*%
%TO.N,/RX_P*%
X94850000Y-68800000D03*
%TO.P,J1,8,Pin_8_8*%
%TO.N,/RX_N*%
X94850000Y-70050000D03*
%TD*%
D12*
%TO.P,U2,1,GND_1*%
%TO.N,GND*%
X114290000Y-71050000D03*
%TO.P,U2,2,5V_2*%
%TO.N,+5V*%
X115560000Y-71050000D03*
%TO.P,U2,3,BNO_SCL_3*%
%TO.N,/BNO_SCL*%
X116830000Y-71050000D03*
%TO.P,U2,4,BNO_SDA_4*%
%TO.N,/BNO_SDA*%
X118100000Y-71050000D03*
%TO.P,U2,5,BNO_NRST_5*%
%TO.N,/BNO_NRST*%
X119370000Y-71050000D03*
%TO.P,U2,6,H_NINT_6*%
%TO.N,/BNO_NINT*%
X120640000Y-71050000D03*
%TO.P,U2,7,H_NCS_7*%
%TO.N,unconnected-(U2-H_NCS-Pad7)*%
X121910000Y-71050000D03*
%TO.P,U2,8,GND_8*%
%TO.N,GND*%
X114290000Y-60050000D03*
%TO.P,U2,9,+3V3_9*%
%TO.N,+3V3*%
X115560000Y-60050000D03*
%TO.P,U2,10,BNO_ADDR_10*%
%TO.N,unconnected-(U2-BNO_ADDR-Pad10)*%
X116830000Y-60050000D03*
%TO.P,U2,11,ENV_SCL_11*%
%TO.N,unconnected-(U2-ENV_SCL-Pad11)*%
X118100000Y-60050000D03*
%TO.P,U2,12,ENV_SDA_12*%
%TO.N,unconnected-(U2-ENV_SDA-Pad12)*%
X119370000Y-60050000D03*
%TO.P,U2,13,NC1_13*%
%TO.N,unconnected-(U2-NC1-Pad13)*%
X120640000Y-60050000D03*
%TO.P,U2,14,NC2_14*%
%TO.N,unconnected-(U2-NC2-Pad14)*%
X121910000Y-60050000D03*
%TD*%
D17*
%TO.N,GND*%
X92671065Y-59650000D03*
D18*
%TO.N,/NRESET*%
X110525000Y-60825000D03*
%TD*%
%TO.N,/RX_P*%
D19*
X130644899Y-69114801D02*
X131095095Y-69114801D01*
X130826394Y-69775014D02*
G75*
G03*
X130906394Y-69855006I80006J14D01*
G01*
X131380000Y-69575014D02*
G75*
G02*
X131300000Y-69655000I-80000J14D01*
G01*
X129614900Y-70144800D02*
X130644899Y-69114801D01*
X130906394Y-70455014D02*
G75*
G03*
X130826414Y-70535014I6J-79986D01*
G01*
X131300000Y-70255014D02*
G75*
G02*
X131379986Y-70335014I0J-79986D01*
G01*
X131300000Y-70655014D02*
G75*
G02*
X131379986Y-70735014I0J-79986D01*
G01*
X130826394Y-70575014D02*
G75*
G03*
X130906394Y-70655006I80006J14D01*
G01*
X130906394Y-70055014D02*
G75*
G03*
X130826414Y-70135014I6J-79986D01*
G01*
X131380000Y-70375014D02*
G75*
G02*
X131300000Y-70455000I-80000J14D01*
G01*
X130906394Y-69655014D02*
G75*
G03*
X130826414Y-69735014I6J-79986D01*
G01*
X130826394Y-70535014D02*
X130826394Y-70575014D01*
X131380000Y-69975014D02*
G75*
G02*
X131300000Y-70055000I-80000J14D01*
G01*
X131380000Y-70335014D02*
X131380000Y-70375014D01*
X131300000Y-69855014D02*
G75*
G02*
X131379986Y-69935014I0J-79986D01*
G01*
X130826394Y-70175014D02*
G75*
G03*
X130906394Y-70255006I80006J14D01*
G01*
X131380000Y-69399706D02*
X131380000Y-69575014D01*
X128079706Y-72235000D02*
X127920262Y-72075556D01*
X131380000Y-70900294D02*
X131026446Y-71253846D01*
X131380000Y-69935014D02*
X131380000Y-69975014D01*
X130949214Y-71331080D02*
X130045294Y-72235000D01*
X130826394Y-69735014D02*
X130826394Y-69775014D01*
X130045294Y-72235000D02*
X128079706Y-72235000D01*
X131380000Y-70735014D02*
X131380000Y-70775014D01*
X130906394Y-70655014D02*
X131300000Y-70655014D01*
X131026446Y-71253846D02*
X130949214Y-71331080D01*
X131300000Y-70055014D02*
X130906394Y-70055014D01*
X130826394Y-70135014D02*
X130826394Y-70175014D01*
X130906394Y-69855014D02*
X131300000Y-69855014D01*
X131300000Y-69655014D02*
X130906394Y-69655014D01*
X131300000Y-70455014D02*
X130906394Y-70455014D01*
X131095095Y-69114801D02*
X131380000Y-69399706D01*
X130906394Y-70255014D02*
X131300000Y-70255014D01*
X131380000Y-70775014D02*
X131380000Y-70900294D01*
X124670760Y-70768950D02*
G75*
G02*
X124966760Y-70472860I296040J50D01*
G01*
X125846760Y-70472950D02*
X125934760Y-70472950D01*
X99774706Y-68655000D02*
X100205097Y-69085391D01*
X99265000Y-68655000D02*
X99774706Y-68655000D01*
X124470760Y-72221050D02*
G75*
G03*
X124526760Y-72277140I56040J-50D01*
G01*
X125054760Y-70472950D02*
G75*
G02*
X125350750Y-70768950I40J-295950D01*
G01*
X124470760Y-71671000D02*
X124470760Y-72221050D01*
X100205097Y-69085391D02*
X100205097Y-69759315D01*
%TO.N,/RX_N*%
X124230760Y-72221050D02*
G75*
G03*
X124526760Y-72517140I296040J-50D01*
G01*
%TO.N,/RX_P*%
X124174760Y-71375000D02*
G75*
G02*
X124470800Y-71671000I40J-296000D01*
G01*
X124614760Y-72277050D02*
G75*
G03*
X124670750Y-72221050I40J55950D01*
G01*
X125494760Y-72277049D02*
G75*
G03*
X125550849Y-72221049I40J56049D01*
G01*
X98750000Y-68140000D02*
X99265000Y-68655000D01*
X126430760Y-71671000D02*
G75*
G02*
X126726760Y-71374960I296040J0D01*
G01*
X126374760Y-72277048D02*
G75*
G03*
X126430848Y-72221048I40J56048D01*
G01*
%TO.N,/RX_N*%
X99965097Y-69659903D02*
X98425000Y-71200000D01*
%TO.N,/RX_P*%
X125934760Y-70472950D02*
G75*
G02*
X126230750Y-70768950I40J-295950D01*
G01*
X126230760Y-71375000D02*
X126230760Y-71671000D01*
X125550760Y-70768950D02*
G75*
G02*
X125846760Y-70472860I296040J50D01*
G01*
%TO.N,/RX_N*%
X125790760Y-71615000D02*
X125790760Y-71375000D01*
%TO.N,/RX_P*%
X125350760Y-72221049D02*
G75*
G03*
X125406760Y-72277040I56040J49D01*
G01*
%TO.N,/RX_N*%
X99675294Y-68895000D02*
X99965097Y-69184803D01*
%TO.N,/RX_P*%
X126230760Y-72221048D02*
G75*
G03*
X126286760Y-72277040I56040J48D01*
G01*
X124670760Y-71375000D02*
X124670760Y-70768950D01*
%TO.N,/RX_N*%
X130144706Y-72475000D02*
X131620000Y-70999706D01*
X127120294Y-71615000D02*
X127750556Y-72245262D01*
X125110760Y-71375000D02*
X125110760Y-71615000D01*
X124966760Y-70712950D02*
X125054760Y-70712950D01*
X125990760Y-71375000D02*
X125990760Y-71671000D01*
X127980294Y-72475000D02*
X130144706Y-72475000D01*
X131620000Y-69300294D02*
X131194506Y-68874800D01*
X131620000Y-70999706D02*
X131620000Y-69300294D01*
X127750556Y-72245262D02*
X127980294Y-72475000D01*
X126814760Y-71615000D02*
X127120294Y-71615000D01*
X126726760Y-71615000D02*
X126814760Y-71615000D01*
X126670760Y-72221048D02*
X126670760Y-71671000D01*
X126286760Y-72517048D02*
X126374760Y-72517048D01*
X125110760Y-70768950D02*
X125110760Y-71375000D01*
X125790760Y-71375000D02*
X125790760Y-70768950D01*
X125990760Y-71671000D02*
X125990760Y-72221048D01*
X125990760Y-70768950D02*
X125990760Y-71375000D01*
X125406760Y-72517049D02*
X125494760Y-72517049D01*
X125110760Y-71615000D02*
X125110760Y-72221049D01*
X124910760Y-71375000D02*
X124910760Y-70768950D01*
X124230760Y-71671000D02*
X124230760Y-72221050D01*
X125790760Y-72221049D02*
X125790760Y-71615000D01*
X123804706Y-71615000D02*
X124174760Y-71615000D01*
X122894706Y-72525000D02*
X123804706Y-71615000D01*
X125846760Y-70712950D02*
X125934760Y-70712950D01*
X98425000Y-71200000D02*
X98425000Y-72025000D01*
X98425000Y-72025000D02*
X98925000Y-72525000D01*
X99965097Y-69184803D02*
X99965097Y-69659903D01*
X99265000Y-68895000D02*
X99675294Y-68895000D01*
X126374760Y-72517048D02*
G75*
G03*
X126670848Y-72221048I40J296048D01*
G01*
X124526760Y-72517050D02*
X124614760Y-72517050D01*
X125990760Y-72221048D02*
G75*
G03*
X126286760Y-72517040I296040J48D01*
G01*
X124910760Y-71671000D02*
X124910760Y-71375000D01*
%TO.N,/RX_P*%
X124670760Y-71671000D02*
X124670760Y-71375000D01*
X125550760Y-72221049D02*
X125550760Y-71615000D01*
X124966760Y-70472950D02*
X125054760Y-70472950D01*
X125350760Y-71615000D02*
X125350760Y-72221049D01*
X126230760Y-70768950D02*
X126230760Y-71375000D01*
X98665000Y-71299412D02*
X98665000Y-71925588D01*
X124526760Y-72277050D02*
X124614760Y-72277050D01*
X125350760Y-70768950D02*
X125350760Y-71375000D01*
X123705294Y-71375000D02*
X124174760Y-71375000D01*
%TO.N,/RX_N*%
X125790760Y-70768950D02*
G75*
G02*
X125846760Y-70712860I56040J50D01*
G01*
X125494760Y-72517049D02*
G75*
G03*
X125790749Y-72221049I40J295949D01*
G01*
%TO.N,/RX_P*%
X100205097Y-69759315D02*
X98665000Y-71299412D01*
%TO.N,/RX_N*%
X98750000Y-69410000D02*
X99265000Y-68895000D01*
X125934760Y-70712950D02*
G75*
G02*
X125990750Y-70768950I40J-55950D01*
G01*
X125054760Y-70712950D02*
G75*
G02*
X125110750Y-70768950I40J-55950D01*
G01*
X126670760Y-71671000D02*
G75*
G02*
X126726760Y-71614960I56040J0D01*
G01*
%TO.N,/RX_P*%
X125550760Y-71375000D02*
X125550760Y-70768950D01*
X98665000Y-71925588D02*
X99024412Y-72285000D01*
%TO.N,/RX_N*%
X124910760Y-70768950D02*
G75*
G02*
X124966760Y-70712860I56040J50D01*
G01*
X125110760Y-72221049D02*
G75*
G03*
X125406760Y-72517140I296040J-51D01*
G01*
X124174760Y-71615000D02*
G75*
G02*
X124230800Y-71671000I40J-56000D01*
G01*
X124614760Y-72517050D02*
G75*
G03*
X124910750Y-72221050I40J295950D01*
G01*
%TO.N,/RX_P*%
X126726760Y-71375000D02*
X126814760Y-71375000D01*
X127219706Y-71375000D02*
X127920262Y-72075556D01*
X99024412Y-72285000D02*
X122795294Y-72285000D01*
X126814760Y-71375000D02*
X127219706Y-71375000D01*
X126430760Y-72221048D02*
X126430760Y-71671000D01*
%TO.N,/RX_N*%
X124910760Y-72221050D02*
X124910760Y-71671000D01*
X131194506Y-68874800D02*
X127074900Y-68874800D01*
%TO.N,/RX_P*%
X122795294Y-72285000D02*
X123705294Y-71375000D01*
X126286760Y-72277048D02*
X126374760Y-72277048D01*
%TO.N,/RX_N*%
X98925000Y-72525000D02*
X122894706Y-72525000D01*
%TO.N,/RX_P*%
X126230760Y-71671000D02*
X126230760Y-72221048D01*
X125550760Y-71615000D02*
X125550760Y-71375000D01*
X125350760Y-71375000D02*
X125350760Y-71615000D01*
X124670760Y-72221050D02*
X124670760Y-71671000D01*
X125406760Y-72277049D02*
X125494760Y-72277049D01*
%TO.N,/NRESET*%
D20*
X110525000Y-60825000D02*
X108822919Y-60825000D01*
X107500000Y-62147919D02*
X107500000Y-63350000D01*
X108822919Y-60825000D02*
X107500000Y-62147919D01*
%TO.N,/BNO_SCL*%
D19*
X111330000Y-64330000D02*
X116830000Y-69830000D01*
X116830000Y-69830000D02*
X116830000Y-71050000D01*
X109750000Y-64330000D02*
X111330000Y-64330000D01*
%TO.N,/BNO_SDA*%
X109750000Y-63060000D02*
X111310000Y-63060000D01*
X118100000Y-69850000D02*
X118100000Y-71050000D01*
X111310000Y-63060000D02*
X118100000Y-69850000D01*
%TO.N,/BNO_NRST*%
X119370000Y-69870000D02*
X119370000Y-71050000D01*
X109750000Y-61790000D02*
X111290000Y-61790000D01*
X111290000Y-61790000D02*
X119370000Y-69870000D01*
%TO.N,/BNO_NINT*%
X108060000Y-60100000D02*
X110850000Y-60100000D01*
X120640000Y-69890000D02*
X120640000Y-71050000D01*
X110850000Y-60100000D02*
X120640000Y-69890000D01*
%TO.N,/CLK_N*%
X131700000Y-64020294D02*
X131420572Y-64020294D01*
X131398401Y-65273698D02*
X131595932Y-65471229D01*
X131115511Y-65556496D02*
X131313088Y-65754073D01*
X131256977Y-65301983D02*
X131285263Y-65273698D01*
X131420572Y-63820294D02*
X131700000Y-63820294D01*
X99724706Y-62545000D02*
X99265000Y-62545000D01*
X98235000Y-62545000D02*
X98750000Y-63060000D01*
X97625294Y-62545000D02*
X98235000Y-62545000D01*
X93370000Y-60749706D02*
X93949706Y-60170000D01*
X131700000Y-64820294D02*
X131420572Y-64820294D01*
X93949706Y-60170000D02*
X96000294Y-60170000D01*
X131700000Y-64420294D02*
X131420572Y-64420294D01*
X131709068Y-65471230D02*
X131737351Y-65442944D01*
X94095000Y-61805000D02*
X93724706Y-61805000D01*
X131420572Y-64220294D02*
X131700000Y-64220294D01*
X100020000Y-62249706D02*
X99724706Y-62545000D01*
X131780000Y-64540294D02*
X131780000Y-64500294D01*
X131340572Y-63940294D02*
X131340572Y-63900294D01*
X96000294Y-60170000D02*
X96980000Y-61149706D01*
X131085495Y-66094799D02*
X131171663Y-66008631D01*
X131780000Y-63700294D02*
X131780000Y-63346375D01*
X131780000Y-64140294D02*
X131780000Y-64100294D01*
X131780000Y-61099706D02*
X129550294Y-58870000D01*
X94600000Y-61300000D02*
X94095000Y-61805000D01*
X96980000Y-61899706D02*
X97625294Y-62545000D01*
X131171664Y-65895493D02*
X130974088Y-65697917D01*
X131454507Y-65725788D02*
X131454507Y-65725787D01*
X131780000Y-65400294D02*
X131780000Y-65150294D01*
X131737351Y-65442944D02*
X131780000Y-65400294D01*
X131780000Y-63346375D02*
X131780000Y-61099706D01*
X99270000Y-59649706D02*
X99270000Y-60400294D01*
X99270000Y-60400294D02*
X100020000Y-61150294D01*
X131340572Y-64340294D02*
X131340572Y-64300294D01*
X131454508Y-65612649D02*
X131256978Y-65415119D01*
X99265000Y-62545000D02*
X98750000Y-63060000D01*
X131780000Y-65150294D02*
X131780000Y-64900294D01*
X94850000Y-61300000D02*
X94600000Y-61300000D01*
X96980000Y-61149706D02*
X96980000Y-61899706D01*
X100020000Y-61150294D02*
X100020000Y-62249706D01*
X93370000Y-61450294D02*
X93370000Y-60749706D01*
X131426224Y-65754074D02*
X131454507Y-65725788D01*
X131420572Y-64620294D02*
X131700000Y-64620294D01*
X100049706Y-58870000D02*
X99270000Y-59649706D01*
X130644899Y-66094799D02*
X131085495Y-66094799D01*
X130974087Y-65584781D02*
X131002373Y-65556496D01*
X131780000Y-63740294D02*
X131780000Y-63700294D01*
X93724706Y-61805000D02*
X93370000Y-61450294D01*
X129614900Y-65064800D02*
X130644899Y-66094799D01*
X129550294Y-58870000D02*
X100049706Y-58870000D01*
X131340572Y-64740294D02*
X131340572Y-64700294D01*
X131256978Y-65415119D02*
G75*
G02*
X131257026Y-65302033I56522J56519D01*
G01*
X131420572Y-64020294D02*
G75*
G02*
X131340606Y-63940294I28J79994D01*
G01*
X131420572Y-64820294D02*
G75*
G02*
X131340606Y-64740294I28J79994D01*
G01*
X131002373Y-65556496D02*
G75*
G02*
X131115511Y-65556496I56569J-56571D01*
G01*
X131340572Y-64700294D02*
G75*
G02*
X131420572Y-64620272I80028J-6D01*
G01*
X131313088Y-65754073D02*
G75*
G03*
X131426267Y-65754118I56612J56573D01*
G01*
X131700000Y-63820294D02*
G75*
G03*
X131779994Y-63740294I0J79994D01*
G01*
X131340572Y-63900294D02*
G75*
G02*
X131420572Y-63820272I80028J-6D01*
G01*
X131285263Y-65273698D02*
G75*
G02*
X131398401Y-65273698I56569J-56571D01*
G01*
X131340572Y-64300294D02*
G75*
G02*
X131420572Y-64220272I80028J-6D01*
G01*
X131780000Y-64500294D02*
G75*
G03*
X131700000Y-64420300I-80000J-6D01*
G01*
X131700000Y-64620294D02*
G75*
G03*
X131779994Y-64540294I0J79994D01*
G01*
X131780000Y-64100294D02*
G75*
G03*
X131700000Y-64020300I-80000J-6D01*
G01*
X131454507Y-65725787D02*
G75*
G03*
X131454526Y-65612632I-56607J56587D01*
G01*
X131595932Y-65471229D02*
G75*
G03*
X131709068Y-65471230I56568J56529D01*
G01*
X131171663Y-66008631D02*
G75*
G03*
X131171626Y-65895532I-56563J56531D01*
G01*
X130974088Y-65697917D02*
G75*
G02*
X130974038Y-65584733I56612J56617D01*
G01*
X131420572Y-64420294D02*
G75*
G02*
X131340606Y-64340294I28J79994D01*
G01*
X131780000Y-64900294D02*
G75*
G03*
X131700000Y-64820300I-80000J-6D01*
G01*
X131700000Y-64220294D02*
G75*
G03*
X131779994Y-64140294I0J79994D01*
G01*
%TO.N,/CLK_P*%
X97220000Y-61050294D02*
X97220000Y-61800294D01*
X93850294Y-59930000D02*
X96099706Y-59930000D01*
X99780000Y-61249706D02*
X99780000Y-62150294D01*
X127074900Y-66334800D02*
X131184906Y-66334800D01*
X132020000Y-65499706D02*
X132020000Y-61000294D01*
X94600000Y-62550000D02*
X94095000Y-62045000D01*
X99030000Y-60499706D02*
X99780000Y-61249706D01*
X93625294Y-62045000D02*
X93130000Y-61549706D01*
X99030000Y-59550294D02*
X99030000Y-60499706D01*
X96099706Y-59930000D02*
X97220000Y-61050294D01*
X94850000Y-62550000D02*
X94600000Y-62550000D01*
X99625294Y-62305000D02*
X99265000Y-62305000D01*
X99950294Y-58630000D02*
X99030000Y-59550294D01*
X129649706Y-58630000D02*
X99950294Y-58630000D01*
X98235000Y-62305000D02*
X98750000Y-61790000D01*
X93130000Y-61549706D02*
X93130000Y-60650294D01*
X131184906Y-66334800D02*
X132020000Y-65499706D01*
X97724706Y-62305000D02*
X98235000Y-62305000D01*
X99780000Y-62150294D02*
X99625294Y-62305000D01*
X93130000Y-60650294D02*
X93850294Y-59930000D01*
X132020000Y-61000294D02*
X129649706Y-58630000D01*
X94095000Y-62045000D02*
X93625294Y-62045000D01*
X97220000Y-61800294D02*
X97724706Y-62305000D01*
X99265000Y-62305000D02*
X98750000Y-61790000D01*
%TO.N,/RX_P*%
X96555588Y-69305000D02*
X97205588Y-68655000D01*
X98235000Y-68655000D02*
X98750000Y-68140000D01*
X96005000Y-69305000D02*
X96555588Y-69305000D01*
X97205588Y-68655000D02*
X98235000Y-68655000D01*
X95500000Y-68800000D02*
X96005000Y-69305000D01*
X94850000Y-68800000D02*
X95500000Y-68800000D01*
%TO.N,/RX_N*%
X94850000Y-70050000D02*
X95500000Y-70050000D01*
X95500000Y-70050000D02*
X96005000Y-69545000D01*
X96655000Y-69545000D02*
X97305000Y-68895000D01*
X98235000Y-68895000D02*
X98750000Y-69410000D01*
X96005000Y-69545000D02*
X96655000Y-69545000D01*
X97305000Y-68895000D02*
X98235000Y-68895000D01*
%TD*%
M02*
