%TF.GenerationSoftware,KiCad,Pcbnew,10.0.0*%
%TF.CreationDate,2026-04-08T14:29:20+02:00*%
%TF.ProjectId,Shell_Module_BUS,5368656c-6c5f-44d6-9f64-756c655f4255,1.0*%
%TF.SameCoordinates,Original*%
%TF.FileFunction,Legend,Bot*%
%TF.FilePolarity,Positive*%
%FSLAX46Y46*%
G04 Gerber Fmt 4.6, Leading zero omitted, Abs format (unit mm)*
G04 Created by KiCad (PCBNEW 10.0.0) date 2026-04-08 14:29:20*
%MOMM*%
%LPD*%
G01*
G04 APERTURE LIST*
%ADD10C,0.300000*%
%ADD11C,0.120000*%
%ADD12C,0.100000*%
G04 APERTURE END LIST*
D10*
G36*
X103084008Y-65828854D02*
G01*
X103144404Y-65846516D01*
X103184828Y-65872839D01*
X103213648Y-65908675D01*
X103231955Y-65956007D01*
X103238651Y-66018432D01*
X103231979Y-66086872D01*
X103213891Y-66138375D01*
X103185881Y-66176928D01*
X103147427Y-66205003D01*
X103089186Y-66224134D01*
X102993737Y-66231931D01*
X102626915Y-66231931D01*
X102626915Y-65821603D01*
X102984486Y-65821603D01*
X103084008Y-65828854D01*
G37*
G36*
X106490197Y-66703413D02*
G01*
X102151861Y-66703413D01*
X102151861Y-66231931D01*
X102318528Y-66231931D01*
X102318528Y-66489851D01*
X103059316Y-66489851D01*
X103165625Y-66483194D01*
X103245303Y-66469535D01*
X103303681Y-66450833D01*
X103382884Y-66406375D01*
X103448761Y-66345137D01*
X103492827Y-66284602D01*
X103526614Y-66217917D01*
X103547809Y-66144923D01*
X103555282Y-66058824D01*
X103549392Y-65988273D01*
X103531534Y-65917941D01*
X103500968Y-65846974D01*
X103457678Y-65785163D01*
X103398857Y-65736324D01*
X103321633Y-65699695D01*
X103387015Y-65665982D01*
X103435382Y-65626020D01*
X103469644Y-65579711D01*
X103491883Y-65525753D01*
X103507326Y-65449171D01*
X103507478Y-65446446D01*
X103753851Y-65446446D01*
X104055094Y-65446446D01*
X104069040Y-65380733D01*
X104088174Y-65331943D01*
X104111423Y-65296511D01*
X104152646Y-65259662D01*
X104207732Y-65231565D01*
X104280248Y-65212991D01*
X104374839Y-65206111D01*
X104480956Y-65212814D01*
X104556189Y-65230199D01*
X104616436Y-65259925D01*
X104656353Y-65297650D01*
X104680051Y-65344058D01*
X104688355Y-65402024D01*
X104681044Y-65447308D01*
X104659748Y-65484430D01*
X104622776Y-65515505D01*
X104546878Y-65549731D01*
X104416787Y-65585664D01*
X104256961Y-65621751D01*
X104099095Y-65663694D01*
X103995157Y-65702578D01*
X103931080Y-65737889D01*
X103865531Y-65796106D01*
X103818499Y-65867910D01*
X103788966Y-65956106D01*
X103778398Y-66065052D01*
X103787887Y-66163616D01*
X103815456Y-66251301D01*
X103860981Y-66330377D01*
X103925951Y-66402382D01*
X104002787Y-66458023D01*
X104097898Y-66499892D01*
X104215172Y-66526957D01*
X104359451Y-66536746D01*
X104477783Y-66528374D01*
X104583900Y-66504182D01*
X104679710Y-66464930D01*
X104766757Y-66410533D01*
X104827139Y-66356200D01*
X104874517Y-66293718D01*
X104909819Y-66222064D01*
X104910343Y-66220207D01*
X105100057Y-66220207D01*
X105100057Y-66489851D01*
X106323530Y-66489851D01*
X106323530Y-66220207D01*
X105871620Y-66220207D01*
X105871620Y-64977500D01*
X105553982Y-64977500D01*
X105553982Y-66220207D01*
X105100057Y-66220207D01*
X104910343Y-66220207D01*
X104933097Y-66139635D01*
X104943528Y-66044352D01*
X104640178Y-66044352D01*
X104629109Y-66108705D01*
X104605720Y-66160468D01*
X104570301Y-66202282D01*
X104521293Y-66235503D01*
X104441899Y-66262907D01*
X104337927Y-66272964D01*
X104257887Y-66266854D01*
X104194040Y-66250048D01*
X104143205Y-66224054D01*
X104102497Y-66186824D01*
X104078708Y-66142231D01*
X104070482Y-66087766D01*
X104078572Y-66038343D01*
X104101892Y-65999177D01*
X104142197Y-65967691D01*
X104201887Y-65942903D01*
X104338935Y-65905134D01*
X104599237Y-65842302D01*
X104711851Y-65808940D01*
X104796074Y-65771916D01*
X104857432Y-65732301D01*
X104915681Y-65674189D01*
X104957443Y-65605024D01*
X104983486Y-65522578D01*
X104992712Y-65423548D01*
X104982623Y-65323389D01*
X104953228Y-65234072D01*
X104904443Y-65153214D01*
X104834351Y-65079257D01*
X104752242Y-65022184D01*
X104652792Y-64979513D01*
X104532519Y-64952150D01*
X104387112Y-64942329D01*
X104238517Y-64951913D01*
X104114140Y-64978728D01*
X104010028Y-65020667D01*
X103922928Y-65076784D01*
X103862131Y-65134516D01*
X103815481Y-65199162D01*
X103781868Y-65271652D01*
X103761086Y-65353447D01*
X103753851Y-65446446D01*
X103507478Y-65446446D01*
X103513241Y-65343223D01*
X103513241Y-65241740D01*
X103515840Y-65146591D01*
X103521485Y-65101422D01*
X103542406Y-65050079D01*
X103578821Y-65015418D01*
X103578821Y-64977500D01*
X103231507Y-64977500D01*
X103210991Y-65058466D01*
X103197710Y-65188525D01*
X103195604Y-65328843D01*
X103187070Y-65424527D01*
X103168299Y-65485125D01*
X103142847Y-65521367D01*
X103105377Y-65545521D01*
X103045161Y-65562712D01*
X102952796Y-65569544D01*
X102626915Y-65569544D01*
X102626915Y-64977500D01*
X102318528Y-64977500D01*
X102318528Y-66231931D01*
X102151861Y-66231931D01*
X102151861Y-64775662D01*
X106490197Y-64775662D01*
X106490197Y-66703413D01*
G37*
%TO.C,C304*%
D11*
X108909420Y-71610000D02*
X109190580Y-71610000D01*
X108909420Y-70590000D02*
X109190580Y-70590000D01*
%TO.C,R2*%
X114962258Y-61102500D02*
X114487742Y-61102500D01*
X114962258Y-62147500D02*
X114487742Y-62147500D01*
%TO.C,R1*%
X92148565Y-61487258D02*
X92148565Y-61012742D01*
X93193565Y-61487258D02*
X93193565Y-61012742D01*
%TO.C,C1*%
X91761065Y-65761252D02*
X91761065Y-64338748D01*
X93581065Y-65761252D02*
X93581065Y-64338748D01*
%TO.C,SW301*%
X101130000Y-64500000D02*
X101130000Y-66700000D01*
X106750000Y-62480000D02*
X101750000Y-62480000D01*
X106750000Y-68720000D02*
X101750000Y-68720000D01*
X107370000Y-66700000D02*
X107370000Y-64500000D01*
D12*
%TO.C,J2*%
X131364900Y-70644800D02*
X130864900Y-70144800D01*
X131364900Y-69644800D01*
X131364900Y-70644800D01*
G36*
X131364900Y-70644800D02*
G01*
X130864900Y-70144800D01*
X131364900Y-69644800D01*
X131364900Y-70644800D01*
G37*
%TD*%
M02*
