M48
; DRILL file KiCad 10.0.0 date 2026-04-08T14:29:26
; FORMAT={-:-/ absolute / metric / decimal}
; #@! TF.CreationDate,2026-04-08T14:29:26+02:00
; #@! TF.GenerationSoftware,Kicad,Pcbnew,10.0.0
; #@! TF.FileFunction,Plated,1,4,PTH
FMAT,2
METRIC
; #@! TA.AperFunction,Plated,PTH,ViaDrill
T1C0.300
; #@! TA.AperFunction,Plated,PTH,ComponentDrill
T2C0.500
; #@! TA.AperFunction,Plated,PTH,ComponentDrill
T3C0.650
; #@! TA.AperFunction,Plated,PTH,ComponentDrill
T4C0.889
; #@! TA.AperFunction,Plated,PTH,ComponentDrill
T5C1.000
; #@! TA.AperFunction,Plated,PTH,ComponentDrill
T6C3.251
%
G90
G05
T1
X92.671Y-59.65
X110.525Y-60.825
T2
X94.85Y-61.3
X94.85Y-62.55
X94.85Y-63.8
X94.85Y-65.05
X94.85Y-66.3
X94.85Y-67.55
X94.85Y-68.8
X94.85Y-70.05
T3
X98.75Y-61.79
X98.75Y-63.06
X98.75Y-64.33
X98.75Y-65.6
X98.75Y-66.87
X98.75Y-68.14
X98.75Y-69.41
X100.44Y-60.1
X100.44Y-71.1
X101.71Y-60.1
X101.71Y-71.1
X102.98Y-60.1
X102.98Y-71.1
X104.25Y-60.1
X104.25Y-71.1
X105.52Y-60.1
X105.52Y-71.1
X106.79Y-60.1
X106.79Y-71.1
X108.06Y-60.1
X109.75Y-61.79
X109.75Y-63.06
X109.75Y-64.33
X109.75Y-65.6
X109.75Y-66.87
X109.75Y-68.14
X109.75Y-69.41
X114.29Y-60.05
X114.29Y-71.05
X115.56Y-60.05
X115.56Y-71.05
X116.83Y-60.05
X116.83Y-71.05
X118.1Y-60.05
X118.1Y-71.05
X119.37Y-60.05
X119.37Y-71.05
X120.64Y-60.05
X120.64Y-71.05
X121.91Y-60.05
X121.91Y-71.05
T4
X127.075Y-61.255
X127.075Y-63.795
X127.075Y-66.335
X127.075Y-68.875
X129.615Y-62.525
X129.615Y-65.065
X129.615Y-67.605
X129.615Y-70.145
T5
X101.0Y-63.35
X101.0Y-67.85
X107.5Y-63.35
X107.5Y-67.85
T6
X135.965Y-59.985
X135.965Y-71.415
M30
