%TF.GenerationSoftware,KiCad,Pcbnew,10.0.0*%
%TF.CreationDate,2026-04-08T14:29:19+02:00*%
%TF.ProjectId,Shell_Module_BUS,5368656c-6c5f-44d6-9f64-756c655f4255,1.0*%
%TF.SameCoordinates,Original*%
%TF.FileFunction,Copper,L3,Inr*%
%TF.FilePolarity,Positive*%
%FSLAX46Y46*%
G04 Gerber Fmt 4.6, Leading zero omitted, Abs format (unit mm)*
G04 Created by KiCad (PCBNEW 10.0.0) date 2026-04-08 14:29:19*
%MOMM*%
%LPD*%
G01*
G04 APERTURE LIST*
G04 Aperture macros list*
%AMRoundRect*
0 Rectangle with rounded corners*
0 $1 Rounding radius*
0 $2 $3 $4 $5 $6 $7 $8 $9 X,Y pos of 4 corners*
0 Add a 4 corners polygon primitive as box body*
4,1,4,$2,$3,$4,$5,$6,$7,$8,$9,$2,$3,0*
0 Add four circle primitives for the rounded corners*
1,1,$1+$1,$2,$3*
1,1,$1+$1,$4,$5*
1,1,$1+$1,$6,$7*
1,1,$1+$1,$8,$9*
0 Add four rect primitives between the rounded corners*
20,1,$1+$1,$2,$3,$4,$5,0*
20,1,$1+$1,$4,$5,$6,$7,0*
20,1,$1+$1,$6,$7,$8,$9,0*
20,1,$1+$1,$8,$9,$2,$3,0*%
G04 Aperture macros list end*
%TA.AperFunction,ComponentPad*%
%ADD10C,1.700000*%
%TD*%
%TA.AperFunction,ComponentPad*%
%ADD11R,1.000000X1.000000*%
%TD*%
%TA.AperFunction,ComponentPad*%
%ADD12C,1.000000*%
%TD*%
%TA.AperFunction,ComponentPad*%
%ADD13C,1.397000*%
%TD*%
%TA.AperFunction,ComponentPad*%
%ADD14C,3.759200*%
%TD*%
%TA.AperFunction,ComponentPad*%
%ADD15RoundRect,0.200000X-0.450000X0.200000X-0.450000X-0.200000X0.450000X-0.200000X0.450000X0.200000X0*%
%TD*%
%TA.AperFunction,ComponentPad*%
%ADD16O,1.300000X0.800000*%
%TD*%
%TA.AperFunction,ViaPad*%
%ADD17C,0.550000*%
%TD*%
%TA.AperFunction,ViaPad*%
%ADD18C,0.600000*%
%TD*%
G04 APERTURE END LIST*
D10*
%TO.N,/NRESET*%
%TO.C,SW301*%
X107500000Y-63350000D03*
X101000000Y-63350000D03*
%TO.N,GND*%
X107500000Y-67850000D03*
X101000000Y-67850000D03*
%TD*%
D11*
%TO.N,/NRESET*%
%TO.C,U1*%
X106790000Y-71100000D03*
D12*
%TO.N,unconnected-(U1-DONE-Pad2)*%
X105520000Y-71100000D03*
%TO.N,unconnected-(U1-FLASH_MOSI-Pad3)*%
X104250000Y-71100000D03*
%TO.N,unconnected-(U1-FLASH_SCK-Pad4)*%
X102980000Y-71100000D03*
%TO.N,unconnected-(U1-FLASH_MISO-Pad5)*%
X101710000Y-71100000D03*
%TO.N,unconnected-(U1-FLASH_NSC-Pad6)*%
X100440000Y-71100000D03*
%TO.N,/RX_N*%
X98750000Y-69410000D03*
%TO.N,/RX_P*%
X98750000Y-68140000D03*
%TO.N,unconnected-(U1-BARCODE-Pad9)*%
X98750000Y-66870000D03*
%TO.N,unconnected-(U1-IRLED-Pad10)*%
X98750000Y-65600000D03*
%TO.N,unconnected-(U1-IOT_27A-Pad11)*%
X98750000Y-64330000D03*
%TO.N,/CLK_N*%
X98750000Y-63060000D03*
%TO.N,/CLK_P*%
X98750000Y-61790000D03*
%TO.N,/TX_P*%
X100440000Y-60100000D03*
%TO.N,/TX_N*%
X101710000Y-60100000D03*
%TO.N,unconnected-(U1-IO_6A-Pad16)*%
X102980000Y-60100000D03*
%TO.N,unconnected-(U1-IOB_7B_G5-Pad17)*%
X104250000Y-60100000D03*
%TO.N,unconnected-(U1-IOB_3B_G6-Pad18)*%
X105520000Y-60100000D03*
%TO.N,unconnected-(U1-IOB_0A-Pad19)*%
X106790000Y-60100000D03*
%TO.N,/BNO_NINT*%
X108060000Y-60100000D03*
%TO.N,/BNO_NRST*%
X109750000Y-61790000D03*
%TO.N,/BNO_SDA*%
X109750000Y-63060000D03*
%TO.N,/BNO_SCL*%
X109750000Y-64330000D03*
%TO.N,unconnected-(U1-RGB1-Pad24)*%
X109750000Y-65600000D03*
%TO.N,unconnected-(U1-RGB2-Pad25)*%
X109750000Y-66870000D03*
%TO.N,+5V*%
X109750000Y-68140000D03*
%TO.N,GND*%
X109750000Y-69410000D03*
%TD*%
D13*
%TO.N,/RX_P*%
%TO.C,J2*%
X129614900Y-70144800D03*
%TO.N,/RX_N*%
X127074900Y-68874800D03*
%TO.N,+5V*%
X129614900Y-67604800D03*
%TO.N,/CLK_P*%
X127074900Y-66334800D03*
%TO.N,/CLK_N*%
X129614900Y-65064800D03*
%TO.N,GND*%
X127074900Y-63794800D03*
%TO.N,/TX_N*%
X129614900Y-62524800D03*
%TO.N,/TX_P*%
X127074900Y-61254800D03*
D14*
%TO.N,GND*%
X135964900Y-71414800D03*
X135964900Y-59984800D03*
%TD*%
D15*
%TO.N,/CLK_N*%
%TO.C,J1*%
X94850000Y-61300000D03*
D16*
%TO.N,/CLK_P*%
X94850000Y-62550000D03*
%TO.N,/TX_N*%
X94850000Y-63800000D03*
%TO.N,/TX_P*%
X94850000Y-65050000D03*
%TO.N,+5V*%
X94850000Y-66300000D03*
%TO.N,GND*%
X94850000Y-67550000D03*
%TO.N,/RX_P*%
X94850000Y-68800000D03*
%TO.N,/RX_N*%
X94850000Y-70050000D03*
%TD*%
D12*
%TO.N,GND*%
%TO.C,U2*%
X114290000Y-71050000D03*
%TO.N,+5V*%
X115560000Y-71050000D03*
%TO.N,/BNO_SCL*%
X116830000Y-71050000D03*
%TO.N,/BNO_SDA*%
X118100000Y-71050000D03*
%TO.N,/BNO_NRST*%
X119370000Y-71050000D03*
%TO.N,/BNO_NINT*%
X120640000Y-71050000D03*
%TO.N,unconnected-(U2-H_NCS-Pad7)*%
X121910000Y-71050000D03*
%TO.N,GND*%
X114290000Y-60050000D03*
%TO.N,+3V3*%
X115560000Y-60050000D03*
%TO.N,unconnected-(U2-BNO_ADDR-Pad10)*%
X116830000Y-60050000D03*
%TO.N,unconnected-(U2-ENV_SCL-Pad11)*%
X118100000Y-60050000D03*
%TO.N,unconnected-(U2-ENV_SDA-Pad12)*%
X119370000Y-60050000D03*
%TO.N,unconnected-(U2-NC1-Pad13)*%
X120640000Y-60050000D03*
%TO.N,unconnected-(U2-NC2-Pad14)*%
X121910000Y-60050000D03*
%TD*%
D17*
%TO.N,GND*%
X92671065Y-59650000D03*
D18*
%TO.N,/NRESET*%
X110525000Y-60825000D03*
%TD*%
%TA.AperFunction,Conductor*%
%TO.N,GND*%
G36*
X95001601Y-51200604D02*
G01*
X95231683Y-51215685D01*
X95238017Y-51216518D01*
X95462606Y-51261191D01*
X95468776Y-51262845D01*
X95685602Y-51336447D01*
X95691515Y-51338896D01*
X95896878Y-51440171D01*
X95902413Y-51443366D01*
X96086309Y-51566241D01*
X96092797Y-51570576D01*
X96097882Y-51574478D01*
X96270024Y-51725443D01*
X96274556Y-51729975D01*
X96425521Y-51902117D01*
X96429423Y-51907202D01*
X96556628Y-52097578D01*
X96559833Y-52103129D01*
X96661101Y-52308480D01*
X96663554Y-52314402D01*
X96737153Y-52531219D01*
X96738810Y-52537403D01*
X96783478Y-52761964D01*
X96784314Y-52768318D01*
X96799395Y-52998398D01*
X96799500Y-53001603D01*
X96799500Y-55860118D01*
X96799500Y-55900000D01*
X96799500Y-56033106D01*
X96828227Y-56269693D01*
X96831589Y-56297383D01*
X96831590Y-56297389D01*
X96895294Y-56555845D01*
X96895294Y-56555847D01*
X96895296Y-56555852D01*
X96989696Y-56804764D01*
X97113411Y-57040483D01*
X97113415Y-57040489D01*
X97113418Y-57040494D01*
X97264632Y-57259566D01*
X97264639Y-57259575D01*
X97324940Y-57327640D01*
X97441167Y-57458833D01*
X97558208Y-57562522D01*
X97640424Y-57635360D01*
X97640433Y-57635367D01*
X97859280Y-57786426D01*
X97859517Y-57786589D01*
X98095236Y-57910304D01*
X98344148Y-58004704D01*
X98432083Y-58026377D01*
X98602610Y-58068409D01*
X98602615Y-58068409D01*
X98602624Y-58068412D01*
X98866894Y-58100500D01*
X98960118Y-58100500D01*
X143750500Y-58100500D01*
X143785148Y-58114852D01*
X143799500Y-58149500D01*
X143799500Y-73250500D01*
X143785148Y-73285148D01*
X143750500Y-73299500D01*
X141539882Y-73299500D01*
X141500000Y-73299500D01*
X141366894Y-73299500D01*
X141102624Y-73331588D01*
X141102616Y-73331589D01*
X141102610Y-73331590D01*
X140844154Y-73395294D01*
X140844152Y-73395294D01*
X140595240Y-73489694D01*
X140595231Y-73489698D01*
X140359526Y-73613406D01*
X140359505Y-73613418D01*
X140140433Y-73764632D01*
X140140424Y-73764639D01*
X139941167Y-73941167D01*
X139764639Y-74140424D01*
X139764632Y-74140433D01*
X139613418Y-74359505D01*
X139613406Y-74359526D01*
X139489698Y-74595231D01*
X139489694Y-74595240D01*
X139395294Y-74844152D01*
X139395294Y-74844154D01*
X139331590Y-75102610D01*
X139331589Y-75102616D01*
X139331588Y-75102623D01*
X139331588Y-75102624D01*
X139308668Y-75291395D01*
X139299500Y-75366898D01*
X139299500Y-78498396D01*
X139299395Y-78501601D01*
X139284314Y-78731681D01*
X139283478Y-78738032D01*
X139251784Y-78897376D01*
X139238812Y-78962589D01*
X139237153Y-78968780D01*
X139163554Y-79185597D01*
X139161101Y-79191519D01*
X139059833Y-79396870D01*
X139056628Y-79402421D01*
X138929423Y-79592797D01*
X138925521Y-79597882D01*
X138774556Y-79770024D01*
X138770024Y-79774556D01*
X138597882Y-79925521D01*
X138592797Y-79929423D01*
X138402421Y-80056628D01*
X138396870Y-80059833D01*
X138191519Y-80161101D01*
X138185597Y-80163554D01*
X137968780Y-80237153D01*
X137962592Y-80238811D01*
X137738032Y-80283478D01*
X137731681Y-80284314D01*
X137501602Y-80299395D01*
X137498397Y-80299500D01*
X134501603Y-80299500D01*
X134498398Y-80299395D01*
X134268318Y-80284314D01*
X134261969Y-80283478D01*
X134037403Y-80238810D01*
X134031219Y-80237153D01*
X133814402Y-80163554D01*
X133808480Y-80161101D01*
X133603129Y-80059833D01*
X133597581Y-80056630D01*
X133501789Y-79992624D01*
X133407202Y-79929423D01*
X133402117Y-79925521D01*
X133229975Y-79774556D01*
X133225443Y-79770024D01*
X133074478Y-79597882D01*
X133070576Y-79592797D01*
X132944937Y-79404764D01*
X132943366Y-79402413D01*
X132940171Y-79396878D01*
X132838896Y-79191515D01*
X132836445Y-79185597D01*
X132762846Y-78968780D01*
X132761191Y-78962606D01*
X132716518Y-78738017D01*
X132715685Y-78731681D01*
X132714172Y-78708604D01*
X132700605Y-78501601D01*
X132700500Y-78498396D01*
X132700500Y-76881989D01*
X134199500Y-76881989D01*
X134199500Y-77118011D01*
X134230307Y-77352014D01*
X134230308Y-77352018D01*
X134230309Y-77352025D01*
X134291391Y-77579986D01*
X134291395Y-77579996D01*
X134381716Y-77798050D01*
X134499725Y-78002447D01*
X134499735Y-78002462D01*
X134643403Y-78189693D01*
X134643413Y-78189705D01*
X134810294Y-78356586D01*
X134810306Y-78356596D01*
X134997537Y-78500264D01*
X134997546Y-78500270D01*
X134997550Y-78500273D01*
X135201951Y-78618284D01*
X135420007Y-78708606D01*
X135420010Y-78708606D01*
X135420013Y-78708608D01*
X135647974Y-78769690D01*
X135647975Y-78769690D01*
X135647986Y-78769693D01*
X135881989Y-78800500D01*
X135881993Y-78800500D01*
X136118007Y-78800500D01*
X136118011Y-78800500D01*
X136352014Y-78769693D01*
X136579993Y-78708606D01*
X136798049Y-78618284D01*
X137002450Y-78500273D01*
X137189699Y-78356592D01*
X137356592Y-78189699D01*
X137500273Y-78002450D01*
X137618284Y-77798049D01*
X137708606Y-77579993D01*
X137769693Y-77352014D01*
X137800500Y-77118011D01*
X137800500Y-76881989D01*
X137769693Y-76647986D01*
X137708606Y-76420007D01*
X137618284Y-76201951D01*
X137500273Y-75997550D01*
X137500270Y-75997546D01*
X137500264Y-75997537D01*
X137356596Y-75810306D01*
X137356586Y-75810294D01*
X137189705Y-75643413D01*
X137189693Y-75643403D01*
X137002462Y-75499735D01*
X137002447Y-75499725D01*
X136798050Y-75381716D01*
X136579996Y-75291395D01*
X136579986Y-75291391D01*
X136352025Y-75230309D01*
X136352018Y-75230308D01*
X136352014Y-75230307D01*
X136118011Y-75199500D01*
X135881989Y-75199500D01*
X135647986Y-75230307D01*
X135647982Y-75230307D01*
X135647974Y-75230309D01*
X135420013Y-75291391D01*
X135420003Y-75291395D01*
X135201949Y-75381716D01*
X134997552Y-75499725D01*
X134997537Y-75499735D01*
X134810306Y-75643403D01*
X134810294Y-75643413D01*
X134643413Y-75810294D01*
X134643403Y-75810306D01*
X134499735Y-75997537D01*
X134499725Y-75997552D01*
X134381716Y-76201949D01*
X134291395Y-76420003D01*
X134291391Y-76420013D01*
X134230309Y-76647974D01*
X134230307Y-76647982D01*
X134230307Y-76647986D01*
X134199500Y-76881989D01*
X132700500Y-76881989D01*
X132700500Y-75366898D01*
X132700500Y-75366894D01*
X132668412Y-75102624D01*
X132604704Y-74844148D01*
X132510304Y-74595236D01*
X132386589Y-74359517D01*
X132235364Y-74140429D01*
X132058833Y-73941167D01*
X131935354Y-73831774D01*
X131859575Y-73764639D01*
X131859566Y-73764632D01*
X131640494Y-73613418D01*
X131640489Y-73613415D01*
X131640483Y-73613411D01*
X131404764Y-73489696D01*
X131155852Y-73395296D01*
X131155849Y-73395295D01*
X131155846Y-73395294D01*
X130897389Y-73331590D01*
X130897383Y-73331589D01*
X130897377Y-73331588D01*
X130897376Y-73331588D01*
X130633106Y-73299500D01*
X130633102Y-73299500D01*
X92001603Y-73299500D01*
X91998398Y-73299395D01*
X91768318Y-73284314D01*
X91761969Y-73283478D01*
X91537403Y-73238810D01*
X91531219Y-73237153D01*
X91314402Y-73163554D01*
X91308480Y-73161101D01*
X91103129Y-73059833D01*
X91097581Y-73056630D01*
X91001789Y-72992624D01*
X90907202Y-72929423D01*
X90902117Y-72925521D01*
X90729975Y-72774556D01*
X90725443Y-72770024D01*
X90574478Y-72597882D01*
X90570576Y-72592797D01*
X90444937Y-72404764D01*
X90443366Y-72402413D01*
X90440171Y-72396878D01*
X90338896Y-72191515D01*
X90336445Y-72185597D01*
X90262846Y-71968780D01*
X90261191Y-71962606D01*
X90216518Y-71738017D01*
X90215685Y-71731681D01*
X90200605Y-71501601D01*
X90200500Y-71498396D01*
X90200500Y-71031001D01*
X99739500Y-71031001D01*
X99739500Y-71168998D01*
X99766417Y-71304318D01*
X99766420Y-71304329D01*
X99814952Y-71421496D01*
X99819225Y-71431811D01*
X99836709Y-71457977D01*
X99895883Y-71546539D01*
X99993460Y-71644116D01*
X100033359Y-71670775D01*
X100108189Y-71720775D01*
X100235672Y-71773580D01*
X100235678Y-71773581D01*
X100235681Y-71773582D01*
X100371001Y-71800499D01*
X100371007Y-71800500D01*
X100508993Y-71800500D01*
X100644328Y-71773580D01*
X100771811Y-71720775D01*
X100886542Y-71644114D01*
X100984114Y-71546542D01*
X101034258Y-71471495D01*
X101065440Y-71450661D01*
X101102223Y-71457977D01*
X101115742Y-71471496D01*
X101165883Y-71546539D01*
X101263460Y-71644116D01*
X101303359Y-71670775D01*
X101378189Y-71720775D01*
X101505672Y-71773580D01*
X101505678Y-71773581D01*
X101505681Y-71773582D01*
X101641001Y-71800499D01*
X101641007Y-71800500D01*
X101778993Y-71800500D01*
X101914328Y-71773580D01*
X102041811Y-71720775D01*
X102156542Y-71644114D01*
X102254114Y-71546542D01*
X102304258Y-71471495D01*
X102335440Y-71450661D01*
X102372223Y-71457977D01*
X102385742Y-71471496D01*
X102435883Y-71546539D01*
X102533460Y-71644116D01*
X102573359Y-71670775D01*
X102648189Y-71720775D01*
X102775672Y-71773580D01*
X102775678Y-71773581D01*
X102775681Y-71773582D01*
X102911001Y-71800499D01*
X102911007Y-71800500D01*
X103048993Y-71800500D01*
X103184328Y-71773580D01*
X103311811Y-71720775D01*
X103426542Y-71644114D01*
X103524114Y-71546542D01*
X103574258Y-71471495D01*
X103605440Y-71450661D01*
X103642223Y-71457977D01*
X103655742Y-71471496D01*
X103705883Y-71546539D01*
X103803460Y-71644116D01*
X103843359Y-71670775D01*
X103918189Y-71720775D01*
X104045672Y-71773580D01*
X104045678Y-71773581D01*
X104045681Y-71773582D01*
X104181001Y-71800499D01*
X104181007Y-71800500D01*
X104318993Y-71800500D01*
X104454328Y-71773580D01*
X104581811Y-71720775D01*
X104696542Y-71644114D01*
X104794114Y-71546542D01*
X104844258Y-71471495D01*
X104875440Y-71450661D01*
X104912223Y-71457977D01*
X104925742Y-71471496D01*
X104975883Y-71546539D01*
X105073460Y-71644116D01*
X105113359Y-71670775D01*
X105188189Y-71720775D01*
X105315672Y-71773580D01*
X105315678Y-71773581D01*
X105315681Y-71773582D01*
X105451001Y-71800499D01*
X105451007Y-71800500D01*
X105588993Y-71800500D01*
X105724328Y-71773580D01*
X105851811Y-71720775D01*
X105966542Y-71644114D01*
X106008322Y-71602333D01*
X106042967Y-71587983D01*
X106077616Y-71602334D01*
X106091026Y-71627423D01*
X106101132Y-71678229D01*
X106145447Y-71744552D01*
X106172012Y-71762301D01*
X106211769Y-71788867D01*
X106270252Y-71800500D01*
X106270255Y-71800500D01*
X107309745Y-71800500D01*
X107309748Y-71800500D01*
X107368231Y-71788867D01*
X107434552Y-71744552D01*
X107478867Y-71678231D01*
X107490500Y-71619748D01*
X107490500Y-70981001D01*
X114859500Y-70981001D01*
X114859500Y-71118998D01*
X114886417Y-71254318D01*
X114886420Y-71254329D01*
X114939223Y-71381807D01*
X114939225Y-71381811D01*
X114956709Y-71407977D01*
X115015883Y-71496539D01*
X115113460Y-71594116D01*
X115151816Y-71619744D01*
X115228189Y-71670775D01*
X115355672Y-71723580D01*
X115355678Y-71723581D01*
X115355681Y-71723582D01*
X115491001Y-71750499D01*
X115491007Y-71750500D01*
X115628993Y-71750500D01*
X115764328Y-71723580D01*
X115891811Y-71670775D01*
X116006542Y-71594114D01*
X116104114Y-71496542D01*
X116154258Y-71421495D01*
X116185440Y-71400661D01*
X116222223Y-71407977D01*
X116235742Y-71421496D01*
X116285883Y-71496539D01*
X116383460Y-71594116D01*
X116421816Y-71619744D01*
X116498189Y-71670775D01*
X116625672Y-71723580D01*
X116625678Y-71723581D01*
X116625681Y-71723582D01*
X116761001Y-71750499D01*
X116761007Y-71750500D01*
X116898993Y-71750500D01*
X117034328Y-71723580D01*
X117161811Y-71670775D01*
X117276542Y-71594114D01*
X117374114Y-71496542D01*
X117424258Y-71421495D01*
X117455440Y-71400661D01*
X117492223Y-71407977D01*
X117505742Y-71421496D01*
X117555883Y-71496539D01*
X117653460Y-71594116D01*
X117691816Y-71619744D01*
X117768189Y-71670775D01*
X117895672Y-71723580D01*
X117895678Y-71723581D01*
X117895681Y-71723582D01*
X118031001Y-71750499D01*
X118031007Y-71750500D01*
X118168993Y-71750500D01*
X118304328Y-71723580D01*
X118431811Y-71670775D01*
X118546542Y-71594114D01*
X118644114Y-71496542D01*
X118694258Y-71421495D01*
X118725440Y-71400661D01*
X118762223Y-71407977D01*
X118775742Y-71421496D01*
X118825883Y-71496539D01*
X118923460Y-71594116D01*
X118961816Y-71619744D01*
X119038189Y-71670775D01*
X119165672Y-71723580D01*
X119165678Y-71723581D01*
X119165681Y-71723582D01*
X119301001Y-71750499D01*
X119301007Y-71750500D01*
X119438993Y-71750500D01*
X119574328Y-71723580D01*
X119701811Y-71670775D01*
X119816542Y-71594114D01*
X119914114Y-71496542D01*
X119964258Y-71421495D01*
X119995440Y-71400661D01*
X120032223Y-71407977D01*
X120045742Y-71421496D01*
X120095883Y-71496539D01*
X120193460Y-71594116D01*
X120231816Y-71619744D01*
X120308189Y-71670775D01*
X120435672Y-71723580D01*
X120435678Y-71723581D01*
X120435681Y-71723582D01*
X120571001Y-71750499D01*
X120571007Y-71750500D01*
X120708993Y-71750500D01*
X120844328Y-71723580D01*
X120971811Y-71670775D01*
X121086542Y-71594114D01*
X121184114Y-71496542D01*
X121234258Y-71421495D01*
X121265440Y-71400661D01*
X121302223Y-71407977D01*
X121315742Y-71421496D01*
X121365883Y-71496539D01*
X121463460Y-71594116D01*
X121501816Y-71619744D01*
X121578189Y-71670775D01*
X121705672Y-71723580D01*
X121705678Y-71723581D01*
X121705681Y-71723582D01*
X121841001Y-71750499D01*
X121841007Y-71750500D01*
X121978993Y-71750500D01*
X122114328Y-71723580D01*
X122241811Y-71670775D01*
X122356542Y-71594114D01*
X122454114Y-71496542D01*
X122530775Y-71381811D01*
X122583580Y-71254328D01*
X122610500Y-71118993D01*
X122610500Y-70981007D01*
X122602639Y-70941485D01*
X122583582Y-70845681D01*
X122583579Y-70845670D01*
X122551487Y-70768192D01*
X122530775Y-70718189D01*
X122458203Y-70609577D01*
X122454116Y-70603460D01*
X122356539Y-70505883D01*
X122281055Y-70455447D01*
X122241811Y-70429225D01*
X122241808Y-70429223D01*
X122241807Y-70429223D01*
X122114329Y-70376420D01*
X122114318Y-70376417D01*
X121978998Y-70349500D01*
X121978993Y-70349500D01*
X121841007Y-70349500D01*
X121841001Y-70349500D01*
X121705681Y-70376417D01*
X121705670Y-70376420D01*
X121578192Y-70429223D01*
X121463460Y-70505883D01*
X121365883Y-70603460D01*
X121315742Y-70678503D01*
X121284559Y-70699338D01*
X121247777Y-70692022D01*
X121234258Y-70678503D01*
X121184116Y-70603460D01*
X121086539Y-70505883D01*
X121011055Y-70455447D01*
X120971811Y-70429225D01*
X120971808Y-70429223D01*
X120971807Y-70429223D01*
X120844329Y-70376420D01*
X120844318Y-70376417D01*
X120708998Y-70349500D01*
X120708993Y-70349500D01*
X120571007Y-70349500D01*
X120571001Y-70349500D01*
X120435681Y-70376417D01*
X120435670Y-70376420D01*
X120308192Y-70429223D01*
X120193460Y-70505883D01*
X120095883Y-70603460D01*
X120045742Y-70678503D01*
X120014559Y-70699338D01*
X119977777Y-70692022D01*
X119964258Y-70678503D01*
X119914116Y-70603460D01*
X119816539Y-70505883D01*
X119741055Y-70455447D01*
X119701811Y-70429225D01*
X119701808Y-70429223D01*
X119701807Y-70429223D01*
X119574329Y-70376420D01*
X119574318Y-70376417D01*
X119438998Y-70349500D01*
X119438993Y-70349500D01*
X119301007Y-70349500D01*
X119301001Y-70349500D01*
X119165681Y-70376417D01*
X119165670Y-70376420D01*
X119038192Y-70429223D01*
X118923460Y-70505883D01*
X118825883Y-70603460D01*
X118775742Y-70678503D01*
X118744559Y-70699338D01*
X118707777Y-70692022D01*
X118694258Y-70678503D01*
X118644116Y-70603460D01*
X118546539Y-70505883D01*
X118471055Y-70455447D01*
X118431811Y-70429225D01*
X118431808Y-70429223D01*
X118431807Y-70429223D01*
X118304329Y-70376420D01*
X118304318Y-70376417D01*
X118168998Y-70349500D01*
X118168993Y-70349500D01*
X118031007Y-70349500D01*
X118031001Y-70349500D01*
X117895681Y-70376417D01*
X117895670Y-70376420D01*
X117768192Y-70429223D01*
X117653460Y-70505883D01*
X117555883Y-70603460D01*
X117505742Y-70678503D01*
X117474559Y-70699338D01*
X117437777Y-70692022D01*
X117424258Y-70678503D01*
X117374116Y-70603460D01*
X117276539Y-70505883D01*
X117201055Y-70455447D01*
X117161811Y-70429225D01*
X117161808Y-70429223D01*
X117161807Y-70429223D01*
X117034329Y-70376420D01*
X117034318Y-70376417D01*
X116898998Y-70349500D01*
X116898993Y-70349500D01*
X116761007Y-70349500D01*
X116761001Y-70349500D01*
X116625681Y-70376417D01*
X116625670Y-70376420D01*
X116498192Y-70429223D01*
X116383460Y-70505883D01*
X116285883Y-70603460D01*
X116235742Y-70678503D01*
X116204559Y-70699338D01*
X116167777Y-70692022D01*
X116154258Y-70678503D01*
X116104116Y-70603460D01*
X116006539Y-70505883D01*
X115931055Y-70455447D01*
X115891811Y-70429225D01*
X115891808Y-70429223D01*
X115891807Y-70429223D01*
X115764329Y-70376420D01*
X115764318Y-70376417D01*
X115628998Y-70349500D01*
X115628993Y-70349500D01*
X115491007Y-70349500D01*
X115491001Y-70349500D01*
X115355681Y-70376417D01*
X115355670Y-70376420D01*
X115228192Y-70429223D01*
X115113460Y-70505883D01*
X115015883Y-70603460D01*
X114939223Y-70718192D01*
X114886420Y-70845670D01*
X114886417Y-70845681D01*
X114859500Y-70981001D01*
X107490500Y-70981001D01*
X107490500Y-70580252D01*
X107478867Y-70521769D01*
X107450438Y-70479223D01*
X107434552Y-70455447D01*
X107391105Y-70426417D01*
X107368231Y-70411133D01*
X107309748Y-70399500D01*
X106270252Y-70399500D01*
X106211769Y-70411133D01*
X106145447Y-70455447D01*
X106101132Y-70521770D01*
X106091026Y-70572576D01*
X106070191Y-70603758D01*
X106033408Y-70611074D01*
X106008320Y-70597664D01*
X105966539Y-70555883D01*
X105891707Y-70505883D01*
X105851811Y-70479225D01*
X105851808Y-70479223D01*
X105851807Y-70479223D01*
X105724329Y-70426420D01*
X105724318Y-70426417D01*
X105588998Y-70399500D01*
X105588993Y-70399500D01*
X105451007Y-70399500D01*
X105451001Y-70399500D01*
X105315681Y-70426417D01*
X105315670Y-70426420D01*
X105188192Y-70479223D01*
X105073460Y-70555883D01*
X104975883Y-70653460D01*
X104925742Y-70728503D01*
X104894559Y-70749338D01*
X104857777Y-70742022D01*
X104844258Y-70728503D01*
X104794116Y-70653460D01*
X104696539Y-70555883D01*
X104621707Y-70505883D01*
X104581811Y-70479225D01*
X104581808Y-70479223D01*
X104581807Y-70479223D01*
X104454329Y-70426420D01*
X104454318Y-70426417D01*
X104318998Y-70399500D01*
X104318993Y-70399500D01*
X104181007Y-70399500D01*
X104181001Y-70399500D01*
X104045681Y-70426417D01*
X104045670Y-70426420D01*
X103918192Y-70479223D01*
X103803460Y-70555883D01*
X103705883Y-70653460D01*
X103655742Y-70728503D01*
X103624559Y-70749338D01*
X103587777Y-70742022D01*
X103574258Y-70728503D01*
X103524116Y-70653460D01*
X103426539Y-70555883D01*
X103351707Y-70505883D01*
X103311811Y-70479225D01*
X103311808Y-70479223D01*
X103311807Y-70479223D01*
X103184329Y-70426420D01*
X103184318Y-70426417D01*
X103048998Y-70399500D01*
X103048993Y-70399500D01*
X102911007Y-70399500D01*
X102911001Y-70399500D01*
X102775681Y-70426417D01*
X102775670Y-70426420D01*
X102648192Y-70479223D01*
X102533460Y-70555883D01*
X102435883Y-70653460D01*
X102385742Y-70728503D01*
X102354559Y-70749338D01*
X102317777Y-70742022D01*
X102304258Y-70728503D01*
X102254116Y-70653460D01*
X102156539Y-70555883D01*
X102081707Y-70505883D01*
X102041811Y-70479225D01*
X102041808Y-70479223D01*
X102041807Y-70479223D01*
X101914329Y-70426420D01*
X101914318Y-70426417D01*
X101778998Y-70399500D01*
X101778993Y-70399500D01*
X101641007Y-70399500D01*
X101641001Y-70399500D01*
X101505681Y-70426417D01*
X101505670Y-70426420D01*
X101378192Y-70479223D01*
X101263460Y-70555883D01*
X101165883Y-70653460D01*
X101115742Y-70728503D01*
X101084559Y-70749338D01*
X101047777Y-70742022D01*
X101034258Y-70728503D01*
X100984116Y-70653460D01*
X100886539Y-70555883D01*
X100811707Y-70505883D01*
X100771811Y-70479225D01*
X100771808Y-70479223D01*
X100771807Y-70479223D01*
X100644329Y-70426420D01*
X100644318Y-70426417D01*
X100508998Y-70399500D01*
X100508993Y-70399500D01*
X100371007Y-70399500D01*
X100371001Y-70399500D01*
X100235681Y-70426417D01*
X100235670Y-70426420D01*
X100108192Y-70479223D01*
X99993460Y-70555883D01*
X99895883Y-70653460D01*
X99819223Y-70768192D01*
X99766420Y-70895670D01*
X99766417Y-70895681D01*
X99739500Y-71031001D01*
X90200500Y-71031001D01*
X90200500Y-68720939D01*
X93999500Y-68720939D01*
X93999500Y-68879060D01*
X94040422Y-69031782D01*
X94040423Y-69031786D01*
X94119475Y-69168709D01*
X94119478Y-69168713D01*
X94119480Y-69168716D01*
X94231284Y-69280520D01*
X94231287Y-69280521D01*
X94231290Y-69280524D01*
X94368213Y-69359576D01*
X94368215Y-69359576D01*
X94368216Y-69359577D01*
X94389850Y-69365373D01*
X94435738Y-69377670D01*
X94465491Y-69400500D01*
X94470386Y-69437682D01*
X94447556Y-69467435D01*
X94435738Y-69472330D01*
X94368217Y-69490422D01*
X94368213Y-69490423D01*
X94231290Y-69569475D01*
X94231281Y-69569482D01*
X94119482Y-69681281D01*
X94119475Y-69681290D01*
X94040423Y-69818213D01*
X94040422Y-69818217D01*
X93999500Y-69970939D01*
X93999500Y-70129060D01*
X94040422Y-70281782D01*
X94040423Y-70281786D01*
X94119475Y-70418709D01*
X94119478Y-70418713D01*
X94119480Y-70418716D01*
X94231284Y-70530520D01*
X94231287Y-70530521D01*
X94231290Y-70530524D01*
X94368213Y-70609576D01*
X94368215Y-70609576D01*
X94368216Y-70609577D01*
X94488665Y-70641851D01*
X94520939Y-70650499D01*
X94520940Y-70650500D01*
X94520943Y-70650500D01*
X95179060Y-70650500D01*
X95179060Y-70650499D01*
X95331784Y-70609577D01*
X95399233Y-70570636D01*
X95468709Y-70530524D01*
X95468708Y-70530524D01*
X95468716Y-70530520D01*
X95580520Y-70418716D01*
X95659577Y-70281784D01*
X95700499Y-70129060D01*
X95700500Y-70129060D01*
X95700500Y-69970940D01*
X95700499Y-69970939D01*
X95669846Y-69856542D01*
X95659577Y-69818216D01*
X95659576Y-69818215D01*
X95659576Y-69818213D01*
X95580524Y-69681290D01*
X95580521Y-69681287D01*
X95580520Y-69681284D01*
X95468716Y-69569480D01*
X95468713Y-69569478D01*
X95468709Y-69569475D01*
X95331786Y-69490423D01*
X95331782Y-69490422D01*
X95264261Y-69472330D01*
X95234508Y-69449500D01*
X95229613Y-69412318D01*
X95252443Y-69382565D01*
X95264261Y-69377670D01*
X95288515Y-69371170D01*
X95331784Y-69359577D01*
X95363949Y-69341007D01*
X95468709Y-69280524D01*
X95468708Y-69280524D01*
X95468716Y-69280520D01*
X95580520Y-69168716D01*
X95659577Y-69031784D01*
X95700499Y-68879060D01*
X95700500Y-68879060D01*
X95700500Y-68720940D01*
X95700499Y-68720939D01*
X95664487Y-68586542D01*
X95659577Y-68568216D01*
X95659576Y-68568215D01*
X95659576Y-68568213D01*
X95580524Y-68431290D01*
X95580521Y-68431287D01*
X95580520Y-68431284D01*
X95468716Y-68319480D01*
X95468713Y-68319478D01*
X95468709Y-68319475D01*
X95331786Y-68240423D01*
X95331782Y-68240422D01*
X95179060Y-68199500D01*
X95179057Y-68199500D01*
X94520943Y-68199500D01*
X94520940Y-68199500D01*
X94368217Y-68240422D01*
X94368213Y-68240423D01*
X94231290Y-68319475D01*
X94231281Y-68319482D01*
X94119482Y-68431281D01*
X94119475Y-68431290D01*
X94040423Y-68568213D01*
X94040422Y-68568217D01*
X93999500Y-68720939D01*
X90200500Y-68720939D01*
X90200500Y-61068482D01*
X93999500Y-61068482D01*
X93999500Y-61531517D01*
X94014353Y-61625303D01*
X94071945Y-61738335D01*
X94071950Y-61738342D01*
X94161657Y-61828049D01*
X94161664Y-61828054D01*
X94274691Y-61885644D01*
X94274692Y-61885644D01*
X94274696Y-61885646D01*
X94353827Y-61898179D01*
X94385803Y-61917773D01*
X94394558Y-61954240D01*
X94374963Y-61986217D01*
X94370661Y-61989010D01*
X94231290Y-62069475D01*
X94231281Y-62069482D01*
X94119482Y-62181281D01*
X94119475Y-62181290D01*
X94040423Y-62318213D01*
X94040422Y-62318217D01*
X93999500Y-62470939D01*
X93999500Y-62629060D01*
X94040422Y-62781782D01*
X94040423Y-62781786D01*
X94119475Y-62918709D01*
X94119478Y-62918713D01*
X94119480Y-62918716D01*
X94231284Y-63030520D01*
X94231287Y-63030521D01*
X94231290Y-63030524D01*
X94368213Y-63109576D01*
X94368215Y-63109576D01*
X94368216Y-63109577D01*
X94389850Y-63115373D01*
X94435738Y-63127670D01*
X94465491Y-63150500D01*
X94470386Y-63187682D01*
X94447556Y-63217435D01*
X94435738Y-63222330D01*
X94368217Y-63240422D01*
X94368213Y-63240423D01*
X94231290Y-63319475D01*
X94231281Y-63319482D01*
X94119482Y-63431281D01*
X94119475Y-63431290D01*
X94040423Y-63568213D01*
X94040422Y-63568217D01*
X93999500Y-63720939D01*
X93999500Y-63879060D01*
X94040422Y-64031782D01*
X94040423Y-64031786D01*
X94119475Y-64168709D01*
X94119478Y-64168713D01*
X94119480Y-64168716D01*
X94231284Y-64280520D01*
X94231287Y-64280521D01*
X94231290Y-64280524D01*
X94368213Y-64359576D01*
X94368215Y-64359576D01*
X94368216Y-64359577D01*
X94389850Y-64365373D01*
X94435738Y-64377670D01*
X94465491Y-64400500D01*
X94470386Y-64437682D01*
X94447556Y-64467435D01*
X94435738Y-64472330D01*
X94368217Y-64490422D01*
X94368213Y-64490423D01*
X94231290Y-64569475D01*
X94231281Y-64569482D01*
X94119482Y-64681281D01*
X94119475Y-64681290D01*
X94040423Y-64818213D01*
X94040422Y-64818217D01*
X93999500Y-64970939D01*
X93999500Y-65129060D01*
X94040422Y-65281782D01*
X94040423Y-65281786D01*
X94119475Y-65418709D01*
X94119478Y-65418713D01*
X94119480Y-65418716D01*
X94231284Y-65530520D01*
X94231287Y-65530521D01*
X94231290Y-65530524D01*
X94368213Y-65609576D01*
X94368215Y-65609576D01*
X94368216Y-65609577D01*
X94389850Y-65615373D01*
X94435738Y-65627670D01*
X94465491Y-65650500D01*
X94470386Y-65687682D01*
X94447556Y-65717435D01*
X94435738Y-65722330D01*
X94368217Y-65740422D01*
X94368213Y-65740423D01*
X94231290Y-65819475D01*
X94231281Y-65819482D01*
X94119482Y-65931281D01*
X94119475Y-65931290D01*
X94040423Y-66068213D01*
X94040422Y-66068217D01*
X93999500Y-66220939D01*
X93999500Y-66379060D01*
X94040422Y-66531782D01*
X94040423Y-66531786D01*
X94119475Y-66668709D01*
X94119478Y-66668713D01*
X94119480Y-66668716D01*
X94231284Y-66780520D01*
X94231287Y-66780521D01*
X94231290Y-66780524D01*
X94368213Y-66859576D01*
X94368215Y-66859576D01*
X94368216Y-66859577D01*
X94488665Y-66891851D01*
X94520939Y-66900499D01*
X94520940Y-66900500D01*
X94520943Y-66900500D01*
X95179060Y-66900500D01*
X95179060Y-66900499D01*
X95331784Y-66859577D01*
X95468716Y-66780520D01*
X95580520Y-66668716D01*
X95621914Y-66597019D01*
X95659576Y-66531786D01*
X95659576Y-66531785D01*
X95659577Y-66531784D01*
X95700499Y-66379060D01*
X95700500Y-66379060D01*
X95700500Y-66220940D01*
X95700499Y-66220939D01*
X95659577Y-66068217D01*
X95659576Y-66068213D01*
X95580524Y-65931290D01*
X95580521Y-65931287D01*
X95580520Y-65931284D01*
X95468716Y-65819480D01*
X95468713Y-65819478D01*
X95468709Y-65819475D01*
X95331786Y-65740423D01*
X95331782Y-65740422D01*
X95264261Y-65722330D01*
X95234508Y-65699500D01*
X95229613Y-65662318D01*
X95252443Y-65632565D01*
X95264261Y-65627670D01*
X95288515Y-65621170D01*
X95331784Y-65609577D01*
X95468716Y-65530520D01*
X95580520Y-65418716D01*
X95597218Y-65389792D01*
X95659576Y-65281786D01*
X95659576Y-65281785D01*
X95659577Y-65281784D01*
X95700499Y-65129060D01*
X95700500Y-65129060D01*
X95700500Y-64970940D01*
X95700499Y-64970939D01*
X95659577Y-64818217D01*
X95659576Y-64818213D01*
X95580524Y-64681290D01*
X95580521Y-64681287D01*
X95580520Y-64681284D01*
X95468716Y-64569480D01*
X95468713Y-64569478D01*
X95468709Y-64569475D01*
X95331786Y-64490423D01*
X95331782Y-64490422D01*
X95264261Y-64472330D01*
X95234508Y-64449500D01*
X95229613Y-64412318D01*
X95252443Y-64382565D01*
X95264261Y-64377670D01*
X95288515Y-64371170D01*
X95331784Y-64359577D01*
X95468716Y-64280520D01*
X95580520Y-64168716D01*
X95659577Y-64031784D01*
X95700499Y-63879060D01*
X95700500Y-63879060D01*
X95700500Y-63720940D01*
X95700499Y-63720939D01*
X95659577Y-63568217D01*
X95659576Y-63568213D01*
X95580524Y-63431290D01*
X95580521Y-63431287D01*
X95580520Y-63431284D01*
X95468716Y-63319480D01*
X95468713Y-63319478D01*
X95468709Y-63319475D01*
X95331786Y-63240423D01*
X95331782Y-63240422D01*
X95264261Y-63222330D01*
X95234508Y-63199500D01*
X95229613Y-63162318D01*
X95252443Y-63132565D01*
X95264261Y-63127670D01*
X95288515Y-63121170D01*
X95331784Y-63109577D01*
X95468716Y-63030520D01*
X95580520Y-62918716D01*
X95616919Y-62855670D01*
X95659576Y-62781786D01*
X95659576Y-62781785D01*
X95659577Y-62781784D01*
X95700499Y-62629060D01*
X95700500Y-62629060D01*
X95700500Y-62470940D01*
X95700499Y-62470939D01*
X95684378Y-62410775D01*
X95659577Y-62318216D01*
X95659576Y-62318215D01*
X95659576Y-62318213D01*
X95580524Y-62181290D01*
X95580521Y-62181287D01*
X95580520Y-62181284D01*
X95468716Y-62069480D01*
X95468713Y-62069478D01*
X95468709Y-62069475D01*
X95329337Y-61989010D01*
X95306507Y-61959257D01*
X95311402Y-61922075D01*
X95341155Y-61899245D01*
X95346173Y-61898178D01*
X95425304Y-61885646D01*
X95486387Y-61854522D01*
X95538335Y-61828054D01*
X95538337Y-61828052D01*
X95538342Y-61828050D01*
X95628050Y-61738342D01*
X95628054Y-61738335D01*
X95636886Y-61721001D01*
X98049500Y-61721001D01*
X98049500Y-61858998D01*
X98076417Y-61994318D01*
X98076420Y-61994329D01*
X98128165Y-62119252D01*
X98129225Y-62121811D01*
X98160137Y-62168074D01*
X98205883Y-62236539D01*
X98303460Y-62334116D01*
X98378503Y-62384258D01*
X98399338Y-62415441D01*
X98392022Y-62452223D01*
X98378503Y-62465742D01*
X98303460Y-62515883D01*
X98205883Y-62613460D01*
X98129223Y-62728192D01*
X98076420Y-62855670D01*
X98076417Y-62855681D01*
X98049500Y-62991001D01*
X98049500Y-63128998D01*
X98076417Y-63264318D01*
X98076420Y-63264329D01*
X98128165Y-63389252D01*
X98129225Y-63391811D01*
X98155598Y-63431281D01*
X98205883Y-63506539D01*
X98303460Y-63604116D01*
X98378503Y-63654258D01*
X98399338Y-63685441D01*
X98392022Y-63722223D01*
X98378503Y-63735742D01*
X98303460Y-63785883D01*
X98205883Y-63883460D01*
X98129223Y-63998192D01*
X98076420Y-64125670D01*
X98076417Y-64125681D01*
X98049500Y-64261001D01*
X98049500Y-64398998D01*
X98076417Y-64534318D01*
X98076420Y-64534329D01*
X98129223Y-64661807D01*
X98129225Y-64661811D01*
X98160137Y-64708074D01*
X98205883Y-64776539D01*
X98303460Y-64874116D01*
X98378503Y-64924258D01*
X98399338Y-64955441D01*
X98392022Y-64992223D01*
X98378503Y-65005742D01*
X98303460Y-65055883D01*
X98205883Y-65153460D01*
X98129223Y-65268192D01*
X98076420Y-65395670D01*
X98076417Y-65395681D01*
X98049500Y-65531001D01*
X98049500Y-65668998D01*
X98076417Y-65804318D01*
X98076420Y-65804329D01*
X98129009Y-65931290D01*
X98129225Y-65931811D01*
X98160137Y-65978074D01*
X98205883Y-66046539D01*
X98303460Y-66144116D01*
X98378503Y-66194258D01*
X98399338Y-66225441D01*
X98392022Y-66262223D01*
X98378503Y-66275742D01*
X98303460Y-66325883D01*
X98205883Y-66423460D01*
X98129223Y-66538192D01*
X98076420Y-66665670D01*
X98076417Y-66665681D01*
X98049500Y-66801001D01*
X98049500Y-66938998D01*
X98076417Y-67074318D01*
X98076420Y-67074329D01*
X98128165Y-67199252D01*
X98129225Y-67201811D01*
X98160137Y-67248074D01*
X98205883Y-67316539D01*
X98303460Y-67414116D01*
X98378503Y-67464258D01*
X98399338Y-67495441D01*
X98392022Y-67532223D01*
X98378503Y-67545742D01*
X98303460Y-67595883D01*
X98205883Y-67693460D01*
X98129223Y-67808192D01*
X98076420Y-67935670D01*
X98076417Y-67935681D01*
X98049500Y-68071001D01*
X98049500Y-68208998D01*
X98076417Y-68344318D01*
X98076420Y-68344329D01*
X98128165Y-68469252D01*
X98129225Y-68471811D01*
X98160137Y-68518074D01*
X98205883Y-68586539D01*
X98303460Y-68684116D01*
X98378503Y-68734258D01*
X98399338Y-68765441D01*
X98392022Y-68802223D01*
X98378503Y-68815742D01*
X98303460Y-68865883D01*
X98205883Y-68963460D01*
X98129223Y-69078192D01*
X98076420Y-69205670D01*
X98076417Y-69205681D01*
X98049500Y-69341001D01*
X98049500Y-69478998D01*
X98076417Y-69614318D01*
X98076420Y-69614329D01*
X98128165Y-69739252D01*
X98129225Y-69741811D01*
X98160137Y-69788074D01*
X98205883Y-69856539D01*
X98303460Y-69954116D01*
X98328644Y-69970943D01*
X98418189Y-70030775D01*
X98545672Y-70083580D01*
X98545678Y-70083581D01*
X98545681Y-70083582D01*
X98681001Y-70110499D01*
X98681007Y-70110500D01*
X98818993Y-70110500D01*
X98954328Y-70083580D01*
X99020309Y-70056250D01*
X128715900Y-70056250D01*
X128715900Y-70233349D01*
X128750445Y-70407019D01*
X128750448Y-70407030D01*
X128797975Y-70521770D01*
X128818216Y-70570636D01*
X128844235Y-70609576D01*
X128916598Y-70717876D01*
X129041823Y-70843101D01*
X129100399Y-70882240D01*
X129189064Y-70941484D01*
X129352671Y-71009252D01*
X129352677Y-71009253D01*
X129352680Y-71009254D01*
X129526350Y-71043799D01*
X129526353Y-71043799D01*
X129526356Y-71043800D01*
X129526357Y-71043800D01*
X129703443Y-71043800D01*
X129703444Y-71043800D01*
X129877129Y-71009252D01*
X130040736Y-70941484D01*
X130187979Y-70843099D01*
X130313199Y-70717879D01*
X130411584Y-70570636D01*
X130479352Y-70407029D01*
X130513900Y-70233344D01*
X130513900Y-70056256D01*
X130496930Y-69970940D01*
X130479354Y-69882580D01*
X130479351Y-69882569D01*
X130434297Y-69773799D01*
X130411584Y-69718964D01*
X130341662Y-69614318D01*
X130313201Y-69571723D01*
X130187976Y-69446498D01*
X130092292Y-69382565D01*
X130040736Y-69348116D01*
X130040733Y-69348114D01*
X130040732Y-69348114D01*
X129877130Y-69280348D01*
X129877119Y-69280345D01*
X129703449Y-69245800D01*
X129703444Y-69245800D01*
X129526356Y-69245800D01*
X129526350Y-69245800D01*
X129352680Y-69280345D01*
X129352669Y-69280348D01*
X129189067Y-69348114D01*
X129041823Y-69446498D01*
X128916598Y-69571723D01*
X128818214Y-69718967D01*
X128750448Y-69882569D01*
X128750445Y-69882580D01*
X128715900Y-70056250D01*
X99020309Y-70056250D01*
X99081811Y-70030775D01*
X99196542Y-69954114D01*
X99294114Y-69856542D01*
X99370775Y-69741811D01*
X99423580Y-69614328D01*
X99450500Y-69478993D01*
X99450500Y-69341007D01*
X99438469Y-69280524D01*
X99423582Y-69205681D01*
X99423579Y-69205670D01*
X99408269Y-69168709D01*
X99370775Y-69078189D01*
X99324613Y-69009102D01*
X99294116Y-68963460D01*
X99196539Y-68865883D01*
X99121496Y-68815742D01*
X99100661Y-68784560D01*
X99107977Y-68747777D01*
X99121496Y-68734258D01*
X99141424Y-68720943D01*
X99196542Y-68684114D01*
X99294114Y-68586542D01*
X99370775Y-68471811D01*
X99423580Y-68344328D01*
X99450500Y-68208993D01*
X99450500Y-68071007D01*
X99438434Y-68010348D01*
X99423582Y-67935681D01*
X99423579Y-67935670D01*
X99370775Y-67808189D01*
X99324613Y-67739102D01*
X99294116Y-67693460D01*
X99196539Y-67595883D01*
X99134741Y-67554592D01*
X99121495Y-67545741D01*
X99100661Y-67514560D01*
X99107977Y-67477777D01*
X99121496Y-67464258D01*
X99196539Y-67414116D01*
X99196538Y-67414116D01*
X99196542Y-67414114D01*
X99294114Y-67316542D01*
X99370775Y-67201811D01*
X99423580Y-67074328D01*
X99450500Y-66938993D01*
X99450500Y-66801007D01*
X99438434Y-66740348D01*
X99423582Y-66665681D01*
X99423579Y-66665670D01*
X99370775Y-66538189D01*
X99324613Y-66469102D01*
X99294116Y-66423460D01*
X99196539Y-66325883D01*
X99134741Y-66284592D01*
X99121495Y-66275741D01*
X99100661Y-66244560D01*
X99107977Y-66207777D01*
X99121496Y-66194258D01*
X99196539Y-66144116D01*
X99196538Y-66144116D01*
X99196542Y-66144114D01*
X99294114Y-66046542D01*
X99370775Y-65931811D01*
X99423580Y-65804328D01*
X99450500Y-65668993D01*
X99450500Y-65531007D01*
X99438434Y-65470348D01*
X99423582Y-65395681D01*
X99423579Y-65395670D01*
X99370775Y-65268189D01*
X99324613Y-65199102D01*
X99294116Y-65153460D01*
X99196539Y-65055883D01*
X99134741Y-65014592D01*
X99121495Y-65005741D01*
X99100661Y-64974560D01*
X99107977Y-64937777D01*
X99121496Y-64924258D01*
X99196539Y-64874116D01*
X99196538Y-64874116D01*
X99196542Y-64874114D01*
X99294114Y-64776542D01*
X99370775Y-64661811D01*
X99423580Y-64534328D01*
X99450500Y-64398993D01*
X99450500Y-64261007D01*
X99438434Y-64200348D01*
X99423582Y-64125681D01*
X99423579Y-64125670D01*
X99384690Y-64031784D01*
X99370775Y-63998189D01*
X99324613Y-63929102D01*
X99294116Y-63883460D01*
X99196539Y-63785883D01*
X99121496Y-63735742D01*
X99100661Y-63704560D01*
X99107977Y-63667777D01*
X99121496Y-63654258D01*
X99196539Y-63604116D01*
X99196538Y-63604116D01*
X99196542Y-63604114D01*
X99294114Y-63506542D01*
X99370775Y-63391811D01*
X99423580Y-63264328D01*
X99427119Y-63246538D01*
X99427120Y-63246535D01*
X99949500Y-63246535D01*
X99949500Y-63453465D01*
X99976290Y-63588150D01*
X99989869Y-63656417D01*
X99989871Y-63656423D01*
X100043497Y-63785886D01*
X100069059Y-63847598D01*
X100184023Y-64019655D01*
X100330345Y-64165977D01*
X100502402Y-64280941D01*
X100693580Y-64360130D01*
X100896535Y-64400500D01*
X100896538Y-64400500D01*
X101103462Y-64400500D01*
X101103465Y-64400500D01*
X101306420Y-64360130D01*
X101497598Y-64280941D01*
X101669655Y-64165977D01*
X101815977Y-64019655D01*
X101930941Y-63847598D01*
X102010130Y-63656420D01*
X102050500Y-63453465D01*
X102050500Y-63246535D01*
X106449500Y-63246535D01*
X106449500Y-63453465D01*
X106476290Y-63588150D01*
X106489869Y-63656417D01*
X106489871Y-63656423D01*
X106543497Y-63785886D01*
X106569059Y-63847598D01*
X106684023Y-64019655D01*
X106830345Y-64165977D01*
X107002402Y-64280941D01*
X107193580Y-64360130D01*
X107396535Y-64400500D01*
X107396538Y-64400500D01*
X107603462Y-64400500D01*
X107603465Y-64400500D01*
X107806420Y-64360130D01*
X107997598Y-64280941D01*
X108169655Y-64165977D01*
X108315977Y-64019655D01*
X108430941Y-63847598D01*
X108510130Y-63656420D01*
X108550500Y-63453465D01*
X108550500Y-63246535D01*
X108510130Y-63043580D01*
X108430941Y-62852402D01*
X108315977Y-62680345D01*
X108169655Y-62534023D01*
X108142506Y-62515883D01*
X108067466Y-62465743D01*
X107997598Y-62419059D01*
X107997596Y-62419058D01*
X107806423Y-62339871D01*
X107806417Y-62339869D01*
X107697542Y-62318213D01*
X107603465Y-62299500D01*
X107396535Y-62299500D01*
X107302458Y-62318213D01*
X107193582Y-62339869D01*
X107193576Y-62339871D01*
X107002403Y-62419058D01*
X106830345Y-62534022D01*
X106684022Y-62680345D01*
X106569058Y-62852403D01*
X106489871Y-63043576D01*
X106489869Y-63043582D01*
X106472880Y-63128993D01*
X106449500Y-63246535D01*
X102050500Y-63246535D01*
X102010130Y-63043580D01*
X101930941Y-62852402D01*
X101815977Y-62680345D01*
X101669655Y-62534023D01*
X101642506Y-62515883D01*
X101567466Y-62465743D01*
X101497598Y-62419059D01*
X101497596Y-62419058D01*
X101306423Y-62339871D01*
X101306417Y-62339869D01*
X101197542Y-62318213D01*
X101103465Y-62299500D01*
X100896535Y-62299500D01*
X100802458Y-62318213D01*
X100693582Y-62339869D01*
X100693576Y-62339871D01*
X100502403Y-62419058D01*
X100330345Y-62534022D01*
X100184022Y-62680345D01*
X100069058Y-62852403D01*
X99989871Y-63043576D01*
X99989869Y-63043582D01*
X99972880Y-63128993D01*
X99949500Y-63246535D01*
X99427120Y-63246535D01*
X99429500Y-63234569D01*
X99429500Y-63234568D01*
X99450499Y-63128996D01*
X99450500Y-63128993D01*
X99450500Y-62991007D01*
X99450499Y-62991001D01*
X99423582Y-62855681D01*
X99423579Y-62855670D01*
X99422226Y-62852403D01*
X99370775Y-62728189D01*
X99304537Y-62629057D01*
X99294116Y-62613460D01*
X99196539Y-62515883D01*
X99129274Y-62470939D01*
X99121495Y-62465741D01*
X99100661Y-62434560D01*
X99107977Y-62397777D01*
X99121496Y-62384258D01*
X99196539Y-62334116D01*
X99196538Y-62334116D01*
X99196542Y-62334114D01*
X99294114Y-62236542D01*
X99370775Y-62121811D01*
X99423580Y-61994328D01*
X99450500Y-61858993D01*
X99450500Y-61721007D01*
X99450499Y-61721001D01*
X109049500Y-61721001D01*
X109049500Y-61858998D01*
X109076417Y-61994318D01*
X109076420Y-61994329D01*
X109128165Y-62119252D01*
X109129225Y-62121811D01*
X109160137Y-62168074D01*
X109205883Y-62236539D01*
X109303460Y-62334116D01*
X109378503Y-62384258D01*
X109399338Y-62415441D01*
X109392022Y-62452223D01*
X109378503Y-62465742D01*
X109303460Y-62515883D01*
X109205883Y-62613460D01*
X109129223Y-62728192D01*
X109076420Y-62855670D01*
X109076417Y-62855681D01*
X109049500Y-62991001D01*
X109049500Y-63128998D01*
X109076417Y-63264318D01*
X109076420Y-63264329D01*
X109128165Y-63389252D01*
X109129225Y-63391811D01*
X109155598Y-63431281D01*
X109205883Y-63506539D01*
X109303460Y-63604116D01*
X109378503Y-63654258D01*
X109399338Y-63685441D01*
X109392022Y-63722223D01*
X109378503Y-63735742D01*
X109303460Y-63785883D01*
X109205883Y-63883460D01*
X109129223Y-63998192D01*
X109076420Y-64125670D01*
X109076417Y-64125681D01*
X109049500Y-64261001D01*
X109049500Y-64398998D01*
X109076417Y-64534318D01*
X109076420Y-64534329D01*
X109129223Y-64661807D01*
X109129225Y-64661811D01*
X109160137Y-64708074D01*
X109205883Y-64776539D01*
X109303460Y-64874116D01*
X109378503Y-64924258D01*
X109399338Y-64955441D01*
X109392022Y-64992223D01*
X109378503Y-65005742D01*
X109303460Y-65055883D01*
X109205883Y-65153460D01*
X109129223Y-65268192D01*
X109076420Y-65395670D01*
X109076417Y-65395681D01*
X109049500Y-65531001D01*
X109049500Y-65668998D01*
X109076417Y-65804318D01*
X109076420Y-65804329D01*
X109129009Y-65931290D01*
X109129225Y-65931811D01*
X109160137Y-65978074D01*
X109205883Y-66046539D01*
X109303460Y-66144116D01*
X109378503Y-66194258D01*
X109399338Y-66225441D01*
X109392022Y-66262223D01*
X109378503Y-66275742D01*
X109303460Y-66325883D01*
X109205883Y-66423460D01*
X109129223Y-66538192D01*
X109076420Y-66665670D01*
X109076417Y-66665681D01*
X109049500Y-66801001D01*
X109049500Y-66938998D01*
X109076417Y-67074318D01*
X109076420Y-67074329D01*
X109128165Y-67199252D01*
X109129225Y-67201811D01*
X109160137Y-67248074D01*
X109205883Y-67316539D01*
X109303460Y-67414116D01*
X109378503Y-67464258D01*
X109399338Y-67495441D01*
X109392022Y-67532223D01*
X109378503Y-67545742D01*
X109303460Y-67595883D01*
X109205883Y-67693460D01*
X109129223Y-67808192D01*
X109076420Y-67935670D01*
X109076417Y-67935681D01*
X109049500Y-68071001D01*
X109049500Y-68208998D01*
X109076417Y-68344318D01*
X109076420Y-68344329D01*
X109128165Y-68469252D01*
X109129225Y-68471811D01*
X109160137Y-68518074D01*
X109205883Y-68586539D01*
X109303460Y-68684116D01*
X109349102Y-68714613D01*
X109418189Y-68760775D01*
X109545672Y-68813580D01*
X109545678Y-68813581D01*
X109545681Y-68813582D01*
X109681001Y-68840499D01*
X109681007Y-68840500D01*
X109818993Y-68840500D01*
X109954328Y-68813580D01*
X110020309Y-68786250D01*
X126175900Y-68786250D01*
X126175900Y-68963349D01*
X126210445Y-69137019D01*
X126210448Y-69137030D01*
X126269885Y-69280524D01*
X126278216Y-69300636D01*
X126305187Y-69341001D01*
X126376598Y-69447876D01*
X126501823Y-69573101D01*
X126560399Y-69612240D01*
X126649064Y-69671484D01*
X126812671Y-69739252D01*
X126812677Y-69739253D01*
X126812680Y-69739254D01*
X126986350Y-69773799D01*
X126986353Y-69773799D01*
X126986356Y-69773800D01*
X126986357Y-69773800D01*
X127163443Y-69773800D01*
X127163444Y-69773800D01*
X127337129Y-69739252D01*
X127500736Y-69671484D01*
X127647979Y-69573099D01*
X127773199Y-69447879D01*
X127871584Y-69300636D01*
X127939352Y-69137029D01*
X127973900Y-68963344D01*
X127973900Y-68786256D01*
X127963557Y-68734258D01*
X127939354Y-68612580D01*
X127939351Y-68612569D01*
X127920980Y-68568217D01*
X127871584Y-68448964D01*
X127785067Y-68319482D01*
X127773201Y-68301723D01*
X127647976Y-68176498D01*
X127560110Y-68117789D01*
X127500736Y-68078116D01*
X127500733Y-68078114D01*
X127500732Y-68078114D01*
X127337130Y-68010348D01*
X127337119Y-68010345D01*
X127163449Y-67975800D01*
X127163444Y-67975800D01*
X126986356Y-67975800D01*
X126986350Y-67975800D01*
X126812680Y-68010345D01*
X126812669Y-68010348D01*
X126649067Y-68078114D01*
X126501823Y-68176498D01*
X126376598Y-68301723D01*
X126278214Y-68448967D01*
X126210448Y-68612569D01*
X126210445Y-68612580D01*
X126175900Y-68786250D01*
X110020309Y-68786250D01*
X110081811Y-68760775D01*
X110196542Y-68684114D01*
X110294114Y-68586542D01*
X110370775Y-68471811D01*
X110423580Y-68344328D01*
X110450500Y-68208993D01*
X110450500Y-68071007D01*
X110438434Y-68010348D01*
X110423582Y-67935681D01*
X110423579Y-67935670D01*
X110370775Y-67808189D01*
X110324613Y-67739102D01*
X110294116Y-67693460D01*
X110196539Y-67595883D01*
X110134741Y-67554592D01*
X110121496Y-67545741D01*
X110101790Y-67516250D01*
X128715900Y-67516250D01*
X128715900Y-67693349D01*
X128750445Y-67867019D01*
X128750448Y-67867030D01*
X128778884Y-67935681D01*
X128818216Y-68030636D01*
X128845187Y-68071001D01*
X128916598Y-68177876D01*
X129041823Y-68303101D01*
X129100399Y-68342240D01*
X129189064Y-68401484D01*
X129352671Y-68469252D01*
X129352677Y-68469253D01*
X129352680Y-68469254D01*
X129526350Y-68503799D01*
X129526353Y-68503799D01*
X129526356Y-68503800D01*
X129526357Y-68503800D01*
X129703443Y-68503800D01*
X129703444Y-68503800D01*
X129877129Y-68469252D01*
X130040736Y-68401484D01*
X130187979Y-68303099D01*
X130313199Y-68177879D01*
X130411584Y-68030636D01*
X130479352Y-67867029D01*
X130513900Y-67693344D01*
X130513900Y-67516256D01*
X130479352Y-67342571D01*
X130411584Y-67178964D01*
X130341662Y-67074318D01*
X130313201Y-67031723D01*
X130187976Y-66906498D01*
X130100110Y-66847789D01*
X130040736Y-66808116D01*
X130040733Y-66808114D01*
X130040732Y-66808114D01*
X129877130Y-66740348D01*
X129877119Y-66740345D01*
X129703449Y-66705800D01*
X129703444Y-66705800D01*
X129526356Y-66705800D01*
X129526350Y-66705800D01*
X129352680Y-66740345D01*
X129352669Y-66740348D01*
X129189067Y-66808114D01*
X129041823Y-66906498D01*
X128916598Y-67031723D01*
X128818214Y-67178967D01*
X128750448Y-67342569D01*
X128750445Y-67342580D01*
X128715900Y-67516250D01*
X110101790Y-67516250D01*
X110100661Y-67514560D01*
X110107976Y-67477778D01*
X110121496Y-67464258D01*
X110196539Y-67414116D01*
X110196538Y-67414116D01*
X110196542Y-67414114D01*
X110294114Y-67316542D01*
X110370775Y-67201811D01*
X110423580Y-67074328D01*
X110450500Y-66938993D01*
X110450500Y-66801007D01*
X110438434Y-66740348D01*
X110423582Y-66665681D01*
X110423579Y-66665670D01*
X110370775Y-66538189D01*
X110324613Y-66469102D01*
X110294116Y-66423460D01*
X110196539Y-66325883D01*
X110134741Y-66284592D01*
X110121496Y-66275741D01*
X110101790Y-66246250D01*
X126175900Y-66246250D01*
X126175900Y-66423349D01*
X126210445Y-66597019D01*
X126210448Y-66597030D01*
X126240142Y-66668718D01*
X126278216Y-66760636D01*
X126291505Y-66780524D01*
X126376598Y-66907876D01*
X126501823Y-67033101D01*
X126560399Y-67072240D01*
X126649064Y-67131484D01*
X126812671Y-67199252D01*
X126812677Y-67199253D01*
X126812680Y-67199254D01*
X126986350Y-67233799D01*
X126986353Y-67233799D01*
X126986356Y-67233800D01*
X126986357Y-67233800D01*
X127163443Y-67233800D01*
X127163444Y-67233800D01*
X127337129Y-67199252D01*
X127500736Y-67131484D01*
X127647979Y-67033099D01*
X127773199Y-66907879D01*
X127871584Y-66760636D01*
X127939352Y-66597029D01*
X127973900Y-66423344D01*
X127973900Y-66246256D01*
X127968865Y-66220943D01*
X127939354Y-66072580D01*
X127939351Y-66072569D01*
X127871584Y-65908964D01*
X127801662Y-65804318D01*
X127773201Y-65761723D01*
X127647976Y-65636498D01*
X127560110Y-65577789D01*
X127500736Y-65538116D01*
X127500733Y-65538114D01*
X127500732Y-65538114D01*
X127337130Y-65470348D01*
X127337119Y-65470345D01*
X127163449Y-65435800D01*
X127163444Y-65435800D01*
X126986356Y-65435800D01*
X126986350Y-65435800D01*
X126812680Y-65470345D01*
X126812669Y-65470348D01*
X126649067Y-65538114D01*
X126501823Y-65636498D01*
X126376598Y-65761723D01*
X126278214Y-65908967D01*
X126210448Y-66072569D01*
X126210445Y-66072580D01*
X126175900Y-66246250D01*
X110101790Y-66246250D01*
X110100661Y-66244560D01*
X110107976Y-66207778D01*
X110121496Y-66194258D01*
X110196539Y-66144116D01*
X110196538Y-66144116D01*
X110196542Y-66144114D01*
X110294114Y-66046542D01*
X110370775Y-65931811D01*
X110423580Y-65804328D01*
X110450500Y-65668993D01*
X110450500Y-65531007D01*
X110438434Y-65470348D01*
X110423582Y-65395681D01*
X110423579Y-65395670D01*
X110370775Y-65268189D01*
X110324613Y-65199102D01*
X110294116Y-65153460D01*
X110196539Y-65055883D01*
X110134741Y-65014592D01*
X110121496Y-65005741D01*
X110101790Y-64976250D01*
X128715900Y-64976250D01*
X128715900Y-65153349D01*
X128750445Y-65327019D01*
X128750448Y-65327030D01*
X128795502Y-65435800D01*
X128818216Y-65490636D01*
X128845187Y-65531001D01*
X128916598Y-65637876D01*
X129041823Y-65763101D01*
X129100399Y-65802240D01*
X129189064Y-65861484D01*
X129352671Y-65929252D01*
X129352677Y-65929253D01*
X129352680Y-65929254D01*
X129526350Y-65963799D01*
X129526353Y-65963799D01*
X129526356Y-65963800D01*
X129526357Y-65963800D01*
X129703443Y-65963800D01*
X129703444Y-65963800D01*
X129877129Y-65929252D01*
X130040736Y-65861484D01*
X130187979Y-65763099D01*
X130313199Y-65637879D01*
X130411584Y-65490636D01*
X130479352Y-65327029D01*
X130513900Y-65153344D01*
X130513900Y-64976256D01*
X130512843Y-64970940D01*
X130479354Y-64802580D01*
X130479351Y-64802569D01*
X130429112Y-64681281D01*
X130411584Y-64638964D01*
X130341662Y-64534318D01*
X130313201Y-64491723D01*
X130187976Y-64366498D01*
X130100110Y-64307789D01*
X130040736Y-64268116D01*
X130040733Y-64268114D01*
X130040732Y-64268114D01*
X129877130Y-64200348D01*
X129877119Y-64200345D01*
X129703449Y-64165800D01*
X129703444Y-64165800D01*
X129526356Y-64165800D01*
X129526350Y-64165800D01*
X129352680Y-64200345D01*
X129352669Y-64200348D01*
X129189067Y-64268114D01*
X129041823Y-64366498D01*
X128916598Y-64491723D01*
X128818214Y-64638967D01*
X128750448Y-64802569D01*
X128750445Y-64802580D01*
X128715900Y-64976250D01*
X110101790Y-64976250D01*
X110100661Y-64974560D01*
X110107976Y-64937778D01*
X110121496Y-64924258D01*
X110196539Y-64874116D01*
X110196538Y-64874116D01*
X110196542Y-64874114D01*
X110294114Y-64776542D01*
X110370775Y-64661811D01*
X110423580Y-64534328D01*
X110450500Y-64398993D01*
X110450500Y-64261007D01*
X110438434Y-64200348D01*
X110423582Y-64125681D01*
X110423579Y-64125670D01*
X110384690Y-64031784D01*
X110370775Y-63998189D01*
X110324613Y-63929102D01*
X110294116Y-63883460D01*
X110196539Y-63785883D01*
X110121496Y-63735742D01*
X110100661Y-63704560D01*
X110107977Y-63667777D01*
X110121496Y-63654258D01*
X110196539Y-63604116D01*
X110196538Y-63604116D01*
X110196542Y-63604114D01*
X110294114Y-63506542D01*
X110370775Y-63391811D01*
X110423580Y-63264328D01*
X110450500Y-63128993D01*
X110450500Y-62991007D01*
X110436121Y-62918718D01*
X110423582Y-62855681D01*
X110423579Y-62855670D01*
X110422226Y-62852403D01*
X110370775Y-62728189D01*
X110304537Y-62629057D01*
X110294116Y-62613460D01*
X110196539Y-62515883D01*
X110134741Y-62474592D01*
X110129280Y-62470943D01*
X110121496Y-62465741D01*
X110101790Y-62436250D01*
X128715900Y-62436250D01*
X128715900Y-62613349D01*
X128750445Y-62787019D01*
X128750448Y-62787030D01*
X128778884Y-62855681D01*
X128818216Y-62950636D01*
X128845187Y-62991001D01*
X128916598Y-63097876D01*
X129041823Y-63223101D01*
X129100399Y-63262240D01*
X129189064Y-63321484D01*
X129352671Y-63389252D01*
X129352677Y-63389253D01*
X129352680Y-63389254D01*
X129526350Y-63423799D01*
X129526353Y-63423799D01*
X129526356Y-63423800D01*
X129526357Y-63423800D01*
X129703443Y-63423800D01*
X129703444Y-63423800D01*
X129877129Y-63389252D01*
X130040736Y-63321484D01*
X130187979Y-63223099D01*
X130313199Y-63097879D01*
X130411584Y-62950636D01*
X130479352Y-62787029D01*
X130513900Y-62613344D01*
X130513900Y-62436256D01*
X130511661Y-62425000D01*
X130479354Y-62262580D01*
X130479351Y-62262569D01*
X130445682Y-62181284D01*
X130411584Y-62098964D01*
X130336249Y-61986217D01*
X130313201Y-61951723D01*
X130187976Y-61826498D01*
X130100110Y-61767789D01*
X130040736Y-61728116D01*
X130040733Y-61728114D01*
X130040732Y-61728114D01*
X129877130Y-61660348D01*
X129877119Y-61660345D01*
X129703449Y-61625800D01*
X129703444Y-61625800D01*
X129526356Y-61625800D01*
X129526350Y-61625800D01*
X129352680Y-61660345D01*
X129352669Y-61660348D01*
X129189067Y-61728114D01*
X129041823Y-61826498D01*
X128916598Y-61951723D01*
X128818214Y-62098967D01*
X128750448Y-62262569D01*
X128750445Y-62262580D01*
X128715900Y-62436250D01*
X110101790Y-62436250D01*
X110100661Y-62434560D01*
X110107976Y-62397778D01*
X110121496Y-62384258D01*
X110196539Y-62334116D01*
X110196538Y-62334116D01*
X110196542Y-62334114D01*
X110294114Y-62236542D01*
X110370775Y-62121811D01*
X110423580Y-61994328D01*
X110450500Y-61858993D01*
X110450500Y-61721007D01*
X110438434Y-61660348D01*
X110423582Y-61585681D01*
X110423579Y-61585670D01*
X110401148Y-61531517D01*
X110370775Y-61458189D01*
X110315844Y-61375980D01*
X110308529Y-61339198D01*
X110329364Y-61308016D01*
X110366147Y-61300700D01*
X110369269Y-61301428D01*
X110459105Y-61325500D01*
X110459108Y-61325500D01*
X110590895Y-61325500D01*
X110590895Y-61325499D01*
X110718186Y-61291392D01*
X110832314Y-61225500D01*
X110891564Y-61166250D01*
X126175900Y-61166250D01*
X126175900Y-61343349D01*
X126210445Y-61517019D01*
X126210448Y-61517030D01*
X126255298Y-61625307D01*
X126278216Y-61680636D01*
X126305187Y-61721001D01*
X126376598Y-61827876D01*
X126501823Y-61953101D01*
X126551385Y-61986217D01*
X126649064Y-62051484D01*
X126812671Y-62119252D01*
X126812677Y-62119253D01*
X126812680Y-62119254D01*
X126986350Y-62153799D01*
X126986353Y-62153799D01*
X126986356Y-62153800D01*
X126986357Y-62153800D01*
X127163443Y-62153800D01*
X127163444Y-62153800D01*
X127337129Y-62119252D01*
X127500736Y-62051484D01*
X127647979Y-61953099D01*
X127773199Y-61827879D01*
X127871584Y-61680636D01*
X127939352Y-61517029D01*
X127973900Y-61343344D01*
X127973900Y-61166256D01*
X127963987Y-61116420D01*
X127939354Y-60992580D01*
X127939351Y-60992569D01*
X127931945Y-60974690D01*
X127871584Y-60828964D01*
X127801170Y-60723582D01*
X127773201Y-60681723D01*
X127647976Y-60556498D01*
X127558240Y-60496539D01*
X127500736Y-60458116D01*
X127500733Y-60458114D01*
X127500732Y-60458114D01*
X127337130Y-60390348D01*
X127337119Y-60390345D01*
X127163449Y-60355800D01*
X127163444Y-60355800D01*
X126986356Y-60355800D01*
X126986350Y-60355800D01*
X126812680Y-60390345D01*
X126812669Y-60390348D01*
X126649067Y-60458114D01*
X126501823Y-60556498D01*
X126376598Y-60681723D01*
X126278214Y-60828967D01*
X126210448Y-60992569D01*
X126210445Y-60992580D01*
X126175900Y-61166250D01*
X110891564Y-61166250D01*
X110925500Y-61132314D01*
X110991392Y-61018186D01*
X111025499Y-60890895D01*
X111025500Y-60890895D01*
X111025500Y-60759105D01*
X111025499Y-60759104D01*
X111013508Y-60714353D01*
X110991392Y-60631814D01*
X110991391Y-60631813D01*
X110991391Y-60631811D01*
X110925499Y-60517685D01*
X110832314Y-60424500D01*
X110718188Y-60358608D01*
X110718184Y-60358607D01*
X110590895Y-60324500D01*
X110590892Y-60324500D01*
X110459108Y-60324500D01*
X110459105Y-60324500D01*
X110331815Y-60358607D01*
X110331811Y-60358608D01*
X110217685Y-60424500D01*
X110217685Y-60424501D01*
X110124501Y-60517685D01*
X110124500Y-60517685D01*
X110058608Y-60631811D01*
X110058607Y-60631815D01*
X110024500Y-60759104D01*
X110024500Y-60890895D01*
X110058607Y-61018184D01*
X110058608Y-61018188D01*
X110093752Y-61079057D01*
X110098647Y-61116239D01*
X110075817Y-61145992D01*
X110038635Y-61150887D01*
X110032566Y-61148827D01*
X109954329Y-61116420D01*
X109954318Y-61116417D01*
X109818998Y-61089500D01*
X109818993Y-61089500D01*
X109681007Y-61089500D01*
X109681001Y-61089500D01*
X109545681Y-61116417D01*
X109545670Y-61116420D01*
X109418192Y-61169223D01*
X109303460Y-61245883D01*
X109205883Y-61343460D01*
X109129223Y-61458192D01*
X109076420Y-61585670D01*
X109076417Y-61585681D01*
X109049500Y-61721001D01*
X99450499Y-61721001D01*
X99438434Y-61660348D01*
X99423582Y-61585681D01*
X99423579Y-61585670D01*
X99401148Y-61531517D01*
X99370775Y-61458189D01*
X99315845Y-61375981D01*
X99294116Y-61343460D01*
X99196539Y-61245883D01*
X99128074Y-61200137D01*
X99081811Y-61169225D01*
X99081808Y-61169223D01*
X99081807Y-61169223D01*
X98954329Y-61116420D01*
X98954318Y-61116417D01*
X98818998Y-61089500D01*
X98818993Y-61089500D01*
X98681007Y-61089500D01*
X98681001Y-61089500D01*
X98545681Y-61116417D01*
X98545670Y-61116420D01*
X98418192Y-61169223D01*
X98303460Y-61245883D01*
X98205883Y-61343460D01*
X98129223Y-61458192D01*
X98076420Y-61585670D01*
X98076417Y-61585681D01*
X98049500Y-61721001D01*
X95636886Y-61721001D01*
X95649445Y-61696354D01*
X95649445Y-61696353D01*
X95685644Y-61625309D01*
X95685644Y-61625307D01*
X95685646Y-61625304D01*
X95700500Y-61531519D01*
X95700499Y-61068482D01*
X95685646Y-60974696D01*
X95685643Y-60974690D01*
X95628054Y-60861664D01*
X95628049Y-60861657D01*
X95538342Y-60771950D01*
X95538335Y-60771945D01*
X95425308Y-60714355D01*
X95425305Y-60714354D01*
X95425304Y-60714354D01*
X95331519Y-60699500D01*
X95331517Y-60699500D01*
X94368482Y-60699500D01*
X94274696Y-60714353D01*
X94161664Y-60771945D01*
X94161657Y-60771950D01*
X94071950Y-60861657D01*
X94071945Y-60861664D01*
X94014355Y-60974690D01*
X94014355Y-60974692D01*
X94014354Y-60974694D01*
X94014354Y-60974696D01*
X94007466Y-61018184D01*
X93999500Y-61068482D01*
X90200500Y-61068482D01*
X90200500Y-60031001D01*
X99739500Y-60031001D01*
X99739500Y-60168998D01*
X99766417Y-60304318D01*
X99766420Y-60304329D01*
X99816197Y-60424501D01*
X99819225Y-60431811D01*
X99845742Y-60471496D01*
X99895883Y-60546539D01*
X99993460Y-60644116D01*
X100033359Y-60670775D01*
X100108189Y-60720775D01*
X100235672Y-60773580D01*
X100235678Y-60773581D01*
X100235681Y-60773582D01*
X100371001Y-60800499D01*
X100371007Y-60800500D01*
X100508993Y-60800500D01*
X100644328Y-60773580D01*
X100771811Y-60720775D01*
X100886542Y-60644114D01*
X100984114Y-60546542D01*
X101034258Y-60471495D01*
X101065440Y-60450661D01*
X101102223Y-60457977D01*
X101115742Y-60471496D01*
X101165883Y-60546539D01*
X101263460Y-60644116D01*
X101303359Y-60670775D01*
X101378189Y-60720775D01*
X101505672Y-60773580D01*
X101505678Y-60773581D01*
X101505681Y-60773582D01*
X101641001Y-60800499D01*
X101641007Y-60800500D01*
X101778993Y-60800500D01*
X101914328Y-60773580D01*
X102041811Y-60720775D01*
X102156542Y-60644114D01*
X102254114Y-60546542D01*
X102304258Y-60471495D01*
X102335440Y-60450661D01*
X102372223Y-60457977D01*
X102385742Y-60471496D01*
X102435883Y-60546539D01*
X102533460Y-60644116D01*
X102573359Y-60670775D01*
X102648189Y-60720775D01*
X102775672Y-60773580D01*
X102775678Y-60773581D01*
X102775681Y-60773582D01*
X102911001Y-60800499D01*
X102911007Y-60800500D01*
X103048993Y-60800500D01*
X103184328Y-60773580D01*
X103311811Y-60720775D01*
X103426542Y-60644114D01*
X103524114Y-60546542D01*
X103574258Y-60471495D01*
X103605440Y-60450661D01*
X103642223Y-60457977D01*
X103655742Y-60471496D01*
X103705883Y-60546539D01*
X103803460Y-60644116D01*
X103843359Y-60670775D01*
X103918189Y-60720775D01*
X104045672Y-60773580D01*
X104045678Y-60773581D01*
X104045681Y-60773582D01*
X104181001Y-60800499D01*
X104181007Y-60800500D01*
X104318993Y-60800500D01*
X104454328Y-60773580D01*
X104581811Y-60720775D01*
X104696542Y-60644114D01*
X104794114Y-60546542D01*
X104844258Y-60471495D01*
X104875440Y-60450661D01*
X104912223Y-60457977D01*
X104925742Y-60471496D01*
X104975883Y-60546539D01*
X105073460Y-60644116D01*
X105113359Y-60670775D01*
X105188189Y-60720775D01*
X105315672Y-60773580D01*
X105315678Y-60773581D01*
X105315681Y-60773582D01*
X105451001Y-60800499D01*
X105451007Y-60800500D01*
X105588993Y-60800500D01*
X105724328Y-60773580D01*
X105851811Y-60720775D01*
X105966542Y-60644114D01*
X106064114Y-60546542D01*
X106114258Y-60471495D01*
X106145440Y-60450661D01*
X106182223Y-60457977D01*
X106195742Y-60471496D01*
X106245883Y-60546539D01*
X106343460Y-60644116D01*
X106383359Y-60670775D01*
X106458189Y-60720775D01*
X106585672Y-60773580D01*
X106585678Y-60773581D01*
X106585681Y-60773582D01*
X106721001Y-60800499D01*
X106721007Y-60800500D01*
X106858993Y-60800500D01*
X106994328Y-60773580D01*
X107121811Y-60720775D01*
X107236542Y-60644114D01*
X107334114Y-60546542D01*
X107384258Y-60471495D01*
X107415440Y-60450661D01*
X107452223Y-60457977D01*
X107465742Y-60471496D01*
X107515883Y-60546539D01*
X107613460Y-60644116D01*
X107653359Y-60670775D01*
X107728189Y-60720775D01*
X107855672Y-60773580D01*
X107855678Y-60773581D01*
X107855681Y-60773582D01*
X107991001Y-60800499D01*
X107991007Y-60800500D01*
X108128993Y-60800500D01*
X108264328Y-60773580D01*
X108391811Y-60720775D01*
X108506542Y-60644114D01*
X108604114Y-60546542D01*
X108680775Y-60431811D01*
X108733580Y-60304328D01*
X108760500Y-60168993D01*
X108760500Y-60031007D01*
X108751977Y-59988159D01*
X108751977Y-59988156D01*
X108750554Y-59981001D01*
X114859500Y-59981001D01*
X114859500Y-60118998D01*
X114886417Y-60254318D01*
X114886420Y-60254329D01*
X114929614Y-60358608D01*
X114939225Y-60381811D01*
X114956709Y-60407977D01*
X115015883Y-60496539D01*
X115113460Y-60594116D01*
X115159102Y-60624613D01*
X115228189Y-60670775D01*
X115355672Y-60723580D01*
X115355678Y-60723581D01*
X115355681Y-60723582D01*
X115491001Y-60750499D01*
X115491007Y-60750500D01*
X115628993Y-60750500D01*
X115764328Y-60723580D01*
X115891811Y-60670775D01*
X116006542Y-60594114D01*
X116104114Y-60496542D01*
X116154258Y-60421495D01*
X116185440Y-60400661D01*
X116222223Y-60407977D01*
X116235742Y-60421496D01*
X116285883Y-60496539D01*
X116383460Y-60594116D01*
X116429102Y-60624613D01*
X116498189Y-60670775D01*
X116625672Y-60723580D01*
X116625678Y-60723581D01*
X116625681Y-60723582D01*
X116761001Y-60750499D01*
X116761007Y-60750500D01*
X116898993Y-60750500D01*
X117034328Y-60723580D01*
X117161811Y-60670775D01*
X117276542Y-60594114D01*
X117374114Y-60496542D01*
X117424258Y-60421495D01*
X117455440Y-60400661D01*
X117492223Y-60407977D01*
X117505742Y-60421496D01*
X117555883Y-60496539D01*
X117653460Y-60594116D01*
X117699102Y-60624613D01*
X117768189Y-60670775D01*
X117895672Y-60723580D01*
X117895678Y-60723581D01*
X117895681Y-60723582D01*
X118031001Y-60750499D01*
X118031007Y-60750500D01*
X118168993Y-60750500D01*
X118304328Y-60723580D01*
X118431811Y-60670775D01*
X118546542Y-60594114D01*
X118644114Y-60496542D01*
X118694258Y-60421495D01*
X118725440Y-60400661D01*
X118762223Y-60407977D01*
X118775742Y-60421496D01*
X118825883Y-60496539D01*
X118923460Y-60594116D01*
X118969102Y-60624613D01*
X119038189Y-60670775D01*
X119165672Y-60723580D01*
X119165678Y-60723581D01*
X119165681Y-60723582D01*
X119301001Y-60750499D01*
X119301007Y-60750500D01*
X119438993Y-60750500D01*
X119574328Y-60723580D01*
X119701811Y-60670775D01*
X119816542Y-60594114D01*
X119914114Y-60496542D01*
X119964258Y-60421495D01*
X119995440Y-60400661D01*
X120032223Y-60407977D01*
X120045742Y-60421496D01*
X120095883Y-60496539D01*
X120193460Y-60594116D01*
X120239102Y-60624613D01*
X120308189Y-60670775D01*
X120435672Y-60723580D01*
X120435678Y-60723581D01*
X120435681Y-60723582D01*
X120571001Y-60750499D01*
X120571007Y-60750500D01*
X120708993Y-60750500D01*
X120844328Y-60723580D01*
X120971811Y-60670775D01*
X121086542Y-60594114D01*
X121184114Y-60496542D01*
X121234258Y-60421495D01*
X121265440Y-60400661D01*
X121302223Y-60407977D01*
X121315742Y-60421496D01*
X121365883Y-60496539D01*
X121463460Y-60594116D01*
X121509102Y-60624613D01*
X121578189Y-60670775D01*
X121705672Y-60723580D01*
X121705678Y-60723581D01*
X121705681Y-60723582D01*
X121841001Y-60750499D01*
X121841007Y-60750500D01*
X121978993Y-60750500D01*
X122114328Y-60723580D01*
X122241811Y-60670775D01*
X122356542Y-60594114D01*
X122454114Y-60496542D01*
X122530775Y-60381811D01*
X122583580Y-60254328D01*
X122610500Y-60118993D01*
X122610500Y-59981007D01*
X122610499Y-59981001D01*
X122583582Y-59845681D01*
X122583579Y-59845670D01*
X122551487Y-59768192D01*
X122530775Y-59718189D01*
X122484613Y-59649102D01*
X122454116Y-59603460D01*
X122356539Y-59505883D01*
X122288074Y-59460137D01*
X122241811Y-59429225D01*
X122241808Y-59429223D01*
X122241807Y-59429223D01*
X122114329Y-59376420D01*
X122114318Y-59376417D01*
X121978998Y-59349500D01*
X121978993Y-59349500D01*
X121841007Y-59349500D01*
X121841001Y-59349500D01*
X121705681Y-59376417D01*
X121705670Y-59376420D01*
X121578192Y-59429223D01*
X121463460Y-59505883D01*
X121365883Y-59603460D01*
X121315742Y-59678503D01*
X121284559Y-59699338D01*
X121247777Y-59692022D01*
X121234258Y-59678503D01*
X121184116Y-59603460D01*
X121086539Y-59505883D01*
X121018074Y-59460137D01*
X120971811Y-59429225D01*
X120971808Y-59429223D01*
X120971807Y-59429223D01*
X120844329Y-59376420D01*
X120844318Y-59376417D01*
X120708998Y-59349500D01*
X120708993Y-59349500D01*
X120571007Y-59349500D01*
X120571001Y-59349500D01*
X120435681Y-59376417D01*
X120435670Y-59376420D01*
X120308192Y-59429223D01*
X120193460Y-59505883D01*
X120095883Y-59603460D01*
X120045742Y-59678503D01*
X120014559Y-59699338D01*
X119977777Y-59692022D01*
X119964258Y-59678503D01*
X119914116Y-59603460D01*
X119816539Y-59505883D01*
X119748074Y-59460137D01*
X119701811Y-59429225D01*
X119701808Y-59429223D01*
X119701807Y-59429223D01*
X119574329Y-59376420D01*
X119574318Y-59376417D01*
X119438998Y-59349500D01*
X119438993Y-59349500D01*
X119301007Y-59349500D01*
X119301001Y-59349500D01*
X119165681Y-59376417D01*
X119165670Y-59376420D01*
X119038192Y-59429223D01*
X118923460Y-59505883D01*
X118825883Y-59603460D01*
X118775742Y-59678503D01*
X118744559Y-59699338D01*
X118707777Y-59692022D01*
X118694258Y-59678503D01*
X118644116Y-59603460D01*
X118546539Y-59505883D01*
X118478074Y-59460137D01*
X118431811Y-59429225D01*
X118431808Y-59429223D01*
X118431807Y-59429223D01*
X118304329Y-59376420D01*
X118304318Y-59376417D01*
X118168998Y-59349500D01*
X118168993Y-59349500D01*
X118031007Y-59349500D01*
X118031001Y-59349500D01*
X117895681Y-59376417D01*
X117895670Y-59376420D01*
X117768192Y-59429223D01*
X117653460Y-59505883D01*
X117555883Y-59603460D01*
X117505742Y-59678503D01*
X117474559Y-59699338D01*
X117437777Y-59692022D01*
X117424258Y-59678503D01*
X117374116Y-59603460D01*
X117276539Y-59505883D01*
X117208074Y-59460137D01*
X117161811Y-59429225D01*
X117161808Y-59429223D01*
X117161807Y-59429223D01*
X117034329Y-59376420D01*
X117034318Y-59376417D01*
X116898998Y-59349500D01*
X116898993Y-59349500D01*
X116761007Y-59349500D01*
X116761001Y-59349500D01*
X116625681Y-59376417D01*
X116625670Y-59376420D01*
X116498192Y-59429223D01*
X116383460Y-59505883D01*
X116285883Y-59603460D01*
X116235742Y-59678503D01*
X116204559Y-59699338D01*
X116167777Y-59692022D01*
X116154258Y-59678503D01*
X116104116Y-59603460D01*
X116006539Y-59505883D01*
X115938074Y-59460137D01*
X115891811Y-59429225D01*
X115891808Y-59429223D01*
X115891807Y-59429223D01*
X115764329Y-59376420D01*
X115764318Y-59376417D01*
X115628998Y-59349500D01*
X115628993Y-59349500D01*
X115491007Y-59349500D01*
X115491001Y-59349500D01*
X115355681Y-59376417D01*
X115355670Y-59376420D01*
X115228192Y-59429223D01*
X115113460Y-59505883D01*
X115015883Y-59603460D01*
X114939223Y-59718192D01*
X114886420Y-59845670D01*
X114886417Y-59845681D01*
X114859500Y-59981001D01*
X108750554Y-59981001D01*
X108740469Y-59930307D01*
X108733580Y-59895672D01*
X108680775Y-59768189D01*
X108620849Y-59678503D01*
X108604116Y-59653460D01*
X108506539Y-59555883D01*
X108431707Y-59505883D01*
X108391811Y-59479225D01*
X108391808Y-59479223D01*
X108391807Y-59479223D01*
X108264329Y-59426420D01*
X108264318Y-59426417D01*
X108128998Y-59399500D01*
X108128993Y-59399500D01*
X107991007Y-59399500D01*
X107991001Y-59399500D01*
X107855681Y-59426417D01*
X107855670Y-59426420D01*
X107728192Y-59479223D01*
X107613460Y-59555883D01*
X107515883Y-59653460D01*
X107465742Y-59728503D01*
X107434559Y-59749338D01*
X107397777Y-59742022D01*
X107384258Y-59728503D01*
X107334116Y-59653460D01*
X107236539Y-59555883D01*
X107161707Y-59505883D01*
X107121811Y-59479225D01*
X107121808Y-59479223D01*
X107121807Y-59479223D01*
X106994329Y-59426420D01*
X106994318Y-59426417D01*
X106858998Y-59399500D01*
X106858993Y-59399500D01*
X106721007Y-59399500D01*
X106721001Y-59399500D01*
X106585681Y-59426417D01*
X106585670Y-59426420D01*
X106458192Y-59479223D01*
X106343460Y-59555883D01*
X106245883Y-59653460D01*
X106195742Y-59728503D01*
X106164559Y-59749338D01*
X106127777Y-59742022D01*
X106114258Y-59728503D01*
X106064116Y-59653460D01*
X105966539Y-59555883D01*
X105891707Y-59505883D01*
X105851811Y-59479225D01*
X105851808Y-59479223D01*
X105851807Y-59479223D01*
X105724329Y-59426420D01*
X105724318Y-59426417D01*
X105588998Y-59399500D01*
X105588993Y-59399500D01*
X105451007Y-59399500D01*
X105451001Y-59399500D01*
X105315681Y-59426417D01*
X105315670Y-59426420D01*
X105188192Y-59479223D01*
X105073460Y-59555883D01*
X104975883Y-59653460D01*
X104925742Y-59728503D01*
X104894559Y-59749338D01*
X104857777Y-59742022D01*
X104844258Y-59728503D01*
X104794116Y-59653460D01*
X104696539Y-59555883D01*
X104621707Y-59505883D01*
X104581811Y-59479225D01*
X104581808Y-59479223D01*
X104581807Y-59479223D01*
X104454329Y-59426420D01*
X104454318Y-59426417D01*
X104318998Y-59399500D01*
X104318993Y-59399500D01*
X104181007Y-59399500D01*
X104181001Y-59399500D01*
X104045681Y-59426417D01*
X104045670Y-59426420D01*
X103918192Y-59479223D01*
X103803460Y-59555883D01*
X103705883Y-59653460D01*
X103655742Y-59728503D01*
X103624559Y-59749338D01*
X103587777Y-59742022D01*
X103574258Y-59728503D01*
X103524116Y-59653460D01*
X103426539Y-59555883D01*
X103351707Y-59505883D01*
X103311811Y-59479225D01*
X103311808Y-59479223D01*
X103311807Y-59479223D01*
X103184329Y-59426420D01*
X103184318Y-59426417D01*
X103048998Y-59399500D01*
X103048993Y-59399500D01*
X102911007Y-59399500D01*
X102911001Y-59399500D01*
X102775681Y-59426417D01*
X102775670Y-59426420D01*
X102648192Y-59479223D01*
X102533460Y-59555883D01*
X102435883Y-59653460D01*
X102385742Y-59728503D01*
X102354559Y-59749338D01*
X102317777Y-59742022D01*
X102304258Y-59728503D01*
X102254116Y-59653460D01*
X102156539Y-59555883D01*
X102081707Y-59505883D01*
X102041811Y-59479225D01*
X102041808Y-59479223D01*
X102041807Y-59479223D01*
X101914329Y-59426420D01*
X101914318Y-59426417D01*
X101778998Y-59399500D01*
X101778993Y-59399500D01*
X101641007Y-59399500D01*
X101641001Y-59399500D01*
X101505681Y-59426417D01*
X101505670Y-59426420D01*
X101378192Y-59479223D01*
X101263460Y-59555883D01*
X101165883Y-59653460D01*
X101115742Y-59728503D01*
X101084559Y-59749338D01*
X101047777Y-59742022D01*
X101034258Y-59728503D01*
X100984116Y-59653460D01*
X100886539Y-59555883D01*
X100811707Y-59505883D01*
X100771811Y-59479225D01*
X100771808Y-59479223D01*
X100771807Y-59479223D01*
X100644329Y-59426420D01*
X100644318Y-59426417D01*
X100508998Y-59399500D01*
X100508993Y-59399500D01*
X100371007Y-59399500D01*
X100371001Y-59399500D01*
X100235681Y-59426417D01*
X100235670Y-59426420D01*
X100108192Y-59479223D01*
X99993460Y-59555883D01*
X99895883Y-59653460D01*
X99819223Y-59768192D01*
X99766420Y-59895670D01*
X99766417Y-59895681D01*
X99739500Y-60031001D01*
X90200500Y-60031001D01*
X90200500Y-54381989D01*
X91699500Y-54381989D01*
X91699500Y-54618011D01*
X91730307Y-54852014D01*
X91730308Y-54852018D01*
X91730309Y-54852025D01*
X91791391Y-55079986D01*
X91791395Y-55079996D01*
X91881716Y-55298050D01*
X91999725Y-55502447D01*
X91999735Y-55502462D01*
X92143403Y-55689693D01*
X92143413Y-55689705D01*
X92310294Y-55856586D01*
X92310306Y-55856596D01*
X92497537Y-56000264D01*
X92497546Y-56000270D01*
X92497550Y-56000273D01*
X92701951Y-56118284D01*
X92920007Y-56208606D01*
X92920010Y-56208606D01*
X92920013Y-56208608D01*
X93147974Y-56269690D01*
X93147975Y-56269690D01*
X93147986Y-56269693D01*
X93381989Y-56300500D01*
X93381993Y-56300500D01*
X93618007Y-56300500D01*
X93618011Y-56300500D01*
X93852014Y-56269693D01*
X94079993Y-56208606D01*
X94298049Y-56118284D01*
X94502450Y-56000273D01*
X94689699Y-55856592D01*
X94856592Y-55689699D01*
X95000273Y-55502450D01*
X95118284Y-55298049D01*
X95208606Y-55079993D01*
X95269693Y-54852014D01*
X95300500Y-54618011D01*
X95300500Y-54381989D01*
X95269693Y-54147986D01*
X95208606Y-53920007D01*
X95118284Y-53701951D01*
X95000273Y-53497550D01*
X95000270Y-53497546D01*
X95000264Y-53497537D01*
X94856596Y-53310306D01*
X94856586Y-53310294D01*
X94689705Y-53143413D01*
X94689693Y-53143403D01*
X94502462Y-52999735D01*
X94502447Y-52999725D01*
X94298050Y-52881716D01*
X94079996Y-52791395D01*
X94079986Y-52791391D01*
X93852025Y-52730309D01*
X93852018Y-52730308D01*
X93852014Y-52730307D01*
X93618011Y-52699500D01*
X93381989Y-52699500D01*
X93147986Y-52730307D01*
X93147982Y-52730307D01*
X93147974Y-52730309D01*
X92920013Y-52791391D01*
X92920003Y-52791395D01*
X92701949Y-52881716D01*
X92497552Y-52999725D01*
X92497537Y-52999735D01*
X92310306Y-53143403D01*
X92310294Y-53143413D01*
X92143413Y-53310294D01*
X92143403Y-53310306D01*
X91999735Y-53497537D01*
X91999725Y-53497552D01*
X91881716Y-53701949D01*
X91791395Y-53920003D01*
X91791391Y-53920013D01*
X91730309Y-54147974D01*
X91730307Y-54147982D01*
X91730307Y-54147986D01*
X91699500Y-54381989D01*
X90200500Y-54381989D01*
X90200500Y-53001603D01*
X90200605Y-52998398D01*
X90209224Y-52866894D01*
X90215685Y-52768314D01*
X90216518Y-52761984D01*
X90261192Y-52537389D01*
X90262843Y-52531227D01*
X90336449Y-52314392D01*
X90338894Y-52308489D01*
X90440174Y-52103114D01*
X90443362Y-52097592D01*
X90570580Y-51907195D01*
X90574472Y-51902124D01*
X90725450Y-51729967D01*
X90729967Y-51725450D01*
X90902124Y-51574472D01*
X90907195Y-51570580D01*
X91097592Y-51443362D01*
X91103114Y-51440174D01*
X91308489Y-51338894D01*
X91314392Y-51336449D01*
X91531227Y-51262843D01*
X91537389Y-51261192D01*
X91761984Y-51216518D01*
X91768314Y-51215685D01*
X91998398Y-51200604D01*
X92001603Y-51200500D01*
X92039882Y-51200500D01*
X94960118Y-51200500D01*
X94998397Y-51200500D01*
X95001601Y-51200604D01*
G37*
%TD.AperFunction*%
%TD*%
M02*
