%TF.GenerationSoftware,KiCad,Pcbnew,10.0.0*%
%TF.CreationDate,2026-04-08T13:32:51+02:00*%
%TF.ProjectId,Shell_Module_DAISY,5368656c-6c5f-44d6-9f64-756c655f4441,1.0*%
%TF.SameCoordinates,Original*%
%TF.FileFunction,Copper,L1,Top*%
%TF.FilePolarity,Positive*%
%FSLAX46Y46*%
G04 Gerber Fmt 4.6, Leading zero omitted, Abs format (unit mm)*
G04 Created by KiCad (PCBNEW 10.0.0) date 2026-04-08 13:32:51*
%MOMM*%
%LPD*%
G01*
G04 APERTURE LIST*
G04 Aperture macros list*
%AMRoundRect*
0 Rectangle with rounded corners*
0 $1 Rounding radius*
0 $2 $3 $4 $5 $6 $7 $8 $9 X,Y pos of 4 corners*
0 Add a 4 corners polygon primitive as box body*
4,1,4,$2,$3,$4,$5,$6,$7,$8,$9,$2,$3,0*
0 Add four circle primitives for the rounded corners*
1,1,$1+$1,$2,$3*
1,1,$1+$1,$4,$5*
1,1,$1+$1,$6,$7*
1,1,$1+$1,$8,$9*
0 Add four rect primitives between the rounded corners*
20,1,$1+$1,$2,$3,$4,$5,0*
20,1,$1+$1,$4,$5,$6,$7,0*
20,1,$1+$1,$6,$7,$8,$9,0*
20,1,$1+$1,$8,$9,$2,$3,0*%
G04 Aperture macros list end*
%TA.AperFunction,ComponentPad*%
%ADD10C,1.397000*%
%TD*%
%TA.AperFunction,ComponentPad*%
%ADD11C,3.759200*%
%TD*%
%TA.AperFunction,ComponentPad*%
%ADD12C,1.700000*%
%TD*%
%TA.AperFunction,ComponentPad*%
%ADD13RoundRect,0.200000X-0.450000X0.200000X-0.450000X-0.200000X0.450000X-0.200000X0.450000X0.200000X0*%
%TD*%
%TA.AperFunction,ComponentPad*%
%ADD14O,1.300000X0.800000*%
%TD*%
%TA.AperFunction,ComponentPad*%
%ADD15C,1.000000*%
%TD*%
%TA.AperFunction,ComponentPad*%
%ADD16R,1.000000X1.000000*%
%TD*%
%TA.AperFunction,ViaPad*%
%ADD17C,0.450000*%
%TD*%
%TA.AperFunction,Conductor*%
%ADD18C,0.100000*%
%TD*%
G04 APERTURE END LIST*
D10*
%TO.P,J2,1,RX_1*%
%TO.N,/OUT_RX_P*%
X148864900Y-92644800D03*
%TO.P,J2,2,~{RX}_2*%
%TO.N,/OUT_RX_N*%
X146324900Y-91374800D03*
%TO.P,J2,3,VCC_3*%
%TO.N,+5V*%
X148864900Y-90104800D03*
%TO.P,J2,4,CLK_4*%
%TO.N,/OUT_CLK_P*%
X146324900Y-88834800D03*
%TO.P,J2,5,~{CLK}_5*%
%TO.N,/OUT_CLK_N*%
X148864900Y-87564800D03*
%TO.P,J2,6,GND_6*%
%TO.N,GND*%
X146324900Y-86294800D03*
%TO.P,J2,7,~{TX}_7*%
%TO.N,/TX_N*%
X148864900Y-85024800D03*
%TO.P,J2,8,TX_8*%
%TO.N,/TX_P*%
X146324900Y-83754800D03*
D11*
%TO.P,J2,9,SHD_9*%
%TO.N,GND*%
X155214900Y-93914800D03*
%TO.P,J2,10,SHD_10*%
X155214900Y-82484800D03*
%TD*%
D12*
%TO.P,SW301,1,1_1*%
%TO.N,/NRESET*%
X126750000Y-85850000D03*
X120250000Y-85850000D03*
%TO.P,SW301,2,2_2*%
%TO.N,GND*%
X126750000Y-90350000D03*
X120250000Y-90350000D03*
%TD*%
D13*
%TO.P,J1,1,Pin_1_1*%
%TO.N,/IN_CLK_N*%
X114100000Y-83800000D03*
D14*
%TO.P,J1,2,Pin_2_2*%
%TO.N,/IN_CLK_P*%
X114100000Y-85050000D03*
%TO.P,J1,3,Pin_3_3*%
%TO.N,/TX_N*%
X114100000Y-86300000D03*
%TO.P,J1,4,Pin_4_4*%
%TO.N,/TX_P*%
X114100000Y-87550000D03*
%TO.P,J1,5,Pin_5_5*%
%TO.N,+5V*%
X114100000Y-88800000D03*
%TO.P,J1,6,Pin_6_6*%
%TO.N,GND*%
X114100000Y-90050000D03*
%TO.P,J1,7,Pin_7_7*%
%TO.N,/IN_RX_P*%
X114100000Y-91300000D03*
%TO.P,J1,8,Pin_8_8*%
%TO.N,/IN_RX_N*%
X114100000Y-92550000D03*
%TD*%
D15*
%TO.P,U2,1,GND_1*%
%TO.N,GND*%
X133540000Y-93550000D03*
%TO.P,U2,2,5V_2*%
%TO.N,+5V*%
X134810000Y-93550000D03*
%TO.P,U2,3,BNO_SCL_3*%
%TO.N,/BNO_SCL*%
X136080000Y-93550000D03*
%TO.P,U2,4,BNO_SDA_4*%
%TO.N,/BNO_SDA*%
X137350000Y-93550000D03*
%TO.P,U2,5,BNO_NRST_5*%
%TO.N,/BNO_NRST*%
X138620000Y-93550000D03*
%TO.P,U2,6,H_NINT_6*%
%TO.N,/BNO_NINT*%
X139890000Y-93550000D03*
%TO.P,U2,7,H_NCS_7*%
%TO.N,unconnected-(U2-H_NCS-Pad7)*%
X141160000Y-93550000D03*
%TO.P,U2,8,GND_8*%
%TO.N,GND*%
X133540000Y-82550000D03*
%TO.P,U2,9,+3V3_9*%
%TO.N,+3.3V*%
X134810000Y-82550000D03*
%TO.P,U2,10,BNO_ADDR_10*%
%TO.N,unconnected-(U2-BNO_ADDR-Pad10)*%
X136080000Y-82550000D03*
%TO.P,U2,11,ENV_SCL_11*%
%TO.N,unconnected-(U2-ENV_SCL-Pad11)*%
X137350000Y-82550000D03*
%TO.P,U2,12,ENV_SDA_12*%
%TO.N,unconnected-(U2-ENV_SDA-Pad12)*%
X138620000Y-82550000D03*
%TO.P,U2,13,NC1_13*%
%TO.N,unconnected-(U2-NC1-Pad13)*%
X139890000Y-82550000D03*
%TO.P,U2,14,NC2_14*%
%TO.N,unconnected-(U2-NC2-Pad14)*%
X141160000Y-82550000D03*
%TD*%
D16*
%TO.P,U1,1,NRESET_1*%
%TO.N,/NRESET*%
X126040000Y-93600000D03*
D15*
%TO.P,U1,2,DONE_2*%
%TO.N,unconnected-(U1-DONE-Pad2)*%
X124770000Y-93600000D03*
%TO.P,U1,3,FLASH_MOSI_3*%
%TO.N,unconnected-(U1-FLASH_MOSI-Pad3)*%
X123500000Y-93600000D03*
%TO.P,U1,4,FLASH_SCK_4*%
%TO.N,unconnected-(U1-FLASH_SCK-Pad4)*%
X122230000Y-93600000D03*
%TO.P,U1,5,FLASH_MISO_5*%
%TO.N,unconnected-(U1-FLASH_MISO-Pad5)*%
X120960000Y-93600000D03*
%TO.P,U1,6,FLASH_NSC_6*%
%TO.N,unconnected-(U1-FLASH_NSC-Pad6)*%
X119690000Y-93600000D03*
%TO.P,U1,7,IOT_25A_7*%
%TO.N,/IN_RX_N*%
X118000000Y-91910000D03*
%TO.P,U1,8,IOT_19A_8*%
%TO.N,/IN_RX_P*%
X118000000Y-90640000D03*
%TO.P,U1,9,BARCODE_9*%
%TO.N,unconnected-(U1-BARCODE-Pad9)*%
X118000000Y-89370000D03*
%TO.P,U1,10,IRLED_10*%
%TO.N,unconnected-(U1-IRLED-Pad10)*%
X118000000Y-88100000D03*
%TO.P,U1,11,IOT_27A_11*%
%TO.N,unconnected-(U1-IOT_27A-Pad11)*%
X118000000Y-86830000D03*
%TO.P,U1,12,IOT_24B_12*%
%TO.N,/IN_CLK_N*%
X118000000Y-85560000D03*
%TO.P,U1,13,IOT_21A_G1_13*%
%TO.N,/IN_CLK_P*%
X118000000Y-84290000D03*
%TO.P,U1,14,IOT_22B_G0_14*%
%TO.N,/OUT_CLK_P*%
X119690000Y-82600000D03*
%TO.P,U1,15,IO_10A_15*%
%TO.N,/OUT_CLK_N*%
X120960000Y-82600000D03*
%TO.P,U1,16,IO_6A_16*%
%TO.N,unconnected-(U1-IO_6A-Pad16)*%
X122230000Y-82600000D03*
%TO.P,U1,17,IOB_7B_G5_17*%
%TO.N,/OUT_RX_P*%
X123500000Y-82600000D03*
%TO.P,U1,18,IOB_3B_G6_18*%
%TO.N,/OUT_RX_N*%
X124770000Y-82600000D03*
%TO.P,U1,19,IOB_0A_19*%
%TO.N,unconnected-(U1-IOB_0A-Pad19)*%
X126040000Y-82600000D03*
%TO.P,U1,20,IOB_1B_20*%
%TO.N,/BNO_NINT*%
X127310000Y-82600000D03*
%TO.P,U1,21,IOT_18B_21*%
%TO.N,/BNO_NRST*%
X129000000Y-84290000D03*
%TO.P,U1,22,IOT_4A_22*%
%TO.N,/BNO_SDA*%
X129000000Y-85560000D03*
%TO.P,U1,23,IOT_5B_23*%
%TO.N,/BNO_SCL*%
X129000000Y-86830000D03*
%TO.P,U1,24,RGB1_24*%
%TO.N,unconnected-(U1-RGB1-Pad24)*%
X129000000Y-88100000D03*
%TO.P,U1,25,RGB2_25*%
%TO.N,unconnected-(U1-RGB2-Pad25)*%
X129000000Y-89370000D03*
%TO.P,U1,26,5V_26*%
%TO.N,+5V*%
X129000000Y-90640000D03*
%TO.P,U1,27,GND_27*%
%TO.N,GND*%
X129000000Y-91910000D03*
%TD*%
D17*
%TO.N,GND*%
X111921065Y-82278973D03*
%TD*%
%TO.N,/OUT_RX_N*%
D18*
X145609767Y-92766392D02*
X145765118Y-92921743D01*
X145906538Y-92780319D02*
X145751138Y-92624919D01*
X146324900Y-92475094D02*
X146324900Y-91428120D01*
X145892561Y-92483498D02*
X146047962Y-92638899D01*
X145468343Y-92794677D02*
X145496629Y-92766392D01*
X145751137Y-92511783D02*
X145779423Y-92483498D01*
X146324900Y-91428120D02*
X146324900Y-91374800D01*
X145906537Y-92893458D02*
X145906537Y-92893457D01*
X145623693Y-93176302D02*
X145623693Y-93176301D01*
X145623694Y-93063163D02*
X145468344Y-92907813D01*
X146161098Y-92638900D02*
X146189381Y-92610614D01*
X124255000Y-90585294D02*
X125799706Y-92130000D01*
X127549706Y-92130000D02*
X130049706Y-94630000D01*
X124255000Y-87893353D02*
X124255000Y-90585294D01*
X146047962Y-92638899D02*
G75*
G03*
X146161068Y-92638870I56538J56599D01*
G01*
X145906537Y-92893457D02*
G75*
G03*
X145906526Y-92780332I-56537J56557D01*
G01*
X146189381Y-92610614D02*
X146324900Y-92475094D01*
X145340849Y-93459145D02*
G75*
G03*
X145340826Y-93346032I-56549J56545D01*
G01*
X145496629Y-92766392D02*
G75*
G02*
X145609767Y-92766392I56569J-56571D01*
G01*
X145765118Y-92921743D02*
G75*
G03*
X145878268Y-92921758I56582J56543D01*
G01*
X145468344Y-92907813D02*
G75*
G02*
X145468298Y-92794633I56556J56613D01*
G01*
X145213742Y-93049193D02*
G75*
G02*
X145326880Y-93049193I56569J-56571D01*
G01*
X145779423Y-92483498D02*
G75*
G02*
X145892561Y-92483498I56569J-56571D01*
G01*
X145623693Y-93176301D02*
G75*
G03*
X145623726Y-93063132I-56593J56601D01*
G01*
X145482274Y-93204587D02*
G75*
G03*
X145595367Y-93204546I56526J56587D01*
G01*
X145185457Y-93190614D02*
G75*
G02*
X145185410Y-93077432I56543J56614D01*
G01*
X145340850Y-93346007D02*
X145185457Y-93190614D01*
X145595410Y-93204588D02*
X145623693Y-93176302D01*
X145326880Y-93049193D02*
X145482274Y-93204587D01*
X145751138Y-92624919D02*
G75*
G02*
X145751186Y-92511833I56562J56519D01*
G01*
X145878254Y-92921744D02*
X145906537Y-92893458D01*
X145185456Y-93077478D02*
X145213742Y-93049193D01*
X144169994Y-94630000D02*
X145340849Y-93459145D01*
X130049706Y-94630000D02*
X144169994Y-94630000D01*
X125799706Y-92130000D02*
X127549706Y-92130000D01*
%TO.N,/TX_P*%
X111860882Y-81130000D02*
X110880000Y-82110882D01*
X113345000Y-87045000D02*
X113850000Y-87550000D01*
X112875294Y-87045000D02*
X113345000Y-87045000D01*
X110880000Y-85049706D02*
X112875294Y-87045000D01*
X143620000Y-82200294D02*
X143520942Y-82101236D01*
X143620000Y-83700294D02*
X143620000Y-82200294D01*
X142549706Y-81130000D02*
X111860882Y-81130000D01*
X110880000Y-82110882D02*
X110880000Y-85049706D01*
X113850000Y-87550000D02*
X114100000Y-87550000D01*
X143520942Y-82101236D02*
X142549706Y-81130000D01*
X145294901Y-84784799D02*
X144704505Y-84784799D01*
X143993557Y-83960713D02*
G75*
G02*
X143880421Y-83960713I-56568J56567D01*
G01*
X144417823Y-84384979D02*
X144586219Y-84216582D01*
X144276400Y-84243556D02*
G75*
G02*
X144163262Y-84243557I-56569J56567D01*
G01*
X144557934Y-84075160D02*
G75*
G03*
X144444798Y-84075160I-56568J-56567D01*
G01*
X144586219Y-84216582D02*
G75*
G03*
X144586233Y-84103431I-56519J56582D01*
G01*
X144704505Y-84784799D02*
X144417823Y-84498117D01*
X146324900Y-83754800D02*
X145294901Y-84784799D01*
X144303396Y-83933719D02*
G75*
G03*
X144303347Y-83820631I-56596J56519D01*
G01*
X143852137Y-83932431D02*
X143620000Y-83700294D01*
X144161974Y-83792297D02*
X143993557Y-83960713D01*
X144134980Y-84215274D02*
G75*
G02*
X144134975Y-84102131I56520J56574D01*
G01*
X143880420Y-83960713D02*
X143852137Y-83932431D01*
X144303396Y-83820582D02*
X144275111Y-83792297D01*
X144134980Y-84102136D02*
X144303396Y-83933719D01*
X144163263Y-84243556D02*
X144134980Y-84215274D01*
X144275111Y-83792297D02*
G75*
G03*
X144161975Y-83792297I-56568J-56567D01*
G01*
X144417823Y-84498117D02*
G75*
G02*
X144417775Y-84384931I56577J56617D01*
G01*
X144444797Y-84075160D02*
X144276400Y-84243556D01*
X144586219Y-84103445D02*
X144557934Y-84075160D01*
%TO.N,/OUT_RX_N*%
X124255000Y-87441336D02*
X124255000Y-87529336D01*
X123776181Y-84065336D02*
X123959000Y-84065336D01*
X124789791Y-87089336D02*
G75*
G02*
X124493791Y-87385291I-295991J36D01*
G01*
%TO.N,/OUT_RX_P*%
X124015000Y-87529336D02*
X124015000Y-87893353D01*
%TO.N,/OUT_RX_N*%
X123959000Y-83865336D02*
X123776181Y-83865336D01*
%TO.N,/OUT_RX_P*%
X146494606Y-92644800D02*
X148864900Y-92644800D01*
X144269406Y-94870000D02*
X146494606Y-92644800D01*
X123776195Y-86945336D02*
X124015000Y-86945336D01*
%TO.N,/OUT_RX_N*%
X123720195Y-86561336D02*
X123720195Y-86649336D01*
X124311000Y-86705336D02*
X124493791Y-86705336D01*
X124015000Y-86705336D02*
X124311000Y-86705336D01*
X124770000Y-82600000D02*
X124255000Y-83115000D01*
X123720181Y-84801336D02*
X123720181Y-84889336D01*
X123776195Y-86705336D02*
X124015000Y-86705336D01*
X124015000Y-85825336D02*
X124255000Y-85825336D01*
X123720181Y-85769336D02*
G75*
G03*
X123776181Y-85825319I56019J36D01*
G01*
X123720181Y-83921336D02*
X123720181Y-84009336D01*
X124015000Y-85625336D02*
X123776181Y-85625336D01*
%TO.N,/OUT_RX_P*%
X124015000Y-86065336D02*
X124255000Y-86065336D01*
%TO.N,/OUT_RX_N*%
X124255000Y-85825336D02*
X124493819Y-85825336D01*
X124789819Y-85241336D02*
X124789819Y-85329336D01*
%TO.N,/OUT_RX_P*%
X127450294Y-92370000D02*
X129950294Y-94870000D01*
%TO.N,/OUT_RX_N*%
X124255000Y-84945336D02*
X124493819Y-84945336D01*
X123776195Y-86505336D02*
G75*
G03*
X123720236Y-86561336I5J-55964D01*
G01*
%TO.N,/OUT_RX_P*%
X129950294Y-94870000D02*
X144269406Y-94870000D01*
X124015000Y-87893353D02*
X124015000Y-90684706D01*
%TO.N,/OUT_RX_N*%
X124015000Y-84745336D02*
X123776181Y-84745336D01*
X123720195Y-86649336D02*
G75*
G03*
X123776195Y-86705305I56005J36D01*
G01*
%TO.N,/OUT_RX_P*%
X124015000Y-86945336D02*
X124311000Y-86945336D01*
X123480195Y-86561336D02*
X123480195Y-86649336D01*
X124015000Y-87441336D02*
X124015000Y-87529336D01*
%TO.N,/OUT_RX_N*%
X124255000Y-83115000D02*
X124255000Y-83569336D01*
X123776181Y-85825336D02*
X124015000Y-85825336D01*
%TO.N,/OUT_RX_P*%
X123776181Y-86065336D02*
X124015000Y-86065336D01*
%TO.N,/OUT_RX_N*%
X124255000Y-83569336D02*
G75*
G02*
X123959000Y-83865300I-296000J36D01*
G01*
X124015000Y-84945336D02*
X124255000Y-84945336D01*
X123959000Y-84065336D02*
X124255000Y-84065336D01*
X124311000Y-87385336D02*
G75*
G03*
X124255036Y-87441336I0J-55964D01*
G01*
X124493791Y-86705336D02*
G75*
G02*
X124789764Y-87001336I9J-295964D01*
G01*
X123776181Y-84745336D02*
G75*
G03*
X123720236Y-84801336I19J-55964D01*
G01*
X124255000Y-84745336D02*
X124015000Y-84745336D01*
X124493819Y-84065336D02*
G75*
G02*
X124789764Y-84361336I-19J-295964D01*
G01*
X124255000Y-87529336D02*
X124255000Y-87893353D01*
%TO.N,/OUT_RX_P*%
X124255000Y-86265336D02*
X124015000Y-86265336D01*
%TO.N,/OUT_RX_N*%
X124255000Y-86505336D02*
X124015000Y-86505336D01*
X124255000Y-85625336D02*
X124015000Y-85625336D01*
X124493819Y-85625336D02*
X124255000Y-85625336D01*
X124493791Y-87385336D02*
X124311000Y-87385336D01*
X124493819Y-86505336D02*
X124255000Y-86505336D01*
%TO.N,/OUT_RX_P*%
X124549819Y-86121336D02*
X124549819Y-86209336D01*
X124311000Y-86945336D02*
X124493791Y-86945336D01*
%TO.N,/OUT_RX_N*%
X123776181Y-84945336D02*
X124015000Y-84945336D01*
X123776181Y-85625336D02*
G75*
G03*
X123720236Y-85681336I19J-55964D01*
G01*
X124493819Y-85825336D02*
G75*
G02*
X124789764Y-86121336I-19J-295964D01*
G01*
X124789819Y-85329336D02*
G75*
G02*
X124493819Y-85625319I-296019J36D01*
G01*
X124789791Y-87001336D02*
X124789791Y-87089336D01*
X123720181Y-84009336D02*
G75*
G03*
X123776181Y-84065319I56019J36D01*
G01*
X124015000Y-86505336D02*
X123776195Y-86505336D01*
X124493819Y-84945336D02*
G75*
G02*
X124789764Y-85241336I-19J-295964D01*
G01*
X123720181Y-84889336D02*
G75*
G03*
X123776181Y-84945319I56019J36D01*
G01*
X124789819Y-86121336D02*
X124789819Y-86209336D01*
X124493819Y-84745336D02*
X124255000Y-84745336D01*
X124789819Y-84361336D02*
X124789819Y-84449336D01*
X124789819Y-84449336D02*
G75*
G02*
X124493819Y-84745319I-296019J36D01*
G01*
%TO.N,/OUT_RX_P*%
X124015000Y-85385336D02*
X123776181Y-85385336D01*
X123480181Y-84801336D02*
X123480181Y-84889336D01*
X123776181Y-84305336D02*
X123959000Y-84305336D01*
%TO.N,/OUT_RX_N*%
X124255000Y-84065336D02*
X124493819Y-84065336D01*
%TO.N,/OUT_RX_P*%
X124015000Y-85185336D02*
X124255000Y-85185336D01*
X123959000Y-84305336D02*
X124255000Y-84305336D01*
X123480195Y-86649336D02*
G75*
G03*
X123776195Y-86945305I296005J36D01*
G01*
X123776181Y-84505336D02*
G75*
G03*
X123480236Y-84801336I19J-295964D01*
G01*
X124255000Y-84305336D02*
X124493819Y-84305336D01*
X124493791Y-87145336D02*
X124311000Y-87145336D01*
X123776181Y-83625336D02*
G75*
G03*
X123480236Y-83921336I19J-295964D01*
G01*
X123480181Y-85681336D02*
X123480181Y-85769336D01*
X124015000Y-83569336D02*
G75*
G02*
X123959000Y-83625300I-56000J36D01*
G01*
X123776181Y-85385336D02*
G75*
G03*
X123480236Y-85681336I19J-295964D01*
G01*
%TO.N,/OUT_RX_N*%
X123776181Y-83865336D02*
G75*
G03*
X123720236Y-83921336I19J-55964D01*
G01*
%TO.N,/OUT_RX_P*%
X124255000Y-86065336D02*
X124493819Y-86065336D01*
X124493819Y-84305336D02*
G75*
G02*
X124549764Y-84361336I-19J-55964D01*
G01*
X124493819Y-86065336D02*
G75*
G02*
X124549764Y-86121336I-19J-55964D01*
G01*
X125700294Y-92370000D02*
X127450294Y-92370000D01*
X124493819Y-85385336D02*
X124255000Y-85385336D01*
X124549819Y-85241336D02*
X124549819Y-85329336D01*
X124015000Y-84505336D02*
X123776181Y-84505336D01*
%TO.N,/OUT_RX_N*%
X124789819Y-86209336D02*
G75*
G02*
X124493819Y-86505319I-296019J36D01*
G01*
%TO.N,/OUT_RX_P*%
X123776181Y-85185336D02*
X124015000Y-85185336D01*
X124493819Y-86265336D02*
X124255000Y-86265336D01*
X124015000Y-86265336D02*
X123776195Y-86265336D01*
X123500000Y-82600000D02*
X124015000Y-83115000D01*
X124311000Y-87145336D02*
G75*
G03*
X124015036Y-87441336I0J-295964D01*
G01*
X124255000Y-85385336D02*
X124015000Y-85385336D01*
X124493819Y-85185336D02*
G75*
G02*
X124549764Y-85241336I-19J-55964D01*
G01*
X124493819Y-84505336D02*
X124255000Y-84505336D01*
X123480181Y-83921336D02*
X123480181Y-84009336D01*
X124549819Y-84449336D02*
G75*
G02*
X124493819Y-84505319I-56019J36D01*
G01*
X124549791Y-87001336D02*
X124549791Y-87089336D01*
%TO.N,/OUT_RX_N*%
X123720181Y-85681336D02*
X123720181Y-85769336D01*
%TO.N,/OUT_RX_P*%
X124015000Y-83115000D02*
X124015000Y-83569336D01*
X124549819Y-86209336D02*
G75*
G02*
X124493819Y-86265319I-56019J36D01*
G01*
X124493791Y-86945336D02*
G75*
G02*
X124549764Y-87001336I9J-55964D01*
G01*
X124255000Y-84505336D02*
X124015000Y-84505336D01*
X123959000Y-83625336D02*
X123776181Y-83625336D01*
X123480181Y-85769336D02*
G75*
G03*
X123776181Y-86065319I296019J36D01*
G01*
X124549791Y-87089336D02*
G75*
G02*
X124493791Y-87145291I-55991J36D01*
G01*
X124549819Y-84361336D02*
X124549819Y-84449336D01*
X124549819Y-85329336D02*
G75*
G02*
X124493819Y-85385319I-56019J36D01*
G01*
X123776195Y-86265336D02*
G75*
G03*
X123480236Y-86561336I5J-295964D01*
G01*
X123480181Y-84009336D02*
G75*
G03*
X123776181Y-84305319I296019J36D01*
G01*
X123480181Y-84889336D02*
G75*
G03*
X123776181Y-85185319I296019J36D01*
G01*
X124015000Y-90684706D02*
X125700294Y-92370000D01*
X124255000Y-85185336D02*
X124493819Y-85185336D01*
%TO.N,/IN_CLK_N*%
X115880000Y-83299706D02*
X115880000Y-84299706D01*
X116625294Y-85045000D02*
X117485000Y-85045000D01*
X112120000Y-83339853D02*
X113089853Y-82370000D01*
X113089853Y-82370000D02*
X114950294Y-82370000D01*
X114950294Y-82370000D02*
X115880000Y-83299706D01*
X114100000Y-83800000D02*
X113450000Y-83800000D01*
X113450000Y-83800000D02*
X112945000Y-84305000D01*
X117485000Y-85045000D02*
X118000000Y-85560000D01*
X112724706Y-84305000D02*
X112120000Y-83700294D01*
X115880000Y-84299706D02*
X116625294Y-85045000D01*
X112945000Y-84305000D02*
X112724706Y-84305000D01*
X112120000Y-83700294D02*
X112120000Y-83339853D01*
%TO.N,/IN_CLK_P*%
X115049706Y-82130000D02*
X116120000Y-83200294D01*
X116724706Y-84805000D02*
X117485000Y-84805000D01*
X111880000Y-83240441D02*
X112990441Y-82130000D01*
X116120000Y-83200294D02*
X116120000Y-84200294D01*
X116120000Y-84200294D02*
X116724706Y-84805000D01*
X113450000Y-85050000D02*
X112945000Y-84545000D01*
X111880000Y-83799706D02*
X111880000Y-83240441D01*
X112945000Y-84545000D02*
X112625294Y-84545000D01*
X117485000Y-84805000D02*
X118000000Y-84290000D01*
X112625294Y-84545000D02*
X111880000Y-83799706D01*
X112990441Y-82130000D02*
X115049706Y-82130000D01*
X114100000Y-85050000D02*
X113450000Y-85050000D01*
%TO.N,/TX_N*%
X143380000Y-82299706D02*
X143380000Y-83799706D01*
X111120000Y-82210294D02*
X111960294Y-81370000D01*
X111120000Y-84950294D02*
X111120000Y-82210294D01*
X112974706Y-86805000D02*
X111120000Y-84950294D01*
X111960294Y-81370000D02*
X142450294Y-81370000D01*
X113345000Y-86805000D02*
X112974706Y-86805000D01*
X142450294Y-81370000D02*
X143380000Y-82299706D01*
X144605094Y-85024800D02*
X148864900Y-85024800D01*
X114100000Y-86300000D02*
X113850000Y-86300000D01*
X113850000Y-86300000D02*
X113345000Y-86805000D01*
X143380000Y-83799706D02*
X144605094Y-85024800D01*
%TO.N,/IN_RX_P*%
X114750000Y-91300000D02*
X115255000Y-91805000D01*
X116425294Y-91155000D02*
X117485000Y-91155000D01*
X117485000Y-91155000D02*
X118000000Y-90640000D01*
X114100000Y-91300000D02*
X114750000Y-91300000D01*
X115775294Y-91805000D02*
X116425294Y-91155000D01*
X115255000Y-91805000D02*
X115775294Y-91805000D01*
%TO.N,/IN_RX_N*%
X115874706Y-92045000D02*
X116524706Y-91395000D01*
X115255000Y-92045000D02*
X115874706Y-92045000D01*
X114750000Y-92550000D02*
X115255000Y-92045000D01*
X116524706Y-91395000D02*
X117485000Y-91395000D01*
X117485000Y-91395000D02*
X118000000Y-91910000D01*
X114100000Y-92550000D02*
X114750000Y-92550000D01*
%TO.N,/BNO_SCL*%
X136080000Y-92330000D02*
X136080000Y-93550000D01*
X129000000Y-86830000D02*
X130580000Y-86830000D01*
X130580000Y-86830000D02*
X136080000Y-92330000D01*
%TO.N,/BNO_SDA*%
X137350000Y-92350000D02*
X137350000Y-93550000D01*
X130560000Y-85560000D02*
X137350000Y-92350000D01*
X129000000Y-85560000D02*
X130560000Y-85560000D01*
%TO.N,/BNO_NRST*%
X138620000Y-92370000D02*
X138620000Y-93550000D01*
X129000000Y-84290000D02*
X130540000Y-84290000D01*
X130540000Y-84290000D02*
X138620000Y-92370000D01*
%TO.N,/BNO_NINT*%
X139890000Y-92390000D02*
X139890000Y-93550000D01*
X130100000Y-82600000D02*
X139890000Y-92390000D01*
X127310000Y-82600000D02*
X130100000Y-82600000D01*
%TD*%
M02*
