M48
; DRILL file KiCad 10.0.0 date 2026-04-08T13:32:56
; FORMAT={-:-/ absolute / metric / decimal}
; #@! TF.CreationDate,2026-04-08T13:32:56+02:00
; #@! TF.GenerationSoftware,Kicad,Pcbnew,10.0.0
; #@! TF.FileFunction,Plated,1,4,PTH
FMAT,2
METRIC
; #@! TA.AperFunction,Plated,PTH,ViaDrill
T1C0.200
; #@! TA.AperFunction,Plated,PTH,ComponentDrill
T2C0.500
; #@! TA.AperFunction,Plated,PTH,ComponentDrill
T3C0.650
; #@! TA.AperFunction,Plated,PTH,ComponentDrill
T4C0.889
; #@! TA.AperFunction,Plated,PTH,ComponentDrill
T5C1.000
; #@! TA.AperFunction,Plated,PTH,ComponentDrill
T6C3.251
%
G90
G05
T1
X111.921Y-82.279
T2
X114.1Y-83.8
X114.1Y-85.05
X114.1Y-86.3
X114.1Y-87.55
X114.1Y-88.8
X114.1Y-90.05
X114.1Y-91.3
X114.1Y-92.55
T3
X118.0Y-84.29
X118.0Y-85.56
X118.0Y-86.83
X118.0Y-88.1
X118.0Y-89.37
X118.0Y-90.64
X118.0Y-91.91
X119.69Y-82.6
X119.69Y-93.6
X120.96Y-82.6
X120.96Y-93.6
X122.23Y-82.6
X122.23Y-93.6
X123.5Y-82.6
X123.5Y-93.6
X124.77Y-82.6
X124.77Y-93.6
X126.04Y-82.6
X126.04Y-93.6
X127.31Y-82.6
X129.0Y-84.29
X129.0Y-85.56
X129.0Y-86.83
X129.0Y-88.1
X129.0Y-89.37
X129.0Y-90.64
X129.0Y-91.91
X133.54Y-82.55
X133.54Y-93.55
X134.81Y-82.55
X134.81Y-93.55
X136.08Y-82.55
X136.08Y-93.55
X137.35Y-82.55
X137.35Y-93.55
X138.62Y-82.55
X138.62Y-93.55
X139.89Y-82.55
X139.89Y-93.55
X141.16Y-82.55
X141.16Y-93.55
T4
X146.325Y-83.755
X146.325Y-86.295
X146.325Y-88.835
X146.325Y-91.375
X148.865Y-85.025
X148.865Y-87.565
X148.865Y-90.105
X148.865Y-92.645
T5
X120.25Y-85.85
X120.25Y-90.35
X126.75Y-85.85
X126.75Y-90.35
T6
X155.215Y-82.485
X155.215Y-93.915
M30
