%TF.GenerationSoftware,KiCad,Pcbnew,10.0.0*%
%TF.CreationDate,2026-04-08T13:32:51+02:00*%
%TF.ProjectId,Shell_Module_DAISY,5368656c-6c5f-44d6-9f64-756c655f4441,1.0*%
%TF.SameCoordinates,Original*%
%TF.FileFunction,Copper,L4,Bot*%
%TF.FilePolarity,Positive*%
%FSLAX46Y46*%
G04 Gerber Fmt 4.6, Leading zero omitted, Abs format (unit mm)*
G04 Created by KiCad (PCBNEW 10.0.0) date 2026-04-08 13:32:51*
%MOMM*%
%LPD*%
G01*
G04 APERTURE LIST*
G04 Aperture macros list*
%AMRoundRect*
0 Rectangle with rounded corners*
0 $1 Rounding radius*
0 $2 $3 $4 $5 $6 $7 $8 $9 X,Y pos of 4 corners*
0 Add a 4 corners polygon primitive as box body*
4,1,4,$2,$3,$4,$5,$6,$7,$8,$9,$2,$3,0*
0 Add four circle primitives for the rounded corners*
1,1,$1+$1,$2,$3*
1,1,$1+$1,$4,$5*
1,1,$1+$1,$6,$7*
1,1,$1+$1,$8,$9*
0 Add four rect primitives between the rounded corners*
20,1,$1+$1,$2,$3,$4,$5,0*
20,1,$1+$1,$4,$5,$6,$7,0*
20,1,$1+$1,$6,$7,$8,$9,0*
20,1,$1+$1,$8,$9,$2,$3,0*%
G04 Aperture macros list end*
%TA.AperFunction,ComponentPad*%
%ADD10C,1.397000*%
%TD*%
%TA.AperFunction,ComponentPad*%
%ADD11C,3.759200*%
%TD*%
%TA.AperFunction,ComponentPad*%
%ADD12C,1.700000*%
%TD*%
%TA.AperFunction,SMDPad,CuDef*%
%ADD13RoundRect,0.200000X0.200000X0.275000X-0.200000X0.275000X-0.200000X-0.275000X0.200000X-0.275000X0*%
%TD*%
%TA.AperFunction,ComponentPad*%
%ADD14RoundRect,0.200000X-0.450000X0.200000X-0.450000X-0.200000X0.450000X-0.200000X0.450000X0.200000X0*%
%TD*%
%TA.AperFunction,ComponentPad*%
%ADD15O,1.300000X0.800000*%
%TD*%
%TA.AperFunction,ComponentPad*%
%ADD16C,1.000000*%
%TD*%
%TA.AperFunction,ComponentPad*%
%ADD17R,1.000000X1.000000*%
%TD*%
%TA.AperFunction,SMDPad,CuDef*%
%ADD18RoundRect,0.250000X-0.250000X-0.475000X0.250000X-0.475000X0.250000X0.475000X-0.250000X0.475000X0*%
%TD*%
%TA.AperFunction,SMDPad,CuDef*%
%ADD19RoundRect,0.250000X0.650000X-0.325000X0.650000X0.325000X-0.650000X0.325000X-0.650000X-0.325000X0*%
%TD*%
%TA.AperFunction,SMDPad,CuDef*%
%ADD20RoundRect,0.200000X0.275000X-0.200000X0.275000X0.200000X-0.275000X0.200000X-0.275000X-0.200000X0*%
%TD*%
%TA.AperFunction,ViaPad*%
%ADD21C,0.450000*%
%TD*%
%TA.AperFunction,Conductor*%
%ADD22C,0.200000*%
%TD*%
%TA.AperFunction,Conductor*%
%ADD23C,0.100000*%
%TD*%
%TA.AperFunction,Conductor*%
%ADD24C,1.000000*%
%TD*%
G04 APERTURE END LIST*
D10*
%TO.P,J2,1,RX_1*%
%TO.N,/OUT_RX_P*%
X148864900Y-92644800D03*
%TO.P,J2,2,~{RX}_2*%
%TO.N,/OUT_RX_N*%
X146324900Y-91374800D03*
%TO.P,J2,3,VCC_3*%
%TO.N,+5V*%
X148864900Y-90104800D03*
%TO.P,J2,4,CLK_4*%
%TO.N,/OUT_CLK_P*%
X146324900Y-88834800D03*
%TO.P,J2,5,~{CLK}_5*%
%TO.N,/OUT_CLK_N*%
X148864900Y-87564800D03*
%TO.P,J2,6,GND_6*%
%TO.N,GND*%
X146324900Y-86294800D03*
%TO.P,J2,7,~{TX}_7*%
%TO.N,/TX_N*%
X148864900Y-85024800D03*
%TO.P,J2,8,TX_8*%
%TO.N,/TX_P*%
X146324900Y-83754800D03*
D11*
%TO.P,J2,9,SHD_9*%
%TO.N,GND*%
X155214900Y-93914800D03*
%TO.P,J2,10,SHD_10*%
X155214900Y-82484800D03*
%TD*%
D12*
%TO.P,SW301,1,1_1*%
%TO.N,/NRESET*%
X126750000Y-85850000D03*
X120250000Y-85850000D03*
%TO.P,SW301,2,2_2*%
%TO.N,GND*%
X126750000Y-90350000D03*
X120250000Y-90350000D03*
%TD*%
D13*
%TO.P,R2,1*%
%TO.N,+3.3V*%
X134800000Y-84075000D03*
%TO.P,R2,2*%
%TO.N,/NRESET*%
X133150000Y-84075000D03*
%TD*%
D14*
%TO.P,J1,1,Pin_1_1*%
%TO.N,/IN_CLK_N*%
X114100000Y-83800000D03*
D15*
%TO.P,J1,2,Pin_2_2*%
%TO.N,/IN_CLK_P*%
X114100000Y-85050000D03*
%TO.P,J1,3,Pin_3_3*%
%TO.N,/TX_N*%
X114100000Y-86300000D03*
%TO.P,J1,4,Pin_4_4*%
%TO.N,/TX_P*%
X114100000Y-87550000D03*
%TO.P,J1,5,Pin_5_5*%
%TO.N,+5V*%
X114100000Y-88800000D03*
%TO.P,J1,6,Pin_6_6*%
%TO.N,GND*%
X114100000Y-90050000D03*
%TO.P,J1,7,Pin_7_7*%
%TO.N,/IN_RX_P*%
X114100000Y-91300000D03*
%TO.P,J1,8,Pin_8_8*%
%TO.N,/IN_RX_N*%
X114100000Y-92550000D03*
%TD*%
D16*
%TO.P,U2,1,GND_1*%
%TO.N,GND*%
X133540000Y-93550000D03*
%TO.P,U2,2,5V_2*%
%TO.N,+5V*%
X134810000Y-93550000D03*
%TO.P,U2,3,BNO_SCL_3*%
%TO.N,/BNO_SCL*%
X136080000Y-93550000D03*
%TO.P,U2,4,BNO_SDA_4*%
%TO.N,/BNO_SDA*%
X137350000Y-93550000D03*
%TO.P,U2,5,BNO_NRST_5*%
%TO.N,/BNO_NRST*%
X138620000Y-93550000D03*
%TO.P,U2,6,H_NINT_6*%
%TO.N,/BNO_NINT*%
X139890000Y-93550000D03*
%TO.P,U2,7,H_NCS_7*%
%TO.N,unconnected-(U2-H_NCS-Pad7)*%
X141160000Y-93550000D03*
%TO.P,U2,8,GND_8*%
%TO.N,GND*%
X133540000Y-82550000D03*
%TO.P,U2,9,+3V3_9*%
%TO.N,+3.3V*%
X134810000Y-82550000D03*
%TO.P,U2,10,BNO_ADDR_10*%
%TO.N,unconnected-(U2-BNO_ADDR-Pad10)*%
X136080000Y-82550000D03*
%TO.P,U2,11,ENV_SCL_11*%
%TO.N,unconnected-(U2-ENV_SCL-Pad11)*%
X137350000Y-82550000D03*
%TO.P,U2,12,ENV_SDA_12*%
%TO.N,unconnected-(U2-ENV_SDA-Pad12)*%
X138620000Y-82550000D03*
%TO.P,U2,13,NC1_13*%
%TO.N,unconnected-(U2-NC1-Pad13)*%
X139890000Y-82550000D03*
%TO.P,U2,14,NC2_14*%
%TO.N,unconnected-(U2-NC2-Pad14)*%
X141160000Y-82550000D03*
%TD*%
D17*
%TO.P,U1,1,NRESET_1*%
%TO.N,/NRESET*%
X126040000Y-93600000D03*
D16*
%TO.P,U1,2,DONE_2*%
%TO.N,unconnected-(U1-DONE-Pad2)*%
X124770000Y-93600000D03*
%TO.P,U1,3,FLASH_MOSI_3*%
%TO.N,unconnected-(U1-FLASH_MOSI-Pad3)*%
X123500000Y-93600000D03*
%TO.P,U1,4,FLASH_SCK_4*%
%TO.N,unconnected-(U1-FLASH_SCK-Pad4)*%
X122230000Y-93600000D03*
%TO.P,U1,5,FLASH_MISO_5*%
%TO.N,unconnected-(U1-FLASH_MISO-Pad5)*%
X120960000Y-93600000D03*
%TO.P,U1,6,FLASH_NSC_6*%
%TO.N,unconnected-(U1-FLASH_NSC-Pad6)*%
X119690000Y-93600000D03*
%TO.P,U1,7,IOT_25A_7*%
%TO.N,/IN_RX_N*%
X118000000Y-91910000D03*
%TO.P,U1,8,IOT_19A_8*%
%TO.N,/IN_RX_P*%
X118000000Y-90640000D03*
%TO.P,U1,9,BARCODE_9*%
%TO.N,unconnected-(U1-BARCODE-Pad9)*%
X118000000Y-89370000D03*
%TO.P,U1,10,IRLED_10*%
%TO.N,unconnected-(U1-IRLED-Pad10)*%
X118000000Y-88100000D03*
%TO.P,U1,11,IOT_27A_11*%
%TO.N,unconnected-(U1-IOT_27A-Pad11)*%
X118000000Y-86830000D03*
%TO.P,U1,12,IOT_24B_12*%
%TO.N,/IN_CLK_N*%
X118000000Y-85560000D03*
%TO.P,U1,13,IOT_21A_G1_13*%
%TO.N,/IN_CLK_P*%
X118000000Y-84290000D03*
%TO.P,U1,14,IOT_22B_G0_14*%
%TO.N,/OUT_CLK_P*%
X119690000Y-82600000D03*
%TO.P,U1,15,IO_10A_15*%
%TO.N,/OUT_CLK_N*%
X120960000Y-82600000D03*
%TO.P,U1,16,IO_6A_16*%
%TO.N,unconnected-(U1-IO_6A-Pad16)*%
X122230000Y-82600000D03*
%TO.P,U1,17,IOB_7B_G5_17*%
%TO.N,/OUT_RX_P*%
X123500000Y-82600000D03*
%TO.P,U1,18,IOB_3B_G6_18*%
%TO.N,/OUT_RX_N*%
X124770000Y-82600000D03*
%TO.P,U1,19,IOB_0A_19*%
%TO.N,unconnected-(U1-IOB_0A-Pad19)*%
X126040000Y-82600000D03*
%TO.P,U1,20,IOB_1B_20*%
%TO.N,/BNO_NINT*%
X127310000Y-82600000D03*
%TO.P,U1,21,IOT_18B_21*%
%TO.N,/BNO_NRST*%
X129000000Y-84290000D03*
%TO.P,U1,22,IOT_4A_22*%
%TO.N,/BNO_SDA*%
X129000000Y-85560000D03*
%TO.P,U1,23,IOT_5B_23*%
%TO.N,/BNO_SCL*%
X129000000Y-86830000D03*
%TO.P,U1,24,RGB1_24*%
%TO.N,unconnected-(U1-RGB1-Pad24)*%
X129000000Y-88100000D03*
%TO.P,U1,25,RGB2_25*%
%TO.N,unconnected-(U1-RGB2-Pad25)*%
X129000000Y-89370000D03*
%TO.P,U1,26,5V_26*%
%TO.N,+5V*%
X129000000Y-90640000D03*
%TO.P,U1,27,GND_27*%
%TO.N,GND*%
X129000000Y-91910000D03*
%TD*%
D18*
%TO.P,C304,1*%
%TO.N,/NRESET*%
X127550000Y-93500000D03*
%TO.P,C304,2*%
%TO.N,GND*%
X129450000Y-93500000D03*
%TD*%
D19*
%TO.P,C1,1*%
%TO.N,+5V*%
X111921065Y-89025000D03*
%TO.P,C1,2*%
%TO.N,Net-(C1-Pad2)*%
X111921065Y-86075000D03*
%TD*%
D20*
%TO.P,R1,1*%
%TO.N,Net-(C1-Pad2)*%
X111921065Y-84575000D03*
%TO.P,R1,2*%
%TO.N,GND*%
X111921065Y-82925000D03*
%TD*%
D21*
%TO.N,GND*%
X111921065Y-82278973D03*
%TD*%
%TO.N,/NRESET*%
D22*
X126750000Y-84850000D02*
X126750000Y-85850000D01*
X132325000Y-83250000D02*
X128350000Y-83250000D01*
X128350000Y-83250000D02*
X126750000Y-84850000D01*
X133150000Y-84075000D02*
X132325000Y-83250000D01*
%TO.N,+3.3V*%
X134810000Y-84065000D02*
X134800000Y-84075000D01*
X134810000Y-82550000D02*
X134810000Y-84065000D01*
%TO.N,/OUT_CLK_N*%
D23*
X151130000Y-86137786D02*
G75*
G03*
X151050000Y-86057800I-80000J-14D01*
G01*
X151050000Y-86257786D02*
G75*
G03*
X151129986Y-86177786I0J79986D01*
G01*
X151050000Y-87257786D02*
X150810685Y-87257786D01*
X150730685Y-86337786D02*
G75*
G02*
X150810685Y-86257785I80015J-14D01*
G01*
X150810661Y-86057786D02*
G75*
G02*
X150730714Y-85977786I39J79986D01*
G01*
X150810685Y-87257786D02*
G75*
G02*
X150730714Y-87177786I15J79986D01*
G01*
X150810685Y-86457786D02*
G75*
G02*
X150730714Y-86377786I15J79986D01*
G01*
X150810661Y-86657786D02*
X151050000Y-86657786D01*
X151050000Y-85857786D02*
G75*
G03*
X151129986Y-85777786I0J79986D01*
G01*
X151130000Y-86537786D02*
G75*
G03*
X151050000Y-86457800I-80000J-14D01*
G01*
X151050000Y-86657786D02*
G75*
G03*
X151129986Y-86577786I0J79986D01*
G01*
X151130000Y-86937786D02*
G75*
G03*
X151050000Y-86857800I-80000J-14D01*
G01*
X150730661Y-86737786D02*
G75*
G02*
X150810661Y-86657761I80039J-14D01*
G01*
X151130000Y-86977786D02*
X151130000Y-86937786D01*
X151130000Y-87337786D02*
G75*
G03*
X151050000Y-87257800I-80000J-14D01*
G01*
X151050000Y-87057786D02*
G75*
G03*
X151129986Y-86977786I0J79986D01*
G01*
X150730685Y-87137786D02*
G75*
G02*
X150810685Y-87057785I80015J-14D01*
G01*
X150810685Y-85457786D02*
X151050000Y-85457786D01*
X150810661Y-86857786D02*
G75*
G02*
X150730714Y-86777786I39J79986D01*
G01*
X150810661Y-85857786D02*
X151050000Y-85857786D01*
X151050000Y-86457786D02*
X150810685Y-86457786D01*
X151130000Y-85737786D02*
G75*
G03*
X151050000Y-85657800I-80000J-14D01*
G01*
X151130000Y-85377786D02*
X151130000Y-85337786D01*
X151130000Y-85049706D02*
X150021455Y-83941161D01*
X151050000Y-85657786D02*
X150810685Y-85657786D01*
X151130000Y-85777786D02*
X151130000Y-85737786D01*
X150730661Y-85977786D02*
X150730661Y-85937786D01*
X151130000Y-86177786D02*
X151130000Y-86137786D01*
X150021455Y-83941161D02*
X149612565Y-83532271D01*
X150810685Y-86257786D02*
X151050000Y-86257786D01*
X151050000Y-86057786D02*
X150810661Y-86057786D01*
X150730685Y-86377786D02*
X150730685Y-86337786D01*
X150730685Y-85577786D02*
X150730685Y-85537786D01*
X150730661Y-86777786D02*
X150730661Y-86737786D01*
X151050000Y-86857786D02*
X150810661Y-86857786D01*
X151130000Y-86577786D02*
X151130000Y-86537786D01*
X150235495Y-88594799D02*
X151130000Y-87700294D01*
X151130000Y-87700294D02*
X151130000Y-87337786D01*
X149894899Y-88594799D02*
X150235495Y-88594799D01*
X148864900Y-87564800D02*
X149894899Y-88594799D01*
X150810685Y-87057786D02*
X151050000Y-87057786D01*
X150730685Y-87177786D02*
X150730685Y-87137786D01*
X151050000Y-85457786D02*
G75*
G03*
X151129986Y-85377786I0J79986D01*
G01*
X150730685Y-85537786D02*
G75*
G02*
X150810685Y-85457785I80015J-14D01*
G01*
X150810685Y-85657786D02*
G75*
G02*
X150730714Y-85577786I15J79986D01*
G01*
X150730661Y-85937786D02*
G75*
G02*
X150810661Y-85857761I80039J-14D01*
G01*
X151130000Y-85337786D02*
X151130000Y-85049706D01*
X120445000Y-81974706D02*
X121049706Y-81370000D01*
X149225959Y-82553155D02*
G75*
G03*
X149225969Y-83145655I296241J-296245D01*
G01*
%TO.N,/OUT_CLK_P*%
X149782271Y-83362565D02*
X151370000Y-84950294D01*
%TO.N,/OUT_CLK_N*%
X149225959Y-83145665D02*
X149510262Y-83429968D01*
X149510262Y-83429968D02*
X149612565Y-83532271D01*
X121049706Y-81370000D02*
X147450294Y-81370000D01*
X148941658Y-82015755D02*
X149225960Y-82300057D01*
X149225960Y-82300057D02*
G75*
G02*
X149225954Y-82553150I-126560J-126543D01*
G01*
%TO.N,/OUT_CLK_P*%
X149395665Y-82975959D02*
X149679968Y-83260262D01*
%TO.N,/OUT_CLK_N*%
X147450294Y-81370000D02*
X148096049Y-82015755D01*
%TO.N,/OUT_CLK_P*%
X150334906Y-88834800D02*
X146324900Y-88834800D01*
%TO.N,/OUT_CLK_N*%
X148096049Y-82015755D02*
X148096048Y-82015753D01*
X148096048Y-82015753D02*
G75*
G03*
X148688555Y-82015750I296252J296253D01*
G01*
X120960000Y-82600000D02*
X120445000Y-82085000D01*
X148688560Y-82015755D02*
G75*
G02*
X148941658Y-82015755I126549J-126547D01*
G01*
%TO.N,/OUT_CLK_P*%
X149111363Y-81846049D02*
X149395665Y-82130351D01*
X151370000Y-84950294D02*
X151370000Y-87799706D01*
X148265755Y-81846049D02*
X148265753Y-81846048D01*
X149679968Y-83260262D02*
X149782271Y-83362565D01*
X119690000Y-82600000D02*
X120205000Y-82085000D01*
%TO.N,/OUT_CLK_N*%
X120445000Y-82085000D02*
X120445000Y-81974706D01*
%TO.N,/OUT_CLK_P*%
X120205000Y-81875294D02*
X120950294Y-81130000D01*
X120205000Y-82085000D02*
X120205000Y-81875294D01*
X149395665Y-82722861D02*
G75*
G03*
X149395675Y-82975949I126535J-126539D01*
G01*
X149395665Y-82130351D02*
G75*
G02*
X149395659Y-82722855I-296265J-296249D01*
G01*
X148518853Y-81846049D02*
G75*
G02*
X149111363Y-81846049I296255J-296254D01*
G01*
X147549706Y-81130000D02*
X148265755Y-81846049D01*
X120950294Y-81130000D02*
X147549706Y-81130000D01*
X148265753Y-81846048D02*
G75*
G03*
X148518849Y-81846046I126547J126548D01*
G01*
X151370000Y-87799706D02*
X150334906Y-88834800D01*
%TO.N,+5V*%
D24*
X113200000Y-88800000D02*
X114100000Y-88800000D01*
X135500000Y-95000000D02*
X131750000Y-95000000D01*
X112000000Y-93250000D02*
X112000000Y-90000000D01*
X148864900Y-90104800D02*
X150263400Y-91503300D01*
X131250000Y-93750000D02*
X132500000Y-95000000D01*
X129000000Y-90640000D02*
X130140000Y-90640000D01*
X130140000Y-90640000D02*
X131250000Y-91750000D01*
X148487478Y-95000000D02*
X135500000Y-95000000D01*
X150263400Y-93224078D02*
X148487478Y-95000000D01*
X131250000Y-91750000D02*
X131250000Y-93750000D01*
X112000000Y-90000000D02*
X113200000Y-88800000D01*
X131750000Y-95000000D02*
X113750000Y-95000000D01*
X150263400Y-91503300D02*
X150263400Y-93224078D01*
X134810000Y-93550000D02*
X134810000Y-94310000D01*
X134810000Y-94310000D02*
X135500000Y-95000000D01*
X113750000Y-95000000D02*
X112000000Y-93250000D01*
%TO.N,GND*%
D22*
X129450000Y-93500000D02*
X129450000Y-92360000D01*
X129450000Y-92360000D02*
X129000000Y-91910000D01*
X111921065Y-82278973D02*
X111921065Y-82925000D01*
%TO.N,Net-(C1-Pad2)*%
X111921065Y-84575000D02*
X111921065Y-86075000D01*
%TO.N,/NRESET*%
X126040000Y-93600000D02*
X126040000Y-92540000D01*
X126140000Y-93500000D02*
X126040000Y-93600000D01*
X120250000Y-85850000D02*
X126750000Y-85850000D01*
X127550000Y-93500000D02*
X126140000Y-93500000D01*
X126040000Y-92540000D02*
X125250000Y-91750000D01*
X126750000Y-85850000D02*
X125250000Y-87350000D01*
X125250000Y-87350000D02*
X125250000Y-91750000D01*
%TD*%
M02*
