%TF.GenerationSoftware,KiCad,Pcbnew,10.0.0*%
%TF.CreationDate,2026-04-08T13:32:51+02:00*%
%TF.ProjectId,Shell_Module_DAISY,5368656c-6c5f-44d6-9f64-756c655f4441,1.0*%
%TF.SameCoordinates,Original*%
%TF.FileFunction,Legend,Bot*%
%TF.FilePolarity,Positive*%
%FSLAX46Y46*%
G04 Gerber Fmt 4.6, Leading zero omitted, Abs format (unit mm)*
G04 Created by KiCad (PCBNEW 10.0.0) date 2026-04-08 13:32:51*
%MOMM*%
%LPD*%
G01*
G04 APERTURE LIST*
%ADD10C,0.300000*%
%ADD11C,0.100000*%
%ADD12C,0.120000*%
G04 APERTURE END LIST*
D10*
G36*
X122334008Y-88328854D02*
G01*
X122394404Y-88346516D01*
X122434828Y-88372839D01*
X122463648Y-88408675D01*
X122481955Y-88456007D01*
X122488651Y-88518432D01*
X122481979Y-88586872D01*
X122463891Y-88638375D01*
X122435881Y-88676928D01*
X122397427Y-88705003D01*
X122339186Y-88724134D01*
X122243737Y-88731931D01*
X121876915Y-88731931D01*
X121876915Y-88321603D01*
X122234486Y-88321603D01*
X122334008Y-88328854D01*
G37*
G36*
X125740197Y-89203413D02*
G01*
X121401861Y-89203413D01*
X121401861Y-88731931D01*
X121568528Y-88731931D01*
X121568528Y-88989851D01*
X122309316Y-88989851D01*
X122415625Y-88983194D01*
X122495303Y-88969535D01*
X122553681Y-88950833D01*
X122632884Y-88906375D01*
X122698761Y-88845137D01*
X122742827Y-88784602D01*
X122776614Y-88717917D01*
X122797809Y-88644923D01*
X122805282Y-88558824D01*
X122799392Y-88488273D01*
X122781534Y-88417941D01*
X122750968Y-88346974D01*
X122707678Y-88285163D01*
X122648857Y-88236324D01*
X122571633Y-88199695D01*
X122637015Y-88165982D01*
X122685382Y-88126020D01*
X122719644Y-88079711D01*
X122741883Y-88025753D01*
X122757326Y-87949171D01*
X122757478Y-87946446D01*
X123003851Y-87946446D01*
X123305094Y-87946446D01*
X123319040Y-87880733D01*
X123338174Y-87831943D01*
X123361423Y-87796511D01*
X123402646Y-87759662D01*
X123457732Y-87731565D01*
X123530248Y-87712991D01*
X123624839Y-87706111D01*
X123730956Y-87712814D01*
X123806189Y-87730199D01*
X123866436Y-87759925D01*
X123906353Y-87797650D01*
X123930051Y-87844058D01*
X123938355Y-87902024D01*
X123931044Y-87947308D01*
X123909748Y-87984430D01*
X123872776Y-88015505D01*
X123796878Y-88049731D01*
X123666787Y-88085664D01*
X123506961Y-88121751D01*
X123349095Y-88163694D01*
X123245157Y-88202578D01*
X123181080Y-88237889D01*
X123115531Y-88296106D01*
X123068499Y-88367910D01*
X123038966Y-88456106D01*
X123028398Y-88565052D01*
X123037887Y-88663616D01*
X123065456Y-88751301D01*
X123110981Y-88830377D01*
X123175951Y-88902382D01*
X123252787Y-88958023D01*
X123347898Y-88999892D01*
X123465172Y-89026957D01*
X123609451Y-89036746D01*
X123727783Y-89028374D01*
X123833900Y-89004182D01*
X123929710Y-88964930D01*
X124016757Y-88910533D01*
X124077139Y-88856200D01*
X124124517Y-88793718D01*
X124159819Y-88722064D01*
X124160343Y-88720207D01*
X124350057Y-88720207D01*
X124350057Y-88989851D01*
X125573530Y-88989851D01*
X125573530Y-88720207D01*
X125121620Y-88720207D01*
X125121620Y-87477500D01*
X124803982Y-87477500D01*
X124803982Y-88720207D01*
X124350057Y-88720207D01*
X124160343Y-88720207D01*
X124183097Y-88639635D01*
X124193528Y-88544352D01*
X123890178Y-88544352D01*
X123879109Y-88608705D01*
X123855720Y-88660468D01*
X123820301Y-88702282D01*
X123771293Y-88735503D01*
X123691899Y-88762907D01*
X123587927Y-88772964D01*
X123507887Y-88766854D01*
X123444040Y-88750048D01*
X123393205Y-88724054D01*
X123352497Y-88686824D01*
X123328708Y-88642231D01*
X123320482Y-88587766D01*
X123328572Y-88538343D01*
X123351892Y-88499177D01*
X123392197Y-88467691D01*
X123451887Y-88442903D01*
X123588935Y-88405134D01*
X123849237Y-88342302D01*
X123961851Y-88308940D01*
X124046074Y-88271916D01*
X124107432Y-88232301D01*
X124165681Y-88174189D01*
X124207443Y-88105024D01*
X124233486Y-88022578D01*
X124242712Y-87923548D01*
X124232623Y-87823389D01*
X124203228Y-87734072D01*
X124154443Y-87653214D01*
X124084351Y-87579257D01*
X124002242Y-87522184D01*
X123902792Y-87479513D01*
X123782519Y-87452150D01*
X123637112Y-87442329D01*
X123488517Y-87451913D01*
X123364140Y-87478728D01*
X123260028Y-87520667D01*
X123172928Y-87576784D01*
X123112131Y-87634516D01*
X123065481Y-87699162D01*
X123031868Y-87771652D01*
X123011086Y-87853447D01*
X123003851Y-87946446D01*
X122757478Y-87946446D01*
X122763241Y-87843223D01*
X122763241Y-87741740D01*
X122765840Y-87646591D01*
X122771485Y-87601422D01*
X122792406Y-87550079D01*
X122828821Y-87515418D01*
X122828821Y-87477500D01*
X122481507Y-87477500D01*
X122460991Y-87558466D01*
X122447710Y-87688525D01*
X122445604Y-87828843D01*
X122437070Y-87924527D01*
X122418299Y-87985125D01*
X122392847Y-88021367D01*
X122355377Y-88045521D01*
X122295161Y-88062712D01*
X122202796Y-88069544D01*
X121876915Y-88069544D01*
X121876915Y-87477500D01*
X121568528Y-87477500D01*
X121568528Y-88731931D01*
X121401861Y-88731931D01*
X121401861Y-87275662D01*
X125740197Y-87275662D01*
X125740197Y-89203413D01*
G37*
D11*
%TO.C,J2*%
X150614900Y-93144800D02*
X150114900Y-92644800D01*
X150614900Y-92144800D01*
X150614900Y-93144800D01*
G36*
X150614900Y-93144800D02*
G01*
X150114900Y-92644800D01*
X150614900Y-92144800D01*
X150614900Y-93144800D01*
G37*
%TO.C,SW301*%
D12*
X120380000Y-87000000D02*
X120380000Y-89200000D01*
X126000000Y-84980000D02*
X121000000Y-84980000D01*
X126000000Y-91220000D02*
X121000000Y-91220000D01*
X126620000Y-89200000D02*
X126620000Y-87000000D01*
%TO.C,R2*%
X134212258Y-83552500D02*
X133737742Y-83552500D01*
X134212258Y-84597500D02*
X133737742Y-84597500D01*
%TO.C,C304*%
X128238748Y-92765000D02*
X128761252Y-92765000D01*
X128238748Y-94235000D02*
X128761252Y-94235000D01*
%TO.C,C1*%
X111011065Y-88261252D02*
X111011065Y-86838748D01*
X112831065Y-88261252D02*
X112831065Y-86838748D01*
%TO.C,R1*%
X111398565Y-83987258D02*
X111398565Y-83512742D01*
X112443565Y-83987258D02*
X112443565Y-83512742D01*
%TD*%
M02*
