%TF.GenerationSoftware,KiCad,Pcbnew,10.0.0*%
%TF.CreationDate,2026-04-03T19:02:08+02:00*%
%TF.ProjectId,Core_Module,436f7265-5f4d-46f6-9475-6c652e6b6963,2.0*%
%TF.SameCoordinates,Original*%
%TF.FileFunction,Copper,L1,Top*%
%TF.FilePolarity,Positive*%
%FSLAX46Y46*%
G04 Gerber Fmt 4.6, Leading zero omitted, Abs format (unit mm)*
G04 Created by KiCad (PCBNEW 10.0.0) date 2026-04-03 19:02:08*
%MOMM*%
%LPD*%
G01*
G04 APERTURE LIST*
G04 Aperture macros list*
%AMRoundRect*
0 Rectangle with rounded corners*
0 $1 Rounding radius*
0 $2 $3 $4 $5 $6 $7 $8 $9 X,Y pos of 4 corners*
0 Add a 4 corners polygon primitive as box body*
4,1,4,$2,$3,$4,$5,$6,$7,$8,$9,$2,$3,0*
0 Add four circle primitives for the rounded corners*
1,1,$1+$1,$2,$3*
1,1,$1+$1,$4,$5*
1,1,$1+$1,$6,$7*
1,1,$1+$1,$8,$9*
0 Add four rect primitives between the rounded corners*
20,1,$1+$1,$2,$3,$4,$5,0*
20,1,$1+$1,$4,$5,$6,$7,0*
20,1,$1+$1,$6,$7,$8,$9,0*
20,1,$1+$1,$8,$9,$2,$3,0*%
%AMFreePoly0*
4,1,6,0.230000,0.054289,0.020711,-0.155000,-0.230000,-0.155000,-0.230000,0.155000,0.230000,0.155000,0.230000,0.054289,0.230000,0.054289,$1*%
%AMFreePoly1*
4,1,6,0.230000,-0.054289,0.230000,-0.155000,-0.230000,-0.155000,-0.230000,0.155000,0.020711,0.155000,0.230000,-0.054289,0.230000,-0.054289,$1*%
%AMFreePoly2*
4,1,6,0.230000,-0.155000,-0.230000,-0.155000,-0.230000,-0.054289,-0.020711,0.155000,0.230000,0.155000,0.230000,-0.155000,0.230000,-0.155000,$1*%
%AMFreePoly3*
4,1,6,0.230000,-0.155000,-0.020711,-0.155000,-0.230000,0.054289,-0.230000,0.155000,0.230000,0.155000,0.230000,-0.155000,0.230000,-0.155000,$1*%
G04 Aperture macros list end*
%TA.AperFunction,NonConductor*%
%ADD10C,0.200000*%
%TD*%
%TA.AperFunction,SMDPad,CuDef*%
%ADD11RoundRect,0.100000X-0.100000X0.130000X-0.100000X-0.130000X0.100000X-0.130000X0.100000X0.130000X0*%
%TD*%
%TA.AperFunction,SMDPad,CuDef*%
%ADD12R,0.240000X0.170000*%
%TD*%
%TA.AperFunction,SMDPad,CuDef*%
%ADD13RoundRect,0.100000X-0.130000X-0.100000X0.130000X-0.100000X0.130000X0.100000X-0.130000X0.100000X0*%
%TD*%
%TA.AperFunction,SMDPad,CuDef*%
%ADD14RoundRect,0.100000X0.100000X-0.130000X0.100000X0.130000X-0.100000X0.130000X-0.100000X-0.130000X0*%
%TD*%
%TA.AperFunction,SMDPad,CuDef*%
%ADD15FreePoly0,270.000000*%
%TD*%
%TA.AperFunction,SMDPad,CuDef*%
%ADD16FreePoly1,270.000000*%
%TD*%
%TA.AperFunction,SMDPad,CuDef*%
%ADD17FreePoly2,270.000000*%
%TD*%
%TA.AperFunction,SMDPad,CuDef*%
%ADD18FreePoly3,270.000000*%
%TD*%
%TA.AperFunction,SMDPad,CuDef*%
%ADD19RoundRect,0.145000X-0.205061X0.000000X0.000000X-0.205061X0.205061X0.000000X0.000000X0.205061X0*%
%TD*%
%TA.AperFunction,SMDPad,CuDef*%
%ADD20RoundRect,0.100000X0.130000X0.100000X-0.130000X0.100000X-0.130000X-0.100000X0.130000X-0.100000X0*%
%TD*%
%TA.AperFunction,ComponentPad*%
%ADD21C,1.000000*%
%TD*%
%TA.AperFunction,ComponentPad*%
%ADD22O,3.000000X1.000000*%
%TD*%
%TA.AperFunction,SMDPad,CuDef*%
%ADD23R,0.170000X0.240000*%
%TD*%
%TA.AperFunction,SMDPad,CuDef*%
%ADD24RoundRect,0.045000X0.255000X0.105000X-0.255000X0.105000X-0.255000X-0.105000X0.255000X-0.105000X0*%
%TD*%
%TA.AperFunction,SMDPad,CuDef*%
%ADD25RoundRect,0.030000X-0.070000X0.370000X-0.070000X-0.370000X0.070000X-0.370000X0.070000X0.370000X0*%
%TD*%
%TA.AperFunction,ComponentPad*%
%ADD26O,1.000000X3.000000*%
%TD*%
%TA.AperFunction,SMDPad,CuDef*%
%ADD27R,0.500000X0.600000*%
%TD*%
%TA.AperFunction,BGAPad,CuDef*%
%ADD28C,0.270000*%
%TD*%
%TA.AperFunction,ViaPad*%
%ADD29C,0.250000*%
%TD*%
%TA.AperFunction,Conductor*%
%ADD30C,0.100000*%
%TD*%
G04 APERTURE END LIST*
D10*
X145400000Y-85300000D02*
X145000000Y-85300000D01*
X145200000Y-85050000D01*
X145400000Y-85300000D01*
%TA.AperFunction,NonConductor*%
G36*
X145400000Y-85300000D02*
G01*
X145000000Y-85300000D01*
X145200000Y-85050000D01*
X145400000Y-85300000D01*
G37*
%TD.AperFunction*%
D11*
%TO.P,C101,1*%
%TO.N,+3V3*%
X145250000Y-92130000D03*
%TO.P,C101,2*%
%TO.N,GND*%
X145250000Y-92770000D03*
%TD*%
D12*
%TO.P,D203,1,A1_1*%
%TO.N,GND*%
X153200000Y-94700000D03*
%TO.P,D203,2,A2_2*%
%TO.N,IOT_21A_G1*%
X153200000Y-95060000D03*
%TD*%
%TO.P,D211,1,A1_1*%
%TO.N,GND*%
X144300000Y-89620000D03*
%TO.P,D211,2,A2_2*%
%TO.N,RGB2*%
X144300000Y-89980000D03*
%TD*%
%TO.P,D214,1,A1_1*%
%TO.N,GND*%
X144300000Y-93430000D03*
%TO.P,D214,2,A2_2*%
%TO.N,IOB_4A*%
X144300000Y-93790000D03*
%TD*%
%TO.P,D219,1,A1_1*%
%TO.N,GND*%
X153200000Y-90890000D03*
%TO.P,D219,2,A2_2*%
%TO.N,IRLED*%
X153200000Y-91250000D03*
%TD*%
%TO.P,D213,1,A1_1*%
%TO.N,GND*%
X144300000Y-92160000D03*
%TO.P,D213,2,A2_2*%
%TO.N,IOB_5B*%
X144300000Y-92520000D03*
%TD*%
D13*
%TO.P,C116,1*%
%TO.N,+3V3*%
X151330000Y-90700000D03*
%TO.P,C116,2*%
%TO.N,GND*%
X151970000Y-90700000D03*
%TD*%
D14*
%TO.P,C107,1*%
%TO.N,+2V5_NVCM*%
X147650000Y-90520566D03*
%TO.P,C107,2*%
%TO.N,GND*%
X147650000Y-89880566D03*
%TD*%
D15*
%TO.P,U101,1,OUT_1*%
%TO.N,+1V2_CORE*%
X147150000Y-87920000D03*
D16*
%TO.P,U101,2,GND_2*%
%TO.N,GND*%
X146500000Y-87920000D03*
D17*
%TO.P,U101,3,EN_3*%
%TO.N,+5V*%
X146500000Y-88780000D03*
D18*
%TO.P,U101,4,IN_4*%
X147150000Y-88780000D03*
D19*
%TO.P,U101,5,Pad_5*%
%TO.N,GND*%
X146825000Y-88350000D03*
%TD*%
D20*
%TO.P,C105,1*%
%TO.N,+1V2_CORE*%
X147170000Y-87150000D03*
%TO.P,C105,2*%
%TO.N,GND*%
X146530000Y-87150000D03*
%TD*%
D12*
%TO.P,D226,1,A1_1*%
%TO.N,GND*%
X145200000Y-86262500D03*
%TO.P,D226,2,A2_2*%
%TO.N,~{CRESET}*%
X145200000Y-85902500D03*
%TD*%
D20*
%TO.P,C115,1*%
%TO.N,+3V3*%
X149370000Y-87150000D03*
%TO.P,C115,2*%
%TO.N,GND*%
X148730000Y-87150000D03*
%TD*%
D21*
%TO.P,J201,1,Pin_1_1*%
%TO.N,IOT_18B*%
X143250000Y-95060000D03*
D22*
X142250000Y-95060000D03*
D21*
%TO.P,J201,2,Pin_2_2*%
%TO.N,IOB_4A*%
X143250000Y-93790000D03*
D22*
X142250000Y-93790000D03*
D21*
%TO.P,J201,3,Pin_3_3*%
%TO.N,IOB_5B*%
X143250000Y-92520000D03*
D22*
X142250000Y-92520000D03*
D21*
%TO.P,J201,4,Pin_4_4*%
%TO.N,RGB1*%
X143250000Y-91250000D03*
D22*
X142250000Y-91250000D03*
D21*
%TO.P,J201,5,Pin_5_5*%
%TO.N,RGB2*%
X143250000Y-89980000D03*
D22*
X142250000Y-89980000D03*
D21*
%TO.P,J201,6,Pin_6_6*%
%TO.N,+5V*%
X143250000Y-88710000D03*
D22*
X142250000Y-88710000D03*
D21*
%TO.P,J201,7,Pin_7_7*%
%TO.N,GND*%
X143250000Y-87440000D03*
D22*
X142250000Y-87440000D03*
%TD*%
D14*
%TO.P,C112,1*%
%TO.N,+3V3*%
X148950000Y-94725000D03*
%TO.P,C112,2*%
%TO.N,GND*%
X148950000Y-94085000D03*
%TD*%
D23*
%TO.P,D206,1,A1_1*%
%TO.N,GND*%
X150380000Y-95700000D03*
%TO.P,D206,2,A2_2*%
%TO.N,IOB_6A*%
X150020000Y-95700000D03*
%TD*%
D14*
%TO.P,R103,1*%
%TO.N,+3V3*%
X144300000Y-87570000D03*
%TO.P,R103,2*%
%TO.N,Net-(D101-A)*%
X144300000Y-86930000D03*
%TD*%
D12*
%TO.P,D202,1,A1_1*%
%TO.N,GND*%
X153200000Y-93430000D03*
%TO.P,D202,2,A2_2*%
%TO.N,IOT_24B*%
X153200000Y-93790000D03*
%TD*%
D13*
%TO.P,R104,1*%
%TO.N,+3V3*%
X149930000Y-90700000D03*
%TO.P,R104,2*%
%TO.N,/FPGA/FLASH_~{WP}*%
X150570000Y-90700000D03*
%TD*%
D14*
%TO.P,C114,1*%
%TO.N,+5V*%
X150150000Y-88520000D03*
%TO.P,C114,2*%
%TO.N,GND*%
X150150000Y-87880000D03*
%TD*%
D12*
%TO.P,D223,1,A1_1*%
%TO.N,GND*%
X152450000Y-87197500D03*
%TO.P,D223,2,A2_2*%
%TO.N,FLASH_MISO*%
X152450000Y-86837500D03*
%TD*%
D24*
%TO.P,U105,1,~{CS}_1*%
%TO.N,FLASH_~{CS}*%
X152250000Y-94450000D03*
%TO.P,U105,2,SDO_2*%
%TO.N,FLASH_MISO*%
X152250000Y-93650000D03*
%TO.P,U105,3,~{WP}_3*%
%TO.N,/FPGA/FLASH_~{WP}*%
X152250000Y-92850000D03*
%TO.P,U105,4,GND_4*%
%TO.N,GND*%
X152250000Y-92050000D03*
D25*
X151050000Y-94050000D03*
X151050000Y-92450000D03*
D24*
%TO.P,U105,5,SDI_5*%
%TO.N,FLASH_MOSI*%
X149850000Y-92050000D03*
%TO.P,U105,6,SCK_6*%
%TO.N,FLASH_SCK*%
X149850000Y-92850000D03*
%TO.P,U105,7,~{HOLD}_7*%
%TO.N,/FPGA/FLASH_~{HOLD}*%
X149850000Y-93650000D03*
%TO.P,U105,8,VCC_8*%
%TO.N,+3V3*%
X149850000Y-94450000D03*
%TD*%
D14*
%TO.P,C104,1*%
%TO.N,+5V*%
X147950000Y-88520000D03*
%TO.P,C104,2*%
%TO.N,GND*%
X147950000Y-87880000D03*
%TD*%
D12*
%TO.P,D212,1,A1_1*%
%TO.N,GND*%
X144300000Y-90890000D03*
%TO.P,D212,2,A2_2*%
%TO.N,RGB1*%
X144300000Y-91250000D03*
%TD*%
D14*
%TO.P,C103,1*%
%TO.N,+1V2_CORE*%
X145250000Y-94470000D03*
%TO.P,C103,2*%
%TO.N,GND*%
X145250000Y-93830000D03*
%TD*%
D21*
%TO.P,J205,1,Pin_1_1*%
%TO.N,FLASH_~{CS}*%
X152560000Y-85750000D03*
D26*
X152560000Y-84750000D03*
D21*
%TO.P,J205,2,Pin_2_2*%
%TO.N,FLASH_MISO*%
X151290000Y-85750000D03*
D26*
X151290000Y-84750000D03*
D21*
%TO.P,J205,3,Pin_3_3*%
%TO.N,FLASH_SCK*%
X150020000Y-85750000D03*
D26*
X150020000Y-84750000D03*
D21*
%TO.P,J205,4,Pin_4_4*%
%TO.N,FLASH_MOSI*%
X148750000Y-85750000D03*
D26*
X148750000Y-84750000D03*
D21*
%TO.P,J205,5,Pin_5_5*%
%TO.N,CDONE*%
X147480000Y-85750000D03*
D26*
X147480000Y-84750000D03*
D21*
%TO.P,J205,6,Pin_6_6*%
%TO.N,~{CRESET}*%
X146210000Y-85750000D03*
D26*
X146210000Y-84750000D03*
%TD*%
D23*
%TO.P,D208,1,A1_1*%
%TO.N,GND*%
X147840000Y-95700000D03*
%TO.P,D208,2,A2_2*%
%TO.N,IOB_3B_G6*%
X147480000Y-95700000D03*
%TD*%
D21*
%TO.P,J203,1,Pin_1_1*%
%TO.N,IOT_25A*%
X154250000Y-87440000D03*
D22*
X155250000Y-87440000D03*
D21*
%TO.P,J203,2,Pin_2_2*%
%TO.N,IOT_19A*%
X154250000Y-88710000D03*
D22*
X155250000Y-88710000D03*
D21*
%TO.P,J203,3,Pin_3_3*%
%TO.N,BARCODE*%
X154250000Y-89980000D03*
D22*
X155250000Y-89980000D03*
D21*
%TO.P,J203,4,Pin_4_4*%
%TO.N,IRLED*%
X154250000Y-91250000D03*
D22*
X155250000Y-91250000D03*
D21*
%TO.P,J203,5,Pin_5_5*%
%TO.N,IOT_27A*%
X154250000Y-92520000D03*
D22*
X155250000Y-92520000D03*
D21*
%TO.P,J203,6,Pin_6_6*%
%TO.N,IOT_24B*%
X154250000Y-93790000D03*
D22*
X155250000Y-93790000D03*
D21*
%TO.P,J203,7,Pin_7_7*%
%TO.N,IOT_21A_G1*%
X154250000Y-95060000D03*
D22*
X155250000Y-95060000D03*
%TD*%
D12*
%TO.P,D224,1,A1_1*%
%TO.N,GND*%
X150200000Y-87147500D03*
%TO.P,D224,2,A2_2*%
%TO.N,FLASH_SCK*%
X150200000Y-86787500D03*
%TD*%
D15*
%TO.P,U104,1,OUT_1*%
%TO.N,+3V3*%
X149375000Y-87920000D03*
D16*
%TO.P,U104,2,GND_2*%
%TO.N,GND*%
X148725000Y-87920000D03*
D17*
%TO.P,U104,3,EN_3*%
%TO.N,+1V2_CORE*%
X148725000Y-88780000D03*
D18*
%TO.P,U104,4,IN_4*%
%TO.N,+5V*%
X149375000Y-88780000D03*
D19*
%TO.P,U104,5,Pad_5*%
%TO.N,GND*%
X149050000Y-88350000D03*
%TD*%
D12*
%TO.P,D220,1,A1_1*%
%TO.N,GND*%
X144300000Y-94700000D03*
%TO.P,D220,2,A2_2*%
%TO.N,IOT_18B*%
X144300000Y-95060000D03*
%TD*%
D23*
%TO.P,D205,1,A1_1*%
%TO.N,GND*%
X151650000Y-95700000D03*
%TO.P,D205,2,A2_2*%
%TO.N,IOB_10A*%
X151290000Y-95700000D03*
%TD*%
D14*
%TO.P,R105,1*%
%TO.N,+3V3*%
X148950000Y-92415000D03*
%TO.P,R105,2*%
%TO.N,/FPGA/FLASH_~{HOLD}*%
X148950000Y-91775000D03*
%TD*%
%TO.P,D101,1,K_1*%
%TO.N,/FPGA/LED*%
X143800000Y-85802500D03*
%TO.P,D101,2,A_2*%
%TO.N,Net-(D101-A)*%
X143800000Y-85162500D03*
%TD*%
D20*
%TO.P,C109,1*%
%TO.N,+2V5_NVCM*%
X151623199Y-87150000D03*
%TO.P,C109,2*%
%TO.N,GND*%
X150983199Y-87150000D03*
%TD*%
D12*
%TO.P,D201,1,A1_1*%
%TO.N,GND*%
X153200000Y-92160000D03*
%TO.P,D201,2,A2_2*%
%TO.N,IOT_27A*%
X153200000Y-92520000D03*
%TD*%
%TO.P,D218,1,A1_1*%
%TO.N,GND*%
X153200000Y-89620000D03*
%TO.P,D218,2,A2_2*%
%TO.N,BARCODE*%
X153200000Y-89980000D03*
%TD*%
D15*
%TO.P,U103,1,OUT_1*%
%TO.N,+2V5_NVCM*%
X151600000Y-87920000D03*
D16*
%TO.P,U103,2,GND_2*%
%TO.N,GND*%
X150950000Y-87920000D03*
D17*
%TO.P,U103,3,EN_3*%
%TO.N,+3V3*%
X150950000Y-88780000D03*
D18*
%TO.P,U103,4,IN_4*%
%TO.N,+5V*%
X151600000Y-88780000D03*
D19*
%TO.P,U103,5,Pad_5*%
%TO.N,GND*%
X151275000Y-88350000D03*
%TD*%
D27*
%TO.P,Y101,1,Tri-State_1*%
%TO.N,+3V3*%
X146100000Y-91100000D03*
%TO.P,Y101,2,GND_2*%
%TO.N,GND*%
X146100000Y-90000000D03*
%TO.P,Y101,3,OUT_3*%
%TO.N,/FPGA/OSC_OUT*%
X145300000Y-90000000D03*
%TO.P,Y101,4,VDD_4*%
%TO.N,+3V3*%
X145300000Y-91100000D03*
%TD*%
D12*
%TO.P,D215,1,A1_1*%
%TO.N,GND*%
X144300000Y-88350000D03*
%TO.P,D215,2,A2_2*%
%TO.N,+5V*%
X144300000Y-88710000D03*
%TD*%
%TO.P,D222,1,A1_1*%
%TO.N,GND*%
X153600000Y-85902500D03*
%TO.P,D222,2,A2_2*%
%TO.N,FLASH_~{CS}*%
X153600000Y-86262500D03*
%TD*%
D23*
%TO.P,D204,1,A1_1*%
%TO.N,GND*%
X152920000Y-95700000D03*
%TO.P,D204,2,A2_2*%
%TO.N,IOT_22B_G0*%
X152560000Y-95700000D03*
%TD*%
%TO.P,D207,1,A1_1*%
%TO.N,GND*%
X149110000Y-95700000D03*
%TO.P,D207,2,A2_2*%
%TO.N,IOB_7B_G5*%
X148750000Y-95700000D03*
%TD*%
D14*
%TO.P,R101,1*%
%TO.N,12MHZ_CLK*%
X146950000Y-90522170D03*
%TO.P,R101,2*%
%TO.N,/FPGA/OSC_OUT*%
X146950000Y-89882170D03*
%TD*%
D12*
%TO.P,D217,1,A1_1*%
%TO.N,GND*%
X153200000Y-88350000D03*
%TO.P,D217,2,A2_2*%
%TO.N,IOT_19A*%
X153200000Y-88710000D03*
%TD*%
D28*
%TO.P,U102,A1,RGB2_A1*%
%TO.N,RGB2*%
X146100000Y-92700000D03*
%TO.P,U102,A2,RGB0_A2*%
%TO.N,/FPGA/LED*%
X146500000Y-92700000D03*
%TO.P,U102,A3,IOT_25A_A3*%
%TO.N,IOT_25A*%
X146900000Y-92700000D03*
%TO.P,U102,A4,IOT_19A_A4*%
%TO.N,IOT_19A*%
X147300000Y-92700000D03*
%TO.P,U102,A5,BARCODE_A5*%
%TO.N,BARCODE*%
X147700000Y-92700000D03*
%TO.P,U102,A6,IRLED_A6*%
%TO.N,IRLED*%
X148100000Y-92700000D03*
%TO.P,U102,B1,RGB1_B1*%
%TO.N,RGB1*%
X146100000Y-93100000D03*
%TO.P,U102,B2,IOT_24B_B2*%
%TO.N,IOT_24B*%
X146500000Y-93100000D03*
%TO.P,U102,B3,VCCIO0_B3*%
%TO.N,+3V3*%
X146900000Y-93100000D03*
%TO.P,U102,B4,VPP2V5_B4*%
%TO.N,+2V5_NVCM*%
X147300000Y-93100000D03*
%TO.P,U102,B5,IOT_18B_B5*%
%TO.N,IOT_18B*%
X147700000Y-93100000D03*
%TO.P,U102,B6,IOT_21A_G1_B6*%
%TO.N,IOT_21A_G1*%
X148100000Y-93100000D03*
%TO.P,U102,C1,IOB_5B_C1*%
%TO.N,IOB_5B*%
X146100000Y-93500000D03*
%TO.P,U102,C2,IOT_27A_C2*%
%TO.N,IOT_27A*%
X146500000Y-93500000D03*
%TO.P,U102,C3,GND_C3*%
%TO.N,GND*%
X146900000Y-93500000D03*
%TO.P,U102,C4,GND_C4*%
X147300000Y-93500000D03*
%TO.P,U102,C5,GND_LED_C5*%
X147700000Y-93500000D03*
%TO.P,U102,C6,IOT_22B_G0_C6*%
%TO.N,IOT_22B_G0*%
X148100000Y-93500000D03*
%TO.P,U102,D1,IOB_4A_D1*%
%TO.N,IOB_4A*%
X146100000Y-93900000D03*
%TO.P,U102,D2,IOB_8A_G4_D2*%
%TO.N,12MHZ_CLK*%
X146500000Y-93900000D03*
%TO.P,U102,D3,VCC_D3*%
%TO.N,+1V2_CORE*%
X146900000Y-93900000D03*
%TO.P,U102,D4,VCCPLL_D4*%
X147300000Y-93900000D03*
%TO.P,U102,D5,IOB_11B_CDONE_D5*%
%TO.N,CDONE*%
X147700000Y-93900000D03*
%TO.P,U102,D6,IOB_10A_D6*%
%TO.N,IOB_10A*%
X148100000Y-93900000D03*
%TO.P,U102,E1,IOB_1B_E1*%
%TO.N,IOB_1B*%
X146100000Y-94300000D03*
%TO.P,U102,E2,IOB_6A_E2*%
%TO.N,IOB_6A*%
X146500000Y-94300000D03*
%TO.P,U102,E3,VCCIO2_E3*%
%TO.N,+3V3*%
X146900000Y-94300000D03*
%TO.P,U102,E4,SPI_VCCIO1_E4*%
X147300000Y-94300000D03*
%TO.P,U102,E5,IOB_15B_SI_E5*%
%TO.N,FLASH_MISO*%
X147700000Y-94300000D03*
%TO.P,U102,E6,IOB_16A_SCK_E6*%
%TO.N,FLASH_SCK*%
X148100000Y-94300000D03*
%TO.P,U102,F1,IOB_0A_F1*%
%TO.N,IOB_0A*%
X146100000Y-94700000D03*
%TO.P,U102,F2,IOB_3B_G6_F2*%
%TO.N,IOB_3B_G6*%
X146500000Y-94700000D03*
%TO.P,U102,F3,IOB_7B_G5_F3*%
%TO.N,IOB_7B_G5*%
X146900000Y-94700000D03*
%TO.P,U102,F4,~{CRESET}_F4*%
%TO.N,~{CRESET}*%
X147300000Y-94700000D03*
%TO.P,U102,F5,IOB_17B_SS_F5*%
%TO.N,FLASH_~{CS}*%
X147700000Y-94700000D03*
%TO.P,U102,F6,IOB_14A_SO_F6*%
%TO.N,FLASH_MOSI*%
X148100000Y-94700000D03*
%TD*%
D14*
%TO.P,C110,1*%
%TO.N,+5V*%
X145700000Y-88520000D03*
%TO.P,C110,2*%
%TO.N,GND*%
X145700000Y-87880000D03*
%TD*%
D12*
%TO.P,D216,1,A1_1*%
%TO.N,GND*%
X153200000Y-87080000D03*
%TO.P,D216,2,A2_2*%
%TO.N,IOT_25A*%
X153200000Y-87440000D03*
%TD*%
D21*
%TO.P,J202,1,Pin_1_1*%
%TO.N,IOT_22B_G0*%
X152560000Y-96750000D03*
D26*
X152560000Y-97750000D03*
D21*
%TO.P,J202,2,Pin_2_2*%
%TO.N,IOB_10A*%
X151290000Y-96750000D03*
D26*
X151290000Y-97750000D03*
D21*
%TO.P,J202,3,Pin_3_3*%
%TO.N,IOB_6A*%
X150020000Y-96750000D03*
D26*
X150020000Y-97750000D03*
D21*
%TO.P,J202,4,Pin_4_4*%
%TO.N,IOB_7B_G5*%
X148750000Y-96750000D03*
D26*
X148750000Y-97750000D03*
D21*
%TO.P,J202,5,Pin_5_5*%
%TO.N,IOB_3B_G6*%
X147480000Y-96750000D03*
D26*
X147480000Y-97750000D03*
D21*
%TO.P,J202,6,Pin_6_6*%
%TO.N,IOB_0A*%
X146210000Y-96750000D03*
D26*
X146210000Y-97750000D03*
D21*
%TO.P,J202,7,Pin_7_7*%
%TO.N,IOB_1B*%
X144940000Y-96750000D03*
D26*
X144940000Y-97750000D03*
%TD*%
D14*
%TO.P,C108,1*%
%TO.N,+5V*%
X152400000Y-88670000D03*
%TO.P,C108,2*%
%TO.N,GND*%
X152400000Y-88030000D03*
%TD*%
D23*
%TO.P,D209,1,A1_1*%
%TO.N,GND*%
X145300000Y-95700000D03*
%TO.P,D209,2,A2_2*%
%TO.N,IOB_1B*%
X144940000Y-95700000D03*
%TD*%
D14*
%TO.P,C113,1*%
%TO.N,+3V3*%
X146850000Y-91870000D03*
%TO.P,C113,2*%
%TO.N,GND*%
X146850000Y-91230000D03*
%TD*%
%TO.P,D102,1,K_1*%
%TO.N,GND*%
X144500000Y-85802500D03*
%TO.P,D102,2,A_2*%
%TO.N,CDONE*%
X144500000Y-85162500D03*
%TD*%
%TO.P,R106,1*%
%TO.N,+3V3*%
X145000000Y-87570000D03*
%TO.P,R106,2*%
%TO.N,CDONE*%
X145000000Y-86930000D03*
%TD*%
D12*
%TO.P,D221,1,A1_1*%
%TO.N,GND*%
X145750000Y-87147500D03*
%TO.P,D221,2,A2_2*%
%TO.N,CDONE*%
X145750000Y-86787500D03*
%TD*%
D23*
%TO.P,D210,1,A1_1*%
%TO.N,GND*%
X146570000Y-95700000D03*
%TO.P,D210,2,A2_2*%
%TO.N,IOB_0A*%
X146210000Y-95700000D03*
%TD*%
D12*
%TO.P,D225,1,A1_1*%
%TO.N,GND*%
X148000000Y-87147500D03*
%TO.P,D225,2,A2_2*%
%TO.N,FLASH_MOSI*%
X148000000Y-86787500D03*
%TD*%
D29*
%TO.N,+3V3*%
X145250000Y-92130000D03*
X144650000Y-87570000D03*
X145300000Y-91100000D03*
X149930000Y-90700000D03*
X148950000Y-94725000D03*
X148950000Y-92415000D03*
X146900000Y-93100000D03*
X149850000Y-94450000D03*
X151330000Y-90700000D03*
X150950000Y-88780000D03*
X146850000Y-91870000D03*
X147300000Y-94300000D03*
X149370000Y-87150000D03*
%TO.N,GND*%
X146825000Y-88350000D03*
X144300000Y-94700000D03*
X149050000Y-88350000D03*
X151275000Y-88370000D03*
X152920000Y-95700000D03*
X145250000Y-92770000D03*
X149450000Y-94085000D03*
X144300000Y-88350000D03*
X153200000Y-87080000D03*
X145300000Y-95700000D03*
X152400000Y-88030000D03*
X153200000Y-92160000D03*
X146570000Y-95700000D03*
X153200000Y-88350000D03*
X144500000Y-85802500D03*
X153200000Y-94700000D03*
X152250000Y-92050000D03*
X146850000Y-91150000D03*
X153200000Y-89620000D03*
X150150000Y-87880000D03*
X145250000Y-93830000D03*
X151970000Y-90700000D03*
X151050000Y-94050000D03*
X145200000Y-86262500D03*
X147300000Y-93500000D03*
X153600000Y-85902500D03*
X153200000Y-93430000D03*
X145750000Y-87147500D03*
X152450000Y-87197500D03*
X144300000Y-92160000D03*
X148000000Y-87147500D03*
X151050000Y-91950000D03*
X148950000Y-93175000D03*
X147840000Y-95700000D03*
X146100000Y-90000000D03*
X144300000Y-89620000D03*
X144300000Y-93430000D03*
X144300000Y-90890000D03*
X149110000Y-95700000D03*
X151650000Y-95700000D03*
X150380000Y-95700000D03*
X153200000Y-90890000D03*
%TO.N,IOT_21A_G1*%
X152575000Y-94850000D03*
X149750000Y-92475000D03*
%TO.N,+2V5_NVCM*%
X147725000Y-90520566D03*
X151600000Y-87920000D03*
X147300000Y-93100000D03*
%TO.N,+1V2_CORE*%
X147170000Y-87150000D03*
X148725000Y-88780000D03*
X145250000Y-94470000D03*
X146900000Y-93900000D03*
%TO.N,~{CRESET}*%
X145200000Y-85902500D03*
X148400000Y-95350000D03*
%TO.N,IOT_18B*%
X145700000Y-89500000D03*
X148150000Y-90450000D03*
X144700000Y-94800000D03*
X147700000Y-93100000D03*
%TO.N,IOB_6A*%
X150020000Y-95700000D03*
X146500000Y-94300000D03*
%TO.N,IOT_24B*%
X146500000Y-93100000D03*
X153200000Y-93790000D03*
%TO.N,FLASH_MISO*%
X152450000Y-86837500D03*
X147700000Y-94300000D03*
X152250000Y-93650000D03*
X151450000Y-92350000D03*
%TO.N,FLASH_~{CS}*%
X153200000Y-91700000D03*
X153600000Y-86262500D03*
%TO.N,FLASH_MOSI*%
X149932630Y-91325000D03*
X148000000Y-86787500D03*
%TO.N,FLASH_SCK*%
X150700000Y-91650000D03*
X149850000Y-92850000D03*
X150200000Y-86787500D03*
X150700000Y-93700000D03*
%TO.N,CDONE*%
X148500000Y-92500000D03*
X148500000Y-91750000D03*
X148500000Y-89625000D03*
X145000000Y-86930000D03*
X148500000Y-90450000D03*
X147700000Y-93900000D03*
%TO.N,IOT_27A*%
X146500000Y-93500000D03*
X153200000Y-92520000D03*
%TO.N,IOB_10A*%
X148100000Y-93900000D03*
X151290000Y-95700000D03*
%TO.N,/FPGA/LED*%
X143800000Y-85802500D03*
X144623275Y-89438539D03*
%TO.N,IOT_22B_G0*%
X152560000Y-95700000D03*
X148600000Y-93200000D03*
%TO.N,12MHZ_CLK*%
X146500000Y-93900000D03*
X146900000Y-90522170D03*
%TD*%
%TO.N,+3V3*%
D30*
X144300000Y-87570000D02*
X144650000Y-87570000D01*
X147300000Y-94300000D02*
X146900000Y-94300000D01*
X146100000Y-91100000D02*
X145300000Y-91100000D01*
X144650000Y-87570000D02*
X145000000Y-87570000D01*
%TO.N,GND*%
X146850000Y-91150000D02*
X146908494Y-91150000D01*
X146908494Y-91150000D02*
X147300000Y-90758494D01*
X147300000Y-90080566D02*
X147550000Y-89830566D01*
X147300000Y-93500000D02*
X146900000Y-93500000D01*
X151050000Y-92450000D02*
X151050000Y-91950000D01*
X148950000Y-94085000D02*
X149450000Y-94085000D01*
X147300000Y-90758494D02*
X147300000Y-90080566D01*
X147700000Y-93500000D02*
X147300000Y-93500000D01*
%TO.N,IOT_21A_G1*%
X152785000Y-95060000D02*
X152575000Y-94850000D01*
X148353051Y-92850000D02*
X148218051Y-92985000D01*
X148215000Y-92985000D02*
X148100000Y-93100000D01*
X154250000Y-95060000D02*
X152785000Y-95060000D01*
X149575000Y-92475000D02*
X149200000Y-92850000D01*
X149750000Y-92475000D02*
X149575000Y-92475000D01*
X148218051Y-92985000D02*
X148215000Y-92985000D01*
X149200000Y-92850000D02*
X148353051Y-92850000D01*
%TO.N,RGB2*%
X146100000Y-92110833D02*
X146100000Y-92700000D01*
X144300000Y-89980000D02*
X143250000Y-89980000D01*
X144950000Y-91550000D02*
X145539166Y-91550000D01*
X144575000Y-90255000D02*
X144300000Y-89980000D01*
X144575000Y-91175000D02*
X144575000Y-90255000D01*
X145539166Y-91550000D02*
X146100000Y-92110833D01*
X144950000Y-91550000D02*
X144575000Y-91175000D01*
%TO.N,IOB_4A*%
X145030000Y-93450000D02*
X144690000Y-93790000D01*
X145459082Y-93450000D02*
X145030000Y-93450000D01*
X144690000Y-93790000D02*
X143250000Y-93790000D01*
X145909082Y-93900000D02*
X145459082Y-93450000D01*
X146100000Y-93900000D02*
X145909082Y-93900000D01*
%TO.N,IRLED*%
X152106324Y-90250000D02*
X149565684Y-90250000D01*
X149565684Y-90250000D02*
X149450000Y-90365684D01*
X149450000Y-90365684D02*
X149450000Y-91000000D01*
X153106324Y-91250000D02*
X152106324Y-90250000D01*
X148100000Y-91632842D02*
X148100000Y-92700000D01*
X154250000Y-91250000D02*
X153200000Y-91250000D01*
X149055000Y-91395000D02*
X148337842Y-91395000D01*
X153200000Y-91250000D02*
X153106324Y-91250000D01*
X148337842Y-91395000D02*
X148100000Y-91632842D01*
X149450000Y-91000000D02*
X149055000Y-91395000D01*
%TO.N,IOB_5B*%
X145000000Y-93150000D02*
X144750000Y-92900000D01*
X146100000Y-93500000D02*
X145900000Y-93500000D01*
X144750000Y-92900000D02*
X144750000Y-92770000D01*
X145550000Y-93150000D02*
X145000000Y-93150000D01*
X144750000Y-92770000D02*
X144500000Y-92520000D01*
X145900000Y-93500000D02*
X145550000Y-93150000D01*
X144500000Y-92520000D02*
X143250000Y-92520000D01*
%TO.N,+1V2_CORE*%
X147300000Y-93900000D02*
X146900000Y-93900000D01*
%TO.N,~{CRESET}*%
X147634082Y-95225000D02*
X147300000Y-94890918D01*
X146057500Y-85902500D02*
X146210000Y-85750000D01*
X148400000Y-95350000D02*
X148275000Y-95225000D01*
X147300000Y-94890918D02*
X147300000Y-94700000D01*
X148275000Y-95225000D02*
X147634082Y-95225000D01*
X145200000Y-85902500D02*
X146057500Y-85902500D01*
%TO.N,IOT_18B*%
X144700000Y-94950000D02*
X144590000Y-95060000D01*
X148150000Y-90450000D02*
X148150000Y-89794242D01*
X147856324Y-89500566D02*
X145700566Y-89500566D01*
X144590000Y-95060000D02*
X143250000Y-95060000D01*
X148150000Y-89794242D02*
X147856324Y-89500566D01*
X144700000Y-94800000D02*
X144700000Y-94950000D01*
X145700566Y-89500566D02*
X145700000Y-89500000D01*
%TO.N,RGB1*%
X145815000Y-93005918D02*
X145909082Y-93100000D01*
X145815000Y-92108676D02*
X145815000Y-93005918D01*
X144300000Y-91250000D02*
X143250000Y-91250000D01*
X144800000Y-91750000D02*
X144300000Y-91250000D01*
X145456324Y-91750000D02*
X145815000Y-92108676D01*
X145909082Y-93100000D02*
X146100000Y-93100000D01*
X145456324Y-91750000D02*
X144800000Y-91750000D01*
%TO.N,IOB_6A*%
X150020000Y-95700000D02*
X150020000Y-96750000D01*
%TO.N,Net-(D101-A)*%
X143800000Y-85162500D02*
X143400000Y-85562500D01*
X144230000Y-86930000D02*
X144300000Y-86930000D01*
X143400000Y-85562500D02*
X143400000Y-86100000D01*
X143400000Y-86100000D02*
X144230000Y-86930000D01*
%TO.N,IOT_24B*%
X154250000Y-93790000D02*
X153200000Y-93790000D01*
%TO.N,/FPGA/FLASH_~{WP}*%
X152250000Y-92687018D02*
X150570000Y-91007018D01*
X152250000Y-92850000D02*
X152250000Y-92687018D01*
X150570000Y-91007018D02*
X150570000Y-90700000D01*
%TO.N,FLASH_MISO*%
X151450000Y-92350000D02*
X151450000Y-92850000D01*
X151290000Y-85750000D02*
X152377500Y-86837500D01*
X152377500Y-86837500D02*
X152450000Y-86837500D01*
X151450000Y-92850000D02*
X152250000Y-93650000D01*
%TO.N,FLASH_~{CS}*%
X148600000Y-95000000D02*
X148850000Y-95250000D01*
X152560000Y-85750000D02*
X153072500Y-86262500D01*
X147996949Y-95000000D02*
X148600000Y-95000000D01*
X153072500Y-86262500D02*
X153600000Y-86262500D01*
X147700000Y-94703051D02*
X147996949Y-95000000D01*
X152750000Y-93950000D02*
X152750000Y-91900000D01*
X152750000Y-91900000D02*
X152950000Y-91700000D01*
X151450000Y-95250000D02*
X152250000Y-94450000D01*
X148850000Y-95250000D02*
X151450000Y-95250000D01*
X147700000Y-94700000D02*
X147700000Y-94703051D01*
X152250000Y-94450000D02*
X152750000Y-93950000D01*
X152950000Y-91700000D02*
X153200000Y-91700000D01*
%TO.N,FLASH_MOSI*%
X149850000Y-92050000D02*
X149850000Y-91407630D01*
X150050000Y-92050000D02*
X149850000Y-92050000D01*
X149145000Y-93705000D02*
X149600000Y-93250000D01*
X148600000Y-93848676D02*
X148743676Y-93705000D01*
X150300000Y-92300000D02*
X150050000Y-92050000D01*
X149850000Y-91407630D02*
X149932630Y-91325000D01*
X149600000Y-93250000D02*
X150100000Y-93250000D01*
X148600000Y-94550000D02*
X148600000Y-93848676D01*
X150100000Y-93250000D02*
X150300000Y-93050000D01*
X148100000Y-94700000D02*
X148450000Y-94700000D01*
X148000000Y-86500000D02*
X148750000Y-85750000D01*
X148000000Y-86787500D02*
X148000000Y-86500000D01*
X148450000Y-94700000D02*
X148600000Y-94550000D01*
X150300000Y-93050000D02*
X150300000Y-92300000D01*
X148743676Y-93705000D02*
X149145000Y-93705000D01*
%TO.N,FLASH_SCK*%
X149700000Y-92850000D02*
X149850000Y-92850000D01*
X150200000Y-85930000D02*
X150020000Y-85750000D01*
X150700000Y-93700000D02*
X150700000Y-91650000D01*
X148400000Y-94003051D02*
X148400000Y-93765834D01*
X149045000Y-93505000D02*
X149700000Y-92850000D01*
X150200000Y-86787500D02*
X150200000Y-85930000D01*
X148103051Y-94300000D02*
X148400000Y-94003051D01*
X148100000Y-94300000D02*
X148103051Y-94300000D01*
X148400000Y-93765834D02*
X148660833Y-93505000D01*
X148660833Y-93505000D02*
X149045000Y-93505000D01*
%TO.N,/FPGA/FLASH_~{HOLD}*%
X149137842Y-91595000D02*
X149130000Y-91595000D01*
X150200000Y-91050000D02*
X149682842Y-91050000D01*
X149850000Y-93650000D02*
X150149999Y-93650000D01*
X150300000Y-91150000D02*
X150200000Y-91050000D01*
X150500000Y-93299999D02*
X150500000Y-92050000D01*
X150500000Y-92050000D02*
X150300000Y-91850000D01*
X150149999Y-93650000D02*
X150500000Y-93299999D01*
X149130000Y-91595000D02*
X148950000Y-91775000D01*
X149682842Y-91050000D02*
X149137842Y-91595000D01*
X150300000Y-91850000D02*
X150300000Y-91150000D01*
%TO.N,CDONE*%
X144150000Y-86080000D02*
X144150000Y-85512500D01*
X146442500Y-86787500D02*
X147480000Y-85750000D01*
X145142500Y-86787500D02*
X145750000Y-86787500D01*
X148500000Y-89625000D02*
X148500000Y-90450000D01*
X144150000Y-85512500D02*
X144500000Y-85162500D01*
X145000000Y-86930000D02*
X144150000Y-86080000D01*
X145750000Y-86787500D02*
X146442500Y-86787500D01*
X145000000Y-86930000D02*
X145142500Y-86787500D01*
X148500000Y-91750000D02*
X148500000Y-92500000D01*
%TO.N,IOB_3B_G6*%
X146500000Y-94890918D02*
X147309082Y-95700000D01*
X147480000Y-95700000D02*
X147480000Y-96750000D01*
X146500000Y-94700000D02*
X146500000Y-94890918D01*
X147309082Y-95700000D02*
X147480000Y-95700000D01*
%TO.N,IOT_25A*%
X149317158Y-89650000D02*
X152400000Y-89650000D01*
X148850000Y-90117157D02*
X149317158Y-89650000D01*
X147200000Y-92154541D02*
X147200000Y-91650000D01*
X152900000Y-89150000D02*
X152900000Y-87600000D01*
X146900000Y-92454541D02*
X147200000Y-92154541D01*
X147200000Y-91650000D02*
X148060000Y-90790000D01*
X148850000Y-90717158D02*
X148850000Y-90117157D01*
X152900000Y-87600000D02*
X153060000Y-87440000D01*
X148777158Y-90790000D02*
X148850000Y-90717158D01*
X146900000Y-92700000D02*
X146900000Y-92454541D01*
X153060000Y-87440000D02*
X153200000Y-87440000D01*
X148060000Y-90790000D02*
X148777158Y-90790000D01*
X154250000Y-87440000D02*
X153200000Y-87440000D01*
X152400000Y-89650000D02*
X152900000Y-89150000D01*
%TO.N,IOT_19A*%
X147500000Y-91650000D02*
X148160000Y-90990000D01*
X154250000Y-88710000D02*
X153200000Y-88710000D01*
X152550000Y-89850000D02*
X153200000Y-89200000D01*
X153200000Y-89200000D02*
X153200000Y-88710000D01*
X149050000Y-90200000D02*
X149400000Y-89850000D01*
X147300000Y-92700000D02*
X147300000Y-92475000D01*
X149050000Y-90800000D02*
X149050000Y-90200000D01*
X149399999Y-89850000D02*
X152550000Y-89850000D01*
X148160000Y-90990000D02*
X148860000Y-90990000D01*
X147500000Y-92275000D02*
X147500000Y-91650000D01*
X147300000Y-92475000D02*
X147500000Y-92275000D01*
X148860000Y-90990000D02*
X149050000Y-90800000D01*
%TO.N,BARCODE*%
X154250000Y-89980000D02*
X153200000Y-89980000D01*
X148960000Y-91190000D02*
X149250000Y-90900000D01*
X149250000Y-90900000D02*
X149250000Y-90282842D01*
X153120000Y-89980000D02*
X153200000Y-89980000D01*
X148260000Y-91190000D02*
X148960000Y-91190000D01*
X153050000Y-90050000D02*
X153120000Y-89980000D01*
X147700000Y-92500000D02*
X147800000Y-92400000D01*
X147800000Y-91650000D02*
X148260000Y-91190000D01*
X149250000Y-90282842D02*
X149482842Y-90050000D01*
X147700000Y-92700000D02*
X147700000Y-92500000D01*
X149482842Y-90050000D02*
X153050000Y-90050000D01*
X147800000Y-92400000D02*
X147800000Y-91650000D01*
%TO.N,IOT_27A*%
X154250000Y-92520000D02*
X153200000Y-92520000D01*
%TO.N,IOB_10A*%
X151290000Y-95700000D02*
X151290000Y-96750000D01*
%TO.N,/FPGA/LED*%
X146500000Y-90700000D02*
X146500000Y-92700000D01*
X144775000Y-89590264D02*
X144775000Y-90325000D01*
X146450000Y-90650000D02*
X146500000Y-90700000D01*
X145100000Y-90650000D02*
X146450000Y-90650000D01*
X144623275Y-89438539D02*
X144775000Y-89590264D01*
X144775000Y-90325000D02*
X145100000Y-90650000D01*
%TO.N,/FPGA/OSC_OUT*%
X145300000Y-90300000D02*
X145450000Y-90450000D01*
X146500000Y-90100000D02*
X146717830Y-89882170D01*
X145450000Y-90450000D02*
X146450000Y-90450000D01*
X146500000Y-90400000D02*
X146500000Y-90100000D01*
X145300000Y-90000000D02*
X145300000Y-90300000D01*
X146450000Y-90450000D02*
X146500000Y-90400000D01*
X146717830Y-89882170D02*
X146950000Y-89882170D01*
%TO.N,IOT_22B_G0*%
X148550000Y-93200000D02*
X148250000Y-93500000D01*
X148600000Y-93200000D02*
X148550000Y-93200000D01*
X148250000Y-93500000D02*
X148100000Y-93500000D01*
X152560000Y-95700000D02*
X152560000Y-96750000D01*
%TO.N,IOB_7B_G5*%
X147991027Y-95425000D02*
X148266027Y-95700000D01*
X146900000Y-94700000D02*
X146900000Y-94890918D01*
X148266027Y-95700000D02*
X148750000Y-95700000D01*
X148750000Y-95700000D02*
X148750000Y-96750000D01*
X147434082Y-95425000D02*
X147991027Y-95425000D01*
X146900000Y-94890918D02*
X147434082Y-95425000D01*
%TO.N,IOB_1B*%
X145800000Y-94409082D02*
X145800000Y-94800000D01*
X144940000Y-95460000D02*
X144940000Y-95700000D01*
X146100000Y-94300000D02*
X145909082Y-94300000D01*
X144940000Y-95700000D02*
X144940000Y-96750000D01*
X145800000Y-94800000D02*
X145300000Y-95300000D01*
X145300000Y-95300000D02*
X145100000Y-95300000D01*
X145100000Y-95300000D02*
X144940000Y-95460000D01*
X145909082Y-94300000D02*
X145800000Y-94409082D01*
%TO.N,IOB_0A*%
X146210000Y-95360000D02*
X146100000Y-95250000D01*
X146100000Y-95250000D02*
X146100000Y-94700000D01*
X146210000Y-95700000D02*
X146210000Y-95360000D01*
X146210000Y-95700000D02*
X146210000Y-96750000D01*
%TD*%
%TA.AperFunction,Conductor*%
%TO.N,+3V3*%
G36*
X149815908Y-86904843D02*
G01*
X149828595Y-86908966D01*
X149878095Y-86944927D01*
X149878096Y-86944928D01*
X149881091Y-86949050D01*
X149900000Y-87007240D01*
X149897076Y-87016239D01*
X149899999Y-87568358D01*
X149895736Y-87597623D01*
X149887576Y-87624520D01*
X149875157Y-87650779D01*
X149861135Y-87671764D01*
X149861131Y-87671774D01*
X149849500Y-87730245D01*
X149849500Y-87995500D01*
X149830593Y-88053691D01*
X149781093Y-88089655D01*
X149760802Y-88093963D01*
X149755669Y-88094500D01*
X149664050Y-88094500D01*
X149631451Y-88099663D01*
X149604649Y-88108370D01*
X149594685Y-88111343D01*
X149594676Y-88111344D01*
X149577665Y-88116421D01*
X149577653Y-88116425D01*
X149547911Y-88130677D01*
X149546944Y-88131345D01*
X149544801Y-88132862D01*
X149520710Y-88150364D01*
X149462518Y-88169267D01*
X149404329Y-88150356D01*
X149392522Y-88140271D01*
X149218449Y-87966200D01*
X149206497Y-87954248D01*
X149206496Y-87954247D01*
X149145790Y-87913683D01*
X149082820Y-87901156D01*
X149071567Y-87895760D01*
X149070134Y-87894394D01*
X149065999Y-87892869D01*
X149058704Y-87888783D01*
X149054361Y-87886351D01*
X149012835Y-87841424D01*
X149009094Y-87833309D01*
X149000000Y-87791862D01*
X149000000Y-87446082D01*
X149004262Y-87417345D01*
X149012423Y-87390441D01*
X149024841Y-87364187D01*
X149048867Y-87328231D01*
X149060500Y-87269748D01*
X149060500Y-87030252D01*
X149060499Y-87030251D01*
X149060023Y-87025408D01*
X149060857Y-87025325D01*
X149059968Y-87002745D01*
X149060412Y-86999000D01*
X149061535Y-86989499D01*
X149086595Y-86934538D01*
X149086625Y-86934505D01*
X149134886Y-86905307D01*
X149142935Y-86903207D01*
X149167928Y-86900000D01*
X149785320Y-86900000D01*
X149815908Y-86904843D01*
G37*
%TD.AperFunction*%
%TD*%
%TA.AperFunction,Conductor*%
%TO.N,+1V2_CORE*%
G36*
X147565908Y-86904843D02*
G01*
X147578595Y-86908966D01*
X147628095Y-86944927D01*
X147628096Y-86944928D01*
X147631091Y-86949050D01*
X147650000Y-87007240D01*
X147647060Y-87016286D01*
X147649999Y-87717466D01*
X147649880Y-87722748D01*
X147649642Y-87727583D01*
X147649609Y-87728030D01*
X147649500Y-87730256D01*
X147649500Y-87995500D01*
X147630593Y-88053691D01*
X147581093Y-88089655D01*
X147550500Y-88094500D01*
X147439047Y-88094500D01*
X147406452Y-88099662D01*
X147406443Y-88099664D01*
X147387880Y-88105695D01*
X147387874Y-88105697D01*
X147379649Y-88108370D01*
X147352654Y-88116425D01*
X147322915Y-88130676D01*
X147321919Y-88131363D01*
X147319809Y-88132857D01*
X147289134Y-88155142D01*
X147281853Y-88158789D01*
X147259252Y-88162206D01*
X147237518Y-88169267D01*
X147229594Y-88166691D01*
X147221355Y-88167938D01*
X147201063Y-88157419D01*
X147179329Y-88150356D01*
X147167522Y-88140271D01*
X146981497Y-87954248D01*
X146981496Y-87954247D01*
X146920790Y-87913683D01*
X146920789Y-87913682D01*
X146920788Y-87913682D01*
X146895059Y-87908564D01*
X146866002Y-87897844D01*
X146854367Y-87891328D01*
X146812835Y-87846398D01*
X146812833Y-87846393D01*
X146809092Y-87838277D01*
X146800000Y-87796835D01*
X146800000Y-87446082D01*
X146804262Y-87417345D01*
X146812423Y-87390441D01*
X146824841Y-87364187D01*
X146848867Y-87328231D01*
X146860500Y-87269748D01*
X146860500Y-87030252D01*
X146860499Y-87030251D01*
X146860023Y-87025408D01*
X146860857Y-87025325D01*
X146859968Y-87002745D01*
X146860412Y-86999000D01*
X146861535Y-86989499D01*
X146886595Y-86934538D01*
X146886625Y-86934505D01*
X146934886Y-86905307D01*
X146942935Y-86903207D01*
X146967928Y-86900000D01*
X147535320Y-86900000D01*
X147565908Y-86904843D01*
G37*
%TD.AperFunction*%
%TD*%
%TA.AperFunction,Conductor*%
%TO.N,+5V*%
G36*
X143988609Y-88204259D02*
G01*
X144002383Y-88203720D01*
X144016985Y-88213479D01*
X144033691Y-88218907D01*
X144041793Y-88230059D01*
X144053253Y-88237718D01*
X144059217Y-88254040D01*
X144069655Y-88268407D01*
X144073623Y-88293468D01*
X144074446Y-88295718D01*
X144074739Y-88304566D01*
X144074500Y-88305145D01*
X144074500Y-88394855D01*
X144078015Y-88403343D01*
X144079340Y-88443275D01*
X144079500Y-88444895D01*
X144085331Y-88474214D01*
X144107539Y-88507452D01*
X144107540Y-88507453D01*
X144107543Y-88507457D01*
X144140787Y-88529669D01*
X144141780Y-88529866D01*
X144162787Y-88538568D01*
X144163255Y-88537439D01*
X144255143Y-88575500D01*
X144255145Y-88575500D01*
X144344856Y-88575500D01*
X144436746Y-88537438D01*
X144437214Y-88538569D01*
X144458225Y-88529865D01*
X144459213Y-88529669D01*
X144492457Y-88507457D01*
X144514669Y-88474213D01*
X144520500Y-88444899D01*
X144520499Y-88426597D01*
X144520575Y-88422743D01*
X144521267Y-88405071D01*
X144525500Y-88394855D01*
X144525500Y-88305145D01*
X144525210Y-88304446D01*
X144525576Y-88295123D01*
X144535522Y-88268152D01*
X144544407Y-88240809D01*
X144546046Y-88239617D01*
X144546747Y-88237718D01*
X144570634Y-88221753D01*
X144593907Y-88204845D01*
X144596564Y-88204424D01*
X144597618Y-88203720D01*
X144600337Y-88203826D01*
X144624500Y-88200000D01*
X145517713Y-88200000D01*
X145537026Y-88201901D01*
X145580252Y-88210500D01*
X145580253Y-88210500D01*
X145819747Y-88210500D01*
X145819748Y-88210500D01*
X145862973Y-88201901D01*
X145882287Y-88200000D01*
X146206862Y-88200000D01*
X146255748Y-88212912D01*
X146274368Y-88223485D01*
X146282989Y-88235351D01*
X146311678Y-88244673D01*
X146320415Y-88249634D01*
X146334602Y-88265166D01*
X146351621Y-88277531D01*
X146354781Y-88287257D01*
X146361680Y-88294810D01*
X146364028Y-88315714D01*
X146370529Y-88335721D01*
X146369629Y-88344868D01*
X146369629Y-88349998D01*
X146369629Y-88350000D01*
X146378551Y-88394855D01*
X146388683Y-88445791D01*
X146429245Y-88506495D01*
X146429246Y-88506496D01*
X146668504Y-88745753D01*
X146729210Y-88786317D01*
X146825000Y-88805371D01*
X146920790Y-88786317D01*
X146981496Y-88745754D01*
X147220753Y-88506496D01*
X147261317Y-88445790D01*
X147280371Y-88350000D01*
X147280371Y-88349998D01*
X147280371Y-88340250D01*
X147284554Y-88340250D01*
X147289411Y-88298842D01*
X147323127Y-88258716D01*
X147334574Y-88250815D01*
X147337601Y-88250336D01*
X147381821Y-88218208D01*
X147382817Y-88217521D01*
X147411035Y-88209102D01*
X147439050Y-88200000D01*
X147767713Y-88200000D01*
X147787026Y-88201901D01*
X147830252Y-88210500D01*
X147830253Y-88210500D01*
X148069747Y-88210500D01*
X148069748Y-88210500D01*
X148112973Y-88201901D01*
X148132287Y-88200000D01*
X148431862Y-88200000D01*
X148480748Y-88212912D01*
X148499368Y-88223485D01*
X148507989Y-88235351D01*
X148536678Y-88244673D01*
X148545415Y-88249634D01*
X148559602Y-88265166D01*
X148576621Y-88277531D01*
X148579781Y-88287257D01*
X148586680Y-88294810D01*
X148589028Y-88315714D01*
X148595529Y-88335721D01*
X148594629Y-88344865D01*
X148594629Y-88359751D01*
X148591160Y-88359751D01*
X148590401Y-88361086D01*
X148585132Y-88402136D01*
X148546850Y-88442737D01*
X148546879Y-88442777D01*
X148546670Y-88442928D01*
X148543158Y-88446654D01*
X148538417Y-88448924D01*
X148503613Y-88474211D01*
X148484649Y-88487989D01*
X148464500Y-88550000D01*
X148464500Y-88550002D01*
X148464500Y-89010001D01*
X148469663Y-89042599D01*
X148469664Y-89042601D01*
X148507989Y-89095351D01*
X148570000Y-89115500D01*
X148570002Y-89115500D01*
X148880002Y-89115500D01*
X148896300Y-89112918D01*
X148912601Y-89110336D01*
X148965351Y-89072011D01*
X148985500Y-89010000D01*
X148985500Y-88899447D01*
X149004407Y-88841256D01*
X149053907Y-88805292D01*
X149065169Y-88802353D01*
X149145790Y-88786317D01*
X149206496Y-88745754D01*
X149445753Y-88506496D01*
X149486317Y-88445790D01*
X149505371Y-88350000D01*
X149505371Y-88349998D01*
X149505371Y-88340250D01*
X149509554Y-88340250D01*
X149514411Y-88298842D01*
X149548127Y-88258716D01*
X149559574Y-88250815D01*
X149562601Y-88250336D01*
X149606821Y-88218208D01*
X149607817Y-88217521D01*
X149636035Y-88209102D01*
X149664050Y-88200000D01*
X149967713Y-88200000D01*
X149987026Y-88201901D01*
X150030252Y-88210500D01*
X150030253Y-88210500D01*
X150269747Y-88210500D01*
X150269748Y-88210500D01*
X150312973Y-88201901D01*
X150332287Y-88200000D01*
X150656862Y-88200000D01*
X150705748Y-88212912D01*
X150724368Y-88223485D01*
X150732989Y-88235351D01*
X150761678Y-88244673D01*
X150770415Y-88249634D01*
X150784602Y-88265166D01*
X150801621Y-88277531D01*
X150804781Y-88287257D01*
X150811680Y-88294810D01*
X150814028Y-88315714D01*
X150820529Y-88335721D01*
X150819629Y-88344865D01*
X150819629Y-88359751D01*
X150816160Y-88359751D01*
X150815401Y-88361086D01*
X150810132Y-88402136D01*
X150771850Y-88442737D01*
X150771879Y-88442777D01*
X150771670Y-88442928D01*
X150768158Y-88446654D01*
X150763417Y-88448924D01*
X150728613Y-88474211D01*
X150709649Y-88487989D01*
X150689500Y-88550000D01*
X150689500Y-88550002D01*
X150689500Y-89010001D01*
X150694663Y-89042599D01*
X150694664Y-89042601D01*
X150732989Y-89095351D01*
X150795000Y-89115500D01*
X150795002Y-89115500D01*
X151105002Y-89115500D01*
X151121300Y-89112918D01*
X151137601Y-89110336D01*
X151190351Y-89072011D01*
X151210500Y-89010000D01*
X151210500Y-88899447D01*
X151229407Y-88841256D01*
X151278907Y-88805292D01*
X151290169Y-88802353D01*
X151370790Y-88786317D01*
X151431496Y-88745754D01*
X151670753Y-88506496D01*
X151711317Y-88445790D01*
X151730371Y-88350000D01*
X151730371Y-88349998D01*
X151730371Y-88340250D01*
X151734554Y-88340250D01*
X151739411Y-88298842D01*
X151773127Y-88258716D01*
X151784574Y-88250815D01*
X151787601Y-88250336D01*
X151831821Y-88218208D01*
X151832817Y-88217521D01*
X151861035Y-88209102D01*
X151889050Y-88200000D01*
X152032671Y-88200000D01*
X152090862Y-88218907D01*
X152114986Y-88243998D01*
X152151738Y-88299000D01*
X152155448Y-88304552D01*
X152221769Y-88348867D01*
X152266231Y-88357711D01*
X152280241Y-88360498D01*
X152280246Y-88360498D01*
X152280252Y-88360500D01*
X152280253Y-88360500D01*
X152501000Y-88360500D01*
X152559191Y-88379407D01*
X152595155Y-88428907D01*
X152600000Y-88459500D01*
X152600000Y-89196152D01*
X152581093Y-89254343D01*
X152571004Y-89266156D01*
X152466156Y-89371004D01*
X152411639Y-89398781D01*
X152396152Y-89400000D01*
X148557120Y-89400000D01*
X148552043Y-89399500D01*
X148544855Y-89399500D01*
X148455145Y-89399500D01*
X148447957Y-89399500D01*
X148442880Y-89400000D01*
X148009605Y-89400000D01*
X147963509Y-89388614D01*
X147950220Y-89381622D01*
X147941576Y-89372978D01*
X147909172Y-89359556D01*
X147904975Y-89357817D01*
X147904972Y-89357816D01*
X147886261Y-89350066D01*
X147886260Y-89350066D01*
X146141074Y-89350066D01*
X146082883Y-89331159D01*
X146071071Y-89321070D01*
X145950000Y-89200000D01*
X143399000Y-89200000D01*
X143340809Y-89181093D01*
X143304845Y-89131593D01*
X143300000Y-89101000D01*
X143300000Y-88299000D01*
X143318907Y-88240809D01*
X143368407Y-88204845D01*
X143399000Y-88200000D01*
X143975500Y-88200000D01*
X143988609Y-88204259D01*
G37*
%TD.AperFunction*%
%TD*%
%TA.AperFunction,Conductor*%
%TO.N,GND*%
G36*
X151123430Y-86904694D02*
G01*
X151138618Y-86904540D01*
X151151794Y-86913909D01*
X151167174Y-86918907D01*
X151176102Y-86931196D01*
X151188481Y-86939999D01*
X151193487Y-86955124D01*
X151203138Y-86968407D01*
X151206907Y-86995665D01*
X151207983Y-86998914D01*
X151207984Y-87000905D01*
X151207749Y-87006895D01*
X151207994Y-87013142D01*
X151207995Y-87013159D01*
X151208122Y-87016377D01*
X151207998Y-87016815D01*
X151208199Y-87248698D01*
X151191517Y-87303782D01*
X151187123Y-87310358D01*
X151179476Y-87323854D01*
X151167050Y-87350123D01*
X151161463Y-87364609D01*
X151161462Y-87364613D01*
X151153305Y-87391505D01*
X151149906Y-87406644D01*
X151145641Y-87435397D01*
X151144500Y-87450869D01*
X151144500Y-87796834D01*
X151146949Y-87819431D01*
X151146954Y-87819459D01*
X151156040Y-87860875D01*
X151156041Y-87860879D01*
X151163279Y-87882441D01*
X151167021Y-87890557D01*
X151167022Y-87890559D01*
X151185361Y-87918009D01*
X151185365Y-87918015D01*
X151223697Y-87959481D01*
X151249314Y-88015046D01*
X151250000Y-88026683D01*
X151250000Y-88235319D01*
X151245154Y-88265912D01*
X151241032Y-88278598D01*
X151205080Y-88328089D01*
X151200959Y-88331084D01*
X151142771Y-88350000D01*
X151010383Y-88350000D01*
X150952192Y-88331093D01*
X150921762Y-88289211D01*
X150919740Y-88290129D01*
X150916521Y-88283036D01*
X150916521Y-88283034D01*
X150911123Y-88271141D01*
X150907123Y-88260828D01*
X150901957Y-88244928D01*
X150898826Y-88239820D01*
X150893896Y-88233179D01*
X150889576Y-88223659D01*
X150882677Y-88216106D01*
X150881808Y-88216898D01*
X150871899Y-88203550D01*
X150871852Y-88203411D01*
X150871302Y-88202737D01*
X150863632Y-88192180D01*
X150863404Y-88192014D01*
X150851190Y-88181094D01*
X150851149Y-88181139D01*
X150849185Y-88179301D01*
X150848495Y-88178685D01*
X150848311Y-88178483D01*
X150822508Y-88157892D01*
X150822506Y-88157891D01*
X150822505Y-88157890D01*
X150813768Y-88152929D01*
X150813765Y-88152928D01*
X150801267Y-88147417D01*
X150781058Y-88134397D01*
X150780752Y-88134824D01*
X150776466Y-88131745D01*
X150757837Y-88121167D01*
X150732696Y-88110913D01*
X150732697Y-88110913D01*
X150732689Y-88110910D01*
X150716393Y-88106606D01*
X150683813Y-88098000D01*
X150683805Y-88097998D01*
X150656863Y-88094500D01*
X150656862Y-88094500D01*
X150332287Y-88094500D01*
X150332263Y-88094500D01*
X150321967Y-88095005D01*
X150321956Y-88095006D01*
X150302667Y-88096904D01*
X150302652Y-88096906D01*
X150292381Y-88098430D01*
X150292368Y-88098433D01*
X150268924Y-88103097D01*
X150249608Y-88105000D01*
X150053480Y-88105000D01*
X149995289Y-88086093D01*
X149959325Y-88036593D01*
X149954785Y-87998237D01*
X149955000Y-87995500D01*
X149955000Y-87750389D01*
X149956901Y-87731083D01*
X149957207Y-87729544D01*
X149968169Y-87700050D01*
X149970529Y-87695884D01*
X149982948Y-87669625D01*
X149988532Y-87655148D01*
X149996692Y-87628251D01*
X150000134Y-87612831D01*
X150004397Y-87583566D01*
X150005498Y-87567799D01*
X150003284Y-87149524D01*
X150021884Y-87091234D01*
X150071193Y-87055009D01*
X150102283Y-87050000D01*
X150449999Y-87050000D01*
X150450000Y-87050000D01*
X150450000Y-87014680D01*
X150454843Y-86984094D01*
X150458965Y-86971405D01*
X150494923Y-86921906D01*
X150495522Y-86921471D01*
X150499063Y-86918900D01*
X150557243Y-86900000D01*
X151108983Y-86900000D01*
X151123430Y-86904694D01*
G37*
%TD.AperFunction*%
%TD*%
%TA.AperFunction,Conductor*%
%TO.N,GND*%
G36*
X146670231Y-86904694D02*
G01*
X146685419Y-86904540D01*
X146698595Y-86913909D01*
X146713975Y-86918907D01*
X146722903Y-86931196D01*
X146735282Y-86939999D01*
X146740288Y-86955124D01*
X146749939Y-86968407D01*
X146753708Y-86995665D01*
X146754784Y-86998914D01*
X146754785Y-87000905D01*
X146754550Y-87006895D01*
X146754795Y-87013142D01*
X146754796Y-87013159D01*
X146754923Y-87016377D01*
X146754799Y-87016815D01*
X146755000Y-87248698D01*
X146738319Y-87303780D01*
X146737131Y-87305557D01*
X146737117Y-87305580D01*
X146729474Y-87319071D01*
X146729465Y-87319086D01*
X146717056Y-87345324D01*
X146711466Y-87359817D01*
X146703304Y-87386722D01*
X146703304Y-87386724D01*
X146699903Y-87401868D01*
X146699902Y-87401873D01*
X146695640Y-87430610D01*
X146694500Y-87446080D01*
X146694500Y-87796834D01*
X146696949Y-87819431D01*
X146696954Y-87819459D01*
X146706040Y-87860875D01*
X146706041Y-87860879D01*
X146713279Y-87882441D01*
X146717021Y-87890557D01*
X146717022Y-87890559D01*
X146735361Y-87918009D01*
X146735365Y-87918015D01*
X146773697Y-87959481D01*
X146799314Y-88015046D01*
X146800000Y-88026683D01*
X146800000Y-88235319D01*
X146795154Y-88265912D01*
X146791032Y-88278598D01*
X146755080Y-88328089D01*
X146750959Y-88331084D01*
X146692771Y-88350000D01*
X146560383Y-88350000D01*
X146502192Y-88331093D01*
X146471762Y-88289211D01*
X146469740Y-88290129D01*
X146466521Y-88283036D01*
X146466521Y-88283034D01*
X146461123Y-88271141D01*
X146457123Y-88260828D01*
X146451957Y-88244928D01*
X146448826Y-88239820D01*
X146443896Y-88233179D01*
X146439576Y-88223659D01*
X146432677Y-88216106D01*
X146431808Y-88216898D01*
X146421899Y-88203550D01*
X146421852Y-88203411D01*
X146421302Y-88202737D01*
X146413632Y-88192180D01*
X146413404Y-88192014D01*
X146401190Y-88181094D01*
X146401149Y-88181139D01*
X146399185Y-88179301D01*
X146398495Y-88178685D01*
X146398311Y-88178483D01*
X146372508Y-88157892D01*
X146372506Y-88157891D01*
X146372505Y-88157890D01*
X146363768Y-88152929D01*
X146363765Y-88152928D01*
X146351267Y-88147417D01*
X146331058Y-88134397D01*
X146330752Y-88134824D01*
X146326466Y-88131745D01*
X146307837Y-88121167D01*
X146282696Y-88110913D01*
X146282697Y-88110913D01*
X146282689Y-88110910D01*
X146266393Y-88106606D01*
X146233813Y-88098000D01*
X146233805Y-88097998D01*
X146206863Y-88094500D01*
X146206862Y-88094500D01*
X145882287Y-88094500D01*
X145882263Y-88094500D01*
X145871967Y-88095005D01*
X145871956Y-88095006D01*
X145852667Y-88096904D01*
X145852652Y-88096906D01*
X145842381Y-88098430D01*
X145842368Y-88098433D01*
X145818924Y-88103097D01*
X145799608Y-88105000D01*
X145600396Y-88105000D01*
X145581081Y-88103097D01*
X145572197Y-88101330D01*
X145557637Y-88098433D01*
X145557619Y-88098430D01*
X145557609Y-88098428D01*
X145557589Y-88098425D01*
X145547359Y-88096907D01*
X145547352Y-88096906D01*
X145539295Y-88096113D01*
X145483238Y-88071593D01*
X145452300Y-88018806D01*
X145450000Y-87997590D01*
X145450000Y-87664680D01*
X145454843Y-87634094D01*
X145458965Y-87621405D01*
X145494923Y-87571906D01*
X145495522Y-87571471D01*
X145499063Y-87568900D01*
X145557243Y-87550000D01*
X145999999Y-87550000D01*
X146000000Y-87550000D01*
X146000000Y-87052680D01*
X146004843Y-87022094D01*
X146006558Y-87016815D01*
X146008965Y-87009405D01*
X146044923Y-86959906D01*
X146045522Y-86959471D01*
X146049063Y-86956900D01*
X146107243Y-86938000D01*
X146472433Y-86938000D01*
X146472436Y-86938000D01*
X146495348Y-86928509D01*
X146527752Y-86915088D01*
X146527753Y-86915086D01*
X146531425Y-86913566D01*
X146553998Y-86907835D01*
X146553941Y-86907549D01*
X146558546Y-86906617D01*
X146558547Y-86906616D01*
X146558552Y-86906616D01*
X146566313Y-86904262D01*
X146595049Y-86900000D01*
X146655784Y-86900000D01*
X146670231Y-86904694D01*
G37*
%TD.AperFunction*%
%TD*%
%TA.AperFunction,Conductor*%
%TO.N,+2V5_NVCM*%
G36*
X152015908Y-86904843D02*
G01*
X152028595Y-86908966D01*
X152078095Y-86944927D01*
X152078096Y-86944928D01*
X152081091Y-86949050D01*
X152100000Y-87007240D01*
X152097050Y-87016317D01*
X152099999Y-87867538D01*
X152099880Y-87872748D01*
X152099642Y-87877583D01*
X152099609Y-87878030D01*
X152099500Y-87880256D01*
X152099500Y-87995500D01*
X152080593Y-88053691D01*
X152031093Y-88089655D01*
X152000500Y-88094500D01*
X151889047Y-88094500D01*
X151856452Y-88099662D01*
X151856443Y-88099664D01*
X151837880Y-88105695D01*
X151837874Y-88105697D01*
X151829649Y-88108370D01*
X151802654Y-88116425D01*
X151772915Y-88130676D01*
X151771919Y-88131363D01*
X151769809Y-88132857D01*
X151739134Y-88155142D01*
X151731853Y-88158789D01*
X151709252Y-88162206D01*
X151687518Y-88169267D01*
X151679594Y-88166691D01*
X151671355Y-88167938D01*
X151651063Y-88157419D01*
X151629329Y-88150356D01*
X151617522Y-88140271D01*
X151431497Y-87954248D01*
X151431496Y-87954247D01*
X151370790Y-87913683D01*
X151370789Y-87913682D01*
X151370788Y-87913682D01*
X151345059Y-87908564D01*
X151316002Y-87897844D01*
X151304367Y-87891328D01*
X151262835Y-87846398D01*
X151262833Y-87846393D01*
X151259092Y-87838277D01*
X151250000Y-87796835D01*
X151250000Y-87450869D01*
X151254262Y-87422133D01*
X151262422Y-87395230D01*
X151274842Y-87368972D01*
X151302066Y-87328231D01*
X151313699Y-87269748D01*
X151313699Y-87030252D01*
X151313698Y-87030251D01*
X151313222Y-87025408D01*
X151314056Y-87025325D01*
X151313167Y-87002745D01*
X151313611Y-86999000D01*
X151314734Y-86989499D01*
X151339794Y-86934538D01*
X151339824Y-86934505D01*
X151388085Y-86905307D01*
X151396134Y-86903207D01*
X151421127Y-86900000D01*
X151985320Y-86900000D01*
X152015908Y-86904843D01*
G37*
%TD.AperFunction*%
%TD*%
%TA.AperFunction,Conductor*%
%TO.N,GND*%
G36*
X148870231Y-86904694D02*
G01*
X148885419Y-86904540D01*
X148898595Y-86913909D01*
X148913975Y-86918907D01*
X148922903Y-86931196D01*
X148935282Y-86939999D01*
X148940288Y-86955124D01*
X148949939Y-86968407D01*
X148953708Y-86995665D01*
X148954784Y-86998914D01*
X148954785Y-87000905D01*
X148954550Y-87006895D01*
X148954795Y-87013142D01*
X148954796Y-87013159D01*
X148954923Y-87016377D01*
X148954799Y-87016815D01*
X148955000Y-87248698D01*
X148938319Y-87303780D01*
X148937131Y-87305557D01*
X148937117Y-87305580D01*
X148929474Y-87319071D01*
X148929465Y-87319086D01*
X148917056Y-87345324D01*
X148911466Y-87359817D01*
X148903304Y-87386722D01*
X148903304Y-87386724D01*
X148899903Y-87401868D01*
X148899902Y-87401873D01*
X148895640Y-87430610D01*
X148894500Y-87446080D01*
X148894500Y-87791863D01*
X148896950Y-87814467D01*
X148896950Y-87814469D01*
X148906042Y-87855907D01*
X148906048Y-87855928D01*
X148913280Y-87877463D01*
X148913289Y-87877486D01*
X148917025Y-87885591D01*
X148935358Y-87913032D01*
X148935362Y-87913037D01*
X148952223Y-87931279D01*
X148973700Y-87954515D01*
X148999314Y-88010079D01*
X149000000Y-88021712D01*
X149000000Y-88235319D01*
X148995154Y-88265912D01*
X148991032Y-88278598D01*
X148955080Y-88328089D01*
X148950959Y-88331084D01*
X148892771Y-88350000D01*
X148785383Y-88350000D01*
X148727192Y-88331093D01*
X148696762Y-88289211D01*
X148694740Y-88290129D01*
X148691521Y-88283036D01*
X148691521Y-88283034D01*
X148686123Y-88271141D01*
X148682123Y-88260828D01*
X148676957Y-88244928D01*
X148673826Y-88239820D01*
X148668896Y-88233179D01*
X148664576Y-88223659D01*
X148657677Y-88216106D01*
X148656808Y-88216898D01*
X148646899Y-88203550D01*
X148646852Y-88203411D01*
X148646302Y-88202737D01*
X148638632Y-88192180D01*
X148638404Y-88192014D01*
X148626190Y-88181094D01*
X148626149Y-88181139D01*
X148624185Y-88179301D01*
X148623495Y-88178685D01*
X148623311Y-88178483D01*
X148597508Y-88157892D01*
X148597506Y-88157891D01*
X148597505Y-88157890D01*
X148588768Y-88152929D01*
X148588765Y-88152928D01*
X148576267Y-88147417D01*
X148556058Y-88134397D01*
X148555752Y-88134824D01*
X148551466Y-88131745D01*
X148532837Y-88121167D01*
X148507696Y-88110913D01*
X148507697Y-88110913D01*
X148507689Y-88110910D01*
X148491393Y-88106606D01*
X148458813Y-88098000D01*
X148458805Y-88097998D01*
X148431863Y-88094500D01*
X148431862Y-88094500D01*
X148132287Y-88094500D01*
X148132263Y-88094500D01*
X148121967Y-88095005D01*
X148121956Y-88095006D01*
X148102667Y-88096904D01*
X148102652Y-88096906D01*
X148092381Y-88098430D01*
X148092368Y-88098433D01*
X148068924Y-88103097D01*
X148049608Y-88105000D01*
X147853480Y-88105000D01*
X147795289Y-88086093D01*
X147759325Y-88036593D01*
X147754785Y-87998237D01*
X147755000Y-87995500D01*
X147755000Y-87735496D01*
X147755120Y-87730626D01*
X147755253Y-87727910D01*
X147755351Y-87725180D01*
X147755351Y-87725179D01*
X147755353Y-87725124D01*
X147755472Y-87719842D01*
X147755498Y-87717024D01*
X147755215Y-87649415D01*
X147773878Y-87591145D01*
X147823227Y-87554974D01*
X147854214Y-87550000D01*
X148199999Y-87550000D01*
X148200000Y-87550000D01*
X148200000Y-87014680D01*
X148204843Y-86984094D01*
X148208965Y-86971405D01*
X148244923Y-86921906D01*
X148245522Y-86921471D01*
X148249063Y-86918900D01*
X148307243Y-86900000D01*
X148855784Y-86900000D01*
X148870231Y-86904694D01*
G37*
%TD.AperFunction*%
%TD*%
M02*
