%TF.GenerationSoftware,KiCad,Pcbnew,10.0.0*%
%TF.CreationDate,2026-04-03T19:02:08+02:00*%
%TF.ProjectId,Core_Module,436f7265-5f4d-46f6-9475-6c652e6b6963,2.0*%
%TF.SameCoordinates,Original*%
%TF.FileFunction,Copper,L6,Bot*%
%TF.FilePolarity,Positive*%
%FSLAX46Y46*%
G04 Gerber Fmt 4.6, Leading zero omitted, Abs format (unit mm)*
G04 Created by KiCad (PCBNEW 10.0.0) date 2026-04-03 19:02:08*
%MOMM*%
%LPD*%
G01*
G04 APERTURE LIST*
%TA.AperFunction,ComponentPad*%
%ADD10C,1.000000*%
%TD*%
%TA.AperFunction,ComponentPad*%
%ADD11O,3.000000X1.000000*%
%TD*%
%TA.AperFunction,ComponentPad*%
%ADD12O,1.000000X3.000000*%
%TD*%
%TA.AperFunction,ViaPad*%
%ADD13C,0.250000*%
%TD*%
%TA.AperFunction,Conductor*%
%ADD14C,0.100000*%
%TD*%
G04 APERTURE END LIST*
D10*
%TO.P,J201,1,Pin_1_1*%
%TO.N,IOT_18B*%
X143250000Y-95060000D03*
D11*
X142250000Y-95060000D03*
D10*
%TO.P,J201,2,Pin_2_2*%
%TO.N,IOB_4A*%
X143250000Y-93790000D03*
D11*
X142250000Y-93790000D03*
D10*
%TO.P,J201,3,Pin_3_3*%
%TO.N,IOB_5B*%
X143250000Y-92520000D03*
D11*
X142250000Y-92520000D03*
D10*
%TO.P,J201,4,Pin_4_4*%
%TO.N,RGB1*%
X143250000Y-91250000D03*
D11*
X142250000Y-91250000D03*
D10*
%TO.P,J201,5,Pin_5_5*%
%TO.N,RGB2*%
X143250000Y-89980000D03*
D11*
X142250000Y-89980000D03*
D10*
%TO.P,J201,6,Pin_6_6*%
%TO.N,+5V*%
X143250000Y-88710000D03*
D11*
X142250000Y-88710000D03*
D10*
%TO.P,J201,7,Pin_7_7*%
%TO.N,GND*%
X143250000Y-87440000D03*
D11*
X142250000Y-87440000D03*
%TD*%
D10*
%TO.P,J205,1,Pin_1_1*%
%TO.N,FLASH_~{CS}*%
X152560000Y-85750000D03*
D12*
X152560000Y-84750000D03*
D10*
%TO.P,J205,2,Pin_2_2*%
%TO.N,FLASH_MISO*%
X151290000Y-85750000D03*
D12*
X151290000Y-84750000D03*
D10*
%TO.P,J205,3,Pin_3_3*%
%TO.N,FLASH_SCK*%
X150020000Y-85750000D03*
D12*
X150020000Y-84750000D03*
D10*
%TO.P,J205,4,Pin_4_4*%
%TO.N,FLASH_MOSI*%
X148750000Y-85750000D03*
D12*
X148750000Y-84750000D03*
D10*
%TO.P,J205,5,Pin_5_5*%
%TO.N,CDONE*%
X147480000Y-85750000D03*
D12*
X147480000Y-84750000D03*
D10*
%TO.P,J205,6,Pin_6_6*%
%TO.N,~{CRESET}*%
X146210000Y-85750000D03*
D12*
X146210000Y-84750000D03*
%TD*%
D10*
%TO.P,J203,1,Pin_1_1*%
%TO.N,IOT_25A*%
X154250000Y-87440000D03*
D11*
X155250000Y-87440000D03*
D10*
%TO.P,J203,2,Pin_2_2*%
%TO.N,IOT_19A*%
X154250000Y-88710000D03*
D11*
X155250000Y-88710000D03*
D10*
%TO.P,J203,3,Pin_3_3*%
%TO.N,BARCODE*%
X154250000Y-89980000D03*
D11*
X155250000Y-89980000D03*
D10*
%TO.P,J203,4,Pin_4_4*%
%TO.N,IRLED*%
X154250000Y-91250000D03*
D11*
X155250000Y-91250000D03*
D10*
%TO.P,J203,5,Pin_5_5*%
%TO.N,IOT_27A*%
X154250000Y-92520000D03*
D11*
X155250000Y-92520000D03*
D10*
%TO.P,J203,6,Pin_6_6*%
%TO.N,IOT_24B*%
X154250000Y-93790000D03*
D11*
X155250000Y-93790000D03*
D10*
%TO.P,J203,7,Pin_7_7*%
%TO.N,IOT_21A_G1*%
X154250000Y-95060000D03*
D11*
X155250000Y-95060000D03*
%TD*%
D10*
%TO.P,J202,1,Pin_1_1*%
%TO.N,IOT_22B_G0*%
X152560000Y-96750000D03*
D12*
X152560000Y-97750000D03*
D10*
%TO.P,J202,2,Pin_2_2*%
%TO.N,IOB_10A*%
X151290000Y-96750000D03*
D12*
X151290000Y-97750000D03*
D10*
%TO.P,J202,3,Pin_3_3*%
%TO.N,IOB_6A*%
X150020000Y-96750000D03*
D12*
X150020000Y-97750000D03*
D10*
%TO.P,J202,4,Pin_4_4*%
%TO.N,IOB_7B_G5*%
X148750000Y-96750000D03*
D12*
X148750000Y-97750000D03*
D10*
%TO.P,J202,5,Pin_5_5*%
%TO.N,IOB_3B_G6*%
X147480000Y-96750000D03*
D12*
X147480000Y-97750000D03*
D10*
%TO.P,J202,6,Pin_6_6*%
%TO.N,IOB_0A*%
X146210000Y-96750000D03*
D12*
X146210000Y-97750000D03*
D10*
%TO.P,J202,7,Pin_7_7*%
%TO.N,IOB_1B*%
X144940000Y-96750000D03*
D12*
X144940000Y-97750000D03*
%TD*%
D13*
%TO.N,+3V3*%
X145250000Y-92130000D03*
X144650000Y-87570000D03*
X145300000Y-91100000D03*
X149930000Y-90700000D03*
X148950000Y-94725000D03*
X148950000Y-92415000D03*
X146900000Y-93100000D03*
X149850000Y-94450000D03*
X151330000Y-90700000D03*
X150950000Y-88780000D03*
X146850000Y-91870000D03*
X147300000Y-94300000D03*
X149370000Y-87150000D03*
%TO.N,GND*%
X146825000Y-88350000D03*
X144300000Y-94700000D03*
X149050000Y-88350000D03*
X151275000Y-88370000D03*
X152920000Y-95700000D03*
X145250000Y-92770000D03*
X149450000Y-94085000D03*
X144300000Y-88350000D03*
X153200000Y-87080000D03*
X145300000Y-95700000D03*
X152400000Y-88030000D03*
X153200000Y-92160000D03*
X146570000Y-95700000D03*
X153200000Y-88350000D03*
X144500000Y-85802500D03*
X153200000Y-94700000D03*
X152250000Y-92050000D03*
X146850000Y-91150000D03*
X153200000Y-89620000D03*
X150150000Y-87880000D03*
X145250000Y-93830000D03*
X151970000Y-90700000D03*
X151050000Y-94050000D03*
X145200000Y-86262500D03*
X147300000Y-93500000D03*
X153600000Y-85902500D03*
X153200000Y-93430000D03*
X145750000Y-87147500D03*
X152450000Y-87197500D03*
X144300000Y-92160000D03*
X148000000Y-87147500D03*
X151050000Y-91950000D03*
X148950000Y-93175000D03*
X147840000Y-95700000D03*
X146100000Y-90000000D03*
X144300000Y-89620000D03*
X144300000Y-93430000D03*
X144300000Y-90890000D03*
X149110000Y-95700000D03*
X151650000Y-95700000D03*
X150380000Y-95700000D03*
X153200000Y-90890000D03*
%TO.N,IOT_21A_G1*%
X152575000Y-94850000D03*
X149750000Y-92475000D03*
%TO.N,+2V5_NVCM*%
X147725000Y-90520566D03*
X151600000Y-87920000D03*
X147300000Y-93100000D03*
%TO.N,+1V2_CORE*%
X147170000Y-87150000D03*
X148725000Y-88780000D03*
X145250000Y-94470000D03*
X146900000Y-93900000D03*
%TO.N,~{CRESET}*%
X145200000Y-85902500D03*
X148400000Y-95350000D03*
%TO.N,IOT_18B*%
X145700000Y-89500000D03*
X148150000Y-90450000D03*
X144700000Y-94800000D03*
X147700000Y-93100000D03*
%TO.N,IOB_6A*%
X150020000Y-95700000D03*
X146500000Y-94300000D03*
%TO.N,IOT_24B*%
X146500000Y-93100000D03*
X153200000Y-93790000D03*
%TO.N,FLASH_MISO*%
X152450000Y-86837500D03*
X147700000Y-94300000D03*
X152250000Y-93650000D03*
X151450000Y-92350000D03*
%TO.N,FLASH_~{CS}*%
X153200000Y-91700000D03*
X153600000Y-86262500D03*
%TO.N,FLASH_MOSI*%
X149932630Y-91325000D03*
X148000000Y-86787500D03*
%TO.N,FLASH_SCK*%
X150700000Y-91650000D03*
X149850000Y-92850000D03*
X150200000Y-86787500D03*
X150700000Y-93700000D03*
%TO.N,CDONE*%
X148500000Y-92500000D03*
X148500000Y-91750000D03*
X148500000Y-89625000D03*
X145000000Y-86930000D03*
X148500000Y-90450000D03*
X147700000Y-93900000D03*
%TO.N,IOT_27A*%
X146500000Y-93500000D03*
X153200000Y-92520000D03*
%TO.N,IOB_10A*%
X148100000Y-93900000D03*
X151290000Y-95700000D03*
%TO.N,/FPGA/LED*%
X143800000Y-85802500D03*
X144623275Y-89438539D03*
%TO.N,IOT_22B_G0*%
X152560000Y-95700000D03*
X148600000Y-93200000D03*
%TO.N,12MHZ_CLK*%
X146500000Y-93900000D03*
X146900000Y-90522170D03*
%TD*%
%TO.N,IOT_21A_G1*%
D14*
X152361091Y-94850000D02*
X149986091Y-92475000D01*
X149986091Y-92475000D02*
X149750000Y-92475000D01*
X152575000Y-94850000D02*
X152361091Y-94850000D01*
%TO.N,+1V2_CORE*%
X147170000Y-87150000D02*
X147170000Y-88020000D01*
X147930000Y-88780000D02*
X148725000Y-88780000D01*
X147170000Y-88020000D02*
X147930000Y-88780000D01*
%TO.N,~{CRESET}*%
X144300000Y-95350000D02*
X144000000Y-95050000D01*
X144000000Y-86691421D02*
X143400000Y-86091421D01*
X143400000Y-85550000D02*
X143550000Y-85400000D01*
X144697500Y-85400000D02*
X145200000Y-85902500D01*
X148400000Y-95350000D02*
X144300000Y-95350000D01*
X143400000Y-86091421D02*
X143400000Y-85550000D01*
X144000000Y-95050000D02*
X144000000Y-86691421D01*
X143550000Y-85400000D02*
X144697500Y-85400000D01*
%TO.N,IOT_18B*%
X147834999Y-92965001D02*
X147834999Y-91615001D01*
X144700000Y-90500000D02*
X145700000Y-89500000D01*
X144700000Y-94800000D02*
X144700000Y-90500000D01*
X148150000Y-91300000D02*
X148150000Y-90450000D01*
X147700000Y-93100000D02*
X147834999Y-92965001D01*
X147834999Y-91615001D02*
X148150000Y-91300000D01*
%TO.N,IOB_6A*%
X146950000Y-94950000D02*
X148575000Y-94950000D01*
X148575000Y-94950000D02*
X149025000Y-95400000D01*
X149720000Y-95400000D02*
X150020000Y-95700000D01*
X146500000Y-94500000D02*
X146950000Y-94950000D01*
X146500000Y-94300000D02*
X146500000Y-94500000D01*
X149025000Y-95400000D02*
X149720000Y-95400000D01*
%TO.N,IOT_24B*%
X151332842Y-93200000D02*
X152450000Y-93200000D01*
X153040000Y-93790000D02*
X153200000Y-93790000D01*
X149000000Y-91550000D02*
X149350000Y-91900000D01*
X147450000Y-90282842D02*
X147632842Y-90100000D01*
X152450000Y-93200000D02*
X153040000Y-93790000D01*
X146500000Y-93100000D02*
X146500000Y-92800000D01*
X149350000Y-91900000D02*
X150032842Y-91900000D01*
X149000000Y-90300000D02*
X149000000Y-91550000D01*
X150032842Y-91900000D02*
X151332842Y-93200000D01*
X146500000Y-92800000D02*
X147450000Y-91850000D01*
X147632842Y-90100000D02*
X148800000Y-90100000D01*
X148800000Y-90100000D02*
X149000000Y-90300000D01*
X147450000Y-91850000D02*
X147450000Y-90282842D01*
%TO.N,FLASH_MISO*%
X152750000Y-87950000D02*
X152175000Y-87375000D01*
X147425000Y-94025000D02*
X147700000Y-94300000D01*
X152250000Y-93650000D02*
X151500000Y-93650000D01*
X152415000Y-86837500D02*
X152450000Y-86837500D01*
X148050000Y-92350000D02*
X148050000Y-93161091D01*
X152750000Y-91050000D02*
X152750000Y-87950000D01*
X152175000Y-87077500D02*
X152415000Y-86837500D01*
X148050000Y-93161091D02*
X147425000Y-93786091D01*
X151450000Y-92350000D02*
X152750000Y-91050000D01*
X152175000Y-87375000D02*
X152175000Y-87077500D01*
X147425000Y-93786091D02*
X147425000Y-94025000D01*
X149950000Y-92100000D02*
X148300000Y-92100000D01*
X151500000Y-93650000D02*
X149950000Y-92100000D01*
X148300000Y-92100000D02*
X148050000Y-92350000D01*
%TO.N,FLASH_~{CS}*%
X153387500Y-86262500D02*
X153600000Y-86262500D01*
X152900000Y-86750000D02*
X153387500Y-86262500D01*
X153200000Y-91700000D02*
X153500000Y-91400000D01*
X152900000Y-87375000D02*
X152900000Y-86750000D01*
X153500000Y-87975000D02*
X152900000Y-87375000D01*
X153500000Y-91400000D02*
X153500000Y-87975000D01*
%TO.N,FLASH_MOSI*%
X150400000Y-90857630D02*
X150400000Y-88800000D01*
X148387500Y-86787500D02*
X148000000Y-86787500D01*
X149932630Y-91325000D02*
X150400000Y-90857630D01*
X150400000Y-88800000D02*
X148387500Y-86787500D01*
%TO.N,FLASH_SCK*%
X150700000Y-91650000D02*
X151550000Y-91650000D01*
X149850000Y-92850000D02*
X150700000Y-93700000D01*
X151137500Y-86787500D02*
X150200000Y-86787500D01*
X152100000Y-88250000D02*
X152100000Y-87750000D01*
X152350000Y-90850000D02*
X152350000Y-88500000D01*
X152350000Y-88500000D02*
X152100000Y-88250000D01*
X152100000Y-87750000D02*
X151137500Y-86787500D01*
X151550000Y-91650000D02*
X152350000Y-90850000D01*
%TO.N,CDONE*%
X145000000Y-86930000D02*
X145000000Y-87600000D01*
X148500000Y-91750000D02*
X148500000Y-90450000D01*
X148500000Y-92500000D02*
X148300000Y-92700000D01*
X147025000Y-89625000D02*
X148500000Y-89625000D01*
X148300000Y-92700000D02*
X148300000Y-93300000D01*
X145000000Y-87600000D02*
X147025000Y-89625000D01*
X148300000Y-93300000D02*
X147700000Y-93900000D01*
%TO.N,IOT_27A*%
X146225000Y-93225000D02*
X146500000Y-93500000D01*
X149250000Y-89900000D02*
X147450000Y-89900000D01*
X147250000Y-91250000D02*
X147050000Y-91450000D01*
X147450000Y-89900000D02*
X147250000Y-90100000D01*
X152995000Y-92725000D02*
X151140684Y-92725000D01*
X151140684Y-92725000D02*
X150115684Y-91700000D01*
X147050000Y-91450000D02*
X146650000Y-91450000D01*
X149500000Y-91550000D02*
X149500000Y-90150000D01*
X150115684Y-91700000D02*
X149650000Y-91700000D01*
X149650000Y-91700000D02*
X149500000Y-91550000D01*
X149500000Y-90150000D02*
X149250000Y-89900000D01*
X147250000Y-90100000D02*
X147250000Y-91250000D01*
X146650000Y-91450000D02*
X146225000Y-91875000D01*
X146225000Y-91875000D02*
X146225000Y-93225000D01*
X153200000Y-92520000D02*
X152995000Y-92725000D01*
%TO.N,IOB_10A*%
X149000000Y-94200000D02*
X150050000Y-95250000D01*
X150050000Y-95250000D02*
X151000000Y-95250000D01*
X151290000Y-95700000D02*
X151290000Y-95590000D01*
X148100000Y-93900000D02*
X148400000Y-94200000D01*
X151290000Y-95540000D02*
X151290000Y-95700000D01*
X151000000Y-95250000D02*
X151290000Y-95540000D01*
X148400000Y-94200000D02*
X149000000Y-94200000D01*
%TO.N,/FPGA/LED*%
X144250000Y-87750000D02*
X144250000Y-86600000D01*
X144250000Y-86600000D02*
X143800000Y-86150000D01*
X144623275Y-89438539D02*
X144775000Y-89286814D01*
X144775000Y-88275000D02*
X144250000Y-87750000D01*
X143800000Y-86150000D02*
X143800000Y-85802500D01*
X144775000Y-89286814D02*
X144775000Y-88275000D01*
%TO.N,IOT_22B_G0*%
X152560000Y-95510000D02*
X152560000Y-95700000D01*
X149850000Y-93650000D02*
X151100000Y-94900000D01*
X151950000Y-94900000D02*
X152560000Y-95510000D01*
X151100000Y-94900000D02*
X151950000Y-94900000D01*
X148600000Y-93200000D02*
X148600000Y-93213909D01*
X149036091Y-93650000D02*
X149850000Y-93650000D01*
X148600000Y-93213909D02*
X149036091Y-93650000D01*
%TO.N,12MHZ_CLK*%
X146900000Y-90522170D02*
X145900000Y-91522170D01*
X145900000Y-93300000D02*
X146500000Y-93900000D01*
X145900000Y-91522170D02*
X145900000Y-93300000D01*
%TD*%
M02*
