%TF.GenerationSoftware,KiCad,Pcbnew,10.0.0*%
%TF.CreationDate,2026-04-03T19:02:08+02:00*%
%TF.ProjectId,Core_Module,436f7265-5f4d-46f6-9475-6c652e6b6963,2.0*%
%TF.SameCoordinates,Original*%
%TF.FileFunction,Copper,L2,Inr*%
%TF.FilePolarity,Positive*%
%FSLAX46Y46*%
G04 Gerber Fmt 4.6, Leading zero omitted, Abs format (unit mm)*
G04 Created by KiCad (PCBNEW 10.0.0) date 2026-04-03 19:02:08*
%MOMM*%
%LPD*%
G01*
G04 APERTURE LIST*
%TA.AperFunction,ComponentPad*%
%ADD10C,1.000000*%
%TD*%
%TA.AperFunction,ComponentPad*%
%ADD11O,3.000000X1.000000*%
%TD*%
%TA.AperFunction,ComponentPad*%
%ADD12O,1.000000X3.000000*%
%TD*%
%TA.AperFunction,ViaPad*%
%ADD13C,0.250000*%
%TD*%
G04 APERTURE END LIST*
D10*
%TO.N,IOT_18B*%
%TO.C,J201*%
X143250000Y-95060000D03*
D11*
X142250000Y-95060000D03*
D10*
%TO.N,IOB_4A*%
X143250000Y-93790000D03*
D11*
X142250000Y-93790000D03*
D10*
%TO.N,IOB_5B*%
X143250000Y-92520000D03*
D11*
X142250000Y-92520000D03*
D10*
%TO.N,RGB1*%
X143250000Y-91250000D03*
D11*
X142250000Y-91250000D03*
D10*
%TO.N,RGB2*%
X143250000Y-89980000D03*
D11*
X142250000Y-89980000D03*
D10*
%TO.N,+5V*%
X143250000Y-88710000D03*
D11*
X142250000Y-88710000D03*
D10*
%TO.N,GND*%
X143250000Y-87440000D03*
D11*
X142250000Y-87440000D03*
%TD*%
D10*
%TO.N,FLASH_~{CS}*%
%TO.C,J205*%
X152560000Y-85750000D03*
D12*
X152560000Y-84750000D03*
D10*
%TO.N,FLASH_MISO*%
X151290000Y-85750000D03*
D12*
X151290000Y-84750000D03*
D10*
%TO.N,FLASH_SCK*%
X150020000Y-85750000D03*
D12*
X150020000Y-84750000D03*
D10*
%TO.N,FLASH_MOSI*%
X148750000Y-85750000D03*
D12*
X148750000Y-84750000D03*
D10*
%TO.N,CDONE*%
X147480000Y-85750000D03*
D12*
X147480000Y-84750000D03*
D10*
%TO.N,~{CRESET}*%
X146210000Y-85750000D03*
D12*
X146210000Y-84750000D03*
%TD*%
D10*
%TO.N,IOT_25A*%
%TO.C,J203*%
X154250000Y-87440000D03*
D11*
X155250000Y-87440000D03*
D10*
%TO.N,IOT_19A*%
X154250000Y-88710000D03*
D11*
X155250000Y-88710000D03*
D10*
%TO.N,BARCODE*%
X154250000Y-89980000D03*
D11*
X155250000Y-89980000D03*
D10*
%TO.N,IRLED*%
X154250000Y-91250000D03*
D11*
X155250000Y-91250000D03*
D10*
%TO.N,IOT_27A*%
X154250000Y-92520000D03*
D11*
X155250000Y-92520000D03*
D10*
%TO.N,IOT_24B*%
X154250000Y-93790000D03*
D11*
X155250000Y-93790000D03*
D10*
%TO.N,IOT_21A_G1*%
X154250000Y-95060000D03*
D11*
X155250000Y-95060000D03*
%TD*%
D10*
%TO.N,IOT_22B_G0*%
%TO.C,J202*%
X152560000Y-96750000D03*
D12*
X152560000Y-97750000D03*
D10*
%TO.N,IOB_10A*%
X151290000Y-96750000D03*
D12*
X151290000Y-97750000D03*
D10*
%TO.N,IOB_6A*%
X150020000Y-96750000D03*
D12*
X150020000Y-97750000D03*
D10*
%TO.N,IOB_7B_G5*%
X148750000Y-96750000D03*
D12*
X148750000Y-97750000D03*
D10*
%TO.N,IOB_3B_G6*%
X147480000Y-96750000D03*
D12*
X147480000Y-97750000D03*
D10*
%TO.N,IOB_0A*%
X146210000Y-96750000D03*
D12*
X146210000Y-97750000D03*
D10*
%TO.N,IOB_1B*%
X144940000Y-96750000D03*
D12*
X144940000Y-97750000D03*
%TD*%
D13*
%TO.N,+3V3*%
X145250000Y-92130000D03*
X144650000Y-87570000D03*
X145300000Y-91100000D03*
X149930000Y-90700000D03*
X148950000Y-94725000D03*
X148950000Y-92415000D03*
X146900000Y-93100000D03*
X149850000Y-94450000D03*
X151330000Y-90700000D03*
X150950000Y-88780000D03*
X146850000Y-91870000D03*
X147300000Y-94300000D03*
X149370000Y-87150000D03*
%TO.N,GND*%
X146825000Y-88350000D03*
X144300000Y-94700000D03*
X149050000Y-88350000D03*
X151275000Y-88370000D03*
X152920000Y-95700000D03*
X145250000Y-92770000D03*
X149450000Y-94085000D03*
X144300000Y-88350000D03*
X153200000Y-87080000D03*
X145300000Y-95700000D03*
X152400000Y-88030000D03*
X153200000Y-92160000D03*
X146570000Y-95700000D03*
X153200000Y-88350000D03*
X144500000Y-85802500D03*
X153200000Y-94700000D03*
X152250000Y-92050000D03*
X146850000Y-91150000D03*
X153200000Y-89620000D03*
X150150000Y-87880000D03*
X145250000Y-93830000D03*
X151970000Y-90700000D03*
X151050000Y-94050000D03*
X145200000Y-86262500D03*
X147300000Y-93500000D03*
X153600000Y-85902500D03*
X153200000Y-93430000D03*
X145750000Y-87147500D03*
X152450000Y-87197500D03*
X144300000Y-92160000D03*
X148000000Y-87147500D03*
X151050000Y-91950000D03*
X148950000Y-93175000D03*
X147840000Y-95700000D03*
X146100000Y-90000000D03*
X144300000Y-89620000D03*
X144300000Y-93430000D03*
X144300000Y-90890000D03*
X149110000Y-95700000D03*
X151650000Y-95700000D03*
X150380000Y-95700000D03*
X153200000Y-90890000D03*
%TO.N,IOT_21A_G1*%
X152575000Y-94850000D03*
X149750000Y-92475000D03*
%TO.N,+2V5_NVCM*%
X147725000Y-90520566D03*
X151600000Y-87920000D03*
X147300000Y-93100000D03*
%TO.N,+1V2_CORE*%
X147170000Y-87150000D03*
X148725000Y-88780000D03*
X145250000Y-94470000D03*
X146900000Y-93900000D03*
%TO.N,~{CRESET}*%
X145200000Y-85902500D03*
X148400000Y-95350000D03*
%TO.N,IOT_18B*%
X145700000Y-89500000D03*
X148150000Y-90450000D03*
X144700000Y-94800000D03*
X147700000Y-93100000D03*
%TO.N,IOB_6A*%
X150020000Y-95700000D03*
X146500000Y-94300000D03*
%TO.N,IOT_24B*%
X146500000Y-93100000D03*
X153200000Y-93790000D03*
%TO.N,FLASH_MISO*%
X152450000Y-86837500D03*
X147700000Y-94300000D03*
X152250000Y-93650000D03*
X151450000Y-92350000D03*
%TO.N,FLASH_~{CS}*%
X153200000Y-91700000D03*
X153600000Y-86262500D03*
%TO.N,FLASH_MOSI*%
X149932630Y-91325000D03*
X148000000Y-86787500D03*
%TO.N,FLASH_SCK*%
X150700000Y-91650000D03*
X149850000Y-92850000D03*
X150200000Y-86787500D03*
X150700000Y-93700000D03*
%TO.N,CDONE*%
X148500000Y-92500000D03*
X148500000Y-91750000D03*
X148500000Y-89625000D03*
X145000000Y-86930000D03*
X148500000Y-90450000D03*
X147700000Y-93900000D03*
%TO.N,IOT_27A*%
X146500000Y-93500000D03*
X153200000Y-92520000D03*
%TO.N,IOB_10A*%
X148100000Y-93900000D03*
X151290000Y-95700000D03*
%TO.N,/FPGA/LED*%
X143800000Y-85802500D03*
X144623275Y-89438539D03*
%TO.N,IOT_22B_G0*%
X152560000Y-95700000D03*
X148600000Y-93200000D03*
%TO.N,12MHZ_CLK*%
X146500000Y-93900000D03*
X146900000Y-90522170D03*
%TD*%
%TA.AperFunction,Conductor*%
%TO.N,GND*%
G36*
X145545148Y-84964852D02*
G01*
X145559500Y-84999500D01*
X145559500Y-85814069D01*
X145584499Y-85939744D01*
X145592293Y-85958561D01*
X145621446Y-86028943D01*
X145633535Y-86058127D01*
X145704724Y-86164669D01*
X145795331Y-86255276D01*
X145901873Y-86326465D01*
X146020256Y-86375501D01*
X146145931Y-86400500D01*
X146274069Y-86400500D01*
X146399744Y-86375501D01*
X146518127Y-86326465D01*
X146624669Y-86255276D01*
X146715276Y-86164669D01*
X146786465Y-86058127D01*
X146799730Y-86026101D01*
X146826249Y-85999584D01*
X146863752Y-85999584D01*
X146890269Y-86026101D01*
X146903535Y-86058127D01*
X146974724Y-86164669D01*
X147065331Y-86255276D01*
X147171873Y-86326465D01*
X147290256Y-86375501D01*
X147415931Y-86400500D01*
X147544069Y-86400500D01*
X147669744Y-86375501D01*
X147788127Y-86326465D01*
X147894669Y-86255276D01*
X147985276Y-86164669D01*
X148056465Y-86058127D01*
X148069730Y-86026101D01*
X148096249Y-85999584D01*
X148133752Y-85999584D01*
X148160269Y-86026101D01*
X148173535Y-86058127D01*
X148244724Y-86164669D01*
X148335331Y-86255276D01*
X148441873Y-86326465D01*
X148560256Y-86375501D01*
X148685931Y-86400500D01*
X148814069Y-86400500D01*
X148939744Y-86375501D01*
X149058127Y-86326465D01*
X149164669Y-86255276D01*
X149255276Y-86164669D01*
X149326465Y-86058127D01*
X149339730Y-86026101D01*
X149366249Y-85999584D01*
X149403752Y-85999584D01*
X149430269Y-86026101D01*
X149443535Y-86058127D01*
X149514724Y-86164669D01*
X149605331Y-86255276D01*
X149711873Y-86326465D01*
X149830256Y-86375501D01*
X149955931Y-86400500D01*
X150084069Y-86400500D01*
X150209744Y-86375501D01*
X150328127Y-86326465D01*
X150434669Y-86255276D01*
X150525276Y-86164669D01*
X150596465Y-86058127D01*
X150609730Y-86026101D01*
X150636249Y-85999584D01*
X150673752Y-85999584D01*
X150700269Y-86026101D01*
X150713535Y-86058127D01*
X150784724Y-86164669D01*
X150875331Y-86255276D01*
X150981873Y-86326465D01*
X151100256Y-86375501D01*
X151225931Y-86400500D01*
X151354069Y-86400500D01*
X151479744Y-86375501D01*
X151598127Y-86326465D01*
X151704669Y-86255276D01*
X151795276Y-86164669D01*
X151866465Y-86058127D01*
X151879730Y-86026101D01*
X151906249Y-85999584D01*
X151943752Y-85999584D01*
X151970269Y-86026101D01*
X151983535Y-86058127D01*
X152054724Y-86164669D01*
X152145331Y-86255276D01*
X152251873Y-86326465D01*
X152370256Y-86375501D01*
X152495931Y-86400500D01*
X152624069Y-86400500D01*
X152749744Y-86375501D01*
X152868127Y-86326465D01*
X152974669Y-86255276D01*
X153022247Y-86207698D01*
X153324500Y-86207698D01*
X153324500Y-86207700D01*
X153324500Y-86317300D01*
X153366443Y-86418558D01*
X153366444Y-86418559D01*
X153366445Y-86418561D01*
X153443939Y-86496055D01*
X153443940Y-86496055D01*
X153443942Y-86496057D01*
X153545200Y-86538000D01*
X153545202Y-86538000D01*
X153654798Y-86538000D01*
X153654800Y-86538000D01*
X153756058Y-86496057D01*
X153756060Y-86496055D01*
X153756061Y-86496055D01*
X153833555Y-86418561D01*
X153833555Y-86418560D01*
X153833557Y-86418558D01*
X153875500Y-86317300D01*
X153875500Y-86207700D01*
X153833557Y-86106442D01*
X153833555Y-86106440D01*
X153833555Y-86106439D01*
X153756061Y-86028945D01*
X153756059Y-86028944D01*
X153756058Y-86028943D01*
X153685180Y-85999584D01*
X153654801Y-85987000D01*
X153654800Y-85987000D01*
X153545200Y-85987000D01*
X153545198Y-85987000D01*
X153443940Y-86028944D01*
X153366444Y-86106440D01*
X153324500Y-86207698D01*
X153022247Y-86207698D01*
X153065276Y-86164669D01*
X153136465Y-86058127D01*
X153185501Y-85939744D01*
X153210500Y-85814069D01*
X153210500Y-84999500D01*
X153224852Y-84964852D01*
X153259500Y-84950500D01*
X153896654Y-84950500D01*
X153931302Y-84964852D01*
X155035148Y-86068698D01*
X155049500Y-86103346D01*
X155049500Y-86740500D01*
X155035148Y-86775148D01*
X155000500Y-86789500D01*
X154185927Y-86789500D01*
X154060262Y-86814497D01*
X154060257Y-86814498D01*
X153941874Y-86863534D01*
X153835331Y-86934723D01*
X153744723Y-87025331D01*
X153673534Y-87131874D01*
X153624498Y-87250257D01*
X153624497Y-87250262D01*
X153599500Y-87375927D01*
X153599500Y-87504072D01*
X153624497Y-87629737D01*
X153624498Y-87629742D01*
X153673534Y-87748125D01*
X153718287Y-87815104D01*
X153744724Y-87854669D01*
X153835331Y-87945276D01*
X153941873Y-88016465D01*
X153964094Y-88025669D01*
X153973897Y-88029730D01*
X154000415Y-88056249D01*
X154000415Y-88093752D01*
X153973897Y-88120270D01*
X153941874Y-88133534D01*
X153835331Y-88204723D01*
X153744723Y-88295331D01*
X153673534Y-88401874D01*
X153624498Y-88520257D01*
X153624497Y-88520262D01*
X153599500Y-88645927D01*
X153599500Y-88774072D01*
X153624497Y-88899737D01*
X153624498Y-88899742D01*
X153624499Y-88899744D01*
X153673535Y-89018127D01*
X153744724Y-89124669D01*
X153835331Y-89215276D01*
X153941873Y-89286465D01*
X153964094Y-89295669D01*
X153973897Y-89299730D01*
X154000415Y-89326249D01*
X154000415Y-89363752D01*
X153973897Y-89390270D01*
X153941874Y-89403534D01*
X153835331Y-89474723D01*
X153744723Y-89565331D01*
X153673534Y-89671874D01*
X153624498Y-89790257D01*
X153624497Y-89790262D01*
X153599500Y-89915927D01*
X153599500Y-90044072D01*
X153624497Y-90169737D01*
X153624498Y-90169742D01*
X153624499Y-90169744D01*
X153673535Y-90288127D01*
X153690863Y-90314060D01*
X153725641Y-90366110D01*
X153744724Y-90394669D01*
X153835331Y-90485276D01*
X153941873Y-90556465D01*
X153964094Y-90565669D01*
X153973897Y-90569730D01*
X154000415Y-90596249D01*
X154000415Y-90633752D01*
X153973897Y-90660270D01*
X153941874Y-90673534D01*
X153835331Y-90744723D01*
X153744723Y-90835331D01*
X153673534Y-90941874D01*
X153624498Y-91060257D01*
X153624497Y-91060262D01*
X153599500Y-91185927D01*
X153599500Y-91314072D01*
X153624497Y-91439737D01*
X153624498Y-91439742D01*
X153667659Y-91543940D01*
X153673535Y-91558127D01*
X153697466Y-91593942D01*
X153731716Y-91645202D01*
X153744724Y-91664669D01*
X153835331Y-91755276D01*
X153941873Y-91826465D01*
X153964094Y-91835669D01*
X153973897Y-91839730D01*
X154000415Y-91866249D01*
X154000415Y-91903752D01*
X153973897Y-91930270D01*
X153941874Y-91943534D01*
X153835331Y-92014723D01*
X153744723Y-92105331D01*
X153673534Y-92211874D01*
X153624498Y-92330257D01*
X153624497Y-92330262D01*
X153599500Y-92455927D01*
X153599500Y-92584072D01*
X153624497Y-92709737D01*
X153624498Y-92709742D01*
X153672033Y-92824500D01*
X153673535Y-92828127D01*
X153744724Y-92934669D01*
X153835331Y-93025276D01*
X153941873Y-93096465D01*
X153964094Y-93105669D01*
X153973897Y-93109730D01*
X154000415Y-93136249D01*
X154000415Y-93173752D01*
X153973897Y-93200270D01*
X153941874Y-93213534D01*
X153835331Y-93284723D01*
X153744723Y-93375331D01*
X153673534Y-93481874D01*
X153624498Y-93600257D01*
X153624497Y-93600262D01*
X153599500Y-93725927D01*
X153599500Y-93854072D01*
X153624497Y-93979737D01*
X153624498Y-93979742D01*
X153656111Y-94056061D01*
X153673535Y-94098127D01*
X153681726Y-94110385D01*
X153740270Y-94198004D01*
X153744724Y-94204669D01*
X153835331Y-94295276D01*
X153941873Y-94366465D01*
X153954323Y-94371622D01*
X153973897Y-94379730D01*
X154000415Y-94406249D01*
X154000415Y-94443752D01*
X153973897Y-94470270D01*
X153941874Y-94483534D01*
X153835331Y-94554723D01*
X153744723Y-94645331D01*
X153673534Y-94751874D01*
X153624498Y-94870257D01*
X153624497Y-94870262D01*
X153599500Y-94995927D01*
X153599500Y-95124072D01*
X153624497Y-95249737D01*
X153624498Y-95249742D01*
X153673534Y-95368125D01*
X153739227Y-95466443D01*
X153744724Y-95474669D01*
X153835331Y-95565276D01*
X153941873Y-95636465D01*
X154060256Y-95685501D01*
X154185931Y-95710500D01*
X155000500Y-95710500D01*
X155035148Y-95724852D01*
X155049500Y-95759500D01*
X155049500Y-96396654D01*
X155035148Y-96431302D01*
X153931302Y-97535148D01*
X153896654Y-97549500D01*
X153259500Y-97549500D01*
X153224852Y-97535148D01*
X153210500Y-97500500D01*
X153210500Y-96685931D01*
X153210499Y-96685927D01*
X153185502Y-96560262D01*
X153185501Y-96560257D01*
X153177062Y-96539882D01*
X153136465Y-96441873D01*
X153065276Y-96335331D01*
X152974669Y-96244724D01*
X152868127Y-96173535D01*
X152749744Y-96124499D01*
X152749742Y-96124498D01*
X152749737Y-96124497D01*
X152624072Y-96099500D01*
X152624069Y-96099500D01*
X152495931Y-96099500D01*
X152495927Y-96099500D01*
X152370262Y-96124497D01*
X152370257Y-96124498D01*
X152251874Y-96173534D01*
X152145331Y-96244723D01*
X152054723Y-96335331D01*
X151983534Y-96441874D01*
X151970270Y-96473897D01*
X151943751Y-96500415D01*
X151906248Y-96500415D01*
X151879730Y-96473897D01*
X151866465Y-96441874D01*
X151866465Y-96441873D01*
X151795276Y-96335331D01*
X151704669Y-96244724D01*
X151598127Y-96173535D01*
X151479744Y-96124499D01*
X151479742Y-96124498D01*
X151479737Y-96124497D01*
X151354072Y-96099500D01*
X151354069Y-96099500D01*
X151225931Y-96099500D01*
X151225927Y-96099500D01*
X151100262Y-96124497D01*
X151100257Y-96124498D01*
X150981874Y-96173534D01*
X150875331Y-96244723D01*
X150784723Y-96335331D01*
X150713534Y-96441874D01*
X150700270Y-96473897D01*
X150673751Y-96500415D01*
X150636248Y-96500415D01*
X150609730Y-96473897D01*
X150596465Y-96441874D01*
X150596465Y-96441873D01*
X150525276Y-96335331D01*
X150434669Y-96244724D01*
X150328127Y-96173535D01*
X150209744Y-96124499D01*
X150209742Y-96124498D01*
X150209737Y-96124497D01*
X150084072Y-96099500D01*
X150084069Y-96099500D01*
X149955931Y-96099500D01*
X149955927Y-96099500D01*
X149830262Y-96124497D01*
X149830257Y-96124498D01*
X149711874Y-96173534D01*
X149605331Y-96244723D01*
X149514723Y-96335331D01*
X149443534Y-96441874D01*
X149430270Y-96473897D01*
X149403751Y-96500415D01*
X149366248Y-96500415D01*
X149339730Y-96473897D01*
X149326465Y-96441874D01*
X149326465Y-96441873D01*
X149255276Y-96335331D01*
X149164669Y-96244724D01*
X149058127Y-96173535D01*
X148939744Y-96124499D01*
X148939742Y-96124498D01*
X148939737Y-96124497D01*
X148814072Y-96099500D01*
X148814069Y-96099500D01*
X148685931Y-96099500D01*
X148685927Y-96099500D01*
X148560262Y-96124497D01*
X148560257Y-96124498D01*
X148441874Y-96173534D01*
X148335331Y-96244723D01*
X148244723Y-96335331D01*
X148173534Y-96441874D01*
X148160270Y-96473897D01*
X148133751Y-96500415D01*
X148096248Y-96500415D01*
X148069730Y-96473897D01*
X148056465Y-96441874D01*
X148056465Y-96441873D01*
X147985276Y-96335331D01*
X147894669Y-96244724D01*
X147788127Y-96173535D01*
X147669744Y-96124499D01*
X147669742Y-96124498D01*
X147669737Y-96124497D01*
X147544072Y-96099500D01*
X147544069Y-96099500D01*
X147415931Y-96099500D01*
X147415927Y-96099500D01*
X147290262Y-96124497D01*
X147290257Y-96124498D01*
X147171874Y-96173534D01*
X147065331Y-96244723D01*
X146974723Y-96335331D01*
X146903534Y-96441874D01*
X146890270Y-96473897D01*
X146863751Y-96500415D01*
X146826248Y-96500415D01*
X146799730Y-96473897D01*
X146786465Y-96441874D01*
X146786465Y-96441873D01*
X146715276Y-96335331D01*
X146624669Y-96244724D01*
X146518127Y-96173535D01*
X146399744Y-96124499D01*
X146399742Y-96124498D01*
X146399737Y-96124497D01*
X146274072Y-96099500D01*
X146274069Y-96099500D01*
X146145931Y-96099500D01*
X146145927Y-96099500D01*
X146020262Y-96124497D01*
X146020257Y-96124498D01*
X145901874Y-96173534D01*
X145795331Y-96244723D01*
X145704723Y-96335331D01*
X145633534Y-96441874D01*
X145620270Y-96473897D01*
X145593751Y-96500415D01*
X145556248Y-96500415D01*
X145529730Y-96473897D01*
X145516465Y-96441874D01*
X145516465Y-96441873D01*
X145445276Y-96335331D01*
X145354669Y-96244724D01*
X145248127Y-96173535D01*
X145129744Y-96124499D01*
X145129742Y-96124498D01*
X145129737Y-96124497D01*
X145004072Y-96099500D01*
X145004069Y-96099500D01*
X144875931Y-96099500D01*
X144875927Y-96099500D01*
X144750262Y-96124497D01*
X144750257Y-96124498D01*
X144631874Y-96173534D01*
X144525331Y-96244723D01*
X144434723Y-96335331D01*
X144363534Y-96441874D01*
X144314498Y-96560257D01*
X144314497Y-96560262D01*
X144289500Y-96685927D01*
X144289500Y-97500500D01*
X144275148Y-97535148D01*
X144240500Y-97549500D01*
X143603346Y-97549500D01*
X143568698Y-97535148D01*
X142464852Y-96431302D01*
X142450500Y-96396654D01*
X142450500Y-95759500D01*
X142464852Y-95724852D01*
X142499500Y-95710500D01*
X143314069Y-95710500D01*
X143439744Y-95685501D01*
X143537044Y-95645198D01*
X149744500Y-95645198D01*
X149744500Y-95754801D01*
X149761874Y-95796744D01*
X149786443Y-95856058D01*
X149786444Y-95856059D01*
X149786445Y-95856061D01*
X149863939Y-95933555D01*
X149863940Y-95933555D01*
X149863942Y-95933557D01*
X149965200Y-95975500D01*
X149965202Y-95975500D01*
X150074798Y-95975500D01*
X150074800Y-95975500D01*
X150176058Y-95933557D01*
X150176060Y-95933555D01*
X150176061Y-95933555D01*
X150253555Y-95856061D01*
X150253555Y-95856060D01*
X150253557Y-95856058D01*
X150295500Y-95754800D01*
X150295500Y-95645200D01*
X150295499Y-95645198D01*
X151014500Y-95645198D01*
X151014500Y-95754801D01*
X151031874Y-95796744D01*
X151056443Y-95856058D01*
X151056444Y-95856059D01*
X151056445Y-95856061D01*
X151133939Y-95933555D01*
X151133940Y-95933555D01*
X151133942Y-95933557D01*
X151235200Y-95975500D01*
X151235202Y-95975500D01*
X151344798Y-95975500D01*
X151344800Y-95975500D01*
X151446058Y-95933557D01*
X151446060Y-95933555D01*
X151446061Y-95933555D01*
X151523555Y-95856061D01*
X151523555Y-95856060D01*
X151523557Y-95856058D01*
X151565500Y-95754800D01*
X151565500Y-95645200D01*
X151565499Y-95645198D01*
X152284500Y-95645198D01*
X152284500Y-95754801D01*
X152301874Y-95796744D01*
X152326443Y-95856058D01*
X152326444Y-95856059D01*
X152326445Y-95856061D01*
X152403939Y-95933555D01*
X152403940Y-95933555D01*
X152403942Y-95933557D01*
X152505200Y-95975500D01*
X152505202Y-95975500D01*
X152614798Y-95975500D01*
X152614800Y-95975500D01*
X152716058Y-95933557D01*
X152716060Y-95933555D01*
X152716061Y-95933555D01*
X152793555Y-95856061D01*
X152793555Y-95856060D01*
X152793557Y-95856058D01*
X152835500Y-95754800D01*
X152835500Y-95645200D01*
X152793557Y-95543942D01*
X152793555Y-95543940D01*
X152793555Y-95543939D01*
X152716061Y-95466445D01*
X152716059Y-95466444D01*
X152716058Y-95466443D01*
X152656744Y-95441874D01*
X152614801Y-95424500D01*
X152614800Y-95424500D01*
X152505200Y-95424500D01*
X152505198Y-95424500D01*
X152403940Y-95466444D01*
X152326444Y-95543940D01*
X152284500Y-95645198D01*
X151565499Y-95645198D01*
X151523557Y-95543942D01*
X151523555Y-95543940D01*
X151523555Y-95543939D01*
X151446061Y-95466445D01*
X151446059Y-95466444D01*
X151446058Y-95466443D01*
X151386744Y-95441874D01*
X151344801Y-95424500D01*
X151344800Y-95424500D01*
X151235200Y-95424500D01*
X151235198Y-95424500D01*
X151133940Y-95466444D01*
X151056444Y-95543940D01*
X151014500Y-95645198D01*
X150295499Y-95645198D01*
X150253557Y-95543942D01*
X150253555Y-95543940D01*
X150253555Y-95543939D01*
X150176061Y-95466445D01*
X150176059Y-95466444D01*
X150176058Y-95466443D01*
X150116744Y-95441874D01*
X150074801Y-95424500D01*
X150074800Y-95424500D01*
X149965200Y-95424500D01*
X149965198Y-95424500D01*
X149863940Y-95466444D01*
X149786444Y-95543940D01*
X149744500Y-95645198D01*
X143537044Y-95645198D01*
X143558127Y-95636465D01*
X143664669Y-95565276D01*
X143755276Y-95474669D01*
X143826465Y-95368127D01*
X143856673Y-95295198D01*
X148124500Y-95295198D01*
X148124500Y-95295200D01*
X148124500Y-95404800D01*
X148166443Y-95506058D01*
X148166444Y-95506059D01*
X148166445Y-95506061D01*
X148243939Y-95583555D01*
X148243940Y-95583555D01*
X148243942Y-95583557D01*
X148345200Y-95625500D01*
X148345202Y-95625500D01*
X148454798Y-95625500D01*
X148454800Y-95625500D01*
X148556058Y-95583557D01*
X148556060Y-95583555D01*
X148556061Y-95583555D01*
X148633555Y-95506061D01*
X148633555Y-95506060D01*
X148633557Y-95506058D01*
X148675500Y-95404800D01*
X148675500Y-95295200D01*
X148633557Y-95193942D01*
X148633555Y-95193940D01*
X148633555Y-95193939D01*
X148556061Y-95116445D01*
X148556059Y-95116444D01*
X148556058Y-95116443D01*
X148496744Y-95091874D01*
X148454801Y-95074500D01*
X148454800Y-95074500D01*
X148345200Y-95074500D01*
X148345198Y-95074500D01*
X148243940Y-95116444D01*
X148166444Y-95193940D01*
X148124500Y-95295198D01*
X143856673Y-95295198D01*
X143875501Y-95249744D01*
X143900500Y-95124069D01*
X143900500Y-94995931D01*
X143875501Y-94870256D01*
X143826465Y-94751873D01*
X143822005Y-94745198D01*
X144424500Y-94745198D01*
X144424500Y-94854801D01*
X144435377Y-94881059D01*
X144466443Y-94956058D01*
X144466444Y-94956059D01*
X144466445Y-94956061D01*
X144543939Y-95033555D01*
X144543940Y-95033555D01*
X144543942Y-95033557D01*
X144645200Y-95075500D01*
X144645202Y-95075500D01*
X144754798Y-95075500D01*
X144754800Y-95075500D01*
X144856058Y-95033557D01*
X144856060Y-95033555D01*
X144856061Y-95033555D01*
X144933555Y-94956061D01*
X144933555Y-94956060D01*
X144933557Y-94956058D01*
X144975500Y-94854800D01*
X144975500Y-94745200D01*
X144956572Y-94699504D01*
X144956572Y-94662003D01*
X144983090Y-94635484D01*
X145020593Y-94635484D01*
X145036490Y-94646106D01*
X145093939Y-94703555D01*
X145093940Y-94703555D01*
X145093942Y-94703557D01*
X145195200Y-94745500D01*
X145195202Y-94745500D01*
X145304798Y-94745500D01*
X145304800Y-94745500D01*
X145406058Y-94703557D01*
X145406060Y-94703555D01*
X145406061Y-94703555D01*
X145439418Y-94670198D01*
X148674500Y-94670198D01*
X148674500Y-94670200D01*
X148674500Y-94779800D01*
X148716443Y-94881058D01*
X148716444Y-94881059D01*
X148716445Y-94881061D01*
X148793939Y-94958555D01*
X148793940Y-94958555D01*
X148793942Y-94958557D01*
X148895200Y-95000500D01*
X148895202Y-95000500D01*
X149004798Y-95000500D01*
X149004800Y-95000500D01*
X149106058Y-94958557D01*
X149106060Y-94958555D01*
X149106061Y-94958555D01*
X149183555Y-94881061D01*
X149183555Y-94881060D01*
X149183557Y-94881058D01*
X149219122Y-94795198D01*
X152299500Y-94795198D01*
X152299500Y-94795200D01*
X152299500Y-94904800D01*
X152341443Y-95006058D01*
X152341444Y-95006059D01*
X152341445Y-95006061D01*
X152418939Y-95083555D01*
X152418940Y-95083555D01*
X152418942Y-95083557D01*
X152520200Y-95125500D01*
X152520202Y-95125500D01*
X152629798Y-95125500D01*
X152629800Y-95125500D01*
X152731058Y-95083557D01*
X152731060Y-95083555D01*
X152731061Y-95083555D01*
X152808555Y-95006061D01*
X152808555Y-95006060D01*
X152808557Y-95006058D01*
X152850500Y-94904800D01*
X152850500Y-94795200D01*
X152808557Y-94693942D01*
X152808555Y-94693940D01*
X152808555Y-94693939D01*
X152731061Y-94616445D01*
X152731059Y-94616444D01*
X152731058Y-94616443D01*
X152671744Y-94591874D01*
X152629801Y-94574500D01*
X152629800Y-94574500D01*
X152520200Y-94574500D01*
X152520198Y-94574500D01*
X152418940Y-94616444D01*
X152341444Y-94693940D01*
X152299500Y-94795198D01*
X149219122Y-94795198D01*
X149225500Y-94779800D01*
X149225500Y-94670200D01*
X149183557Y-94568942D01*
X149183555Y-94568940D01*
X149183555Y-94568939D01*
X149106061Y-94491445D01*
X149106059Y-94491444D01*
X149106058Y-94491443D01*
X149046744Y-94466874D01*
X149004801Y-94449500D01*
X149004800Y-94449500D01*
X148895200Y-94449500D01*
X148895198Y-94449500D01*
X148793940Y-94491444D01*
X148716444Y-94568940D01*
X148674500Y-94670198D01*
X145439418Y-94670198D01*
X145483555Y-94626061D01*
X145483555Y-94626060D01*
X145483557Y-94626058D01*
X145525500Y-94524800D01*
X145525500Y-94415200D01*
X145483557Y-94313942D01*
X145483555Y-94313940D01*
X145483555Y-94313939D01*
X145406061Y-94236445D01*
X145406059Y-94236444D01*
X145406058Y-94236443D01*
X145329350Y-94204669D01*
X145304801Y-94194500D01*
X145304800Y-94194500D01*
X145195200Y-94194500D01*
X145195198Y-94194500D01*
X145111312Y-94229248D01*
X145096212Y-94235503D01*
X145093940Y-94236444D01*
X145016444Y-94313940D01*
X144974500Y-94415198D01*
X144974500Y-94415200D01*
X144974500Y-94524800D01*
X144992784Y-94568942D01*
X144993427Y-94570493D01*
X144993427Y-94607996D01*
X144966909Y-94634515D01*
X144929406Y-94634515D01*
X144913509Y-94623893D01*
X144856061Y-94566445D01*
X144856059Y-94566444D01*
X144856058Y-94566443D01*
X144796744Y-94541874D01*
X144754801Y-94524500D01*
X144754800Y-94524500D01*
X144645200Y-94524500D01*
X144645198Y-94524500D01*
X144543940Y-94566444D01*
X144466444Y-94643940D01*
X144424500Y-94745198D01*
X143822005Y-94745198D01*
X143755276Y-94645331D01*
X143664669Y-94554724D01*
X143632990Y-94533557D01*
X143611757Y-94519370D01*
X143558127Y-94483535D01*
X143526101Y-94470269D01*
X143499584Y-94443751D01*
X143499584Y-94406248D01*
X143526101Y-94379730D01*
X143558127Y-94366465D01*
X143664669Y-94295276D01*
X143755276Y-94204669D01*
X143826465Y-94098127D01*
X143875501Y-93979744D01*
X143900500Y-93854069D01*
X143900500Y-93725931D01*
X143875501Y-93600256D01*
X143826465Y-93481873D01*
X143755276Y-93375331D01*
X143664669Y-93284724D01*
X143558127Y-93213535D01*
X143526101Y-93200269D01*
X143499584Y-93173751D01*
X143499584Y-93136248D01*
X143526101Y-93109730D01*
X143558127Y-93096465D01*
X143634854Y-93045198D01*
X146224500Y-93045198D01*
X146224500Y-93154801D01*
X146232350Y-93173751D01*
X146266443Y-93256058D01*
X146266444Y-93256059D01*
X146266445Y-93256061D01*
X146275736Y-93265352D01*
X146290088Y-93300000D01*
X146275736Y-93334648D01*
X146266444Y-93343940D01*
X146224500Y-93445198D01*
X146224500Y-93554801D01*
X146225181Y-93556444D01*
X146266443Y-93656058D01*
X146266444Y-93656059D01*
X146266445Y-93656061D01*
X146275736Y-93665352D01*
X146290088Y-93700000D01*
X146275736Y-93734648D01*
X146266444Y-93743940D01*
X146224500Y-93845198D01*
X146224500Y-93845200D01*
X146224500Y-93954800D01*
X146266443Y-94056058D01*
X146266444Y-94056059D01*
X146266445Y-94056061D01*
X146275736Y-94065352D01*
X146290088Y-94100000D01*
X146275736Y-94134648D01*
X146266444Y-94143940D01*
X146224500Y-94245198D01*
X146224500Y-94245200D01*
X146224500Y-94354800D01*
X146266443Y-94456058D01*
X146266444Y-94456059D01*
X146266445Y-94456061D01*
X146343939Y-94533555D01*
X146343940Y-94533555D01*
X146343942Y-94533557D01*
X146445200Y-94575500D01*
X146445202Y-94575500D01*
X146554798Y-94575500D01*
X146554800Y-94575500D01*
X146656058Y-94533557D01*
X146656060Y-94533555D01*
X146656061Y-94533555D01*
X146733555Y-94456061D01*
X146733555Y-94456060D01*
X146733557Y-94456058D01*
X146775500Y-94354800D01*
X146775500Y-94245200D01*
X146771485Y-94235507D01*
X146771483Y-94198004D01*
X146798001Y-94171485D01*
X146835502Y-94171483D01*
X146845200Y-94175500D01*
X146845202Y-94175500D01*
X146954798Y-94175500D01*
X146954800Y-94175500D01*
X146964492Y-94171484D01*
X147001994Y-94171483D01*
X147028514Y-94198000D01*
X147028516Y-94235503D01*
X147028516Y-94235504D01*
X147024500Y-94245198D01*
X147024500Y-94245200D01*
X147024500Y-94354800D01*
X147066443Y-94456058D01*
X147066444Y-94456059D01*
X147066445Y-94456061D01*
X147143939Y-94533555D01*
X147143940Y-94533555D01*
X147143942Y-94533557D01*
X147245200Y-94575500D01*
X147245202Y-94575500D01*
X147354798Y-94575500D01*
X147354800Y-94575500D01*
X147456058Y-94533557D01*
X147465351Y-94524263D01*
X147499998Y-94509911D01*
X147534645Y-94524260D01*
X147543942Y-94533557D01*
X147645200Y-94575500D01*
X147645202Y-94575500D01*
X147754798Y-94575500D01*
X147754800Y-94575500D01*
X147856058Y-94533557D01*
X147856060Y-94533555D01*
X147856061Y-94533555D01*
X147933555Y-94456061D01*
X147933555Y-94456060D01*
X147933557Y-94456058D01*
X147958766Y-94395198D01*
X149574500Y-94395198D01*
X149574500Y-94395200D01*
X149574500Y-94504800D01*
X149616443Y-94606058D01*
X149616444Y-94606059D01*
X149616445Y-94606061D01*
X149693939Y-94683555D01*
X149693940Y-94683555D01*
X149693942Y-94683557D01*
X149795200Y-94725500D01*
X149795202Y-94725500D01*
X149904798Y-94725500D01*
X149904800Y-94725500D01*
X150006058Y-94683557D01*
X150006060Y-94683555D01*
X150006061Y-94683555D01*
X150083555Y-94606061D01*
X150083555Y-94606060D01*
X150083557Y-94606058D01*
X150125500Y-94504800D01*
X150125500Y-94395200D01*
X150083557Y-94293942D01*
X150083555Y-94293940D01*
X150083555Y-94293939D01*
X150006061Y-94216445D01*
X150006059Y-94216444D01*
X150006058Y-94216443D01*
X149946744Y-94191874D01*
X149904801Y-94174500D01*
X149904800Y-94174500D01*
X149795200Y-94174500D01*
X149795198Y-94174500D01*
X149693940Y-94216444D01*
X149616445Y-94293939D01*
X149616444Y-94293940D01*
X149616443Y-94293942D01*
X149608159Y-94313942D01*
X149574500Y-94395198D01*
X147958766Y-94395198D01*
X147975500Y-94354800D01*
X147975500Y-94245200D01*
X147971485Y-94235507D01*
X147971483Y-94198004D01*
X147998001Y-94171485D01*
X148035502Y-94171483D01*
X148045200Y-94175500D01*
X148045202Y-94175500D01*
X148154798Y-94175500D01*
X148154800Y-94175500D01*
X148256058Y-94133557D01*
X148256060Y-94133555D01*
X148256061Y-94133555D01*
X148333555Y-94056061D01*
X148333555Y-94056060D01*
X148333557Y-94056058D01*
X148375500Y-93954800D01*
X148375500Y-93845200D01*
X148333557Y-93743942D01*
X148333555Y-93743940D01*
X148333555Y-93743939D01*
X148256061Y-93666445D01*
X148256059Y-93666444D01*
X148256058Y-93666443D01*
X148204769Y-93645198D01*
X150424500Y-93645198D01*
X150424500Y-93645200D01*
X150424500Y-93754800D01*
X150466443Y-93856058D01*
X150466444Y-93856059D01*
X150466445Y-93856061D01*
X150543939Y-93933555D01*
X150543940Y-93933555D01*
X150543942Y-93933557D01*
X150645200Y-93975500D01*
X150645202Y-93975500D01*
X150754798Y-93975500D01*
X150754800Y-93975500D01*
X150856058Y-93933557D01*
X150856060Y-93933555D01*
X150856061Y-93933555D01*
X150933555Y-93856061D01*
X150933555Y-93856060D01*
X150933557Y-93856058D01*
X150975500Y-93754800D01*
X150975500Y-93645200D01*
X150954788Y-93595198D01*
X151974500Y-93595198D01*
X151974500Y-93704801D01*
X151987091Y-93735198D01*
X152016443Y-93806058D01*
X152016444Y-93806059D01*
X152016445Y-93806061D01*
X152093939Y-93883555D01*
X152093940Y-93883555D01*
X152093942Y-93883557D01*
X152195200Y-93925500D01*
X152195202Y-93925500D01*
X152304798Y-93925500D01*
X152304800Y-93925500D01*
X152406058Y-93883557D01*
X152406060Y-93883555D01*
X152406061Y-93883555D01*
X152483555Y-93806061D01*
X152483555Y-93806060D01*
X152483557Y-93806058D01*
X152512909Y-93735198D01*
X152924500Y-93735198D01*
X152924500Y-93844801D01*
X152940553Y-93883555D01*
X152966443Y-93946058D01*
X152966444Y-93946059D01*
X152966445Y-93946061D01*
X153043939Y-94023555D01*
X153043940Y-94023555D01*
X153043942Y-94023557D01*
X153145200Y-94065500D01*
X153145202Y-94065500D01*
X153254798Y-94065500D01*
X153254800Y-94065500D01*
X153356058Y-94023557D01*
X153356060Y-94023555D01*
X153356061Y-94023555D01*
X153433555Y-93946061D01*
X153433555Y-93946060D01*
X153433557Y-93946058D01*
X153475500Y-93844800D01*
X153475500Y-93735200D01*
X153433557Y-93633942D01*
X153433555Y-93633940D01*
X153433555Y-93633939D01*
X153356061Y-93556445D01*
X153356059Y-93556444D01*
X153356058Y-93556443D01*
X153296744Y-93531874D01*
X153254801Y-93514500D01*
X153254800Y-93514500D01*
X153145200Y-93514500D01*
X153145198Y-93514500D01*
X153061312Y-93549248D01*
X153047909Y-93554800D01*
X153043940Y-93556444D01*
X152966444Y-93633940D01*
X152924500Y-93735198D01*
X152512909Y-93735198D01*
X152525500Y-93704800D01*
X152525500Y-93595200D01*
X152483557Y-93493942D01*
X152483555Y-93493940D01*
X152483555Y-93493939D01*
X152406061Y-93416445D01*
X152406059Y-93416444D01*
X152406058Y-93416443D01*
X152346744Y-93391874D01*
X152304801Y-93374500D01*
X152304800Y-93374500D01*
X152195200Y-93374500D01*
X152195198Y-93374500D01*
X152093940Y-93416444D01*
X152016444Y-93493940D01*
X151974500Y-93595198D01*
X150954788Y-93595198D01*
X150933557Y-93543942D01*
X150933555Y-93543940D01*
X150933555Y-93543939D01*
X150856061Y-93466445D01*
X150856059Y-93466444D01*
X150856058Y-93466443D01*
X150781373Y-93435507D01*
X150754801Y-93424500D01*
X150754800Y-93424500D01*
X150645200Y-93424500D01*
X150645198Y-93424500D01*
X150543940Y-93466444D01*
X150466444Y-93543940D01*
X150424500Y-93645198D01*
X148204769Y-93645198D01*
X148177590Y-93633940D01*
X148154801Y-93624500D01*
X148154800Y-93624500D01*
X148045200Y-93624500D01*
X148045198Y-93624500D01*
X147943940Y-93666444D01*
X147934648Y-93675736D01*
X147900000Y-93690088D01*
X147865352Y-93675736D01*
X147856061Y-93666445D01*
X147856059Y-93666444D01*
X147856058Y-93666443D01*
X147777590Y-93633940D01*
X147754801Y-93624500D01*
X147754800Y-93624500D01*
X147645200Y-93624500D01*
X147645198Y-93624500D01*
X147543940Y-93666444D01*
X147466444Y-93743940D01*
X147424500Y-93845198D01*
X147424500Y-93954801D01*
X147428515Y-93964493D01*
X147428515Y-94001996D01*
X147401997Y-94028515D01*
X147364493Y-94028515D01*
X147354801Y-94024500D01*
X147354800Y-94024500D01*
X147245200Y-94024500D01*
X147245198Y-94024500D01*
X147235504Y-94028516D01*
X147198002Y-94028515D01*
X147171483Y-94001995D01*
X147171483Y-93964495D01*
X147175500Y-93954800D01*
X147175500Y-93845200D01*
X147133557Y-93743942D01*
X147133555Y-93743940D01*
X147133555Y-93743939D01*
X147056061Y-93666445D01*
X147056059Y-93666444D01*
X147056058Y-93666443D01*
X146977590Y-93633940D01*
X146954801Y-93624500D01*
X146954800Y-93624500D01*
X146845200Y-93624500D01*
X146845198Y-93624500D01*
X146835504Y-93628516D01*
X146798002Y-93628515D01*
X146771483Y-93601995D01*
X146771483Y-93564495D01*
X146775500Y-93554800D01*
X146775500Y-93445200D01*
X146771485Y-93435507D01*
X146771483Y-93398004D01*
X146798001Y-93371485D01*
X146835502Y-93371483D01*
X146845200Y-93375500D01*
X146845202Y-93375500D01*
X146954798Y-93375500D01*
X146954800Y-93375500D01*
X147056058Y-93333557D01*
X147065351Y-93324263D01*
X147099998Y-93309911D01*
X147134645Y-93324260D01*
X147143942Y-93333557D01*
X147245200Y-93375500D01*
X147245202Y-93375500D01*
X147354798Y-93375500D01*
X147354800Y-93375500D01*
X147456058Y-93333557D01*
X147465351Y-93324263D01*
X147499998Y-93309911D01*
X147534645Y-93324260D01*
X147543942Y-93333557D01*
X147645200Y-93375500D01*
X147645202Y-93375500D01*
X147754798Y-93375500D01*
X147754800Y-93375500D01*
X147856058Y-93333557D01*
X147856060Y-93333555D01*
X147856061Y-93333555D01*
X147933555Y-93256061D01*
X147933555Y-93256060D01*
X147933557Y-93256058D01*
X147975500Y-93154800D01*
X147975500Y-93145198D01*
X148324500Y-93145198D01*
X148324500Y-93254801D01*
X148325022Y-93256061D01*
X148366443Y-93356058D01*
X148366444Y-93356059D01*
X148366445Y-93356061D01*
X148443939Y-93433555D01*
X148443940Y-93433555D01*
X148443942Y-93433557D01*
X148545200Y-93475500D01*
X148545202Y-93475500D01*
X148654798Y-93475500D01*
X148654800Y-93475500D01*
X148756058Y-93433557D01*
X148756060Y-93433555D01*
X148756061Y-93433555D01*
X148833555Y-93356061D01*
X148833555Y-93356060D01*
X148833557Y-93356058D01*
X148875500Y-93254800D01*
X148875500Y-93145200D01*
X148833557Y-93043942D01*
X148833555Y-93043940D01*
X148833555Y-93043939D01*
X148756061Y-92966445D01*
X148756059Y-92966444D01*
X148756058Y-92966443D01*
X148679350Y-92934669D01*
X148654801Y-92924500D01*
X148654800Y-92924500D01*
X148545200Y-92924500D01*
X148545198Y-92924500D01*
X148443940Y-92966444D01*
X148366444Y-93043940D01*
X148324500Y-93145198D01*
X147975500Y-93145198D01*
X147975500Y-93045200D01*
X147933557Y-92943942D01*
X147933555Y-92943940D01*
X147933555Y-92943939D01*
X147856061Y-92866445D01*
X147856059Y-92866444D01*
X147856058Y-92866443D01*
X147796744Y-92841874D01*
X147754801Y-92824500D01*
X147754800Y-92824500D01*
X147645200Y-92824500D01*
X147645198Y-92824500D01*
X147543940Y-92866444D01*
X147534648Y-92875736D01*
X147500000Y-92890088D01*
X147465352Y-92875736D01*
X147456061Y-92866445D01*
X147456059Y-92866444D01*
X147456058Y-92866443D01*
X147396744Y-92841874D01*
X147354801Y-92824500D01*
X147354800Y-92824500D01*
X147245200Y-92824500D01*
X147245198Y-92824500D01*
X147143940Y-92866444D01*
X147134648Y-92875736D01*
X147100000Y-92890088D01*
X147065352Y-92875736D01*
X147056061Y-92866445D01*
X147056059Y-92866444D01*
X147056058Y-92866443D01*
X146996744Y-92841874D01*
X146954801Y-92824500D01*
X146954800Y-92824500D01*
X146845200Y-92824500D01*
X146845198Y-92824500D01*
X146743940Y-92866444D01*
X146734648Y-92875736D01*
X146700000Y-92890088D01*
X146665352Y-92875736D01*
X146656061Y-92866445D01*
X146656059Y-92866444D01*
X146656058Y-92866443D01*
X146596744Y-92841874D01*
X146554801Y-92824500D01*
X146554800Y-92824500D01*
X146445200Y-92824500D01*
X146445198Y-92824500D01*
X146343940Y-92866444D01*
X146266444Y-92943940D01*
X146224500Y-93045198D01*
X143634854Y-93045198D01*
X143664669Y-93025276D01*
X143755276Y-92934669D01*
X143826465Y-92828127D01*
X143875501Y-92709744D01*
X143900500Y-92584069D01*
X143900500Y-92455931D01*
X143898365Y-92445198D01*
X148224500Y-92445198D01*
X148224500Y-92554801D01*
X148232783Y-92574797D01*
X148266443Y-92656058D01*
X148266444Y-92656059D01*
X148266445Y-92656061D01*
X148343939Y-92733555D01*
X148343940Y-92733555D01*
X148343942Y-92733557D01*
X148445200Y-92775500D01*
X148445202Y-92775500D01*
X148554798Y-92775500D01*
X148554800Y-92775500D01*
X148656058Y-92733557D01*
X148733557Y-92656058D01*
X148733805Y-92655810D01*
X148768453Y-92641458D01*
X148789069Y-92647709D01*
X148789484Y-92646710D01*
X148793941Y-92648556D01*
X148793942Y-92648557D01*
X148895200Y-92690500D01*
X148895202Y-92690500D01*
X149004798Y-92690500D01*
X149004800Y-92690500D01*
X149106058Y-92648557D01*
X149106060Y-92648555D01*
X149106061Y-92648555D01*
X149183555Y-92571061D01*
X149183555Y-92571060D01*
X149183557Y-92571058D01*
X149225500Y-92469800D01*
X149225500Y-92420198D01*
X149474500Y-92420198D01*
X149474500Y-92420200D01*
X149474500Y-92529800D01*
X149516443Y-92631058D01*
X149516444Y-92631059D01*
X149516445Y-92631061D01*
X149582420Y-92697036D01*
X149596772Y-92731684D01*
X149593042Y-92750436D01*
X149574500Y-92795198D01*
X149574500Y-92795200D01*
X149574500Y-92904800D01*
X149616443Y-93006058D01*
X149616444Y-93006059D01*
X149616445Y-93006061D01*
X149693939Y-93083555D01*
X149693940Y-93083555D01*
X149693942Y-93083557D01*
X149795200Y-93125500D01*
X149795202Y-93125500D01*
X149904798Y-93125500D01*
X149904800Y-93125500D01*
X150006058Y-93083557D01*
X150006060Y-93083555D01*
X150006061Y-93083555D01*
X150083555Y-93006061D01*
X150083555Y-93006060D01*
X150083557Y-93006058D01*
X150125500Y-92904800D01*
X150125500Y-92795200D01*
X150083557Y-92693942D01*
X150083555Y-92693940D01*
X150083555Y-92693939D01*
X150017579Y-92627964D01*
X150003227Y-92593316D01*
X150006957Y-92574564D01*
X150008409Y-92571059D01*
X150025500Y-92529800D01*
X150025500Y-92420200D01*
X149983557Y-92318942D01*
X149983555Y-92318940D01*
X149983555Y-92318939D01*
X149959814Y-92295198D01*
X151174500Y-92295198D01*
X151174500Y-92404801D01*
X151174790Y-92405500D01*
X151216443Y-92506058D01*
X151216444Y-92506059D01*
X151216445Y-92506061D01*
X151293939Y-92583555D01*
X151293940Y-92583555D01*
X151293942Y-92583557D01*
X151395200Y-92625500D01*
X151395202Y-92625500D01*
X151504798Y-92625500D01*
X151504800Y-92625500D01*
X151606058Y-92583557D01*
X151606060Y-92583555D01*
X151606061Y-92583555D01*
X151683555Y-92506061D01*
X151683555Y-92506060D01*
X151683557Y-92506058D01*
X151700482Y-92465198D01*
X152924500Y-92465198D01*
X152924500Y-92574801D01*
X152938275Y-92608055D01*
X152966443Y-92676058D01*
X152966444Y-92676059D01*
X152966445Y-92676061D01*
X153043939Y-92753555D01*
X153043940Y-92753555D01*
X153043942Y-92753557D01*
X153145200Y-92795500D01*
X153145202Y-92795500D01*
X153254798Y-92795500D01*
X153254800Y-92795500D01*
X153356058Y-92753557D01*
X153356060Y-92753555D01*
X153356061Y-92753555D01*
X153433555Y-92676061D01*
X153433555Y-92676060D01*
X153433557Y-92676058D01*
X153475500Y-92574800D01*
X153475500Y-92465200D01*
X153433557Y-92363942D01*
X153433555Y-92363940D01*
X153433555Y-92363939D01*
X153356061Y-92286445D01*
X153356059Y-92286444D01*
X153356058Y-92286443D01*
X153289661Y-92258940D01*
X153254801Y-92244500D01*
X153254800Y-92244500D01*
X153145200Y-92244500D01*
X153145198Y-92244500D01*
X153061312Y-92279248D01*
X153044865Y-92286061D01*
X153043940Y-92286444D01*
X152966444Y-92363940D01*
X152924500Y-92465198D01*
X151700482Y-92465198D01*
X151725500Y-92404800D01*
X151725500Y-92295200D01*
X151683557Y-92193942D01*
X151683555Y-92193940D01*
X151683555Y-92193939D01*
X151606061Y-92116445D01*
X151606059Y-92116444D01*
X151606058Y-92116443D01*
X151546744Y-92091874D01*
X151504801Y-92074500D01*
X151504800Y-92074500D01*
X151395200Y-92074500D01*
X151395198Y-92074500D01*
X151293940Y-92116444D01*
X151216444Y-92193940D01*
X151174500Y-92295198D01*
X149959814Y-92295198D01*
X149906061Y-92241445D01*
X149906059Y-92241444D01*
X149906058Y-92241443D01*
X149834671Y-92211873D01*
X149804801Y-92199500D01*
X149804800Y-92199500D01*
X149695200Y-92199500D01*
X149695198Y-92199500D01*
X149593940Y-92241444D01*
X149516444Y-92318940D01*
X149474500Y-92420198D01*
X149225500Y-92420198D01*
X149225500Y-92360200D01*
X149183557Y-92258942D01*
X149183555Y-92258940D01*
X149183555Y-92258939D01*
X149106061Y-92181445D01*
X149106059Y-92181444D01*
X149106058Y-92181443D01*
X149046744Y-92156874D01*
X149004801Y-92139500D01*
X149004800Y-92139500D01*
X148895200Y-92139500D01*
X148895198Y-92139500D01*
X148793940Y-92181444D01*
X148793938Y-92181445D01*
X148716194Y-92259189D01*
X148681546Y-92273541D01*
X148660929Y-92267290D01*
X148660516Y-92268290D01*
X148656058Y-92266443D01*
X148603084Y-92244500D01*
X148554801Y-92224500D01*
X148554800Y-92224500D01*
X148445200Y-92224500D01*
X148445198Y-92224500D01*
X148343940Y-92266444D01*
X148266444Y-92343940D01*
X148224500Y-92445198D01*
X143898365Y-92445198D01*
X143875501Y-92330256D01*
X143826465Y-92211873D01*
X143755276Y-92105331D01*
X143725143Y-92075198D01*
X144974500Y-92075198D01*
X144974500Y-92184801D01*
X144990944Y-92224500D01*
X145016443Y-92286058D01*
X145016444Y-92286059D01*
X145016445Y-92286061D01*
X145093939Y-92363555D01*
X145093940Y-92363555D01*
X145093942Y-92363557D01*
X145195200Y-92405500D01*
X145195202Y-92405500D01*
X145304798Y-92405500D01*
X145304800Y-92405500D01*
X145406058Y-92363557D01*
X145406060Y-92363555D01*
X145406061Y-92363555D01*
X145483555Y-92286061D01*
X145483555Y-92286060D01*
X145483557Y-92286058D01*
X145525500Y-92184800D01*
X145525500Y-92075200D01*
X145483557Y-91973942D01*
X145483555Y-91973940D01*
X145483555Y-91973939D01*
X145406061Y-91896445D01*
X145406059Y-91896444D01*
X145406058Y-91896443D01*
X145307562Y-91855644D01*
X145307561Y-91855643D01*
X145304803Y-91854501D01*
X145304801Y-91854500D01*
X145304800Y-91854500D01*
X145195200Y-91854500D01*
X145195198Y-91854500D01*
X145093940Y-91896444D01*
X145016444Y-91973940D01*
X144974500Y-92075198D01*
X143725143Y-92075198D01*
X143664669Y-92014724D01*
X143558127Y-91943535D01*
X143526101Y-91930269D01*
X143499584Y-91903751D01*
X143499584Y-91866248D01*
X143526101Y-91839730D01*
X143558127Y-91826465D01*
X143574989Y-91815198D01*
X146574500Y-91815198D01*
X146574500Y-91924801D01*
X146578126Y-91933555D01*
X146616443Y-92026058D01*
X146616444Y-92026059D01*
X146616445Y-92026061D01*
X146693939Y-92103555D01*
X146693940Y-92103555D01*
X146693942Y-92103557D01*
X146795200Y-92145500D01*
X146795202Y-92145500D01*
X146904798Y-92145500D01*
X146904800Y-92145500D01*
X147006058Y-92103557D01*
X147006060Y-92103555D01*
X147006061Y-92103555D01*
X147083555Y-92026061D01*
X147083555Y-92026060D01*
X147083557Y-92026058D01*
X147125500Y-91924800D01*
X147125500Y-91815200D01*
X147083557Y-91713942D01*
X147083555Y-91713940D01*
X147083555Y-91713939D01*
X147064814Y-91695198D01*
X148224500Y-91695198D01*
X148224500Y-91804801D01*
X148233474Y-91826465D01*
X148266443Y-91906058D01*
X148266444Y-91906059D01*
X148266445Y-91906061D01*
X148343939Y-91983555D01*
X148343940Y-91983555D01*
X148343942Y-91983557D01*
X148445200Y-92025500D01*
X148445202Y-92025500D01*
X148554798Y-92025500D01*
X148554800Y-92025500D01*
X148656058Y-91983557D01*
X148656060Y-91983555D01*
X148656061Y-91983555D01*
X148733555Y-91906061D01*
X148733555Y-91906060D01*
X148733557Y-91906058D01*
X148775500Y-91804800D01*
X148775500Y-91695200D01*
X148733557Y-91593942D01*
X148733555Y-91593940D01*
X148733555Y-91593939D01*
X148656061Y-91516445D01*
X148656059Y-91516444D01*
X148656058Y-91516443D01*
X148596744Y-91491874D01*
X148554801Y-91474500D01*
X148554800Y-91474500D01*
X148445200Y-91474500D01*
X148445198Y-91474500D01*
X148343940Y-91516444D01*
X148266444Y-91593940D01*
X148224500Y-91695198D01*
X147064814Y-91695198D01*
X147006061Y-91636445D01*
X147006059Y-91636444D01*
X147006058Y-91636443D01*
X146946744Y-91611874D01*
X146904801Y-91594500D01*
X146904800Y-91594500D01*
X146795200Y-91594500D01*
X146795198Y-91594500D01*
X146693940Y-91636444D01*
X146616444Y-91713940D01*
X146574500Y-91815198D01*
X143574989Y-91815198D01*
X143664669Y-91755276D01*
X143755276Y-91664669D01*
X143826465Y-91558127D01*
X143875501Y-91439744D01*
X143900500Y-91314069D01*
X143900500Y-91185931D01*
X143875501Y-91060256D01*
X143875500Y-91060253D01*
X143875499Y-91060249D01*
X143875034Y-91059128D01*
X143875033Y-91059126D01*
X143869264Y-91045198D01*
X145024500Y-91045198D01*
X145024500Y-91154801D01*
X145030357Y-91168940D01*
X145066443Y-91256058D01*
X145066444Y-91256059D01*
X145066445Y-91256061D01*
X145143939Y-91333555D01*
X145143940Y-91333555D01*
X145143942Y-91333557D01*
X145245200Y-91375500D01*
X145245202Y-91375500D01*
X145354798Y-91375500D01*
X145354800Y-91375500D01*
X145456058Y-91333557D01*
X145456060Y-91333555D01*
X145456061Y-91333555D01*
X145533555Y-91256061D01*
X145533555Y-91256060D01*
X145533557Y-91256058D01*
X145575500Y-91154800D01*
X145575500Y-91045200D01*
X145533557Y-90943942D01*
X145533555Y-90943940D01*
X145533555Y-90943939D01*
X145456061Y-90866445D01*
X145456059Y-90866444D01*
X145456058Y-90866443D01*
X145380948Y-90835331D01*
X145354801Y-90824500D01*
X145354800Y-90824500D01*
X145245200Y-90824500D01*
X145245198Y-90824500D01*
X145143940Y-90866444D01*
X145066444Y-90943940D01*
X145024500Y-91045198D01*
X143869264Y-91045198D01*
X143848178Y-90994293D01*
X143826465Y-90941873D01*
X143755276Y-90835331D01*
X143664669Y-90744724D01*
X143558127Y-90673535D01*
X143526101Y-90660269D01*
X143499584Y-90633751D01*
X143499584Y-90596248D01*
X143526101Y-90569730D01*
X143558127Y-90556465D01*
X143664669Y-90485276D01*
X143682577Y-90467368D01*
X146624500Y-90467368D01*
X146624500Y-90467370D01*
X146624500Y-90576970D01*
X146666443Y-90678228D01*
X146666444Y-90678229D01*
X146666445Y-90678231D01*
X146743939Y-90755725D01*
X146743940Y-90755725D01*
X146743942Y-90755727D01*
X146845200Y-90797670D01*
X146845202Y-90797670D01*
X146954798Y-90797670D01*
X146954800Y-90797670D01*
X147056058Y-90755727D01*
X147056060Y-90755725D01*
X147056061Y-90755725D01*
X147133555Y-90678231D01*
X147133555Y-90678230D01*
X147133557Y-90678228D01*
X147175500Y-90576970D01*
X147175500Y-90467370D01*
X147174835Y-90465764D01*
X147449500Y-90465764D01*
X147449500Y-90575367D01*
X147458150Y-90596248D01*
X147491443Y-90676624D01*
X147491444Y-90676625D01*
X147491445Y-90676627D01*
X147568939Y-90754121D01*
X147568940Y-90754121D01*
X147568942Y-90754123D01*
X147670200Y-90796066D01*
X147670202Y-90796066D01*
X147779798Y-90796066D01*
X147779800Y-90796066D01*
X147881058Y-90754123D01*
X147940869Y-90694311D01*
X147975514Y-90679961D01*
X147994264Y-90683690D01*
X148095200Y-90725500D01*
X148095202Y-90725500D01*
X148204798Y-90725500D01*
X148204800Y-90725500D01*
X148306058Y-90683557D01*
X148306060Y-90683554D01*
X148306248Y-90683477D01*
X148343752Y-90683477D01*
X148343939Y-90683554D01*
X148343942Y-90683557D01*
X148445200Y-90725500D01*
X148445202Y-90725500D01*
X148554798Y-90725500D01*
X148554800Y-90725500D01*
X148656058Y-90683557D01*
X148656060Y-90683555D01*
X148656061Y-90683555D01*
X148694418Y-90645198D01*
X149654500Y-90645198D01*
X149654500Y-90645200D01*
X149654500Y-90754800D01*
X149696443Y-90856058D01*
X149696444Y-90856059D01*
X149696445Y-90856061D01*
X149773939Y-90933555D01*
X149773940Y-90933555D01*
X149773942Y-90933557D01*
X149856549Y-90967774D01*
X149883067Y-90994293D01*
X149883067Y-91031796D01*
X149856549Y-91058314D01*
X149776570Y-91091443D01*
X149776569Y-91091445D01*
X149699074Y-91168940D01*
X149657130Y-91270198D01*
X149657130Y-91270200D01*
X149657130Y-91379800D01*
X149699073Y-91481058D01*
X149699074Y-91481059D01*
X149699075Y-91481061D01*
X149776569Y-91558555D01*
X149776570Y-91558555D01*
X149776572Y-91558557D01*
X149877830Y-91600500D01*
X149877832Y-91600500D01*
X149987428Y-91600500D01*
X149987430Y-91600500D01*
X150000230Y-91595198D01*
X150424500Y-91595198D01*
X150424500Y-91704801D01*
X150441874Y-91746744D01*
X150466443Y-91806058D01*
X150466444Y-91806059D01*
X150466445Y-91806061D01*
X150543939Y-91883555D01*
X150543940Y-91883555D01*
X150543942Y-91883557D01*
X150645200Y-91925500D01*
X150645202Y-91925500D01*
X150754798Y-91925500D01*
X150754800Y-91925500D01*
X150856058Y-91883557D01*
X150856060Y-91883555D01*
X150856061Y-91883555D01*
X150933555Y-91806061D01*
X150933555Y-91806060D01*
X150933557Y-91806058D01*
X150975500Y-91704800D01*
X150975500Y-91645198D01*
X152924500Y-91645198D01*
X152924500Y-91645200D01*
X152924500Y-91754800D01*
X152966443Y-91856058D01*
X152966444Y-91856059D01*
X152966445Y-91856061D01*
X153043939Y-91933555D01*
X153043940Y-91933555D01*
X153043942Y-91933557D01*
X153145200Y-91975500D01*
X153145202Y-91975500D01*
X153254798Y-91975500D01*
X153254800Y-91975500D01*
X153356058Y-91933557D01*
X153356060Y-91933555D01*
X153356061Y-91933555D01*
X153433555Y-91856061D01*
X153433555Y-91856060D01*
X153433557Y-91856058D01*
X153475500Y-91754800D01*
X153475500Y-91645200D01*
X153433557Y-91543942D01*
X153433555Y-91543940D01*
X153433555Y-91543939D01*
X153356061Y-91466445D01*
X153356059Y-91466444D01*
X153356058Y-91466443D01*
X153291585Y-91439737D01*
X153254801Y-91424500D01*
X153254800Y-91424500D01*
X153145200Y-91424500D01*
X153145198Y-91424500D01*
X153043940Y-91466444D01*
X152966444Y-91543940D01*
X152924500Y-91645198D01*
X150975500Y-91645198D01*
X150975500Y-91595200D01*
X150933557Y-91493942D01*
X150933555Y-91493940D01*
X150933555Y-91493939D01*
X150856061Y-91416445D01*
X150856059Y-91416444D01*
X150856058Y-91416443D01*
X150767598Y-91379801D01*
X150754801Y-91374500D01*
X150754800Y-91374500D01*
X150645200Y-91374500D01*
X150645198Y-91374500D01*
X150543940Y-91416444D01*
X150466444Y-91493940D01*
X150424500Y-91595198D01*
X150000230Y-91595198D01*
X150088688Y-91558557D01*
X150088690Y-91558555D01*
X150088691Y-91558555D01*
X150166185Y-91481061D01*
X150166185Y-91481060D01*
X150166187Y-91481058D01*
X150208130Y-91379800D01*
X150208130Y-91270200D01*
X150166187Y-91168942D01*
X150166185Y-91168940D01*
X150166185Y-91168939D01*
X150088691Y-91091445D01*
X150088689Y-91091444D01*
X150088688Y-91091443D01*
X150026041Y-91065493D01*
X150006080Y-91057225D01*
X149979562Y-91030706D01*
X149979562Y-90993203D01*
X150006079Y-90966685D01*
X150086058Y-90933557D01*
X150086060Y-90933555D01*
X150086061Y-90933555D01*
X150163555Y-90856061D01*
X150163555Y-90856060D01*
X150163557Y-90856058D01*
X150205500Y-90754800D01*
X150205500Y-90645200D01*
X150205499Y-90645198D01*
X151054500Y-90645198D01*
X151054500Y-90645200D01*
X151054500Y-90754800D01*
X151096443Y-90856058D01*
X151096444Y-90856059D01*
X151096445Y-90856061D01*
X151173939Y-90933555D01*
X151173940Y-90933555D01*
X151173942Y-90933557D01*
X151275200Y-90975500D01*
X151275202Y-90975500D01*
X151384798Y-90975500D01*
X151384800Y-90975500D01*
X151486058Y-90933557D01*
X151486060Y-90933555D01*
X151486061Y-90933555D01*
X151563555Y-90856061D01*
X151563555Y-90856060D01*
X151563557Y-90856058D01*
X151605500Y-90754800D01*
X151605500Y-90645200D01*
X151563557Y-90543942D01*
X151563555Y-90543940D01*
X151563555Y-90543939D01*
X151486061Y-90466445D01*
X151486059Y-90466444D01*
X151486058Y-90466443D01*
X151392999Y-90427896D01*
X151384801Y-90424500D01*
X151384800Y-90424500D01*
X151275200Y-90424500D01*
X151275198Y-90424500D01*
X151191312Y-90459248D01*
X151175577Y-90465766D01*
X151173940Y-90466444D01*
X151096444Y-90543940D01*
X151054500Y-90645198D01*
X150205499Y-90645198D01*
X150163557Y-90543942D01*
X150163555Y-90543940D01*
X150163555Y-90543939D01*
X150086061Y-90466445D01*
X150086059Y-90466444D01*
X150086058Y-90466443D01*
X149992999Y-90427896D01*
X149984801Y-90424500D01*
X149984800Y-90424500D01*
X149875200Y-90424500D01*
X149875198Y-90424500D01*
X149791312Y-90459248D01*
X149775577Y-90465766D01*
X149773940Y-90466444D01*
X149696444Y-90543940D01*
X149654500Y-90645198D01*
X148694418Y-90645198D01*
X148733555Y-90606061D01*
X148733555Y-90606060D01*
X148733557Y-90606058D01*
X148775500Y-90504800D01*
X148775500Y-90395200D01*
X148733557Y-90293942D01*
X148733555Y-90293940D01*
X148733555Y-90293939D01*
X148656061Y-90216445D01*
X148656059Y-90216444D01*
X148656058Y-90216443D01*
X148596744Y-90191874D01*
X148554801Y-90174500D01*
X148554800Y-90174500D01*
X148445200Y-90174500D01*
X148445198Y-90174500D01*
X148370613Y-90205394D01*
X148343942Y-90216443D01*
X148343941Y-90216443D01*
X148343752Y-90216522D01*
X148306248Y-90216522D01*
X148306058Y-90216443D01*
X148263771Y-90198926D01*
X148204801Y-90174500D01*
X148204800Y-90174500D01*
X148095200Y-90174500D01*
X148095198Y-90174500D01*
X147993940Y-90216444D01*
X147934132Y-90276252D01*
X147899484Y-90290604D01*
X147880732Y-90286874D01*
X147779801Y-90245066D01*
X147779800Y-90245066D01*
X147670200Y-90245066D01*
X147670198Y-90245066D01*
X147568940Y-90287010D01*
X147491444Y-90364506D01*
X147491443Y-90364507D01*
X147491443Y-90364508D01*
X147490779Y-90366112D01*
X147449500Y-90465764D01*
X147174835Y-90465764D01*
X147133557Y-90366112D01*
X147133555Y-90366110D01*
X147133555Y-90366109D01*
X147056061Y-90288615D01*
X147056059Y-90288614D01*
X147056058Y-90288613D01*
X146996744Y-90264044D01*
X146954801Y-90246670D01*
X146954800Y-90246670D01*
X146845200Y-90246670D01*
X146845198Y-90246670D01*
X146761312Y-90281418D01*
X146745116Y-90288127D01*
X146743940Y-90288614D01*
X146666444Y-90366110D01*
X146624500Y-90467368D01*
X143682577Y-90467368D01*
X143755276Y-90394669D01*
X143826465Y-90288127D01*
X143875501Y-90169744D01*
X143900500Y-90044069D01*
X143900500Y-89915931D01*
X143875501Y-89790256D01*
X143826465Y-89671873D01*
X143755276Y-89565331D01*
X143664669Y-89474724D01*
X143656011Y-89468939D01*
X143584407Y-89421095D01*
X143558127Y-89403535D01*
X143524050Y-89389419D01*
X143522084Y-89388388D01*
X143518207Y-89383737D01*
X144347775Y-89383737D01*
X144347775Y-89383739D01*
X144347775Y-89493339D01*
X144389718Y-89594597D01*
X144389719Y-89594598D01*
X144389720Y-89594600D01*
X144467214Y-89672094D01*
X144467215Y-89672094D01*
X144467217Y-89672096D01*
X144568475Y-89714039D01*
X144568477Y-89714039D01*
X144678073Y-89714039D01*
X144678075Y-89714039D01*
X144779333Y-89672096D01*
X144779335Y-89672094D01*
X144779336Y-89672094D01*
X144856830Y-89594600D01*
X144856830Y-89594599D01*
X144856832Y-89594597D01*
X144898775Y-89493339D01*
X144898775Y-89445198D01*
X145424500Y-89445198D01*
X145424500Y-89445200D01*
X145424500Y-89554800D01*
X145466443Y-89656058D01*
X145466444Y-89656059D01*
X145466445Y-89656061D01*
X145543939Y-89733555D01*
X145543940Y-89733555D01*
X145543942Y-89733557D01*
X145645200Y-89775500D01*
X145645202Y-89775500D01*
X145754798Y-89775500D01*
X145754800Y-89775500D01*
X145856058Y-89733557D01*
X145856060Y-89733555D01*
X145856061Y-89733555D01*
X145933555Y-89656061D01*
X145933555Y-89656060D01*
X145933557Y-89656058D01*
X145969122Y-89570198D01*
X148224500Y-89570198D01*
X148224500Y-89570200D01*
X148224500Y-89679800D01*
X148266443Y-89781058D01*
X148266444Y-89781059D01*
X148266445Y-89781061D01*
X148343939Y-89858555D01*
X148343940Y-89858555D01*
X148343942Y-89858557D01*
X148445200Y-89900500D01*
X148445202Y-89900500D01*
X148554798Y-89900500D01*
X148554800Y-89900500D01*
X148656058Y-89858557D01*
X148656060Y-89858555D01*
X148656061Y-89858555D01*
X148733555Y-89781061D01*
X148733555Y-89781060D01*
X148733557Y-89781058D01*
X148775500Y-89679800D01*
X148775500Y-89570200D01*
X148733557Y-89468942D01*
X148733555Y-89468940D01*
X148733555Y-89468939D01*
X148656061Y-89391445D01*
X148656059Y-89391444D01*
X148656058Y-89391443D01*
X148589207Y-89363752D01*
X148554801Y-89349500D01*
X148554800Y-89349500D01*
X148445200Y-89349500D01*
X148445198Y-89349500D01*
X148362546Y-89383737D01*
X148351318Y-89388388D01*
X148343940Y-89391444D01*
X148266444Y-89468940D01*
X148266443Y-89468941D01*
X148266443Y-89468942D01*
X148264048Y-89474724D01*
X148224500Y-89570198D01*
X145969122Y-89570198D01*
X145975500Y-89554800D01*
X145975500Y-89445200D01*
X145933557Y-89343942D01*
X145933555Y-89343940D01*
X145933555Y-89343939D01*
X145856061Y-89266445D01*
X145856059Y-89266444D01*
X145856058Y-89266443D01*
X145796744Y-89241874D01*
X145754801Y-89224500D01*
X145754800Y-89224500D01*
X145645200Y-89224500D01*
X145645198Y-89224500D01*
X145543940Y-89266444D01*
X145466444Y-89343940D01*
X145424500Y-89445198D01*
X144898775Y-89445198D01*
X144898775Y-89383739D01*
X144856832Y-89282481D01*
X144856830Y-89282479D01*
X144856830Y-89282478D01*
X144779336Y-89204984D01*
X144779334Y-89204983D01*
X144779333Y-89204982D01*
X144720019Y-89180413D01*
X144678076Y-89163039D01*
X144678075Y-89163039D01*
X144568475Y-89163039D01*
X144568473Y-89163039D01*
X144467215Y-89204983D01*
X144389719Y-89282479D01*
X144347775Y-89383737D01*
X143518207Y-89383737D01*
X143511391Y-89375559D01*
X143499584Y-89363751D01*
X143499584Y-89361391D01*
X143498073Y-89359579D01*
X143499584Y-89342946D01*
X143499584Y-89326248D01*
X143501252Y-89324579D01*
X143501466Y-89322230D01*
X143514291Y-89311540D01*
X143526101Y-89299730D01*
X143558127Y-89286465D01*
X143664669Y-89215276D01*
X143755276Y-89124669D01*
X143826465Y-89018127D01*
X143875501Y-88899744D01*
X143900500Y-88774069D01*
X143900500Y-88725198D01*
X148449500Y-88725198D01*
X148449500Y-88725200D01*
X148449500Y-88834800D01*
X148491443Y-88936058D01*
X148491444Y-88936059D01*
X148491445Y-88936061D01*
X148568939Y-89013555D01*
X148568940Y-89013555D01*
X148568942Y-89013557D01*
X148670200Y-89055500D01*
X148670202Y-89055500D01*
X148779798Y-89055500D01*
X148779800Y-89055500D01*
X148881058Y-89013557D01*
X148881060Y-89013555D01*
X148881061Y-89013555D01*
X148958555Y-88936061D01*
X148958555Y-88936060D01*
X148958557Y-88936058D01*
X149000500Y-88834800D01*
X149000500Y-88725200D01*
X149000499Y-88725198D01*
X150674500Y-88725198D01*
X150674500Y-88725200D01*
X150674500Y-88834800D01*
X150716443Y-88936058D01*
X150716444Y-88936059D01*
X150716445Y-88936061D01*
X150793939Y-89013555D01*
X150793940Y-89013555D01*
X150793942Y-89013557D01*
X150895200Y-89055500D01*
X150895202Y-89055500D01*
X151004798Y-89055500D01*
X151004800Y-89055500D01*
X151106058Y-89013557D01*
X151106060Y-89013555D01*
X151106061Y-89013555D01*
X151183555Y-88936061D01*
X151183555Y-88936060D01*
X151183557Y-88936058D01*
X151225500Y-88834800D01*
X151225500Y-88725200D01*
X151183557Y-88623942D01*
X151183555Y-88623940D01*
X151183555Y-88623939D01*
X151106061Y-88546445D01*
X151106059Y-88546444D01*
X151106058Y-88546443D01*
X151042838Y-88520256D01*
X151004801Y-88504500D01*
X151004800Y-88504500D01*
X150895200Y-88504500D01*
X150895198Y-88504500D01*
X150793940Y-88546444D01*
X150716444Y-88623940D01*
X150674500Y-88725198D01*
X149000499Y-88725198D01*
X148958557Y-88623942D01*
X148958555Y-88623940D01*
X148958555Y-88623939D01*
X148881061Y-88546445D01*
X148881059Y-88546444D01*
X148881058Y-88546443D01*
X148817838Y-88520256D01*
X148779801Y-88504500D01*
X148779800Y-88504500D01*
X148670200Y-88504500D01*
X148670198Y-88504500D01*
X148568940Y-88546444D01*
X148491444Y-88623940D01*
X148449500Y-88725198D01*
X143900500Y-88725198D01*
X143900500Y-88645931D01*
X143875501Y-88520256D01*
X143826465Y-88401873D01*
X143755276Y-88295331D01*
X143664669Y-88204724D01*
X143650864Y-88195500D01*
X143588089Y-88153555D01*
X143558127Y-88133535D01*
X143439744Y-88084499D01*
X143439742Y-88084498D01*
X143439737Y-88084497D01*
X143314072Y-88059500D01*
X143314069Y-88059500D01*
X142499500Y-88059500D01*
X142464852Y-88045148D01*
X142450500Y-88010500D01*
X142450500Y-87865198D01*
X151324500Y-87865198D01*
X151324500Y-87865200D01*
X151324500Y-87974800D01*
X151366443Y-88076058D01*
X151366444Y-88076059D01*
X151366445Y-88076061D01*
X151443939Y-88153555D01*
X151443940Y-88153555D01*
X151443942Y-88153557D01*
X151545200Y-88195500D01*
X151545202Y-88195500D01*
X151654798Y-88195500D01*
X151654800Y-88195500D01*
X151756058Y-88153557D01*
X151756060Y-88153555D01*
X151756061Y-88153555D01*
X151833555Y-88076061D01*
X151833555Y-88076060D01*
X151833557Y-88076058D01*
X151875500Y-87974800D01*
X151875500Y-87865200D01*
X151833557Y-87763942D01*
X151833555Y-87763940D01*
X151833555Y-87763939D01*
X151756061Y-87686445D01*
X151756059Y-87686444D01*
X151756058Y-87686443D01*
X151696744Y-87661874D01*
X151654801Y-87644500D01*
X151654800Y-87644500D01*
X151545200Y-87644500D01*
X151545198Y-87644500D01*
X151443940Y-87686444D01*
X151366444Y-87763940D01*
X151324500Y-87865198D01*
X142450500Y-87865198D01*
X142450500Y-87515198D01*
X144374500Y-87515198D01*
X144374500Y-87515200D01*
X144374500Y-87624800D01*
X144416443Y-87726058D01*
X144416444Y-87726059D01*
X144416445Y-87726061D01*
X144493939Y-87803555D01*
X144493940Y-87803555D01*
X144493942Y-87803557D01*
X144595200Y-87845500D01*
X144595202Y-87845500D01*
X144704798Y-87845500D01*
X144704800Y-87845500D01*
X144806058Y-87803557D01*
X144806060Y-87803555D01*
X144806061Y-87803555D01*
X144883555Y-87726061D01*
X144883555Y-87726060D01*
X144883557Y-87726058D01*
X144925500Y-87624800D01*
X144925500Y-87515200D01*
X144883557Y-87413942D01*
X144883555Y-87413940D01*
X144883555Y-87413939D01*
X144806061Y-87336445D01*
X144806059Y-87336444D01*
X144806058Y-87336443D01*
X144746744Y-87311874D01*
X144704801Y-87294500D01*
X144704800Y-87294500D01*
X144595200Y-87294500D01*
X144595198Y-87294500D01*
X144493940Y-87336444D01*
X144416444Y-87413940D01*
X144416443Y-87413941D01*
X144416443Y-87413942D01*
X144409248Y-87431312D01*
X144374500Y-87515198D01*
X142450500Y-87515198D01*
X142450500Y-86875198D01*
X144724500Y-86875198D01*
X144724500Y-86984801D01*
X144739518Y-87021057D01*
X144766443Y-87086058D01*
X144766444Y-87086059D01*
X144766445Y-87086061D01*
X144843939Y-87163555D01*
X144843940Y-87163555D01*
X144843942Y-87163557D01*
X144945200Y-87205500D01*
X144945202Y-87205500D01*
X145054798Y-87205500D01*
X145054800Y-87205500D01*
X145156058Y-87163557D01*
X145156060Y-87163555D01*
X145156061Y-87163555D01*
X145224418Y-87095198D01*
X146894500Y-87095198D01*
X146894500Y-87204801D01*
X146894790Y-87205500D01*
X146936443Y-87306058D01*
X146936444Y-87306059D01*
X146936445Y-87306061D01*
X147013939Y-87383555D01*
X147013940Y-87383555D01*
X147013942Y-87383557D01*
X147115200Y-87425500D01*
X147115202Y-87425500D01*
X147224798Y-87425500D01*
X147224800Y-87425500D01*
X147326058Y-87383557D01*
X147326060Y-87383555D01*
X147326061Y-87383555D01*
X147403555Y-87306061D01*
X147403555Y-87306060D01*
X147403557Y-87306058D01*
X147445500Y-87204800D01*
X147445500Y-87095200D01*
X147445499Y-87095198D01*
X149094500Y-87095198D01*
X149094500Y-87204801D01*
X149094790Y-87205500D01*
X149136443Y-87306058D01*
X149136444Y-87306059D01*
X149136445Y-87306061D01*
X149213939Y-87383555D01*
X149213940Y-87383555D01*
X149213942Y-87383557D01*
X149315200Y-87425500D01*
X149315202Y-87425500D01*
X149424798Y-87425500D01*
X149424800Y-87425500D01*
X149526058Y-87383557D01*
X149526060Y-87383555D01*
X149526061Y-87383555D01*
X149603555Y-87306061D01*
X149603555Y-87306060D01*
X149603557Y-87306058D01*
X149645500Y-87204800D01*
X149645500Y-87095200D01*
X149603557Y-86993942D01*
X149603555Y-86993940D01*
X149603555Y-86993939D01*
X149526061Y-86916445D01*
X149526059Y-86916444D01*
X149526058Y-86916443D01*
X149466744Y-86891874D01*
X149424801Y-86874500D01*
X149424800Y-86874500D01*
X149315200Y-86874500D01*
X149315198Y-86874500D01*
X149213940Y-86916444D01*
X149136444Y-86993940D01*
X149094500Y-87095198D01*
X147445499Y-87095198D01*
X147403557Y-86993942D01*
X147403555Y-86993940D01*
X147403555Y-86993939D01*
X147326061Y-86916445D01*
X147326059Y-86916444D01*
X147326058Y-86916443D01*
X147266744Y-86891874D01*
X147224801Y-86874500D01*
X147224800Y-86874500D01*
X147115200Y-86874500D01*
X147115198Y-86874500D01*
X147013940Y-86916444D01*
X146936444Y-86993940D01*
X146894500Y-87095198D01*
X145224418Y-87095198D01*
X145233555Y-87086061D01*
X145233555Y-87086059D01*
X145233557Y-87086058D01*
X145275500Y-86984800D01*
X145275500Y-86875200D01*
X145233557Y-86773942D01*
X145233555Y-86773940D01*
X145233555Y-86773939D01*
X145192314Y-86732698D01*
X147724500Y-86732698D01*
X147724500Y-86842301D01*
X147733296Y-86863535D01*
X147766443Y-86943558D01*
X147766444Y-86943559D01*
X147766445Y-86943561D01*
X147843939Y-87021055D01*
X147843940Y-87021055D01*
X147843942Y-87021057D01*
X147945200Y-87063000D01*
X147945202Y-87063000D01*
X148054798Y-87063000D01*
X148054800Y-87063000D01*
X148156058Y-87021057D01*
X148156060Y-87021055D01*
X148156061Y-87021055D01*
X148233555Y-86943561D01*
X148233555Y-86943560D01*
X148233557Y-86943558D01*
X148275500Y-86842300D01*
X148275500Y-86732700D01*
X148275499Y-86732698D01*
X149924500Y-86732698D01*
X149924500Y-86842301D01*
X149933296Y-86863535D01*
X149966443Y-86943558D01*
X149966444Y-86943559D01*
X149966445Y-86943561D01*
X150043939Y-87021055D01*
X150043940Y-87021055D01*
X150043942Y-87021057D01*
X150145200Y-87063000D01*
X150145202Y-87063000D01*
X150254798Y-87063000D01*
X150254800Y-87063000D01*
X150356058Y-87021057D01*
X150356060Y-87021055D01*
X150356061Y-87021055D01*
X150433555Y-86943561D01*
X150433555Y-86943560D01*
X150433557Y-86943558D01*
X150475500Y-86842300D01*
X150475500Y-86782698D01*
X152174500Y-86782698D01*
X152174500Y-86782700D01*
X152174500Y-86892300D01*
X152216443Y-86993558D01*
X152216444Y-86993559D01*
X152216445Y-86993561D01*
X152293939Y-87071055D01*
X152293940Y-87071055D01*
X152293942Y-87071057D01*
X152395200Y-87113000D01*
X152395202Y-87113000D01*
X152504798Y-87113000D01*
X152504800Y-87113000D01*
X152606058Y-87071057D01*
X152606060Y-87071055D01*
X152606061Y-87071055D01*
X152683555Y-86993561D01*
X152683555Y-86993560D01*
X152683557Y-86993558D01*
X152725500Y-86892300D01*
X152725500Y-86782700D01*
X152683557Y-86681442D01*
X152683555Y-86681440D01*
X152683555Y-86681439D01*
X152606061Y-86603945D01*
X152606059Y-86603944D01*
X152606058Y-86603943D01*
X152546744Y-86579374D01*
X152504801Y-86562000D01*
X152504800Y-86562000D01*
X152395200Y-86562000D01*
X152395198Y-86562000D01*
X152293940Y-86603944D01*
X152216444Y-86681440D01*
X152174500Y-86782698D01*
X150475500Y-86782698D01*
X150475500Y-86732700D01*
X150433557Y-86631442D01*
X150433555Y-86631440D01*
X150433555Y-86631439D01*
X150356061Y-86553945D01*
X150356059Y-86553944D01*
X150356058Y-86553943D01*
X150296744Y-86529374D01*
X150254801Y-86512000D01*
X150254800Y-86512000D01*
X150145200Y-86512000D01*
X150145198Y-86512000D01*
X150043940Y-86553944D01*
X149966444Y-86631440D01*
X149924500Y-86732698D01*
X148275499Y-86732698D01*
X148233557Y-86631442D01*
X148233555Y-86631440D01*
X148233555Y-86631439D01*
X148156061Y-86553945D01*
X148156059Y-86553944D01*
X148156058Y-86553943D01*
X148096744Y-86529374D01*
X148054801Y-86512000D01*
X148054800Y-86512000D01*
X147945200Y-86512000D01*
X147945198Y-86512000D01*
X147843940Y-86553944D01*
X147766444Y-86631440D01*
X147724500Y-86732698D01*
X145192314Y-86732698D01*
X145156061Y-86696445D01*
X145156059Y-86696444D01*
X145156058Y-86696443D01*
X145096744Y-86671874D01*
X145054801Y-86654500D01*
X145054800Y-86654500D01*
X144945200Y-86654500D01*
X144945198Y-86654500D01*
X144843940Y-86696444D01*
X144766444Y-86773940D01*
X144766443Y-86773941D01*
X144766443Y-86773942D01*
X144759999Y-86789500D01*
X144724500Y-86875198D01*
X142450500Y-86875198D01*
X142450500Y-86103346D01*
X142464852Y-86068698D01*
X142785852Y-85747698D01*
X143524500Y-85747698D01*
X143524500Y-85857301D01*
X143541874Y-85899244D01*
X143566443Y-85958558D01*
X143566444Y-85958559D01*
X143566445Y-85958561D01*
X143643939Y-86036055D01*
X143643940Y-86036055D01*
X143643942Y-86036057D01*
X143745200Y-86078000D01*
X143745202Y-86078000D01*
X143854798Y-86078000D01*
X143854800Y-86078000D01*
X143956058Y-86036057D01*
X143956060Y-86036055D01*
X143956061Y-86036055D01*
X144033555Y-85958561D01*
X144033555Y-85958560D01*
X144033557Y-85958558D01*
X144075500Y-85857300D01*
X144075500Y-85847698D01*
X144924500Y-85847698D01*
X144924500Y-85957301D01*
X144925022Y-85958561D01*
X144966443Y-86058558D01*
X144966444Y-86058559D01*
X144966445Y-86058561D01*
X145043939Y-86136055D01*
X145043940Y-86136055D01*
X145043942Y-86136057D01*
X145145200Y-86178000D01*
X145145202Y-86178000D01*
X145254798Y-86178000D01*
X145254800Y-86178000D01*
X145356058Y-86136057D01*
X145356060Y-86136055D01*
X145356061Y-86136055D01*
X145433555Y-86058561D01*
X145433555Y-86058560D01*
X145433557Y-86058558D01*
X145475500Y-85957300D01*
X145475500Y-85847700D01*
X145433557Y-85746442D01*
X145433555Y-85746440D01*
X145433555Y-85746439D01*
X145356061Y-85668945D01*
X145356059Y-85668944D01*
X145356058Y-85668943D01*
X145296744Y-85644374D01*
X145254801Y-85627000D01*
X145254800Y-85627000D01*
X145145200Y-85627000D01*
X145145198Y-85627000D01*
X145043940Y-85668944D01*
X144966444Y-85746440D01*
X144924500Y-85847698D01*
X144075500Y-85847698D01*
X144075500Y-85747700D01*
X144033557Y-85646442D01*
X144033555Y-85646440D01*
X144033555Y-85646439D01*
X143956061Y-85568945D01*
X143956059Y-85568944D01*
X143956058Y-85568943D01*
X143896744Y-85544374D01*
X143854801Y-85527000D01*
X143854800Y-85527000D01*
X143745200Y-85527000D01*
X143745198Y-85527000D01*
X143643940Y-85568944D01*
X143566444Y-85646440D01*
X143524500Y-85747698D01*
X142785852Y-85747698D01*
X143568698Y-84964852D01*
X143603346Y-84950500D01*
X145510500Y-84950500D01*
X145545148Y-84964852D01*
G37*
%TD.AperFunction*%
%TD*%
M02*
