M48
; DRILL file KiCad 10.0.0 date 2026-04-03T19:02:12
; FORMAT={-:-/ absolute / metric / decimal}
; #@! TF.CreationDate,2026-04-03T19:02:12+02:00
; #@! TF.GenerationSoftware,Kicad,Pcbnew,10.0.0
; #@! TF.FileFunction,Plated,1,6,PTH
FMAT,2
METRIC
; #@! TA.AperFunction,Plated,PTH,ViaDrill
T1C0.150
; #@! TA.AperFunction,Plated,PTH,ComponentDrill
T2C0.650
%
G90
G05
T1
X143.8Y-85.802
X144.3Y-88.35
X144.3Y-89.62
X144.3Y-90.89
X144.3Y-92.16
X144.3Y-93.43
X144.3Y-94.7
X144.5Y-85.802
X144.623Y-89.439
X144.65Y-87.57
X144.7Y-94.8
X145.0Y-86.93
X145.2Y-85.902
X145.2Y-86.263
X145.25Y-92.13
X145.25Y-92.77
X145.25Y-93.83
X145.25Y-94.47
X145.3Y-91.1
X145.3Y-95.7
X145.7Y-89.5
X145.75Y-87.147
X146.1Y-90.0
X146.5Y-93.1
X146.5Y-93.5
X146.5Y-93.9
X146.5Y-94.3
X146.57Y-95.7
X146.825Y-88.35
X146.85Y-91.15
X146.85Y-91.87
X146.9Y-90.522
X146.9Y-93.1
X146.9Y-93.9
X147.17Y-87.15
X147.3Y-93.1
X147.3Y-93.5
X147.3Y-94.3
X147.7Y-93.1
X147.7Y-93.9
X147.7Y-94.3
X147.725Y-90.521
X147.84Y-95.7
X148.0Y-86.787
X148.0Y-87.147
X148.1Y-93.9
X148.15Y-90.45
X148.4Y-95.35
X148.5Y-89.625
X148.5Y-90.45
X148.5Y-91.75
X148.5Y-92.5
X148.6Y-93.2
X148.725Y-88.78
X148.95Y-92.415
X148.95Y-93.175
X148.95Y-94.725
X149.05Y-88.35
X149.11Y-95.7
X149.37Y-87.15
X149.45Y-94.085
X149.75Y-92.475
X149.85Y-92.85
X149.85Y-94.45
X149.93Y-90.7
X149.933Y-91.325
X150.02Y-95.7
X150.15Y-87.88
X150.2Y-86.787
X150.38Y-95.7
X150.7Y-91.65
X150.7Y-93.7
X150.95Y-88.78
X151.05Y-91.95
X151.05Y-94.05
X151.275Y-88.37
X151.29Y-95.7
X151.33Y-90.7
X151.45Y-92.35
X151.6Y-87.92
X151.65Y-95.7
X151.97Y-90.7
X152.25Y-92.05
X152.25Y-93.65
X152.4Y-88.03
X152.45Y-86.837
X152.45Y-87.197
X152.56Y-95.7
X152.575Y-94.85
X152.92Y-95.7
X153.2Y-87.08
X153.2Y-88.35
X153.2Y-89.62
X153.2Y-90.89
X153.2Y-91.7
X153.2Y-92.16
X153.2Y-92.52
X153.2Y-93.43
X153.2Y-93.79
X153.2Y-94.7
X153.6Y-85.902
X153.6Y-86.263
T2
X142.25Y-87.44
X142.25Y-88.71
X142.25Y-89.98
X142.25Y-91.25
X142.25Y-92.52
X142.25Y-93.79
X142.25Y-95.06
X143.25Y-87.44
X143.25Y-88.71
X143.25Y-89.98
X143.25Y-91.25
X143.25Y-92.52
X143.25Y-93.79
X143.25Y-95.06
X144.94Y-96.75
X144.94Y-97.75
X146.21Y-84.75
X146.21Y-85.75
X146.21Y-96.75
X146.21Y-97.75
X147.48Y-84.75
X147.48Y-85.75
X147.48Y-96.75
X147.48Y-97.75
X148.75Y-84.75
X148.75Y-85.75
X148.75Y-96.75
X148.75Y-97.75
X150.02Y-84.75
X150.02Y-85.75
X150.02Y-96.75
X150.02Y-97.75
X151.29Y-84.75
X151.29Y-85.75
X151.29Y-96.75
X151.29Y-97.75
X152.56Y-84.75
X152.56Y-85.75
X152.56Y-96.75
X152.56Y-97.75
X154.25Y-87.44
X154.25Y-88.71
X154.25Y-89.98
X154.25Y-91.25
X154.25Y-92.52
X154.25Y-93.79
X154.25Y-95.06
X155.25Y-87.44
X155.25Y-88.71
X155.25Y-89.98
X155.25Y-91.25
X155.25Y-92.52
X155.25Y-93.79
X155.25Y-95.06
M30
