%TF.GenerationSoftware,KiCad,Pcbnew,10.0.0*%
%TF.CreationDate,2026-04-03T19:02:08+02:00*%
%TF.ProjectId,Core_Module,436f7265-5f4d-46f6-9475-6c652e6b6963,2.0*%
%TF.SameCoordinates,Original*%
%TF.FileFunction,Copper,L3,Inr*%
%TF.FilePolarity,Positive*%
%FSLAX46Y46*%
G04 Gerber Fmt 4.6, Leading zero omitted, Abs format (unit mm)*
G04 Created by KiCad (PCBNEW 10.0.0) date 2026-04-03 19:02:08*
%MOMM*%
%LPD*%
G01*
G04 APERTURE LIST*
%TA.AperFunction,ComponentPad*%
%ADD10C,1.000000*%
%TD*%
%TA.AperFunction,ComponentPad*%
%ADD11O,3.000000X1.000000*%
%TD*%
%TA.AperFunction,ComponentPad*%
%ADD12O,1.000000X3.000000*%
%TD*%
%TA.AperFunction,ViaPad*%
%ADD13C,0.250000*%
%TD*%
G04 APERTURE END LIST*
D10*
%TO.N,IOT_18B*%
%TO.C,J201*%
X143250000Y-95060000D03*
D11*
X142250000Y-95060000D03*
D10*
%TO.N,IOB_4A*%
X143250000Y-93790000D03*
D11*
X142250000Y-93790000D03*
D10*
%TO.N,IOB_5B*%
X143250000Y-92520000D03*
D11*
X142250000Y-92520000D03*
D10*
%TO.N,RGB1*%
X143250000Y-91250000D03*
D11*
X142250000Y-91250000D03*
D10*
%TO.N,RGB2*%
X143250000Y-89980000D03*
D11*
X142250000Y-89980000D03*
D10*
%TO.N,+5V*%
X143250000Y-88710000D03*
D11*
X142250000Y-88710000D03*
D10*
%TO.N,GND*%
X143250000Y-87440000D03*
D11*
X142250000Y-87440000D03*
%TD*%
D10*
%TO.N,FLASH_~{CS}*%
%TO.C,J205*%
X152560000Y-85750000D03*
D12*
X152560000Y-84750000D03*
D10*
%TO.N,FLASH_MISO*%
X151290000Y-85750000D03*
D12*
X151290000Y-84750000D03*
D10*
%TO.N,FLASH_SCK*%
X150020000Y-85750000D03*
D12*
X150020000Y-84750000D03*
D10*
%TO.N,FLASH_MOSI*%
X148750000Y-85750000D03*
D12*
X148750000Y-84750000D03*
D10*
%TO.N,CDONE*%
X147480000Y-85750000D03*
D12*
X147480000Y-84750000D03*
D10*
%TO.N,~{CRESET}*%
X146210000Y-85750000D03*
D12*
X146210000Y-84750000D03*
%TD*%
D10*
%TO.N,IOT_25A*%
%TO.C,J203*%
X154250000Y-87440000D03*
D11*
X155250000Y-87440000D03*
D10*
%TO.N,IOT_19A*%
X154250000Y-88710000D03*
D11*
X155250000Y-88710000D03*
D10*
%TO.N,BARCODE*%
X154250000Y-89980000D03*
D11*
X155250000Y-89980000D03*
D10*
%TO.N,IRLED*%
X154250000Y-91250000D03*
D11*
X155250000Y-91250000D03*
D10*
%TO.N,IOT_27A*%
X154250000Y-92520000D03*
D11*
X155250000Y-92520000D03*
D10*
%TO.N,IOT_24B*%
X154250000Y-93790000D03*
D11*
X155250000Y-93790000D03*
D10*
%TO.N,IOT_21A_G1*%
X154250000Y-95060000D03*
D11*
X155250000Y-95060000D03*
%TD*%
D10*
%TO.N,IOT_22B_G0*%
%TO.C,J202*%
X152560000Y-96750000D03*
D12*
X152560000Y-97750000D03*
D10*
%TO.N,IOB_10A*%
X151290000Y-96750000D03*
D12*
X151290000Y-97750000D03*
D10*
%TO.N,IOB_6A*%
X150020000Y-96750000D03*
D12*
X150020000Y-97750000D03*
D10*
%TO.N,IOB_7B_G5*%
X148750000Y-96750000D03*
D12*
X148750000Y-97750000D03*
D10*
%TO.N,IOB_3B_G6*%
X147480000Y-96750000D03*
D12*
X147480000Y-97750000D03*
D10*
%TO.N,IOB_0A*%
X146210000Y-96750000D03*
D12*
X146210000Y-97750000D03*
D10*
%TO.N,IOB_1B*%
X144940000Y-96750000D03*
D12*
X144940000Y-97750000D03*
%TD*%
D13*
%TO.N,+3V3*%
X145250000Y-92130000D03*
X144650000Y-87570000D03*
X145300000Y-91100000D03*
X149930000Y-90700000D03*
X148950000Y-94725000D03*
X148950000Y-92415000D03*
X146900000Y-93100000D03*
X149850000Y-94450000D03*
X151330000Y-90700000D03*
X150950000Y-88780000D03*
X146850000Y-91870000D03*
X147300000Y-94300000D03*
X149370000Y-87150000D03*
%TO.N,GND*%
X146825000Y-88350000D03*
X144300000Y-94700000D03*
X149050000Y-88350000D03*
X151275000Y-88370000D03*
X152920000Y-95700000D03*
X145250000Y-92770000D03*
X149450000Y-94085000D03*
X144300000Y-88350000D03*
X153200000Y-87080000D03*
X145300000Y-95700000D03*
X152400000Y-88030000D03*
X153200000Y-92160000D03*
X146570000Y-95700000D03*
X153200000Y-88350000D03*
X144500000Y-85802500D03*
X153200000Y-94700000D03*
X152250000Y-92050000D03*
X146850000Y-91150000D03*
X153200000Y-89620000D03*
X150150000Y-87880000D03*
X145250000Y-93830000D03*
X151970000Y-90700000D03*
X151050000Y-94050000D03*
X145200000Y-86262500D03*
X147300000Y-93500000D03*
X153600000Y-85902500D03*
X153200000Y-93430000D03*
X145750000Y-87147500D03*
X152450000Y-87197500D03*
X144300000Y-92160000D03*
X148000000Y-87147500D03*
X151050000Y-91950000D03*
X148950000Y-93175000D03*
X147840000Y-95700000D03*
X146100000Y-90000000D03*
X144300000Y-89620000D03*
X144300000Y-93430000D03*
X144300000Y-90890000D03*
X149110000Y-95700000D03*
X151650000Y-95700000D03*
X150380000Y-95700000D03*
X153200000Y-90890000D03*
%TO.N,IOT_21A_G1*%
X152575000Y-94850000D03*
X149750000Y-92475000D03*
%TO.N,+2V5_NVCM*%
X147725000Y-90520566D03*
X151600000Y-87920000D03*
X147300000Y-93100000D03*
%TO.N,+1V2_CORE*%
X147170000Y-87150000D03*
X148725000Y-88780000D03*
X145250000Y-94470000D03*
X146900000Y-93900000D03*
%TO.N,~{CRESET}*%
X145200000Y-85902500D03*
X148400000Y-95350000D03*
%TO.N,IOT_18B*%
X145700000Y-89500000D03*
X148150000Y-90450000D03*
X144700000Y-94800000D03*
X147700000Y-93100000D03*
%TO.N,IOB_6A*%
X150020000Y-95700000D03*
X146500000Y-94300000D03*
%TO.N,IOT_24B*%
X146500000Y-93100000D03*
X153200000Y-93790000D03*
%TO.N,FLASH_MISO*%
X152450000Y-86837500D03*
X147700000Y-94300000D03*
X152250000Y-93650000D03*
X151450000Y-92350000D03*
%TO.N,FLASH_~{CS}*%
X153200000Y-91700000D03*
X153600000Y-86262500D03*
%TO.N,FLASH_MOSI*%
X149932630Y-91325000D03*
X148000000Y-86787500D03*
%TO.N,FLASH_SCK*%
X150700000Y-91650000D03*
X149850000Y-92850000D03*
X150200000Y-86787500D03*
X150700000Y-93700000D03*
%TO.N,CDONE*%
X148500000Y-92500000D03*
X148500000Y-91750000D03*
X148500000Y-89625000D03*
X145000000Y-86930000D03*
X148500000Y-90450000D03*
X147700000Y-93900000D03*
%TO.N,IOT_27A*%
X146500000Y-93500000D03*
X153200000Y-92520000D03*
%TO.N,IOB_10A*%
X148100000Y-93900000D03*
X151290000Y-95700000D03*
%TO.N,/FPGA/LED*%
X143800000Y-85802500D03*
X144623275Y-89438539D03*
%TO.N,IOT_22B_G0*%
X152560000Y-95700000D03*
X148600000Y-93200000D03*
%TO.N,12MHZ_CLK*%
X146500000Y-93900000D03*
X146900000Y-90522170D03*
%TD*%
%TA.AperFunction,Conductor*%
%TO.N,+3V3*%
G36*
X145537826Y-84972174D02*
G01*
X145559500Y-85024500D01*
X145559500Y-85693734D01*
X145537826Y-85746060D01*
X145485500Y-85767734D01*
X145433175Y-85746060D01*
X145356058Y-85668943D01*
X145254800Y-85627000D01*
X145145200Y-85627000D01*
X145103258Y-85644373D01*
X145043943Y-85668942D01*
X144966442Y-85746443D01*
X144936278Y-85819265D01*
X144924500Y-85847700D01*
X144924500Y-85957300D01*
X144955086Y-86031140D01*
X144964630Y-86054181D01*
X144964630Y-86110818D01*
X144924500Y-86207700D01*
X144924500Y-86317300D01*
X144966443Y-86418558D01*
X145043942Y-86496057D01*
X145145200Y-86538000D01*
X145157995Y-86538000D01*
X145254798Y-86538000D01*
X145254800Y-86538000D01*
X145356058Y-86496057D01*
X145433557Y-86418558D01*
X145475500Y-86317300D01*
X145475500Y-86207700D01*
X145435369Y-86110816D01*
X145435369Y-86054183D01*
X145465269Y-85981998D01*
X145505317Y-85941952D01*
X145561954Y-85941952D01*
X145602002Y-85982000D01*
X145631900Y-86054181D01*
X145633535Y-86058127D01*
X145704724Y-86164669D01*
X145795331Y-86255276D01*
X145901873Y-86326465D01*
X146020256Y-86375501D01*
X146020258Y-86375501D01*
X146020260Y-86375502D01*
X146062903Y-86383984D01*
X146145931Y-86400500D01*
X146145933Y-86400500D01*
X146274067Y-86400500D01*
X146274069Y-86400500D01*
X146399744Y-86375501D01*
X146518127Y-86326465D01*
X146624669Y-86255276D01*
X146715276Y-86164669D01*
X146783473Y-86062604D01*
X146830563Y-86031140D01*
X146886112Y-86042189D01*
X146906525Y-86062602D01*
X146974724Y-86164669D01*
X147065331Y-86255276D01*
X147171873Y-86326465D01*
X147290256Y-86375501D01*
X147290258Y-86375501D01*
X147290260Y-86375502D01*
X147332903Y-86383984D01*
X147415931Y-86400500D01*
X147415933Y-86400500D01*
X147544067Y-86400500D01*
X147544069Y-86400500D01*
X147669744Y-86375501D01*
X147788127Y-86326465D01*
X147894669Y-86255276D01*
X147985276Y-86164669D01*
X148053473Y-86062604D01*
X148100563Y-86031140D01*
X148156112Y-86042189D01*
X148176525Y-86062602D01*
X148244724Y-86164669D01*
X148335331Y-86255276D01*
X148441873Y-86326465D01*
X148560256Y-86375501D01*
X148560258Y-86375501D01*
X148560260Y-86375502D01*
X148602903Y-86383984D01*
X148685931Y-86400500D01*
X148685933Y-86400500D01*
X148814067Y-86400500D01*
X148814069Y-86400500D01*
X148939744Y-86375501D01*
X149058127Y-86326465D01*
X149164669Y-86255276D01*
X149255276Y-86164669D01*
X149323473Y-86062604D01*
X149370563Y-86031140D01*
X149426112Y-86042189D01*
X149446525Y-86062602D01*
X149514724Y-86164669D01*
X149605331Y-86255276D01*
X149711873Y-86326465D01*
X149830256Y-86375501D01*
X149830258Y-86375501D01*
X149830260Y-86375502D01*
X149872903Y-86383984D01*
X149955931Y-86400500D01*
X149955933Y-86400500D01*
X150042363Y-86400500D01*
X150094689Y-86422174D01*
X150116363Y-86474500D01*
X150094689Y-86526826D01*
X150070682Y-86542866D01*
X150063396Y-86545884D01*
X150043943Y-86553942D01*
X149966442Y-86631443D01*
X149924500Y-86732700D01*
X149924500Y-86842300D01*
X149966443Y-86943558D01*
X150043942Y-87021057D01*
X150145200Y-87063000D01*
X150145201Y-87063000D01*
X150254798Y-87063000D01*
X150254800Y-87063000D01*
X150356058Y-87021057D01*
X150433557Y-86943558D01*
X150475500Y-86842300D01*
X150475500Y-86782700D01*
X152174500Y-86782700D01*
X152174500Y-86892300D01*
X152192073Y-86934724D01*
X152214630Y-86989181D01*
X152214630Y-87045818D01*
X152174500Y-87142700D01*
X152174500Y-87252300D01*
X152216443Y-87353558D01*
X152293942Y-87431057D01*
X152395200Y-87473000D01*
X152395201Y-87473000D01*
X152504798Y-87473000D01*
X152504800Y-87473000D01*
X152606058Y-87431057D01*
X152683557Y-87353558D01*
X152725500Y-87252300D01*
X152725500Y-87142700D01*
X152685388Y-87045864D01*
X152685374Y-87025200D01*
X152924500Y-87025200D01*
X152924500Y-87134800D01*
X152966443Y-87236058D01*
X153043942Y-87313557D01*
X153145200Y-87355500D01*
X153145201Y-87355500D01*
X153254798Y-87355500D01*
X153254800Y-87355500D01*
X153356058Y-87313557D01*
X153433557Y-87236058D01*
X153475500Y-87134800D01*
X153475500Y-87025200D01*
X153433557Y-86923942D01*
X153356058Y-86846443D01*
X153254800Y-86804500D01*
X153145200Y-86804500D01*
X153121063Y-86814498D01*
X153043943Y-86846442D01*
X152966442Y-86923943D01*
X152937447Y-86993943D01*
X152924500Y-87025200D01*
X152685374Y-87025200D01*
X152685349Y-86989231D01*
X152725500Y-86892300D01*
X152725500Y-86782700D01*
X152683557Y-86681442D01*
X152606058Y-86603943D01*
X152504800Y-86562000D01*
X152395200Y-86562000D01*
X152353258Y-86579373D01*
X152293943Y-86603942D01*
X152216442Y-86681443D01*
X152195211Y-86732700D01*
X152174500Y-86782700D01*
X150475500Y-86782700D01*
X150475500Y-86732700D01*
X150433557Y-86631442D01*
X150356058Y-86553943D01*
X150254800Y-86512000D01*
X150252229Y-86512000D01*
X150249853Y-86511016D01*
X150247651Y-86510578D01*
X150247738Y-86510139D01*
X150199903Y-86490326D01*
X150178229Y-86438000D01*
X150199903Y-86385674D01*
X150223909Y-86369633D01*
X150328127Y-86326465D01*
X150434669Y-86255276D01*
X150525276Y-86164669D01*
X150593473Y-86062604D01*
X150640563Y-86031140D01*
X150696112Y-86042189D01*
X150716525Y-86062602D01*
X150784724Y-86164669D01*
X150875331Y-86255276D01*
X150981873Y-86326465D01*
X151100256Y-86375501D01*
X151100258Y-86375501D01*
X151100260Y-86375502D01*
X151142903Y-86383984D01*
X151225931Y-86400500D01*
X151225933Y-86400500D01*
X151354067Y-86400500D01*
X151354069Y-86400500D01*
X151479744Y-86375501D01*
X151598127Y-86326465D01*
X151704669Y-86255276D01*
X151795276Y-86164669D01*
X151863473Y-86062604D01*
X151910563Y-86031140D01*
X151966112Y-86042189D01*
X151986525Y-86062602D01*
X152054724Y-86164669D01*
X152145331Y-86255276D01*
X152251873Y-86326465D01*
X152370256Y-86375501D01*
X152370258Y-86375501D01*
X152370260Y-86375502D01*
X152412903Y-86383984D01*
X152495931Y-86400500D01*
X152495933Y-86400500D01*
X152624067Y-86400500D01*
X152624069Y-86400500D01*
X152749744Y-86375501D01*
X152868127Y-86326465D01*
X152974669Y-86255276D01*
X153065276Y-86164669D01*
X153136465Y-86058127D01*
X153183692Y-85944109D01*
X153223740Y-85904061D01*
X153280377Y-85904061D01*
X153320426Y-85944109D01*
X153320729Y-85944851D01*
X153324500Y-85954241D01*
X153324500Y-85957300D01*
X153364795Y-86054581D01*
X153364933Y-86054923D01*
X153364630Y-86082916D01*
X153364630Y-86110818D01*
X153324500Y-86207700D01*
X153324500Y-86317300D01*
X153366443Y-86418558D01*
X153443942Y-86496057D01*
X153545200Y-86538000D01*
X153545201Y-86538000D01*
X153654798Y-86538000D01*
X153654800Y-86538000D01*
X153756058Y-86496057D01*
X153833557Y-86418558D01*
X153875500Y-86317300D01*
X153875500Y-86207700D01*
X153835369Y-86110816D01*
X153835369Y-86054183D01*
X153875500Y-85957300D01*
X153875500Y-85847700D01*
X153833557Y-85746442D01*
X153756058Y-85668943D01*
X153654800Y-85627000D01*
X153545200Y-85627000D01*
X153503258Y-85644373D01*
X153443943Y-85668942D01*
X153366442Y-85746443D01*
X153352867Y-85779217D01*
X153312818Y-85819265D01*
X153256181Y-85819265D01*
X153216133Y-85779216D01*
X153210500Y-85750898D01*
X153210500Y-85024500D01*
X153232174Y-84972174D01*
X153284500Y-84950500D01*
X153886298Y-84950500D01*
X153938624Y-84972174D01*
X155027826Y-86061376D01*
X155049500Y-86113702D01*
X155049500Y-86715500D01*
X155027826Y-86767826D01*
X154975500Y-86789500D01*
X154185931Y-86789500D01*
X154154726Y-86795707D01*
X154060260Y-86814497D01*
X154060257Y-86814498D01*
X153941876Y-86863533D01*
X153835331Y-86934723D01*
X153835330Y-86934725D01*
X153744725Y-87025330D01*
X153744723Y-87025331D01*
X153673533Y-87131876D01*
X153624498Y-87250257D01*
X153624497Y-87250260D01*
X153599500Y-87375932D01*
X153599500Y-87504067D01*
X153624497Y-87629739D01*
X153624498Y-87629742D01*
X153663517Y-87723943D01*
X153673535Y-87748127D01*
X153744724Y-87854669D01*
X153835331Y-87945276D01*
X153937393Y-88013472D01*
X153968859Y-88060563D01*
X153957810Y-88116112D01*
X153937394Y-88136527D01*
X153911908Y-88153557D01*
X153835331Y-88204723D01*
X153835330Y-88204725D01*
X153744725Y-88295330D01*
X153744723Y-88295331D01*
X153673533Y-88401876D01*
X153624498Y-88520257D01*
X153624497Y-88520260D01*
X153599500Y-88645932D01*
X153599500Y-88774067D01*
X153624497Y-88899739D01*
X153624498Y-88899742D01*
X153624499Y-88899744D01*
X153673535Y-89018127D01*
X153744724Y-89124669D01*
X153835331Y-89215276D01*
X153937393Y-89283472D01*
X153968859Y-89330563D01*
X153957810Y-89386112D01*
X153937394Y-89406527D01*
X153900612Y-89431104D01*
X153835331Y-89474723D01*
X153835330Y-89474725D01*
X153744725Y-89565330D01*
X153744723Y-89565331D01*
X153673533Y-89671876D01*
X153624498Y-89790257D01*
X153624497Y-89790260D01*
X153608527Y-89870550D01*
X153599500Y-89915931D01*
X153599500Y-90044069D01*
X153601635Y-90054800D01*
X153624497Y-90169739D01*
X153624498Y-90169742D01*
X153668304Y-90275500D01*
X153673535Y-90288127D01*
X153690863Y-90314060D01*
X153725643Y-90366113D01*
X153744724Y-90394669D01*
X153835331Y-90485276D01*
X153937393Y-90553472D01*
X153968859Y-90600563D01*
X153957810Y-90656112D01*
X153937394Y-90676527D01*
X153917106Y-90690084D01*
X153835331Y-90744723D01*
X153835330Y-90744725D01*
X153744725Y-90835330D01*
X153744723Y-90835331D01*
X153673533Y-90941876D01*
X153624498Y-91060257D01*
X153624497Y-91060260D01*
X153599500Y-91185932D01*
X153599500Y-91314067D01*
X153624497Y-91439739D01*
X153624498Y-91439742D01*
X153667659Y-91543943D01*
X153673535Y-91558127D01*
X153744724Y-91664669D01*
X153835331Y-91755276D01*
X153937393Y-91823472D01*
X153968859Y-91870563D01*
X153957810Y-91926112D01*
X153937394Y-91946527D01*
X153900612Y-91971104D01*
X153835331Y-92014723D01*
X153835330Y-92014725D01*
X153744725Y-92105330D01*
X153744723Y-92105331D01*
X153673533Y-92211876D01*
X153624498Y-92330257D01*
X153624497Y-92330260D01*
X153605617Y-92425178D01*
X153574151Y-92472270D01*
X153518602Y-92483319D01*
X153471510Y-92451853D01*
X153464672Y-92439060D01*
X153435369Y-92368316D01*
X153435369Y-92311683D01*
X153475500Y-92214800D01*
X153475500Y-92105200D01*
X153433557Y-92003942D01*
X153411939Y-91982324D01*
X153390266Y-91930000D01*
X153411939Y-91877675D01*
X153433557Y-91856058D01*
X153475500Y-91754800D01*
X153475500Y-91645200D01*
X153433557Y-91543942D01*
X153356058Y-91466443D01*
X153254800Y-91424500D01*
X153145200Y-91424500D01*
X153108410Y-91439739D01*
X153043943Y-91466442D01*
X152966442Y-91543943D01*
X152924500Y-91645200D01*
X152924500Y-91754800D01*
X152940714Y-91793943D01*
X152966442Y-91856056D01*
X152966442Y-91856057D01*
X152988060Y-91877675D01*
X153009733Y-91930001D01*
X152988060Y-91982325D01*
X152966442Y-92003942D01*
X152966442Y-92003943D01*
X152924666Y-92104799D01*
X152924500Y-92105200D01*
X152924500Y-92214800D01*
X152957803Y-92295200D01*
X152964630Y-92311681D01*
X152964630Y-92368318D01*
X152924500Y-92465200D01*
X152924500Y-92574800D01*
X152966443Y-92676058D01*
X153043942Y-92753557D01*
X153145200Y-92795500D01*
X153145201Y-92795500D01*
X153254798Y-92795500D01*
X153254800Y-92795500D01*
X153356058Y-92753557D01*
X153433557Y-92676058D01*
X153464672Y-92600939D01*
X153504720Y-92560891D01*
X153561357Y-92560891D01*
X153601406Y-92600939D01*
X153605617Y-92614821D01*
X153624497Y-92709739D01*
X153624498Y-92709742D01*
X153672032Y-92824500D01*
X153673535Y-92828127D01*
X153707783Y-92879383D01*
X153724765Y-92904799D01*
X153744724Y-92934669D01*
X153835331Y-93025276D01*
X153937393Y-93093472D01*
X153968859Y-93140563D01*
X153957810Y-93196112D01*
X153937394Y-93216527D01*
X153917531Y-93229800D01*
X153835331Y-93284723D01*
X153835330Y-93284725D01*
X153744725Y-93375330D01*
X153744723Y-93375331D01*
X153673533Y-93481876D01*
X153624498Y-93600257D01*
X153624497Y-93600260D01*
X153605617Y-93695178D01*
X153574151Y-93742270D01*
X153518602Y-93753319D01*
X153471510Y-93721853D01*
X153464672Y-93709060D01*
X153435369Y-93638316D01*
X153435369Y-93581683D01*
X153475500Y-93484800D01*
X153475500Y-93375200D01*
X153433557Y-93273942D01*
X153356058Y-93196443D01*
X153254800Y-93154500D01*
X153145200Y-93154500D01*
X153103258Y-93171873D01*
X153043943Y-93196442D01*
X152966442Y-93273943D01*
X152937447Y-93343943D01*
X152924500Y-93375200D01*
X152924500Y-93484800D01*
X152948998Y-93543942D01*
X152964630Y-93581681D01*
X152964630Y-93638318D01*
X152924500Y-93735200D01*
X152924500Y-93844800D01*
X152966443Y-93946058D01*
X153043942Y-94023557D01*
X153145200Y-94065500D01*
X153145201Y-94065500D01*
X153254798Y-94065500D01*
X153254800Y-94065500D01*
X153356058Y-94023557D01*
X153433557Y-93946058D01*
X153464672Y-93870939D01*
X153504720Y-93830891D01*
X153561357Y-93830891D01*
X153601406Y-93870939D01*
X153605617Y-93884821D01*
X153624497Y-93979739D01*
X153624498Y-93979742D01*
X153659215Y-94063557D01*
X153673535Y-94098127D01*
X153701380Y-94139800D01*
X153727117Y-94178319D01*
X153744724Y-94204669D01*
X153835331Y-94295276D01*
X153937393Y-94363472D01*
X153968859Y-94410563D01*
X153957810Y-94466112D01*
X153937394Y-94486527D01*
X153906547Y-94507139D01*
X153835331Y-94554723D01*
X153835330Y-94554725D01*
X153744725Y-94645330D01*
X153744723Y-94645331D01*
X153673533Y-94751876D01*
X153624498Y-94870257D01*
X153624497Y-94870260D01*
X153599500Y-94995932D01*
X153599500Y-95124067D01*
X153624497Y-95249739D01*
X153624498Y-95249742D01*
X153643327Y-95295200D01*
X153673535Y-95368127D01*
X153698039Y-95404800D01*
X153741329Y-95469589D01*
X153744724Y-95474669D01*
X153835331Y-95565276D01*
X153941873Y-95636465D01*
X154060256Y-95685501D01*
X154060258Y-95685501D01*
X154060260Y-95685502D01*
X154102903Y-95693984D01*
X154185931Y-95710500D01*
X154975500Y-95710500D01*
X155027826Y-95732174D01*
X155049500Y-95784500D01*
X155049500Y-96386298D01*
X155027826Y-96438624D01*
X153938624Y-97527826D01*
X153886298Y-97549500D01*
X153284500Y-97549500D01*
X153232174Y-97527826D01*
X153210500Y-97475500D01*
X153210500Y-96685932D01*
X153185502Y-96560260D01*
X153185501Y-96560257D01*
X153177061Y-96539882D01*
X153136465Y-96441873D01*
X153065276Y-96335331D01*
X152974669Y-96244724D01*
X152868127Y-96173535D01*
X152868124Y-96173533D01*
X152868123Y-96173533D01*
X152749742Y-96124498D01*
X152749739Y-96124497D01*
X152654821Y-96105617D01*
X152607729Y-96074151D01*
X152596680Y-96018602D01*
X152628146Y-95971510D01*
X152640932Y-95964675D01*
X152711684Y-95935369D01*
X152768316Y-95935369D01*
X152865200Y-95975500D01*
X152865201Y-95975500D01*
X152974798Y-95975500D01*
X152974800Y-95975500D01*
X153076058Y-95933557D01*
X153153557Y-95856058D01*
X153195500Y-95754800D01*
X153195500Y-95645200D01*
X153153557Y-95543942D01*
X153076058Y-95466443D01*
X152974800Y-95424500D01*
X152865200Y-95424500D01*
X152768319Y-95464630D01*
X152711681Y-95464630D01*
X152614800Y-95424500D01*
X152505200Y-95424500D01*
X152463258Y-95441873D01*
X152403943Y-95466442D01*
X152326442Y-95543943D01*
X152306690Y-95591629D01*
X152284500Y-95645200D01*
X152284500Y-95754800D01*
X152326443Y-95856058D01*
X152403942Y-95933557D01*
X152479060Y-95964672D01*
X152519108Y-96004721D01*
X152519108Y-96061358D01*
X152479059Y-96101406D01*
X152465178Y-96105617D01*
X152370260Y-96124497D01*
X152370257Y-96124498D01*
X152251876Y-96173533D01*
X152145331Y-96244723D01*
X152145330Y-96244725D01*
X152054725Y-96335330D01*
X152054723Y-96335331D01*
X152020669Y-96386298D01*
X151986527Y-96437393D01*
X151939437Y-96468859D01*
X151883888Y-96457810D01*
X151863472Y-96437394D01*
X151795276Y-96335331D01*
X151704669Y-96244724D01*
X151598127Y-96173535D01*
X151598124Y-96173533D01*
X151598123Y-96173533D01*
X151479742Y-96124498D01*
X151479739Y-96124497D01*
X151384821Y-96105617D01*
X151337729Y-96074151D01*
X151326680Y-96018602D01*
X151358146Y-95971510D01*
X151370932Y-95964675D01*
X151441684Y-95935369D01*
X151498316Y-95935369D01*
X151595200Y-95975500D01*
X151595201Y-95975500D01*
X151704798Y-95975500D01*
X151704800Y-95975500D01*
X151806058Y-95933557D01*
X151883557Y-95856058D01*
X151925500Y-95754800D01*
X151925500Y-95645200D01*
X151883557Y-95543942D01*
X151806058Y-95466443D01*
X151704800Y-95424500D01*
X151595200Y-95424500D01*
X151498319Y-95464630D01*
X151441681Y-95464630D01*
X151344800Y-95424500D01*
X151235200Y-95424500D01*
X151193258Y-95441873D01*
X151133943Y-95466442D01*
X151056442Y-95543943D01*
X151036690Y-95591629D01*
X151014500Y-95645200D01*
X151014500Y-95754800D01*
X151056443Y-95856058D01*
X151133942Y-95933557D01*
X151209060Y-95964672D01*
X151249108Y-96004721D01*
X151249108Y-96061358D01*
X151209059Y-96101406D01*
X151195178Y-96105617D01*
X151100260Y-96124497D01*
X151100257Y-96124498D01*
X150981876Y-96173533D01*
X150875331Y-96244723D01*
X150875330Y-96244725D01*
X150784725Y-96335330D01*
X150784723Y-96335331D01*
X150750669Y-96386298D01*
X150716527Y-96437393D01*
X150669437Y-96468859D01*
X150613888Y-96457810D01*
X150593472Y-96437394D01*
X150525276Y-96335331D01*
X150434669Y-96244724D01*
X150328127Y-96173535D01*
X150328124Y-96173533D01*
X150328123Y-96173533D01*
X150209742Y-96124498D01*
X150209739Y-96124497D01*
X150114821Y-96105617D01*
X150067729Y-96074151D01*
X150056680Y-96018602D01*
X150088146Y-95971510D01*
X150100932Y-95964675D01*
X150171684Y-95935369D01*
X150228316Y-95935369D01*
X150325200Y-95975500D01*
X150325201Y-95975500D01*
X150434798Y-95975500D01*
X150434800Y-95975500D01*
X150536058Y-95933557D01*
X150613557Y-95856058D01*
X150655500Y-95754800D01*
X150655500Y-95645200D01*
X150613557Y-95543942D01*
X150536058Y-95466443D01*
X150434800Y-95424500D01*
X150325200Y-95424500D01*
X150228319Y-95464630D01*
X150171681Y-95464630D01*
X150074800Y-95424500D01*
X149965200Y-95424500D01*
X149923258Y-95441873D01*
X149863943Y-95466442D01*
X149786442Y-95543943D01*
X149766690Y-95591629D01*
X149744500Y-95645200D01*
X149744500Y-95754800D01*
X149786443Y-95856058D01*
X149863942Y-95933557D01*
X149939060Y-95964672D01*
X149979108Y-96004721D01*
X149979108Y-96061358D01*
X149939059Y-96101406D01*
X149925178Y-96105617D01*
X149830260Y-96124497D01*
X149830257Y-96124498D01*
X149711876Y-96173533D01*
X149605331Y-96244723D01*
X149605330Y-96244725D01*
X149514725Y-96335330D01*
X149514723Y-96335331D01*
X149480669Y-96386298D01*
X149446527Y-96437393D01*
X149399437Y-96468859D01*
X149343888Y-96457810D01*
X149323472Y-96437394D01*
X149255276Y-96335331D01*
X149164669Y-96244724D01*
X149058127Y-96173535D01*
X149058124Y-96173533D01*
X149058123Y-96173533D01*
X148939742Y-96124498D01*
X148939739Y-96124497D01*
X148844820Y-96105617D01*
X148814069Y-96099500D01*
X148685931Y-96099500D01*
X148655180Y-96105617D01*
X148560260Y-96124497D01*
X148560257Y-96124498D01*
X148441876Y-96173533D01*
X148335331Y-96244723D01*
X148335330Y-96244725D01*
X148244725Y-96335330D01*
X148244723Y-96335331D01*
X148210669Y-96386298D01*
X148176527Y-96437393D01*
X148129437Y-96468859D01*
X148073888Y-96457810D01*
X148053472Y-96437394D01*
X147985276Y-96335331D01*
X147894669Y-96244724D01*
X147788127Y-96173535D01*
X147788124Y-96173533D01*
X147788123Y-96173533D01*
X147669742Y-96124498D01*
X147669739Y-96124497D01*
X147574820Y-96105617D01*
X147544069Y-96099500D01*
X147415931Y-96099500D01*
X147385180Y-96105617D01*
X147290260Y-96124497D01*
X147290257Y-96124498D01*
X147171876Y-96173533D01*
X147065331Y-96244723D01*
X147065330Y-96244725D01*
X146974725Y-96335330D01*
X146974723Y-96335331D01*
X146940669Y-96386298D01*
X146906527Y-96437393D01*
X146859437Y-96468859D01*
X146803888Y-96457810D01*
X146783472Y-96437394D01*
X146715276Y-96335331D01*
X146624669Y-96244724D01*
X146518127Y-96173535D01*
X146518124Y-96173533D01*
X146518123Y-96173533D01*
X146399742Y-96124498D01*
X146399739Y-96124497D01*
X146304820Y-96105617D01*
X146274069Y-96099500D01*
X146145931Y-96099500D01*
X146115180Y-96105617D01*
X146020260Y-96124497D01*
X146020257Y-96124498D01*
X145901876Y-96173533D01*
X145795331Y-96244723D01*
X145795330Y-96244725D01*
X145704725Y-96335330D01*
X145704723Y-96335331D01*
X145670669Y-96386298D01*
X145636527Y-96437393D01*
X145589437Y-96468859D01*
X145533888Y-96457810D01*
X145513472Y-96437394D01*
X145445276Y-96335331D01*
X145354669Y-96244724D01*
X145248127Y-96173535D01*
X145248124Y-96173533D01*
X145248123Y-96173533D01*
X145129742Y-96124498D01*
X145129739Y-96124497D01*
X145034820Y-96105617D01*
X145004069Y-96099500D01*
X144875931Y-96099500D01*
X144845180Y-96105617D01*
X144750260Y-96124497D01*
X144750257Y-96124498D01*
X144631876Y-96173533D01*
X144525331Y-96244723D01*
X144525330Y-96244725D01*
X144434725Y-96335330D01*
X144434723Y-96335331D01*
X144363533Y-96441876D01*
X144314498Y-96560257D01*
X144314497Y-96560260D01*
X144289500Y-96685932D01*
X144289500Y-97475500D01*
X144267826Y-97527826D01*
X144215500Y-97549500D01*
X143613702Y-97549500D01*
X143561376Y-97527826D01*
X142472174Y-96438624D01*
X142450500Y-96386298D01*
X142450500Y-95784500D01*
X142472174Y-95732174D01*
X142524500Y-95710500D01*
X143314067Y-95710500D01*
X143314069Y-95710500D01*
X143439744Y-95685501D01*
X143537039Y-95645200D01*
X145024500Y-95645200D01*
X145024500Y-95754800D01*
X145066443Y-95856058D01*
X145143942Y-95933557D01*
X145245200Y-95975500D01*
X145245201Y-95975500D01*
X145354798Y-95975500D01*
X145354800Y-95975500D01*
X145456058Y-95933557D01*
X145533557Y-95856058D01*
X145575500Y-95754800D01*
X145575500Y-95645200D01*
X146294500Y-95645200D01*
X146294500Y-95754800D01*
X146336443Y-95856058D01*
X146413942Y-95933557D01*
X146515200Y-95975500D01*
X146515201Y-95975500D01*
X146624798Y-95975500D01*
X146624800Y-95975500D01*
X146726058Y-95933557D01*
X146803557Y-95856058D01*
X146845500Y-95754800D01*
X146845500Y-95645200D01*
X147564500Y-95645200D01*
X147564500Y-95754800D01*
X147606443Y-95856058D01*
X147683942Y-95933557D01*
X147785200Y-95975500D01*
X147785201Y-95975500D01*
X147894798Y-95975500D01*
X147894800Y-95975500D01*
X147996058Y-95933557D01*
X148073557Y-95856058D01*
X148115500Y-95754800D01*
X148115500Y-95645200D01*
X148834500Y-95645200D01*
X148834500Y-95754800D01*
X148876443Y-95856058D01*
X148953942Y-95933557D01*
X149055200Y-95975500D01*
X149055201Y-95975500D01*
X149164798Y-95975500D01*
X149164800Y-95975500D01*
X149266058Y-95933557D01*
X149343557Y-95856058D01*
X149385500Y-95754800D01*
X149385500Y-95645200D01*
X149343557Y-95543942D01*
X149266058Y-95466443D01*
X149164800Y-95424500D01*
X149055200Y-95424500D01*
X149013258Y-95441873D01*
X148953943Y-95466442D01*
X148876442Y-95543943D01*
X148856690Y-95591629D01*
X148834500Y-95645200D01*
X148115500Y-95645200D01*
X148115500Y-95637912D01*
X148117735Y-95637912D01*
X148126938Y-95591629D01*
X148174028Y-95560159D01*
X148229577Y-95571204D01*
X148240790Y-95580405D01*
X148243942Y-95583557D01*
X148345200Y-95625500D01*
X148345201Y-95625500D01*
X148454798Y-95625500D01*
X148454800Y-95625500D01*
X148556058Y-95583557D01*
X148633557Y-95506058D01*
X148675500Y-95404800D01*
X148675500Y-95295200D01*
X148633557Y-95193942D01*
X148556058Y-95116443D01*
X148454800Y-95074500D01*
X148345200Y-95074500D01*
X148323335Y-95083557D01*
X148243943Y-95116442D01*
X148166442Y-95193943D01*
X148124500Y-95295200D01*
X148124500Y-95412088D01*
X148122266Y-95412088D01*
X148113055Y-95458379D01*
X148065961Y-95489842D01*
X148010413Y-95478789D01*
X147999208Y-95469593D01*
X147996058Y-95466443D01*
X147894800Y-95424500D01*
X147785200Y-95424500D01*
X147743258Y-95441873D01*
X147683943Y-95466442D01*
X147606442Y-95543943D01*
X147586690Y-95591629D01*
X147564500Y-95645200D01*
X146845500Y-95645200D01*
X146803557Y-95543942D01*
X146726058Y-95466443D01*
X146624800Y-95424500D01*
X146515200Y-95424500D01*
X146473258Y-95441873D01*
X146413943Y-95466442D01*
X146336442Y-95543943D01*
X146316690Y-95591629D01*
X146294500Y-95645200D01*
X145575500Y-95645200D01*
X145533557Y-95543942D01*
X145456058Y-95466443D01*
X145354800Y-95424500D01*
X145245200Y-95424500D01*
X145203258Y-95441873D01*
X145143943Y-95466442D01*
X145066442Y-95543943D01*
X145046690Y-95591629D01*
X145024500Y-95645200D01*
X143537039Y-95645200D01*
X143558127Y-95636465D01*
X143664669Y-95565276D01*
X143755276Y-95474669D01*
X143826465Y-95368127D01*
X143875501Y-95249744D01*
X143900500Y-95124069D01*
X143900500Y-94995931D01*
X143882373Y-94904804D01*
X143875502Y-94870260D01*
X143875501Y-94870257D01*
X143844411Y-94795200D01*
X143826465Y-94751873D01*
X143755276Y-94645331D01*
X143755145Y-94645200D01*
X144024500Y-94645200D01*
X144024500Y-94754800D01*
X144066443Y-94856058D01*
X144143942Y-94933557D01*
X144245200Y-94975500D01*
X144245201Y-94975500D01*
X144354799Y-94975500D01*
X144354800Y-94975500D01*
X144401808Y-94956027D01*
X144458444Y-94956026D01*
X144482453Y-94972068D01*
X144543942Y-95033557D01*
X144645200Y-95075500D01*
X144645201Y-95075500D01*
X144754798Y-95075500D01*
X144754800Y-95075500D01*
X144856058Y-95033557D01*
X144933557Y-94956058D01*
X144975500Y-94854800D01*
X144975500Y-94795200D01*
X152299500Y-94795200D01*
X152299500Y-94904800D01*
X152341443Y-95006058D01*
X152418942Y-95083557D01*
X152520200Y-95125500D01*
X152520201Y-95125500D01*
X152629798Y-95125500D01*
X152629800Y-95125500D01*
X152731058Y-95083557D01*
X152808557Y-95006058D01*
X152850500Y-94904800D01*
X152850500Y-94904788D01*
X152850811Y-94903229D01*
X152851704Y-94901891D01*
X152853289Y-94898066D01*
X152854049Y-94898380D01*
X152882271Y-94856133D01*
X152937819Y-94845077D01*
X152975714Y-94865329D01*
X153043942Y-94933557D01*
X153145200Y-94975500D01*
X153145201Y-94975500D01*
X153254798Y-94975500D01*
X153254800Y-94975500D01*
X153356058Y-94933557D01*
X153433557Y-94856058D01*
X153475500Y-94754800D01*
X153475500Y-94645200D01*
X153433557Y-94543942D01*
X153356058Y-94466443D01*
X153254800Y-94424500D01*
X153145200Y-94424500D01*
X153103258Y-94441873D01*
X153043943Y-94466442D01*
X152966442Y-94543943D01*
X152924499Y-94645201D01*
X152924186Y-94646779D01*
X152923292Y-94648116D01*
X152921711Y-94651934D01*
X152920951Y-94651619D01*
X152892720Y-94693871D01*
X152837171Y-94704920D01*
X152799284Y-94684669D01*
X152731058Y-94616443D01*
X152629800Y-94574500D01*
X152520200Y-94574500D01*
X152478258Y-94591873D01*
X152418943Y-94616442D01*
X152341442Y-94693943D01*
X152316235Y-94754799D01*
X152299500Y-94795200D01*
X144975500Y-94795200D01*
X144975500Y-94762860D01*
X144997174Y-94710534D01*
X145049500Y-94688860D01*
X145090616Y-94701334D01*
X145093939Y-94703554D01*
X145093942Y-94703557D01*
X145195200Y-94745500D01*
X145195201Y-94745500D01*
X145304798Y-94745500D01*
X145304800Y-94745500D01*
X145406058Y-94703557D01*
X145483557Y-94626058D01*
X145525500Y-94524800D01*
X145525500Y-94415200D01*
X145483557Y-94313942D01*
X145406058Y-94236443D01*
X145406056Y-94236442D01*
X145406054Y-94236441D01*
X145362419Y-94218367D01*
X145322370Y-94178319D01*
X145322370Y-94121682D01*
X145362417Y-94081633D01*
X145406058Y-94063557D01*
X145483557Y-93986058D01*
X145525500Y-93884800D01*
X145525500Y-93775200D01*
X145483557Y-93673942D01*
X145406058Y-93596443D01*
X145403057Y-93595200D01*
X145370420Y-93581681D01*
X145304800Y-93554500D01*
X145195200Y-93554500D01*
X145153258Y-93571873D01*
X145093943Y-93596442D01*
X145016442Y-93673943D01*
X144982950Y-93754799D01*
X144974500Y-93775200D01*
X144974500Y-93884800D01*
X144992785Y-93928943D01*
X145013827Y-93979744D01*
X145016443Y-93986058D01*
X145093942Y-94063557D01*
X145137581Y-94081633D01*
X145177629Y-94121682D01*
X145177629Y-94178319D01*
X145137581Y-94218367D01*
X145093943Y-94236442D01*
X145016442Y-94313943D01*
X144974500Y-94415200D01*
X144974500Y-94507139D01*
X144952826Y-94559465D01*
X144900500Y-94581139D01*
X144859389Y-94568668D01*
X144856060Y-94566444D01*
X144856058Y-94566443D01*
X144754800Y-94524500D01*
X144645200Y-94524500D01*
X144598189Y-94543972D01*
X144541552Y-94543972D01*
X144517548Y-94527933D01*
X144456058Y-94466443D01*
X144354800Y-94424500D01*
X144245200Y-94424500D01*
X144203258Y-94441873D01*
X144143943Y-94466442D01*
X144066442Y-94543943D01*
X144057122Y-94566444D01*
X144024500Y-94645200D01*
X143755145Y-94645200D01*
X143664669Y-94554724D01*
X143648577Y-94543972D01*
X143624570Y-94527931D01*
X143562604Y-94486526D01*
X143531140Y-94439437D01*
X143542189Y-94383888D01*
X143562602Y-94363474D01*
X143664669Y-94295276D01*
X143755276Y-94204669D01*
X143826465Y-94098127D01*
X143875501Y-93979744D01*
X143900500Y-93854069D01*
X143900500Y-93725931D01*
X143875501Y-93600256D01*
X143826465Y-93481873D01*
X143773172Y-93402115D01*
X143755276Y-93375331D01*
X143755145Y-93375200D01*
X144024500Y-93375200D01*
X144024500Y-93484800D01*
X144066443Y-93586058D01*
X144143942Y-93663557D01*
X144245200Y-93705500D01*
X144245201Y-93705500D01*
X144354798Y-93705500D01*
X144354800Y-93705500D01*
X144456058Y-93663557D01*
X144533557Y-93586058D01*
X144575500Y-93484800D01*
X144575500Y-93375200D01*
X144533557Y-93273942D01*
X144456058Y-93196443D01*
X144354800Y-93154500D01*
X144245200Y-93154500D01*
X144203258Y-93171873D01*
X144143943Y-93196442D01*
X144066442Y-93273943D01*
X144037447Y-93343943D01*
X144024500Y-93375200D01*
X143755145Y-93375200D01*
X143664668Y-93284723D01*
X143643006Y-93270249D01*
X143562604Y-93216526D01*
X143531140Y-93169437D01*
X143542189Y-93113888D01*
X143562602Y-93093474D01*
X143664669Y-93025276D01*
X143755276Y-92934669D01*
X143826465Y-92828127D01*
X143873241Y-92715200D01*
X144974500Y-92715200D01*
X144974500Y-92824800D01*
X144992533Y-92868334D01*
X145015797Y-92924500D01*
X145016443Y-92926058D01*
X145093942Y-93003557D01*
X145195200Y-93045500D01*
X145195201Y-93045500D01*
X145304798Y-93045500D01*
X145304800Y-93045500D01*
X145305524Y-93045200D01*
X146224500Y-93045200D01*
X146224500Y-93154800D01*
X146266443Y-93256058D01*
X146266445Y-93256060D01*
X146268334Y-93258888D01*
X146268997Y-93262225D01*
X146269232Y-93262791D01*
X146269119Y-93262837D01*
X146279383Y-93314437D01*
X146268334Y-93341112D01*
X146266443Y-93343942D01*
X146224500Y-93445200D01*
X146224500Y-93554800D01*
X146266443Y-93656058D01*
X146266445Y-93656060D01*
X146268334Y-93658888D01*
X146268997Y-93662225D01*
X146269232Y-93662791D01*
X146269119Y-93662837D01*
X146279383Y-93714437D01*
X146268334Y-93741112D01*
X146266443Y-93743942D01*
X146224500Y-93845200D01*
X146224500Y-93954800D01*
X146266443Y-94056058D01*
X146266445Y-94056060D01*
X146268334Y-94058888D01*
X146268997Y-94062225D01*
X146269232Y-94062791D01*
X146269119Y-94062837D01*
X146279383Y-94114437D01*
X146268334Y-94141112D01*
X146266443Y-94143942D01*
X146224500Y-94245200D01*
X146224500Y-94354800D01*
X146266443Y-94456058D01*
X146343942Y-94533557D01*
X146445200Y-94575500D01*
X146445201Y-94575500D01*
X146554798Y-94575500D01*
X146554800Y-94575500D01*
X146656058Y-94533557D01*
X146733557Y-94456058D01*
X146775500Y-94354800D01*
X146775500Y-94249500D01*
X146797174Y-94197174D01*
X146849500Y-94175500D01*
X146954798Y-94175500D01*
X146954800Y-94175500D01*
X147056058Y-94133557D01*
X147133557Y-94056058D01*
X147175500Y-93954800D01*
X147175500Y-93849500D01*
X147197174Y-93797174D01*
X147249500Y-93775500D01*
X147350500Y-93775500D01*
X147402826Y-93797174D01*
X147424500Y-93849500D01*
X147424500Y-93954800D01*
X147466443Y-94056058D01*
X147466445Y-94056060D01*
X147468334Y-94058888D01*
X147468997Y-94062225D01*
X147469232Y-94062791D01*
X147469119Y-94062837D01*
X147479383Y-94114437D01*
X147468334Y-94141112D01*
X147466443Y-94143942D01*
X147424500Y-94245200D01*
X147424500Y-94354800D01*
X147466443Y-94456058D01*
X147543942Y-94533557D01*
X147645200Y-94575500D01*
X147645201Y-94575500D01*
X147754798Y-94575500D01*
X147754800Y-94575500D01*
X147856058Y-94533557D01*
X147933557Y-94456058D01*
X147975500Y-94354800D01*
X147975500Y-94249500D01*
X147997174Y-94197174D01*
X148049500Y-94175500D01*
X148154798Y-94175500D01*
X148154800Y-94175500D01*
X148256058Y-94133557D01*
X148333557Y-94056058D01*
X148344268Y-94030200D01*
X149174500Y-94030200D01*
X149174500Y-94139800D01*
X149176216Y-94143942D01*
X149214530Y-94236441D01*
X149216443Y-94241058D01*
X149293942Y-94318557D01*
X149395200Y-94360500D01*
X149395201Y-94360500D01*
X149504798Y-94360500D01*
X149504800Y-94360500D01*
X149606058Y-94318557D01*
X149683557Y-94241058D01*
X149725500Y-94139800D01*
X149725500Y-94030200D01*
X149683557Y-93928942D01*
X149606058Y-93851443D01*
X149601367Y-93849500D01*
X149576400Y-93839158D01*
X149504800Y-93809500D01*
X149395200Y-93809500D01*
X149353258Y-93826873D01*
X149293943Y-93851442D01*
X149216442Y-93928943D01*
X149188180Y-93997174D01*
X149174500Y-94030200D01*
X148344268Y-94030200D01*
X148375500Y-93954800D01*
X148375500Y-93845200D01*
X148333557Y-93743942D01*
X148256058Y-93666443D01*
X148247352Y-93662837D01*
X148226400Y-93654158D01*
X148204774Y-93645200D01*
X150424500Y-93645200D01*
X150424500Y-93754800D01*
X150438430Y-93788430D01*
X150463726Y-93849500D01*
X150466443Y-93856058D01*
X150543942Y-93933557D01*
X150645200Y-93975500D01*
X150645201Y-93975500D01*
X150700500Y-93975500D01*
X150752826Y-93997174D01*
X150774500Y-94049500D01*
X150774500Y-94104800D01*
X150803785Y-94175500D01*
X150815867Y-94204669D01*
X150816443Y-94206058D01*
X150893942Y-94283557D01*
X150995200Y-94325500D01*
X150995201Y-94325500D01*
X151104798Y-94325500D01*
X151104800Y-94325500D01*
X151206058Y-94283557D01*
X151283557Y-94206058D01*
X151325500Y-94104800D01*
X151325500Y-93995200D01*
X151283557Y-93893942D01*
X151206058Y-93816443D01*
X151189296Y-93809500D01*
X151159539Y-93797174D01*
X151104800Y-93774500D01*
X151049500Y-93774500D01*
X150997174Y-93752826D01*
X150976391Y-93711950D01*
X150975500Y-93706260D01*
X150975500Y-93645200D01*
X150954789Y-93595200D01*
X151974500Y-93595200D01*
X151974500Y-93704800D01*
X152016443Y-93806058D01*
X152093942Y-93883557D01*
X152195200Y-93925500D01*
X152195201Y-93925500D01*
X152304798Y-93925500D01*
X152304800Y-93925500D01*
X152406058Y-93883557D01*
X152483557Y-93806058D01*
X152525500Y-93704800D01*
X152525500Y-93595200D01*
X152483557Y-93493942D01*
X152406058Y-93416443D01*
X152304800Y-93374500D01*
X152195200Y-93374500D01*
X152153258Y-93391873D01*
X152093943Y-93416442D01*
X152016442Y-93493943D01*
X151991235Y-93554799D01*
X151974500Y-93595200D01*
X150954789Y-93595200D01*
X150933557Y-93543942D01*
X150856058Y-93466443D01*
X150754800Y-93424500D01*
X150645200Y-93424500D01*
X150603258Y-93441873D01*
X150543943Y-93466442D01*
X150466442Y-93543943D01*
X150433074Y-93624500D01*
X150424500Y-93645200D01*
X148204774Y-93645200D01*
X148154800Y-93624500D01*
X148045200Y-93624500D01*
X147962181Y-93658888D01*
X147943942Y-93666443D01*
X147941112Y-93668334D01*
X147937774Y-93668997D01*
X147937209Y-93669232D01*
X147937162Y-93669119D01*
X147885563Y-93679383D01*
X147858888Y-93668334D01*
X147856060Y-93666445D01*
X147856058Y-93666443D01*
X147754800Y-93624500D01*
X147649500Y-93624500D01*
X147597174Y-93602826D01*
X147575500Y-93550500D01*
X147575500Y-93449500D01*
X147597174Y-93397174D01*
X147649500Y-93375500D01*
X147754798Y-93375500D01*
X147754800Y-93375500D01*
X147856058Y-93333557D01*
X147933557Y-93256058D01*
X147975500Y-93154800D01*
X147975500Y-93145200D01*
X148324500Y-93145200D01*
X148324500Y-93254800D01*
X148336895Y-93284723D01*
X148356087Y-93331058D01*
X148366443Y-93356058D01*
X148443942Y-93433557D01*
X148545200Y-93475500D01*
X148545201Y-93475500D01*
X148654798Y-93475500D01*
X148654800Y-93475500D01*
X148756058Y-93433557D01*
X148756063Y-93433551D01*
X148760758Y-93430415D01*
X148816306Y-93419361D01*
X148830188Y-93423571D01*
X148895200Y-93450500D01*
X148895201Y-93450500D01*
X149004798Y-93450500D01*
X149004800Y-93450500D01*
X149106058Y-93408557D01*
X149183557Y-93331058D01*
X149225500Y-93229800D01*
X149225500Y-93120200D01*
X149183557Y-93018942D01*
X149106058Y-92941443D01*
X149089704Y-92934669D01*
X149068911Y-92926056D01*
X149004800Y-92899500D01*
X148895200Y-92899500D01*
X148831346Y-92925949D01*
X148793939Y-92941444D01*
X148789234Y-92944588D01*
X148733685Y-92955637D01*
X148719804Y-92951426D01*
X148703296Y-92944588D01*
X148654800Y-92924500D01*
X148545200Y-92924500D01*
X148520648Y-92934670D01*
X148443943Y-92966442D01*
X148366442Y-93043943D01*
X148345927Y-93093471D01*
X148324500Y-93145200D01*
X147975500Y-93145200D01*
X147975500Y-93045200D01*
X147933557Y-92943942D01*
X147856058Y-92866443D01*
X147754800Y-92824500D01*
X147645200Y-92824500D01*
X147543944Y-92866442D01*
X147543942Y-92866443D01*
X147541112Y-92868334D01*
X147537774Y-92868997D01*
X147537209Y-92869232D01*
X147537162Y-92869119D01*
X147485563Y-92879383D01*
X147458888Y-92868334D01*
X147456060Y-92866445D01*
X147456058Y-92866443D01*
X147354800Y-92824500D01*
X147245200Y-92824500D01*
X147203258Y-92841873D01*
X147143943Y-92866442D01*
X147066442Y-92943943D01*
X147035376Y-93018943D01*
X147024500Y-93045200D01*
X147024500Y-93154800D01*
X147066443Y-93256058D01*
X147066445Y-93256060D01*
X147068334Y-93258888D01*
X147068997Y-93262225D01*
X147069232Y-93262791D01*
X147069119Y-93262837D01*
X147079383Y-93314437D01*
X147068334Y-93341112D01*
X147066443Y-93343942D01*
X147024500Y-93445200D01*
X147024500Y-93550500D01*
X147002826Y-93602826D01*
X146950500Y-93624500D01*
X146849500Y-93624500D01*
X146797174Y-93602826D01*
X146775500Y-93550500D01*
X146775500Y-93445200D01*
X146746559Y-93375331D01*
X146733557Y-93343942D01*
X146733554Y-93343939D01*
X146731668Y-93341116D01*
X146731003Y-93337778D01*
X146730768Y-93337209D01*
X146730881Y-93337162D01*
X146720615Y-93285568D01*
X146731668Y-93258884D01*
X146733552Y-93256062D01*
X146733557Y-93256058D01*
X146775500Y-93154800D01*
X146775500Y-93045200D01*
X146733557Y-92943942D01*
X146656058Y-92866443D01*
X146554800Y-92824500D01*
X146445200Y-92824500D01*
X146403258Y-92841873D01*
X146343943Y-92866442D01*
X146266442Y-92943943D01*
X146235376Y-93018943D01*
X146224500Y-93045200D01*
X145305524Y-93045200D01*
X145406058Y-93003557D01*
X145483557Y-92926058D01*
X145525500Y-92824800D01*
X145525500Y-92715200D01*
X145483557Y-92613942D01*
X145406058Y-92536443D01*
X145304800Y-92494500D01*
X145195200Y-92494500D01*
X145153258Y-92511873D01*
X145093943Y-92536442D01*
X145016442Y-92613943D01*
X144990715Y-92676054D01*
X144974500Y-92715200D01*
X143873241Y-92715200D01*
X143875501Y-92709744D01*
X143875738Y-92708557D01*
X143878737Y-92693477D01*
X143878737Y-92693475D01*
X143882202Y-92676056D01*
X143900500Y-92584069D01*
X143900500Y-92455931D01*
X143898365Y-92445200D01*
X148224500Y-92445200D01*
X148224500Y-92554800D01*
X148236412Y-92583557D01*
X148256087Y-92631058D01*
X148266443Y-92656058D01*
X148343942Y-92733557D01*
X148445200Y-92775500D01*
X148445201Y-92775500D01*
X148554798Y-92775500D01*
X148554800Y-92775500D01*
X148656058Y-92733557D01*
X148733557Y-92656058D01*
X148775500Y-92554800D01*
X148775500Y-92445200D01*
X148765145Y-92420200D01*
X149474500Y-92420200D01*
X149474500Y-92529800D01*
X149516443Y-92631058D01*
X149570608Y-92685223D01*
X149592282Y-92737548D01*
X149586650Y-92765864D01*
X149574500Y-92795198D01*
X149574500Y-92795200D01*
X149574500Y-92904800D01*
X149616443Y-93006058D01*
X149693942Y-93083557D01*
X149795200Y-93125500D01*
X149795201Y-93125500D01*
X149904798Y-93125500D01*
X149904800Y-93125500D01*
X150006058Y-93083557D01*
X150083557Y-93006058D01*
X150125500Y-92904800D01*
X150125500Y-92795200D01*
X150083557Y-92693942D01*
X150065669Y-92676054D01*
X150029391Y-92639775D01*
X150007717Y-92587449D01*
X150013349Y-92559132D01*
X150025500Y-92529800D01*
X150025500Y-92420200D01*
X149983557Y-92318942D01*
X149906058Y-92241443D01*
X149804800Y-92199500D01*
X149695200Y-92199500D01*
X149658263Y-92214800D01*
X149593943Y-92241442D01*
X149516442Y-92318943D01*
X149506087Y-92343943D01*
X149474500Y-92420200D01*
X148765145Y-92420200D01*
X148733557Y-92343942D01*
X148656058Y-92266443D01*
X148554800Y-92224500D01*
X148445200Y-92224500D01*
X148404299Y-92241442D01*
X148343943Y-92266442D01*
X148266442Y-92343943D01*
X148241235Y-92404799D01*
X148224500Y-92445200D01*
X143898365Y-92445200D01*
X143878224Y-92343943D01*
X143875502Y-92330260D01*
X143875501Y-92330257D01*
X143870814Y-92318942D01*
X143826465Y-92211873D01*
X143755276Y-92105331D01*
X143755145Y-92105200D01*
X144024500Y-92105200D01*
X144024500Y-92214800D01*
X144066443Y-92316058D01*
X144143942Y-92393557D01*
X144245200Y-92435500D01*
X144245201Y-92435500D01*
X144354798Y-92435500D01*
X144354800Y-92435500D01*
X144456058Y-92393557D01*
X144533557Y-92316058D01*
X144575500Y-92214800D01*
X144575500Y-92105200D01*
X144533557Y-92003942D01*
X144456058Y-91926443D01*
X144453781Y-91925500D01*
X144406840Y-91906056D01*
X144354800Y-91884500D01*
X144245200Y-91884500D01*
X144203258Y-91901873D01*
X144143943Y-91926442D01*
X144066442Y-92003943D01*
X144024666Y-92104799D01*
X144024500Y-92105200D01*
X143755145Y-92105200D01*
X143664669Y-92014724D01*
X143562604Y-91946526D01*
X143531140Y-91899437D01*
X143542189Y-91843888D01*
X143562602Y-91823474D01*
X143664669Y-91755276D01*
X143724745Y-91695200D01*
X148224500Y-91695200D01*
X148224500Y-91804800D01*
X148266443Y-91906058D01*
X148343942Y-91983557D01*
X148445200Y-92025500D01*
X148445201Y-92025500D01*
X148554798Y-92025500D01*
X148554800Y-92025500D01*
X148656058Y-91983557D01*
X148733557Y-91906058D01*
X148775500Y-91804800D01*
X148775500Y-91695200D01*
X148733557Y-91593942D01*
X148656058Y-91516443D01*
X148554800Y-91474500D01*
X148445200Y-91474500D01*
X148429373Y-91481056D01*
X148343943Y-91516442D01*
X148266442Y-91593943D01*
X148237146Y-91664670D01*
X148224500Y-91695200D01*
X143724745Y-91695200D01*
X143755276Y-91664669D01*
X143826465Y-91558127D01*
X143875501Y-91439744D01*
X143900500Y-91314069D01*
X143900500Y-91185931D01*
X143881705Y-91091443D01*
X143875502Y-91060260D01*
X143875501Y-91060257D01*
X143871045Y-91049500D01*
X143826465Y-90941873D01*
X143755276Y-90835331D01*
X143755145Y-90835200D01*
X144024500Y-90835200D01*
X144024500Y-90944800D01*
X144066443Y-91046058D01*
X144143942Y-91123557D01*
X144245200Y-91165500D01*
X144245201Y-91165500D01*
X144354798Y-91165500D01*
X144354800Y-91165500D01*
X144456058Y-91123557D01*
X144484415Y-91095200D01*
X146574500Y-91095200D01*
X146574500Y-91204800D01*
X146616443Y-91306058D01*
X146693942Y-91383557D01*
X146795200Y-91425500D01*
X146795201Y-91425500D01*
X146904798Y-91425500D01*
X146904800Y-91425500D01*
X147006058Y-91383557D01*
X147083557Y-91306058D01*
X147098410Y-91270200D01*
X149657130Y-91270200D01*
X149657130Y-91379800D01*
X149672308Y-91416442D01*
X149696356Y-91474500D01*
X149699073Y-91481058D01*
X149776572Y-91558557D01*
X149877830Y-91600500D01*
X149877831Y-91600500D01*
X149987428Y-91600500D01*
X149987430Y-91600500D01*
X150000225Y-91595200D01*
X150424500Y-91595200D01*
X150424500Y-91704800D01*
X150466443Y-91806058D01*
X150543942Y-91883557D01*
X150645200Y-91925500D01*
X150645201Y-91925500D01*
X150700500Y-91925500D01*
X150752826Y-91947174D01*
X150774500Y-91999500D01*
X150774500Y-92004800D01*
X150794393Y-92052826D01*
X150816087Y-92105200D01*
X150816443Y-92106058D01*
X150893942Y-92183557D01*
X150995200Y-92225500D01*
X150995201Y-92225500D01*
X151100500Y-92225500D01*
X151152826Y-92247174D01*
X151174500Y-92299500D01*
X151174500Y-92404800D01*
X151216443Y-92506058D01*
X151293942Y-92583557D01*
X151395200Y-92625500D01*
X151395201Y-92625500D01*
X151504798Y-92625500D01*
X151504800Y-92625500D01*
X151606058Y-92583557D01*
X151683557Y-92506058D01*
X151725500Y-92404800D01*
X151725500Y-92295200D01*
X151683557Y-92193942D01*
X151606058Y-92116443D01*
X151504800Y-92074500D01*
X151399500Y-92074500D01*
X151347174Y-92052826D01*
X151325500Y-92000500D01*
X151325500Y-91995200D01*
X151974500Y-91995200D01*
X151974500Y-92104800D01*
X151979323Y-92116443D01*
X152013726Y-92199500D01*
X152016443Y-92206058D01*
X152093942Y-92283557D01*
X152195200Y-92325500D01*
X152195201Y-92325500D01*
X152304798Y-92325500D01*
X152304800Y-92325500D01*
X152406058Y-92283557D01*
X152483557Y-92206058D01*
X152525500Y-92104800D01*
X152525500Y-91995200D01*
X152483557Y-91893942D01*
X152406058Y-91816443D01*
X152304800Y-91774500D01*
X152195200Y-91774500D01*
X152153258Y-91791873D01*
X152093943Y-91816442D01*
X152016442Y-91893943D01*
X151994660Y-91946529D01*
X151974500Y-91995200D01*
X151325500Y-91995200D01*
X151325500Y-91895200D01*
X151315295Y-91870563D01*
X151283557Y-91793942D01*
X151206058Y-91716443D01*
X151104800Y-91674500D01*
X151049500Y-91674500D01*
X150997174Y-91652826D01*
X150975500Y-91600500D01*
X150975500Y-91595200D01*
X150954268Y-91543942D01*
X150933557Y-91493942D01*
X150856058Y-91416443D01*
X150754800Y-91374500D01*
X150645200Y-91374500D01*
X150623335Y-91383557D01*
X150543943Y-91416442D01*
X150466442Y-91493943D01*
X150439858Y-91558123D01*
X150424500Y-91595200D01*
X150000225Y-91595200D01*
X150088688Y-91558557D01*
X150166187Y-91481058D01*
X150208130Y-91379800D01*
X150208130Y-91270200D01*
X150166187Y-91168942D01*
X150088688Y-91091443D01*
X149987430Y-91049500D01*
X149877830Y-91049500D01*
X149835888Y-91066873D01*
X149776573Y-91091442D01*
X149699072Y-91168943D01*
X149692035Y-91185932D01*
X149657130Y-91270200D01*
X147098410Y-91270200D01*
X147125500Y-91204800D01*
X147125500Y-91095200D01*
X147083557Y-90993942D01*
X147006058Y-90916443D01*
X147006056Y-90916442D01*
X147006054Y-90916441D01*
X147002107Y-90914806D01*
X146962060Y-90874757D01*
X146962062Y-90818119D01*
X147002109Y-90778073D01*
X147056058Y-90755727D01*
X147133557Y-90678228D01*
X147175500Y-90576970D01*
X147175500Y-90467370D01*
X147174836Y-90465766D01*
X147449500Y-90465766D01*
X147449500Y-90575366D01*
X147462212Y-90606055D01*
X147491403Y-90676529D01*
X147491443Y-90676624D01*
X147568942Y-90754123D01*
X147670200Y-90796066D01*
X147670201Y-90796066D01*
X147779798Y-90796066D01*
X147779800Y-90796066D01*
X147881058Y-90754123D01*
X147929056Y-90706124D01*
X147981381Y-90684451D01*
X148009698Y-90690083D01*
X148095200Y-90725500D01*
X148095201Y-90725500D01*
X148204798Y-90725500D01*
X148204800Y-90725500D01*
X148296681Y-90687441D01*
X148353319Y-90687441D01*
X148445200Y-90725500D01*
X148445201Y-90725500D01*
X148554798Y-90725500D01*
X148554800Y-90725500D01*
X148656058Y-90683557D01*
X148694415Y-90645200D01*
X151694500Y-90645200D01*
X151694500Y-90754800D01*
X151712258Y-90797670D01*
X151735609Y-90854046D01*
X151736443Y-90856058D01*
X151813942Y-90933557D01*
X151915200Y-90975500D01*
X151915201Y-90975500D01*
X152024798Y-90975500D01*
X152024800Y-90975500D01*
X152126058Y-90933557D01*
X152203557Y-90856058D01*
X152212197Y-90835200D01*
X152924500Y-90835200D01*
X152924500Y-90944800D01*
X152966443Y-91046058D01*
X153043942Y-91123557D01*
X153145200Y-91165500D01*
X153145201Y-91165500D01*
X153254798Y-91165500D01*
X153254800Y-91165500D01*
X153356058Y-91123557D01*
X153433557Y-91046058D01*
X153475500Y-90944800D01*
X153475500Y-90835200D01*
X153433557Y-90733942D01*
X153356058Y-90656443D01*
X153254800Y-90614500D01*
X153145200Y-90614500D01*
X153103258Y-90631873D01*
X153043943Y-90656442D01*
X152966442Y-90733943D01*
X152939249Y-90799593D01*
X152924500Y-90835200D01*
X152212197Y-90835200D01*
X152245500Y-90754800D01*
X152245500Y-90645200D01*
X152203557Y-90543942D01*
X152126058Y-90466443D01*
X152024800Y-90424500D01*
X151915200Y-90424500D01*
X151873258Y-90441873D01*
X151813943Y-90466442D01*
X151736442Y-90543943D01*
X151707009Y-90615000D01*
X151694500Y-90645200D01*
X148694415Y-90645200D01*
X148733557Y-90606058D01*
X148775500Y-90504800D01*
X148775500Y-90395200D01*
X148733557Y-90293942D01*
X148656058Y-90216443D01*
X148554800Y-90174500D01*
X148445200Y-90174500D01*
X148353318Y-90212558D01*
X148296682Y-90212558D01*
X148204800Y-90174500D01*
X148095200Y-90174500D01*
X148053258Y-90191873D01*
X147993943Y-90216442D01*
X147993942Y-90216442D01*
X147945943Y-90264441D01*
X147893617Y-90286114D01*
X147865300Y-90280481D01*
X147779800Y-90245066D01*
X147670200Y-90245066D01*
X147628258Y-90262439D01*
X147568943Y-90287008D01*
X147491442Y-90364509D01*
X147466593Y-90424500D01*
X147449500Y-90465766D01*
X147174836Y-90465766D01*
X147133557Y-90366112D01*
X147056058Y-90288613D01*
X147052183Y-90287008D01*
X146997702Y-90264441D01*
X146954800Y-90246670D01*
X146845200Y-90246670D01*
X146803258Y-90264043D01*
X146743943Y-90288612D01*
X146666442Y-90366113D01*
X146625164Y-90465766D01*
X146624500Y-90467370D01*
X146624500Y-90576970D01*
X146646233Y-90629437D01*
X146665778Y-90676624D01*
X146666443Y-90678228D01*
X146743942Y-90755727D01*
X146747888Y-90757361D01*
X146787938Y-90797409D01*
X146787939Y-90854046D01*
X146747891Y-90894096D01*
X146693943Y-90916442D01*
X146616442Y-90993943D01*
X146593430Y-91049500D01*
X146574500Y-91095200D01*
X144484415Y-91095200D01*
X144533557Y-91046058D01*
X144575500Y-90944800D01*
X144575500Y-90835200D01*
X144533557Y-90733942D01*
X144456058Y-90656443D01*
X144354800Y-90614500D01*
X144245200Y-90614500D01*
X144203258Y-90631873D01*
X144143943Y-90656442D01*
X144066442Y-90733943D01*
X144039249Y-90799593D01*
X144024500Y-90835200D01*
X143755145Y-90835200D01*
X143664669Y-90744724D01*
X143562604Y-90676526D01*
X143531140Y-90629437D01*
X143542189Y-90573888D01*
X143562602Y-90553474D01*
X143664669Y-90485276D01*
X143755276Y-90394669D01*
X143826465Y-90288127D01*
X143875501Y-90169744D01*
X143900500Y-90044069D01*
X143900500Y-89915931D01*
X143875501Y-89790256D01*
X143826465Y-89671873D01*
X143755276Y-89565331D01*
X143755145Y-89565200D01*
X144024500Y-89565200D01*
X144024500Y-89674799D01*
X144065537Y-89773872D01*
X144066443Y-89776058D01*
X144143942Y-89853557D01*
X144245200Y-89895500D01*
X144245201Y-89895500D01*
X144354798Y-89895500D01*
X144354800Y-89895500D01*
X144456058Y-89853557D01*
X144533557Y-89776058D01*
X144540324Y-89759721D01*
X144580372Y-89719672D01*
X144608691Y-89714039D01*
X144678073Y-89714039D01*
X144678075Y-89714039D01*
X144779333Y-89672096D01*
X144856832Y-89594597D01*
X144898775Y-89493339D01*
X144898775Y-89445200D01*
X145424500Y-89445200D01*
X145424500Y-89554800D01*
X145466443Y-89656058D01*
X145543942Y-89733557D01*
X145645200Y-89775500D01*
X145645201Y-89775500D01*
X145754798Y-89775500D01*
X145754800Y-89775500D01*
X145758730Y-89773871D01*
X145815364Y-89773868D01*
X145855416Y-89813913D01*
X145855420Y-89870550D01*
X145855418Y-89870555D01*
X145824500Y-89945198D01*
X145824500Y-89945200D01*
X145824500Y-90054800D01*
X145866443Y-90156058D01*
X145943942Y-90233557D01*
X146045200Y-90275500D01*
X146045201Y-90275500D01*
X146154798Y-90275500D01*
X146154800Y-90275500D01*
X146256058Y-90233557D01*
X146333557Y-90156058D01*
X146375500Y-90054800D01*
X146375500Y-89945200D01*
X146333557Y-89843942D01*
X146256058Y-89766443D01*
X146154800Y-89724500D01*
X146045200Y-89724500D01*
X146041264Y-89726130D01*
X145984627Y-89726128D01*
X145944580Y-89686078D01*
X145943858Y-89631256D01*
X145944203Y-89630355D01*
X145969121Y-89570200D01*
X148224500Y-89570200D01*
X148224500Y-89679800D01*
X148266443Y-89781058D01*
X148343942Y-89858557D01*
X148445200Y-89900500D01*
X148445201Y-89900500D01*
X148554798Y-89900500D01*
X148554800Y-89900500D01*
X148656058Y-89858557D01*
X148733557Y-89781058D01*
X148775500Y-89679800D01*
X148775500Y-89570200D01*
X148773429Y-89565200D01*
X152924500Y-89565200D01*
X152924500Y-89674799D01*
X152965537Y-89773872D01*
X152966443Y-89776058D01*
X153043942Y-89853557D01*
X153145200Y-89895500D01*
X153145201Y-89895500D01*
X153254798Y-89895500D01*
X153254800Y-89895500D01*
X153356058Y-89853557D01*
X153433557Y-89776058D01*
X153475500Y-89674800D01*
X153475500Y-89565200D01*
X153433557Y-89463942D01*
X153356058Y-89386443D01*
X153254800Y-89344500D01*
X153145200Y-89344500D01*
X153103258Y-89361873D01*
X153043943Y-89386442D01*
X152966442Y-89463943D01*
X152924500Y-89565200D01*
X148773429Y-89565200D01*
X148733557Y-89468942D01*
X148656058Y-89391443D01*
X148554800Y-89349500D01*
X148445200Y-89349500D01*
X148403258Y-89366873D01*
X148343943Y-89391442D01*
X148266442Y-89468943D01*
X148256337Y-89493339D01*
X148224500Y-89570200D01*
X145969121Y-89570200D01*
X145975500Y-89554800D01*
X145975500Y-89445200D01*
X145933557Y-89343942D01*
X145856058Y-89266443D01*
X145754800Y-89224500D01*
X145645200Y-89224500D01*
X145603258Y-89241873D01*
X145543943Y-89266442D01*
X145466442Y-89343943D01*
X145446767Y-89391443D01*
X145424500Y-89445200D01*
X144898775Y-89445200D01*
X144898775Y-89383739D01*
X144856832Y-89282481D01*
X144779333Y-89204982D01*
X144678075Y-89163039D01*
X144568475Y-89163039D01*
X144526533Y-89180412D01*
X144467218Y-89204981D01*
X144389717Y-89282482D01*
X144389716Y-89282484D01*
X144382950Y-89298819D01*
X144342901Y-89338867D01*
X144314583Y-89344500D01*
X144245200Y-89344500D01*
X144203258Y-89361873D01*
X144143943Y-89386442D01*
X144066442Y-89463943D01*
X144024500Y-89565200D01*
X143755145Y-89565200D01*
X143664669Y-89474724D01*
X143562604Y-89406526D01*
X143531140Y-89359437D01*
X143542189Y-89303888D01*
X143562602Y-89283474D01*
X143664669Y-89215276D01*
X143755276Y-89124669D01*
X143826465Y-89018127D01*
X143875501Y-88899744D01*
X143900500Y-88774069D01*
X143900500Y-88725200D01*
X148449500Y-88725200D01*
X148449500Y-88834800D01*
X148491443Y-88936058D01*
X148568942Y-89013557D01*
X148670200Y-89055500D01*
X148670201Y-89055500D01*
X148779798Y-89055500D01*
X148779800Y-89055500D01*
X148881058Y-89013557D01*
X148958557Y-88936058D01*
X149000500Y-88834800D01*
X149000500Y-88725200D01*
X148999078Y-88718052D01*
X149001585Y-88717553D01*
X149001581Y-88671189D01*
X149041625Y-88631136D01*
X149069951Y-88625500D01*
X149104798Y-88625500D01*
X149104800Y-88625500D01*
X149206058Y-88583557D01*
X149283557Y-88506058D01*
X149325500Y-88404800D01*
X149325500Y-88315200D01*
X150999500Y-88315200D01*
X150999500Y-88424800D01*
X151041443Y-88526058D01*
X151118942Y-88603557D01*
X151220200Y-88645500D01*
X151220201Y-88645500D01*
X151329798Y-88645500D01*
X151329800Y-88645500D01*
X151431058Y-88603557D01*
X151508557Y-88526058D01*
X151550500Y-88424800D01*
X151550500Y-88315200D01*
X151543300Y-88297817D01*
X151543300Y-88241182D01*
X151583348Y-88201133D01*
X151611667Y-88195500D01*
X151654798Y-88195500D01*
X151654800Y-88195500D01*
X151756058Y-88153557D01*
X151833557Y-88076058D01*
X151875334Y-87975200D01*
X152124500Y-87975200D01*
X152124500Y-88084800D01*
X152166443Y-88186058D01*
X152243942Y-88263557D01*
X152345200Y-88305500D01*
X152345201Y-88305500D01*
X152454798Y-88305500D01*
X152454800Y-88305500D01*
X152479666Y-88295200D01*
X152924500Y-88295200D01*
X152924500Y-88404800D01*
X152946872Y-88458811D01*
X152965797Y-88504500D01*
X152966443Y-88506058D01*
X153043942Y-88583557D01*
X153145200Y-88625500D01*
X153145201Y-88625500D01*
X153254798Y-88625500D01*
X153254800Y-88625500D01*
X153356058Y-88583557D01*
X153433557Y-88506058D01*
X153475500Y-88404800D01*
X153475500Y-88295200D01*
X153433557Y-88193942D01*
X153356058Y-88116443D01*
X153254800Y-88074500D01*
X153145200Y-88074500D01*
X153103258Y-88091873D01*
X153043943Y-88116442D01*
X152966442Y-88193943D01*
X152958158Y-88213943D01*
X152924500Y-88295200D01*
X152479666Y-88295200D01*
X152556058Y-88263557D01*
X152633557Y-88186058D01*
X152675500Y-88084800D01*
X152675500Y-87975200D01*
X152633557Y-87873942D01*
X152556058Y-87796443D01*
X152454800Y-87754500D01*
X152345200Y-87754500D01*
X152322403Y-87763943D01*
X152243943Y-87796442D01*
X152166442Y-87873943D01*
X152136895Y-87945276D01*
X152124500Y-87975200D01*
X151875334Y-87975200D01*
X151875500Y-87974800D01*
X151875500Y-87865200D01*
X151833557Y-87763942D01*
X151756058Y-87686443D01*
X151654800Y-87644500D01*
X151545200Y-87644500D01*
X151503258Y-87661873D01*
X151443943Y-87686442D01*
X151366442Y-87763943D01*
X151324500Y-87865200D01*
X151324500Y-87974799D01*
X151331700Y-87992181D01*
X151331700Y-88048818D01*
X151291652Y-88088867D01*
X151263333Y-88094500D01*
X151220200Y-88094500D01*
X151178258Y-88111873D01*
X151118943Y-88136442D01*
X151041442Y-88213943D01*
X151003518Y-88305500D01*
X150999500Y-88315200D01*
X149325500Y-88315200D01*
X149325500Y-88295200D01*
X149283557Y-88193942D01*
X149206058Y-88116443D01*
X149104800Y-88074500D01*
X148995200Y-88074500D01*
X148953258Y-88091873D01*
X148893943Y-88116442D01*
X148816442Y-88193943D01*
X148774500Y-88295200D01*
X148774500Y-88404799D01*
X148775922Y-88411948D01*
X148773414Y-88412446D01*
X148773419Y-88458811D01*
X148733375Y-88498864D01*
X148705049Y-88504500D01*
X148670200Y-88504500D01*
X148632162Y-88520256D01*
X148568943Y-88546442D01*
X148491442Y-88623943D01*
X148452461Y-88718052D01*
X148449500Y-88725200D01*
X143900500Y-88725200D01*
X143900500Y-88645931D01*
X143875501Y-88520256D01*
X143826465Y-88401873D01*
X143755276Y-88295331D01*
X143755145Y-88295200D01*
X144024500Y-88295200D01*
X144024500Y-88404800D01*
X144046872Y-88458811D01*
X144065797Y-88504500D01*
X144066443Y-88506058D01*
X144143942Y-88583557D01*
X144245200Y-88625500D01*
X144245201Y-88625500D01*
X144354798Y-88625500D01*
X144354800Y-88625500D01*
X144456058Y-88583557D01*
X144533557Y-88506058D01*
X144575500Y-88404800D01*
X144575500Y-88295200D01*
X146549500Y-88295200D01*
X146549500Y-88404800D01*
X146571872Y-88458811D01*
X146590797Y-88504500D01*
X146591443Y-88506058D01*
X146668942Y-88583557D01*
X146770200Y-88625500D01*
X146770201Y-88625500D01*
X146879798Y-88625500D01*
X146879800Y-88625500D01*
X146981058Y-88583557D01*
X147058557Y-88506058D01*
X147100500Y-88404800D01*
X147100500Y-88295200D01*
X147058557Y-88193942D01*
X146981058Y-88116443D01*
X146879800Y-88074500D01*
X146770200Y-88074500D01*
X146728258Y-88091873D01*
X146668943Y-88116442D01*
X146591442Y-88193943D01*
X146583158Y-88213943D01*
X146549500Y-88295200D01*
X144575500Y-88295200D01*
X144533557Y-88193942D01*
X144456058Y-88116443D01*
X144354800Y-88074500D01*
X144245200Y-88074500D01*
X144203258Y-88091873D01*
X144143943Y-88116442D01*
X144066442Y-88193943D01*
X144058158Y-88213943D01*
X144024500Y-88295200D01*
X143755145Y-88295200D01*
X143664669Y-88204724D01*
X143562604Y-88136526D01*
X143531140Y-88089437D01*
X143542189Y-88033888D01*
X143562602Y-88013474D01*
X143664669Y-87945276D01*
X143755276Y-87854669D01*
X143774967Y-87825200D01*
X149874500Y-87825200D01*
X149874500Y-87934800D01*
X149916443Y-88036058D01*
X149993942Y-88113557D01*
X150095200Y-88155500D01*
X150095201Y-88155500D01*
X150204798Y-88155500D01*
X150204800Y-88155500D01*
X150306058Y-88113557D01*
X150383557Y-88036058D01*
X150425500Y-87934800D01*
X150425500Y-87825200D01*
X150383557Y-87723942D01*
X150306058Y-87646443D01*
X150301367Y-87644500D01*
X150276400Y-87634158D01*
X150204800Y-87604500D01*
X150095200Y-87604500D01*
X150053258Y-87621873D01*
X149993943Y-87646442D01*
X149916442Y-87723943D01*
X149894548Y-87776800D01*
X149874500Y-87825200D01*
X143774967Y-87825200D01*
X143826465Y-87748127D01*
X143875501Y-87629744D01*
X143900500Y-87504069D01*
X143900500Y-87375931D01*
X143875908Y-87252300D01*
X143875502Y-87250260D01*
X143875501Y-87250257D01*
X143830949Y-87142700D01*
X143826465Y-87131873D01*
X143755276Y-87025331D01*
X143664669Y-86934724D01*
X143575585Y-86875200D01*
X144724500Y-86875200D01*
X144724500Y-86984800D01*
X144766443Y-87086058D01*
X144843942Y-87163557D01*
X144945200Y-87205500D01*
X144945201Y-87205500D01*
X145054798Y-87205500D01*
X145054800Y-87205500D01*
X145156058Y-87163557D01*
X145226915Y-87092700D01*
X145474500Y-87092700D01*
X145474500Y-87202300D01*
X145516443Y-87303558D01*
X145593942Y-87381057D01*
X145695200Y-87423000D01*
X145695201Y-87423000D01*
X145804798Y-87423000D01*
X145804800Y-87423000D01*
X145906058Y-87381057D01*
X145983557Y-87303558D01*
X146025500Y-87202300D01*
X146025500Y-87095200D01*
X146894500Y-87095200D01*
X146894500Y-87204800D01*
X146924158Y-87276400D01*
X146935406Y-87303556D01*
X146936443Y-87306058D01*
X147013942Y-87383557D01*
X147115200Y-87425500D01*
X147115201Y-87425500D01*
X147224798Y-87425500D01*
X147224800Y-87425500D01*
X147326058Y-87383557D01*
X147403557Y-87306058D01*
X147445500Y-87204800D01*
X147445500Y-87095200D01*
X147403557Y-86993942D01*
X147326058Y-86916443D01*
X147224800Y-86874500D01*
X147115200Y-86874500D01*
X147073258Y-86891873D01*
X147013943Y-86916442D01*
X146936442Y-86993943D01*
X146907838Y-87063000D01*
X146894500Y-87095200D01*
X146025500Y-87095200D01*
X146025500Y-87092700D01*
X145983557Y-86991442D01*
X145906058Y-86913943D01*
X145804800Y-86872000D01*
X145695200Y-86872000D01*
X145689165Y-86874500D01*
X145593943Y-86913942D01*
X145516442Y-86991443D01*
X145493748Y-87046231D01*
X145474500Y-87092700D01*
X145226915Y-87092700D01*
X145233557Y-87086058D01*
X145275500Y-86984800D01*
X145275500Y-86875200D01*
X145233557Y-86773942D01*
X145192315Y-86732700D01*
X147724500Y-86732700D01*
X147724500Y-86842300D01*
X147758318Y-86923942D01*
X147764630Y-86939181D01*
X147764630Y-86995818D01*
X147724500Y-87092700D01*
X147724500Y-87202300D01*
X147766443Y-87303558D01*
X147843942Y-87381057D01*
X147945200Y-87423000D01*
X147945201Y-87423000D01*
X148054798Y-87423000D01*
X148054800Y-87423000D01*
X148156058Y-87381057D01*
X148233557Y-87303558D01*
X148275500Y-87202300D01*
X148275500Y-87092700D01*
X148235369Y-86995816D01*
X148235369Y-86939183D01*
X148275500Y-86842300D01*
X148275500Y-86732700D01*
X148233557Y-86631442D01*
X148156058Y-86553943D01*
X148054800Y-86512000D01*
X147945200Y-86512000D01*
X147909407Y-86526826D01*
X147843943Y-86553942D01*
X147766442Y-86631443D01*
X147724500Y-86732700D01*
X145192315Y-86732700D01*
X145156058Y-86696443D01*
X145156056Y-86696442D01*
X145125565Y-86683812D01*
X145125564Y-86683811D01*
X145054800Y-86654500D01*
X144945200Y-86654500D01*
X144941752Y-86655928D01*
X144941751Y-86655928D01*
X144843943Y-86696442D01*
X144766442Y-86773943D01*
X144724790Y-86874500D01*
X144724500Y-86875200D01*
X143575585Y-86875200D01*
X143558127Y-86863535D01*
X143558124Y-86863533D01*
X143558123Y-86863533D01*
X143439742Y-86814498D01*
X143439739Y-86814497D01*
X143349696Y-86796586D01*
X143314069Y-86789500D01*
X143314067Y-86789500D01*
X142524500Y-86789500D01*
X142472174Y-86767826D01*
X142450500Y-86715500D01*
X142450500Y-86113702D01*
X142472174Y-86061376D01*
X142785850Y-85747700D01*
X143524500Y-85747700D01*
X143524500Y-85857300D01*
X143566443Y-85958558D01*
X143643942Y-86036057D01*
X143745200Y-86078000D01*
X143745201Y-86078000D01*
X143854798Y-86078000D01*
X143854800Y-86078000D01*
X143956058Y-86036057D01*
X144033557Y-85958558D01*
X144075500Y-85857300D01*
X144075500Y-85747700D01*
X144224500Y-85747700D01*
X144224500Y-85857300D01*
X144266443Y-85958558D01*
X144343942Y-86036057D01*
X144445200Y-86078000D01*
X144445201Y-86078000D01*
X144554798Y-86078000D01*
X144554800Y-86078000D01*
X144656058Y-86036057D01*
X144733557Y-85958558D01*
X144775500Y-85857300D01*
X144775500Y-85747700D01*
X144733557Y-85646442D01*
X144656058Y-85568943D01*
X144554800Y-85527000D01*
X144445200Y-85527000D01*
X144403258Y-85544373D01*
X144343943Y-85568942D01*
X144266442Y-85646443D01*
X144225179Y-85746060D01*
X144224500Y-85747700D01*
X144075500Y-85747700D01*
X144033557Y-85646442D01*
X143956058Y-85568943D01*
X143854800Y-85527000D01*
X143745200Y-85527000D01*
X143703258Y-85544373D01*
X143643943Y-85568942D01*
X143566442Y-85646443D01*
X143525179Y-85746060D01*
X143524500Y-85747700D01*
X142785850Y-85747700D01*
X143561376Y-84972174D01*
X143613702Y-84950500D01*
X145485500Y-84950500D01*
X145537826Y-84972174D01*
G37*
%TD.AperFunction*%
%TD*%
M02*
