%TF.GenerationSoftware,KiCad,Pcbnew,10.0.0*%
%TF.CreationDate,2026-04-03T19:02:08+02:00*%
%TF.ProjectId,Core_Module,436f7265-5f4d-46f6-9475-6c652e6b6963,2.0*%
%TF.SameCoordinates,Original*%
%TF.FileFunction,Copper,L4,Inr*%
%TF.FilePolarity,Positive*%
%FSLAX46Y46*%
G04 Gerber Fmt 4.6, Leading zero omitted, Abs format (unit mm)*
G04 Created by KiCad (PCBNEW 10.0.0) date 2026-04-03 19:02:08*
%MOMM*%
%LPD*%
G01*
G04 APERTURE LIST*
%TA.AperFunction,ComponentPad*%
%ADD10C,1.000000*%
%TD*%
%TA.AperFunction,ComponentPad*%
%ADD11O,3.000000X1.000000*%
%TD*%
%TA.AperFunction,ComponentPad*%
%ADD12O,1.000000X3.000000*%
%TD*%
%TA.AperFunction,ViaPad*%
%ADD13C,0.250000*%
%TD*%
G04 APERTURE END LIST*
D10*
%TO.N,IOT_18B*%
%TO.C,J201*%
X143250000Y-95060000D03*
D11*
X142250000Y-95060000D03*
D10*
%TO.N,IOB_4A*%
X143250000Y-93790000D03*
D11*
X142250000Y-93790000D03*
D10*
%TO.N,IOB_5B*%
X143250000Y-92520000D03*
D11*
X142250000Y-92520000D03*
D10*
%TO.N,RGB1*%
X143250000Y-91250000D03*
D11*
X142250000Y-91250000D03*
D10*
%TO.N,RGB2*%
X143250000Y-89980000D03*
D11*
X142250000Y-89980000D03*
D10*
%TO.N,+5V*%
X143250000Y-88710000D03*
D11*
X142250000Y-88710000D03*
D10*
%TO.N,GND*%
X143250000Y-87440000D03*
D11*
X142250000Y-87440000D03*
%TD*%
D10*
%TO.N,FLASH_~{CS}*%
%TO.C,J205*%
X152560000Y-85750000D03*
D12*
X152560000Y-84750000D03*
D10*
%TO.N,FLASH_MISO*%
X151290000Y-85750000D03*
D12*
X151290000Y-84750000D03*
D10*
%TO.N,FLASH_SCK*%
X150020000Y-85750000D03*
D12*
X150020000Y-84750000D03*
D10*
%TO.N,FLASH_MOSI*%
X148750000Y-85750000D03*
D12*
X148750000Y-84750000D03*
D10*
%TO.N,CDONE*%
X147480000Y-85750000D03*
D12*
X147480000Y-84750000D03*
D10*
%TO.N,~{CRESET}*%
X146210000Y-85750000D03*
D12*
X146210000Y-84750000D03*
%TD*%
D10*
%TO.N,IOT_25A*%
%TO.C,J203*%
X154250000Y-87440000D03*
D11*
X155250000Y-87440000D03*
D10*
%TO.N,IOT_19A*%
X154250000Y-88710000D03*
D11*
X155250000Y-88710000D03*
D10*
%TO.N,BARCODE*%
X154250000Y-89980000D03*
D11*
X155250000Y-89980000D03*
D10*
%TO.N,IRLED*%
X154250000Y-91250000D03*
D11*
X155250000Y-91250000D03*
D10*
%TO.N,IOT_27A*%
X154250000Y-92520000D03*
D11*
X155250000Y-92520000D03*
D10*
%TO.N,IOT_24B*%
X154250000Y-93790000D03*
D11*
X155250000Y-93790000D03*
D10*
%TO.N,IOT_21A_G1*%
X154250000Y-95060000D03*
D11*
X155250000Y-95060000D03*
%TD*%
D10*
%TO.N,IOT_22B_G0*%
%TO.C,J202*%
X152560000Y-96750000D03*
D12*
X152560000Y-97750000D03*
D10*
%TO.N,IOB_10A*%
X151290000Y-96750000D03*
D12*
X151290000Y-97750000D03*
D10*
%TO.N,IOB_6A*%
X150020000Y-96750000D03*
D12*
X150020000Y-97750000D03*
D10*
%TO.N,IOB_7B_G5*%
X148750000Y-96750000D03*
D12*
X148750000Y-97750000D03*
D10*
%TO.N,IOB_3B_G6*%
X147480000Y-96750000D03*
D12*
X147480000Y-97750000D03*
D10*
%TO.N,IOB_0A*%
X146210000Y-96750000D03*
D12*
X146210000Y-97750000D03*
D10*
%TO.N,IOB_1B*%
X144940000Y-96750000D03*
D12*
X144940000Y-97750000D03*
%TD*%
D13*
%TO.N,+3V3*%
X145250000Y-92130000D03*
X144650000Y-87570000D03*
X145300000Y-91100000D03*
X149930000Y-90700000D03*
X148950000Y-94725000D03*
X148950000Y-92415000D03*
X146900000Y-93100000D03*
X149850000Y-94450000D03*
X151330000Y-90700000D03*
X150950000Y-88780000D03*
X146850000Y-91870000D03*
X147300000Y-94300000D03*
X149370000Y-87150000D03*
%TO.N,GND*%
X146825000Y-88350000D03*
X144300000Y-94700000D03*
X149050000Y-88350000D03*
X151275000Y-88370000D03*
X152920000Y-95700000D03*
X145250000Y-92770000D03*
X149450000Y-94085000D03*
X144300000Y-88350000D03*
X153200000Y-87080000D03*
X145300000Y-95700000D03*
X152400000Y-88030000D03*
X153200000Y-92160000D03*
X146570000Y-95700000D03*
X153200000Y-88350000D03*
X144500000Y-85802500D03*
X153200000Y-94700000D03*
X152250000Y-92050000D03*
X146850000Y-91150000D03*
X153200000Y-89620000D03*
X150150000Y-87880000D03*
X145250000Y-93830000D03*
X151970000Y-90700000D03*
X151050000Y-94050000D03*
X145200000Y-86262500D03*
X147300000Y-93500000D03*
X153600000Y-85902500D03*
X153200000Y-93430000D03*
X145750000Y-87147500D03*
X152450000Y-87197500D03*
X144300000Y-92160000D03*
X148000000Y-87147500D03*
X151050000Y-91950000D03*
X148950000Y-93175000D03*
X147840000Y-95700000D03*
X146100000Y-90000000D03*
X144300000Y-89620000D03*
X144300000Y-93430000D03*
X144300000Y-90890000D03*
X149110000Y-95700000D03*
X151650000Y-95700000D03*
X150380000Y-95700000D03*
X153200000Y-90890000D03*
%TO.N,IOT_21A_G1*%
X152575000Y-94850000D03*
X149750000Y-92475000D03*
%TO.N,+2V5_NVCM*%
X147725000Y-90520566D03*
X151600000Y-87920000D03*
X147300000Y-93100000D03*
%TO.N,+1V2_CORE*%
X147170000Y-87150000D03*
X148725000Y-88780000D03*
X145250000Y-94470000D03*
X146900000Y-93900000D03*
%TO.N,~{CRESET}*%
X145200000Y-85902500D03*
X148400000Y-95350000D03*
%TO.N,IOT_18B*%
X145700000Y-89500000D03*
X148150000Y-90450000D03*
X144700000Y-94800000D03*
X147700000Y-93100000D03*
%TO.N,IOB_6A*%
X150020000Y-95700000D03*
X146500000Y-94300000D03*
%TO.N,IOT_24B*%
X146500000Y-93100000D03*
X153200000Y-93790000D03*
%TO.N,FLASH_MISO*%
X152450000Y-86837500D03*
X147700000Y-94300000D03*
X152250000Y-93650000D03*
X151450000Y-92350000D03*
%TO.N,FLASH_~{CS}*%
X153200000Y-91700000D03*
X153600000Y-86262500D03*
%TO.N,FLASH_MOSI*%
X149932630Y-91325000D03*
X148000000Y-86787500D03*
%TO.N,FLASH_SCK*%
X150700000Y-91650000D03*
X149850000Y-92850000D03*
X150200000Y-86787500D03*
X150700000Y-93700000D03*
%TO.N,CDONE*%
X148500000Y-92500000D03*
X148500000Y-91750000D03*
X148500000Y-89625000D03*
X145000000Y-86930000D03*
X148500000Y-90450000D03*
X147700000Y-93900000D03*
%TO.N,IOT_27A*%
X146500000Y-93500000D03*
X153200000Y-92520000D03*
%TO.N,IOB_10A*%
X148100000Y-93900000D03*
X151290000Y-95700000D03*
%TO.N,/FPGA/LED*%
X143800000Y-85802500D03*
X144623275Y-89438539D03*
%TO.N,IOT_22B_G0*%
X152560000Y-95700000D03*
X148600000Y-93200000D03*
%TO.N,12MHZ_CLK*%
X146500000Y-93900000D03*
X146900000Y-90522170D03*
%TD*%
%TA.AperFunction,Conductor*%
%TO.N,+2V5_NVCM*%
G36*
X149890505Y-87718907D02*
G01*
X149926469Y-87768407D01*
X149926469Y-87829593D01*
X149924592Y-87834678D01*
X149924500Y-87835143D01*
X149924500Y-87924856D01*
X149958828Y-88007733D01*
X149958829Y-88007734D01*
X149958830Y-88007736D01*
X150022264Y-88071170D01*
X150022265Y-88071170D01*
X150022266Y-88071171D01*
X150105143Y-88105500D01*
X150105145Y-88105500D01*
X150194856Y-88105500D01*
X150247119Y-88083851D01*
X150277736Y-88071170D01*
X150341170Y-88007736D01*
X150375500Y-87924855D01*
X150375500Y-87835145D01*
X150375500Y-87835143D01*
X150373598Y-87825580D01*
X150375304Y-87825240D01*
X150371423Y-87775883D01*
X150403395Y-87723716D01*
X150459924Y-87700305D01*
X150467686Y-87700000D01*
X151651000Y-87700000D01*
X151709191Y-87718907D01*
X151745155Y-87768407D01*
X151750000Y-87799000D01*
X151750000Y-88708992D01*
X151731093Y-88767183D01*
X151721004Y-88778996D01*
X151228996Y-89271004D01*
X151174479Y-89298781D01*
X151158992Y-89300000D01*
X149750000Y-89300000D01*
X149000000Y-90050000D01*
X149000000Y-90050001D01*
X149000000Y-92090500D01*
X148981093Y-92148691D01*
X148931593Y-92184655D01*
X148914654Y-92187337D01*
X148914706Y-92187598D01*
X148905143Y-92189499D01*
X148822266Y-92223828D01*
X148822264Y-92223829D01*
X148822264Y-92223830D01*
X148758830Y-92287264D01*
X148758829Y-92287265D01*
X148751936Y-92294159D01*
X148749310Y-92291533D01*
X148715317Y-92318309D01*
X148654177Y-92320686D01*
X148634979Y-92311829D01*
X148544857Y-92274500D01*
X148544855Y-92274500D01*
X148455145Y-92274500D01*
X148455143Y-92274500D01*
X148372266Y-92308828D01*
X148308828Y-92372266D01*
X148274500Y-92455143D01*
X148274500Y-92544856D01*
X148308828Y-92627733D01*
X148308829Y-92627734D01*
X148308830Y-92627736D01*
X148372264Y-92691170D01*
X148372265Y-92691170D01*
X148372266Y-92691171D01*
X148455143Y-92725500D01*
X148455145Y-92725500D01*
X148544856Y-92725500D01*
X148597119Y-92703851D01*
X148627736Y-92691170D01*
X148691170Y-92627736D01*
X148691170Y-92627734D01*
X148698064Y-92620841D01*
X148700696Y-92623473D01*
X148734597Y-92596721D01*
X148795734Y-92594289D01*
X148803904Y-92596976D01*
X148818637Y-92602543D01*
X148822264Y-92606170D01*
X148905145Y-92640500D01*
X148919082Y-92640500D01*
X148935995Y-92646891D01*
X148946449Y-92655267D01*
X148959191Y-92659407D01*
X148969740Y-92673927D01*
X148983746Y-92685148D01*
X148987280Y-92698068D01*
X148995155Y-92708907D01*
X149000000Y-92739500D01*
X149000000Y-92850500D01*
X148981093Y-92908691D01*
X148931593Y-92944655D01*
X148914654Y-92947337D01*
X148914706Y-92947598D01*
X148905143Y-92949499D01*
X148822264Y-92983829D01*
X148814158Y-92989246D01*
X148813172Y-92987771D01*
X148769149Y-93010198D01*
X148715786Y-93003879D01*
X148644857Y-92974500D01*
X148644855Y-92974500D01*
X148555145Y-92974500D01*
X148555143Y-92974500D01*
X148472266Y-93008828D01*
X148408828Y-93072266D01*
X148374499Y-93155143D01*
X148372598Y-93164706D01*
X148370201Y-93164229D01*
X148355593Y-93209191D01*
X148306093Y-93245155D01*
X148275500Y-93250000D01*
X148024500Y-93250000D01*
X147966309Y-93231093D01*
X147930345Y-93181593D01*
X147925500Y-93151000D01*
X147925500Y-93055143D01*
X147891171Y-92972266D01*
X147891170Y-92972265D01*
X147891170Y-92972264D01*
X147827736Y-92908830D01*
X147827734Y-92908829D01*
X147827733Y-92908828D01*
X147744857Y-92874500D01*
X147744855Y-92874500D01*
X147655145Y-92874500D01*
X147655143Y-92874500D01*
X147572266Y-92908828D01*
X147508828Y-92972266D01*
X147474500Y-93055143D01*
X147474500Y-93151000D01*
X147455593Y-93209191D01*
X147406093Y-93245155D01*
X147375500Y-93250000D01*
X147224500Y-93250000D01*
X147166309Y-93231093D01*
X147130345Y-93181593D01*
X147125500Y-93151000D01*
X147125500Y-93055143D01*
X147091171Y-92972266D01*
X147091170Y-92972265D01*
X147091170Y-92972264D01*
X147027736Y-92908830D01*
X147027734Y-92908829D01*
X147027733Y-92908828D01*
X146944857Y-92874500D01*
X146944855Y-92874500D01*
X146899000Y-92874500D01*
X146840809Y-92855593D01*
X146804845Y-92806093D01*
X146800000Y-92775500D01*
X146800000Y-92194500D01*
X146818907Y-92136309D01*
X146868407Y-92100345D01*
X146885345Y-92097662D01*
X146885294Y-92097402D01*
X146894856Y-92095500D01*
X146947119Y-92073851D01*
X146977736Y-92061170D01*
X147041170Y-91997736D01*
X147075500Y-91914855D01*
X147075500Y-91825145D01*
X147075500Y-91825143D01*
X147041171Y-91742266D01*
X147041170Y-91742265D01*
X147041170Y-91742264D01*
X147004049Y-91705143D01*
X148274500Y-91705143D01*
X148274500Y-91794856D01*
X148308828Y-91877733D01*
X148308829Y-91877734D01*
X148308830Y-91877736D01*
X148372264Y-91941170D01*
X148372265Y-91941170D01*
X148372266Y-91941171D01*
X148455143Y-91975500D01*
X148455145Y-91975500D01*
X148544856Y-91975500D01*
X148597119Y-91953851D01*
X148627736Y-91941170D01*
X148691170Y-91877736D01*
X148712954Y-91825145D01*
X148725500Y-91794856D01*
X148725500Y-91705143D01*
X148691171Y-91622266D01*
X148691170Y-91622265D01*
X148691170Y-91622264D01*
X148627736Y-91558830D01*
X148627734Y-91558829D01*
X148627733Y-91558828D01*
X148544857Y-91524500D01*
X148544855Y-91524500D01*
X148455145Y-91524500D01*
X148455143Y-91524500D01*
X148372266Y-91558828D01*
X148308828Y-91622266D01*
X148274500Y-91705143D01*
X147004049Y-91705143D01*
X146977736Y-91678830D01*
X146977734Y-91678829D01*
X146977733Y-91678828D01*
X146894856Y-91644499D01*
X146885294Y-91642598D01*
X146885770Y-91640201D01*
X146840809Y-91625593D01*
X146804845Y-91576093D01*
X146800000Y-91545500D01*
X146800000Y-91474500D01*
X146818907Y-91416309D01*
X146868407Y-91380345D01*
X146885345Y-91377662D01*
X146885294Y-91377402D01*
X146894856Y-91375500D01*
X146947119Y-91353851D01*
X146977736Y-91341170D01*
X147041170Y-91277736D01*
X147053851Y-91247119D01*
X147075500Y-91194856D01*
X147075500Y-91105143D01*
X147041171Y-91022266D01*
X147041170Y-91022265D01*
X147041170Y-91022264D01*
X146977736Y-90958830D01*
X146977734Y-90958829D01*
X146977733Y-90958828D01*
X146924186Y-90936648D01*
X146877660Y-90896911D01*
X146863377Y-90837416D01*
X146886792Y-90780888D01*
X146938962Y-90748919D01*
X146942769Y-90748084D01*
X146944846Y-90747670D01*
X146944855Y-90747670D01*
X147027736Y-90713340D01*
X147091170Y-90649906D01*
X147114366Y-90593906D01*
X147125500Y-90567026D01*
X147125500Y-90477313D01*
X147125499Y-90477312D01*
X147107261Y-90433279D01*
X147095606Y-90405143D01*
X147924500Y-90405143D01*
X147924500Y-90494856D01*
X147958828Y-90577733D01*
X147958829Y-90577734D01*
X147958830Y-90577736D01*
X148022264Y-90641170D01*
X148022265Y-90641170D01*
X148022266Y-90641171D01*
X148105143Y-90675500D01*
X148105145Y-90675500D01*
X148194856Y-90675500D01*
X148286745Y-90637439D01*
X148288300Y-90641195D01*
X148328744Y-90629726D01*
X148361977Y-90640524D01*
X148363255Y-90637439D01*
X148455143Y-90675500D01*
X148455145Y-90675500D01*
X148544856Y-90675500D01*
X148606652Y-90649903D01*
X148627736Y-90641170D01*
X148691170Y-90577736D01*
X148703851Y-90547119D01*
X148725500Y-90494856D01*
X148725500Y-90405143D01*
X148691171Y-90322266D01*
X148691170Y-90322265D01*
X148691170Y-90322264D01*
X148627736Y-90258830D01*
X148627734Y-90258829D01*
X148627733Y-90258828D01*
X148544857Y-90224500D01*
X148544855Y-90224500D01*
X148455145Y-90224500D01*
X148455143Y-90224500D01*
X148363255Y-90262561D01*
X148361707Y-90258824D01*
X148321071Y-90270266D01*
X148288003Y-90259521D01*
X148286745Y-90262561D01*
X148194857Y-90224500D01*
X148194855Y-90224500D01*
X148105145Y-90224500D01*
X148105143Y-90224500D01*
X148022266Y-90258828D01*
X147958828Y-90322266D01*
X147924500Y-90405143D01*
X147095606Y-90405143D01*
X147091171Y-90394436D01*
X147091170Y-90394435D01*
X147091170Y-90394434D01*
X147027736Y-90331000D01*
X147027734Y-90330999D01*
X147027733Y-90330998D01*
X146944857Y-90296670D01*
X146944855Y-90296670D01*
X146899000Y-90296670D01*
X146840809Y-90277763D01*
X146804845Y-90228263D01*
X146800000Y-90197670D01*
X146800000Y-90041008D01*
X146818907Y-89982817D01*
X146828996Y-89971004D01*
X147219857Y-89580143D01*
X148274500Y-89580143D01*
X148274500Y-89669856D01*
X148308828Y-89752733D01*
X148308829Y-89752734D01*
X148308830Y-89752736D01*
X148372264Y-89816170D01*
X148372265Y-89816170D01*
X148372266Y-89816171D01*
X148455143Y-89850500D01*
X148455145Y-89850500D01*
X148544856Y-89850500D01*
X148597119Y-89828851D01*
X148627736Y-89816170D01*
X148691170Y-89752736D01*
X148725500Y-89669855D01*
X148725500Y-89580145D01*
X148725500Y-89580143D01*
X148691171Y-89497266D01*
X148691170Y-89497265D01*
X148691170Y-89497264D01*
X148627736Y-89433830D01*
X148627734Y-89433829D01*
X148627733Y-89433828D01*
X148544857Y-89399500D01*
X148544855Y-89399500D01*
X148455145Y-89399500D01*
X148455143Y-89399500D01*
X148372266Y-89433828D01*
X148308828Y-89497266D01*
X148274500Y-89580143D01*
X147219857Y-89580143D01*
X148064857Y-88735143D01*
X148499500Y-88735143D01*
X148499500Y-88824856D01*
X148533828Y-88907733D01*
X148533829Y-88907734D01*
X148533830Y-88907736D01*
X148597264Y-88971170D01*
X148597265Y-88971170D01*
X148597266Y-88971171D01*
X148680143Y-89005500D01*
X148680145Y-89005500D01*
X148769856Y-89005500D01*
X148822119Y-88983851D01*
X148852736Y-88971170D01*
X148916170Y-88907736D01*
X148950500Y-88824855D01*
X148950500Y-88735145D01*
X148950499Y-88735143D01*
X150724500Y-88735143D01*
X150724500Y-88824856D01*
X150758828Y-88907733D01*
X150758829Y-88907734D01*
X150758830Y-88907736D01*
X150822264Y-88971170D01*
X150822265Y-88971170D01*
X150822266Y-88971171D01*
X150905143Y-89005500D01*
X150905145Y-89005500D01*
X150994856Y-89005500D01*
X151047119Y-88983851D01*
X151077736Y-88971170D01*
X151141170Y-88907736D01*
X151175500Y-88824855D01*
X151175500Y-88735145D01*
X151175500Y-88735143D01*
X151175499Y-88735142D01*
X151174357Y-88732383D01*
X151173968Y-88727441D01*
X151173598Y-88725580D01*
X151173818Y-88725536D01*
X151169558Y-88671386D01*
X151201529Y-88619218D01*
X151258058Y-88595805D01*
X151265822Y-88595500D01*
X151319856Y-88595500D01*
X151372119Y-88573851D01*
X151402736Y-88561170D01*
X151466170Y-88497736D01*
X151478851Y-88467119D01*
X151500500Y-88414856D01*
X151500500Y-88325143D01*
X151466171Y-88242266D01*
X151466170Y-88242265D01*
X151466170Y-88242264D01*
X151402736Y-88178830D01*
X151402734Y-88178829D01*
X151402733Y-88178828D01*
X151319857Y-88144500D01*
X151319855Y-88144500D01*
X151230145Y-88144500D01*
X151230143Y-88144500D01*
X151147266Y-88178828D01*
X151083828Y-88242266D01*
X151049500Y-88325143D01*
X151049500Y-88414857D01*
X151050643Y-88417617D01*
X151051031Y-88422558D01*
X151051402Y-88424420D01*
X151051181Y-88424463D01*
X151055442Y-88478614D01*
X151023471Y-88530782D01*
X150966942Y-88554195D01*
X150959178Y-88554500D01*
X150905143Y-88554500D01*
X150822266Y-88588828D01*
X150758828Y-88652266D01*
X150724500Y-88735143D01*
X148950499Y-88735143D01*
X148939725Y-88709132D01*
X148938616Y-88705804D01*
X148938410Y-88678556D01*
X148936272Y-88651390D01*
X148938181Y-88648273D01*
X148938154Y-88644620D01*
X148954002Y-88622456D01*
X148968241Y-88599220D01*
X148971617Y-88597821D01*
X148973742Y-88594850D01*
X148999588Y-88586235D01*
X149024769Y-88575805D01*
X149031698Y-88575532D01*
X149031788Y-88575503D01*
X149032302Y-88575509D01*
X149032537Y-88575500D01*
X149094856Y-88575500D01*
X149147119Y-88553851D01*
X149177736Y-88541170D01*
X149241170Y-88477736D01*
X149267215Y-88414857D01*
X149275500Y-88394856D01*
X149275500Y-88305143D01*
X149241171Y-88222266D01*
X149241170Y-88222265D01*
X149241170Y-88222264D01*
X149177736Y-88158830D01*
X149177734Y-88158829D01*
X149177733Y-88158828D01*
X149094857Y-88124500D01*
X149094855Y-88124500D01*
X149005145Y-88124500D01*
X149005143Y-88124500D01*
X148922266Y-88158828D01*
X148858828Y-88222266D01*
X148824500Y-88305143D01*
X148824500Y-88394855D01*
X148833927Y-88417614D01*
X148838728Y-88478610D01*
X148806759Y-88530780D01*
X148750231Y-88554195D01*
X148742463Y-88554500D01*
X148680143Y-88554500D01*
X148597266Y-88588828D01*
X148533828Y-88652266D01*
X148499500Y-88735143D01*
X148064857Y-88735143D01*
X149071004Y-87728996D01*
X149125521Y-87701219D01*
X149141008Y-87700000D01*
X149832314Y-87700000D01*
X149890505Y-87718907D01*
G37*
%TD.AperFunction*%
%TD*%
%TA.AperFunction,Conductor*%
%TO.N,+1V2_CORE*%
G36*
X145469499Y-84954227D02*
G01*
X145476393Y-84957083D01*
X145502913Y-84983598D01*
X145505770Y-84990497D01*
X145505770Y-85002133D01*
X145506644Y-85002129D01*
X145509499Y-85623404D01*
X145505770Y-85642381D01*
X145503751Y-85647255D01*
X145477232Y-85673774D01*
X145439729Y-85673773D01*
X145434855Y-85671754D01*
X145418959Y-85661132D01*
X145399865Y-85642038D01*
X145399864Y-85642037D01*
X145399862Y-85642035D01*
X145399858Y-85642033D01*
X145399856Y-85642031D01*
X145325640Y-85599182D01*
X145325612Y-85599170D01*
X145325216Y-85599068D01*
X145242859Y-85577000D01*
X145242856Y-85577000D01*
X145242853Y-85577000D01*
X145157147Y-85577000D01*
X145157144Y-85577000D01*
X145157141Y-85577000D01*
X145074782Y-85599068D01*
X145074388Y-85599170D01*
X145074358Y-85599182D01*
X144998229Y-85643135D01*
X144995574Y-85646597D01*
X144939539Y-85702631D01*
X144915235Y-85744726D01*
X144902628Y-85759100D01*
X144898443Y-85762311D01*
X144862217Y-85772017D01*
X144829740Y-85753264D01*
X144826529Y-85749079D01*
X144818074Y-85731933D01*
X144811952Y-85709086D01*
X144803318Y-85676862D01*
X144803317Y-85676859D01*
X144760464Y-85602637D01*
X144699862Y-85542035D01*
X144699858Y-85542033D01*
X144699856Y-85542031D01*
X144625640Y-85499182D01*
X144625612Y-85499170D01*
X144625216Y-85499068D01*
X144542859Y-85477000D01*
X144542856Y-85477000D01*
X144542853Y-85477000D01*
X144457147Y-85477000D01*
X144457144Y-85477000D01*
X144457141Y-85477000D01*
X144374782Y-85499068D01*
X144374388Y-85499170D01*
X144374358Y-85499182D01*
X144298231Y-85543135D01*
X144295573Y-85546599D01*
X144244099Y-85598073D01*
X144240635Y-85600730D01*
X144201928Y-85667771D01*
X144198357Y-85673112D01*
X144188176Y-85686371D01*
X144155692Y-85705112D01*
X144119472Y-85695395D01*
X144117965Y-85694238D01*
X144102534Y-85674122D01*
X144100165Y-85668402D01*
X144096663Y-85665334D01*
X144083846Y-85643135D01*
X144060464Y-85602637D01*
X143999862Y-85542035D01*
X143999858Y-85542033D01*
X143999856Y-85542031D01*
X143925640Y-85499182D01*
X143925612Y-85499170D01*
X143925216Y-85499068D01*
X143842859Y-85477000D01*
X143842856Y-85477000D01*
X143842853Y-85477000D01*
X143757147Y-85477000D01*
X143757144Y-85477000D01*
X143757141Y-85477000D01*
X143674782Y-85499068D01*
X143674388Y-85499170D01*
X143674358Y-85499182D01*
X143598231Y-85543135D01*
X143595573Y-85546599D01*
X143544099Y-85598073D01*
X143540635Y-85600731D01*
X143496682Y-85676858D01*
X143496670Y-85676888D01*
X143496568Y-85677282D01*
X143474500Y-85759639D01*
X143474500Y-85845358D01*
X143496568Y-85927716D01*
X143496670Y-85928112D01*
X143496682Y-85928140D01*
X143536348Y-85996842D01*
X143539535Y-86002362D01*
X143600138Y-86062965D01*
X143600141Y-86062966D01*
X143600144Y-86062969D01*
X143610066Y-86068697D01*
X143610068Y-86068698D01*
X143674359Y-86105817D01*
X143674360Y-86105817D01*
X143674362Y-86105818D01*
X143682413Y-86107976D01*
X143682419Y-86107976D01*
X143682420Y-86107977D01*
X143754047Y-86127169D01*
X143756493Y-86128000D01*
X143842856Y-86128000D01*
X143849650Y-86128000D01*
X143855535Y-86124601D01*
X143925638Y-86105818D01*
X143999862Y-86062965D01*
X144060465Y-86002362D01*
X144097575Y-85938084D01*
X144097576Y-85938084D01*
X144097576Y-85938081D01*
X144098062Y-85937239D01*
X144101606Y-85931938D01*
X144106254Y-85925880D01*
X144106256Y-85925881D01*
X144111817Y-85918633D01*
X144144295Y-85899886D01*
X144180503Y-85909582D01*
X144182009Y-85910738D01*
X144197459Y-85930865D01*
X144199808Y-85936536D01*
X144203300Y-85939603D01*
X144236348Y-85996842D01*
X144239535Y-86002362D01*
X144300138Y-86062965D01*
X144300141Y-86062966D01*
X144300144Y-86062969D01*
X144310066Y-86068697D01*
X144310068Y-86068698D01*
X144374359Y-86105817D01*
X144374360Y-86105817D01*
X144374362Y-86105818D01*
X144382413Y-86107976D01*
X144382419Y-86107976D01*
X144382420Y-86107977D01*
X144454047Y-86127169D01*
X144456493Y-86128000D01*
X144542856Y-86128000D01*
X144549650Y-86128000D01*
X144555535Y-86124601D01*
X144625638Y-86105818D01*
X144699862Y-86062965D01*
X144760465Y-86002362D01*
X144784766Y-85960269D01*
X144797370Y-85945897D01*
X144801560Y-85942683D01*
X144837784Y-85932982D01*
X144870258Y-85951734D01*
X144873469Y-85955919D01*
X144881924Y-85973064D01*
X144891143Y-86007466D01*
X144891143Y-86007467D01*
X144896680Y-86028133D01*
X144896681Y-86028135D01*
X144896682Y-86028138D01*
X144898932Y-86032035D01*
X144909049Y-86049559D01*
X144915194Y-86067662D01*
X144917004Y-86081410D01*
X144910859Y-86112305D01*
X144896684Y-86136857D01*
X144896680Y-86136864D01*
X144896678Y-86136870D01*
X144874500Y-86219639D01*
X144874500Y-86305358D01*
X144896568Y-86387716D01*
X144896670Y-86388112D01*
X144896682Y-86388140D01*
X144939531Y-86462356D01*
X144939533Y-86462358D01*
X144939535Y-86462362D01*
X144939536Y-86462363D01*
X144939538Y-86462365D01*
X144991132Y-86513959D01*
X145001754Y-86529855D01*
X145003773Y-86534729D01*
X145003774Y-86572232D01*
X144977256Y-86598751D01*
X144972242Y-86600828D01*
X144959884Y-86604139D01*
X144957140Y-86604500D01*
X144874782Y-86626568D01*
X144874388Y-86626670D01*
X144874358Y-86626682D01*
X144798231Y-86670635D01*
X144795573Y-86674099D01*
X144744099Y-86725573D01*
X144740635Y-86728231D01*
X144696682Y-86804358D01*
X144696670Y-86804388D01*
X144696568Y-86804782D01*
X144674500Y-86887139D01*
X144674500Y-86972858D01*
X144696568Y-87055216D01*
X144696670Y-87055612D01*
X144696680Y-87055636D01*
X144739531Y-87129856D01*
X144739533Y-87129858D01*
X144739535Y-87129862D01*
X144739536Y-87129863D01*
X144739538Y-87129865D01*
X144777018Y-87167345D01*
X144787640Y-87183241D01*
X144789659Y-87188115D01*
X144789660Y-87225618D01*
X144763146Y-87252135D01*
X144762101Y-87252568D01*
X144730661Y-87254629D01*
X144718681Y-87251419D01*
X144692858Y-87244500D01*
X144692856Y-87244500D01*
X144692853Y-87244500D01*
X144607147Y-87244500D01*
X144607144Y-87244500D01*
X144607141Y-87244500D01*
X144524782Y-87266568D01*
X144524388Y-87266670D01*
X144524358Y-87266682D01*
X144448231Y-87310635D01*
X144445573Y-87314099D01*
X144394099Y-87365573D01*
X144390635Y-87368231D01*
X144346682Y-87444358D01*
X144346670Y-87444388D01*
X144346568Y-87444782D01*
X144324500Y-87527139D01*
X144324500Y-87612858D01*
X144346568Y-87695216D01*
X144346670Y-87695612D01*
X144346682Y-87695640D01*
X144389342Y-87769528D01*
X144389531Y-87769856D01*
X144389535Y-87769862D01*
X144450138Y-87830465D01*
X144461712Y-87837147D01*
X144524359Y-87873317D01*
X144524361Y-87873317D01*
X144524362Y-87873318D01*
X144573704Y-87886539D01*
X144604056Y-87894671D01*
X144606494Y-87895500D01*
X144692856Y-87895500D01*
X144699650Y-87895500D01*
X144705535Y-87892101D01*
X144775638Y-87873318D01*
X144849862Y-87830465D01*
X144910465Y-87769862D01*
X144953318Y-87695638D01*
X144972101Y-87625535D01*
X144975500Y-87619649D01*
X144975500Y-87526494D01*
X144974671Y-87524056D01*
X144956963Y-87457965D01*
X144953318Y-87444362D01*
X144953317Y-87444361D01*
X144953317Y-87444359D01*
X144918074Y-87383317D01*
X144910465Y-87370138D01*
X144872980Y-87332653D01*
X144862358Y-87316757D01*
X144860339Y-87311883D01*
X144860338Y-87274380D01*
X144886855Y-87247862D01*
X144887934Y-87247416D01*
X144911959Y-87245849D01*
X144913029Y-87245406D01*
X144914924Y-87245655D01*
X144919335Y-87245368D01*
X144925707Y-87247075D01*
X144925711Y-87247076D01*
X144957145Y-87255500D01*
X144957147Y-87255500D01*
X145042856Y-87255500D01*
X145049650Y-87255500D01*
X145055535Y-87252101D01*
X145125638Y-87233318D01*
X145199862Y-87190465D01*
X145260465Y-87129862D01*
X145283008Y-87090816D01*
X145291025Y-87076931D01*
X145303316Y-87055641D01*
X145303315Y-87055641D01*
X145303318Y-87055638D01*
X145304313Y-87051926D01*
X145422385Y-87051926D01*
X145425214Y-87091577D01*
X145424919Y-87101456D01*
X145424500Y-87104640D01*
X145424500Y-87190358D01*
X145446568Y-87272716D01*
X145446670Y-87273112D01*
X145446682Y-87273140D01*
X145485550Y-87340461D01*
X145489535Y-87347362D01*
X145489537Y-87347365D01*
X145525489Y-87383316D01*
X145550138Y-87407965D01*
X145577304Y-87423649D01*
X145624359Y-87450817D01*
X145624360Y-87450817D01*
X145624362Y-87450818D01*
X145689651Y-87468312D01*
X145704046Y-87472169D01*
X145706493Y-87473000D01*
X145792856Y-87473000D01*
X145799650Y-87473000D01*
X145805535Y-87469601D01*
X145875638Y-87450818D01*
X145949862Y-87407965D01*
X146010465Y-87347362D01*
X146049436Y-87279862D01*
X146053317Y-87273140D01*
X146053317Y-87273139D01*
X146053318Y-87273138D01*
X146072337Y-87202156D01*
X146072594Y-87201321D01*
X146074242Y-87199327D01*
X146075500Y-87197149D01*
X146075500Y-87103995D01*
X146074673Y-87101561D01*
X146058714Y-87042001D01*
X146053318Y-87021862D01*
X146053317Y-87021858D01*
X146029255Y-86980183D01*
X146014610Y-86954818D01*
X146010465Y-86947638D01*
X146010463Y-86947636D01*
X146010462Y-86947634D01*
X145949866Y-86887039D01*
X145949862Y-86887035D01*
X145949858Y-86887032D01*
X145949856Y-86887031D01*
X145938753Y-86880621D01*
X145938752Y-86880620D01*
X145938294Y-86880356D01*
X145875640Y-86844182D01*
X145875636Y-86844181D01*
X145869484Y-86842532D01*
X145869483Y-86842532D01*
X145792859Y-86822000D01*
X145792856Y-86822000D01*
X145792853Y-86822000D01*
X145707147Y-86822000D01*
X145707144Y-86822000D01*
X145707141Y-86822000D01*
X145624782Y-86844068D01*
X145624388Y-86844170D01*
X145624358Y-86844182D01*
X145548231Y-86888135D01*
X145545573Y-86891599D01*
X145494099Y-86943073D01*
X145490635Y-86945731D01*
X145446682Y-87021858D01*
X145445399Y-87025031D01*
X145444438Y-87024642D01*
X145424442Y-87051621D01*
X145422385Y-87051926D01*
X145304313Y-87051926D01*
X145322101Y-86985535D01*
X145325500Y-86979649D01*
X145325500Y-86886493D01*
X145324669Y-86884046D01*
X145320812Y-86869651D01*
X145307300Y-86819225D01*
X145303318Y-86804362D01*
X145303317Y-86804359D01*
X145281130Y-86765931D01*
X145268839Y-86744643D01*
X147674500Y-86744643D01*
X147674500Y-86830356D01*
X147675053Y-86832421D01*
X147675053Y-86832425D01*
X147696678Y-86913129D01*
X147696682Y-86913139D01*
X147709048Y-86934558D01*
X147715194Y-86952662D01*
X147717004Y-86966410D01*
X147710860Y-86997303D01*
X147706523Y-87004816D01*
X147706522Y-87004818D01*
X147696679Y-87021866D01*
X147696678Y-87021870D01*
X147674500Y-87104639D01*
X147674500Y-87190358D01*
X147696568Y-87272716D01*
X147696670Y-87273112D01*
X147696682Y-87273140D01*
X147735550Y-87340461D01*
X147739535Y-87347362D01*
X147739537Y-87347365D01*
X147775489Y-87383316D01*
X147800138Y-87407965D01*
X147827304Y-87423649D01*
X147874359Y-87450817D01*
X147874360Y-87450817D01*
X147874362Y-87450818D01*
X147939651Y-87468312D01*
X147954046Y-87472169D01*
X147956493Y-87473000D01*
X148042856Y-87473000D01*
X148049650Y-87473000D01*
X148055535Y-87469601D01*
X148125638Y-87450818D01*
X148199862Y-87407965D01*
X148260465Y-87347362D01*
X148299436Y-87279862D01*
X148303317Y-87273140D01*
X148303317Y-87273139D01*
X148303318Y-87273138D01*
X148322337Y-87202156D01*
X148322594Y-87201321D01*
X148324242Y-87199327D01*
X148325500Y-87197149D01*
X148325500Y-87103995D01*
X148324673Y-87101561D01*
X148308714Y-87042001D01*
X148303318Y-87021862D01*
X148290948Y-87000437D01*
X148284803Y-86982333D01*
X148282994Y-86968588D01*
X148289139Y-86937695D01*
X148303318Y-86913138D01*
X148322101Y-86843035D01*
X148325500Y-86837149D01*
X148325500Y-86743992D01*
X148324666Y-86741535D01*
X148316715Y-86711861D01*
X148303318Y-86661862D01*
X148303317Y-86661861D01*
X148303317Y-86661859D01*
X148260464Y-86587637D01*
X148199862Y-86527035D01*
X148199858Y-86527033D01*
X148199856Y-86527031D01*
X148125640Y-86484182D01*
X148125612Y-86484170D01*
X148125216Y-86484068D01*
X148042859Y-86462000D01*
X148042856Y-86462000D01*
X148042853Y-86462000D01*
X147957147Y-86462000D01*
X147957144Y-86462000D01*
X147957141Y-86462000D01*
X147874782Y-86484068D01*
X147874388Y-86484170D01*
X147874358Y-86484182D01*
X147798231Y-86528135D01*
X147795573Y-86531599D01*
X147744099Y-86583073D01*
X147740635Y-86585731D01*
X147697171Y-86661010D01*
X147697170Y-86661012D01*
X147696682Y-86661859D01*
X147696681Y-86661863D01*
X147674500Y-86744643D01*
X145268839Y-86744643D01*
X145268837Y-86744639D01*
X145260465Y-86730138D01*
X145208867Y-86678540D01*
X145198245Y-86662644D01*
X145197932Y-86661888D01*
X145196225Y-86657769D01*
X145196225Y-86620267D01*
X145222742Y-86593749D01*
X145227625Y-86591726D01*
X145246370Y-86588000D01*
X145249650Y-86588000D01*
X145255535Y-86584601D01*
X145325638Y-86565818D01*
X145399862Y-86522965D01*
X145460465Y-86462362D01*
X145503318Y-86388138D01*
X145522101Y-86318035D01*
X145525500Y-86312149D01*
X145525500Y-86217596D01*
X145523183Y-86208138D01*
X145519080Y-86161420D01*
X145508155Y-86151642D01*
X145506136Y-86142783D01*
X145504987Y-86143092D01*
X145503318Y-86136863D01*
X145503318Y-86136862D01*
X145490949Y-86115440D01*
X145489023Y-86100811D01*
X145486377Y-86098075D01*
X145486635Y-86082679D01*
X145486053Y-86078259D01*
X145486687Y-86076093D01*
X145486749Y-86075897D01*
X145487006Y-86060577D01*
X145502132Y-86041207D01*
X145503722Y-86039986D01*
X145539949Y-86030288D01*
X145570384Y-86046560D01*
X145573084Y-86049639D01*
X145581513Y-86063194D01*
X145589059Y-86081410D01*
X145589225Y-86081811D01*
X145601921Y-86100811D01*
X145606709Y-86107977D01*
X145665883Y-86196539D01*
X145763460Y-86294116D01*
X145809102Y-86324613D01*
X145809101Y-86324613D01*
X145878187Y-86370774D01*
X145878189Y-86370775D01*
X146005672Y-86423580D01*
X146005678Y-86423581D01*
X146005681Y-86423582D01*
X146005688Y-86423583D01*
X146005798Y-86423615D01*
X146006402Y-86423726D01*
X146134988Y-86449303D01*
X146141001Y-86450499D01*
X146141007Y-86450500D01*
X146278993Y-86450500D01*
X146414328Y-86423580D01*
X146541811Y-86370775D01*
X146656542Y-86294114D01*
X146754114Y-86196542D01*
X146798842Y-86129601D01*
X146812361Y-86116081D01*
X146816833Y-86113093D01*
X146818563Y-86111936D01*
X146855331Y-86104618D01*
X146857476Y-86105044D01*
X146888665Y-86125870D01*
X146888673Y-86125883D01*
X146935879Y-86196534D01*
X146935882Y-86196538D01*
X147033460Y-86294116D01*
X147079102Y-86324613D01*
X147079101Y-86324613D01*
X147148187Y-86370774D01*
X147148189Y-86370775D01*
X147275672Y-86423580D01*
X147275678Y-86423581D01*
X147275681Y-86423582D01*
X147275688Y-86423583D01*
X147275798Y-86423615D01*
X147276402Y-86423726D01*
X147404988Y-86449303D01*
X147411001Y-86450499D01*
X147411007Y-86450500D01*
X147548993Y-86450500D01*
X147684328Y-86423580D01*
X147811811Y-86370775D01*
X147926542Y-86294114D01*
X148024114Y-86196542D01*
X148068842Y-86129601D01*
X148082361Y-86116081D01*
X148086833Y-86113093D01*
X148088563Y-86111936D01*
X148125331Y-86104618D01*
X148127476Y-86105044D01*
X148158665Y-86125870D01*
X148158673Y-86125883D01*
X148205879Y-86196534D01*
X148205882Y-86196538D01*
X148303460Y-86294116D01*
X148349102Y-86324613D01*
X148349101Y-86324613D01*
X148418187Y-86370774D01*
X148418189Y-86370775D01*
X148545672Y-86423580D01*
X148545678Y-86423581D01*
X148545681Y-86423582D01*
X148545688Y-86423583D01*
X148545798Y-86423615D01*
X148546402Y-86423726D01*
X148674988Y-86449303D01*
X148681001Y-86450499D01*
X148681007Y-86450500D01*
X148818993Y-86450500D01*
X148954328Y-86423580D01*
X149081811Y-86370775D01*
X149196542Y-86294114D01*
X149294114Y-86196542D01*
X149338842Y-86129601D01*
X149352361Y-86116081D01*
X149356833Y-86113093D01*
X149358563Y-86111936D01*
X149395331Y-86104618D01*
X149397476Y-86105044D01*
X149428665Y-86125870D01*
X149428673Y-86125883D01*
X149475879Y-86196534D01*
X149475882Y-86196538D01*
X149573460Y-86294116D01*
X149619102Y-86324613D01*
X149619101Y-86324613D01*
X149688187Y-86370774D01*
X149688189Y-86370775D01*
X149815672Y-86423580D01*
X149815678Y-86423581D01*
X149815681Y-86423582D01*
X149815688Y-86423583D01*
X149815798Y-86423615D01*
X149816402Y-86423726D01*
X149944988Y-86449303D01*
X149951001Y-86450499D01*
X149951007Y-86450500D01*
X149951008Y-86450500D01*
X149952578Y-86450630D01*
X149967290Y-86454192D01*
X149972252Y-86456247D01*
X149998772Y-86482764D01*
X149998774Y-86520267D01*
X149998773Y-86520270D01*
X149996754Y-86525144D01*
X149986132Y-86541040D01*
X149944099Y-86583073D01*
X149940635Y-86585731D01*
X149896682Y-86661858D01*
X149896670Y-86661888D01*
X149896568Y-86662282D01*
X149874500Y-86744639D01*
X149874500Y-86830358D01*
X149895037Y-86907005D01*
X149895039Y-86907009D01*
X149896681Y-86913136D01*
X149896682Y-86913140D01*
X149931158Y-86972853D01*
X149931416Y-86973301D01*
X149931426Y-86973318D01*
X149939531Y-86987356D01*
X149939533Y-86987358D01*
X149939535Y-86987362D01*
X150000138Y-87047965D01*
X150013425Y-87055636D01*
X150074359Y-87090817D01*
X150074361Y-87090817D01*
X150074362Y-87090818D01*
X150125958Y-87104643D01*
X150154056Y-87112171D01*
X150156494Y-87113000D01*
X150242856Y-87113000D01*
X150249650Y-87113000D01*
X150255535Y-87109601D01*
X150325638Y-87090818D01*
X150399862Y-87047965D01*
X150460465Y-86987362D01*
X150503318Y-86913138D01*
X150522101Y-86843035D01*
X150525500Y-86837149D01*
X150525500Y-86743992D01*
X150524666Y-86741535D01*
X150516715Y-86711861D01*
X150503318Y-86661862D01*
X150503317Y-86661861D01*
X150503317Y-86661859D01*
X150460464Y-86587637D01*
X150399862Y-86527035D01*
X150392811Y-86522964D01*
X150325641Y-86484182D01*
X150325638Y-86484181D01*
X150324121Y-86483775D01*
X150306982Y-86475321D01*
X150302797Y-86472110D01*
X150284044Y-86439633D01*
X150293749Y-86403409D01*
X150295423Y-86401227D01*
X150315535Y-86385800D01*
X150351811Y-86370775D01*
X150466542Y-86294114D01*
X150564114Y-86196542D01*
X150608842Y-86129601D01*
X150622361Y-86116081D01*
X150626833Y-86113093D01*
X150628563Y-86111936D01*
X150665331Y-86104618D01*
X150667476Y-86105044D01*
X150698665Y-86125870D01*
X150698673Y-86125883D01*
X150745879Y-86196534D01*
X150745882Y-86196538D01*
X150843460Y-86294116D01*
X150889102Y-86324613D01*
X150889101Y-86324613D01*
X150958187Y-86370774D01*
X150958189Y-86370775D01*
X151085672Y-86423580D01*
X151085678Y-86423581D01*
X151085681Y-86423582D01*
X151085688Y-86423583D01*
X151085798Y-86423615D01*
X151086402Y-86423726D01*
X151214988Y-86449303D01*
X151221001Y-86450499D01*
X151221007Y-86450500D01*
X151358993Y-86450500D01*
X151494328Y-86423580D01*
X151621811Y-86370775D01*
X151736542Y-86294114D01*
X151834114Y-86196542D01*
X151878842Y-86129601D01*
X151892361Y-86116081D01*
X151896833Y-86113093D01*
X151898563Y-86111936D01*
X151935331Y-86104618D01*
X151937476Y-86105044D01*
X151968665Y-86125870D01*
X151968673Y-86125883D01*
X152015879Y-86196534D01*
X152015882Y-86196538D01*
X152113460Y-86294116D01*
X152159102Y-86324613D01*
X152159101Y-86324613D01*
X152205263Y-86355456D01*
X152228189Y-86370775D01*
X152278195Y-86391488D01*
X152355669Y-86423579D01*
X152355670Y-86423579D01*
X152355672Y-86423580D01*
X152358933Y-86424228D01*
X152376595Y-86431541D01*
X152380982Y-86434473D01*
X152401821Y-86465653D01*
X152394508Y-86502436D01*
X152394476Y-86502483D01*
X152394184Y-86502919D01*
X152366154Y-86522983D01*
X152351022Y-86527038D01*
X152330593Y-86532512D01*
X152330588Y-86532512D01*
X152330589Y-86532513D01*
X152324357Y-86534182D01*
X152248230Y-86578136D01*
X152245573Y-86581599D01*
X152194099Y-86633073D01*
X152190635Y-86635731D01*
X152146682Y-86711858D01*
X152146670Y-86711888D01*
X152146568Y-86712282D01*
X152124500Y-86794639D01*
X152124500Y-86880359D01*
X152146678Y-86963129D01*
X152146682Y-86963139D01*
X152159048Y-86984558D01*
X152165194Y-87002662D01*
X152167004Y-87016410D01*
X152160859Y-87047305D01*
X152146684Y-87071857D01*
X152146680Y-87071864D01*
X152146678Y-87071870D01*
X152124500Y-87154639D01*
X152124500Y-87240358D01*
X152145065Y-87317110D01*
X152145067Y-87317114D01*
X152146681Y-87323136D01*
X152146682Y-87323140D01*
X152174319Y-87371007D01*
X152174633Y-87371552D01*
X152174638Y-87371560D01*
X152181426Y-87383317D01*
X152189535Y-87397362D01*
X152250138Y-87457965D01*
X152276178Y-87472999D01*
X152324359Y-87500817D01*
X152324360Y-87500817D01*
X152324362Y-87500818D01*
X152388919Y-87518116D01*
X152389651Y-87518312D01*
X152404046Y-87522169D01*
X152406493Y-87523000D01*
X152492856Y-87523000D01*
X152499650Y-87523000D01*
X152505535Y-87519601D01*
X152575638Y-87500818D01*
X152649862Y-87457965D01*
X152710465Y-87397362D01*
X152753318Y-87323138D01*
X152772102Y-87253031D01*
X152775500Y-87245205D01*
X152775500Y-87153991D01*
X152774666Y-87151534D01*
X152764341Y-87113000D01*
X152753319Y-87071864D01*
X152753318Y-87071863D01*
X152753318Y-87071862D01*
X152740948Y-87050437D01*
X152734803Y-87032333D01*
X152733753Y-87024358D01*
X152732994Y-87018588D01*
X152739139Y-86987695D01*
X152753318Y-86963138D01*
X152772101Y-86893037D01*
X152775500Y-86888607D01*
X152775500Y-86793994D01*
X152774672Y-86791556D01*
X152762102Y-86744644D01*
X152753318Y-86711862D01*
X152753317Y-86711861D01*
X152753317Y-86711859D01*
X152750163Y-86706397D01*
X152734080Y-86678540D01*
X152710464Y-86637637D01*
X152649862Y-86577035D01*
X152597506Y-86546807D01*
X152583133Y-86534202D01*
X152579920Y-86530015D01*
X152570215Y-86493790D01*
X152588966Y-86461315D01*
X152589541Y-86460873D01*
X152589894Y-86460604D01*
X152619694Y-86450500D01*
X152628993Y-86450500D01*
X152764328Y-86423580D01*
X152891811Y-86370775D01*
X153006542Y-86294114D01*
X153104114Y-86196542D01*
X153180775Y-86081811D01*
X153200918Y-86033177D01*
X153211533Y-86017289D01*
X153216063Y-86012760D01*
X153250708Y-85998405D01*
X153283480Y-86010974D01*
X153284936Y-86012282D01*
X153294444Y-86025721D01*
X153295076Y-86025357D01*
X153309319Y-86050026D01*
X153315558Y-86068886D01*
X153315584Y-86069112D01*
X153316440Y-86077130D01*
X153317051Y-86081773D01*
X153317097Y-86082167D01*
X153316290Y-86085001D01*
X153310858Y-86112307D01*
X153296689Y-86136847D01*
X153296680Y-86136864D01*
X153296678Y-86136870D01*
X153274500Y-86219639D01*
X153274500Y-86305358D01*
X153295029Y-86381975D01*
X153295031Y-86381979D01*
X153296681Y-86388136D01*
X153296682Y-86388140D01*
X153333651Y-86452170D01*
X153333884Y-86452574D01*
X153333898Y-86452599D01*
X153339532Y-86462358D01*
X153339534Y-86462360D01*
X153339535Y-86462362D01*
X153400138Y-86522965D01*
X153400141Y-86522966D01*
X153400144Y-86522969D01*
X153419504Y-86534147D01*
X153419508Y-86534148D01*
X153474359Y-86565817D01*
X153474360Y-86565817D01*
X153474362Y-86565818D01*
X153498299Y-86572232D01*
X153539651Y-86583312D01*
X153554046Y-86587169D01*
X153556493Y-86588000D01*
X153642856Y-86588000D01*
X153649650Y-86588000D01*
X153655535Y-86584601D01*
X153725638Y-86565818D01*
X153799862Y-86522965D01*
X153860465Y-86462362D01*
X153903318Y-86388138D01*
X153922101Y-86318035D01*
X153925500Y-86312149D01*
X153925500Y-86218995D01*
X153924673Y-86216561D01*
X153903318Y-86136863D01*
X153903318Y-86136862D01*
X153890949Y-86115440D01*
X153884803Y-86097333D01*
X153884672Y-86096339D01*
X153882994Y-86083588D01*
X153889139Y-86052696D01*
X153903318Y-86028138D01*
X153922101Y-85958035D01*
X153925500Y-85952149D01*
X153925500Y-85858993D01*
X153924669Y-85856547D01*
X153903418Y-85777238D01*
X153903324Y-85776877D01*
X153903317Y-85776859D01*
X153866088Y-85712377D01*
X153860468Y-85702643D01*
X153860467Y-85702642D01*
X153860465Y-85702638D01*
X153799862Y-85642035D01*
X153784866Y-85633377D01*
X153784865Y-85633376D01*
X153725640Y-85599182D01*
X153725612Y-85599170D01*
X153725216Y-85599068D01*
X153642859Y-85577000D01*
X153642856Y-85577000D01*
X153642853Y-85577000D01*
X153557147Y-85577000D01*
X153557144Y-85577000D01*
X153557141Y-85577000D01*
X153474782Y-85599068D01*
X153474388Y-85599170D01*
X153474358Y-85599182D01*
X153398231Y-85643135D01*
X153395573Y-85646599D01*
X153351040Y-85691132D01*
X153335144Y-85701754D01*
X153330270Y-85703773D01*
X153292767Y-85703774D01*
X153266249Y-85677256D01*
X153264741Y-85673616D01*
X153264227Y-85672374D01*
X153260500Y-85653629D01*
X153260500Y-85009247D01*
X153264227Y-84990502D01*
X153267083Y-84983606D01*
X153293594Y-84957088D01*
X153300502Y-84954226D01*
X153319247Y-84950500D01*
X153886907Y-84950500D01*
X153905658Y-84954230D01*
X153922297Y-84961122D01*
X153938194Y-84971744D01*
X155028255Y-86061805D01*
X155038876Y-86077699D01*
X155040939Y-86082679D01*
X155045770Y-86094340D01*
X155049500Y-86113093D01*
X155049500Y-86680752D01*
X155045771Y-86699503D01*
X155042916Y-86706396D01*
X155016398Y-86732914D01*
X155009503Y-86735770D01*
X154990753Y-86739500D01*
X154180997Y-86739500D01*
X154045672Y-86766418D01*
X153918191Y-86819222D01*
X153803460Y-86895882D01*
X153705882Y-86993460D01*
X153629222Y-87108192D01*
X153623498Y-87122011D01*
X153612882Y-87137902D01*
X153609153Y-87141632D01*
X153574507Y-87155988D01*
X153539856Y-87141641D01*
X153525500Y-87106995D01*
X153525500Y-87036492D01*
X153524669Y-87034048D01*
X153520236Y-87017500D01*
X153503318Y-86954362D01*
X153503317Y-86954361D01*
X153503317Y-86954359D01*
X153465890Y-86889535D01*
X153460465Y-86880138D01*
X153399862Y-86819535D01*
X153399858Y-86819532D01*
X153399329Y-86819226D01*
X153399329Y-86819227D01*
X153325640Y-86776682D01*
X153325612Y-86776670D01*
X153325216Y-86776568D01*
X153242859Y-86754500D01*
X153242856Y-86754500D01*
X153242853Y-86754500D01*
X153157147Y-86754500D01*
X153157144Y-86754500D01*
X153157141Y-86754500D01*
X153074782Y-86776568D01*
X153074388Y-86776670D01*
X153074358Y-86776682D01*
X152998231Y-86820635D01*
X152995573Y-86824099D01*
X152944099Y-86875573D01*
X152940635Y-86878231D01*
X152896682Y-86954358D01*
X152896670Y-86954388D01*
X152896568Y-86954782D01*
X152874500Y-87037139D01*
X152874500Y-87122858D01*
X152896568Y-87205216D01*
X152896670Y-87205612D01*
X152896682Y-87205640D01*
X152935651Y-87273136D01*
X152935652Y-87273136D01*
X152939535Y-87279862D01*
X153000138Y-87340465D01*
X153012084Y-87347362D01*
X153074359Y-87383317D01*
X153074361Y-87383317D01*
X153074362Y-87383318D01*
X153126779Y-87397363D01*
X153154056Y-87404671D01*
X153156494Y-87405500D01*
X153242856Y-87405500D01*
X153249650Y-87405500D01*
X153255535Y-87402101D01*
X153325638Y-87383318D01*
X153399862Y-87340465D01*
X153460465Y-87279862D01*
X153470690Y-87262150D01*
X153483297Y-87247775D01*
X153487067Y-87244881D01*
X153523292Y-87235178D01*
X153555770Y-87253931D01*
X153565474Y-87290156D01*
X153564953Y-87293317D01*
X153549733Y-87369839D01*
X153549535Y-87370718D01*
X153549500Y-87371007D01*
X153549500Y-87509001D01*
X153576418Y-87644326D01*
X153628414Y-87769856D01*
X153628415Y-87769856D01*
X153629225Y-87771811D01*
X153644291Y-87794359D01*
X153705882Y-87886538D01*
X153803460Y-87984116D01*
X153870397Y-88028842D01*
X153883915Y-88042360D01*
X153888060Y-88048563D01*
X153895379Y-88085341D01*
X153894953Y-88087484D01*
X153874121Y-88118669D01*
X153874116Y-88118672D01*
X153803460Y-88165882D01*
X153705882Y-88263460D01*
X153629222Y-88378192D01*
X153623498Y-88392011D01*
X153612882Y-88407902D01*
X153609153Y-88411632D01*
X153574507Y-88425988D01*
X153539856Y-88411641D01*
X153525500Y-88376995D01*
X153525500Y-88306493D01*
X153524669Y-88304046D01*
X153520812Y-88289651D01*
X153503318Y-88224362D01*
X153503317Y-88224361D01*
X153503317Y-88224359D01*
X153469555Y-88165883D01*
X153463642Y-88155641D01*
X153460469Y-88150144D01*
X153460466Y-88150141D01*
X153460465Y-88150138D01*
X153399862Y-88089535D01*
X153383108Y-88079862D01*
X153383107Y-88079861D01*
X153325640Y-88046682D01*
X153325612Y-88046670D01*
X153325216Y-88046568D01*
X153242859Y-88024500D01*
X153242856Y-88024500D01*
X153242853Y-88024500D01*
X153157147Y-88024500D01*
X153157144Y-88024500D01*
X153157141Y-88024500D01*
X153074782Y-88046568D01*
X153074388Y-88046670D01*
X153074358Y-88046682D01*
X152998231Y-88090635D01*
X152995573Y-88094099D01*
X152944099Y-88145573D01*
X152940635Y-88148231D01*
X152896682Y-88224358D01*
X152896670Y-88224388D01*
X152896568Y-88224782D01*
X152874500Y-88307139D01*
X152874500Y-88392858D01*
X152895037Y-88469504D01*
X152895038Y-88469507D01*
X152896681Y-88475636D01*
X152896682Y-88475640D01*
X152931259Y-88535527D01*
X152931518Y-88535977D01*
X152931521Y-88535981D01*
X152939532Y-88549858D01*
X152939534Y-88549860D01*
X152939535Y-88549862D01*
X153000138Y-88610465D01*
X153027304Y-88626149D01*
X153074359Y-88653317D01*
X153074360Y-88653317D01*
X153074362Y-88653318D01*
X153139651Y-88670812D01*
X153154046Y-88674669D01*
X153156493Y-88675500D01*
X153242856Y-88675500D01*
X153249650Y-88675500D01*
X153255535Y-88672101D01*
X153325638Y-88653318D01*
X153399862Y-88610465D01*
X153460465Y-88549862D01*
X153470690Y-88532150D01*
X153483297Y-88517775D01*
X153487067Y-88514881D01*
X153523292Y-88505178D01*
X153555770Y-88523931D01*
X153565474Y-88560156D01*
X153564953Y-88563315D01*
X153561608Y-88580135D01*
X153561608Y-88580137D01*
X153555576Y-88610464D01*
X153549501Y-88641008D01*
X153549500Y-88641011D01*
X153549500Y-88779001D01*
X153576415Y-88914311D01*
X153576422Y-88914335D01*
X153629223Y-89041808D01*
X153629225Y-89041812D01*
X153656958Y-89083318D01*
X153656959Y-89083318D01*
X153705882Y-89156538D01*
X153803459Y-89254115D01*
X153870397Y-89298842D01*
X153883915Y-89312360D01*
X153888060Y-89318563D01*
X153895379Y-89355341D01*
X153894953Y-89357484D01*
X153874121Y-89388669D01*
X153874116Y-89388672D01*
X153803460Y-89435882D01*
X153705882Y-89533460D01*
X153629222Y-89648192D01*
X153623498Y-89662011D01*
X153612882Y-89677902D01*
X153609153Y-89681632D01*
X153574507Y-89695988D01*
X153539856Y-89681641D01*
X153525500Y-89646995D01*
X153525500Y-89576495D01*
X153524673Y-89574061D01*
X153504658Y-89499363D01*
X153503318Y-89494362D01*
X153503317Y-89494361D01*
X153503317Y-89494359D01*
X153503316Y-89494358D01*
X153469555Y-89435883D01*
X153463351Y-89425137D01*
X153460469Y-89420144D01*
X153460466Y-89420141D01*
X153460465Y-89420138D01*
X153399862Y-89359535D01*
X153391245Y-89354560D01*
X153391244Y-89354559D01*
X153325640Y-89316682D01*
X153325612Y-89316670D01*
X153325216Y-89316568D01*
X153242859Y-89294500D01*
X153242856Y-89294500D01*
X153242853Y-89294500D01*
X153157147Y-89294500D01*
X153157144Y-89294500D01*
X153157141Y-89294500D01*
X153074782Y-89316568D01*
X153074388Y-89316670D01*
X153074358Y-89316682D01*
X152998231Y-89360635D01*
X152995573Y-89364099D01*
X152944099Y-89415573D01*
X152940635Y-89418231D01*
X152896682Y-89494358D01*
X152896670Y-89494388D01*
X152896568Y-89494782D01*
X152874500Y-89577139D01*
X152874500Y-89662858D01*
X152895048Y-89739545D01*
X152895049Y-89739548D01*
X152896681Y-89745636D01*
X152896682Y-89745640D01*
X152928147Y-89800137D01*
X152939535Y-89819862D01*
X153000138Y-89880465D01*
X153011774Y-89887183D01*
X153074359Y-89923317D01*
X153074361Y-89923317D01*
X153074362Y-89923318D01*
X153139651Y-89940812D01*
X153154047Y-89944669D01*
X153156493Y-89945500D01*
X153242856Y-89945500D01*
X153249650Y-89945500D01*
X153255535Y-89942101D01*
X153325638Y-89923318D01*
X153399862Y-89880465D01*
X153460465Y-89819862D01*
X153470690Y-89802150D01*
X153483297Y-89787775D01*
X153487067Y-89784881D01*
X153523292Y-89775178D01*
X153555770Y-89793931D01*
X153565474Y-89830156D01*
X153564953Y-89833316D01*
X153556790Y-89874358D01*
X153555576Y-89880464D01*
X153549501Y-89911008D01*
X153549500Y-89911011D01*
X153549500Y-90049001D01*
X153576418Y-90184326D01*
X153624591Y-90300627D01*
X153624596Y-90300636D01*
X153625707Y-90303318D01*
X153629225Y-90311811D01*
X153638372Y-90325500D01*
X153639433Y-90327089D01*
X153639436Y-90327093D01*
X153705882Y-90426538D01*
X153803460Y-90524116D01*
X153870397Y-90568842D01*
X153883915Y-90582360D01*
X153888060Y-90588563D01*
X153895379Y-90625341D01*
X153894953Y-90627484D01*
X153874121Y-90658669D01*
X153874116Y-90658672D01*
X153803460Y-90705882D01*
X153705882Y-90803460D01*
X153629222Y-90918192D01*
X153623498Y-90932011D01*
X153612877Y-90947906D01*
X153609148Y-90951635D01*
X153574500Y-90965987D01*
X153539852Y-90951635D01*
X153525500Y-90916987D01*
X153525500Y-90846491D01*
X153524666Y-90844034D01*
X153511978Y-90796681D01*
X153503318Y-90764362D01*
X153503317Y-90764361D01*
X153503317Y-90764359D01*
X153500092Y-90758774D01*
X153494824Y-90749649D01*
X153460464Y-90690137D01*
X153399862Y-90629535D01*
X153399858Y-90629533D01*
X153399856Y-90629531D01*
X153325640Y-90586682D01*
X153325612Y-90586670D01*
X153325216Y-90586568D01*
X153242859Y-90564500D01*
X153242856Y-90564500D01*
X153242853Y-90564500D01*
X153157147Y-90564500D01*
X153157144Y-90564500D01*
X153157141Y-90564500D01*
X153074782Y-90586568D01*
X153074388Y-90586670D01*
X153074358Y-90586682D01*
X152998231Y-90630635D01*
X152995573Y-90634099D01*
X152944099Y-90685573D01*
X152940635Y-90688231D01*
X152896682Y-90764358D01*
X152896670Y-90764388D01*
X152896568Y-90764782D01*
X152874500Y-90847139D01*
X152874500Y-90932858D01*
X152895037Y-91009504D01*
X152895038Y-91009507D01*
X152896681Y-91015636D01*
X152896682Y-91015640D01*
X152931259Y-91075527D01*
X152931518Y-91075977D01*
X152931521Y-91075981D01*
X152939532Y-91089858D01*
X152939534Y-91089860D01*
X152939535Y-91089862D01*
X153000138Y-91150465D01*
X153027304Y-91166149D01*
X153074359Y-91193317D01*
X153074360Y-91193317D01*
X153074362Y-91193318D01*
X153139651Y-91210812D01*
X153154046Y-91214669D01*
X153156493Y-91215500D01*
X153242856Y-91215500D01*
X153249650Y-91215500D01*
X153255535Y-91212101D01*
X153325638Y-91193318D01*
X153326444Y-91192853D01*
X153346968Y-91181003D01*
X153399862Y-91150465D01*
X153460465Y-91089862D01*
X153470690Y-91072150D01*
X153483404Y-91062393D01*
X153489668Y-91053018D01*
X153497706Y-91051417D01*
X153500442Y-91049319D01*
X153507541Y-91049460D01*
X153526449Y-91045697D01*
X153557634Y-91066530D01*
X153564954Y-91103309D01*
X153564192Y-91107143D01*
X153564192Y-91107144D01*
X153555575Y-91150465D01*
X153549501Y-91181001D01*
X153549500Y-91181009D01*
X153549500Y-91319001D01*
X153576418Y-91454325D01*
X153626140Y-91574363D01*
X153629225Y-91581812D01*
X153648159Y-91610148D01*
X153655476Y-91646930D01*
X153654096Y-91648994D01*
X153699124Y-91689222D01*
X153704353Y-91694675D01*
X153705882Y-91696538D01*
X153803460Y-91794116D01*
X153870397Y-91838842D01*
X153883915Y-91852360D01*
X153888060Y-91858563D01*
X153895379Y-91895341D01*
X153894953Y-91897484D01*
X153874121Y-91928669D01*
X153874116Y-91928672D01*
X153803460Y-91975882D01*
X153705882Y-92073460D01*
X153629222Y-92188192D01*
X153623498Y-92202011D01*
X153612877Y-92217906D01*
X153609148Y-92221635D01*
X153574500Y-92235987D01*
X153539852Y-92221635D01*
X153525500Y-92186987D01*
X153525500Y-92116491D01*
X153524666Y-92114034D01*
X153517461Y-92087144D01*
X153503318Y-92034360D01*
X153490303Y-92011818D01*
X153463400Y-91965223D01*
X153458512Y-91953424D01*
X153454827Y-91939678D01*
X153456885Y-91908241D01*
X153458855Y-91903485D01*
X153461687Y-91897746D01*
X153490274Y-91848231D01*
X153503318Y-91825638D01*
X153522101Y-91755535D01*
X153525500Y-91749649D01*
X153525500Y-91656492D01*
X153524666Y-91654035D01*
X153516715Y-91624361D01*
X153503318Y-91574362D01*
X153503317Y-91574361D01*
X153503317Y-91574359D01*
X153460464Y-91500137D01*
X153399862Y-91439535D01*
X153399858Y-91439533D01*
X153399856Y-91439531D01*
X153325640Y-91396682D01*
X153325612Y-91396670D01*
X153325216Y-91396568D01*
X153242859Y-91374500D01*
X153242856Y-91374500D01*
X153242853Y-91374500D01*
X153157147Y-91374500D01*
X153157144Y-91374500D01*
X153157141Y-91374500D01*
X153074782Y-91396568D01*
X153074388Y-91396670D01*
X153074358Y-91396682D01*
X152998231Y-91440635D01*
X152995573Y-91444099D01*
X152944099Y-91495573D01*
X152940635Y-91498231D01*
X152896682Y-91574358D01*
X152896670Y-91574388D01*
X152896568Y-91574782D01*
X152874500Y-91657139D01*
X152874500Y-91742858D01*
X152895131Y-91819855D01*
X152895132Y-91819858D01*
X152896681Y-91825636D01*
X152896682Y-91825640D01*
X152914605Y-91856682D01*
X152915060Y-91857470D01*
X152936598Y-91894775D01*
X152941494Y-91906595D01*
X152945174Y-91920331D01*
X152943112Y-91951766D01*
X152941147Y-91956509D01*
X152938314Y-91962251D01*
X152926055Y-91983485D01*
X152896680Y-92034362D01*
X152896670Y-92034388D01*
X152896568Y-92034782D01*
X152874500Y-92117139D01*
X152874500Y-92202859D01*
X152896679Y-92285633D01*
X152909049Y-92307059D01*
X152915194Y-92325162D01*
X152917004Y-92338909D01*
X152910862Y-92369799D01*
X152908233Y-92374354D01*
X152908230Y-92374359D01*
X152896682Y-92394362D01*
X152896680Y-92394363D01*
X152896678Y-92394370D01*
X152874500Y-92477139D01*
X152874500Y-92562858D01*
X152895096Y-92639723D01*
X152895097Y-92639725D01*
X152896681Y-92645636D01*
X152896682Y-92645640D01*
X152919048Y-92684378D01*
X152919430Y-92685039D01*
X152939531Y-92719856D01*
X152939533Y-92719858D01*
X152939535Y-92719862D01*
X153000138Y-92780465D01*
X153027304Y-92796149D01*
X153074359Y-92823317D01*
X153074361Y-92823317D01*
X153074362Y-92823318D01*
X153126410Y-92837264D01*
X153154051Y-92844670D01*
X153156494Y-92845500D01*
X153242856Y-92845500D01*
X153249650Y-92845500D01*
X153255535Y-92842101D01*
X153325638Y-92823318D01*
X153399862Y-92780465D01*
X153460465Y-92719862D01*
X153476081Y-92692812D01*
X153488684Y-92678441D01*
X153492872Y-92675228D01*
X153529096Y-92665526D01*
X153561574Y-92684280D01*
X153563907Y-92687321D01*
X153573088Y-92707586D01*
X153576416Y-92724314D01*
X153576421Y-92724332D01*
X153629223Y-92851808D01*
X153629225Y-92851812D01*
X153658508Y-92895636D01*
X153705882Y-92966538D01*
X153803460Y-93064116D01*
X153870397Y-93108842D01*
X153883915Y-93122360D01*
X153888060Y-93128563D01*
X153895379Y-93165341D01*
X153894953Y-93167484D01*
X153874121Y-93198669D01*
X153874116Y-93198672D01*
X153803460Y-93245882D01*
X153705882Y-93343460D01*
X153629222Y-93458192D01*
X153623498Y-93472011D01*
X153612877Y-93487906D01*
X153609148Y-93491635D01*
X153574500Y-93505987D01*
X153539852Y-93491635D01*
X153525500Y-93456987D01*
X153525500Y-93386492D01*
X153524666Y-93384035D01*
X153518350Y-93360463D01*
X153503318Y-93304362D01*
X153503317Y-93304361D01*
X153503317Y-93304359D01*
X153469555Y-93245883D01*
X153469554Y-93245881D01*
X153460469Y-93230144D01*
X153460466Y-93230141D01*
X153460465Y-93230138D01*
X153399862Y-93169535D01*
X153391245Y-93164560D01*
X153391244Y-93164559D01*
X153325640Y-93126682D01*
X153325612Y-93126670D01*
X153325216Y-93126568D01*
X153242859Y-93104500D01*
X153242856Y-93104500D01*
X153242853Y-93104500D01*
X153157147Y-93104500D01*
X153157144Y-93104500D01*
X153157141Y-93104500D01*
X153074782Y-93126568D01*
X153074388Y-93126670D01*
X153074358Y-93126682D01*
X152998231Y-93170635D01*
X152995573Y-93174099D01*
X152944099Y-93225573D01*
X152940635Y-93228231D01*
X152896682Y-93304358D01*
X152896670Y-93304388D01*
X152896568Y-93304782D01*
X152874500Y-93387139D01*
X152874500Y-93472859D01*
X152896679Y-93555634D01*
X152904703Y-93569531D01*
X152907492Y-93574362D01*
X152909052Y-93577064D01*
X152915194Y-93595163D01*
X152917004Y-93608912D01*
X152910858Y-93639807D01*
X152896689Y-93664347D01*
X152896680Y-93664364D01*
X152896678Y-93664370D01*
X152874500Y-93747139D01*
X152874500Y-93832858D01*
X152895037Y-93909504D01*
X152895038Y-93909507D01*
X152896681Y-93915636D01*
X152896682Y-93915640D01*
X152931243Y-93975500D01*
X152939535Y-93989862D01*
X153000138Y-94050465D01*
X153027304Y-94066149D01*
X153074359Y-94093317D01*
X153074360Y-94093317D01*
X153074361Y-94093317D01*
X153074362Y-94093318D01*
X153099815Y-94100138D01*
X153154056Y-94114671D01*
X153156494Y-94115500D01*
X153242856Y-94115500D01*
X153248772Y-94115500D01*
X153253223Y-94112782D01*
X153254357Y-94112417D01*
X153325638Y-94093318D01*
X153326444Y-94092853D01*
X153336030Y-94087318D01*
X153399862Y-94050465D01*
X153460465Y-93989862D01*
X153476081Y-93962812D01*
X153488684Y-93948441D01*
X153492872Y-93945228D01*
X153529096Y-93935526D01*
X153561574Y-93954280D01*
X153563907Y-93957321D01*
X153573088Y-93977586D01*
X153576416Y-93994314D01*
X153576422Y-93994336D01*
X153626610Y-94115501D01*
X153629220Y-94121801D01*
X153629225Y-94121811D01*
X153655052Y-94160464D01*
X153705882Y-94236538D01*
X153803460Y-94334116D01*
X153870397Y-94378842D01*
X153883915Y-94392360D01*
X153888060Y-94398563D01*
X153895379Y-94435341D01*
X153894953Y-94437484D01*
X153874121Y-94468669D01*
X153874116Y-94468672D01*
X153803460Y-94515882D01*
X153705884Y-94613459D01*
X153705883Y-94613459D01*
X153629222Y-94728192D01*
X153623498Y-94742011D01*
X153612877Y-94757906D01*
X153609148Y-94761635D01*
X153574500Y-94775987D01*
X153539852Y-94761635D01*
X153525500Y-94726987D01*
X153525500Y-94656492D01*
X153524668Y-94654042D01*
X153510302Y-94600428D01*
X153503318Y-94574362D01*
X153503317Y-94574360D01*
X153503317Y-94574359D01*
X153460464Y-94500137D01*
X153399862Y-94439535D01*
X153399858Y-94439533D01*
X153399856Y-94439531D01*
X153325640Y-94396682D01*
X153325612Y-94396670D01*
X153325216Y-94396568D01*
X153242859Y-94374500D01*
X153242856Y-94374500D01*
X153242853Y-94374500D01*
X153157147Y-94374500D01*
X153157144Y-94374500D01*
X153157141Y-94374500D01*
X153074782Y-94396568D01*
X153074388Y-94396670D01*
X153074358Y-94396682D01*
X152998231Y-94440635D01*
X152995573Y-94444099D01*
X152944099Y-94495573D01*
X152940636Y-94498230D01*
X152896682Y-94574357D01*
X152895013Y-94580589D01*
X152895012Y-94580593D01*
X152892220Y-94591012D01*
X152883761Y-94608162D01*
X152879219Y-94614080D01*
X152846751Y-94632827D01*
X152846182Y-94632902D01*
X152815274Y-94626754D01*
X152813300Y-94625614D01*
X152803157Y-94617830D01*
X152774865Y-94589538D01*
X152774862Y-94589535D01*
X152774858Y-94589533D01*
X152774856Y-94589531D01*
X152700640Y-94546682D01*
X152700612Y-94546670D01*
X152700216Y-94546568D01*
X152617859Y-94524500D01*
X152617856Y-94524500D01*
X152617853Y-94524500D01*
X152532147Y-94524500D01*
X152532144Y-94524500D01*
X152532141Y-94524500D01*
X152449782Y-94546568D01*
X152449388Y-94546670D01*
X152449358Y-94546682D01*
X152373231Y-94590635D01*
X152370573Y-94594099D01*
X152319099Y-94645573D01*
X152315635Y-94648231D01*
X152271682Y-94724358D01*
X152271670Y-94724388D01*
X152271568Y-94724782D01*
X152249500Y-94807139D01*
X152249500Y-94892856D01*
X152249499Y-94892858D01*
X152271568Y-94975216D01*
X152271670Y-94975612D01*
X152271680Y-94975636D01*
X152271681Y-94975639D01*
X152271682Y-94975640D01*
X152312698Y-95046681D01*
X152314535Y-95049862D01*
X152375138Y-95110465D01*
X152401178Y-95125499D01*
X152449359Y-95153317D01*
X152449360Y-95153317D01*
X152449362Y-95153318D01*
X152514651Y-95170812D01*
X152529046Y-95174669D01*
X152531493Y-95175500D01*
X152617856Y-95175500D01*
X152624650Y-95175500D01*
X152630535Y-95172101D01*
X152700638Y-95153318D01*
X152774862Y-95110465D01*
X152835465Y-95049862D01*
X152878318Y-94975638D01*
X152879091Y-94972749D01*
X152882780Y-94958986D01*
X152891235Y-94941840D01*
X152895775Y-94935923D01*
X152928245Y-94917172D01*
X152928818Y-94917096D01*
X152959722Y-94923243D01*
X152961698Y-94924384D01*
X152971841Y-94932168D01*
X152985648Y-94945975D01*
X153000000Y-94980623D01*
X153000000Y-95325500D01*
X152985648Y-95360148D01*
X152951000Y-95374500D01*
X152877141Y-95374500D01*
X152794368Y-95396678D01*
X152794364Y-95396680D01*
X152794347Y-95396689D01*
X152772940Y-95409049D01*
X152754833Y-95415195D01*
X152741086Y-95417004D01*
X152710194Y-95410859D01*
X152685633Y-95396679D01*
X152602859Y-95374500D01*
X152602856Y-95374500D01*
X152602853Y-95374500D01*
X152517147Y-95374500D01*
X152517144Y-95374500D01*
X152517141Y-95374500D01*
X152434782Y-95396568D01*
X152434388Y-95396670D01*
X152434358Y-95396682D01*
X152358231Y-95440635D01*
X152355573Y-95444099D01*
X152304099Y-95495573D01*
X152300635Y-95498231D01*
X152256682Y-95574358D01*
X152256670Y-95574388D01*
X152256568Y-95574782D01*
X152234500Y-95657139D01*
X152234500Y-95742858D01*
X152256568Y-95825216D01*
X152256670Y-95825612D01*
X152256682Y-95825640D01*
X152299531Y-95899856D01*
X152299533Y-95899858D01*
X152299535Y-95899862D01*
X152360138Y-95960465D01*
X152360142Y-95960467D01*
X152360143Y-95960468D01*
X152387180Y-95976078D01*
X152401555Y-95988685D01*
X152404766Y-95992870D01*
X152414472Y-96029096D01*
X152395719Y-96061573D01*
X152395717Y-96061575D01*
X152392676Y-96063908D01*
X152372411Y-96073089D01*
X152355693Y-96076414D01*
X152355679Y-96076417D01*
X152355678Y-96076418D01*
X152355670Y-96076420D01*
X152355667Y-96076421D01*
X152355664Y-96076422D01*
X152228189Y-96129224D01*
X152113460Y-96205882D01*
X152015882Y-96303460D01*
X151971157Y-96370398D01*
X151957635Y-96383919D01*
X151951432Y-96388063D01*
X151914663Y-96395379D01*
X151912519Y-96394953D01*
X151881332Y-96374124D01*
X151834116Y-96303460D01*
X151736539Y-96205883D01*
X151668074Y-96160137D01*
X151650821Y-96134316D01*
X151624796Y-96131066D01*
X151621834Y-96129240D01*
X151621400Y-96128950D01*
X151619570Y-96128296D01*
X151607989Y-96123499D01*
X151592094Y-96112878D01*
X151588364Y-96109148D01*
X151574012Y-96074500D01*
X151588364Y-96039852D01*
X151623012Y-96025500D01*
X151699650Y-96025500D01*
X151705535Y-96022101D01*
X151775638Y-96003318D01*
X151849862Y-95960465D01*
X151910465Y-95899862D01*
X151953318Y-95825638D01*
X151972101Y-95755535D01*
X151975500Y-95749649D01*
X151975500Y-95656493D01*
X151974669Y-95654047D01*
X151953418Y-95574737D01*
X151953325Y-95574381D01*
X151953318Y-95574363D01*
X151953317Y-95574359D01*
X151914162Y-95506542D01*
X151910465Y-95500138D01*
X151910463Y-95500136D01*
X151910462Y-95500134D01*
X151849863Y-95439536D01*
X151849862Y-95439535D01*
X151822937Y-95423990D01*
X151822371Y-95423663D01*
X151775640Y-95396682D01*
X151775636Y-95396681D01*
X151769623Y-95395070D01*
X151769622Y-95395069D01*
X151692859Y-95374500D01*
X151692856Y-95374500D01*
X151692853Y-95374500D01*
X151607147Y-95374500D01*
X151607144Y-95374500D01*
X151607141Y-95374500D01*
X151524368Y-95396678D01*
X151524364Y-95396680D01*
X151524347Y-95396689D01*
X151502940Y-95409049D01*
X151484833Y-95415195D01*
X151471086Y-95417004D01*
X151440194Y-95410859D01*
X151415633Y-95396679D01*
X151332859Y-95374500D01*
X151332856Y-95374500D01*
X151332853Y-95374500D01*
X151247147Y-95374500D01*
X151247144Y-95374500D01*
X151247141Y-95374500D01*
X151164782Y-95396568D01*
X151164388Y-95396670D01*
X151164358Y-95396682D01*
X151088231Y-95440635D01*
X151085573Y-95444099D01*
X151034099Y-95495573D01*
X151030635Y-95498231D01*
X150986682Y-95574358D01*
X150986670Y-95574388D01*
X150986568Y-95574782D01*
X150964500Y-95657139D01*
X150964500Y-95742858D01*
X150986568Y-95825216D01*
X150986670Y-95825612D01*
X150986682Y-95825640D01*
X151029531Y-95899856D01*
X151029533Y-95899858D01*
X151029535Y-95899862D01*
X151090138Y-95960465D01*
X151090142Y-95960467D01*
X151090143Y-95960468D01*
X151117180Y-95976078D01*
X151131555Y-95988685D01*
X151134766Y-95992870D01*
X151144472Y-96029096D01*
X151125719Y-96061573D01*
X151125717Y-96061575D01*
X151122676Y-96063908D01*
X151102411Y-96073089D01*
X151085693Y-96076414D01*
X151085679Y-96076417D01*
X151085678Y-96076418D01*
X151085670Y-96076420D01*
X151085667Y-96076421D01*
X151085664Y-96076422D01*
X150958189Y-96129224D01*
X150843460Y-96205882D01*
X150745882Y-96303460D01*
X150701157Y-96370398D01*
X150687635Y-96383919D01*
X150681432Y-96388063D01*
X150644663Y-96395379D01*
X150642519Y-96394953D01*
X150611332Y-96374124D01*
X150564116Y-96303460D01*
X150466539Y-96205883D01*
X150398074Y-96160137D01*
X150380821Y-96134316D01*
X150354796Y-96131066D01*
X150351834Y-96129240D01*
X150351400Y-96128950D01*
X150349570Y-96128296D01*
X150337989Y-96123499D01*
X150322094Y-96112878D01*
X150318364Y-96109148D01*
X150304012Y-96074500D01*
X150318364Y-96039852D01*
X150353012Y-96025500D01*
X150429650Y-96025500D01*
X150435535Y-96022101D01*
X150505638Y-96003318D01*
X150579862Y-95960465D01*
X150640465Y-95899862D01*
X150683318Y-95825638D01*
X150702101Y-95755535D01*
X150705500Y-95749649D01*
X150705500Y-95656493D01*
X150704669Y-95654047D01*
X150683418Y-95574737D01*
X150683325Y-95574381D01*
X150683318Y-95574363D01*
X150683317Y-95574359D01*
X150644162Y-95506542D01*
X150640465Y-95500138D01*
X150640463Y-95500136D01*
X150640462Y-95500134D01*
X150579863Y-95439536D01*
X150579862Y-95439535D01*
X150552937Y-95423990D01*
X150552371Y-95423663D01*
X150505640Y-95396682D01*
X150505636Y-95396681D01*
X150499623Y-95395070D01*
X150499622Y-95395069D01*
X150422859Y-95374500D01*
X150422856Y-95374500D01*
X150422853Y-95374500D01*
X150337147Y-95374500D01*
X150337144Y-95374500D01*
X150337141Y-95374500D01*
X150254368Y-95396678D01*
X150254364Y-95396680D01*
X150254347Y-95396689D01*
X150232940Y-95409049D01*
X150214833Y-95415195D01*
X150201086Y-95417004D01*
X150170194Y-95410859D01*
X150145633Y-95396679D01*
X150062859Y-95374500D01*
X150062856Y-95374500D01*
X150062853Y-95374500D01*
X149977147Y-95374500D01*
X149977144Y-95374500D01*
X149977141Y-95374500D01*
X149894782Y-95396568D01*
X149894388Y-95396670D01*
X149894358Y-95396682D01*
X149818231Y-95440635D01*
X149815573Y-95444099D01*
X149764099Y-95495573D01*
X149760635Y-95498231D01*
X149716682Y-95574358D01*
X149716670Y-95574388D01*
X149716568Y-95574782D01*
X149694500Y-95657139D01*
X149694500Y-95742858D01*
X149716568Y-95825216D01*
X149716670Y-95825612D01*
X149716682Y-95825640D01*
X149759531Y-95899856D01*
X149759533Y-95899858D01*
X149759535Y-95899862D01*
X149820138Y-95960465D01*
X149820142Y-95960467D01*
X149820143Y-95960468D01*
X149847180Y-95976078D01*
X149861555Y-95988685D01*
X149864766Y-95992870D01*
X149874472Y-96029096D01*
X149855719Y-96061573D01*
X149855717Y-96061575D01*
X149852676Y-96063908D01*
X149832411Y-96073089D01*
X149815693Y-96076414D01*
X149815679Y-96076417D01*
X149815678Y-96076418D01*
X149815670Y-96076420D01*
X149815667Y-96076421D01*
X149815664Y-96076422D01*
X149688189Y-96129224D01*
X149573460Y-96205882D01*
X149475882Y-96303460D01*
X149431157Y-96370398D01*
X149417635Y-96383919D01*
X149411432Y-96388063D01*
X149374663Y-96395379D01*
X149372519Y-96394953D01*
X149341332Y-96374124D01*
X149294116Y-96303460D01*
X149196539Y-96205883D01*
X149128074Y-96160137D01*
X149110821Y-96134316D01*
X149084796Y-96131066D01*
X149081834Y-96129240D01*
X149081400Y-96128950D01*
X149079570Y-96128296D01*
X149067989Y-96123499D01*
X149052094Y-96112878D01*
X149048364Y-96109148D01*
X149034012Y-96074500D01*
X149048364Y-96039852D01*
X149083012Y-96025500D01*
X149159650Y-96025500D01*
X149165535Y-96022101D01*
X149235638Y-96003318D01*
X149309862Y-95960465D01*
X149370465Y-95899862D01*
X149413318Y-95825638D01*
X149432101Y-95755535D01*
X149435500Y-95749649D01*
X149435500Y-95656493D01*
X149434669Y-95654047D01*
X149413418Y-95574737D01*
X149413325Y-95574381D01*
X149413318Y-95574363D01*
X149413317Y-95574359D01*
X149374162Y-95506542D01*
X149370465Y-95500138D01*
X149370463Y-95500136D01*
X149370462Y-95500134D01*
X149309863Y-95439536D01*
X149309862Y-95439535D01*
X149282937Y-95423990D01*
X149282371Y-95423663D01*
X149235640Y-95396682D01*
X149235636Y-95396681D01*
X149229623Y-95395070D01*
X149229622Y-95395069D01*
X149152859Y-95374500D01*
X149152856Y-95374500D01*
X149152853Y-95374500D01*
X149067147Y-95374500D01*
X149067144Y-95374500D01*
X149067141Y-95374500D01*
X148984782Y-95396568D01*
X148984388Y-95396670D01*
X148984358Y-95396682D01*
X148908231Y-95440635D01*
X148905573Y-95444099D01*
X148854099Y-95495573D01*
X148850635Y-95498231D01*
X148806682Y-95574358D01*
X148806670Y-95574388D01*
X148806568Y-95574782D01*
X148784500Y-95657139D01*
X148784500Y-95742858D01*
X148806568Y-95825216D01*
X148806670Y-95825612D01*
X148806682Y-95825640D01*
X148849531Y-95899856D01*
X148849533Y-95899858D01*
X148849535Y-95899862D01*
X148910138Y-95960465D01*
X148910141Y-95960466D01*
X148910144Y-95960469D01*
X148927847Y-95970689D01*
X148942227Y-95983301D01*
X148945119Y-95987071D01*
X148954821Y-96023297D01*
X148936065Y-96055773D01*
X148899839Y-96065475D01*
X148896681Y-96064953D01*
X148818996Y-96049500D01*
X148818993Y-96049500D01*
X148681007Y-96049500D01*
X148681001Y-96049500D01*
X148680997Y-96049500D01*
X148545672Y-96076418D01*
X148418191Y-96129222D01*
X148303460Y-96205882D01*
X148205882Y-96303460D01*
X148161157Y-96370398D01*
X148147635Y-96383919D01*
X148141432Y-96388063D01*
X148104663Y-96395379D01*
X148102519Y-96394953D01*
X148071332Y-96374124D01*
X148024116Y-96303460D01*
X147926539Y-96205883D01*
X147858074Y-96160137D01*
X147840821Y-96134316D01*
X147814796Y-96131066D01*
X147811834Y-96129240D01*
X147811400Y-96128950D01*
X147809570Y-96128296D01*
X147797989Y-96123499D01*
X147782094Y-96112878D01*
X147778364Y-96109148D01*
X147764012Y-96074500D01*
X147778364Y-96039852D01*
X147813012Y-96025500D01*
X147889650Y-96025500D01*
X147895535Y-96022101D01*
X147965638Y-96003318D01*
X148039862Y-95960465D01*
X148100465Y-95899862D01*
X148143318Y-95825638D01*
X148165499Y-95742856D01*
X148165500Y-95742856D01*
X148165500Y-95683591D01*
X148165591Y-95682100D01*
X148166438Y-95680360D01*
X148169227Y-95666338D01*
X148172083Y-95659442D01*
X148180970Y-95650553D01*
X148182025Y-95648390D01*
X148183715Y-95647807D01*
X148198594Y-95632924D01*
X148199172Y-95632684D01*
X148230556Y-95630638D01*
X148231873Y-95630990D01*
X148232757Y-95631227D01*
X148244579Y-95636122D01*
X148274362Y-95653318D01*
X148322953Y-95666338D01*
X148339651Y-95670812D01*
X148354046Y-95674669D01*
X148356493Y-95675500D01*
X148442856Y-95675500D01*
X148449650Y-95675500D01*
X148455535Y-95672101D01*
X148525638Y-95653318D01*
X148599862Y-95610465D01*
X148660465Y-95549862D01*
X148703318Y-95475638D01*
X148722101Y-95405535D01*
X148725500Y-95399649D01*
X148725500Y-95306493D01*
X148724669Y-95304047D01*
X148703418Y-95224737D01*
X148703325Y-95224381D01*
X148703318Y-95224363D01*
X148703317Y-95224359D01*
X148662300Y-95153317D01*
X148660467Y-95150142D01*
X148660466Y-95150141D01*
X148660464Y-95150137D01*
X148599862Y-95089535D01*
X148599858Y-95089533D01*
X148599856Y-95089531D01*
X148525640Y-95046682D01*
X148525612Y-95046670D01*
X148525216Y-95046568D01*
X148442859Y-95024500D01*
X148442856Y-95024500D01*
X148442853Y-95024500D01*
X148357147Y-95024500D01*
X148357144Y-95024500D01*
X148357141Y-95024500D01*
X148274782Y-95046568D01*
X148274388Y-95046670D01*
X148274358Y-95046682D01*
X148198231Y-95090635D01*
X148195573Y-95094099D01*
X148144099Y-95145573D01*
X148140635Y-95148231D01*
X148096682Y-95224358D01*
X148096670Y-95224388D01*
X148096568Y-95224782D01*
X148074500Y-95307139D01*
X148074500Y-95364915D01*
X148070771Y-95383666D01*
X148067916Y-95390559D01*
X148041397Y-95417078D01*
X148041358Y-95417094D01*
X148040828Y-95417313D01*
X148009423Y-95419355D01*
X148007223Y-95418765D01*
X147995416Y-95413873D01*
X147965638Y-95396681D01*
X147965612Y-95396670D01*
X147965216Y-95396568D01*
X147882859Y-95374500D01*
X147882856Y-95374500D01*
X147882853Y-95374500D01*
X147797147Y-95374500D01*
X147797144Y-95374500D01*
X147797141Y-95374500D01*
X147714782Y-95396568D01*
X147714388Y-95396670D01*
X147714358Y-95396682D01*
X147638231Y-95440635D01*
X147635573Y-95444099D01*
X147584099Y-95495573D01*
X147580635Y-95498231D01*
X147536682Y-95574358D01*
X147536670Y-95574388D01*
X147536568Y-95574782D01*
X147514500Y-95657139D01*
X147514500Y-95742858D01*
X147536568Y-95825216D01*
X147536670Y-95825612D01*
X147536682Y-95825640D01*
X147579531Y-95899856D01*
X147579533Y-95899858D01*
X147579535Y-95899862D01*
X147640138Y-95960465D01*
X147640141Y-95960466D01*
X147640144Y-95960469D01*
X147657847Y-95970689D01*
X147672227Y-95983301D01*
X147675119Y-95987071D01*
X147684821Y-96023297D01*
X147666065Y-96055773D01*
X147629839Y-96065475D01*
X147626681Y-96064953D01*
X147548996Y-96049500D01*
X147548993Y-96049500D01*
X147411007Y-96049500D01*
X147411001Y-96049500D01*
X147410997Y-96049500D01*
X147275672Y-96076418D01*
X147148191Y-96129222D01*
X147033460Y-96205882D01*
X146935882Y-96303460D01*
X146891157Y-96370398D01*
X146877635Y-96383919D01*
X146871432Y-96388063D01*
X146834663Y-96395379D01*
X146832519Y-96394953D01*
X146801332Y-96374124D01*
X146754116Y-96303460D01*
X146656539Y-96205883D01*
X146588074Y-96160137D01*
X146570821Y-96134316D01*
X146544796Y-96131066D01*
X146541834Y-96129240D01*
X146541400Y-96128950D01*
X146539570Y-96128296D01*
X146527989Y-96123499D01*
X146512094Y-96112878D01*
X146508364Y-96109148D01*
X146494012Y-96074500D01*
X146508364Y-96039852D01*
X146543012Y-96025500D01*
X146619650Y-96025500D01*
X146625535Y-96022101D01*
X146695638Y-96003318D01*
X146769862Y-95960465D01*
X146830465Y-95899862D01*
X146873318Y-95825638D01*
X146892101Y-95755535D01*
X146895500Y-95749649D01*
X146895500Y-95656493D01*
X146894669Y-95654047D01*
X146873418Y-95574737D01*
X146873325Y-95574381D01*
X146873318Y-95574363D01*
X146873317Y-95574359D01*
X146834162Y-95506542D01*
X146830465Y-95500138D01*
X146830463Y-95500136D01*
X146830462Y-95500134D01*
X146769863Y-95439536D01*
X146769862Y-95439535D01*
X146742937Y-95423990D01*
X146742371Y-95423663D01*
X146695640Y-95396682D01*
X146695636Y-95396681D01*
X146689623Y-95395070D01*
X146689622Y-95395069D01*
X146612859Y-95374500D01*
X146612856Y-95374500D01*
X146612853Y-95374500D01*
X146527147Y-95374500D01*
X146527144Y-95374500D01*
X146527141Y-95374500D01*
X146444782Y-95396568D01*
X146444388Y-95396670D01*
X146444358Y-95396682D01*
X146368231Y-95440635D01*
X146365573Y-95444099D01*
X146314099Y-95495573D01*
X146310635Y-95498231D01*
X146266682Y-95574358D01*
X146266670Y-95574388D01*
X146266568Y-95574782D01*
X146244500Y-95657139D01*
X146244500Y-95742858D01*
X146266568Y-95825216D01*
X146266670Y-95825612D01*
X146266682Y-95825640D01*
X146309531Y-95899856D01*
X146309533Y-95899858D01*
X146309535Y-95899862D01*
X146370138Y-95960465D01*
X146370141Y-95960466D01*
X146370144Y-95960469D01*
X146387847Y-95970689D01*
X146402227Y-95983301D01*
X146405119Y-95987071D01*
X146414821Y-96023297D01*
X146396065Y-96055773D01*
X146359839Y-96065475D01*
X146356681Y-96064953D01*
X146278996Y-96049500D01*
X146278993Y-96049500D01*
X146141007Y-96049500D01*
X146141001Y-96049500D01*
X146140997Y-96049500D01*
X146005672Y-96076418D01*
X145878191Y-96129222D01*
X145763460Y-96205882D01*
X145665882Y-96303460D01*
X145621157Y-96370398D01*
X145607635Y-96383919D01*
X145601432Y-96388063D01*
X145564663Y-96395379D01*
X145562519Y-96394953D01*
X145531332Y-96374124D01*
X145484116Y-96303460D01*
X145386539Y-96205883D01*
X145318074Y-96160137D01*
X145300821Y-96134316D01*
X145274796Y-96131066D01*
X145271834Y-96129240D01*
X145271400Y-96128950D01*
X145269570Y-96128296D01*
X145257989Y-96123499D01*
X145242094Y-96112878D01*
X145238364Y-96109148D01*
X145224012Y-96074500D01*
X145238364Y-96039852D01*
X145273012Y-96025500D01*
X145349650Y-96025500D01*
X145355535Y-96022101D01*
X145425638Y-96003318D01*
X145499862Y-95960465D01*
X145560465Y-95899862D01*
X145603318Y-95825638D01*
X145622101Y-95755535D01*
X145625500Y-95749649D01*
X145625500Y-95656493D01*
X145624669Y-95654047D01*
X145603418Y-95574737D01*
X145603325Y-95574381D01*
X145603318Y-95574363D01*
X145603317Y-95574359D01*
X145564162Y-95506542D01*
X145560465Y-95500138D01*
X145560463Y-95500136D01*
X145560462Y-95500134D01*
X145499863Y-95439536D01*
X145499862Y-95439535D01*
X145472937Y-95423990D01*
X145472371Y-95423663D01*
X145425640Y-95396682D01*
X145425636Y-95396681D01*
X145419623Y-95395070D01*
X145419622Y-95395069D01*
X145342859Y-95374500D01*
X145342856Y-95374500D01*
X145342853Y-95374500D01*
X145257147Y-95374500D01*
X145257144Y-95374500D01*
X145257141Y-95374500D01*
X145174782Y-95396568D01*
X145174388Y-95396670D01*
X145174358Y-95396682D01*
X145098231Y-95440635D01*
X145095573Y-95444099D01*
X145044099Y-95495573D01*
X145040635Y-95498231D01*
X144996682Y-95574358D01*
X144996670Y-95574388D01*
X144996568Y-95574782D01*
X144974500Y-95657139D01*
X144974500Y-95742858D01*
X144996568Y-95825216D01*
X144996670Y-95825612D01*
X144996682Y-95825640D01*
X145039531Y-95899856D01*
X145039533Y-95899858D01*
X145039535Y-95899862D01*
X145100138Y-95960465D01*
X145100141Y-95960466D01*
X145100144Y-95960469D01*
X145117847Y-95970689D01*
X145132227Y-95983301D01*
X145135119Y-95987071D01*
X145144821Y-96023297D01*
X145126065Y-96055773D01*
X145089839Y-96065475D01*
X145086681Y-96064953D01*
X145008996Y-96049500D01*
X145008993Y-96049500D01*
X144871007Y-96049500D01*
X144871001Y-96049500D01*
X144870997Y-96049500D01*
X144735672Y-96076418D01*
X144608191Y-96129222D01*
X144493460Y-96205882D01*
X144395882Y-96303460D01*
X144319222Y-96418191D01*
X144266418Y-96545672D01*
X144239500Y-96680997D01*
X144239500Y-97490752D01*
X144235771Y-97509503D01*
X144232916Y-97516396D01*
X144206398Y-97542914D01*
X144199503Y-97545770D01*
X144180753Y-97549500D01*
X143613093Y-97549500D01*
X143594342Y-97545770D01*
X143577699Y-97538876D01*
X143561805Y-97528255D01*
X142471744Y-96438194D01*
X142461122Y-96422297D01*
X142454229Y-96405656D01*
X142450500Y-96386906D01*
X142450500Y-95819247D01*
X142454227Y-95800502D01*
X142457083Y-95793606D01*
X142483594Y-95767088D01*
X142490502Y-95764226D01*
X142509247Y-95760500D01*
X143318993Y-95760500D01*
X143454328Y-95733580D01*
X143581811Y-95680775D01*
X143696542Y-95604114D01*
X143794114Y-95506542D01*
X143870775Y-95391811D01*
X143923580Y-95264328D01*
X143950500Y-95128993D01*
X143950500Y-94991007D01*
X143935844Y-94917326D01*
X143935845Y-94898205D01*
X143936773Y-94893543D01*
X143957613Y-94862363D01*
X143994396Y-94855052D01*
X144025576Y-94875892D01*
X144027259Y-94878599D01*
X144039535Y-94899862D01*
X144100138Y-94960465D01*
X144126415Y-94975636D01*
X144174359Y-95003317D01*
X144174360Y-95003317D01*
X144174362Y-95003318D01*
X144235333Y-95019655D01*
X144254051Y-95024670D01*
X144256494Y-95025500D01*
X144342855Y-95025500D01*
X144342857Y-95025500D01*
X144380996Y-95015279D01*
X144402582Y-95009495D01*
X144421659Y-95008245D01*
X144435408Y-95010055D01*
X144463661Y-95023988D01*
X144500138Y-95060465D01*
X144527304Y-95076149D01*
X144574359Y-95103317D01*
X144574360Y-95103317D01*
X144574362Y-95103318D01*
X144639651Y-95120812D01*
X144654046Y-95124669D01*
X144656493Y-95125500D01*
X144742856Y-95125500D01*
X144749650Y-95125500D01*
X144755535Y-95122101D01*
X144825638Y-95103318D01*
X144899862Y-95060465D01*
X144960465Y-94999862D01*
X145003318Y-94925638D01*
X145022101Y-94855535D01*
X145025500Y-94849649D01*
X145025500Y-94756491D01*
X145024666Y-94754034D01*
X145007941Y-94691613D01*
X145005403Y-94682141D01*
X145005402Y-94682139D01*
X148624500Y-94682139D01*
X148624500Y-94767858D01*
X148635026Y-94807139D01*
X148646681Y-94850636D01*
X148646682Y-94850640D01*
X148671056Y-94892856D01*
X148671403Y-94893457D01*
X148689531Y-94924856D01*
X148689533Y-94924858D01*
X148689535Y-94924862D01*
X148750138Y-94985465D01*
X148775076Y-94999863D01*
X148824359Y-95028317D01*
X148824360Y-95028317D01*
X148824362Y-95028318D01*
X148889651Y-95045812D01*
X148904046Y-95049669D01*
X148906493Y-95050500D01*
X148992856Y-95050500D01*
X148999650Y-95050500D01*
X149005535Y-95047101D01*
X149075638Y-95028318D01*
X149149862Y-94985465D01*
X149210465Y-94924862D01*
X149253318Y-94850638D01*
X149272101Y-94780535D01*
X149275500Y-94774649D01*
X149275500Y-94681492D01*
X149274666Y-94679035D01*
X149268801Y-94657146D01*
X149253318Y-94599362D01*
X149253317Y-94599361D01*
X149253317Y-94599359D01*
X149210464Y-94525137D01*
X149149862Y-94464535D01*
X149149858Y-94464533D01*
X149149856Y-94464531D01*
X149075640Y-94421682D01*
X149075612Y-94421670D01*
X149075216Y-94421568D01*
X148992859Y-94399500D01*
X148992856Y-94399500D01*
X148992853Y-94399500D01*
X148907147Y-94399500D01*
X148907144Y-94399500D01*
X148907141Y-94399500D01*
X148824782Y-94421568D01*
X148824388Y-94421670D01*
X148824358Y-94421682D01*
X148748231Y-94465635D01*
X148745573Y-94469099D01*
X148694099Y-94520573D01*
X148690635Y-94523231D01*
X148646682Y-94599358D01*
X148646670Y-94599388D01*
X148646568Y-94599782D01*
X148624500Y-94682139D01*
X145005402Y-94682139D01*
X145003318Y-94674361D01*
X144993379Y-94657146D01*
X144960464Y-94600137D01*
X144899862Y-94539535D01*
X144899858Y-94539533D01*
X144899856Y-94539531D01*
X144825640Y-94496682D01*
X144825612Y-94496670D01*
X144825216Y-94496568D01*
X144742859Y-94474500D01*
X144742856Y-94474500D01*
X144742853Y-94474500D01*
X144657147Y-94474500D01*
X144657144Y-94474500D01*
X144657143Y-94474500D01*
X144597413Y-94490503D01*
X144578336Y-94491753D01*
X144564589Y-94489943D01*
X144536337Y-94476010D01*
X144499865Y-94439538D01*
X144499862Y-94439535D01*
X144499858Y-94439533D01*
X144499856Y-94439531D01*
X144425640Y-94396682D01*
X144425612Y-94396670D01*
X144425216Y-94396568D01*
X144342859Y-94374500D01*
X144342856Y-94374500D01*
X144342853Y-94374500D01*
X144257147Y-94374500D01*
X144257144Y-94374500D01*
X144257141Y-94374500D01*
X144174782Y-94396568D01*
X144174388Y-94396670D01*
X144174358Y-94396682D01*
X144098231Y-94440635D01*
X144095573Y-94444099D01*
X144044099Y-94495573D01*
X144040635Y-94498231D01*
X143996682Y-94574358D01*
X143996670Y-94574388D01*
X143996568Y-94574782D01*
X143974500Y-94657139D01*
X143974500Y-94722516D01*
X143970768Y-94741272D01*
X143968749Y-94746145D01*
X143942228Y-94772661D01*
X143904725Y-94772657D01*
X143878211Y-94746141D01*
X143871438Y-94729790D01*
X143871052Y-94728757D01*
X143870776Y-94728192D01*
X143870775Y-94728189D01*
X143858932Y-94710465D01*
X143818444Y-94649870D01*
X143818440Y-94649865D01*
X143818439Y-94649863D01*
X143794116Y-94613460D01*
X143794114Y-94613458D01*
X143794112Y-94613455D01*
X143696539Y-94515883D01*
X143629599Y-94471156D01*
X143616079Y-94457635D01*
X143611936Y-94451434D01*
X143604619Y-94414664D01*
X143605045Y-94412520D01*
X143625874Y-94381333D01*
X143625883Y-94381327D01*
X143634604Y-94375500D01*
X143683456Y-94342858D01*
X146174499Y-94342858D01*
X146195063Y-94419600D01*
X146195064Y-94419602D01*
X146196681Y-94425636D01*
X146196682Y-94425640D01*
X146224892Y-94474500D01*
X146225192Y-94475019D01*
X146225202Y-94475038D01*
X146239531Y-94499856D01*
X146239533Y-94499858D01*
X146239535Y-94499862D01*
X146300138Y-94560465D01*
X146326415Y-94575636D01*
X146374359Y-94603317D01*
X146374360Y-94603317D01*
X146374361Y-94603317D01*
X146374362Y-94603318D01*
X146412213Y-94613460D01*
X146454056Y-94624671D01*
X146456494Y-94625500D01*
X146542856Y-94625500D01*
X146549650Y-94625500D01*
X146555535Y-94622101D01*
X146625638Y-94603318D01*
X146699862Y-94560465D01*
X146760465Y-94499862D01*
X146803318Y-94425638D01*
X146822101Y-94355535D01*
X146825500Y-94349649D01*
X146825500Y-94256492D01*
X146824666Y-94254035D01*
X146823548Y-94249864D01*
X146813916Y-94213916D01*
X146813916Y-94213914D01*
X146807382Y-94189531D01*
X146803318Y-94174362D01*
X146803317Y-94174360D01*
X146803317Y-94174359D01*
X146779403Y-94132940D01*
X146773257Y-94114836D01*
X146772987Y-94112782D01*
X146771447Y-94101087D01*
X146777592Y-94070196D01*
X146803318Y-94025638D01*
X146822101Y-93955535D01*
X146825500Y-93949649D01*
X146825500Y-93856492D01*
X146824668Y-93854042D01*
X146811076Y-93803317D01*
X146811076Y-93803315D01*
X146803733Y-93775911D01*
X146803318Y-93774362D01*
X146803317Y-93774360D01*
X146803317Y-93774359D01*
X146779403Y-93732940D01*
X146773257Y-93714836D01*
X146771447Y-93701087D01*
X146777592Y-93670196D01*
X146803318Y-93625638D01*
X146825499Y-93542856D01*
X146825500Y-93542856D01*
X146825500Y-93482767D01*
X146825589Y-93481294D01*
X146826431Y-93479564D01*
X146829227Y-93465502D01*
X146832083Y-93458606D01*
X146840949Y-93449738D01*
X146842003Y-93447574D01*
X146843698Y-93446988D01*
X146858594Y-93432088D01*
X146865502Y-93429226D01*
X146884247Y-93425500D01*
X146915753Y-93425500D01*
X146934499Y-93429227D01*
X146941393Y-93432083D01*
X146967913Y-93458598D01*
X146970771Y-93465499D01*
X146974500Y-93484247D01*
X146974500Y-93542858D01*
X146995040Y-93619514D01*
X146995041Y-93619516D01*
X146996681Y-93625636D01*
X146996682Y-93625640D01*
X147030348Y-93683950D01*
X147030628Y-93684436D01*
X147030633Y-93684444D01*
X147039531Y-93699856D01*
X147039533Y-93699858D01*
X147039535Y-93699862D01*
X147100138Y-93760465D01*
X147124210Y-93774363D01*
X147174359Y-93803317D01*
X147174360Y-93803317D01*
X147174361Y-93803317D01*
X147174362Y-93803318D01*
X147213915Y-93813916D01*
X147254056Y-93824671D01*
X147256494Y-93825500D01*
X147257144Y-93825500D01*
X147315753Y-93825500D01*
X147334499Y-93829227D01*
X147341393Y-93832083D01*
X147367913Y-93858598D01*
X147370771Y-93865499D01*
X147374500Y-93884247D01*
X147374500Y-93915752D01*
X147370771Y-93934503D01*
X147367916Y-93941396D01*
X147341398Y-93967914D01*
X147334503Y-93970770D01*
X147315753Y-93974500D01*
X147257141Y-93974500D01*
X147174782Y-93996568D01*
X147174388Y-93996670D01*
X147174358Y-93996682D01*
X147098231Y-94040635D01*
X147095573Y-94044099D01*
X147044099Y-94095573D01*
X147040635Y-94098231D01*
X146996682Y-94174358D01*
X146996670Y-94174388D01*
X146996568Y-94174782D01*
X146974500Y-94257139D01*
X146974500Y-94342857D01*
X146974499Y-94342858D01*
X146995063Y-94419600D01*
X146995064Y-94419602D01*
X146996681Y-94425636D01*
X146996682Y-94425640D01*
X147024892Y-94474500D01*
X147025192Y-94475019D01*
X147025202Y-94475038D01*
X147039531Y-94499856D01*
X147039533Y-94499858D01*
X147039535Y-94499862D01*
X147100138Y-94560465D01*
X147126415Y-94575636D01*
X147174359Y-94603317D01*
X147174360Y-94603317D01*
X147174361Y-94603317D01*
X147174362Y-94603318D01*
X147212213Y-94613460D01*
X147254056Y-94624671D01*
X147256494Y-94625500D01*
X147342856Y-94625500D01*
X147349650Y-94625500D01*
X147355535Y-94622101D01*
X147425638Y-94603318D01*
X147425640Y-94603316D01*
X147425642Y-94603316D01*
X147467058Y-94579403D01*
X147485162Y-94573257D01*
X147498913Y-94571447D01*
X147529803Y-94577592D01*
X147574362Y-94603318D01*
X147574364Y-94603318D01*
X147574365Y-94603319D01*
X147585608Y-94606331D01*
X147612213Y-94613460D01*
X147654056Y-94624671D01*
X147656494Y-94625500D01*
X147742856Y-94625500D01*
X147749650Y-94625500D01*
X147755535Y-94622101D01*
X147825638Y-94603318D01*
X147899862Y-94560465D01*
X147960465Y-94499862D01*
X148003318Y-94425638D01*
X148025499Y-94342856D01*
X148025500Y-94342856D01*
X148025500Y-94282767D01*
X148025589Y-94281294D01*
X148026431Y-94279564D01*
X148029227Y-94265502D01*
X148032083Y-94258606D01*
X148040949Y-94249738D01*
X148042003Y-94247574D01*
X148043698Y-94246988D01*
X148058594Y-94232088D01*
X148065502Y-94229226D01*
X148084247Y-94225500D01*
X148149650Y-94225500D01*
X148155535Y-94222101D01*
X148225638Y-94203318D01*
X148299862Y-94160465D01*
X148360465Y-94099862D01*
X148393789Y-94042143D01*
X149124500Y-94042143D01*
X149124500Y-94127856D01*
X149125053Y-94129921D01*
X149125053Y-94129925D01*
X149146568Y-94210216D01*
X149146670Y-94210612D01*
X149146682Y-94210640D01*
X149189531Y-94284856D01*
X149189533Y-94284858D01*
X149189535Y-94284862D01*
X149250138Y-94345465D01*
X149263740Y-94353318D01*
X149324359Y-94388317D01*
X149324360Y-94388317D01*
X149324362Y-94388318D01*
X149383011Y-94404033D01*
X149389651Y-94405812D01*
X149404046Y-94409669D01*
X149406493Y-94410500D01*
X149407144Y-94410500D01*
X149465753Y-94410500D01*
X149484499Y-94414227D01*
X149491393Y-94417083D01*
X149517913Y-94443598D01*
X149520771Y-94450499D01*
X149524500Y-94469247D01*
X149524500Y-94492858D01*
X149545038Y-94569508D01*
X149545039Y-94569511D01*
X149546681Y-94575636D01*
X149546682Y-94575640D01*
X149580997Y-94635074D01*
X149581250Y-94635513D01*
X149581262Y-94635534D01*
X149589531Y-94649856D01*
X149589533Y-94649858D01*
X149589535Y-94649862D01*
X149650138Y-94710465D01*
X149674210Y-94724363D01*
X149724359Y-94753317D01*
X149724361Y-94753317D01*
X149724362Y-94753318D01*
X149775096Y-94766912D01*
X149804056Y-94774671D01*
X149806494Y-94775500D01*
X149892856Y-94775500D01*
X149899650Y-94775500D01*
X149905535Y-94772101D01*
X149975638Y-94753318D01*
X150049862Y-94710465D01*
X150110465Y-94649862D01*
X150153318Y-94575638D01*
X150172101Y-94505535D01*
X150175500Y-94499649D01*
X150175500Y-94406492D01*
X150174668Y-94404042D01*
X150158273Y-94342856D01*
X150153318Y-94324362D01*
X150153317Y-94324361D01*
X150153317Y-94324359D01*
X150145294Y-94310464D01*
X150124530Y-94274500D01*
X150124529Y-94274498D01*
X150110467Y-94250141D01*
X150110462Y-94250135D01*
X150049865Y-94189538D01*
X150049862Y-94189535D01*
X150049858Y-94189533D01*
X150049856Y-94189531D01*
X149975640Y-94146682D01*
X149975612Y-94146670D01*
X149975216Y-94146568D01*
X149892859Y-94124500D01*
X149892856Y-94124500D01*
X149892853Y-94124500D01*
X149834247Y-94124500D01*
X149815499Y-94120771D01*
X149808601Y-94117914D01*
X149782085Y-94091398D01*
X149779227Y-94084497D01*
X149775500Y-94065752D01*
X149775500Y-94041491D01*
X149774666Y-94039034D01*
X149763318Y-93996682D01*
X149753318Y-93959360D01*
X149725087Y-93910464D01*
X149710464Y-93885137D01*
X149649862Y-93824535D01*
X149649858Y-93824533D01*
X149649856Y-93824531D01*
X149575640Y-93781682D01*
X149575612Y-93781670D01*
X149575216Y-93781568D01*
X149492859Y-93759500D01*
X149492856Y-93759500D01*
X149492853Y-93759500D01*
X149407147Y-93759500D01*
X149407144Y-93759500D01*
X149407141Y-93759500D01*
X149324782Y-93781568D01*
X149324388Y-93781670D01*
X149324358Y-93781682D01*
X149248231Y-93825635D01*
X149245573Y-93829099D01*
X149194099Y-93880573D01*
X149190635Y-93883231D01*
X149147171Y-93958510D01*
X149147170Y-93958512D01*
X149146682Y-93959359D01*
X149146681Y-93959363D01*
X149124500Y-94042143D01*
X148393789Y-94042143D01*
X148403318Y-94025638D01*
X148422696Y-93953317D01*
X148425500Y-93942854D01*
X148425500Y-93856492D01*
X148424668Y-93854042D01*
X148411076Y-93803317D01*
X148411076Y-93803315D01*
X148403734Y-93775914D01*
X148403733Y-93775911D01*
X148403659Y-93775636D01*
X148403318Y-93774362D01*
X148403317Y-93774360D01*
X148403317Y-93774359D01*
X148362904Y-93704363D01*
X148360465Y-93700138D01*
X148317470Y-93657143D01*
X150374500Y-93657143D01*
X150374500Y-93742856D01*
X150375053Y-93744921D01*
X150375053Y-93744925D01*
X150396568Y-93825216D01*
X150396670Y-93825612D01*
X150396682Y-93825640D01*
X150430519Y-93884247D01*
X150431034Y-93885138D01*
X150439535Y-93899862D01*
X150500138Y-93960465D01*
X150500139Y-93960466D01*
X150500141Y-93960467D01*
X150510061Y-93966194D01*
X150526178Y-93975499D01*
X150574359Y-94003317D01*
X150574360Y-94003317D01*
X150574362Y-94003318D01*
X150639651Y-94020812D01*
X150654046Y-94024669D01*
X150656493Y-94025500D01*
X150657144Y-94025500D01*
X150657147Y-94025500D01*
X150665753Y-94025500D01*
X150684499Y-94029227D01*
X150691393Y-94032083D01*
X150717913Y-94058598D01*
X150720771Y-94065499D01*
X150724500Y-94084247D01*
X150724500Y-94092858D01*
X150724499Y-94092858D01*
X150746568Y-94175216D01*
X150746670Y-94175612D01*
X150746682Y-94175640D01*
X150779272Y-94232087D01*
X150781843Y-94236539D01*
X150789535Y-94249862D01*
X150850138Y-94310465D01*
X150874210Y-94324363D01*
X150924359Y-94353317D01*
X150924360Y-94353317D01*
X150924362Y-94353318D01*
X150989651Y-94370812D01*
X151004046Y-94374669D01*
X151006493Y-94375500D01*
X151092856Y-94375500D01*
X151099650Y-94375500D01*
X151105535Y-94372101D01*
X151175638Y-94353318D01*
X151249862Y-94310465D01*
X151310465Y-94249862D01*
X151353318Y-94175638D01*
X151372101Y-94105535D01*
X151375500Y-94099649D01*
X151375500Y-94006492D01*
X151374666Y-94004035D01*
X151366752Y-93974499D01*
X151353318Y-93924362D01*
X151353317Y-93924361D01*
X151353317Y-93924359D01*
X151315577Y-93858993D01*
X151310465Y-93850138D01*
X151310463Y-93850136D01*
X151310462Y-93850134D01*
X151249864Y-93789537D01*
X151249862Y-93789535D01*
X151236260Y-93781682D01*
X151175640Y-93746682D01*
X151175636Y-93746681D01*
X151169498Y-93745036D01*
X151169496Y-93745035D01*
X151092859Y-93724500D01*
X151092856Y-93724500D01*
X151092853Y-93724500D01*
X151084247Y-93724500D01*
X151065495Y-93720770D01*
X151056343Y-93716979D01*
X151031599Y-93694272D01*
X151031004Y-93693125D01*
X151025500Y-93670562D01*
X151025500Y-93657145D01*
X151017058Y-93625640D01*
X151012101Y-93607139D01*
X151924500Y-93607139D01*
X151924500Y-93692858D01*
X151945029Y-93769473D01*
X151945030Y-93769475D01*
X151946681Y-93775636D01*
X151946682Y-93775640D01*
X151983756Y-93839852D01*
X151983996Y-93840269D01*
X151984005Y-93840284D01*
X151989532Y-93849858D01*
X151989534Y-93849860D01*
X151989535Y-93849862D01*
X152050138Y-93910465D01*
X152074210Y-93924363D01*
X152124359Y-93953317D01*
X152124361Y-93953317D01*
X152124362Y-93953318D01*
X152184072Y-93969317D01*
X152204051Y-93974670D01*
X152206494Y-93975500D01*
X152292856Y-93975500D01*
X152299650Y-93975500D01*
X152305535Y-93972101D01*
X152375638Y-93953318D01*
X152449862Y-93910465D01*
X152510465Y-93849862D01*
X152553318Y-93775638D01*
X152572101Y-93705535D01*
X152575500Y-93699649D01*
X152575500Y-93606494D01*
X152574671Y-93604056D01*
X152566715Y-93574361D01*
X152553318Y-93524362D01*
X152553317Y-93524361D01*
X152553317Y-93524359D01*
X152516427Y-93460465D01*
X152510465Y-93450138D01*
X152449862Y-93389535D01*
X152445719Y-93387143D01*
X152375640Y-93346682D01*
X152375636Y-93346681D01*
X152369440Y-93345020D01*
X152369439Y-93345020D01*
X152292859Y-93324500D01*
X152292856Y-93324500D01*
X152292853Y-93324500D01*
X152207147Y-93324500D01*
X152207144Y-93324500D01*
X152207141Y-93324500D01*
X152124782Y-93346568D01*
X152124388Y-93346670D01*
X152124358Y-93346682D01*
X152048231Y-93390635D01*
X152045573Y-93394099D01*
X151994099Y-93445573D01*
X151990635Y-93448231D01*
X151946682Y-93524358D01*
X151946670Y-93524388D01*
X151946568Y-93524782D01*
X151924500Y-93607139D01*
X151012101Y-93607139D01*
X151003318Y-93574362D01*
X151003317Y-93574360D01*
X151003317Y-93574359D01*
X150974449Y-93524359D01*
X150960465Y-93500138D01*
X150899862Y-93439535D01*
X150875551Y-93425499D01*
X150825640Y-93396682D01*
X150825636Y-93396681D01*
X150819589Y-93395060D01*
X150819588Y-93395060D01*
X150742859Y-93374500D01*
X150742856Y-93374500D01*
X150742853Y-93374500D01*
X150657147Y-93374500D01*
X150657144Y-93374500D01*
X150657141Y-93374500D01*
X150574782Y-93396568D01*
X150574388Y-93396670D01*
X150574358Y-93396682D01*
X150498231Y-93440635D01*
X150495573Y-93444099D01*
X150444099Y-93495573D01*
X150440635Y-93498231D01*
X150397171Y-93573510D01*
X150397170Y-93573512D01*
X150396682Y-93574359D01*
X150396681Y-93574363D01*
X150374500Y-93657143D01*
X148317470Y-93657143D01*
X148299862Y-93639535D01*
X148296805Y-93637770D01*
X148225640Y-93596682D01*
X148225612Y-93596670D01*
X148225216Y-93596568D01*
X148142859Y-93574500D01*
X148142856Y-93574500D01*
X148142853Y-93574500D01*
X148057147Y-93574500D01*
X148057144Y-93574500D01*
X148057141Y-93574500D01*
X147980312Y-93595086D01*
X147980308Y-93595087D01*
X147974363Y-93596681D01*
X147974359Y-93596682D01*
X147932336Y-93620944D01*
X147931688Y-93621294D01*
X147930534Y-93621411D01*
X147914836Y-93626741D01*
X147901089Y-93628551D01*
X147870193Y-93622405D01*
X147843760Y-93607144D01*
X147825640Y-93596682D01*
X147825612Y-93596670D01*
X147825216Y-93596568D01*
X147742859Y-93574500D01*
X147742856Y-93574500D01*
X147742853Y-93574500D01*
X147684247Y-93574500D01*
X147665499Y-93570771D01*
X147658601Y-93567914D01*
X147632085Y-93541398D01*
X147629227Y-93534497D01*
X147625500Y-93515752D01*
X147625500Y-93484247D01*
X147629227Y-93465502D01*
X147632083Y-93458606D01*
X147658594Y-93432088D01*
X147665502Y-93429226D01*
X147684247Y-93425500D01*
X147749650Y-93425500D01*
X147755535Y-93422101D01*
X147825638Y-93403318D01*
X147825639Y-93403317D01*
X147828742Y-93402486D01*
X147828980Y-93403374D01*
X147862999Y-93403360D01*
X147869385Y-93406567D01*
X147902807Y-93426536D01*
X147960998Y-93445443D01*
X148024500Y-93455500D01*
X148275489Y-93455500D01*
X148275500Y-93455500D01*
X148307644Y-93452970D01*
X148338237Y-93448125D01*
X148342787Y-93447352D01*
X148343292Y-93447135D01*
X148343529Y-93447133D01*
X148345556Y-93446537D01*
X148345723Y-93447107D01*
X148380789Y-93446702D01*
X148389440Y-93451215D01*
X148393649Y-93453976D01*
X148400138Y-93460465D01*
X148427304Y-93476149D01*
X148431220Y-93478410D01*
X148474360Y-93503318D01*
X148539647Y-93520811D01*
X148539651Y-93520812D01*
X148554046Y-93524669D01*
X148556493Y-93525500D01*
X148642856Y-93525500D01*
X148649650Y-93525500D01*
X148655535Y-93522101D01*
X148725638Y-93503318D01*
X148763710Y-93481335D01*
X148781815Y-93475189D01*
X148793159Y-93473696D01*
X148795561Y-93473380D01*
X148820846Y-93478410D01*
X148821394Y-93477088D01*
X148824355Y-93478314D01*
X148824362Y-93478318D01*
X148889651Y-93495812D01*
X148904046Y-93499669D01*
X148906493Y-93500500D01*
X148992856Y-93500500D01*
X148999650Y-93500500D01*
X149005535Y-93497101D01*
X149075638Y-93478318D01*
X149149862Y-93435465D01*
X149210465Y-93374862D01*
X149253318Y-93300638D01*
X149272101Y-93230535D01*
X149275500Y-93224649D01*
X149275500Y-93131494D01*
X149274671Y-93129056D01*
X149268092Y-93104500D01*
X149253318Y-93049362D01*
X149253317Y-93049361D01*
X149253317Y-93049359D01*
X149224898Y-93000137D01*
X149216065Y-92984839D01*
X149210467Y-92975141D01*
X149210462Y-92975135D01*
X149205366Y-92970039D01*
X149191014Y-92935391D01*
X149193412Y-92920250D01*
X149195443Y-92914002D01*
X149205500Y-92850500D01*
X149205500Y-92739500D01*
X149202970Y-92707356D01*
X149198125Y-92676763D01*
X149197353Y-92672213D01*
X149197133Y-92671700D01*
X149197131Y-92671457D01*
X149196539Y-92669445D01*
X149197106Y-92669278D01*
X149196706Y-92634202D01*
X149200464Y-92626743D01*
X149203477Y-92621849D01*
X149210465Y-92614862D01*
X149247993Y-92549862D01*
X149253317Y-92540640D01*
X149253317Y-92540639D01*
X149253318Y-92540638D01*
X149272101Y-92470535D01*
X149275500Y-92464649D01*
X149275500Y-92385158D01*
X149409028Y-92385158D01*
X149414214Y-92391476D01*
X149425102Y-92427364D01*
X149424919Y-92428956D01*
X149424500Y-92432140D01*
X149424500Y-92517858D01*
X149446568Y-92600216D01*
X149446670Y-92600612D01*
X149446682Y-92600640D01*
X149489531Y-92674856D01*
X149489533Y-92674858D01*
X149489535Y-92674862D01*
X149489538Y-92674865D01*
X149518168Y-92703495D01*
X149528790Y-92719392D01*
X149534097Y-92732205D01*
X149536157Y-92763638D01*
X149524500Y-92807143D01*
X149524500Y-92892857D01*
X149524499Y-92892858D01*
X149544243Y-92966538D01*
X149546681Y-92975636D01*
X149546682Y-92975640D01*
X149578336Y-93030465D01*
X149578628Y-93030970D01*
X149589531Y-93049856D01*
X149589533Y-93049858D01*
X149589535Y-93049862D01*
X149650138Y-93110465D01*
X149656708Y-93114258D01*
X149724359Y-93153317D01*
X149724361Y-93153317D01*
X149724362Y-93153318D01*
X149766318Y-93164560D01*
X149804056Y-93174671D01*
X149806494Y-93175500D01*
X149892856Y-93175500D01*
X149899650Y-93175500D01*
X149905535Y-93172101D01*
X149975638Y-93153318D01*
X150049862Y-93110465D01*
X150110465Y-93049862D01*
X150153318Y-92975638D01*
X150172101Y-92905535D01*
X150175500Y-92899649D01*
X150175500Y-92806491D01*
X150174666Y-92804034D01*
X150162256Y-92757718D01*
X150153318Y-92724362D01*
X150153317Y-92724361D01*
X150153317Y-92724359D01*
X150141271Y-92703495D01*
X150110464Y-92650137D01*
X150081829Y-92621502D01*
X150071207Y-92605605D01*
X150065901Y-92592795D01*
X150063841Y-92561361D01*
X150066922Y-92549864D01*
X150075500Y-92517853D01*
X150075500Y-92432147D01*
X150075500Y-92432144D01*
X150075500Y-92431494D01*
X150074671Y-92429056D01*
X150064331Y-92390464D01*
X150053318Y-92349362D01*
X150053317Y-92349361D01*
X150053317Y-92349359D01*
X150016527Y-92285638D01*
X150014474Y-92282082D01*
X150010469Y-92275144D01*
X150010466Y-92275141D01*
X150010465Y-92275138D01*
X149949862Y-92214535D01*
X149949858Y-92214533D01*
X149949856Y-92214531D01*
X149943248Y-92210716D01*
X149943236Y-92210709D01*
X149942811Y-92210464D01*
X149875640Y-92171682D01*
X149875636Y-92171681D01*
X149869455Y-92170025D01*
X149869454Y-92170024D01*
X149792859Y-92149500D01*
X149792856Y-92149500D01*
X149792853Y-92149500D01*
X149707147Y-92149500D01*
X149707144Y-92149500D01*
X149707141Y-92149500D01*
X149624782Y-92171568D01*
X149624388Y-92171670D01*
X149624358Y-92171682D01*
X149548231Y-92215635D01*
X149545573Y-92219099D01*
X149494099Y-92270573D01*
X149490635Y-92273231D01*
X149446682Y-92349358D01*
X149445399Y-92352531D01*
X149444438Y-92352142D01*
X149424442Y-92379121D01*
X149411088Y-92384645D01*
X149409028Y-92385158D01*
X149275500Y-92385158D01*
X149275500Y-92371495D01*
X149274673Y-92369061D01*
X149258972Y-92310464D01*
X149258971Y-92310460D01*
X149258971Y-92310458D01*
X149253318Y-92289361D01*
X149251169Y-92285639D01*
X149224551Y-92239536D01*
X149210465Y-92215138D01*
X149202097Y-92206770D01*
X149199501Y-92202954D01*
X149196556Y-92188770D01*
X149191014Y-92175391D01*
X149192210Y-92167839D01*
X149191877Y-92166234D01*
X149192651Y-92165053D01*
X149193412Y-92160250D01*
X149195443Y-92154002D01*
X149205500Y-92090500D01*
X149205500Y-90657143D01*
X149604500Y-90657143D01*
X149604500Y-90742856D01*
X149605053Y-90744921D01*
X149605053Y-90744925D01*
X149625030Y-90819476D01*
X149626681Y-90825636D01*
X149626682Y-90825640D01*
X149663573Y-90889535D01*
X149663819Y-90889961D01*
X149669532Y-90899858D01*
X149669534Y-90899860D01*
X149669535Y-90899862D01*
X149730138Y-90960465D01*
X149739642Y-90965952D01*
X149754017Y-90978560D01*
X149758556Y-90984476D01*
X149768261Y-91020695D01*
X149768186Y-91021265D01*
X149754253Y-91049521D01*
X149752644Y-91051130D01*
X149742499Y-91058915D01*
X149732787Y-91064522D01*
X149732767Y-91064535D01*
X149676727Y-91120575D01*
X149673265Y-91123231D01*
X149629312Y-91199358D01*
X149629300Y-91199388D01*
X149629198Y-91199782D01*
X149607130Y-91282139D01*
X149607130Y-91367858D01*
X149627647Y-91444428D01*
X149627648Y-91444429D01*
X149629311Y-91450636D01*
X149629312Y-91450640D01*
X149670907Y-91522683D01*
X149671141Y-91523088D01*
X149671153Y-91523110D01*
X149672160Y-91524855D01*
X149672163Y-91524859D01*
X149672165Y-91524862D01*
X149732768Y-91585465D01*
X149759934Y-91601149D01*
X149806989Y-91628317D01*
X149806990Y-91628317D01*
X149806992Y-91628318D01*
X149872281Y-91645812D01*
X149886676Y-91649669D01*
X149889123Y-91650500D01*
X149975486Y-91650500D01*
X149982280Y-91650500D01*
X149988165Y-91647101D01*
X150058268Y-91628318D01*
X150094944Y-91607143D01*
X150374500Y-91607143D01*
X150374500Y-91692856D01*
X150375053Y-91694921D01*
X150375053Y-91694925D01*
X150396568Y-91775216D01*
X150396670Y-91775612D01*
X150396682Y-91775640D01*
X150439531Y-91849856D01*
X150439533Y-91849858D01*
X150439535Y-91849862D01*
X150500138Y-91910465D01*
X150524210Y-91924363D01*
X150574359Y-91953317D01*
X150574361Y-91953317D01*
X150574362Y-91953318D01*
X150599815Y-91960138D01*
X150654056Y-91974671D01*
X150656494Y-91975500D01*
X150657144Y-91975500D01*
X150657147Y-91975500D01*
X150672504Y-91975500D01*
X150691252Y-91979228D01*
X150701531Y-91983486D01*
X150725216Y-92004258D01*
X150725519Y-92004782D01*
X150726358Y-92006235D01*
X150731250Y-92018049D01*
X150746568Y-92075216D01*
X150746670Y-92075612D01*
X150746682Y-92075640D01*
X150778336Y-92130465D01*
X150789531Y-92149856D01*
X150789533Y-92149858D01*
X150789535Y-92149862D01*
X150850138Y-92210465D01*
X150874210Y-92224363D01*
X150924359Y-92253317D01*
X150924360Y-92253317D01*
X150924361Y-92253317D01*
X150924362Y-92253318D01*
X150963915Y-92263916D01*
X151004056Y-92274671D01*
X151006494Y-92275500D01*
X151007144Y-92275500D01*
X151065753Y-92275500D01*
X151084499Y-92279227D01*
X151091393Y-92282083D01*
X151117913Y-92308598D01*
X151120771Y-92315499D01*
X151124500Y-92334247D01*
X151124500Y-92392858D01*
X151140082Y-92451008D01*
X151146681Y-92475636D01*
X151146682Y-92475640D01*
X151184211Y-92540640D01*
X151184436Y-92541030D01*
X151184456Y-92541066D01*
X151189532Y-92549858D01*
X151189534Y-92549860D01*
X151189535Y-92549862D01*
X151250138Y-92610465D01*
X151257754Y-92614862D01*
X151324359Y-92653317D01*
X151324361Y-92653317D01*
X151324362Y-92653318D01*
X151373338Y-92666441D01*
X151404056Y-92674671D01*
X151406494Y-92675500D01*
X151492856Y-92675500D01*
X151499650Y-92675500D01*
X151505535Y-92672101D01*
X151575638Y-92653318D01*
X151649862Y-92610465D01*
X151710465Y-92549862D01*
X151753318Y-92475638D01*
X151772101Y-92405535D01*
X151775500Y-92399649D01*
X151775500Y-92306494D01*
X151774671Y-92304056D01*
X151760151Y-92249863D01*
X151753318Y-92224362D01*
X151753317Y-92224361D01*
X151753317Y-92224359D01*
X151726149Y-92177304D01*
X151710465Y-92150138D01*
X151649862Y-92089535D01*
X151615789Y-92069863D01*
X151587131Y-92053317D01*
X151575638Y-92046681D01*
X151575627Y-92046678D01*
X151492858Y-92024500D01*
X151492856Y-92024500D01*
X151492853Y-92024500D01*
X151434247Y-92024500D01*
X151415499Y-92020771D01*
X151408601Y-92017914D01*
X151397830Y-92007143D01*
X151924500Y-92007143D01*
X151924500Y-92092856D01*
X151925053Y-92094921D01*
X151925053Y-92094925D01*
X151946568Y-92175216D01*
X151946670Y-92175612D01*
X151946682Y-92175640D01*
X151982416Y-92237533D01*
X151989531Y-92249856D01*
X151989533Y-92249858D01*
X151989535Y-92249862D01*
X152050138Y-92310465D01*
X152077304Y-92326149D01*
X152124359Y-92353317D01*
X152124361Y-92353317D01*
X152124362Y-92353318D01*
X152178298Y-92367770D01*
X152204056Y-92374671D01*
X152206494Y-92375500D01*
X152292856Y-92375500D01*
X152299650Y-92375500D01*
X152305535Y-92372101D01*
X152375638Y-92353318D01*
X152449862Y-92310465D01*
X152510465Y-92249862D01*
X152553318Y-92175638D01*
X152572101Y-92105535D01*
X152575500Y-92099649D01*
X152575500Y-92007141D01*
X152562903Y-91960133D01*
X152556543Y-91936398D01*
X152553318Y-91924362D01*
X152553317Y-91924361D01*
X152553317Y-91924359D01*
X152526149Y-91877304D01*
X152510465Y-91850138D01*
X152449862Y-91789535D01*
X152449858Y-91789533D01*
X152449856Y-91789531D01*
X152375640Y-91746682D01*
X152375612Y-91746670D01*
X152375216Y-91746568D01*
X152292859Y-91724500D01*
X152292856Y-91724500D01*
X152292853Y-91724500D01*
X152207147Y-91724500D01*
X152207144Y-91724500D01*
X152207141Y-91724500D01*
X152124782Y-91746568D01*
X152124388Y-91746670D01*
X152124358Y-91746682D01*
X152048231Y-91790635D01*
X152045573Y-91794099D01*
X151994099Y-91845573D01*
X151990635Y-91848231D01*
X151947171Y-91923510D01*
X151947170Y-91923512D01*
X151946682Y-91924359D01*
X151946681Y-91924363D01*
X151924500Y-92007143D01*
X151397830Y-92007143D01*
X151382085Y-91991398D01*
X151379227Y-91984497D01*
X151375500Y-91965752D01*
X151375500Y-91906491D01*
X151374666Y-91904034D01*
X151361978Y-91856681D01*
X151353318Y-91824362D01*
X151353317Y-91824361D01*
X151353317Y-91824359D01*
X151333208Y-91789531D01*
X151326149Y-91777304D01*
X151310465Y-91750138D01*
X151249862Y-91689535D01*
X151249858Y-91689533D01*
X151249856Y-91689531D01*
X151175640Y-91646682D01*
X151175612Y-91646670D01*
X151175216Y-91646568D01*
X151092859Y-91624500D01*
X151092856Y-91624500D01*
X151092853Y-91624500D01*
X151077496Y-91624500D01*
X151058744Y-91620770D01*
X151048467Y-91616513D01*
X151024783Y-91595740D01*
X151023639Y-91593759D01*
X151018749Y-91581951D01*
X151018712Y-91581812D01*
X151003409Y-91524705D01*
X151003325Y-91524379D01*
X151003317Y-91524362D01*
X151003317Y-91524359D01*
X150967700Y-91462670D01*
X150962884Y-91454328D01*
X150960469Y-91450144D01*
X150960466Y-91450141D01*
X150960465Y-91450138D01*
X150899862Y-91389535D01*
X150899858Y-91389533D01*
X150899856Y-91389531D01*
X150825640Y-91346682D01*
X150825612Y-91346670D01*
X150825216Y-91346568D01*
X150742859Y-91324500D01*
X150742856Y-91324500D01*
X150742853Y-91324500D01*
X150657147Y-91324500D01*
X150657144Y-91324500D01*
X150657141Y-91324500D01*
X150574782Y-91346568D01*
X150574388Y-91346670D01*
X150574358Y-91346682D01*
X150498231Y-91390635D01*
X150495573Y-91394099D01*
X150444099Y-91445573D01*
X150440635Y-91448231D01*
X150397171Y-91523510D01*
X150397170Y-91523512D01*
X150396682Y-91524359D01*
X150396681Y-91524363D01*
X150374500Y-91607143D01*
X150094944Y-91607143D01*
X150132492Y-91585465D01*
X150193095Y-91524862D01*
X150235948Y-91450638D01*
X150254731Y-91380535D01*
X150258130Y-91374649D01*
X150258130Y-91281494D01*
X150257301Y-91279056D01*
X150242989Y-91225640D01*
X150235948Y-91199362D01*
X150235947Y-91199361D01*
X150235947Y-91199359D01*
X150193094Y-91125137D01*
X150132494Y-91064537D01*
X150132492Y-91064535D01*
X150122984Y-91059045D01*
X150108613Y-91046441D01*
X150104070Y-91040521D01*
X150094366Y-91004304D01*
X150094441Y-91003734D01*
X150108373Y-90975479D01*
X150109985Y-90973867D01*
X150120132Y-90966082D01*
X150120359Y-90965951D01*
X150129862Y-90960465D01*
X150190465Y-90899862D01*
X150233318Y-90825638D01*
X150252101Y-90755535D01*
X150255500Y-90749649D01*
X150255500Y-90658759D01*
X150255500Y-90657144D01*
X150255499Y-90657143D01*
X150255498Y-90657139D01*
X151004500Y-90657139D01*
X151004500Y-90742858D01*
X151025030Y-90819476D01*
X151026681Y-90825636D01*
X151026682Y-90825640D01*
X151063573Y-90889535D01*
X151063819Y-90889961D01*
X151069532Y-90899858D01*
X151069534Y-90899860D01*
X151069535Y-90899862D01*
X151130138Y-90960465D01*
X151154210Y-90974363D01*
X151204359Y-91003317D01*
X151204360Y-91003317D01*
X151204361Y-91003317D01*
X151204362Y-91003318D01*
X151250349Y-91015640D01*
X151284056Y-91024671D01*
X151286494Y-91025500D01*
X151372856Y-91025500D01*
X151379650Y-91025500D01*
X151385535Y-91022101D01*
X151455638Y-91003318D01*
X151529862Y-90960465D01*
X151590465Y-90899862D01*
X151602692Y-90878682D01*
X151615297Y-90864309D01*
X151621217Y-90859766D01*
X151657424Y-90850060D01*
X151657995Y-90850135D01*
X151686262Y-90864070D01*
X151687871Y-90865679D01*
X151695658Y-90875827D01*
X151709531Y-90899856D01*
X151709533Y-90899858D01*
X151709535Y-90899862D01*
X151770138Y-90960465D01*
X151794210Y-90974363D01*
X151844359Y-91003317D01*
X151844360Y-91003317D01*
X151844361Y-91003317D01*
X151844362Y-91003318D01*
X151890349Y-91015640D01*
X151924056Y-91024671D01*
X151926494Y-91025500D01*
X152012856Y-91025500D01*
X152019650Y-91025500D01*
X152025535Y-91022101D01*
X152095638Y-91003318D01*
X152169862Y-90960465D01*
X152230465Y-90899862D01*
X152273318Y-90825638D01*
X152292101Y-90755535D01*
X152295500Y-90749649D01*
X152295500Y-90656491D01*
X152294666Y-90654034D01*
X152284207Y-90615000D01*
X152273318Y-90574360D01*
X152244339Y-90524169D01*
X152230464Y-90500137D01*
X152169862Y-90439535D01*
X152169858Y-90439533D01*
X152169856Y-90439531D01*
X152095640Y-90396682D01*
X152095612Y-90396670D01*
X152095216Y-90396568D01*
X152012859Y-90374500D01*
X152012856Y-90374500D01*
X152012853Y-90374500D01*
X151927147Y-90374500D01*
X151927144Y-90374500D01*
X151927141Y-90374500D01*
X151844782Y-90396568D01*
X151844388Y-90396670D01*
X151844358Y-90396682D01*
X151768231Y-90440635D01*
X151765573Y-90444099D01*
X151714099Y-90495573D01*
X151710634Y-90498231D01*
X151697307Y-90521316D01*
X151684696Y-90535694D01*
X151678779Y-90540233D01*
X151642563Y-90549936D01*
X151641993Y-90549861D01*
X151613737Y-90535928D01*
X151612126Y-90534317D01*
X151604339Y-90524169D01*
X151604308Y-90524116D01*
X151590464Y-90500137D01*
X151529862Y-90439535D01*
X151529858Y-90439533D01*
X151529856Y-90439531D01*
X151455640Y-90396682D01*
X151455612Y-90396670D01*
X151455216Y-90396568D01*
X151372859Y-90374500D01*
X151372856Y-90374500D01*
X151372853Y-90374500D01*
X151287147Y-90374500D01*
X151287144Y-90374500D01*
X151287141Y-90374500D01*
X151204782Y-90396568D01*
X151204388Y-90396670D01*
X151204358Y-90396682D01*
X151128231Y-90440635D01*
X151125573Y-90444099D01*
X151074099Y-90495573D01*
X151070635Y-90498231D01*
X151026682Y-90574358D01*
X151026670Y-90574388D01*
X151026568Y-90574782D01*
X151004500Y-90657139D01*
X150255498Y-90657139D01*
X150244207Y-90615000D01*
X150241646Y-90605441D01*
X150233318Y-90574360D01*
X150204339Y-90524169D01*
X150190464Y-90500137D01*
X150129862Y-90439535D01*
X150129858Y-90439533D01*
X150129856Y-90439531D01*
X150055640Y-90396682D01*
X150055612Y-90396670D01*
X150055216Y-90396568D01*
X149972859Y-90374500D01*
X149972856Y-90374500D01*
X149972853Y-90374500D01*
X149887147Y-90374500D01*
X149887144Y-90374500D01*
X149887141Y-90374500D01*
X149804782Y-90396568D01*
X149804388Y-90396670D01*
X149804358Y-90396682D01*
X149728231Y-90440635D01*
X149725573Y-90444099D01*
X149674099Y-90495573D01*
X149670635Y-90498231D01*
X149627171Y-90573510D01*
X149627170Y-90573512D01*
X149626682Y-90574359D01*
X149626681Y-90574363D01*
X149604500Y-90657143D01*
X149205500Y-90657143D01*
X149205500Y-90155416D01*
X149219852Y-90120768D01*
X149820768Y-89519852D01*
X149855416Y-89505500D01*
X151158995Y-89505500D01*
X151160485Y-89505441D01*
X151175117Y-89504866D01*
X151190604Y-89503647D01*
X151190608Y-89503646D01*
X151267766Y-89481886D01*
X151267767Y-89481885D01*
X151267772Y-89481884D01*
X151322289Y-89454107D01*
X151374306Y-89416314D01*
X151866314Y-88924306D01*
X151877269Y-88912456D01*
X151887358Y-88900643D01*
X151926536Y-88830685D01*
X151945443Y-88772494D01*
X151955500Y-88708992D01*
X151955500Y-87987139D01*
X152074500Y-87987139D01*
X152074500Y-88072858D01*
X152096568Y-88155216D01*
X152096670Y-88155612D01*
X152096682Y-88155640D01*
X152135755Y-88223316D01*
X152139535Y-88229863D01*
X152173130Y-88263457D01*
X152200138Y-88290465D01*
X152227304Y-88306149D01*
X152274359Y-88333317D01*
X152274360Y-88333317D01*
X152274362Y-88333318D01*
X152339651Y-88350812D01*
X152354046Y-88354669D01*
X152356493Y-88355500D01*
X152442856Y-88355500D01*
X152449650Y-88355500D01*
X152455535Y-88352101D01*
X152525638Y-88333318D01*
X152599862Y-88290465D01*
X152660465Y-88229862D01*
X152703318Y-88155638D01*
X152722101Y-88085535D01*
X152725500Y-88079649D01*
X152725500Y-87986492D01*
X152724668Y-87984042D01*
X152708273Y-87922856D01*
X152703318Y-87904362D01*
X152703317Y-87904361D01*
X152703317Y-87904359D01*
X152697719Y-87894664D01*
X152676149Y-87857304D01*
X152660465Y-87830138D01*
X152599862Y-87769535D01*
X152599858Y-87769533D01*
X152599856Y-87769531D01*
X152525640Y-87726682D01*
X152525612Y-87726670D01*
X152525216Y-87726568D01*
X152442859Y-87704500D01*
X152442856Y-87704500D01*
X152442853Y-87704500D01*
X152357147Y-87704500D01*
X152357144Y-87704500D01*
X152357141Y-87704500D01*
X152274782Y-87726568D01*
X152274388Y-87726670D01*
X152274358Y-87726682D01*
X152198231Y-87770635D01*
X152195573Y-87774099D01*
X152144099Y-87825573D01*
X152140635Y-87828231D01*
X152096682Y-87904358D01*
X152096670Y-87904388D01*
X152096568Y-87904782D01*
X152074500Y-87987139D01*
X151955500Y-87987139D01*
X151955500Y-87799000D01*
X151952970Y-87766856D01*
X151948125Y-87736263D01*
X151947352Y-87731713D01*
X151911408Y-87647617D01*
X151875444Y-87598117D01*
X151851203Y-87570372D01*
X151772693Y-87523464D01*
X151714502Y-87504557D01*
X151714500Y-87504556D01*
X151714498Y-87504556D01*
X151662700Y-87496353D01*
X151651000Y-87494500D01*
X151650999Y-87494500D01*
X150467707Y-87494500D01*
X150467686Y-87494500D01*
X150459617Y-87494658D01*
X150459598Y-87494658D01*
X150459585Y-87494659D01*
X150451855Y-87494962D01*
X150381295Y-87510442D01*
X150381289Y-87510444D01*
X150324763Y-87533854D01*
X150292127Y-87550945D01*
X150292123Y-87550948D01*
X150288794Y-87554353D01*
X150254307Y-87569088D01*
X150241082Y-87567421D01*
X150192859Y-87554500D01*
X150192856Y-87554500D01*
X150192853Y-87554500D01*
X150107147Y-87554500D01*
X150107144Y-87554500D01*
X150057301Y-87567854D01*
X150020119Y-87562958D01*
X150019488Y-87562587D01*
X149960166Y-87527144D01*
X149954007Y-87523464D01*
X149895816Y-87504557D01*
X149895814Y-87504556D01*
X149895812Y-87504556D01*
X149844014Y-87496353D01*
X149832314Y-87494500D01*
X149832313Y-87494500D01*
X149604123Y-87494500D01*
X149569475Y-87480148D01*
X149555123Y-87445500D01*
X149569475Y-87410852D01*
X149630464Y-87349863D01*
X149630465Y-87349862D01*
X149673318Y-87275638D01*
X149692101Y-87205535D01*
X149695500Y-87199649D01*
X149695500Y-87106491D01*
X149694666Y-87104034D01*
X149687405Y-87076935D01*
X149673318Y-87024360D01*
X149640489Y-86967500D01*
X149630465Y-86950138D01*
X149569862Y-86889535D01*
X149565532Y-86887035D01*
X149495640Y-86846682D01*
X149495636Y-86846681D01*
X149489442Y-86845021D01*
X149489440Y-86845020D01*
X149412859Y-86824500D01*
X149412856Y-86824500D01*
X149412853Y-86824500D01*
X149327147Y-86824500D01*
X149327144Y-86824500D01*
X149327141Y-86824500D01*
X149244782Y-86846568D01*
X149244388Y-86846670D01*
X149244358Y-86846682D01*
X149168231Y-86890635D01*
X149165573Y-86894099D01*
X149114099Y-86945573D01*
X149110635Y-86948231D01*
X149066682Y-87024358D01*
X149066670Y-87024388D01*
X149066568Y-87024782D01*
X149044500Y-87107139D01*
X149044500Y-87192858D01*
X149065066Y-87269613D01*
X149065068Y-87269617D01*
X149066681Y-87275636D01*
X149066682Y-87275640D01*
X149094106Y-87323138D01*
X149094430Y-87323699D01*
X149094431Y-87323701D01*
X149109535Y-87349862D01*
X149170682Y-87411009D01*
X149185034Y-87445657D01*
X149170682Y-87480305D01*
X149137963Y-87494619D01*
X149126168Y-87495083D01*
X149124883Y-87495134D01*
X149120458Y-87495482D01*
X149109391Y-87496353D01*
X149032233Y-87518113D01*
X149014519Y-87527139D01*
X148977711Y-87545893D01*
X148937872Y-87574838D01*
X148925687Y-87583691D01*
X148163361Y-88346019D01*
X146888361Y-89621019D01*
X146683692Y-89825686D01*
X146672731Y-89837543D01*
X146662643Y-89849354D01*
X146623465Y-89919312D01*
X146604557Y-89977506D01*
X146604556Y-89977509D01*
X146594500Y-90041009D01*
X146594500Y-90197667D01*
X146597029Y-90229804D01*
X146597032Y-90229825D01*
X146601873Y-90260397D01*
X146602647Y-90264956D01*
X146602648Y-90264960D01*
X146622792Y-90312087D01*
X146623213Y-90349587D01*
X146620878Y-90354575D01*
X146620516Y-90355247D01*
X146596682Y-90396529D01*
X146596681Y-90396533D01*
X146595091Y-90402463D01*
X146595089Y-90402469D01*
X146574500Y-90479309D01*
X146574500Y-90565028D01*
X146596568Y-90647386D01*
X146596670Y-90647782D01*
X146596682Y-90647810D01*
X146639531Y-90722026D01*
X146639533Y-90722028D01*
X146639535Y-90722032D01*
X146639538Y-90722035D01*
X146653210Y-90735707D01*
X146667562Y-90770355D01*
X146667495Y-90772916D01*
X146667172Y-90779081D01*
X146662529Y-90793937D01*
X146663210Y-90854778D01*
X146663129Y-90856345D01*
X146661464Y-90859836D01*
X146656633Y-90878282D01*
X146653361Y-90883950D01*
X146645572Y-90894100D01*
X146594099Y-90945573D01*
X146590635Y-90948231D01*
X146546682Y-91024358D01*
X146546670Y-91024388D01*
X146546568Y-91024782D01*
X146524500Y-91107139D01*
X146524500Y-91192857D01*
X146524499Y-91192858D01*
X146545063Y-91269600D01*
X146545064Y-91269602D01*
X146546681Y-91275636D01*
X146546682Y-91275640D01*
X146574892Y-91324500D01*
X146575192Y-91325019D01*
X146575202Y-91325038D01*
X146589531Y-91349856D01*
X146589533Y-91349858D01*
X146589535Y-91349862D01*
X146589538Y-91349865D01*
X146594633Y-91354960D01*
X146608985Y-91389608D01*
X146606587Y-91404748D01*
X146604559Y-91410989D01*
X146604556Y-91411001D01*
X146594500Y-91474500D01*
X146594500Y-91545497D01*
X146596771Y-91574361D01*
X146597030Y-91577644D01*
X146598269Y-91585465D01*
X146601873Y-91608227D01*
X146602647Y-91612786D01*
X146603464Y-91615561D01*
X146602665Y-91615795D01*
X146603054Y-91650248D01*
X146595813Y-91658600D01*
X146596100Y-91658766D01*
X146546682Y-91744358D01*
X146546670Y-91744388D01*
X146546568Y-91744782D01*
X146524500Y-91827139D01*
X146524500Y-91912858D01*
X146545057Y-91989578D01*
X146545058Y-91989580D01*
X146546681Y-91995636D01*
X146546682Y-91995640D01*
X146576152Y-92046682D01*
X146579983Y-92053317D01*
X146589536Y-92069863D01*
X146594633Y-92074960D01*
X146608985Y-92109608D01*
X146606587Y-92124748D01*
X146604559Y-92130989D01*
X146604556Y-92131001D01*
X146597554Y-92175216D01*
X146595408Y-92188770D01*
X146594500Y-92194501D01*
X146594500Y-92725500D01*
X146580148Y-92760148D01*
X146545500Y-92774500D01*
X146457141Y-92774500D01*
X146374782Y-92796568D01*
X146374388Y-92796670D01*
X146374358Y-92796682D01*
X146298231Y-92840635D01*
X146295573Y-92844099D01*
X146244099Y-92895573D01*
X146240635Y-92898231D01*
X146197171Y-92973510D01*
X146197170Y-92973512D01*
X146196682Y-92974359D01*
X146196681Y-92974363D01*
X146174500Y-93057143D01*
X146174500Y-93142856D01*
X146175053Y-93144921D01*
X146175053Y-93144925D01*
X146194596Y-93217856D01*
X146196681Y-93225636D01*
X146196682Y-93225640D01*
X146220959Y-93267689D01*
X146221294Y-93268310D01*
X146221411Y-93269464D01*
X146226741Y-93285166D01*
X146228550Y-93298914D01*
X146222404Y-93329806D01*
X146196682Y-93374358D01*
X146196670Y-93374388D01*
X146196568Y-93374782D01*
X146174500Y-93457139D01*
X146174500Y-93542858D01*
X146195086Y-93619685D01*
X146196681Y-93625636D01*
X146196682Y-93625640D01*
X146220959Y-93667689D01*
X146221294Y-93668310D01*
X146221411Y-93669464D01*
X146226741Y-93685166D01*
X146228550Y-93698914D01*
X146222404Y-93729806D01*
X146196682Y-93774358D01*
X146196670Y-93774388D01*
X146196568Y-93774782D01*
X146174500Y-93857139D01*
X146174500Y-93942858D01*
X146191726Y-94007144D01*
X146196681Y-94025636D01*
X146196682Y-94025640D01*
X146220959Y-94067689D01*
X146221294Y-94068310D01*
X146221411Y-94069464D01*
X146226741Y-94085166D01*
X146228550Y-94098914D01*
X146222404Y-94129806D01*
X146196682Y-94174358D01*
X146196670Y-94174388D01*
X146196568Y-94174782D01*
X146174500Y-94257139D01*
X146174500Y-94342857D01*
X146174499Y-94342858D01*
X143683456Y-94342858D01*
X143696535Y-94334119D01*
X143696539Y-94334116D01*
X143696542Y-94334114D01*
X143794114Y-94236542D01*
X143870775Y-94121811D01*
X143923580Y-93994328D01*
X143931281Y-93955612D01*
X143950500Y-93858994D01*
X143950500Y-93787139D01*
X144924500Y-93787139D01*
X144924500Y-93872858D01*
X144946568Y-93955216D01*
X144946670Y-93955612D01*
X144946682Y-93955640D01*
X144987016Y-94025499D01*
X144989535Y-94029862D01*
X145050138Y-94090465D01*
X145077304Y-94106149D01*
X145124359Y-94133317D01*
X145124361Y-94133317D01*
X145124362Y-94133318D01*
X145174234Y-94146681D01*
X145204056Y-94154671D01*
X145206494Y-94155500D01*
X145292856Y-94155500D01*
X145299650Y-94155500D01*
X145305535Y-94152101D01*
X145375638Y-94133318D01*
X145449862Y-94090465D01*
X145510465Y-94029862D01*
X145553318Y-93955638D01*
X145572101Y-93885535D01*
X145575500Y-93879649D01*
X145575500Y-93786494D01*
X145574671Y-93784056D01*
X145564781Y-93747143D01*
X145553318Y-93704362D01*
X145553317Y-93704361D01*
X145553317Y-93704359D01*
X145514871Y-93637770D01*
X145510465Y-93630138D01*
X145449862Y-93569535D01*
X145449858Y-93569533D01*
X145449856Y-93569531D01*
X145375640Y-93526682D01*
X145375612Y-93526670D01*
X145375216Y-93526568D01*
X145292859Y-93504500D01*
X145292856Y-93504500D01*
X145292853Y-93504500D01*
X145207147Y-93504500D01*
X145207144Y-93504500D01*
X145207141Y-93504500D01*
X145124782Y-93526568D01*
X145124388Y-93526670D01*
X145124358Y-93526682D01*
X145048231Y-93570635D01*
X145045573Y-93574099D01*
X144994099Y-93625573D01*
X144990635Y-93628231D01*
X144946682Y-93704358D01*
X144946670Y-93704388D01*
X144946568Y-93704782D01*
X144924500Y-93787139D01*
X143950500Y-93787139D01*
X143950500Y-93721008D01*
X143950499Y-93721001D01*
X143935845Y-93647329D01*
X143935844Y-93628212D01*
X143936771Y-93623551D01*
X143957606Y-93592368D01*
X143994388Y-93585050D01*
X144025571Y-93605885D01*
X144027259Y-93608599D01*
X144039535Y-93629862D01*
X144100138Y-93690465D01*
X144124210Y-93704363D01*
X144174359Y-93733317D01*
X144174360Y-93733317D01*
X144174361Y-93733317D01*
X144174362Y-93733318D01*
X144209959Y-93742856D01*
X144254056Y-93754671D01*
X144256494Y-93755500D01*
X144342856Y-93755500D01*
X144349649Y-93755500D01*
X144355533Y-93752102D01*
X144425638Y-93733318D01*
X144499862Y-93690465D01*
X144560465Y-93629862D01*
X144603318Y-93555638D01*
X144622101Y-93485535D01*
X144625500Y-93479649D01*
X144625500Y-93386492D01*
X144624666Y-93384035D01*
X144618350Y-93360463D01*
X144603318Y-93304362D01*
X144603317Y-93304361D01*
X144603317Y-93304359D01*
X144569555Y-93245883D01*
X144569554Y-93245881D01*
X144560469Y-93230144D01*
X144560466Y-93230141D01*
X144560465Y-93230138D01*
X144499862Y-93169535D01*
X144491245Y-93164560D01*
X144491244Y-93164559D01*
X144425640Y-93126682D01*
X144425612Y-93126670D01*
X144425216Y-93126568D01*
X144342859Y-93104500D01*
X144342856Y-93104500D01*
X144342853Y-93104500D01*
X144257147Y-93104500D01*
X144257144Y-93104500D01*
X144257141Y-93104500D01*
X144174782Y-93126568D01*
X144174388Y-93126670D01*
X144174358Y-93126682D01*
X144098231Y-93170635D01*
X144095573Y-93174099D01*
X144044099Y-93225573D01*
X144040635Y-93228231D01*
X143996682Y-93304358D01*
X143996670Y-93304388D01*
X143996568Y-93304782D01*
X143974500Y-93387139D01*
X143974500Y-93452516D01*
X143970768Y-93471272D01*
X143968749Y-93476145D01*
X143942228Y-93502661D01*
X143904725Y-93502657D01*
X143878211Y-93476141D01*
X143871438Y-93459790D01*
X143871052Y-93458757D01*
X143870776Y-93458192D01*
X143870775Y-93458189D01*
X143814764Y-93374363D01*
X143796193Y-93346568D01*
X143794115Y-93343458D01*
X143794114Y-93343457D01*
X143696539Y-93245883D01*
X143629599Y-93201156D01*
X143616079Y-93187635D01*
X143611936Y-93181434D01*
X143604619Y-93144664D01*
X143605045Y-93142520D01*
X143625874Y-93111333D01*
X143627175Y-93110464D01*
X143629603Y-93108842D01*
X143696539Y-93064116D01*
X143696538Y-93064116D01*
X143696542Y-93064114D01*
X143794114Y-92966542D01*
X143794116Y-92966538D01*
X143794118Y-92966537D01*
X143815785Y-92934108D01*
X143870775Y-92851811D01*
X143923580Y-92724328D01*
X143950500Y-92588993D01*
X143950500Y-92451007D01*
X143950499Y-92451001D01*
X143935845Y-92377329D01*
X143935844Y-92358212D01*
X143936771Y-92353551D01*
X143957606Y-92322368D01*
X143994388Y-92315050D01*
X144025571Y-92335885D01*
X144027259Y-92338599D01*
X144039535Y-92359862D01*
X144100138Y-92420465D01*
X144108861Y-92425501D01*
X144174359Y-92463317D01*
X144174360Y-92463317D01*
X144174361Y-92463317D01*
X144174362Y-92463318D01*
X144220349Y-92475640D01*
X144254056Y-92484671D01*
X144256494Y-92485500D01*
X144342856Y-92485500D01*
X144349650Y-92485500D01*
X144355535Y-92482101D01*
X144425638Y-92463318D01*
X144499862Y-92420465D01*
X144560465Y-92359862D01*
X144603318Y-92285638D01*
X144622101Y-92215535D01*
X144625500Y-92209649D01*
X144625500Y-92172858D01*
X144924499Y-92172858D01*
X144946568Y-92255216D01*
X144946670Y-92255612D01*
X144946682Y-92255640D01*
X144981341Y-92315672D01*
X144989529Y-92329853D01*
X144989532Y-92329857D01*
X144989535Y-92329862D01*
X145050138Y-92390465D01*
X145050139Y-92390466D01*
X145050141Y-92390467D01*
X145051889Y-92391476D01*
X145056888Y-92394362D01*
X145071316Y-92402692D01*
X145085689Y-92415298D01*
X145089656Y-92420467D01*
X145090233Y-92421219D01*
X145099936Y-92457436D01*
X145099861Y-92458006D01*
X145085928Y-92486262D01*
X145084319Y-92487871D01*
X145074171Y-92495658D01*
X145048231Y-92510634D01*
X145045573Y-92514099D01*
X144994099Y-92565573D01*
X144990635Y-92568231D01*
X144946682Y-92644358D01*
X144946670Y-92644388D01*
X144946568Y-92644782D01*
X144924500Y-92727139D01*
X144924500Y-92812858D01*
X144946568Y-92895216D01*
X144946670Y-92895612D01*
X144946680Y-92895636D01*
X144946681Y-92895639D01*
X144946682Y-92895640D01*
X144987616Y-92966539D01*
X144989535Y-92969862D01*
X145050138Y-93030465D01*
X145077304Y-93046149D01*
X145124359Y-93073317D01*
X145124360Y-93073317D01*
X145124362Y-93073318D01*
X145189651Y-93090812D01*
X145204046Y-93094669D01*
X145206493Y-93095500D01*
X145292856Y-93095500D01*
X145299650Y-93095500D01*
X145305535Y-93092101D01*
X145375638Y-93073318D01*
X145449862Y-93030465D01*
X145510465Y-92969862D01*
X145553318Y-92895638D01*
X145572101Y-92825535D01*
X145575500Y-92819649D01*
X145575500Y-92727143D01*
X145555717Y-92653317D01*
X145555716Y-92653315D01*
X145553318Y-92644362D01*
X145553317Y-92644361D01*
X145553317Y-92644359D01*
X145526149Y-92597304D01*
X145510465Y-92570138D01*
X145449862Y-92509535D01*
X145428681Y-92497306D01*
X145414309Y-92484701D01*
X145409768Y-92478783D01*
X145400061Y-92442560D01*
X145400137Y-92441979D01*
X145414067Y-92413739D01*
X145415683Y-92412123D01*
X145425825Y-92404341D01*
X145449862Y-92390465D01*
X145510465Y-92329862D01*
X145553318Y-92255638D01*
X145572101Y-92185535D01*
X145575500Y-92179649D01*
X145575500Y-92086492D01*
X145574666Y-92084035D01*
X145571832Y-92073460D01*
X145566435Y-92053317D01*
X145553318Y-92004362D01*
X145553317Y-92004361D01*
X145553317Y-92004359D01*
X145521853Y-91949863D01*
X145510465Y-91930138D01*
X145449862Y-91869535D01*
X145449858Y-91869533D01*
X145449856Y-91869531D01*
X145375640Y-91826682D01*
X145375612Y-91826670D01*
X145375216Y-91826568D01*
X145292859Y-91804500D01*
X145292856Y-91804500D01*
X145292853Y-91804500D01*
X145207147Y-91804500D01*
X145207144Y-91804500D01*
X145207141Y-91804500D01*
X145124782Y-91826568D01*
X145124388Y-91826670D01*
X145124358Y-91826682D01*
X145048231Y-91870635D01*
X145045573Y-91874099D01*
X144994099Y-91925573D01*
X144990635Y-91928231D01*
X144946682Y-92004358D01*
X144946670Y-92004388D01*
X144946568Y-92004782D01*
X144924500Y-92087139D01*
X144924500Y-92172857D01*
X144924499Y-92172858D01*
X144625500Y-92172858D01*
X144625500Y-92116492D01*
X144624668Y-92114044D01*
X144620000Y-92096617D01*
X144606619Y-92046682D01*
X144603318Y-92034362D01*
X144603317Y-92034360D01*
X144603317Y-92034359D01*
X144569334Y-91975500D01*
X144569333Y-91975498D01*
X144560469Y-91960144D01*
X144560466Y-91960141D01*
X144560465Y-91960138D01*
X144499862Y-91899535D01*
X144491245Y-91894560D01*
X144491244Y-91894559D01*
X144425640Y-91856682D01*
X144425612Y-91856670D01*
X144425216Y-91856568D01*
X144342859Y-91834500D01*
X144342856Y-91834500D01*
X144342853Y-91834500D01*
X144257147Y-91834500D01*
X144257144Y-91834500D01*
X144257141Y-91834500D01*
X144174782Y-91856568D01*
X144174388Y-91856670D01*
X144174358Y-91856682D01*
X144098231Y-91900635D01*
X144095573Y-91904099D01*
X144044099Y-91955573D01*
X144040635Y-91958231D01*
X143996682Y-92034358D01*
X143996670Y-92034388D01*
X143996568Y-92034782D01*
X143974500Y-92117139D01*
X143974500Y-92182516D01*
X143970768Y-92201272D01*
X143968749Y-92206145D01*
X143942228Y-92232661D01*
X143904725Y-92232657D01*
X143878211Y-92206141D01*
X143871438Y-92189790D01*
X143871052Y-92188757D01*
X143870776Y-92188192D01*
X143870775Y-92188189D01*
X143819654Y-92111681D01*
X143794116Y-92073460D01*
X143696539Y-91975883D01*
X143657598Y-91949864D01*
X143629599Y-91931156D01*
X143616079Y-91917635D01*
X143611936Y-91911434D01*
X143604618Y-91874668D01*
X143605044Y-91872523D01*
X143625868Y-91841336D01*
X143647105Y-91827147D01*
X143696542Y-91794114D01*
X143794114Y-91696542D01*
X143870775Y-91581811D01*
X143923580Y-91454328D01*
X143925322Y-91445573D01*
X143950499Y-91318998D01*
X143950500Y-91318993D01*
X143950500Y-91181008D01*
X143950499Y-91181001D01*
X143944425Y-91150465D01*
X143935844Y-91107326D01*
X143935845Y-91088205D01*
X143936773Y-91083543D01*
X143957613Y-91052363D01*
X143994396Y-91045052D01*
X144025576Y-91065892D01*
X144027259Y-91068599D01*
X144039535Y-91089862D01*
X144100138Y-91150465D01*
X144127304Y-91166149D01*
X144174359Y-91193317D01*
X144174360Y-91193317D01*
X144174362Y-91193318D01*
X144239651Y-91210812D01*
X144254046Y-91214669D01*
X144256493Y-91215500D01*
X144342856Y-91215500D01*
X144349650Y-91215500D01*
X144355535Y-91212101D01*
X144425638Y-91193318D01*
X144426444Y-91192853D01*
X144446968Y-91181003D01*
X144499862Y-91150465D01*
X144560465Y-91089862D01*
X144579356Y-91057143D01*
X144974500Y-91057143D01*
X144974500Y-91142856D01*
X144975053Y-91144921D01*
X144975053Y-91144925D01*
X144995044Y-91219530D01*
X144995045Y-91219533D01*
X144996681Y-91225636D01*
X144996682Y-91225640D01*
X145029307Y-91282147D01*
X145029569Y-91282601D01*
X145029585Y-91282630D01*
X145039531Y-91299856D01*
X145039533Y-91299858D01*
X145039535Y-91299862D01*
X145100138Y-91360465D01*
X145127304Y-91376149D01*
X145174359Y-91403317D01*
X145174360Y-91403317D01*
X145174362Y-91403318D01*
X145203035Y-91411001D01*
X145239651Y-91420812D01*
X145254046Y-91424669D01*
X145256493Y-91425500D01*
X145342856Y-91425500D01*
X145349650Y-91425500D01*
X145355535Y-91422101D01*
X145425638Y-91403318D01*
X145499862Y-91360465D01*
X145560465Y-91299862D01*
X145603318Y-91225638D01*
X145622101Y-91155535D01*
X145625500Y-91149649D01*
X145625500Y-91056492D01*
X145624666Y-91054035D01*
X145624393Y-91053018D01*
X145618075Y-91029438D01*
X145616715Y-91024361D01*
X145603318Y-90974362D01*
X145603317Y-90974361D01*
X145603317Y-90974359D01*
X145560464Y-90900137D01*
X145499862Y-90839535D01*
X145499858Y-90839533D01*
X145499856Y-90839531D01*
X145425640Y-90796682D01*
X145425612Y-90796670D01*
X145425216Y-90796568D01*
X145342859Y-90774500D01*
X145342856Y-90774500D01*
X145342853Y-90774500D01*
X145257147Y-90774500D01*
X145257144Y-90774500D01*
X145257141Y-90774500D01*
X145174782Y-90796568D01*
X145174388Y-90796670D01*
X145174358Y-90796682D01*
X145098231Y-90840635D01*
X145095573Y-90844099D01*
X145044099Y-90895573D01*
X145040635Y-90898231D01*
X144997171Y-90973510D01*
X144997170Y-90973512D01*
X144996682Y-90974359D01*
X144996681Y-90974363D01*
X144974500Y-91057143D01*
X144579356Y-91057143D01*
X144590547Y-91037759D01*
X144595353Y-91029435D01*
X144599589Y-91022096D01*
X144603318Y-91015638D01*
X144622101Y-90945535D01*
X144625500Y-90939649D01*
X144625500Y-90846491D01*
X144624666Y-90844034D01*
X144611978Y-90796681D01*
X144603318Y-90764362D01*
X144603317Y-90764361D01*
X144603317Y-90764359D01*
X144600092Y-90758774D01*
X144594824Y-90749649D01*
X144560464Y-90690137D01*
X144499862Y-90629535D01*
X144499858Y-90629533D01*
X144499856Y-90629531D01*
X144425640Y-90586682D01*
X144425612Y-90586670D01*
X144425216Y-90586568D01*
X144342859Y-90564500D01*
X144342856Y-90564500D01*
X144342853Y-90564500D01*
X144257147Y-90564500D01*
X144257144Y-90564500D01*
X144257141Y-90564500D01*
X144174782Y-90586568D01*
X144174388Y-90586670D01*
X144174358Y-90586682D01*
X144098231Y-90630635D01*
X144095573Y-90634099D01*
X144044099Y-90685573D01*
X144040635Y-90688231D01*
X143996682Y-90764358D01*
X143996670Y-90764388D01*
X143996568Y-90764782D01*
X143974500Y-90847139D01*
X143974500Y-90912516D01*
X143970768Y-90931272D01*
X143968749Y-90936145D01*
X143942228Y-90962661D01*
X143904725Y-90962657D01*
X143878211Y-90936141D01*
X143871438Y-90919790D01*
X143871052Y-90918757D01*
X143870776Y-90918192D01*
X143870775Y-90918189D01*
X143808936Y-90825640D01*
X143794116Y-90803460D01*
X143696539Y-90705883D01*
X143629598Y-90661155D01*
X143616079Y-90647635D01*
X143611936Y-90641434D01*
X143604619Y-90604664D01*
X143605045Y-90602520D01*
X143625874Y-90571333D01*
X143625874Y-90571332D01*
X143635318Y-90565023D01*
X143696542Y-90524114D01*
X143794114Y-90426542D01*
X143870775Y-90311811D01*
X143923580Y-90184328D01*
X143950500Y-90048993D01*
X143950500Y-89911007D01*
X143935844Y-89837326D01*
X143935845Y-89818205D01*
X143936773Y-89813543D01*
X143957613Y-89782363D01*
X143994396Y-89775052D01*
X144025576Y-89795892D01*
X144027259Y-89798599D01*
X144039535Y-89819862D01*
X144100138Y-89880465D01*
X144111774Y-89887183D01*
X144174359Y-89923317D01*
X144174361Y-89923317D01*
X144174362Y-89923318D01*
X144239651Y-89940812D01*
X144254047Y-89944669D01*
X144256493Y-89945500D01*
X144342856Y-89945500D01*
X144349650Y-89945500D01*
X144355535Y-89942101D01*
X144425638Y-89923318D01*
X144499862Y-89880465D01*
X144560465Y-89819862D01*
X144573676Y-89796977D01*
X144586281Y-89782605D01*
X144597283Y-89774162D01*
X144627110Y-89764039D01*
X144672925Y-89764039D01*
X144678810Y-89760640D01*
X144748913Y-89741857D01*
X144823137Y-89699004D01*
X144883740Y-89638401D01*
X144926593Y-89564177D01*
X144948774Y-89481395D01*
X144948775Y-89481395D01*
X144948775Y-89457143D01*
X145374500Y-89457143D01*
X145374500Y-89542856D01*
X145375053Y-89544921D01*
X145375053Y-89544925D01*
X145395063Y-89619600D01*
X145395064Y-89619602D01*
X145396681Y-89625636D01*
X145396682Y-89625640D01*
X145424892Y-89674500D01*
X145425192Y-89675019D01*
X145425202Y-89675038D01*
X145439531Y-89699856D01*
X145439533Y-89699858D01*
X145439535Y-89699862D01*
X145500138Y-89760465D01*
X145500142Y-89760467D01*
X145500143Y-89760468D01*
X145506328Y-89764039D01*
X145526477Y-89775672D01*
X145574359Y-89803317D01*
X145574360Y-89803317D01*
X145574361Y-89803317D01*
X145574362Y-89803318D01*
X145636091Y-89819858D01*
X145654051Y-89824670D01*
X145656494Y-89825500D01*
X145657144Y-89825500D01*
X145736170Y-89825500D01*
X145754916Y-89829227D01*
X145761810Y-89832083D01*
X145788330Y-89858598D01*
X145788333Y-89858604D01*
X145789602Y-89861668D01*
X145791661Y-89893101D01*
X145774500Y-89957143D01*
X145774500Y-90042858D01*
X145796568Y-90125216D01*
X145796670Y-90125612D01*
X145796682Y-90125640D01*
X145830565Y-90184328D01*
X145839529Y-90199853D01*
X145839532Y-90199857D01*
X145839535Y-90199862D01*
X145900138Y-90260465D01*
X145927304Y-90276149D01*
X145974359Y-90303317D01*
X145974360Y-90303317D01*
X145974361Y-90303317D01*
X145974362Y-90303318D01*
X146006044Y-90311807D01*
X146054056Y-90324671D01*
X146056494Y-90325500D01*
X146142856Y-90325500D01*
X146149650Y-90325500D01*
X146155535Y-90322101D01*
X146225638Y-90303318D01*
X146299862Y-90260465D01*
X146360465Y-90199862D01*
X146403318Y-90125638D01*
X146422101Y-90055535D01*
X146425500Y-90049649D01*
X146425500Y-89956493D01*
X146424669Y-89954047D01*
X146403418Y-89874737D01*
X146403325Y-89874381D01*
X146403318Y-89874363D01*
X146403317Y-89874359D01*
X146371854Y-89819864D01*
X146362301Y-89803318D01*
X146360468Y-89800143D01*
X146360467Y-89800142D01*
X146360465Y-89800138D01*
X146299862Y-89739535D01*
X146299858Y-89739533D01*
X146299856Y-89739531D01*
X146225640Y-89696682D01*
X146225612Y-89696670D01*
X146225216Y-89696568D01*
X146142859Y-89674500D01*
X146142856Y-89674500D01*
X146142853Y-89674500D01*
X146063830Y-89674500D01*
X146045082Y-89670771D01*
X146038184Y-89667914D01*
X146011668Y-89641398D01*
X146010396Y-89638328D01*
X146008338Y-89606901D01*
X146019231Y-89566252D01*
X146019231Y-89566251D01*
X146022100Y-89555540D01*
X146025500Y-89549652D01*
X146025500Y-89456493D01*
X146024669Y-89454047D01*
X146016923Y-89425137D01*
X146003318Y-89374362D01*
X146003317Y-89374361D01*
X146003317Y-89374359D01*
X145994759Y-89359537D01*
X145970649Y-89317777D01*
X145960468Y-89300143D01*
X145960467Y-89300142D01*
X145960465Y-89300138D01*
X145899862Y-89239535D01*
X145898371Y-89238674D01*
X145825640Y-89196682D01*
X145825636Y-89196681D01*
X145819427Y-89195017D01*
X145819423Y-89195015D01*
X145742859Y-89174500D01*
X145742856Y-89174500D01*
X145742853Y-89174500D01*
X145657147Y-89174500D01*
X145657144Y-89174500D01*
X145657141Y-89174500D01*
X145574782Y-89196568D01*
X145574388Y-89196670D01*
X145574358Y-89196682D01*
X145498231Y-89240635D01*
X145495573Y-89244099D01*
X145444099Y-89295573D01*
X145440635Y-89298231D01*
X145397171Y-89373510D01*
X145397170Y-89373512D01*
X145396682Y-89374359D01*
X145396681Y-89374363D01*
X145374500Y-89457143D01*
X144948775Y-89457143D01*
X144948775Y-89395683D01*
X144948775Y-89395030D01*
X144947941Y-89392573D01*
X144935194Y-89345000D01*
X144926593Y-89312901D01*
X144926592Y-89312900D01*
X144926592Y-89312898D01*
X144926281Y-89312360D01*
X144899424Y-89265843D01*
X144883740Y-89238677D01*
X144823137Y-89178074D01*
X144823133Y-89178072D01*
X144823131Y-89178070D01*
X144816946Y-89174499D01*
X144816946Y-89174498D01*
X144748915Y-89135221D01*
X144748887Y-89135209D01*
X144748491Y-89135107D01*
X144666134Y-89113039D01*
X144666131Y-89113039D01*
X144666128Y-89113039D01*
X144580422Y-89113039D01*
X144580419Y-89113039D01*
X144580416Y-89113039D01*
X144498057Y-89135107D01*
X144497663Y-89135209D01*
X144497633Y-89135221D01*
X144421506Y-89179174D01*
X144418850Y-89182636D01*
X144391926Y-89209559D01*
X144362812Y-89238674D01*
X144362811Y-89238675D01*
X144362806Y-89238681D01*
X144353897Y-89254114D01*
X144353895Y-89254118D01*
X144349598Y-89261560D01*
X144336996Y-89275930D01*
X144325996Y-89284372D01*
X144296164Y-89294500D01*
X144257141Y-89294500D01*
X144174782Y-89316568D01*
X144174388Y-89316670D01*
X144174358Y-89316682D01*
X144098231Y-89360635D01*
X144095573Y-89364099D01*
X144044099Y-89415573D01*
X144040635Y-89418231D01*
X143996682Y-89494358D01*
X143996670Y-89494388D01*
X143996568Y-89494782D01*
X143974500Y-89577139D01*
X143974500Y-89642516D01*
X143970768Y-89661272D01*
X143968749Y-89666145D01*
X143942228Y-89692661D01*
X143904725Y-89692657D01*
X143878211Y-89666141D01*
X143871438Y-89649790D01*
X143871052Y-89648757D01*
X143870776Y-89648192D01*
X143870775Y-89648189D01*
X143814640Y-89564177D01*
X143794116Y-89533460D01*
X143696539Y-89435883D01*
X143629599Y-89391156D01*
X143616079Y-89377635D01*
X143611936Y-89371434D01*
X143604619Y-89334664D01*
X143605045Y-89332520D01*
X143625874Y-89301333D01*
X143625884Y-89301326D01*
X143638600Y-89292830D01*
X143696539Y-89254116D01*
X143696542Y-89254114D01*
X143711982Y-89238674D01*
X143794114Y-89156542D01*
X143870775Y-89041811D01*
X143923580Y-88914328D01*
X143950500Y-88778993D01*
X143950500Y-88641007D01*
X143935844Y-88567326D01*
X143935845Y-88548205D01*
X143936773Y-88543543D01*
X143957613Y-88512363D01*
X143994396Y-88505052D01*
X144025576Y-88525892D01*
X144027259Y-88528599D01*
X144039535Y-88549862D01*
X144100138Y-88610465D01*
X144127304Y-88626149D01*
X144174359Y-88653317D01*
X144174360Y-88653317D01*
X144174362Y-88653318D01*
X144239651Y-88670812D01*
X144254046Y-88674669D01*
X144256493Y-88675500D01*
X144342856Y-88675500D01*
X144349650Y-88675500D01*
X144355535Y-88672101D01*
X144425638Y-88653318D01*
X144499862Y-88610465D01*
X144560465Y-88549862D01*
X144603318Y-88475638D01*
X144622101Y-88405535D01*
X144625500Y-88399649D01*
X144625500Y-88308760D01*
X144625500Y-88307144D01*
X144625499Y-88307143D01*
X144625498Y-88307139D01*
X146499500Y-88307139D01*
X146499500Y-88392858D01*
X146520037Y-88469504D01*
X146520038Y-88469507D01*
X146521681Y-88475636D01*
X146521682Y-88475640D01*
X146556259Y-88535527D01*
X146556518Y-88535977D01*
X146556521Y-88535981D01*
X146564532Y-88549858D01*
X146564534Y-88549860D01*
X146564535Y-88549862D01*
X146625138Y-88610465D01*
X146652304Y-88626149D01*
X146699359Y-88653317D01*
X146699360Y-88653317D01*
X146699362Y-88653318D01*
X146764651Y-88670812D01*
X146779046Y-88674669D01*
X146781493Y-88675500D01*
X146867856Y-88675500D01*
X146874650Y-88675500D01*
X146880535Y-88672101D01*
X146950638Y-88653318D01*
X147024862Y-88610465D01*
X147085465Y-88549862D01*
X147128318Y-88475638D01*
X147147101Y-88405535D01*
X147150500Y-88399649D01*
X147150500Y-88306494D01*
X147149671Y-88304056D01*
X147145812Y-88289651D01*
X147128318Y-88224362D01*
X147128317Y-88224361D01*
X147128317Y-88224359D01*
X147094555Y-88165883D01*
X147088642Y-88155641D01*
X147085469Y-88150144D01*
X147085466Y-88150141D01*
X147085465Y-88150138D01*
X147024862Y-88089535D01*
X147008108Y-88079862D01*
X147008107Y-88079861D01*
X146950640Y-88046682D01*
X146950612Y-88046670D01*
X146950216Y-88046568D01*
X146867859Y-88024500D01*
X146867856Y-88024500D01*
X146867853Y-88024500D01*
X146782147Y-88024500D01*
X146782144Y-88024500D01*
X146782141Y-88024500D01*
X146699782Y-88046568D01*
X146699388Y-88046670D01*
X146699358Y-88046682D01*
X146623231Y-88090635D01*
X146620573Y-88094099D01*
X146569099Y-88145573D01*
X146565635Y-88148231D01*
X146521682Y-88224358D01*
X146521670Y-88224388D01*
X146521568Y-88224782D01*
X146499500Y-88307139D01*
X144625498Y-88307139D01*
X144620812Y-88289651D01*
X144613794Y-88263458D01*
X144603318Y-88224360D01*
X144578253Y-88180948D01*
X144569555Y-88165883D01*
X144563642Y-88155641D01*
X144560469Y-88150144D01*
X144560466Y-88150141D01*
X144560465Y-88150138D01*
X144499862Y-88089535D01*
X144483108Y-88079862D01*
X144483107Y-88079861D01*
X144425640Y-88046682D01*
X144425612Y-88046670D01*
X144425216Y-88046568D01*
X144342859Y-88024500D01*
X144342856Y-88024500D01*
X144342853Y-88024500D01*
X144257147Y-88024500D01*
X144257144Y-88024500D01*
X144257141Y-88024500D01*
X144174782Y-88046568D01*
X144174388Y-88046670D01*
X144174358Y-88046682D01*
X144098231Y-88090635D01*
X144095573Y-88094099D01*
X144044099Y-88145573D01*
X144040635Y-88148231D01*
X143996682Y-88224358D01*
X143996670Y-88224388D01*
X143996568Y-88224782D01*
X143974500Y-88307139D01*
X143974500Y-88372516D01*
X143970768Y-88391272D01*
X143968749Y-88396145D01*
X143942228Y-88422661D01*
X143904725Y-88422657D01*
X143878211Y-88396141D01*
X143871438Y-88379790D01*
X143871052Y-88378757D01*
X143870776Y-88378192D01*
X143870775Y-88378189D01*
X143812159Y-88290464D01*
X143794116Y-88263460D01*
X143794115Y-88263458D01*
X143794114Y-88263457D01*
X143696539Y-88165883D01*
X143629599Y-88121156D01*
X143616079Y-88107635D01*
X143611936Y-88101434D01*
X143604618Y-88064668D01*
X143605044Y-88062523D01*
X143625868Y-88031336D01*
X143694002Y-87985810D01*
X143694944Y-87985264D01*
X143695820Y-87984633D01*
X143697258Y-87983634D01*
X143708627Y-87976037D01*
X143708739Y-87974901D01*
X143717303Y-87963352D01*
X143794114Y-87886542D01*
X143870775Y-87771811D01*
X143923580Y-87644328D01*
X143950500Y-87508993D01*
X143950500Y-87371007D01*
X143950326Y-87370134D01*
X143938273Y-87309536D01*
X143931531Y-87275641D01*
X143923582Y-87235681D01*
X143923579Y-87235670D01*
X143922606Y-87233320D01*
X143922605Y-87233319D01*
X143884631Y-87141641D01*
X143870775Y-87108189D01*
X143814764Y-87024363D01*
X143794116Y-86993460D01*
X143794115Y-86993458D01*
X143794114Y-86993457D01*
X143696539Y-86895883D01*
X143619677Y-86844526D01*
X143619664Y-86844518D01*
X143619160Y-86844181D01*
X143581811Y-86819225D01*
X143581808Y-86819223D01*
X143581807Y-86819223D01*
X143575675Y-86816683D01*
X143575672Y-86816681D01*
X143454326Y-86766418D01*
X143454327Y-86766418D01*
X143319001Y-86739500D01*
X143318998Y-86739500D01*
X143318993Y-86739500D01*
X142509247Y-86739500D01*
X142490499Y-86735771D01*
X142483601Y-86732914D01*
X142457085Y-86706398D01*
X142454227Y-86699497D01*
X142450500Y-86680752D01*
X142450500Y-86113093D01*
X142454229Y-86094343D01*
X142454230Y-86094340D01*
X142461123Y-86077699D01*
X142471741Y-86061808D01*
X143561808Y-84971741D01*
X143577699Y-84961123D01*
X143594344Y-84954228D01*
X143613093Y-84950500D01*
X145450753Y-84950500D01*
X145469499Y-84954227D01*
G37*
%TD.AperFunction*%
%TD*%
M02*
