%TF.GenerationSoftware,KiCad,Pcbnew,10.0.0*%
%TF.CreationDate,2026-04-03T19:02:08+02:00*%
%TF.ProjectId,Core_Module,436f7265-5f4d-46f6-9475-6c652e6b6963,2.0*%
%TF.SameCoordinates,Original*%
%TF.FileFunction,Soldermask,Bot*%
%TF.FilePolarity,Negative*%
%FSLAX46Y46*%
G04 Gerber Fmt 4.6, Leading zero omitted, Abs format (unit mm)*
G04 Created by KiCad (PCBNEW 10.0.0) date 2026-04-03 19:02:08*
%MOMM*%
%LPD*%
G01*
G04 APERTURE LIST*
%ADD10C,1.000000*%
%ADD11O,3.000000X1.000000*%
%ADD12O,1.000000X3.000000*%
G04 APERTURE END LIST*
D10*
%TO.C,J201*%
X143250000Y-95060000D03*
D11*
X142250000Y-95060000D03*
D10*
X143250000Y-93790000D03*
D11*
X142250000Y-93790000D03*
D10*
X143250000Y-92520000D03*
D11*
X142250000Y-92520000D03*
D10*
X143250000Y-91250000D03*
D11*
X142250000Y-91250000D03*
D10*
X143250000Y-89980000D03*
D11*
X142250000Y-89980000D03*
D10*
X143250000Y-88710000D03*
D11*
X142250000Y-88710000D03*
D10*
X143250000Y-87440000D03*
D11*
X142250000Y-87440000D03*
%TD*%
D10*
%TO.C,J205*%
X152560000Y-85750000D03*
D12*
X152560000Y-84750000D03*
D10*
X151290000Y-85750000D03*
D12*
X151290000Y-84750000D03*
D10*
X150020000Y-85750000D03*
D12*
X150020000Y-84750000D03*
D10*
X148750000Y-85750000D03*
D12*
X148750000Y-84750000D03*
D10*
X147480000Y-85750000D03*
D12*
X147480000Y-84750000D03*
D10*
X146210000Y-85750000D03*
D12*
X146210000Y-84750000D03*
%TD*%
D10*
%TO.C,J203*%
X154250000Y-87440000D03*
D11*
X155250000Y-87440000D03*
D10*
X154250000Y-88710000D03*
D11*
X155250000Y-88710000D03*
D10*
X154250000Y-89980000D03*
D11*
X155250000Y-89980000D03*
D10*
X154250000Y-91250000D03*
D11*
X155250000Y-91250000D03*
D10*
X154250000Y-92520000D03*
D11*
X155250000Y-92520000D03*
D10*
X154250000Y-93790000D03*
D11*
X155250000Y-93790000D03*
D10*
X154250000Y-95060000D03*
D11*
X155250000Y-95060000D03*
%TD*%
D10*
%TO.C,J202*%
X152560000Y-96750000D03*
D12*
X152560000Y-97750000D03*
D10*
X151290000Y-96750000D03*
D12*
X151290000Y-97750000D03*
D10*
X150020000Y-96750000D03*
D12*
X150020000Y-97750000D03*
D10*
X148750000Y-96750000D03*
D12*
X148750000Y-97750000D03*
D10*
X147480000Y-96750000D03*
D12*
X147480000Y-97750000D03*
D10*
X146210000Y-96750000D03*
D12*
X146210000Y-97750000D03*
D10*
X144940000Y-96750000D03*
D12*
X144940000Y-97750000D03*
%TD*%
M02*
