%TF.GenerationSoftware,KiCad,Pcbnew,10.0.0*%
%TF.CreationDate,2026-04-03T19:02:08+02:00*%
%TF.ProjectId,Core_Module,436f7265-5f4d-46f6-9475-6c652e6b6963,2.0*%
%TF.SameCoordinates,Original*%
%TF.FileFunction,Soldermask,Top*%
%TF.FilePolarity,Negative*%
%FSLAX46Y46*%
G04 Gerber Fmt 4.6, Leading zero omitted, Abs format (unit mm)*
G04 Created by KiCad (PCBNEW 10.0.0) date 2026-04-03 19:02:08*
%MOMM*%
%LPD*%
G01*
G04 APERTURE LIST*
G04 Aperture macros list*
%AMRoundRect*
0 Rectangle with rounded corners*
0 $1 Rounding radius*
0 $2 $3 $4 $5 $6 $7 $8 $9 X,Y pos of 4 corners*
0 Add a 4 corners polygon primitive as box body*
4,1,4,$2,$3,$4,$5,$6,$7,$8,$9,$2,$3,0*
0 Add four circle primitives for the rounded corners*
1,1,$1+$1,$2,$3*
1,1,$1+$1,$4,$5*
1,1,$1+$1,$6,$7*
1,1,$1+$1,$8,$9*
0 Add four rect primitives between the rounded corners*
20,1,$1+$1,$2,$3,$4,$5,0*
20,1,$1+$1,$4,$5,$6,$7,0*
20,1,$1+$1,$6,$7,$8,$9,0*
20,1,$1+$1,$8,$9,$2,$3,0*%
%AMFreePoly0*
4,1,6,0.180000,0.075000,0.000000,-0.105000,-0.180000,-0.105000,-0.180000,0.105000,0.180000,0.105000,0.180000,0.075000,0.180000,0.075000,$1*%
%AMFreePoly1*
4,1,6,0.180000,-0.075000,0.180000,-0.105000,-0.180000,-0.105000,-0.180000,0.105000,0.000000,0.105000,0.180000,-0.075000,0.180000,-0.075000,$1*%
%AMFreePoly2*
4,1,6,0.180000,-0.105000,0.000000,-0.105000,-0.180000,0.075000,-0.180000,0.105000,0.180000,0.105000,0.180000,-0.105000,0.180000,-0.105000,$1*%
%AMFreePoly3*
4,1,6,0.180000,-0.105000,-0.180000,-0.105000,-0.180000,-0.075000,0.000000,0.105000,0.180000,0.105000,0.180000,-0.105000,0.180000,-0.105000,$1*%
G04 Aperture macros list end*
%ADD10C,0.200000*%
%ADD11RoundRect,0.100000X-0.100000X0.130000X-0.100000X-0.130000X0.100000X-0.130000X0.100000X0.130000X0*%
%ADD12R,0.240000X0.170000*%
%ADD13RoundRect,0.100000X-0.130000X-0.100000X0.130000X-0.100000X0.130000X0.100000X-0.130000X0.100000X0*%
%ADD14RoundRect,0.100000X0.100000X-0.130000X0.100000X0.130000X-0.100000X0.130000X-0.100000X-0.130000X0*%
%ADD15FreePoly0,270.000000*%
%ADD16FreePoly1,270.000000*%
%ADD17FreePoly2,270.000000*%
%ADD18FreePoly3,270.000000*%
%ADD19RoundRect,0.120000X-0.169706X0.000000X0.000000X-0.169706X0.169706X0.000000X0.000000X0.169706X0*%
%ADD20RoundRect,0.100000X0.130000X0.100000X-0.130000X0.100000X-0.130000X-0.100000X0.130000X-0.100000X0*%
%ADD21C,1.000000*%
%ADD22O,3.000000X1.000000*%
%ADD23R,0.170000X0.240000*%
%ADD24RoundRect,0.045000X0.255000X0.105000X-0.255000X0.105000X-0.255000X-0.105000X0.255000X-0.105000X0*%
%ADD25RoundRect,0.030000X-0.070000X0.370000X-0.070000X-0.370000X0.070000X-0.370000X0.070000X0.370000X0*%
%ADD26O,1.000000X3.000000*%
%ADD27R,0.500000X0.600000*%
%ADD28C,0.340000*%
G04 APERTURE END LIST*
D10*
X145400000Y-85300000D02*
X145000000Y-85300000D01*
X145200000Y-85050000D01*
X145400000Y-85300000D01*
G36*
X145400000Y-85300000D02*
G01*
X145000000Y-85300000D01*
X145200000Y-85050000D01*
X145400000Y-85300000D01*
G37*
D11*
%TO.C,C101*%
X145250000Y-92130000D03*
X145250000Y-92770000D03*
%TD*%
D12*
%TO.C,D203*%
X153200000Y-94700000D03*
X153200000Y-95060000D03*
%TD*%
%TO.C,D211*%
X144300000Y-89620000D03*
X144300000Y-89980000D03*
%TD*%
%TO.C,D214*%
X144300000Y-93430000D03*
X144300000Y-93790000D03*
%TD*%
%TO.C,D219*%
X153200000Y-90890000D03*
X153200000Y-91250000D03*
%TD*%
%TO.C,D213*%
X144300000Y-92160000D03*
X144300000Y-92520000D03*
%TD*%
D13*
%TO.C,C116*%
X151330000Y-90700000D03*
X151970000Y-90700000D03*
%TD*%
D14*
%TO.C,C107*%
X147650000Y-90520566D03*
X147650000Y-89880566D03*
%TD*%
D15*
%TO.C,U101*%
X147150000Y-87920000D03*
D16*
X146500000Y-87920000D03*
D17*
X147150000Y-88780000D03*
D18*
X146500000Y-88780000D03*
D19*
X146825000Y-88350000D03*
%TD*%
D20*
%TO.C,C105*%
X147170000Y-87150000D03*
X146530000Y-87150000D03*
%TD*%
D12*
%TO.C,D226*%
X145200000Y-86262500D03*
X145200000Y-85902500D03*
%TD*%
D20*
%TO.C,C115*%
X149370000Y-87150000D03*
X148730000Y-87150000D03*
%TD*%
D21*
%TO.C,J201*%
X143250000Y-95060000D03*
D22*
X142250000Y-95060000D03*
D21*
X143250000Y-93790000D03*
D22*
X142250000Y-93790000D03*
D21*
X143250000Y-92520000D03*
D22*
X142250000Y-92520000D03*
D21*
X143250000Y-91250000D03*
D22*
X142250000Y-91250000D03*
D21*
X143250000Y-89980000D03*
D22*
X142250000Y-89980000D03*
D21*
X143250000Y-88710000D03*
D22*
X142250000Y-88710000D03*
D21*
X143250000Y-87440000D03*
D22*
X142250000Y-87440000D03*
%TD*%
D14*
%TO.C,C112*%
X148950000Y-94725000D03*
X148950000Y-94085000D03*
%TD*%
D23*
%TO.C,D206*%
X150380000Y-95700000D03*
X150020000Y-95700000D03*
%TD*%
D14*
%TO.C,R103*%
X144300000Y-87570000D03*
X144300000Y-86930000D03*
%TD*%
D12*
%TO.C,D202*%
X153200000Y-93430000D03*
X153200000Y-93790000D03*
%TD*%
D13*
%TO.C,R104*%
X149930000Y-90700000D03*
X150570000Y-90700000D03*
%TD*%
D14*
%TO.C,C114*%
X150150000Y-88520000D03*
X150150000Y-87880000D03*
%TD*%
D12*
%TO.C,D223*%
X152450000Y-87197500D03*
X152450000Y-86837500D03*
%TD*%
D24*
%TO.C,U105*%
X152250000Y-94450000D03*
X152250000Y-93650000D03*
X152250000Y-92850000D03*
X152250000Y-92050000D03*
D25*
X151050000Y-94050000D03*
X151050000Y-92450000D03*
D24*
X149850000Y-92050000D03*
X149850000Y-92850000D03*
X149850000Y-93650000D03*
X149850000Y-94450000D03*
%TD*%
D14*
%TO.C,C104*%
X147950000Y-88520000D03*
X147950000Y-87880000D03*
%TD*%
D12*
%TO.C,D212*%
X144300000Y-90890000D03*
X144300000Y-91250000D03*
%TD*%
D14*
%TO.C,C103*%
X145250000Y-94470000D03*
X145250000Y-93830000D03*
%TD*%
D21*
%TO.C,J205*%
X152560000Y-85750000D03*
D26*
X152560000Y-84750000D03*
D21*
X151290000Y-85750000D03*
D26*
X151290000Y-84750000D03*
D21*
X150020000Y-85750000D03*
D26*
X150020000Y-84750000D03*
D21*
X148750000Y-85750000D03*
D26*
X148750000Y-84750000D03*
D21*
X147480000Y-85750000D03*
D26*
X147480000Y-84750000D03*
D21*
X146210000Y-85750000D03*
D26*
X146210000Y-84750000D03*
%TD*%
D23*
%TO.C,D208*%
X147840000Y-95700000D03*
X147480000Y-95700000D03*
%TD*%
D21*
%TO.C,J203*%
X154250000Y-87440000D03*
D22*
X155250000Y-87440000D03*
D21*
X154250000Y-88710000D03*
D22*
X155250000Y-88710000D03*
D21*
X154250000Y-89980000D03*
D22*
X155250000Y-89980000D03*
D21*
X154250000Y-91250000D03*
D22*
X155250000Y-91250000D03*
D21*
X154250000Y-92520000D03*
D22*
X155250000Y-92520000D03*
D21*
X154250000Y-93790000D03*
D22*
X155250000Y-93790000D03*
D21*
X154250000Y-95060000D03*
D22*
X155250000Y-95060000D03*
%TD*%
D12*
%TO.C,D224*%
X150200000Y-87147500D03*
X150200000Y-86787500D03*
%TD*%
D15*
%TO.C,U104*%
X149375000Y-87920000D03*
D16*
X148725000Y-87920000D03*
D17*
X149375000Y-88780000D03*
D18*
X148725000Y-88780000D03*
D19*
X149050000Y-88350000D03*
%TD*%
D12*
%TO.C,D220*%
X144300000Y-94700000D03*
X144300000Y-95060000D03*
%TD*%
D23*
%TO.C,D205*%
X151650000Y-95700000D03*
X151290000Y-95700000D03*
%TD*%
D14*
%TO.C,R105*%
X148950000Y-92415000D03*
X148950000Y-91775000D03*
%TD*%
%TO.C,D101*%
X143800000Y-85802500D03*
X143800000Y-85162500D03*
%TD*%
D20*
%TO.C,C109*%
X151623199Y-87150000D03*
X150983199Y-87150000D03*
%TD*%
D12*
%TO.C,D201*%
X153200000Y-92160000D03*
X153200000Y-92520000D03*
%TD*%
%TO.C,D218*%
X153200000Y-89620000D03*
X153200000Y-89980000D03*
%TD*%
D15*
%TO.C,U103*%
X151600000Y-87920000D03*
D16*
X150950000Y-87920000D03*
D17*
X151600000Y-88780000D03*
D18*
X150950000Y-88780000D03*
D19*
X151275000Y-88350000D03*
%TD*%
D27*
%TO.C,Y101*%
X146100000Y-91100000D03*
X146100000Y-90000000D03*
X145300000Y-90000000D03*
X145300000Y-91100000D03*
%TD*%
D12*
%TO.C,D215*%
X144300000Y-88350000D03*
X144300000Y-88710000D03*
%TD*%
%TO.C,D222*%
X153600000Y-85902500D03*
X153600000Y-86262500D03*
%TD*%
D23*
%TO.C,D204*%
X152920000Y-95700000D03*
X152560000Y-95700000D03*
%TD*%
%TO.C,D207*%
X149110000Y-95700000D03*
X148750000Y-95700000D03*
%TD*%
D14*
%TO.C,R101*%
X146950000Y-90522170D03*
X146950000Y-89882170D03*
%TD*%
D12*
%TO.C,D217*%
X153200000Y-88350000D03*
X153200000Y-88710000D03*
%TD*%
D28*
%TO.C,U102*%
X146100000Y-92700000D03*
X146500000Y-92700000D03*
X146900000Y-92700000D03*
X147300000Y-92700000D03*
X147700000Y-92700000D03*
X148100000Y-92700000D03*
X146100000Y-93100000D03*
X146500000Y-93100000D03*
X146900000Y-93100000D03*
X147300000Y-93100000D03*
X147700000Y-93100000D03*
X148100000Y-93100000D03*
X146100000Y-93500000D03*
X146500000Y-93500000D03*
X146900000Y-93500000D03*
X147300000Y-93500000D03*
X147700000Y-93500000D03*
X148100000Y-93500000D03*
X146100000Y-93900000D03*
X146500000Y-93900000D03*
X146900000Y-93900000D03*
X147300000Y-93900000D03*
X147700000Y-93900000D03*
X148100000Y-93900000D03*
X146100000Y-94300000D03*
X146500000Y-94300000D03*
X146900000Y-94300000D03*
X147300000Y-94300000D03*
X147700000Y-94300000D03*
X148100000Y-94300000D03*
X146100000Y-94700000D03*
X146500000Y-94700000D03*
X146900000Y-94700000D03*
X147300000Y-94700000D03*
X147700000Y-94700000D03*
X148100000Y-94700000D03*
%TD*%
D14*
%TO.C,C110*%
X145700000Y-88520000D03*
X145700000Y-87880000D03*
%TD*%
D12*
%TO.C,D216*%
X153200000Y-87080000D03*
X153200000Y-87440000D03*
%TD*%
D21*
%TO.C,J202*%
X152560000Y-96750000D03*
D26*
X152560000Y-97750000D03*
D21*
X151290000Y-96750000D03*
D26*
X151290000Y-97750000D03*
D21*
X150020000Y-96750000D03*
D26*
X150020000Y-97750000D03*
D21*
X148750000Y-96750000D03*
D26*
X148750000Y-97750000D03*
D21*
X147480000Y-96750000D03*
D26*
X147480000Y-97750000D03*
D21*
X146210000Y-96750000D03*
D26*
X146210000Y-97750000D03*
D21*
X144940000Y-96750000D03*
D26*
X144940000Y-97750000D03*
%TD*%
D14*
%TO.C,C108*%
X152400000Y-88670000D03*
X152400000Y-88030000D03*
%TD*%
D23*
%TO.C,D209*%
X145300000Y-95700000D03*
X144940000Y-95700000D03*
%TD*%
D14*
%TO.C,C113*%
X146850000Y-91870000D03*
X146850000Y-91230000D03*
%TD*%
%TO.C,D102*%
X144500000Y-85802500D03*
X144500000Y-85162500D03*
%TD*%
%TO.C,R106*%
X145000000Y-87570000D03*
X145000000Y-86930000D03*
%TD*%
D12*
%TO.C,D221*%
X145750000Y-87147500D03*
X145750000Y-86787500D03*
%TD*%
D23*
%TO.C,D210*%
X146570000Y-95700000D03*
X146210000Y-95700000D03*
%TD*%
D12*
%TO.C,D225*%
X148000000Y-87147500D03*
X148000000Y-86787500D03*
%TD*%
M02*
