%TF.GenerationSoftware,KiCad,Pcbnew,9.0.6*%
%TF.CreationDate,2025-12-28T23:39:18+01:00*%
%TF.ProjectId,Programmer_Sensor_Stencil,50726f67-7261-46d6-9d65-725f53656e73,rev?*%
%TF.SameCoordinates,Original*%
%TF.FileFunction,Paste,Top*%
%TF.FilePolarity,Positive*%
%FSLAX46Y46*%
G04 Gerber Fmt 4.6, Leading zero omitted, Abs format (unit mm)*
G04 Created by KiCad (PCBNEW 9.0.6) date 2025-12-28 23:39:18*
%MOMM*%
%LPD*%
G01*
G04 APERTURE LIST*
G04 Aperture macros list*
%AMRoundRect*
0 Rectangle with rounded corners*
0 $1 Rounding radius*
0 $2 $3 $4 $5 $6 $7 $8 $9 X,Y pos of 4 corners*
0 Add a 4 corners polygon primitive as box body*
4,1,4,$2,$3,$4,$5,$6,$7,$8,$9,$2,$3,0*
0 Add four circle primitives for the rounded corners*
1,1,$1+$1,$2,$3*
1,1,$1+$1,$4,$5*
1,1,$1+$1,$6,$7*
1,1,$1+$1,$8,$9*
0 Add four rect primitives between the rounded corners*
20,1,$1+$1,$2,$3,$4,$5,0*
20,1,$1+$1,$4,$5,$6,$7,0*
20,1,$1+$1,$6,$7,$8,$9,0*
20,1,$1+$1,$8,$9,$2,$3,0*%
%AMFreePoly0*
4,1,6,0.220000,-0.105000,-0.180000,-0.105000,-0.180000,-0.075000,0.000000,0.105000,0.220000,0.105000,0.220000,-0.105000,0.220000,-0.105000,$1*%
%AMFreePoly1*
4,1,6,0.220000,-0.105000,0.000000,-0.105000,-0.180000,0.075000,-0.180000,0.105000,0.220000,0.105000,0.220000,-0.105000,0.220000,-0.105000,$1*%
%AMFreePoly2*
4,1,6,0.180000,-0.075000,0.180000,-0.105000,-0.220000,-0.105000,-0.220000,0.105000,0.000000,0.105000,0.180000,-0.075000,0.180000,-0.075000,$1*%
%AMFreePoly3*
4,1,6,0.180000,0.075000,0.000000,-0.105000,-0.220000,-0.105000,-0.220000,0.105000,0.180000,0.105000,0.180000,0.075000,0.180000,0.075000,$1*%
G04 Aperture macros list end*
%ADD10C,0.010000*%
%ADD11RoundRect,0.135000X-0.185000X0.135000X-0.185000X-0.135000X0.185000X-0.135000X0.185000X0.135000X0*%
%ADD12RoundRect,0.200000X0.200000X0.275000X-0.200000X0.275000X-0.200000X-0.275000X0.200000X-0.275000X0*%
%ADD13RoundRect,0.140000X0.170000X-0.140000X0.170000X0.140000X-0.170000X0.140000X-0.170000X-0.140000X0*%
%ADD14RoundRect,0.218750X-0.256250X0.218750X-0.256250X-0.218750X0.256250X-0.218750X0.256250X0.218750X0*%
%ADD15RoundRect,0.147500X-0.172500X0.147500X-0.172500X-0.147500X0.172500X-0.147500X0.172500X0.147500X0*%
%ADD16RoundRect,0.140000X-0.140000X-0.170000X0.140000X-0.170000X0.140000X0.170000X-0.140000X0.170000X0*%
%ADD17RoundRect,0.135000X-0.135000X-0.185000X0.135000X-0.185000X0.135000X0.185000X-0.135000X0.185000X0*%
%ADD18RoundRect,0.135000X0.185000X-0.135000X0.185000X0.135000X-0.185000X0.135000X-0.185000X-0.135000X0*%
%ADD19RoundRect,0.225000X-0.225000X-0.250000X0.225000X-0.250000X0.225000X0.250000X-0.225000X0.250000X0*%
%ADD20RoundRect,0.225000X-0.250000X0.225000X-0.250000X-0.225000X0.250000X-0.225000X0.250000X0.225000X0*%
%ADD21RoundRect,0.135000X0.135000X0.185000X-0.135000X0.185000X-0.135000X-0.185000X0.135000X-0.185000X0*%
%ADD22RoundRect,0.112500X0.000000X0.159099X-0.159099X0.000000X0.000000X-0.159099X0.159099X0.000000X0*%
%ADD23FreePoly0,180.000000*%
%ADD24FreePoly1,180.000000*%
%ADD25FreePoly2,180.000000*%
%ADD26FreePoly3,180.000000*%
%ADD27C,0.270000*%
%ADD28O,0.100000X0.300000*%
%ADD29O,0.300000X0.100000*%
%ADD30RoundRect,0.140000X0.140000X0.170000X-0.140000X0.170000X-0.140000X-0.170000X0.140000X-0.170000X0*%
%ADD31RoundRect,0.147500X0.147500X0.172500X-0.147500X0.172500X-0.147500X-0.172500X0.147500X-0.172500X0*%
%ADD32RoundRect,0.150000X-0.150000X0.512500X-0.150000X-0.512500X0.150000X-0.512500X0.150000X0.512500X0*%
%ADD33RoundRect,0.147500X0.172500X-0.147500X0.172500X0.147500X-0.172500X0.147500X-0.172500X-0.147500X0*%
%ADD34RoundRect,0.225000X0.225000X0.250000X-0.225000X0.250000X-0.225000X-0.250000X0.225000X-0.250000X0*%
%ADD35RoundRect,0.112500X0.159099X0.000000X0.000000X0.159099X-0.159099X0.000000X0.000000X-0.159099X0*%
%ADD36FreePoly0,90.000000*%
%ADD37FreePoly1,90.000000*%
%ADD38FreePoly2,90.000000*%
%ADD39FreePoly3,90.000000*%
%ADD40RoundRect,0.250000X-1.100000X0.325000X-1.100000X-0.325000X1.100000X-0.325000X1.100000X0.325000X0*%
%ADD41RoundRect,0.140000X-0.170000X0.140000X-0.170000X-0.140000X0.170000X-0.140000X0.170000X0.140000X0*%
%ADD42RoundRect,0.218750X0.256250X-0.218750X0.256250X0.218750X-0.256250X0.218750X-0.256250X-0.218750X0*%
%ADD43R,0.900000X0.700000*%
%ADD44R,0.600000X0.510000*%
%ADD45RoundRect,0.147500X-0.147500X-0.172500X0.147500X-0.172500X0.147500X0.172500X-0.147500X0.172500X0*%
%ADD46R,0.550000X0.365000*%
%ADD47R,0.550000X0.250000*%
%ADD48RoundRect,0.250000X0.335000X0.335000X-0.335000X0.335000X-0.335000X-0.335000X0.335000X-0.335000X0*%
%ADD49RoundRect,0.062500X0.337500X0.062500X-0.337500X0.062500X-0.337500X-0.062500X0.337500X-0.062500X0*%
%ADD50RoundRect,0.062500X0.062500X0.337500X-0.062500X0.337500X-0.062500X-0.337500X0.062500X-0.337500X0*%
%ADD51FreePoly3,270.000000*%
%ADD52FreePoly2,270.000000*%
%ADD53FreePoly1,270.000000*%
%ADD54FreePoly0,270.000000*%
%ADD55RoundRect,0.112500X-0.159099X0.000000X0.000000X-0.159099X0.159099X0.000000X0.000000X0.159099X0*%
%ADD56RoundRect,0.130000X0.130000X0.150000X-0.130000X0.150000X-0.130000X-0.150000X0.130000X-0.150000X0*%
%ADD57RoundRect,0.062500X0.325000X0.062500X-0.325000X0.062500X-0.325000X-0.062500X0.325000X-0.062500X0*%
%ADD58RoundRect,0.150000X0.512500X0.150000X-0.512500X0.150000X-0.512500X-0.150000X0.512500X-0.150000X0*%
%ADD59RoundRect,0.218750X0.218750X0.256250X-0.218750X0.256250X-0.218750X-0.256250X0.218750X-0.256250X0*%
%ADD60RoundRect,0.225000X0.250000X-0.225000X0.250000X0.225000X-0.250000X0.225000X-0.250000X-0.225000X0*%
%ADD61RoundRect,0.150000X0.425000X-0.150000X0.425000X0.150000X-0.425000X0.150000X-0.425000X-0.150000X0*%
%ADD62RoundRect,0.075000X0.500000X-0.075000X0.500000X0.075000X-0.500000X0.075000X-0.500000X-0.075000X0*%
%ADD63O,2.100000X1.000000*%
%ADD64O,1.800000X1.000000*%
G04 APERTURE END LIST*
%TO.C,U502*%
D10*
X133518799Y-76619100D02*
X133968799Y-76619100D01*
X133968799Y-76819100D01*
X133518799Y-76819100D01*
X133518799Y-76619100D01*
G36*
X133518799Y-76619100D02*
G01*
X133968799Y-76619100D01*
X133968799Y-76819100D01*
X133518799Y-76819100D01*
X133518799Y-76619100D01*
G37*
X133518799Y-76119100D02*
X133968799Y-76119100D01*
X133968799Y-76319100D01*
X133518799Y-76319100D01*
X133518799Y-76119100D01*
G36*
X133518799Y-76119100D02*
G01*
X133968799Y-76119100D01*
X133968799Y-76319100D01*
X133518799Y-76319100D01*
X133518799Y-76119100D01*
G37*
X133518799Y-75619100D02*
X133968799Y-75619100D01*
X133968799Y-75819100D01*
X133518799Y-75819100D01*
X133518799Y-75619100D01*
G36*
X133518799Y-75619100D02*
G01*
X133968799Y-75619100D01*
X133968799Y-75819100D01*
X133518799Y-75819100D01*
X133518799Y-75619100D01*
G37*
X133518799Y-75119100D02*
X133968799Y-75119100D01*
X133968799Y-75319100D01*
X133518799Y-75319100D01*
X133518799Y-75119100D01*
G36*
X133518799Y-75119100D02*
G01*
X133968799Y-75119100D01*
X133968799Y-75319100D01*
X133518799Y-75319100D01*
X133518799Y-75119100D01*
G37*
X133518799Y-74619100D02*
X133968799Y-74619100D01*
X133968799Y-74819100D01*
X133518799Y-74819100D01*
X133518799Y-74619100D01*
G36*
X133518799Y-74619100D02*
G01*
X133968799Y-74619100D01*
X133968799Y-74819100D01*
X133518799Y-74819100D01*
X133518799Y-74619100D01*
G37*
X132743799Y-76619100D02*
X133193799Y-76619100D01*
X133193799Y-76819100D01*
X132743799Y-76819100D01*
X132743799Y-76619100D01*
G36*
X132743799Y-76619100D02*
G01*
X133193799Y-76619100D01*
X133193799Y-76819100D01*
X132743799Y-76819100D01*
X132743799Y-76619100D01*
G37*
X132743799Y-76119100D02*
X133193799Y-76119100D01*
X133193799Y-76319100D01*
X132743799Y-76319100D01*
X132743799Y-76119100D01*
G36*
X132743799Y-76119100D02*
G01*
X133193799Y-76119100D01*
X133193799Y-76319100D01*
X132743799Y-76319100D01*
X132743799Y-76119100D01*
G37*
X132743799Y-75619100D02*
X133193799Y-75619100D01*
X133193799Y-75819100D01*
X132743799Y-75819100D01*
X132743799Y-75619100D01*
G36*
X132743799Y-75619100D02*
G01*
X133193799Y-75619100D01*
X133193799Y-75819100D01*
X132743799Y-75819100D01*
X132743799Y-75619100D01*
G37*
X132743799Y-75119100D02*
X133193799Y-75119100D01*
X133193799Y-75319100D01*
X132743799Y-75319100D01*
X132743799Y-75119100D01*
G36*
X132743799Y-75119100D02*
G01*
X133193799Y-75119100D01*
X133193799Y-75319100D01*
X132743799Y-75319100D01*
X132743799Y-75119100D01*
G37*
X132743799Y-74619100D02*
X133193799Y-74619100D01*
X133193799Y-74819100D01*
X132743799Y-74819100D01*
X132743799Y-74619100D01*
G36*
X132743799Y-74619100D02*
G01*
X133193799Y-74619100D01*
X133193799Y-74819100D01*
X132743799Y-74819100D01*
X132743799Y-74619100D01*
G37*
%TO.C,U305*%
X161158799Y-81669100D02*
X160958799Y-81669100D01*
X160958799Y-82169100D01*
X161158799Y-82169100D01*
X161158799Y-81669100D01*
G36*
X161158799Y-81669100D02*
G01*
X160958799Y-81669100D01*
X160958799Y-82169100D01*
X161158799Y-82169100D01*
X161158799Y-81669100D01*
G37*
X161158799Y-79269100D02*
X160958799Y-79269100D01*
X160958799Y-79769100D01*
X161158799Y-79769100D01*
X161158799Y-79269100D01*
G36*
X161158799Y-79269100D02*
G01*
X160958799Y-79269100D01*
X160958799Y-79769100D01*
X161158799Y-79769100D01*
X161158799Y-79269100D01*
G37*
X161008799Y-80669100D02*
X160308799Y-80669100D01*
X160308799Y-80769100D01*
X161008799Y-80769100D01*
X161008799Y-80669100D01*
G36*
X161008799Y-80669100D02*
G01*
X160308799Y-80669100D01*
X160308799Y-80769100D01*
X161008799Y-80769100D01*
X161008799Y-80669100D01*
G37*
X160358799Y-81669100D02*
X160158799Y-81669100D01*
X160158799Y-82169100D01*
X160358799Y-82169100D01*
X160358799Y-81669100D01*
G36*
X160358799Y-81669100D02*
G01*
X160158799Y-81669100D01*
X160158799Y-82169100D01*
X160358799Y-82169100D01*
X160358799Y-81669100D01*
G37*
X160358799Y-79269100D02*
X160158799Y-79269100D01*
X160158799Y-79769100D01*
X160358799Y-79769100D01*
X160358799Y-79269100D01*
G36*
X160358799Y-79269100D02*
G01*
X160158799Y-79269100D01*
X160158799Y-79769100D01*
X160358799Y-79769100D01*
X160358799Y-79269100D01*
G37*
X159558799Y-81669100D02*
X159358799Y-81669100D01*
X159358799Y-82169100D01*
X159558799Y-82169100D01*
X159558799Y-81669100D01*
G36*
X159558799Y-81669100D02*
G01*
X159358799Y-81669100D01*
X159358799Y-82169100D01*
X159558799Y-82169100D01*
X159558799Y-81669100D01*
G37*
X159558799Y-79269100D02*
X159358799Y-79269100D01*
X159358799Y-79769100D01*
X159558799Y-79769100D01*
X159558799Y-79269100D01*
G36*
X159558799Y-79269100D02*
G01*
X159358799Y-79269100D01*
X159358799Y-79769100D01*
X159558799Y-79769100D01*
X159558799Y-79269100D01*
G37*
X159408799Y-80669100D02*
X158708799Y-80669100D01*
X158708799Y-80769100D01*
X159408799Y-80769100D01*
X159408799Y-80669100D01*
G36*
X159408799Y-80669100D02*
G01*
X158708799Y-80669100D01*
X158708799Y-80769100D01*
X159408799Y-80769100D01*
X159408799Y-80669100D01*
G37*
X158758799Y-81669100D02*
X158558799Y-81669100D01*
X158558799Y-82169100D01*
X158758799Y-82169100D01*
X158758799Y-81669100D01*
G36*
X158758799Y-81669100D02*
G01*
X158558799Y-81669100D01*
X158558799Y-82169100D01*
X158758799Y-82169100D01*
X158758799Y-81669100D01*
G37*
X158758799Y-79269100D02*
X158558799Y-79269100D01*
X158558799Y-79769100D01*
X158758799Y-79769100D01*
X158758799Y-79269100D01*
G36*
X158758799Y-79269100D02*
G01*
X158558799Y-79269100D01*
X158558799Y-79769100D01*
X158758799Y-79769100D01*
X158758799Y-79269100D01*
G37*
%TO.C,U302*%
X150733799Y-78706100D02*
X151183799Y-78706100D01*
X151183799Y-78906100D01*
X150733799Y-78906100D01*
X150733799Y-78706100D01*
G36*
X150733799Y-78706100D02*
G01*
X151183799Y-78706100D01*
X151183799Y-78906100D01*
X150733799Y-78906100D01*
X150733799Y-78706100D01*
G37*
X150733799Y-78206100D02*
X151183799Y-78206100D01*
X151183799Y-78406100D01*
X150733799Y-78406100D01*
X150733799Y-78206100D01*
G36*
X150733799Y-78206100D02*
G01*
X151183799Y-78206100D01*
X151183799Y-78406100D01*
X150733799Y-78406100D01*
X150733799Y-78206100D01*
G37*
X150733799Y-77706100D02*
X151183799Y-77706100D01*
X151183799Y-77906100D01*
X150733799Y-77906100D01*
X150733799Y-77706100D01*
G36*
X150733799Y-77706100D02*
G01*
X151183799Y-77706100D01*
X151183799Y-77906100D01*
X150733799Y-77906100D01*
X150733799Y-77706100D01*
G37*
X150733799Y-77206100D02*
X151183799Y-77206100D01*
X151183799Y-77406100D01*
X150733799Y-77406100D01*
X150733799Y-77206100D01*
G36*
X150733799Y-77206100D02*
G01*
X151183799Y-77206100D01*
X151183799Y-77406100D01*
X150733799Y-77406100D01*
X150733799Y-77206100D01*
G37*
X150733799Y-76706100D02*
X151183799Y-76706100D01*
X151183799Y-76906100D01*
X150733799Y-76906100D01*
X150733799Y-76706100D01*
G36*
X150733799Y-76706100D02*
G01*
X151183799Y-76706100D01*
X151183799Y-76906100D01*
X150733799Y-76906100D01*
X150733799Y-76706100D01*
G37*
X149958799Y-78706100D02*
X150408799Y-78706100D01*
X150408799Y-78906100D01*
X149958799Y-78906100D01*
X149958799Y-78706100D01*
G36*
X149958799Y-78706100D02*
G01*
X150408799Y-78706100D01*
X150408799Y-78906100D01*
X149958799Y-78906100D01*
X149958799Y-78706100D01*
G37*
X149958799Y-78206100D02*
X150408799Y-78206100D01*
X150408799Y-78406100D01*
X149958799Y-78406100D01*
X149958799Y-78206100D01*
G36*
X149958799Y-78206100D02*
G01*
X150408799Y-78206100D01*
X150408799Y-78406100D01*
X149958799Y-78406100D01*
X149958799Y-78206100D01*
G37*
X149958799Y-77706100D02*
X150408799Y-77706100D01*
X150408799Y-77906100D01*
X149958799Y-77906100D01*
X149958799Y-77706100D01*
G36*
X149958799Y-77706100D02*
G01*
X150408799Y-77706100D01*
X150408799Y-77906100D01*
X149958799Y-77906100D01*
X149958799Y-77706100D01*
G37*
X149958799Y-77206100D02*
X150408799Y-77206100D01*
X150408799Y-77406100D01*
X149958799Y-77406100D01*
X149958799Y-77206100D01*
G36*
X149958799Y-77206100D02*
G01*
X150408799Y-77206100D01*
X150408799Y-77406100D01*
X149958799Y-77406100D01*
X149958799Y-77206100D01*
G37*
X149958799Y-76706100D02*
X150408799Y-76706100D01*
X150408799Y-76906100D01*
X149958799Y-76906100D01*
X149958799Y-76706100D01*
G36*
X149958799Y-76706100D02*
G01*
X150408799Y-76706100D01*
X150408799Y-76906100D01*
X149958799Y-76906100D01*
X149958799Y-76706100D01*
G37*
%TO.C,Y301*%
X156538799Y-76779100D02*
X156838799Y-76779100D01*
X156838799Y-77179100D01*
X156538799Y-77179100D01*
X156538799Y-76779100D01*
G36*
X156538799Y-76779100D02*
G01*
X156838799Y-76779100D01*
X156838799Y-77179100D01*
X156538799Y-77179100D01*
X156538799Y-76779100D01*
G37*
X156538799Y-75679100D02*
X156838799Y-75679100D01*
X156838799Y-76079100D01*
X156538799Y-76079100D01*
X156538799Y-75679100D01*
G36*
X156538799Y-75679100D02*
G01*
X156838799Y-75679100D01*
X156838799Y-76079100D01*
X156538799Y-76079100D01*
X156538799Y-75679100D01*
G37*
X155738799Y-76779100D02*
X156038799Y-76779100D01*
X156038799Y-77179100D01*
X155738799Y-77179100D01*
X155738799Y-76779100D01*
G36*
X155738799Y-76779100D02*
G01*
X156038799Y-76779100D01*
X156038799Y-77179100D01*
X155738799Y-77179100D01*
X155738799Y-76779100D01*
G37*
X155738799Y-75679100D02*
X156038799Y-75679100D01*
X156038799Y-76079100D01*
X155738799Y-76079100D01*
X155738799Y-75679100D01*
G36*
X155738799Y-75679100D02*
G01*
X156038799Y-75679100D01*
X156038799Y-76079100D01*
X155738799Y-76079100D01*
X155738799Y-75679100D01*
G37*
%TO.C,U101*%
X146658799Y-83619100D02*
X145858799Y-83619100D01*
X145858799Y-83419100D01*
X146658799Y-83419100D01*
X146658799Y-83619100D01*
G36*
X146658799Y-83619100D02*
G01*
X145858799Y-83619100D01*
X145858799Y-83419100D01*
X146658799Y-83419100D01*
X146658799Y-83619100D01*
G37*
X146658799Y-83119100D02*
X145858799Y-83119100D01*
X145858799Y-82919100D01*
X146658799Y-82919100D01*
X146658799Y-83119100D01*
G36*
X146658799Y-83119100D02*
G01*
X145858799Y-83119100D01*
X145858799Y-82919100D01*
X146658799Y-82919100D01*
X146658799Y-83119100D01*
G37*
X146658799Y-82619100D02*
X145858799Y-82619100D01*
X145858799Y-82419100D01*
X146658799Y-82419100D01*
X146658799Y-82619100D01*
G36*
X146658799Y-82619100D02*
G01*
X145858799Y-82619100D01*
X145858799Y-82419100D01*
X146658799Y-82419100D01*
X146658799Y-82619100D01*
G37*
X146658799Y-82119100D02*
X145858799Y-82119100D01*
X145858799Y-81919100D01*
X146658799Y-81919100D01*
X146658799Y-82119100D01*
G36*
X146658799Y-82119100D02*
G01*
X145858799Y-82119100D01*
X145858799Y-81919100D01*
X146658799Y-81919100D01*
X146658799Y-82119100D01*
G37*
X146658799Y-81619100D02*
X145858799Y-81619100D01*
X145858799Y-81419100D01*
X146658799Y-81419100D01*
X146658799Y-81619100D01*
G36*
X146658799Y-81619100D02*
G01*
X145858799Y-81619100D01*
X145858799Y-81419100D01*
X146658799Y-81419100D01*
X146658799Y-81619100D01*
G37*
X146658799Y-81119100D02*
X145858799Y-81119100D01*
X145858799Y-80919100D01*
X146658799Y-80919100D01*
X146658799Y-81119100D01*
G36*
X146658799Y-81119100D02*
G01*
X145858799Y-81119100D01*
X145858799Y-80919100D01*
X146658799Y-80919100D01*
X146658799Y-81119100D01*
G37*
X145658799Y-84619100D02*
X145458799Y-84619100D01*
X145458799Y-83819100D01*
X145658799Y-83819100D01*
X145658799Y-84619100D01*
G36*
X145658799Y-84619100D02*
G01*
X145458799Y-84619100D01*
X145458799Y-83819100D01*
X145658799Y-83819100D01*
X145658799Y-84619100D01*
G37*
X145658799Y-80719100D02*
X145458799Y-80719100D01*
X145458799Y-79919100D01*
X145658799Y-79919100D01*
X145658799Y-80719100D01*
G36*
X145658799Y-80719100D02*
G01*
X145458799Y-80719100D01*
X145458799Y-79919100D01*
X145658799Y-79919100D01*
X145658799Y-80719100D01*
G37*
X145158799Y-84619100D02*
X144958799Y-84619100D01*
X144958799Y-83819100D01*
X145158799Y-83819100D01*
X145158799Y-84619100D01*
G36*
X145158799Y-84619100D02*
G01*
X144958799Y-84619100D01*
X144958799Y-83819100D01*
X145158799Y-83819100D01*
X145158799Y-84619100D01*
G37*
X145158799Y-80719100D02*
X144958799Y-80719100D01*
X144958799Y-79919100D01*
X145158799Y-79919100D01*
X145158799Y-80719100D01*
G36*
X145158799Y-80719100D02*
G01*
X144958799Y-80719100D01*
X144958799Y-79919100D01*
X145158799Y-79919100D01*
X145158799Y-80719100D01*
G37*
X145108799Y-83369100D02*
X144508799Y-83369100D01*
X144508799Y-82769100D01*
X145108799Y-82769100D01*
X145108799Y-83369100D01*
G36*
X145108799Y-83369100D02*
G01*
X144508799Y-83369100D01*
X144508799Y-82769100D01*
X145108799Y-82769100D01*
X145108799Y-83369100D01*
G37*
X145108799Y-81769100D02*
X144508799Y-81769100D01*
X144508799Y-81169100D01*
X145108799Y-81169100D01*
X145108799Y-81769100D01*
G36*
X145108799Y-81769100D02*
G01*
X144508799Y-81769100D01*
X144508799Y-81169100D01*
X145108799Y-81169100D01*
X145108799Y-81769100D01*
G37*
X144658799Y-84619100D02*
X144458799Y-84619100D01*
X144458799Y-83819100D01*
X144658799Y-83819100D01*
X144658799Y-84619100D01*
G36*
X144658799Y-84619100D02*
G01*
X144458799Y-84619100D01*
X144458799Y-83819100D01*
X144658799Y-83819100D01*
X144658799Y-84619100D01*
G37*
X144658799Y-80719100D02*
X144458799Y-80719100D01*
X144458799Y-79919100D01*
X144658799Y-79919100D01*
X144658799Y-80719100D01*
G36*
X144658799Y-80719100D02*
G01*
X144458799Y-80719100D01*
X144458799Y-79919100D01*
X144658799Y-79919100D01*
X144658799Y-80719100D01*
G37*
X144158799Y-84619100D02*
X143958799Y-84619100D01*
X143958799Y-83819100D01*
X144158799Y-83819100D01*
X144158799Y-84619100D01*
G36*
X144158799Y-84619100D02*
G01*
X143958799Y-84619100D01*
X143958799Y-83819100D01*
X144158799Y-83819100D01*
X144158799Y-84619100D01*
G37*
X144158799Y-80719100D02*
X143958799Y-80719100D01*
X143958799Y-79919100D01*
X144158799Y-79919100D01*
X144158799Y-80719100D01*
G36*
X144158799Y-80719100D02*
G01*
X143958799Y-80719100D01*
X143958799Y-79919100D01*
X144158799Y-79919100D01*
X144158799Y-80719100D01*
G37*
X143758799Y-83619100D02*
X142958799Y-83619100D01*
X142958799Y-83419100D01*
X143758799Y-83419100D01*
X143758799Y-83619100D01*
G36*
X143758799Y-83619100D02*
G01*
X142958799Y-83619100D01*
X142958799Y-83419100D01*
X143758799Y-83419100D01*
X143758799Y-83619100D01*
G37*
X143758799Y-83119100D02*
X142958799Y-83119100D01*
X142958799Y-82919100D01*
X143758799Y-82919100D01*
X143758799Y-83119100D01*
G36*
X143758799Y-83119100D02*
G01*
X142958799Y-83119100D01*
X142958799Y-82919100D01*
X143758799Y-82919100D01*
X143758799Y-83119100D01*
G37*
X143758799Y-82619100D02*
X142958799Y-82619100D01*
X142958799Y-82419100D01*
X143758799Y-82419100D01*
X143758799Y-82619100D01*
G36*
X143758799Y-82619100D02*
G01*
X142958799Y-82619100D01*
X142958799Y-82419100D01*
X143758799Y-82419100D01*
X143758799Y-82619100D01*
G37*
X143758799Y-82119100D02*
X142958799Y-82119100D01*
X142958799Y-81919100D01*
X143758799Y-81919100D01*
X143758799Y-82119100D01*
G36*
X143758799Y-82119100D02*
G01*
X142958799Y-82119100D01*
X142958799Y-81919100D01*
X143758799Y-81919100D01*
X143758799Y-82119100D01*
G37*
X143758799Y-81619100D02*
X142958799Y-81619100D01*
X142958799Y-81419100D01*
X143758799Y-81419100D01*
X143758799Y-81619100D01*
G36*
X143758799Y-81619100D02*
G01*
X142958799Y-81619100D01*
X142958799Y-81419100D01*
X143758799Y-81419100D01*
X143758799Y-81619100D01*
G37*
X143758799Y-81119100D02*
X142958799Y-81119100D01*
X142958799Y-80919100D01*
X143758799Y-80919100D01*
X143758799Y-81119100D01*
G36*
X143758799Y-81119100D02*
G01*
X142958799Y-81119100D01*
X142958799Y-80919100D01*
X143758799Y-80919100D01*
X143758799Y-81119100D01*
G37*
%TO.C,U501*%
X133518799Y-80119100D02*
X133968799Y-80119100D01*
X133968799Y-80319100D01*
X133518799Y-80319100D01*
X133518799Y-80119100D01*
G36*
X133518799Y-80119100D02*
G01*
X133968799Y-80119100D01*
X133968799Y-80319100D01*
X133518799Y-80319100D01*
X133518799Y-80119100D01*
G37*
X133518799Y-79619100D02*
X133968799Y-79619100D01*
X133968799Y-79819100D01*
X133518799Y-79819100D01*
X133518799Y-79619100D01*
G36*
X133518799Y-79619100D02*
G01*
X133968799Y-79619100D01*
X133968799Y-79819100D01*
X133518799Y-79819100D01*
X133518799Y-79619100D01*
G37*
X133518799Y-79119100D02*
X133968799Y-79119100D01*
X133968799Y-79319100D01*
X133518799Y-79319100D01*
X133518799Y-79119100D01*
G36*
X133518799Y-79119100D02*
G01*
X133968799Y-79119100D01*
X133968799Y-79319100D01*
X133518799Y-79319100D01*
X133518799Y-79119100D01*
G37*
X133518799Y-78619100D02*
X133968799Y-78619100D01*
X133968799Y-78819100D01*
X133518799Y-78819100D01*
X133518799Y-78619100D01*
G36*
X133518799Y-78619100D02*
G01*
X133968799Y-78619100D01*
X133968799Y-78819100D01*
X133518799Y-78819100D01*
X133518799Y-78619100D01*
G37*
X133518799Y-78119100D02*
X133968799Y-78119100D01*
X133968799Y-78319100D01*
X133518799Y-78319100D01*
X133518799Y-78119100D01*
G36*
X133518799Y-78119100D02*
G01*
X133968799Y-78119100D01*
X133968799Y-78319100D01*
X133518799Y-78319100D01*
X133518799Y-78119100D01*
G37*
X132743799Y-80119100D02*
X133193799Y-80119100D01*
X133193799Y-80319100D01*
X132743799Y-80319100D01*
X132743799Y-80119100D01*
G36*
X132743799Y-80119100D02*
G01*
X133193799Y-80119100D01*
X133193799Y-80319100D01*
X132743799Y-80319100D01*
X132743799Y-80119100D01*
G37*
X132743799Y-79619100D02*
X133193799Y-79619100D01*
X133193799Y-79819100D01*
X132743799Y-79819100D01*
X132743799Y-79619100D01*
G36*
X132743799Y-79619100D02*
G01*
X133193799Y-79619100D01*
X133193799Y-79819100D01*
X132743799Y-79819100D01*
X132743799Y-79619100D01*
G37*
X132743799Y-79119100D02*
X133193799Y-79119100D01*
X133193799Y-79319100D01*
X132743799Y-79319100D01*
X132743799Y-79119100D01*
G36*
X132743799Y-79119100D02*
G01*
X133193799Y-79119100D01*
X133193799Y-79319100D01*
X132743799Y-79319100D01*
X132743799Y-79119100D01*
G37*
X132743799Y-78619100D02*
X133193799Y-78619100D01*
X133193799Y-78819100D01*
X132743799Y-78819100D01*
X132743799Y-78619100D01*
G36*
X132743799Y-78619100D02*
G01*
X133193799Y-78619100D01*
X133193799Y-78819100D01*
X132743799Y-78819100D01*
X132743799Y-78619100D01*
G37*
X132743799Y-78119100D02*
X133193799Y-78119100D01*
X133193799Y-78319100D01*
X132743799Y-78319100D01*
X132743799Y-78119100D01*
G36*
X132743799Y-78119100D02*
G01*
X133193799Y-78119100D01*
X133193799Y-78319100D01*
X132743799Y-78319100D01*
X132743799Y-78119100D01*
G37*
%TO.C,U504*%
X177275900Y-80319100D02*
X176825900Y-80319100D01*
X176825900Y-80119100D01*
X177275900Y-80119100D01*
X177275900Y-80319100D01*
G36*
X177275900Y-80319100D02*
G01*
X176825900Y-80319100D01*
X176825900Y-80119100D01*
X177275900Y-80119100D01*
X177275900Y-80319100D01*
G37*
X177275900Y-79819100D02*
X176825900Y-79819100D01*
X176825900Y-79619100D01*
X177275900Y-79619100D01*
X177275900Y-79819100D01*
G36*
X177275900Y-79819100D02*
G01*
X176825900Y-79819100D01*
X176825900Y-79619100D01*
X177275900Y-79619100D01*
X177275900Y-79819100D01*
G37*
X177275900Y-79319100D02*
X176825900Y-79319100D01*
X176825900Y-79119100D01*
X177275900Y-79119100D01*
X177275900Y-79319100D01*
G36*
X177275900Y-79319100D02*
G01*
X176825900Y-79319100D01*
X176825900Y-79119100D01*
X177275900Y-79119100D01*
X177275900Y-79319100D01*
G37*
X177275900Y-78819100D02*
X176825900Y-78819100D01*
X176825900Y-78619100D01*
X177275900Y-78619100D01*
X177275900Y-78819100D01*
G36*
X177275900Y-78819100D02*
G01*
X176825900Y-78819100D01*
X176825900Y-78619100D01*
X177275900Y-78619100D01*
X177275900Y-78819100D01*
G37*
X177275900Y-78319100D02*
X176825900Y-78319100D01*
X176825900Y-78119100D01*
X177275900Y-78119100D01*
X177275900Y-78319100D01*
G36*
X177275900Y-78319100D02*
G01*
X176825900Y-78319100D01*
X176825900Y-78119100D01*
X177275900Y-78119100D01*
X177275900Y-78319100D01*
G37*
X176500900Y-80319100D02*
X176050900Y-80319100D01*
X176050900Y-80119100D01*
X176500900Y-80119100D01*
X176500900Y-80319100D01*
G36*
X176500900Y-80319100D02*
G01*
X176050900Y-80319100D01*
X176050900Y-80119100D01*
X176500900Y-80119100D01*
X176500900Y-80319100D01*
G37*
X176500900Y-79819100D02*
X176050900Y-79819100D01*
X176050900Y-79619100D01*
X176500900Y-79619100D01*
X176500900Y-79819100D01*
G36*
X176500900Y-79819100D02*
G01*
X176050900Y-79819100D01*
X176050900Y-79619100D01*
X176500900Y-79619100D01*
X176500900Y-79819100D01*
G37*
X176500900Y-79319100D02*
X176050900Y-79319100D01*
X176050900Y-79119100D01*
X176500900Y-79119100D01*
X176500900Y-79319100D01*
G36*
X176500900Y-79319100D02*
G01*
X176050900Y-79319100D01*
X176050900Y-79119100D01*
X176500900Y-79119100D01*
X176500900Y-79319100D01*
G37*
X176500900Y-78819100D02*
X176050900Y-78819100D01*
X176050900Y-78619100D01*
X176500900Y-78619100D01*
X176500900Y-78819100D01*
G36*
X176500900Y-78819100D02*
G01*
X176050900Y-78819100D01*
X176050900Y-78619100D01*
X176500900Y-78619100D01*
X176500900Y-78819100D01*
G37*
X176500900Y-78319100D02*
X176050900Y-78319100D01*
X176050900Y-78119100D01*
X176500900Y-78119100D01*
X176500900Y-78319100D01*
G36*
X176500900Y-78319100D02*
G01*
X176050900Y-78319100D01*
X176050900Y-78119100D01*
X176500900Y-78119100D01*
X176500900Y-78319100D01*
G37*
%TO.C,SW301*%
X172748799Y-84429100D02*
X173348799Y-84429100D01*
X173348799Y-83829100D01*
X172748799Y-83829100D01*
X172748799Y-84429100D01*
G36*
X172748799Y-84429100D02*
G01*
X173348799Y-84429100D01*
X173348799Y-83829100D01*
X172748799Y-83829100D01*
X172748799Y-84429100D01*
G37*
X172748799Y-80229100D02*
X173348799Y-80229100D01*
X173348799Y-79629100D01*
X172748799Y-79629100D01*
X172748799Y-80229100D01*
G36*
X172748799Y-80229100D02*
G01*
X173348799Y-80229100D01*
X173348799Y-79629100D01*
X172748799Y-79629100D01*
X172748799Y-80229100D01*
G37*
X171648799Y-84429100D02*
X172248799Y-84429100D01*
X172248799Y-83829100D01*
X171648799Y-83829100D01*
X171648799Y-84429100D01*
G36*
X171648799Y-84429100D02*
G01*
X172248799Y-84429100D01*
X172248799Y-83829100D01*
X171648799Y-83829100D01*
X171648799Y-84429100D01*
G37*
X171648799Y-80229100D02*
X172248799Y-80229100D01*
X172248799Y-79629100D01*
X171648799Y-79629100D01*
X171648799Y-80229100D01*
G36*
X171648799Y-80229100D02*
G01*
X172248799Y-80229100D01*
X172248799Y-79629100D01*
X171648799Y-79629100D01*
X171648799Y-80229100D01*
G37*
%TO.C,Y401*%
X168678799Y-80669100D02*
X169178799Y-80669100D01*
X169178799Y-81169100D01*
X168678799Y-81169100D01*
X168678799Y-80669100D01*
G36*
X168678799Y-80669100D02*
G01*
X169178799Y-80669100D01*
X169178799Y-81169100D01*
X168678799Y-81169100D01*
X168678799Y-80669100D01*
G37*
X168678799Y-79894100D02*
X169178799Y-79894100D01*
X169178799Y-80394100D01*
X168678799Y-80394100D01*
X168678799Y-79894100D01*
G36*
X168678799Y-79894100D02*
G01*
X169178799Y-79894100D01*
X169178799Y-80394100D01*
X168678799Y-80394100D01*
X168678799Y-79894100D01*
G37*
X167178799Y-80694100D02*
X167678799Y-80694100D01*
X167678799Y-81194100D01*
X167178799Y-81194100D01*
X167178799Y-80694100D01*
G36*
X167178799Y-80694100D02*
G01*
X167678799Y-80694100D01*
X167678799Y-81194100D01*
X167178799Y-81194100D01*
X167178799Y-80694100D01*
G37*
X167178799Y-79919100D02*
X167678799Y-79919100D01*
X167678799Y-80419100D01*
X167178799Y-80419100D01*
X167178799Y-79919100D01*
G36*
X167178799Y-79919100D02*
G01*
X167678799Y-79919100D01*
X167678799Y-80419100D01*
X167178799Y-80419100D01*
X167178799Y-79919100D01*
G37*
%TO.C,U505*%
X138008799Y-77619100D02*
X138208799Y-77619100D01*
X138208799Y-77219100D01*
X138008799Y-77219100D01*
X138008799Y-77619100D01*
G36*
X138008799Y-77619100D02*
G01*
X138208799Y-77619100D01*
X138208799Y-77219100D01*
X138008799Y-77219100D01*
X138008799Y-77619100D01*
G37*
X138008799Y-77019100D02*
X138408799Y-77019100D01*
X138408799Y-76819100D01*
X138008799Y-76819100D01*
X138008799Y-77019100D01*
G36*
X138008799Y-77019100D02*
G01*
X138408799Y-77019100D01*
X138408799Y-76819100D01*
X138008799Y-76819100D01*
X138008799Y-77019100D01*
G37*
X138008799Y-76619100D02*
X138408799Y-76619100D01*
X138408799Y-76419100D01*
X138008799Y-76419100D01*
X138008799Y-76619100D01*
G36*
X138008799Y-76619100D02*
G01*
X138408799Y-76619100D01*
X138408799Y-76419100D01*
X138008799Y-76419100D01*
X138008799Y-76619100D01*
G37*
X138008799Y-76219100D02*
X138208799Y-76219100D01*
X138208799Y-75819100D01*
X138008799Y-75819100D01*
X138008799Y-76219100D01*
G36*
X138008799Y-76219100D02*
G01*
X138208799Y-76219100D01*
X138208799Y-75819100D01*
X138008799Y-75819100D01*
X138008799Y-76219100D01*
G37*
X137608799Y-77619100D02*
X137808799Y-77619100D01*
X137808799Y-77219100D01*
X137608799Y-77219100D01*
X137608799Y-77619100D01*
G36*
X137608799Y-77619100D02*
G01*
X137808799Y-77619100D01*
X137808799Y-77219100D01*
X137608799Y-77219100D01*
X137608799Y-77619100D01*
G37*
X137608799Y-76219100D02*
X137808799Y-76219100D01*
X137808799Y-75819100D01*
X137608799Y-75819100D01*
X137608799Y-76219100D01*
G36*
X137608799Y-76219100D02*
G01*
X137808799Y-76219100D01*
X137808799Y-75819100D01*
X137608799Y-75819100D01*
X137608799Y-76219100D01*
G37*
X137308799Y-76919100D02*
X137708799Y-76919100D01*
X137708799Y-76519100D01*
X137308799Y-76519100D01*
X137308799Y-76919100D01*
G36*
X137308799Y-76919100D02*
G01*
X137708799Y-76919100D01*
X137708799Y-76519100D01*
X137308799Y-76519100D01*
X137308799Y-76919100D01*
G37*
X137208799Y-77619100D02*
X137408799Y-77619100D01*
X137408799Y-77219100D01*
X137208799Y-77219100D01*
X137208799Y-77619100D01*
G36*
X137208799Y-77619100D02*
G01*
X137408799Y-77619100D01*
X137408799Y-77219100D01*
X137208799Y-77219100D01*
X137208799Y-77619100D01*
G37*
X137208799Y-76219100D02*
X137408799Y-76219100D01*
X137408799Y-75819100D01*
X137208799Y-75819100D01*
X137208799Y-76219100D01*
G36*
X137208799Y-76219100D02*
G01*
X137408799Y-76219100D01*
X137408799Y-75819100D01*
X137208799Y-75819100D01*
X137208799Y-76219100D01*
G37*
X136808799Y-77619100D02*
X137008799Y-77619100D01*
X137008799Y-77219100D01*
X136808799Y-77219100D01*
X136808799Y-77619100D01*
G36*
X136808799Y-77619100D02*
G01*
X137008799Y-77619100D01*
X137008799Y-77219100D01*
X136808799Y-77219100D01*
X136808799Y-77619100D01*
G37*
X136808799Y-76219100D02*
X137008799Y-76219100D01*
X137008799Y-75819100D01*
X136808799Y-75819100D01*
X136808799Y-76219100D01*
G36*
X136808799Y-76219100D02*
G01*
X137008799Y-76219100D01*
X137008799Y-75819100D01*
X136808799Y-75819100D01*
X136808799Y-76219100D01*
G37*
X136508799Y-76919100D02*
X136908799Y-76919100D01*
X136908799Y-76519100D01*
X136508799Y-76519100D01*
X136508799Y-76919100D01*
G36*
X136508799Y-76919100D02*
G01*
X136908799Y-76919100D01*
X136908799Y-76519100D01*
X136508799Y-76519100D01*
X136508799Y-76919100D01*
G37*
X136408799Y-77619100D02*
X136608799Y-77619100D01*
X136608799Y-77219100D01*
X136408799Y-77219100D01*
X136408799Y-77619100D01*
G36*
X136408799Y-77619100D02*
G01*
X136608799Y-77619100D01*
X136608799Y-77219100D01*
X136408799Y-77219100D01*
X136408799Y-77619100D01*
G37*
X136408799Y-76219100D02*
X136608799Y-76219100D01*
X136608799Y-75819100D01*
X136408799Y-75819100D01*
X136408799Y-76219100D01*
G36*
X136408799Y-76219100D02*
G01*
X136608799Y-76219100D01*
X136608799Y-75819100D01*
X136408799Y-75819100D01*
X136408799Y-76219100D01*
G37*
X136008799Y-77619100D02*
X136208799Y-77619100D01*
X136208799Y-77219100D01*
X136008799Y-77219100D01*
X136008799Y-77619100D01*
G36*
X136008799Y-77619100D02*
G01*
X136208799Y-77619100D01*
X136208799Y-77219100D01*
X136008799Y-77219100D01*
X136008799Y-77619100D01*
G37*
X136008799Y-76219100D02*
X136208799Y-76219100D01*
X136208799Y-75819100D01*
X136008799Y-75819100D01*
X136008799Y-76219100D01*
G36*
X136008799Y-76219100D02*
G01*
X136208799Y-76219100D01*
X136208799Y-75819100D01*
X136008799Y-75819100D01*
X136008799Y-76219100D01*
G37*
X135808799Y-77019100D02*
X136208799Y-77019100D01*
X136208799Y-76819100D01*
X135808799Y-76819100D01*
X135808799Y-77019100D01*
G36*
X135808799Y-77019100D02*
G01*
X136208799Y-77019100D01*
X136208799Y-76819100D01*
X135808799Y-76819100D01*
X135808799Y-77019100D01*
G37*
X135808799Y-76619100D02*
X136208799Y-76619100D01*
X136208799Y-76419100D01*
X135808799Y-76419100D01*
X135808799Y-76619100D01*
G36*
X135808799Y-76619100D02*
G01*
X136208799Y-76619100D01*
X136208799Y-76419100D01*
X135808799Y-76419100D01*
X135808799Y-76619100D01*
G37*
%TO.C,U401*%
X168558799Y-76849100D02*
X167983799Y-76849100D01*
X167983799Y-76699100D01*
X168558799Y-76699100D01*
X168558799Y-76849100D01*
G36*
X168558799Y-76849100D02*
G01*
X167983799Y-76849100D01*
X167983799Y-76699100D01*
X168558799Y-76699100D01*
X168558799Y-76849100D01*
G37*
X168558799Y-76344100D02*
X167983799Y-76344100D01*
X167983799Y-76194100D01*
X168558799Y-76194100D01*
X168558799Y-76344100D01*
G36*
X168558799Y-76344100D02*
G01*
X167983799Y-76344100D01*
X167983799Y-76194100D01*
X168558799Y-76194100D01*
X168558799Y-76344100D01*
G37*
X168558799Y-75844100D02*
X167983799Y-75844100D01*
X167983799Y-75694100D01*
X168558799Y-75694100D01*
X168558799Y-75844100D01*
G36*
X168558799Y-75844100D02*
G01*
X167983799Y-75844100D01*
X167983799Y-75694100D01*
X168558799Y-75694100D01*
X168558799Y-75844100D01*
G37*
X168558799Y-75344100D02*
X167983799Y-75344100D01*
X167983799Y-75194100D01*
X168558799Y-75194100D01*
X168558799Y-75344100D01*
G36*
X168558799Y-75344100D02*
G01*
X167983799Y-75344100D01*
X167983799Y-75194100D01*
X168558799Y-75194100D01*
X168558799Y-75344100D01*
G37*
X168203799Y-77969100D02*
X168053799Y-77969100D01*
X168053799Y-77394100D01*
X168203799Y-77394100D01*
X168203799Y-77969100D01*
G36*
X168203799Y-77969100D02*
G01*
X168053799Y-77969100D01*
X168053799Y-77394100D01*
X168203799Y-77394100D01*
X168203799Y-77969100D01*
G37*
X168203799Y-74644100D02*
X168053799Y-74644100D01*
X168053799Y-74069100D01*
X168203799Y-74069100D01*
X168203799Y-74644100D01*
G36*
X168203799Y-74644100D02*
G01*
X168053799Y-74644100D01*
X168053799Y-74069100D01*
X168203799Y-74069100D01*
X168203799Y-74644100D01*
G37*
X167703799Y-77969100D02*
X167553799Y-77969100D01*
X167553799Y-77394100D01*
X167703799Y-77394100D01*
X167703799Y-77969100D01*
G36*
X167703799Y-77969100D02*
G01*
X167553799Y-77969100D01*
X167553799Y-77394100D01*
X167703799Y-77394100D01*
X167703799Y-77969100D01*
G37*
X167703799Y-74644100D02*
X167553799Y-74644100D01*
X167553799Y-74069100D01*
X167703799Y-74069100D01*
X167703799Y-74644100D01*
G36*
X167703799Y-74644100D02*
G01*
X167553799Y-74644100D01*
X167553799Y-74069100D01*
X167703799Y-74069100D01*
X167703799Y-74644100D01*
G37*
X167203799Y-77969100D02*
X167053799Y-77969100D01*
X167053799Y-77394100D01*
X167203799Y-77394100D01*
X167203799Y-77969100D01*
G36*
X167203799Y-77969100D02*
G01*
X167053799Y-77969100D01*
X167053799Y-77394100D01*
X167203799Y-77394100D01*
X167203799Y-77969100D01*
G37*
X167203799Y-74644100D02*
X167053799Y-74644100D01*
X167053799Y-74069100D01*
X167203799Y-74069100D01*
X167203799Y-74644100D01*
G36*
X167203799Y-74644100D02*
G01*
X167053799Y-74644100D01*
X167053799Y-74069100D01*
X167203799Y-74069100D01*
X167203799Y-74644100D01*
G37*
X166703799Y-77969100D02*
X166553799Y-77969100D01*
X166553799Y-77394100D01*
X166703799Y-77394100D01*
X166703799Y-77969100D01*
G36*
X166703799Y-77969100D02*
G01*
X166553799Y-77969100D01*
X166553799Y-77394100D01*
X166703799Y-77394100D01*
X166703799Y-77969100D01*
G37*
X166703799Y-74644100D02*
X166553799Y-74644100D01*
X166553799Y-74069100D01*
X166703799Y-74069100D01*
X166703799Y-74644100D01*
G36*
X166703799Y-74644100D02*
G01*
X166553799Y-74644100D01*
X166553799Y-74069100D01*
X166703799Y-74069100D01*
X166703799Y-74644100D01*
G37*
X166203799Y-77969100D02*
X166053799Y-77969100D01*
X166053799Y-77394100D01*
X166203799Y-77394100D01*
X166203799Y-77969100D01*
G36*
X166203799Y-77969100D02*
G01*
X166053799Y-77969100D01*
X166053799Y-77394100D01*
X166203799Y-77394100D01*
X166203799Y-77969100D01*
G37*
X166203799Y-74644100D02*
X166053799Y-74644100D01*
X166053799Y-74069100D01*
X166203799Y-74069100D01*
X166203799Y-74644100D01*
G36*
X166203799Y-74644100D02*
G01*
X166053799Y-74644100D01*
X166053799Y-74069100D01*
X166203799Y-74069100D01*
X166203799Y-74644100D01*
G37*
X165703799Y-77969100D02*
X165553799Y-77969100D01*
X165553799Y-77394100D01*
X165703799Y-77394100D01*
X165703799Y-77969100D01*
G36*
X165703799Y-77969100D02*
G01*
X165553799Y-77969100D01*
X165553799Y-77394100D01*
X165703799Y-77394100D01*
X165703799Y-77969100D01*
G37*
X165703799Y-74644100D02*
X165553799Y-74644100D01*
X165553799Y-74069100D01*
X165703799Y-74069100D01*
X165703799Y-74644100D01*
G36*
X165703799Y-74644100D02*
G01*
X165553799Y-74644100D01*
X165553799Y-74069100D01*
X165703799Y-74069100D01*
X165703799Y-74644100D01*
G37*
X165203799Y-77969100D02*
X165053799Y-77969100D01*
X165053799Y-77394100D01*
X165203799Y-77394100D01*
X165203799Y-77969100D01*
G36*
X165203799Y-77969100D02*
G01*
X165053799Y-77969100D01*
X165053799Y-77394100D01*
X165203799Y-77394100D01*
X165203799Y-77969100D01*
G37*
X165203799Y-74644100D02*
X165053799Y-74644100D01*
X165053799Y-74069100D01*
X165203799Y-74069100D01*
X165203799Y-74644100D01*
G36*
X165203799Y-74644100D02*
G01*
X165053799Y-74644100D01*
X165053799Y-74069100D01*
X165203799Y-74069100D01*
X165203799Y-74644100D01*
G37*
X164703799Y-77969100D02*
X164553799Y-77969100D01*
X164553799Y-77394100D01*
X164703799Y-77394100D01*
X164703799Y-77969100D01*
G36*
X164703799Y-77969100D02*
G01*
X164553799Y-77969100D01*
X164553799Y-77394100D01*
X164703799Y-77394100D01*
X164703799Y-77969100D01*
G37*
X164703799Y-74644100D02*
X164553799Y-74644100D01*
X164553799Y-74069100D01*
X164703799Y-74069100D01*
X164703799Y-74644100D01*
G36*
X164703799Y-74644100D02*
G01*
X164553799Y-74644100D01*
X164553799Y-74069100D01*
X164703799Y-74069100D01*
X164703799Y-74644100D01*
G37*
X164203799Y-77969100D02*
X164053799Y-77969100D01*
X164053799Y-77394100D01*
X164203799Y-77394100D01*
X164203799Y-77969100D01*
G36*
X164203799Y-77969100D02*
G01*
X164053799Y-77969100D01*
X164053799Y-77394100D01*
X164203799Y-77394100D01*
X164203799Y-77969100D01*
G37*
X164203799Y-74644100D02*
X164053799Y-74644100D01*
X164053799Y-74069100D01*
X164203799Y-74069100D01*
X164203799Y-74644100D01*
G36*
X164203799Y-74644100D02*
G01*
X164053799Y-74644100D01*
X164053799Y-74069100D01*
X164203799Y-74069100D01*
X164203799Y-74644100D01*
G37*
X163786299Y-75344100D02*
X163211299Y-75344100D01*
X163211299Y-75194100D01*
X163786299Y-75194100D01*
X163786299Y-75344100D01*
G36*
X163786299Y-75344100D02*
G01*
X163211299Y-75344100D01*
X163211299Y-75194100D01*
X163786299Y-75194100D01*
X163786299Y-75344100D01*
G37*
X163783799Y-76844100D02*
X163208799Y-76844100D01*
X163208799Y-76694100D01*
X163783799Y-76694100D01*
X163783799Y-76844100D01*
G36*
X163783799Y-76844100D02*
G01*
X163208799Y-76844100D01*
X163208799Y-76694100D01*
X163783799Y-76694100D01*
X163783799Y-76844100D01*
G37*
X163783799Y-76344100D02*
X163208799Y-76344100D01*
X163208799Y-76194100D01*
X163783799Y-76194100D01*
X163783799Y-76344100D01*
G36*
X163783799Y-76344100D02*
G01*
X163208799Y-76344100D01*
X163208799Y-76194100D01*
X163783799Y-76194100D01*
X163783799Y-76344100D01*
G37*
X163783799Y-75844100D02*
X163208799Y-75844100D01*
X163208799Y-75694100D01*
X163783799Y-75694100D01*
X163783799Y-75844100D01*
G36*
X163783799Y-75844100D02*
G01*
X163208799Y-75844100D01*
X163208799Y-75694100D01*
X163783799Y-75694100D01*
X163783799Y-75844100D01*
G37*
X163703799Y-77969100D02*
X163553799Y-77969100D01*
X163553799Y-77394100D01*
X163703799Y-77394100D01*
X163703799Y-77969100D01*
G36*
X163703799Y-77969100D02*
G01*
X163553799Y-77969100D01*
X163553799Y-77394100D01*
X163703799Y-77394100D01*
X163703799Y-77969100D01*
G37*
X163703799Y-74644100D02*
X163553799Y-74644100D01*
X163553799Y-74069100D01*
X163703799Y-74069100D01*
X163703799Y-74644100D01*
G36*
X163703799Y-74644100D02*
G01*
X163553799Y-74644100D01*
X163553799Y-74069100D01*
X163703799Y-74069100D01*
X163703799Y-74644100D01*
G37*
%TO.C,U503*%
X177275900Y-76819100D02*
X176825900Y-76819100D01*
X176825900Y-76619100D01*
X177275900Y-76619100D01*
X177275900Y-76819100D01*
G36*
X177275900Y-76819100D02*
G01*
X176825900Y-76819100D01*
X176825900Y-76619100D01*
X177275900Y-76619100D01*
X177275900Y-76819100D01*
G37*
X177275900Y-76319100D02*
X176825900Y-76319100D01*
X176825900Y-76119100D01*
X177275900Y-76119100D01*
X177275900Y-76319100D01*
G36*
X177275900Y-76319100D02*
G01*
X176825900Y-76319100D01*
X176825900Y-76119100D01*
X177275900Y-76119100D01*
X177275900Y-76319100D01*
G37*
X177275900Y-75819100D02*
X176825900Y-75819100D01*
X176825900Y-75619100D01*
X177275900Y-75619100D01*
X177275900Y-75819100D01*
G36*
X177275900Y-75819100D02*
G01*
X176825900Y-75819100D01*
X176825900Y-75619100D01*
X177275900Y-75619100D01*
X177275900Y-75819100D01*
G37*
X177275900Y-75319100D02*
X176825900Y-75319100D01*
X176825900Y-75119100D01*
X177275900Y-75119100D01*
X177275900Y-75319100D01*
G36*
X177275900Y-75319100D02*
G01*
X176825900Y-75319100D01*
X176825900Y-75119100D01*
X177275900Y-75119100D01*
X177275900Y-75319100D01*
G37*
X177275900Y-74819100D02*
X176825900Y-74819100D01*
X176825900Y-74619100D01*
X177275900Y-74619100D01*
X177275900Y-74819100D01*
G36*
X177275900Y-74819100D02*
G01*
X176825900Y-74819100D01*
X176825900Y-74619100D01*
X177275900Y-74619100D01*
X177275900Y-74819100D01*
G37*
X176500900Y-76819100D02*
X176050900Y-76819100D01*
X176050900Y-76619100D01*
X176500900Y-76619100D01*
X176500900Y-76819100D01*
G36*
X176500900Y-76819100D02*
G01*
X176050900Y-76819100D01*
X176050900Y-76619100D01*
X176500900Y-76619100D01*
X176500900Y-76819100D01*
G37*
X176500900Y-76319100D02*
X176050900Y-76319100D01*
X176050900Y-76119100D01*
X176500900Y-76119100D01*
X176500900Y-76319100D01*
G36*
X176500900Y-76319100D02*
G01*
X176050900Y-76319100D01*
X176050900Y-76119100D01*
X176500900Y-76119100D01*
X176500900Y-76319100D01*
G37*
X176500900Y-75819100D02*
X176050900Y-75819100D01*
X176050900Y-75619100D01*
X176500900Y-75619100D01*
X176500900Y-75819100D01*
G36*
X176500900Y-75819100D02*
G01*
X176050900Y-75819100D01*
X176050900Y-75619100D01*
X176500900Y-75619100D01*
X176500900Y-75819100D01*
G37*
X176500900Y-75319100D02*
X176050900Y-75319100D01*
X176050900Y-75119100D01*
X176500900Y-75119100D01*
X176500900Y-75319100D01*
G36*
X176500900Y-75319100D02*
G01*
X176050900Y-75319100D01*
X176050900Y-75119100D01*
X176500900Y-75119100D01*
X176500900Y-75319100D01*
G37*
X176500900Y-74819100D02*
X176050900Y-74819100D01*
X176050900Y-74619100D01*
X176500900Y-74619100D01*
X176500900Y-74819100D01*
G36*
X176500900Y-74819100D02*
G01*
X176050900Y-74819100D01*
X176050900Y-74619100D01*
X176500900Y-74619100D01*
X176500900Y-74819100D01*
G37*
%TO.C,U1*%
X147745000Y-99780000D02*
X147295000Y-99780000D01*
X147295000Y-99580000D01*
X147745000Y-99580000D01*
X147745000Y-99780000D01*
G36*
X147745000Y-99780000D02*
G01*
X147295000Y-99780000D01*
X147295000Y-99580000D01*
X147745000Y-99580000D01*
X147745000Y-99780000D01*
G37*
X147745000Y-100280000D02*
X147295000Y-100280000D01*
X147295000Y-100080000D01*
X147745000Y-100080000D01*
X147745000Y-100280000D01*
G36*
X147745000Y-100280000D02*
G01*
X147295000Y-100280000D01*
X147295000Y-100080000D01*
X147745000Y-100080000D01*
X147745000Y-100280000D01*
G37*
X147745000Y-100780000D02*
X147295000Y-100780000D01*
X147295000Y-100580000D01*
X147745000Y-100580000D01*
X147745000Y-100780000D01*
G36*
X147745000Y-100780000D02*
G01*
X147295000Y-100780000D01*
X147295000Y-100580000D01*
X147745000Y-100580000D01*
X147745000Y-100780000D01*
G37*
X147745000Y-101280000D02*
X147295000Y-101280000D01*
X147295000Y-101080000D01*
X147745000Y-101080000D01*
X147745000Y-101280000D01*
G36*
X147745000Y-101280000D02*
G01*
X147295000Y-101280000D01*
X147295000Y-101080000D01*
X147745000Y-101080000D01*
X147745000Y-101280000D01*
G37*
X147745000Y-101780000D02*
X147295000Y-101780000D01*
X147295000Y-101580000D01*
X147745000Y-101580000D01*
X147745000Y-101780000D01*
G36*
X147745000Y-101780000D02*
G01*
X147295000Y-101780000D01*
X147295000Y-101580000D01*
X147745000Y-101580000D01*
X147745000Y-101780000D01*
G37*
X148520000Y-99780000D02*
X148070000Y-99780000D01*
X148070000Y-99580000D01*
X148520000Y-99580000D01*
X148520000Y-99780000D01*
G36*
X148520000Y-99780000D02*
G01*
X148070000Y-99780000D01*
X148070000Y-99580000D01*
X148520000Y-99580000D01*
X148520000Y-99780000D01*
G37*
X148520000Y-100280000D02*
X148070000Y-100280000D01*
X148070000Y-100080000D01*
X148520000Y-100080000D01*
X148520000Y-100280000D01*
G36*
X148520000Y-100280000D02*
G01*
X148070000Y-100280000D01*
X148070000Y-100080000D01*
X148520000Y-100080000D01*
X148520000Y-100280000D01*
G37*
X148520000Y-100780000D02*
X148070000Y-100780000D01*
X148070000Y-100580000D01*
X148520000Y-100580000D01*
X148520000Y-100780000D01*
G36*
X148520000Y-100780000D02*
G01*
X148070000Y-100780000D01*
X148070000Y-100580000D01*
X148520000Y-100580000D01*
X148520000Y-100780000D01*
G37*
X148520000Y-101280000D02*
X148070000Y-101280000D01*
X148070000Y-101080000D01*
X148520000Y-101080000D01*
X148520000Y-101280000D01*
G36*
X148520000Y-101280000D02*
G01*
X148070000Y-101280000D01*
X148070000Y-101080000D01*
X148520000Y-101080000D01*
X148520000Y-101280000D01*
G37*
X148520000Y-101780000D02*
X148070000Y-101780000D01*
X148070000Y-101580000D01*
X148520000Y-101580000D01*
X148520000Y-101780000D01*
G36*
X148520000Y-101780000D02*
G01*
X148070000Y-101780000D01*
X148070000Y-101580000D01*
X148520000Y-101580000D01*
X148520000Y-101780000D01*
G37*
%TO.C,Y201*%
X167705000Y-102210000D02*
X168405000Y-102210000D01*
X168405000Y-101460000D01*
X167705000Y-101460000D01*
X167705000Y-102210000D01*
G36*
X167705000Y-102210000D02*
G01*
X168405000Y-102210000D01*
X168405000Y-101460000D01*
X167705000Y-101460000D01*
X167705000Y-102210000D01*
G37*
X167705000Y-103960000D02*
X168405000Y-103960000D01*
X168405000Y-103210000D01*
X167705000Y-103210000D01*
X167705000Y-103960000D01*
G36*
X167705000Y-103960000D02*
G01*
X168405000Y-103960000D01*
X168405000Y-103210000D01*
X167705000Y-103210000D01*
X167705000Y-103960000D01*
G37*
X169105000Y-102210000D02*
X169805000Y-102210000D01*
X169805000Y-101460000D01*
X169105000Y-101460000D01*
X169105000Y-102210000D01*
G36*
X169105000Y-102210000D02*
G01*
X169805000Y-102210000D01*
X169805000Y-101460000D01*
X169105000Y-101460000D01*
X169105000Y-102210000D01*
G37*
X169105000Y-103960000D02*
X169805000Y-103960000D01*
X169805000Y-103210000D01*
X169105000Y-103210000D01*
X169105000Y-103960000D01*
G36*
X169105000Y-103960000D02*
G01*
X169805000Y-103960000D01*
X169805000Y-103210000D01*
X169105000Y-103210000D01*
X169105000Y-103960000D01*
G37*
%TD*%
D11*
%TO.C,R403*%
X167718799Y-72619100D03*
X167718799Y-71599100D03*
%TD*%
D12*
%TO.C,R101*%
X137478799Y-84219100D03*
X139128799Y-84219100D03*
%TD*%
D13*
%TO.C,C202*%
X155958799Y-73789100D03*
X155958799Y-74749100D03*
%TD*%
D14*
%TO.C,D307*%
X170848799Y-72914100D03*
X170848799Y-71339100D03*
%TD*%
D15*
%TO.C,D102*%
X136258799Y-84404100D03*
X136258799Y-83434100D03*
%TD*%
D11*
%TO.C,R504*%
X178058799Y-80479100D03*
X178058799Y-79459100D03*
%TD*%
D13*
%TO.C,C302*%
X162858799Y-81039100D03*
X162858799Y-81999100D03*
%TD*%
D16*
%TO.C,C217*%
X161648799Y-78259100D03*
X160688799Y-78259100D03*
%TD*%
D11*
%TO.C,R503*%
X178058799Y-75289100D03*
X178058799Y-74269100D03*
%TD*%
D17*
%TO.C,R405*%
X170298799Y-77519100D03*
X169278799Y-77519100D03*
%TD*%
D18*
%TO.C,R102*%
X142144872Y-79749100D03*
X142144872Y-80769100D03*
%TD*%
D19*
%TO.C,C215*%
X164833799Y-79419100D03*
X163283799Y-79419100D03*
%TD*%
D20*
%TO.C,C102*%
X140944872Y-81294100D03*
X140944872Y-79744100D03*
%TD*%
D21*
%TO.C,R304*%
X159458799Y-82919100D03*
X160478799Y-82919100D03*
%TD*%
D14*
%TO.C,D306*%
X169348799Y-72914100D03*
X169348799Y-71339100D03*
%TD*%
D22*
%TO.C,U202*%
X159003799Y-72194100D03*
D23*
X158573799Y-71869100D03*
D24*
X158573799Y-72519100D03*
D25*
X159433799Y-71869100D03*
D26*
X159433799Y-72519100D03*
%TD*%
D11*
%TO.C,R406*%
X164818799Y-72619100D03*
X164818799Y-71599100D03*
%TD*%
D27*
%TO.C,U301*%
X160868799Y-77039100D03*
D28*
X160468799Y-77039100D03*
X160068799Y-77039100D03*
X159668799Y-77039100D03*
X159268799Y-77039100D03*
D27*
X158868799Y-77039100D03*
D29*
X160868799Y-76639100D03*
D27*
X160468799Y-76639100D03*
X160068799Y-76639100D03*
X159668799Y-76639100D03*
X159268799Y-76639100D03*
D29*
X158868799Y-76639100D03*
X160868799Y-76239100D03*
D27*
X160468799Y-76239100D03*
X160068799Y-76239100D03*
X159668799Y-76239100D03*
X159268799Y-76239100D03*
D29*
X158868799Y-76239100D03*
X160868799Y-75839100D03*
D27*
X160468799Y-75839100D03*
X160068799Y-75839100D03*
X159668799Y-75839100D03*
X159268799Y-75839100D03*
D29*
X158868799Y-75839100D03*
X160868799Y-75439100D03*
D27*
X160468799Y-75439100D03*
X160068799Y-75439100D03*
X159668799Y-75439100D03*
X159268799Y-75439100D03*
D29*
X158868799Y-75439100D03*
D27*
X160868799Y-75039100D03*
D28*
X160468799Y-75039100D03*
X160068799Y-75039100D03*
X159668799Y-75039100D03*
X159268799Y-75039100D03*
D27*
X158868799Y-75039100D03*
%TD*%
D16*
%TO.C,C402*%
X170258799Y-76269100D03*
X169298799Y-76269100D03*
%TD*%
%TO.C,C208*%
X158338799Y-83879100D03*
X157378799Y-83879100D03*
%TD*%
D30*
%TO.C,C501*%
X137074872Y-78289100D03*
X138034872Y-78289100D03*
%TD*%
%TO.C,C207*%
X153936299Y-79546600D03*
X154896299Y-79546600D03*
%TD*%
D31*
%TO.C,D302*%
X141074872Y-78419100D03*
X142044872Y-78419100D03*
%TD*%
D16*
%TO.C,C401*%
X168418799Y-78739100D03*
X167458799Y-78739100D03*
%TD*%
D32*
%TO.C,U204*%
X156268799Y-83234100D03*
X154368799Y-83234100D03*
X154368799Y-80959100D03*
X155318799Y-80959100D03*
X156268799Y-80959100D03*
%TD*%
D33*
%TO.C,D501*%
X133144872Y-83134100D03*
X133144872Y-84104100D03*
%TD*%
D34*
%TO.C,C209*%
X154183799Y-72619100D03*
X155733799Y-72619100D03*
%TD*%
D15*
%TO.C,D103*%
X149258799Y-81504100D03*
X149258799Y-80534100D03*
%TD*%
D16*
%TO.C,C404*%
X169878799Y-82079100D03*
X168918799Y-82079100D03*
%TD*%
D18*
%TO.C,R104*%
X140938799Y-82624100D03*
X140938799Y-83644100D03*
%TD*%
D11*
%TO.C,R408*%
X166208799Y-80859100D03*
X166208799Y-79839100D03*
%TD*%
D13*
%TO.C,C103*%
X142138799Y-83614100D03*
X142138799Y-84574100D03*
%TD*%
D21*
%TO.C,R302*%
X155768799Y-78029100D03*
X156788799Y-78029100D03*
%TD*%
D18*
%TO.C,R308*%
X170838799Y-74039100D03*
X170838799Y-75059100D03*
%TD*%
D30*
%TO.C,C405*%
X166468799Y-82079100D03*
X167428799Y-82079100D03*
%TD*%
D21*
%TO.C,R305*%
X161368799Y-82919100D03*
X162388799Y-82919100D03*
%TD*%
D18*
%TO.C,R103*%
X142148799Y-81609100D03*
X142148799Y-82629100D03*
%TD*%
%TO.C,R105*%
X147958799Y-80539100D03*
X147958799Y-81559100D03*
%TD*%
D16*
%TO.C,C205*%
X153108799Y-80789100D03*
X152148799Y-80789100D03*
%TD*%
D18*
%TO.C,R306*%
X172338799Y-74039100D03*
X172338799Y-75059100D03*
%TD*%
D14*
%TO.C,D305*%
X172338799Y-72914100D03*
X172338799Y-71339100D03*
%TD*%
D16*
%TO.C,C206*%
X153098799Y-83539100D03*
X152138799Y-83539100D03*
%TD*%
D13*
%TO.C,C204*%
X160433799Y-71714100D03*
X160433799Y-72674100D03*
%TD*%
D16*
%TO.C,C214*%
X161238799Y-73609100D03*
X160278799Y-73609100D03*
%TD*%
D11*
%TO.C,R404*%
X165768799Y-72609100D03*
X165768799Y-71589100D03*
%TD*%
D35*
%TO.C,U203*%
X152623799Y-82169100D03*
D36*
X152948799Y-81739100D03*
D37*
X152298799Y-81739100D03*
D38*
X152948799Y-82599100D03*
D39*
X152298799Y-82599100D03*
%TD*%
D33*
%TO.C,D303*%
X154908799Y-70469100D03*
X154908799Y-71439100D03*
%TD*%
D40*
%TO.C,C101*%
X138618799Y-82664100D03*
X138618799Y-79714100D03*
%TD*%
D16*
%TO.C,C403*%
X172178799Y-77499100D03*
X171218799Y-77499100D03*
%TD*%
D41*
%TO.C,C502*%
X139428799Y-75339100D03*
X139428799Y-74379100D03*
%TD*%
D42*
%TO.C,D101*%
X147958799Y-82674100D03*
X147958799Y-84249100D03*
%TD*%
D43*
%TO.C,SW501*%
X132908799Y-72080100D03*
X138908799Y-72080100D03*
D44*
X134908799Y-73470100D03*
X135908799Y-73470100D03*
X136908799Y-73470100D03*
%TD*%
D11*
%TO.C,R402*%
X162428799Y-74679100D03*
X162428799Y-73659100D03*
%TD*%
D17*
%TO.C,R106*%
X141228799Y-84534100D03*
X140208799Y-84534100D03*
%TD*%
D18*
%TO.C,R307*%
X169338799Y-74039100D03*
X169338799Y-75059100D03*
%TD*%
D13*
%TO.C,C203*%
X157633799Y-71714100D03*
X157633799Y-72674100D03*
%TD*%
D33*
%TO.C,D304*%
X153958799Y-70469100D03*
X153958799Y-71439100D03*
%TD*%
D45*
%TO.C,D301*%
X142043799Y-76416600D03*
X141073799Y-76416600D03*
%TD*%
D18*
%TO.C,R501*%
X140078799Y-77429100D03*
X140078799Y-78449100D03*
%TD*%
D16*
%TO.C,C301*%
X142043799Y-77419100D03*
X141083799Y-77419100D03*
%TD*%
D33*
%TO.C,D502*%
X178068799Y-82469100D03*
X178068799Y-83439100D03*
%TD*%
D21*
%TO.C,R201*%
X155788799Y-79549100D03*
X156808799Y-79549100D03*
%TD*%
D11*
%TO.C,R407*%
X166718799Y-72619100D03*
X166718799Y-71599100D03*
%TD*%
D14*
%TO.C,D308*%
X173838799Y-72914100D03*
X173838799Y-71339100D03*
%TD*%
D41*
%TO.C,C201*%
X153118799Y-74774100D03*
X153118799Y-73814100D03*
%TD*%
D11*
%TO.C,R502*%
X178058799Y-77149100D03*
X178058799Y-76129100D03*
%TD*%
D41*
%TO.C,C303*%
X154888799Y-76909100D03*
X154888799Y-75949100D03*
%TD*%
D30*
%TO.C,C216*%
X158458799Y-73599100D03*
X159418799Y-73599100D03*
%TD*%
D11*
%TO.C,R401*%
X162428799Y-76549100D03*
X162428799Y-75529100D03*
%TD*%
D30*
%TO.C,C304*%
X169408799Y-84129100D03*
X170368799Y-84129100D03*
%TD*%
D18*
%TO.C,R303*%
X173838799Y-74039100D03*
X173838799Y-75059100D03*
%TD*%
D22*
%TO.C,U201*%
X154488799Y-74294100D03*
D23*
X154058799Y-73969100D03*
D24*
X154058799Y-74619100D03*
D25*
X154918799Y-73969100D03*
D26*
X154918799Y-74619100D03*
%TD*%
D19*
%TO.C,C213*%
X163233799Y-71919100D03*
X161683799Y-71919100D03*
%TD*%
D13*
%TO.C,C210*%
X156958799Y-73789100D03*
X156958799Y-74749100D03*
%TD*%
D46*
%TO.C,R301*%
X151948799Y-78613100D03*
D47*
X151948799Y-78056100D03*
X151948799Y-77556100D03*
D46*
X151948799Y-76999100D03*
X152998799Y-76999100D03*
D47*
X152998799Y-77556100D03*
X152998799Y-78056100D03*
D46*
X152998799Y-78613100D03*
%TD*%
D17*
%TO.C,R105*%
X171825000Y-93790000D03*
X172845000Y-93790000D03*
%TD*%
%TO.C,R103*%
X143435000Y-93590000D03*
X144455000Y-93590000D03*
%TD*%
D41*
%TO.C,C213*%
X156455000Y-106030000D03*
X156455000Y-106990000D03*
%TD*%
D30*
%TO.C,C202*%
X154435000Y-102090000D03*
X153475000Y-102090000D03*
%TD*%
D18*
%TO.C,R211*%
X161735000Y-94810000D03*
X161735000Y-93790000D03*
%TD*%
D45*
%TO.C,D102*%
X143435000Y-94590000D03*
X144405000Y-94590000D03*
%TD*%
D21*
%TO.C,R203*%
X168845000Y-106990000D03*
X167825000Y-106990000D03*
%TD*%
%TO.C,R202*%
X166835000Y-105990000D03*
X165815000Y-105990000D03*
%TD*%
D17*
%TO.C,R201*%
X165745000Y-103490000D03*
X166765000Y-103490000D03*
%TD*%
D30*
%TO.C,C203*%
X154435000Y-96690000D03*
X153475000Y-96690000D03*
%TD*%
%TO.C,C208*%
X154435000Y-101090000D03*
X153475000Y-101090000D03*
%TD*%
D21*
%TO.C,R204*%
X168835000Y-105990000D03*
X167815000Y-105990000D03*
%TD*%
D18*
%TO.C,R213*%
X159735000Y-94810000D03*
X159735000Y-93790000D03*
%TD*%
D30*
%TO.C,C215*%
X154435000Y-98690000D03*
X153475000Y-98690000D03*
%TD*%
D48*
%TO.C,U201*%
X161605000Y-101850000D03*
X161605000Y-100400000D03*
X161605000Y-98950000D03*
X160155000Y-101850000D03*
X160155000Y-100400000D03*
X160155000Y-98950000D03*
X158705000Y-101850000D03*
X158705000Y-100400000D03*
X158705000Y-98950000D03*
D49*
X164605000Y-104150000D03*
X164605000Y-103650000D03*
X164605000Y-103150000D03*
X164605000Y-102650000D03*
X164605000Y-102150000D03*
X164605000Y-101650000D03*
X164605000Y-101150000D03*
X164605000Y-100650000D03*
X164605000Y-100150000D03*
X164605000Y-99650000D03*
X164605000Y-99150000D03*
X164605000Y-98650000D03*
X164605000Y-98150000D03*
X164605000Y-97650000D03*
X164605000Y-97150000D03*
X164605000Y-96650000D03*
D50*
X163905000Y-95950000D03*
X163405000Y-95950000D03*
X162905000Y-95950000D03*
X162405000Y-95950000D03*
X161905000Y-95950000D03*
X161405000Y-95950000D03*
X160905000Y-95950000D03*
X160405000Y-95950000D03*
X159905000Y-95950000D03*
X159405000Y-95950000D03*
X158905000Y-95950000D03*
X158405000Y-95950000D03*
X157905000Y-95950000D03*
X157405000Y-95950000D03*
X156905000Y-95950000D03*
X156405000Y-95950000D03*
D49*
X155705000Y-96650000D03*
X155705000Y-97150000D03*
X155705000Y-97650000D03*
X155705000Y-98150000D03*
X155705000Y-98650000D03*
X155705000Y-99150000D03*
X155705000Y-99650000D03*
X155705000Y-100150000D03*
X155705000Y-100650000D03*
X155705000Y-101150000D03*
X155705000Y-101650000D03*
X155705000Y-102150000D03*
X155705000Y-102650000D03*
X155705000Y-103150000D03*
X155705000Y-103650000D03*
X155705000Y-104150000D03*
D50*
X156405000Y-104850000D03*
X156905000Y-104850000D03*
X157405000Y-104850000D03*
X157905000Y-104850000D03*
X158405000Y-104850000D03*
X158905000Y-104850000D03*
X159405000Y-104850000D03*
X159905000Y-104850000D03*
X160405000Y-104850000D03*
X160905000Y-104850000D03*
X161405000Y-104850000D03*
X161905000Y-104850000D03*
X162405000Y-104850000D03*
X162905000Y-104850000D03*
X163405000Y-104850000D03*
X163905000Y-104850000D03*
%TD*%
D18*
%TO.C,R212*%
X160735000Y-94810000D03*
X160735000Y-93790000D03*
%TD*%
D33*
%TO.C,D104*%
X170535000Y-96890000D03*
X170535000Y-95920000D03*
%TD*%
D31*
%TO.C,D101*%
X144420000Y-105490000D03*
X143450000Y-105490000D03*
%TD*%
D13*
%TO.C,C102*%
X151695000Y-107020000D03*
X151695000Y-106060000D03*
%TD*%
D51*
%TO.C,U102*%
X153295000Y-106090000D03*
D52*
X152645000Y-106090000D03*
D53*
X153295000Y-106950000D03*
D54*
X152645000Y-106950000D03*
D55*
X152970000Y-106520000D03*
%TD*%
D30*
%TO.C,C103*%
X154435000Y-105090000D03*
X153475000Y-105090000D03*
%TD*%
%TO.C,C204*%
X154435000Y-97690000D03*
X153475000Y-97690000D03*
%TD*%
D56*
%TO.C,U202*%
X160480000Y-107210000D03*
X160480000Y-106510000D03*
X159830000Y-107210000D03*
X159830000Y-106510000D03*
D57*
X161617500Y-107610000D03*
X161617500Y-107110000D03*
X161617500Y-106610000D03*
X161617500Y-106110000D03*
X158692500Y-106110000D03*
X158692500Y-106610000D03*
X158692500Y-107110000D03*
X158692500Y-107610000D03*
%TD*%
D46*
%TO.C,R101*%
X150635000Y-101487000D03*
D47*
X150635000Y-100930000D03*
X150635000Y-100430000D03*
D46*
X150635000Y-99873000D03*
X149585000Y-99873000D03*
D47*
X149585000Y-100430000D03*
X149585000Y-100930000D03*
D46*
X149585000Y-101487000D03*
%TD*%
D41*
%TO.C,C211*%
X154455000Y-106030000D03*
X154455000Y-106990000D03*
%TD*%
D13*
%TO.C,C205*%
X170755000Y-103190000D03*
X170755000Y-102230000D03*
%TD*%
D17*
%TO.C,R104*%
X172125000Y-106590000D03*
X173145000Y-106590000D03*
%TD*%
D41*
%TO.C,C12*%
X155455000Y-106030000D03*
X155455000Y-106990000D03*
%TD*%
D17*
%TO.C,R208*%
X165825000Y-96090000D03*
X166845000Y-96090000D03*
%TD*%
D13*
%TO.C,C207*%
X157955000Y-94790000D03*
X157955000Y-93830000D03*
%TD*%
D58*
%TO.C,U103*%
X169855000Y-100210000D03*
X169855000Y-99260000D03*
X169855000Y-98310000D03*
X167580000Y-98310000D03*
X167580000Y-99260000D03*
X167580000Y-100210000D03*
%TD*%
D21*
%TO.C,R106*%
X170245000Y-93790000D03*
X169225000Y-93790000D03*
%TD*%
D59*
%TO.C,D105*%
X176522500Y-94390000D03*
X174947500Y-94390000D03*
%TD*%
D13*
%TO.C,C216*%
X157455000Y-106990000D03*
X157455000Y-106030000D03*
%TD*%
D17*
%TO.C,R205*%
X165825000Y-106990000D03*
X166845000Y-106990000D03*
%TD*%
D13*
%TO.C,C214*%
X164735000Y-106890000D03*
X164735000Y-105930000D03*
%TD*%
D21*
%TO.C,R206*%
X166845000Y-97090000D03*
X165825000Y-97090000D03*
%TD*%
D60*
%TO.C,C101*%
X169235000Y-96665000D03*
X169235000Y-95115000D03*
%TD*%
D21*
%TO.C,R207*%
X166795000Y-101490000D03*
X165775000Y-101490000D03*
%TD*%
D45*
%TO.C,FB202*%
X154440000Y-95690000D03*
X153470000Y-95690000D03*
%TD*%
D13*
%TO.C,C210*%
X162735000Y-94780000D03*
X162735000Y-93820000D03*
%TD*%
D17*
%TO.C,R210*%
X165825000Y-94090000D03*
X166845000Y-94090000D03*
%TD*%
%TO.C,R102*%
X143425000Y-96590000D03*
X144445000Y-96590000D03*
%TD*%
D45*
%TO.C,FB201*%
X154440000Y-104090000D03*
X153470000Y-104090000D03*
%TD*%
D30*
%TO.C,C206*%
X166755000Y-102490000D03*
X165795000Y-102490000D03*
%TD*%
D45*
%TO.C,D103*%
X143435000Y-95590000D03*
X144405000Y-95590000D03*
%TD*%
D61*
%TO.C,J103*%
X172745000Y-103880000D03*
X172745000Y-103080000D03*
D62*
X172745000Y-101930000D03*
X172745000Y-100930000D03*
X172745000Y-100430000D03*
X172745000Y-99430000D03*
D61*
X172745000Y-98280000D03*
X172745000Y-97480000D03*
X172745000Y-97480000D03*
X172745000Y-98280000D03*
D62*
X172745000Y-98930000D03*
X172745000Y-99930000D03*
X172745000Y-101430000D03*
X172745000Y-102430000D03*
D61*
X172745000Y-103080000D03*
X172745000Y-103880000D03*
D63*
X173320000Y-105000000D03*
D64*
X177500000Y-105000000D03*
D63*
X173320000Y-96360000D03*
D64*
X177500000Y-96360000D03*
%TD*%
D17*
%TO.C,R209*%
X165825000Y-95090000D03*
X166845000Y-95090000D03*
%TD*%
D30*
%TO.C,C201*%
X154435000Y-103090000D03*
X153475000Y-103090000D03*
%TD*%
D21*
%TO.C,R107*%
X172845000Y-94790000D03*
X171825000Y-94790000D03*
%TD*%
D13*
%TO.C,C209*%
X156955000Y-94790000D03*
X156955000Y-93830000D03*
%TD*%
M02*
