%TF.GenerationSoftware,KiCad,Pcbnew,9.0.6*%
%TF.CreationDate,2025-12-31T19:41:11+01:00*%
%TF.ProjectId,Programmer_Sensor_Stencil,50726f67-7261-46d6-9d65-725f53656e73,rev?*%
%TF.SameCoordinates,Original*%
%TF.FileFunction,Paste,Top*%
%TF.FilePolarity,Positive*%
%FSLAX46Y46*%
G04 Gerber Fmt 4.6, Leading zero omitted, Abs format (unit mm)*
G04 Created by KiCad (PCBNEW 9.0.6) date 2025-12-31 19:41:11*
%MOMM*%
%LPD*%
G01*
G04 APERTURE LIST*
G04 Aperture macros list*
%AMRoundRect*
0 Rectangle with rounded corners*
0 $1 Rounding radius*
0 $2 $3 $4 $5 $6 $7 $8 $9 X,Y pos of 4 corners*
0 Add a 4 corners polygon primitive as box body*
4,1,4,$2,$3,$4,$5,$6,$7,$8,$9,$2,$3,0*
0 Add four circle primitives for the rounded corners*
1,1,$1+$1,$2,$3*
1,1,$1+$1,$4,$5*
1,1,$1+$1,$6,$7*
1,1,$1+$1,$8,$9*
0 Add four rect primitives between the rounded corners*
20,1,$1+$1,$2,$3,$4,$5,0*
20,1,$1+$1,$4,$5,$6,$7,0*
20,1,$1+$1,$6,$7,$8,$9,0*
20,1,$1+$1,$8,$9,$2,$3,0*%
%AMFreePoly0*
4,1,6,0.180000,0.075000,0.000000,-0.105000,-0.220000,-0.105000,-0.220000,0.105000,0.180000,0.105000,0.180000,0.075000,0.180000,0.075000,$1*%
%AMFreePoly1*
4,1,6,0.180000,-0.075000,0.180000,-0.105000,-0.220000,-0.105000,-0.220000,0.105000,0.000000,0.105000,0.180000,-0.075000,0.180000,-0.075000,$1*%
%AMFreePoly2*
4,1,6,0.220000,-0.105000,0.000000,-0.105000,-0.180000,0.075000,-0.180000,0.105000,0.220000,0.105000,0.220000,-0.105000,0.220000,-0.105000,$1*%
%AMFreePoly3*
4,1,6,0.220000,-0.105000,-0.180000,-0.105000,-0.180000,-0.075000,0.000000,0.105000,0.220000,0.105000,0.220000,-0.105000,0.220000,-0.105000,$1*%
G04 Aperture macros list end*
%ADD10C,0.010000*%
%ADD11RoundRect,0.218750X-0.256250X0.218750X-0.256250X-0.218750X0.256250X-0.218750X0.256250X0.218750X0*%
%ADD12RoundRect,0.140000X-0.140000X-0.170000X0.140000X-0.170000X0.140000X0.170000X-0.140000X0.170000X0*%
%ADD13RoundRect,0.140000X0.170000X-0.140000X0.170000X0.140000X-0.170000X0.140000X-0.170000X-0.140000X0*%
%ADD14FreePoly0,90.000000*%
%ADD15FreePoly1,90.000000*%
%ADD16FreePoly2,90.000000*%
%ADD17FreePoly3,90.000000*%
%ADD18RoundRect,0.112500X0.159099X0.000000X0.000000X0.159099X-0.159099X0.000000X0.000000X-0.159099X0*%
%ADD19RoundRect,0.250000X-1.100000X0.325000X-1.100000X-0.325000X1.100000X-0.325000X1.100000X0.325000X0*%
%ADD20RoundRect,0.135000X-0.185000X0.135000X-0.185000X-0.135000X0.185000X-0.135000X0.185000X0.135000X0*%
%ADD21RoundRect,0.135000X0.185000X-0.135000X0.185000X0.135000X-0.185000X0.135000X-0.185000X-0.135000X0*%
%ADD22RoundRect,0.140000X0.140000X0.170000X-0.140000X0.170000X-0.140000X-0.170000X0.140000X-0.170000X0*%
%ADD23RoundRect,0.135000X0.135000X0.185000X-0.135000X0.185000X-0.135000X-0.185000X0.135000X-0.185000X0*%
%ADD24RoundRect,0.147500X0.147500X0.172500X-0.147500X0.172500X-0.147500X-0.172500X0.147500X-0.172500X0*%
%ADD25C,0.270002*%
%ADD26RoundRect,0.150000X-0.150000X0.512500X-0.150000X-0.512500X0.150000X-0.512500X0.150000X0.512500X0*%
%ADD27RoundRect,0.147500X0.172500X-0.147500X0.172500X0.147500X-0.172500X0.147500X-0.172500X-0.147500X0*%
%ADD28FreePoly0,180.000000*%
%ADD29FreePoly1,180.000000*%
%ADD30FreePoly2,180.000000*%
%ADD31FreePoly3,180.000000*%
%ADD32RoundRect,0.112500X0.000000X0.159099X-0.159099X0.000000X0.000000X-0.159099X0.159099X0.000000X0*%
%ADD33RoundRect,0.200000X0.200000X0.275000X-0.200000X0.275000X-0.200000X-0.275000X0.200000X-0.275000X0*%
%ADD34RoundRect,0.218750X0.256250X-0.218750X0.256250X0.218750X-0.256250X0.218750X-0.256250X-0.218750X0*%
%ADD35RoundRect,0.147500X-0.172500X0.147500X-0.172500X-0.147500X0.172500X-0.147500X0.172500X0.147500X0*%
%ADD36RoundRect,0.140000X-0.170000X0.140000X-0.170000X-0.140000X0.170000X-0.140000X0.170000X0.140000X0*%
%ADD37RoundRect,0.135000X-0.135000X-0.185000X0.135000X-0.185000X0.135000X0.185000X-0.135000X0.185000X0*%
%ADD38R,0.600000X0.510000*%
%ADD39R,0.900000X0.700000*%
%ADD40RoundRect,0.147500X-0.147500X-0.172500X0.147500X-0.172500X0.147500X0.172500X-0.147500X0.172500X0*%
%ADD41RoundRect,0.225000X-0.250000X0.225000X-0.250000X-0.225000X0.250000X-0.225000X0.250000X0.225000X0*%
%ADD42RoundRect,0.225000X-0.225000X-0.250000X0.225000X-0.250000X0.225000X0.250000X-0.225000X0.250000X0*%
%ADD43R,0.550000X0.365000*%
%ADD44R,0.550000X0.250000*%
%ADD45RoundRect,0.225000X0.225000X0.250000X-0.225000X0.250000X-0.225000X-0.250000X0.225000X-0.250000X0*%
%ADD46RoundRect,0.218750X0.218750X0.256250X-0.218750X0.256250X-0.218750X-0.256250X0.218750X-0.256250X0*%
%ADD47RoundRect,0.250000X0.335000X0.335000X-0.335000X0.335000X-0.335000X-0.335000X0.335000X-0.335000X0*%
%ADD48RoundRect,0.062500X0.337500X0.062500X-0.337500X0.062500X-0.337500X-0.062500X0.337500X-0.062500X0*%
%ADD49RoundRect,0.062500X0.062500X0.337500X-0.062500X0.337500X-0.062500X-0.337500X0.062500X-0.337500X0*%
%ADD50FreePoly0,270.000000*%
%ADD51FreePoly1,270.000000*%
%ADD52FreePoly2,270.000000*%
%ADD53FreePoly3,270.000000*%
%ADD54RoundRect,0.112500X-0.159099X0.000000X0.000000X-0.159099X0.159099X0.000000X0.000000X0.159099X0*%
%ADD55RoundRect,0.150000X0.425000X-0.150000X0.425000X0.150000X-0.425000X0.150000X-0.425000X-0.150000X0*%
%ADD56RoundRect,0.075000X0.500000X-0.075000X0.500000X0.075000X-0.500000X0.075000X-0.500000X-0.075000X0*%
%ADD57O,2.100000X1.000000*%
%ADD58O,1.800000X1.000000*%
%ADD59RoundRect,0.130000X0.130000X0.150000X-0.130000X0.150000X-0.130000X-0.150000X0.130000X-0.150000X0*%
%ADD60RoundRect,0.062500X0.325000X0.062500X-0.325000X0.062500X-0.325000X-0.062500X0.325000X-0.062500X0*%
%ADD61RoundRect,0.150000X0.512500X0.150000X-0.512500X0.150000X-0.512500X-0.150000X0.512500X-0.150000X0*%
%ADD62RoundRect,0.225000X0.250000X-0.225000X0.250000X0.225000X-0.250000X0.225000X-0.250000X-0.225000X0*%
G04 APERTURE END LIST*
%TO.C,Y401*%
D10*
X167970000Y-80510000D02*
X168470000Y-80510000D01*
X168470000Y-81010000D01*
X167970000Y-81010000D01*
X167970000Y-80510000D01*
G36*
X167970000Y-80510000D02*
G01*
X168470000Y-80510000D01*
X168470000Y-81010000D01*
X167970000Y-81010000D01*
X167970000Y-80510000D01*
G37*
X167970000Y-81285000D02*
X168470000Y-81285000D01*
X168470000Y-81785000D01*
X167970000Y-81785000D01*
X167970000Y-81285000D01*
G36*
X167970000Y-81285000D02*
G01*
X168470000Y-81285000D01*
X168470000Y-81785000D01*
X167970000Y-81785000D01*
X167970000Y-81285000D01*
G37*
X169470000Y-80485000D02*
X169970000Y-80485000D01*
X169970000Y-80985000D01*
X169470000Y-80985000D01*
X169470000Y-80485000D01*
G36*
X169470000Y-80485000D02*
G01*
X169970000Y-80485000D01*
X169970000Y-80985000D01*
X169470000Y-80985000D01*
X169470000Y-80485000D01*
G37*
X169470000Y-81260000D02*
X169970000Y-81260000D01*
X169970000Y-81760000D01*
X169470000Y-81760000D01*
X169470000Y-81260000D01*
G36*
X169470000Y-81260000D02*
G01*
X169970000Y-81260000D01*
X169970000Y-81760000D01*
X169470000Y-81760000D01*
X169470000Y-81260000D01*
G37*
%TO.C,U305*%
X159550000Y-79860000D02*
X159350000Y-79860000D01*
X159350000Y-80360000D01*
X159550000Y-80360000D01*
X159550000Y-79860000D01*
G36*
X159550000Y-79860000D02*
G01*
X159350000Y-79860000D01*
X159350000Y-80360000D01*
X159550000Y-80360000D01*
X159550000Y-79860000D01*
G37*
X159550000Y-82260000D02*
X159350000Y-82260000D01*
X159350000Y-82760000D01*
X159550000Y-82760000D01*
X159550000Y-82260000D01*
G36*
X159550000Y-82260000D02*
G01*
X159350000Y-82260000D01*
X159350000Y-82760000D01*
X159550000Y-82760000D01*
X159550000Y-82260000D01*
G37*
X160200000Y-81260000D02*
X159500000Y-81260000D01*
X159500000Y-81360000D01*
X160200000Y-81360000D01*
X160200000Y-81260000D01*
G36*
X160200000Y-81260000D02*
G01*
X159500000Y-81260000D01*
X159500000Y-81360000D01*
X160200000Y-81360000D01*
X160200000Y-81260000D01*
G37*
X160350000Y-79860000D02*
X160150000Y-79860000D01*
X160150000Y-80360000D01*
X160350000Y-80360000D01*
X160350000Y-79860000D01*
G36*
X160350000Y-79860000D02*
G01*
X160150000Y-79860000D01*
X160150000Y-80360000D01*
X160350000Y-80360000D01*
X160350000Y-79860000D01*
G37*
X160350000Y-82260000D02*
X160150000Y-82260000D01*
X160150000Y-82760000D01*
X160350000Y-82760000D01*
X160350000Y-82260000D01*
G36*
X160350000Y-82260000D02*
G01*
X160150000Y-82260000D01*
X160150000Y-82760000D01*
X160350000Y-82760000D01*
X160350000Y-82260000D01*
G37*
X161150000Y-79860000D02*
X160950000Y-79860000D01*
X160950000Y-80360000D01*
X161150000Y-80360000D01*
X161150000Y-79860000D01*
G36*
X161150000Y-79860000D02*
G01*
X160950000Y-79860000D01*
X160950000Y-80360000D01*
X161150000Y-80360000D01*
X161150000Y-79860000D01*
G37*
X161150000Y-82260000D02*
X160950000Y-82260000D01*
X160950000Y-82760000D01*
X161150000Y-82760000D01*
X161150000Y-82260000D01*
G36*
X161150000Y-82260000D02*
G01*
X160950000Y-82260000D01*
X160950000Y-82760000D01*
X161150000Y-82760000D01*
X161150000Y-82260000D01*
G37*
X161800000Y-81260000D02*
X161100000Y-81260000D01*
X161100000Y-81360000D01*
X161800000Y-81360000D01*
X161800000Y-81260000D01*
G36*
X161800000Y-81260000D02*
G01*
X161100000Y-81260000D01*
X161100000Y-81360000D01*
X161800000Y-81360000D01*
X161800000Y-81260000D01*
G37*
X161950000Y-79860000D02*
X161750000Y-79860000D01*
X161750000Y-80360000D01*
X161950000Y-80360000D01*
X161950000Y-79860000D01*
G36*
X161950000Y-79860000D02*
G01*
X161750000Y-79860000D01*
X161750000Y-80360000D01*
X161950000Y-80360000D01*
X161950000Y-79860000D01*
G37*
X161950000Y-82260000D02*
X161750000Y-82260000D01*
X161750000Y-82760000D01*
X161950000Y-82760000D01*
X161950000Y-82260000D01*
G36*
X161950000Y-82260000D02*
G01*
X161750000Y-82260000D01*
X161750000Y-82760000D01*
X161950000Y-82760000D01*
X161950000Y-82260000D01*
G37*
%TO.C,U505*%
X136600000Y-77210000D02*
X137000000Y-77210000D01*
X137000000Y-77010000D01*
X136600000Y-77010000D01*
X136600000Y-77210000D01*
G36*
X136600000Y-77210000D02*
G01*
X137000000Y-77210000D01*
X137000000Y-77010000D01*
X136600000Y-77010000D01*
X136600000Y-77210000D01*
G37*
X136600000Y-77610000D02*
X137000000Y-77610000D01*
X137000000Y-77410000D01*
X136600000Y-77410000D01*
X136600000Y-77610000D01*
G36*
X136600000Y-77610000D02*
G01*
X137000000Y-77610000D01*
X137000000Y-77410000D01*
X136600000Y-77410000D01*
X136600000Y-77610000D01*
G37*
X136800000Y-76810000D02*
X137000000Y-76810000D01*
X137000000Y-76410000D01*
X136800000Y-76410000D01*
X136800000Y-76810000D01*
G36*
X136800000Y-76810000D02*
G01*
X137000000Y-76810000D01*
X137000000Y-76410000D01*
X136800000Y-76410000D01*
X136800000Y-76810000D01*
G37*
X136800000Y-78210000D02*
X137000000Y-78210000D01*
X137000000Y-77810000D01*
X136800000Y-77810000D01*
X136800000Y-78210000D01*
G36*
X136800000Y-78210000D02*
G01*
X137000000Y-78210000D01*
X137000000Y-77810000D01*
X136800000Y-77810000D01*
X136800000Y-78210000D01*
G37*
X137200000Y-76810000D02*
X137400000Y-76810000D01*
X137400000Y-76410000D01*
X137200000Y-76410000D01*
X137200000Y-76810000D01*
G36*
X137200000Y-76810000D02*
G01*
X137400000Y-76810000D01*
X137400000Y-76410000D01*
X137200000Y-76410000D01*
X137200000Y-76810000D01*
G37*
X137200000Y-78210000D02*
X137400000Y-78210000D01*
X137400000Y-77810000D01*
X137200000Y-77810000D01*
X137200000Y-78210000D01*
G36*
X137200000Y-78210000D02*
G01*
X137400000Y-78210000D01*
X137400000Y-77810000D01*
X137200000Y-77810000D01*
X137200000Y-78210000D01*
G37*
X137300000Y-77510000D02*
X137700000Y-77510000D01*
X137700000Y-77110000D01*
X137300000Y-77110000D01*
X137300000Y-77510000D01*
G36*
X137300000Y-77510000D02*
G01*
X137700000Y-77510000D01*
X137700000Y-77110000D01*
X137300000Y-77110000D01*
X137300000Y-77510000D01*
G37*
X137600000Y-76810000D02*
X137800000Y-76810000D01*
X137800000Y-76410000D01*
X137600000Y-76410000D01*
X137600000Y-76810000D01*
G36*
X137600000Y-76810000D02*
G01*
X137800000Y-76810000D01*
X137800000Y-76410000D01*
X137600000Y-76410000D01*
X137600000Y-76810000D01*
G37*
X137600000Y-78210000D02*
X137800000Y-78210000D01*
X137800000Y-77810000D01*
X137600000Y-77810000D01*
X137600000Y-78210000D01*
G36*
X137600000Y-78210000D02*
G01*
X137800000Y-78210000D01*
X137800000Y-77810000D01*
X137600000Y-77810000D01*
X137600000Y-78210000D01*
G37*
X138000000Y-76810000D02*
X138200000Y-76810000D01*
X138200000Y-76410000D01*
X138000000Y-76410000D01*
X138000000Y-76810000D01*
G36*
X138000000Y-76810000D02*
G01*
X138200000Y-76810000D01*
X138200000Y-76410000D01*
X138000000Y-76410000D01*
X138000000Y-76810000D01*
G37*
X138000000Y-78210000D02*
X138200000Y-78210000D01*
X138200000Y-77810000D01*
X138000000Y-77810000D01*
X138000000Y-78210000D01*
G36*
X138000000Y-78210000D02*
G01*
X138200000Y-78210000D01*
X138200000Y-77810000D01*
X138000000Y-77810000D01*
X138000000Y-78210000D01*
G37*
X138100000Y-77510000D02*
X138500000Y-77510000D01*
X138500000Y-77110000D01*
X138100000Y-77110000D01*
X138100000Y-77510000D01*
G36*
X138100000Y-77510000D02*
G01*
X138500000Y-77510000D01*
X138500000Y-77110000D01*
X138100000Y-77110000D01*
X138100000Y-77510000D01*
G37*
X138400000Y-76810000D02*
X138600000Y-76810000D01*
X138600000Y-76410000D01*
X138400000Y-76410000D01*
X138400000Y-76810000D01*
G36*
X138400000Y-76810000D02*
G01*
X138600000Y-76810000D01*
X138600000Y-76410000D01*
X138400000Y-76410000D01*
X138400000Y-76810000D01*
G37*
X138400000Y-78210000D02*
X138600000Y-78210000D01*
X138600000Y-77810000D01*
X138400000Y-77810000D01*
X138400000Y-78210000D01*
G36*
X138400000Y-78210000D02*
G01*
X138600000Y-78210000D01*
X138600000Y-77810000D01*
X138400000Y-77810000D01*
X138400000Y-78210000D01*
G37*
X138800000Y-76810000D02*
X139000000Y-76810000D01*
X139000000Y-76410000D01*
X138800000Y-76410000D01*
X138800000Y-76810000D01*
G36*
X138800000Y-76810000D02*
G01*
X139000000Y-76810000D01*
X139000000Y-76410000D01*
X138800000Y-76410000D01*
X138800000Y-76810000D01*
G37*
X138800000Y-77210000D02*
X139200000Y-77210000D01*
X139200000Y-77010000D01*
X138800000Y-77010000D01*
X138800000Y-77210000D01*
G36*
X138800000Y-77210000D02*
G01*
X139200000Y-77210000D01*
X139200000Y-77010000D01*
X138800000Y-77010000D01*
X138800000Y-77210000D01*
G37*
X138800000Y-77610000D02*
X139200000Y-77610000D01*
X139200000Y-77410000D01*
X138800000Y-77410000D01*
X138800000Y-77610000D01*
G36*
X138800000Y-77610000D02*
G01*
X139200000Y-77610000D01*
X139200000Y-77410000D01*
X138800000Y-77410000D01*
X138800000Y-77610000D01*
G37*
X138800000Y-78210000D02*
X139000000Y-78210000D01*
X139000000Y-77810000D01*
X138800000Y-77810000D01*
X138800000Y-78210000D01*
G36*
X138800000Y-78210000D02*
G01*
X139000000Y-78210000D01*
X139000000Y-77810000D01*
X138800000Y-77810000D01*
X138800000Y-78210000D01*
G37*
%TO.C,U503*%
X177292101Y-75410000D02*
X176842101Y-75410000D01*
X176842101Y-75210000D01*
X177292101Y-75210000D01*
X177292101Y-75410000D01*
G36*
X177292101Y-75410000D02*
G01*
X176842101Y-75410000D01*
X176842101Y-75210000D01*
X177292101Y-75210000D01*
X177292101Y-75410000D01*
G37*
X177292101Y-75910000D02*
X176842101Y-75910000D01*
X176842101Y-75710000D01*
X177292101Y-75710000D01*
X177292101Y-75910000D01*
G36*
X177292101Y-75910000D02*
G01*
X176842101Y-75910000D01*
X176842101Y-75710000D01*
X177292101Y-75710000D01*
X177292101Y-75910000D01*
G37*
X177292101Y-76410000D02*
X176842101Y-76410000D01*
X176842101Y-76210000D01*
X177292101Y-76210000D01*
X177292101Y-76410000D01*
G36*
X177292101Y-76410000D02*
G01*
X176842101Y-76410000D01*
X176842101Y-76210000D01*
X177292101Y-76210000D01*
X177292101Y-76410000D01*
G37*
X177292101Y-76910000D02*
X176842101Y-76910000D01*
X176842101Y-76710000D01*
X177292101Y-76710000D01*
X177292101Y-76910000D01*
G36*
X177292101Y-76910000D02*
G01*
X176842101Y-76910000D01*
X176842101Y-76710000D01*
X177292101Y-76710000D01*
X177292101Y-76910000D01*
G37*
X177292101Y-77410000D02*
X176842101Y-77410000D01*
X176842101Y-77210000D01*
X177292101Y-77210000D01*
X177292101Y-77410000D01*
G36*
X177292101Y-77410000D02*
G01*
X176842101Y-77410000D01*
X176842101Y-77210000D01*
X177292101Y-77210000D01*
X177292101Y-77410000D01*
G37*
X178067101Y-75410000D02*
X177617101Y-75410000D01*
X177617101Y-75210000D01*
X178067101Y-75210000D01*
X178067101Y-75410000D01*
G36*
X178067101Y-75410000D02*
G01*
X177617101Y-75410000D01*
X177617101Y-75210000D01*
X178067101Y-75210000D01*
X178067101Y-75410000D01*
G37*
X178067101Y-75910000D02*
X177617101Y-75910000D01*
X177617101Y-75710000D01*
X178067101Y-75710000D01*
X178067101Y-75910000D01*
G36*
X178067101Y-75910000D02*
G01*
X177617101Y-75910000D01*
X177617101Y-75710000D01*
X178067101Y-75710000D01*
X178067101Y-75910000D01*
G37*
X178067101Y-76410000D02*
X177617101Y-76410000D01*
X177617101Y-76210000D01*
X178067101Y-76210000D01*
X178067101Y-76410000D01*
G36*
X178067101Y-76410000D02*
G01*
X177617101Y-76410000D01*
X177617101Y-76210000D01*
X178067101Y-76210000D01*
X178067101Y-76410000D01*
G37*
X178067101Y-76910000D02*
X177617101Y-76910000D01*
X177617101Y-76710000D01*
X178067101Y-76710000D01*
X178067101Y-76910000D01*
G36*
X178067101Y-76910000D02*
G01*
X177617101Y-76910000D01*
X177617101Y-76710000D01*
X178067101Y-76710000D01*
X178067101Y-76910000D01*
G37*
X178067101Y-77410000D02*
X177617101Y-77410000D01*
X177617101Y-77210000D01*
X178067101Y-77210000D01*
X178067101Y-77410000D01*
G36*
X178067101Y-77410000D02*
G01*
X177617101Y-77410000D01*
X177617101Y-77210000D01*
X178067101Y-77210000D01*
X178067101Y-77410000D01*
G37*
%TO.C,U401*%
X164495000Y-75235000D02*
X164345000Y-75235000D01*
X164345000Y-74660000D01*
X164495000Y-74660000D01*
X164495000Y-75235000D01*
G36*
X164495000Y-75235000D02*
G01*
X164345000Y-75235000D01*
X164345000Y-74660000D01*
X164495000Y-74660000D01*
X164495000Y-75235000D01*
G37*
X164495000Y-78560000D02*
X164345000Y-78560000D01*
X164345000Y-77985000D01*
X164495000Y-77985000D01*
X164495000Y-78560000D01*
G36*
X164495000Y-78560000D02*
G01*
X164345000Y-78560000D01*
X164345000Y-77985000D01*
X164495000Y-77985000D01*
X164495000Y-78560000D01*
G37*
X164575000Y-76435000D02*
X164000000Y-76435000D01*
X164000000Y-76285000D01*
X164575000Y-76285000D01*
X164575000Y-76435000D01*
G36*
X164575000Y-76435000D02*
G01*
X164000000Y-76435000D01*
X164000000Y-76285000D01*
X164575000Y-76285000D01*
X164575000Y-76435000D01*
G37*
X164575000Y-76935000D02*
X164000000Y-76935000D01*
X164000000Y-76785000D01*
X164575000Y-76785000D01*
X164575000Y-76935000D01*
G36*
X164575000Y-76935000D02*
G01*
X164000000Y-76935000D01*
X164000000Y-76785000D01*
X164575000Y-76785000D01*
X164575000Y-76935000D01*
G37*
X164575000Y-77435000D02*
X164000000Y-77435000D01*
X164000000Y-77285000D01*
X164575000Y-77285000D01*
X164575000Y-77435000D01*
G36*
X164575000Y-77435000D02*
G01*
X164000000Y-77435000D01*
X164000000Y-77285000D01*
X164575000Y-77285000D01*
X164575000Y-77435000D01*
G37*
X164577500Y-75935000D02*
X164002500Y-75935000D01*
X164002500Y-75785000D01*
X164577500Y-75785000D01*
X164577500Y-75935000D01*
G36*
X164577500Y-75935000D02*
G01*
X164002500Y-75935000D01*
X164002500Y-75785000D01*
X164577500Y-75785000D01*
X164577500Y-75935000D01*
G37*
X164995000Y-75235000D02*
X164845000Y-75235000D01*
X164845000Y-74660000D01*
X164995000Y-74660000D01*
X164995000Y-75235000D01*
G36*
X164995000Y-75235000D02*
G01*
X164845000Y-75235000D01*
X164845000Y-74660000D01*
X164995000Y-74660000D01*
X164995000Y-75235000D01*
G37*
X164995000Y-78560000D02*
X164845000Y-78560000D01*
X164845000Y-77985000D01*
X164995000Y-77985000D01*
X164995000Y-78560000D01*
G36*
X164995000Y-78560000D02*
G01*
X164845000Y-78560000D01*
X164845000Y-77985000D01*
X164995000Y-77985000D01*
X164995000Y-78560000D01*
G37*
X165495000Y-75235000D02*
X165345000Y-75235000D01*
X165345000Y-74660000D01*
X165495000Y-74660000D01*
X165495000Y-75235000D01*
G36*
X165495000Y-75235000D02*
G01*
X165345000Y-75235000D01*
X165345000Y-74660000D01*
X165495000Y-74660000D01*
X165495000Y-75235000D01*
G37*
X165495000Y-78560000D02*
X165345000Y-78560000D01*
X165345000Y-77985000D01*
X165495000Y-77985000D01*
X165495000Y-78560000D01*
G36*
X165495000Y-78560000D02*
G01*
X165345000Y-78560000D01*
X165345000Y-77985000D01*
X165495000Y-77985000D01*
X165495000Y-78560000D01*
G37*
X165995000Y-75235000D02*
X165845000Y-75235000D01*
X165845000Y-74660000D01*
X165995000Y-74660000D01*
X165995000Y-75235000D01*
G36*
X165995000Y-75235000D02*
G01*
X165845000Y-75235000D01*
X165845000Y-74660000D01*
X165995000Y-74660000D01*
X165995000Y-75235000D01*
G37*
X165995000Y-78560000D02*
X165845000Y-78560000D01*
X165845000Y-77985000D01*
X165995000Y-77985000D01*
X165995000Y-78560000D01*
G36*
X165995000Y-78560000D02*
G01*
X165845000Y-78560000D01*
X165845000Y-77985000D01*
X165995000Y-77985000D01*
X165995000Y-78560000D01*
G37*
X166495000Y-75235000D02*
X166345000Y-75235000D01*
X166345000Y-74660000D01*
X166495000Y-74660000D01*
X166495000Y-75235000D01*
G36*
X166495000Y-75235000D02*
G01*
X166345000Y-75235000D01*
X166345000Y-74660000D01*
X166495000Y-74660000D01*
X166495000Y-75235000D01*
G37*
X166495000Y-78560000D02*
X166345000Y-78560000D01*
X166345000Y-77985000D01*
X166495000Y-77985000D01*
X166495000Y-78560000D01*
G36*
X166495000Y-78560000D02*
G01*
X166345000Y-78560000D01*
X166345000Y-77985000D01*
X166495000Y-77985000D01*
X166495000Y-78560000D01*
G37*
X166995000Y-75235000D02*
X166845000Y-75235000D01*
X166845000Y-74660000D01*
X166995000Y-74660000D01*
X166995000Y-75235000D01*
G36*
X166995000Y-75235000D02*
G01*
X166845000Y-75235000D01*
X166845000Y-74660000D01*
X166995000Y-74660000D01*
X166995000Y-75235000D01*
G37*
X166995000Y-78560000D02*
X166845000Y-78560000D01*
X166845000Y-77985000D01*
X166995000Y-77985000D01*
X166995000Y-78560000D01*
G36*
X166995000Y-78560000D02*
G01*
X166845000Y-78560000D01*
X166845000Y-77985000D01*
X166995000Y-77985000D01*
X166995000Y-78560000D01*
G37*
X167495000Y-75235000D02*
X167345000Y-75235000D01*
X167345000Y-74660000D01*
X167495000Y-74660000D01*
X167495000Y-75235000D01*
G36*
X167495000Y-75235000D02*
G01*
X167345000Y-75235000D01*
X167345000Y-74660000D01*
X167495000Y-74660000D01*
X167495000Y-75235000D01*
G37*
X167495000Y-78560000D02*
X167345000Y-78560000D01*
X167345000Y-77985000D01*
X167495000Y-77985000D01*
X167495000Y-78560000D01*
G36*
X167495000Y-78560000D02*
G01*
X167345000Y-78560000D01*
X167345000Y-77985000D01*
X167495000Y-77985000D01*
X167495000Y-78560000D01*
G37*
X167995000Y-75235000D02*
X167845000Y-75235000D01*
X167845000Y-74660000D01*
X167995000Y-74660000D01*
X167995000Y-75235000D01*
G36*
X167995000Y-75235000D02*
G01*
X167845000Y-75235000D01*
X167845000Y-74660000D01*
X167995000Y-74660000D01*
X167995000Y-75235000D01*
G37*
X167995000Y-78560000D02*
X167845000Y-78560000D01*
X167845000Y-77985000D01*
X167995000Y-77985000D01*
X167995000Y-78560000D01*
G36*
X167995000Y-78560000D02*
G01*
X167845000Y-78560000D01*
X167845000Y-77985000D01*
X167995000Y-77985000D01*
X167995000Y-78560000D01*
G37*
X168495000Y-75235000D02*
X168345000Y-75235000D01*
X168345000Y-74660000D01*
X168495000Y-74660000D01*
X168495000Y-75235000D01*
G36*
X168495000Y-75235000D02*
G01*
X168345000Y-75235000D01*
X168345000Y-74660000D01*
X168495000Y-74660000D01*
X168495000Y-75235000D01*
G37*
X168495000Y-78560000D02*
X168345000Y-78560000D01*
X168345000Y-77985000D01*
X168495000Y-77985000D01*
X168495000Y-78560000D01*
G36*
X168495000Y-78560000D02*
G01*
X168345000Y-78560000D01*
X168345000Y-77985000D01*
X168495000Y-77985000D01*
X168495000Y-78560000D01*
G37*
X168995000Y-75235000D02*
X168845000Y-75235000D01*
X168845000Y-74660000D01*
X168995000Y-74660000D01*
X168995000Y-75235000D01*
G36*
X168995000Y-75235000D02*
G01*
X168845000Y-75235000D01*
X168845000Y-74660000D01*
X168995000Y-74660000D01*
X168995000Y-75235000D01*
G37*
X168995000Y-78560000D02*
X168845000Y-78560000D01*
X168845000Y-77985000D01*
X168995000Y-77985000D01*
X168995000Y-78560000D01*
G36*
X168995000Y-78560000D02*
G01*
X168845000Y-78560000D01*
X168845000Y-77985000D01*
X168995000Y-77985000D01*
X168995000Y-78560000D01*
G37*
X169350000Y-75935000D02*
X168775000Y-75935000D01*
X168775000Y-75785000D01*
X169350000Y-75785000D01*
X169350000Y-75935000D01*
G36*
X169350000Y-75935000D02*
G01*
X168775000Y-75935000D01*
X168775000Y-75785000D01*
X169350000Y-75785000D01*
X169350000Y-75935000D01*
G37*
X169350000Y-76435000D02*
X168775000Y-76435000D01*
X168775000Y-76285000D01*
X169350000Y-76285000D01*
X169350000Y-76435000D01*
G36*
X169350000Y-76435000D02*
G01*
X168775000Y-76435000D01*
X168775000Y-76285000D01*
X169350000Y-76285000D01*
X169350000Y-76435000D01*
G37*
X169350000Y-76935000D02*
X168775000Y-76935000D01*
X168775000Y-76785000D01*
X169350000Y-76785000D01*
X169350000Y-76935000D01*
G36*
X169350000Y-76935000D02*
G01*
X168775000Y-76935000D01*
X168775000Y-76785000D01*
X169350000Y-76785000D01*
X169350000Y-76935000D01*
G37*
X169350000Y-77440000D02*
X168775000Y-77440000D01*
X168775000Y-77290000D01*
X169350000Y-77290000D01*
X169350000Y-77440000D01*
G36*
X169350000Y-77440000D02*
G01*
X168775000Y-77440000D01*
X168775000Y-77290000D01*
X169350000Y-77290000D01*
X169350000Y-77440000D01*
G37*
%TO.C,U501*%
X133535000Y-78710000D02*
X133985000Y-78710000D01*
X133985000Y-78910000D01*
X133535000Y-78910000D01*
X133535000Y-78710000D01*
G36*
X133535000Y-78710000D02*
G01*
X133985000Y-78710000D01*
X133985000Y-78910000D01*
X133535000Y-78910000D01*
X133535000Y-78710000D01*
G37*
X133535000Y-79210000D02*
X133985000Y-79210000D01*
X133985000Y-79410000D01*
X133535000Y-79410000D01*
X133535000Y-79210000D01*
G36*
X133535000Y-79210000D02*
G01*
X133985000Y-79210000D01*
X133985000Y-79410000D01*
X133535000Y-79410000D01*
X133535000Y-79210000D01*
G37*
X133535000Y-79710000D02*
X133985000Y-79710000D01*
X133985000Y-79910000D01*
X133535000Y-79910000D01*
X133535000Y-79710000D01*
G36*
X133535000Y-79710000D02*
G01*
X133985000Y-79710000D01*
X133985000Y-79910000D01*
X133535000Y-79910000D01*
X133535000Y-79710000D01*
G37*
X133535000Y-80210000D02*
X133985000Y-80210000D01*
X133985000Y-80410000D01*
X133535000Y-80410000D01*
X133535000Y-80210000D01*
G36*
X133535000Y-80210000D02*
G01*
X133985000Y-80210000D01*
X133985000Y-80410000D01*
X133535000Y-80410000D01*
X133535000Y-80210000D01*
G37*
X133535000Y-80710000D02*
X133985000Y-80710000D01*
X133985000Y-80910000D01*
X133535000Y-80910000D01*
X133535000Y-80710000D01*
G36*
X133535000Y-80710000D02*
G01*
X133985000Y-80710000D01*
X133985000Y-80910000D01*
X133535000Y-80910000D01*
X133535000Y-80710000D01*
G37*
X134310000Y-78710000D02*
X134760000Y-78710000D01*
X134760000Y-78910000D01*
X134310000Y-78910000D01*
X134310000Y-78710000D01*
G36*
X134310000Y-78710000D02*
G01*
X134760000Y-78710000D01*
X134760000Y-78910000D01*
X134310000Y-78910000D01*
X134310000Y-78710000D01*
G37*
X134310000Y-79210000D02*
X134760000Y-79210000D01*
X134760000Y-79410000D01*
X134310000Y-79410000D01*
X134310000Y-79210000D01*
G36*
X134310000Y-79210000D02*
G01*
X134760000Y-79210000D01*
X134760000Y-79410000D01*
X134310000Y-79410000D01*
X134310000Y-79210000D01*
G37*
X134310000Y-79710000D02*
X134760000Y-79710000D01*
X134760000Y-79910000D01*
X134310000Y-79910000D01*
X134310000Y-79710000D01*
G36*
X134310000Y-79710000D02*
G01*
X134760000Y-79710000D01*
X134760000Y-79910000D01*
X134310000Y-79910000D01*
X134310000Y-79710000D01*
G37*
X134310000Y-80210000D02*
X134760000Y-80210000D01*
X134760000Y-80410000D01*
X134310000Y-80410000D01*
X134310000Y-80210000D01*
G36*
X134310000Y-80210000D02*
G01*
X134760000Y-80210000D01*
X134760000Y-80410000D01*
X134310000Y-80410000D01*
X134310000Y-80210000D01*
G37*
X134310000Y-80710000D02*
X134760000Y-80710000D01*
X134760000Y-80910000D01*
X134310000Y-80910000D01*
X134310000Y-80710000D01*
G36*
X134310000Y-80710000D02*
G01*
X134760000Y-80710000D01*
X134760000Y-80910000D01*
X134310000Y-80910000D01*
X134310000Y-80710000D01*
G37*
%TO.C,U502*%
X133535000Y-75210000D02*
X133985000Y-75210000D01*
X133985000Y-75410000D01*
X133535000Y-75410000D01*
X133535000Y-75210000D01*
G36*
X133535000Y-75210000D02*
G01*
X133985000Y-75210000D01*
X133985000Y-75410000D01*
X133535000Y-75410000D01*
X133535000Y-75210000D01*
G37*
X133535000Y-75710000D02*
X133985000Y-75710000D01*
X133985000Y-75910000D01*
X133535000Y-75910000D01*
X133535000Y-75710000D01*
G36*
X133535000Y-75710000D02*
G01*
X133985000Y-75710000D01*
X133985000Y-75910000D01*
X133535000Y-75910000D01*
X133535000Y-75710000D01*
G37*
X133535000Y-76210000D02*
X133985000Y-76210000D01*
X133985000Y-76410000D01*
X133535000Y-76410000D01*
X133535000Y-76210000D01*
G36*
X133535000Y-76210000D02*
G01*
X133985000Y-76210000D01*
X133985000Y-76410000D01*
X133535000Y-76410000D01*
X133535000Y-76210000D01*
G37*
X133535000Y-76710000D02*
X133985000Y-76710000D01*
X133985000Y-76910000D01*
X133535000Y-76910000D01*
X133535000Y-76710000D01*
G36*
X133535000Y-76710000D02*
G01*
X133985000Y-76710000D01*
X133985000Y-76910000D01*
X133535000Y-76910000D01*
X133535000Y-76710000D01*
G37*
X133535000Y-77210000D02*
X133985000Y-77210000D01*
X133985000Y-77410000D01*
X133535000Y-77410000D01*
X133535000Y-77210000D01*
G36*
X133535000Y-77210000D02*
G01*
X133985000Y-77210000D01*
X133985000Y-77410000D01*
X133535000Y-77410000D01*
X133535000Y-77210000D01*
G37*
X134310000Y-75210000D02*
X134760000Y-75210000D01*
X134760000Y-75410000D01*
X134310000Y-75410000D01*
X134310000Y-75210000D01*
G36*
X134310000Y-75210000D02*
G01*
X134760000Y-75210000D01*
X134760000Y-75410000D01*
X134310000Y-75410000D01*
X134310000Y-75210000D01*
G37*
X134310000Y-75710000D02*
X134760000Y-75710000D01*
X134760000Y-75910000D01*
X134310000Y-75910000D01*
X134310000Y-75710000D01*
G36*
X134310000Y-75710000D02*
G01*
X134760000Y-75710000D01*
X134760000Y-75910000D01*
X134310000Y-75910000D01*
X134310000Y-75710000D01*
G37*
X134310000Y-76210000D02*
X134760000Y-76210000D01*
X134760000Y-76410000D01*
X134310000Y-76410000D01*
X134310000Y-76210000D01*
G36*
X134310000Y-76210000D02*
G01*
X134760000Y-76210000D01*
X134760000Y-76410000D01*
X134310000Y-76410000D01*
X134310000Y-76210000D01*
G37*
X134310000Y-76710000D02*
X134760000Y-76710000D01*
X134760000Y-76910000D01*
X134310000Y-76910000D01*
X134310000Y-76710000D01*
G36*
X134310000Y-76710000D02*
G01*
X134760000Y-76710000D01*
X134760000Y-76910000D01*
X134310000Y-76910000D01*
X134310000Y-76710000D01*
G37*
X134310000Y-77210000D02*
X134760000Y-77210000D01*
X134760000Y-77410000D01*
X134310000Y-77410000D01*
X134310000Y-77210000D01*
G36*
X134310000Y-77210000D02*
G01*
X134760000Y-77210000D01*
X134760000Y-77410000D01*
X134310000Y-77410000D01*
X134310000Y-77210000D01*
G37*
%TO.C,SW301*%
X172440000Y-80820000D02*
X173040000Y-80820000D01*
X173040000Y-80220000D01*
X172440000Y-80220000D01*
X172440000Y-80820000D01*
G36*
X172440000Y-80820000D02*
G01*
X173040000Y-80820000D01*
X173040000Y-80220000D01*
X172440000Y-80220000D01*
X172440000Y-80820000D01*
G37*
X172440000Y-85020000D02*
X173040000Y-85020000D01*
X173040000Y-84420000D01*
X172440000Y-84420000D01*
X172440000Y-85020000D01*
G36*
X172440000Y-85020000D02*
G01*
X173040000Y-85020000D01*
X173040000Y-84420000D01*
X172440000Y-84420000D01*
X172440000Y-85020000D01*
G37*
X173540000Y-80820000D02*
X174140000Y-80820000D01*
X174140000Y-80220000D01*
X173540000Y-80220000D01*
X173540000Y-80820000D01*
G36*
X173540000Y-80820000D02*
G01*
X174140000Y-80820000D01*
X174140000Y-80220000D01*
X173540000Y-80220000D01*
X173540000Y-80820000D01*
G37*
X173540000Y-85020000D02*
X174140000Y-85020000D01*
X174140000Y-84420000D01*
X173540000Y-84420000D01*
X173540000Y-85020000D01*
G36*
X173540000Y-85020000D02*
G01*
X174140000Y-85020000D01*
X174140000Y-84420000D01*
X173540000Y-84420000D01*
X173540000Y-85020000D01*
G37*
%TO.C,U302*%
X150750000Y-77297000D02*
X151200000Y-77297000D01*
X151200000Y-77497000D01*
X150750000Y-77497000D01*
X150750000Y-77297000D01*
G36*
X150750000Y-77297000D02*
G01*
X151200000Y-77297000D01*
X151200000Y-77497000D01*
X150750000Y-77497000D01*
X150750000Y-77297000D01*
G37*
X150750000Y-77797000D02*
X151200000Y-77797000D01*
X151200000Y-77997000D01*
X150750000Y-77997000D01*
X150750000Y-77797000D01*
G36*
X150750000Y-77797000D02*
G01*
X151200000Y-77797000D01*
X151200000Y-77997000D01*
X150750000Y-77997000D01*
X150750000Y-77797000D01*
G37*
X150750000Y-78297000D02*
X151200000Y-78297000D01*
X151200000Y-78497000D01*
X150750000Y-78497000D01*
X150750000Y-78297000D01*
G36*
X150750000Y-78297000D02*
G01*
X151200000Y-78297000D01*
X151200000Y-78497000D01*
X150750000Y-78497000D01*
X150750000Y-78297000D01*
G37*
X150750000Y-78797000D02*
X151200000Y-78797000D01*
X151200000Y-78997000D01*
X150750000Y-78997000D01*
X150750000Y-78797000D01*
G36*
X150750000Y-78797000D02*
G01*
X151200000Y-78797000D01*
X151200000Y-78997000D01*
X150750000Y-78997000D01*
X150750000Y-78797000D01*
G37*
X150750000Y-79297000D02*
X151200000Y-79297000D01*
X151200000Y-79497000D01*
X150750000Y-79497000D01*
X150750000Y-79297000D01*
G36*
X150750000Y-79297000D02*
G01*
X151200000Y-79297000D01*
X151200000Y-79497000D01*
X150750000Y-79497000D01*
X150750000Y-79297000D01*
G37*
X151525000Y-77297000D02*
X151975000Y-77297000D01*
X151975000Y-77497000D01*
X151525000Y-77497000D01*
X151525000Y-77297000D01*
G36*
X151525000Y-77297000D02*
G01*
X151975000Y-77297000D01*
X151975000Y-77497000D01*
X151525000Y-77497000D01*
X151525000Y-77297000D01*
G37*
X151525000Y-77797000D02*
X151975000Y-77797000D01*
X151975000Y-77997000D01*
X151525000Y-77997000D01*
X151525000Y-77797000D01*
G36*
X151525000Y-77797000D02*
G01*
X151975000Y-77797000D01*
X151975000Y-77997000D01*
X151525000Y-77997000D01*
X151525000Y-77797000D01*
G37*
X151525000Y-78297000D02*
X151975000Y-78297000D01*
X151975000Y-78497000D01*
X151525000Y-78497000D01*
X151525000Y-78297000D01*
G36*
X151525000Y-78297000D02*
G01*
X151975000Y-78297000D01*
X151975000Y-78497000D01*
X151525000Y-78497000D01*
X151525000Y-78297000D01*
G37*
X151525000Y-78797000D02*
X151975000Y-78797000D01*
X151975000Y-78997000D01*
X151525000Y-78997000D01*
X151525000Y-78797000D01*
G36*
X151525000Y-78797000D02*
G01*
X151975000Y-78797000D01*
X151975000Y-78997000D01*
X151525000Y-78997000D01*
X151525000Y-78797000D01*
G37*
X151525000Y-79297000D02*
X151975000Y-79297000D01*
X151975000Y-79497000D01*
X151525000Y-79497000D01*
X151525000Y-79297000D01*
G36*
X151525000Y-79297000D02*
G01*
X151975000Y-79297000D01*
X151975000Y-79497000D01*
X151525000Y-79497000D01*
X151525000Y-79297000D01*
G37*
%TO.C,U504*%
X177292101Y-78910000D02*
X176842101Y-78910000D01*
X176842101Y-78710000D01*
X177292101Y-78710000D01*
X177292101Y-78910000D01*
G36*
X177292101Y-78910000D02*
G01*
X176842101Y-78910000D01*
X176842101Y-78710000D01*
X177292101Y-78710000D01*
X177292101Y-78910000D01*
G37*
X177292101Y-79410000D02*
X176842101Y-79410000D01*
X176842101Y-79210000D01*
X177292101Y-79210000D01*
X177292101Y-79410000D01*
G36*
X177292101Y-79410000D02*
G01*
X176842101Y-79410000D01*
X176842101Y-79210000D01*
X177292101Y-79210000D01*
X177292101Y-79410000D01*
G37*
X177292101Y-79910000D02*
X176842101Y-79910000D01*
X176842101Y-79710000D01*
X177292101Y-79710000D01*
X177292101Y-79910000D01*
G36*
X177292101Y-79910000D02*
G01*
X176842101Y-79910000D01*
X176842101Y-79710000D01*
X177292101Y-79710000D01*
X177292101Y-79910000D01*
G37*
X177292101Y-80410000D02*
X176842101Y-80410000D01*
X176842101Y-80210000D01*
X177292101Y-80210000D01*
X177292101Y-80410000D01*
G36*
X177292101Y-80410000D02*
G01*
X176842101Y-80410000D01*
X176842101Y-80210000D01*
X177292101Y-80210000D01*
X177292101Y-80410000D01*
G37*
X177292101Y-80910000D02*
X176842101Y-80910000D01*
X176842101Y-80710000D01*
X177292101Y-80710000D01*
X177292101Y-80910000D01*
G36*
X177292101Y-80910000D02*
G01*
X176842101Y-80910000D01*
X176842101Y-80710000D01*
X177292101Y-80710000D01*
X177292101Y-80910000D01*
G37*
X178067101Y-78910000D02*
X177617101Y-78910000D01*
X177617101Y-78710000D01*
X178067101Y-78710000D01*
X178067101Y-78910000D01*
G36*
X178067101Y-78910000D02*
G01*
X177617101Y-78910000D01*
X177617101Y-78710000D01*
X178067101Y-78710000D01*
X178067101Y-78910000D01*
G37*
X178067101Y-79410000D02*
X177617101Y-79410000D01*
X177617101Y-79210000D01*
X178067101Y-79210000D01*
X178067101Y-79410000D01*
G36*
X178067101Y-79410000D02*
G01*
X177617101Y-79410000D01*
X177617101Y-79210000D01*
X178067101Y-79210000D01*
X178067101Y-79410000D01*
G37*
X178067101Y-79910000D02*
X177617101Y-79910000D01*
X177617101Y-79710000D01*
X178067101Y-79710000D01*
X178067101Y-79910000D01*
G36*
X178067101Y-79910000D02*
G01*
X177617101Y-79910000D01*
X177617101Y-79710000D01*
X178067101Y-79710000D01*
X178067101Y-79910000D01*
G37*
X178067101Y-80410000D02*
X177617101Y-80410000D01*
X177617101Y-80210000D01*
X178067101Y-80210000D01*
X178067101Y-80410000D01*
G36*
X178067101Y-80410000D02*
G01*
X177617101Y-80410000D01*
X177617101Y-80210000D01*
X178067101Y-80210000D01*
X178067101Y-80410000D01*
G37*
X178067101Y-80910000D02*
X177617101Y-80910000D01*
X177617101Y-80710000D01*
X178067101Y-80710000D01*
X178067101Y-80910000D01*
G36*
X178067101Y-80910000D02*
G01*
X177617101Y-80910000D01*
X177617101Y-80710000D01*
X178067101Y-80710000D01*
X178067101Y-80910000D01*
G37*
%TO.C,Y301*%
X156530000Y-76270000D02*
X156830000Y-76270000D01*
X156830000Y-76670000D01*
X156530000Y-76670000D01*
X156530000Y-76270000D01*
G36*
X156530000Y-76270000D02*
G01*
X156830000Y-76270000D01*
X156830000Y-76670000D01*
X156530000Y-76670000D01*
X156530000Y-76270000D01*
G37*
X156530000Y-77370000D02*
X156830000Y-77370000D01*
X156830000Y-77770000D01*
X156530000Y-77770000D01*
X156530000Y-77370000D01*
G36*
X156530000Y-77370000D02*
G01*
X156830000Y-77370000D01*
X156830000Y-77770000D01*
X156530000Y-77770000D01*
X156530000Y-77370000D01*
G37*
X157330000Y-76270000D02*
X157630000Y-76270000D01*
X157630000Y-76670000D01*
X157330000Y-76670000D01*
X157330000Y-76270000D01*
G36*
X157330000Y-76270000D02*
G01*
X157630000Y-76270000D01*
X157630000Y-76670000D01*
X157330000Y-76670000D01*
X157330000Y-76270000D01*
G37*
X157330000Y-77370000D02*
X157630000Y-77370000D01*
X157630000Y-77770000D01*
X157330000Y-77770000D01*
X157330000Y-77370000D01*
G36*
X157330000Y-77370000D02*
G01*
X157630000Y-77370000D01*
X157630000Y-77770000D01*
X157330000Y-77770000D01*
X157330000Y-77370000D01*
G37*
%TO.C,U101*%
X144550000Y-81710000D02*
X143750000Y-81710000D01*
X143750000Y-81510000D01*
X144550000Y-81510000D01*
X144550000Y-81710000D01*
G36*
X144550000Y-81710000D02*
G01*
X143750000Y-81710000D01*
X143750000Y-81510000D01*
X144550000Y-81510000D01*
X144550000Y-81710000D01*
G37*
X144550000Y-82210000D02*
X143750000Y-82210000D01*
X143750000Y-82010000D01*
X144550000Y-82010000D01*
X144550000Y-82210000D01*
G36*
X144550000Y-82210000D02*
G01*
X143750000Y-82210000D01*
X143750000Y-82010000D01*
X144550000Y-82010000D01*
X144550000Y-82210000D01*
G37*
X144550000Y-82710000D02*
X143750000Y-82710000D01*
X143750000Y-82510000D01*
X144550000Y-82510000D01*
X144550000Y-82710000D01*
G36*
X144550000Y-82710000D02*
G01*
X143750000Y-82710000D01*
X143750000Y-82510000D01*
X144550000Y-82510000D01*
X144550000Y-82710000D01*
G37*
X144550000Y-83210000D02*
X143750000Y-83210000D01*
X143750000Y-83010000D01*
X144550000Y-83010000D01*
X144550000Y-83210000D01*
G36*
X144550000Y-83210000D02*
G01*
X143750000Y-83210000D01*
X143750000Y-83010000D01*
X144550000Y-83010000D01*
X144550000Y-83210000D01*
G37*
X144550000Y-83710000D02*
X143750000Y-83710000D01*
X143750000Y-83510000D01*
X144550000Y-83510000D01*
X144550000Y-83710000D01*
G36*
X144550000Y-83710000D02*
G01*
X143750000Y-83710000D01*
X143750000Y-83510000D01*
X144550000Y-83510000D01*
X144550000Y-83710000D01*
G37*
X144550000Y-84210000D02*
X143750000Y-84210000D01*
X143750000Y-84010000D01*
X144550000Y-84010000D01*
X144550000Y-84210000D01*
G36*
X144550000Y-84210000D02*
G01*
X143750000Y-84210000D01*
X143750000Y-84010000D01*
X144550000Y-84010000D01*
X144550000Y-84210000D01*
G37*
X144950000Y-81310000D02*
X144750000Y-81310000D01*
X144750000Y-80510000D01*
X144950000Y-80510000D01*
X144950000Y-81310000D01*
G36*
X144950000Y-81310000D02*
G01*
X144750000Y-81310000D01*
X144750000Y-80510000D01*
X144950000Y-80510000D01*
X144950000Y-81310000D01*
G37*
X144950000Y-85210000D02*
X144750000Y-85210000D01*
X144750000Y-84410000D01*
X144950000Y-84410000D01*
X144950000Y-85210000D01*
G36*
X144950000Y-85210000D02*
G01*
X144750000Y-85210000D01*
X144750000Y-84410000D01*
X144950000Y-84410000D01*
X144950000Y-85210000D01*
G37*
X145450000Y-81310000D02*
X145250000Y-81310000D01*
X145250000Y-80510000D01*
X145450000Y-80510000D01*
X145450000Y-81310000D01*
G36*
X145450000Y-81310000D02*
G01*
X145250000Y-81310000D01*
X145250000Y-80510000D01*
X145450000Y-80510000D01*
X145450000Y-81310000D01*
G37*
X145450000Y-85210000D02*
X145250000Y-85210000D01*
X145250000Y-84410000D01*
X145450000Y-84410000D01*
X145450000Y-85210000D01*
G36*
X145450000Y-85210000D02*
G01*
X145250000Y-85210000D01*
X145250000Y-84410000D01*
X145450000Y-84410000D01*
X145450000Y-85210000D01*
G37*
X145900000Y-82360000D02*
X145300000Y-82360000D01*
X145300000Y-81760000D01*
X145900000Y-81760000D01*
X145900000Y-82360000D01*
G36*
X145900000Y-82360000D02*
G01*
X145300000Y-82360000D01*
X145300000Y-81760000D01*
X145900000Y-81760000D01*
X145900000Y-82360000D01*
G37*
X145900000Y-83960000D02*
X145300000Y-83960000D01*
X145300000Y-83360000D01*
X145900000Y-83360000D01*
X145900000Y-83960000D01*
G36*
X145900000Y-83960000D02*
G01*
X145300000Y-83960000D01*
X145300000Y-83360000D01*
X145900000Y-83360000D01*
X145900000Y-83960000D01*
G37*
X145950000Y-81310000D02*
X145750000Y-81310000D01*
X145750000Y-80510000D01*
X145950000Y-80510000D01*
X145950000Y-81310000D01*
G36*
X145950000Y-81310000D02*
G01*
X145750000Y-81310000D01*
X145750000Y-80510000D01*
X145950000Y-80510000D01*
X145950000Y-81310000D01*
G37*
X145950000Y-85210000D02*
X145750000Y-85210000D01*
X145750000Y-84410000D01*
X145950000Y-84410000D01*
X145950000Y-85210000D01*
G36*
X145950000Y-85210000D02*
G01*
X145750000Y-85210000D01*
X145750000Y-84410000D01*
X145950000Y-84410000D01*
X145950000Y-85210000D01*
G37*
X146450000Y-81310000D02*
X146250000Y-81310000D01*
X146250000Y-80510000D01*
X146450000Y-80510000D01*
X146450000Y-81310000D01*
G36*
X146450000Y-81310000D02*
G01*
X146250000Y-81310000D01*
X146250000Y-80510000D01*
X146450000Y-80510000D01*
X146450000Y-81310000D01*
G37*
X146450000Y-85210000D02*
X146250000Y-85210000D01*
X146250000Y-84410000D01*
X146450000Y-84410000D01*
X146450000Y-85210000D01*
G36*
X146450000Y-85210000D02*
G01*
X146250000Y-85210000D01*
X146250000Y-84410000D01*
X146450000Y-84410000D01*
X146450000Y-85210000D01*
G37*
X147450000Y-81710000D02*
X146650000Y-81710000D01*
X146650000Y-81510000D01*
X147450000Y-81510000D01*
X147450000Y-81710000D01*
G36*
X147450000Y-81710000D02*
G01*
X146650000Y-81710000D01*
X146650000Y-81510000D01*
X147450000Y-81510000D01*
X147450000Y-81710000D01*
G37*
X147450000Y-82210000D02*
X146650000Y-82210000D01*
X146650000Y-82010000D01*
X147450000Y-82010000D01*
X147450000Y-82210000D01*
G36*
X147450000Y-82210000D02*
G01*
X146650000Y-82210000D01*
X146650000Y-82010000D01*
X147450000Y-82010000D01*
X147450000Y-82210000D01*
G37*
X147450000Y-82710000D02*
X146650000Y-82710000D01*
X146650000Y-82510000D01*
X147450000Y-82510000D01*
X147450000Y-82710000D01*
G36*
X147450000Y-82710000D02*
G01*
X146650000Y-82710000D01*
X146650000Y-82510000D01*
X147450000Y-82510000D01*
X147450000Y-82710000D01*
G37*
X147450000Y-83210000D02*
X146650000Y-83210000D01*
X146650000Y-83010000D01*
X147450000Y-83010000D01*
X147450000Y-83210000D01*
G36*
X147450000Y-83210000D02*
G01*
X146650000Y-83210000D01*
X146650000Y-83010000D01*
X147450000Y-83010000D01*
X147450000Y-83210000D01*
G37*
X147450000Y-83710000D02*
X146650000Y-83710000D01*
X146650000Y-83510000D01*
X147450000Y-83510000D01*
X147450000Y-83710000D01*
G36*
X147450000Y-83710000D02*
G01*
X146650000Y-83710000D01*
X146650000Y-83510000D01*
X147450000Y-83510000D01*
X147450000Y-83710000D01*
G37*
X147450000Y-84210000D02*
X146650000Y-84210000D01*
X146650000Y-84010000D01*
X147450000Y-84010000D01*
X147450000Y-84210000D01*
G36*
X147450000Y-84210000D02*
G01*
X146650000Y-84210000D01*
X146650000Y-84010000D01*
X147450000Y-84010000D01*
X147450000Y-84210000D01*
G37*
%TO.C,Y201*%
X167705000Y-102210000D02*
X168405000Y-102210000D01*
X168405000Y-101460000D01*
X167705000Y-101460000D01*
X167705000Y-102210000D01*
G36*
X167705000Y-102210000D02*
G01*
X168405000Y-102210000D01*
X168405000Y-101460000D01*
X167705000Y-101460000D01*
X167705000Y-102210000D01*
G37*
X167705000Y-103960000D02*
X168405000Y-103960000D01*
X168405000Y-103210000D01*
X167705000Y-103210000D01*
X167705000Y-103960000D01*
G36*
X167705000Y-103960000D02*
G01*
X168405000Y-103960000D01*
X168405000Y-103210000D01*
X167705000Y-103210000D01*
X167705000Y-103960000D01*
G37*
X169105000Y-102210000D02*
X169805000Y-102210000D01*
X169805000Y-101460000D01*
X169105000Y-101460000D01*
X169105000Y-102210000D01*
G36*
X169105000Y-102210000D02*
G01*
X169805000Y-102210000D01*
X169805000Y-101460000D01*
X169105000Y-101460000D01*
X169105000Y-102210000D01*
G37*
X169105000Y-103960000D02*
X169805000Y-103960000D01*
X169805000Y-103210000D01*
X169105000Y-103210000D01*
X169105000Y-103960000D01*
G36*
X169105000Y-103960000D02*
G01*
X169805000Y-103960000D01*
X169805000Y-103210000D01*
X169105000Y-103210000D01*
X169105000Y-103960000D01*
G37*
%TO.C,U1*%
X147745000Y-99780000D02*
X147295000Y-99780000D01*
X147295000Y-99580000D01*
X147745000Y-99580000D01*
X147745000Y-99780000D01*
G36*
X147745000Y-99780000D02*
G01*
X147295000Y-99780000D01*
X147295000Y-99580000D01*
X147745000Y-99580000D01*
X147745000Y-99780000D01*
G37*
X147745000Y-100280000D02*
X147295000Y-100280000D01*
X147295000Y-100080000D01*
X147745000Y-100080000D01*
X147745000Y-100280000D01*
G36*
X147745000Y-100280000D02*
G01*
X147295000Y-100280000D01*
X147295000Y-100080000D01*
X147745000Y-100080000D01*
X147745000Y-100280000D01*
G37*
X147745000Y-100780000D02*
X147295000Y-100780000D01*
X147295000Y-100580000D01*
X147745000Y-100580000D01*
X147745000Y-100780000D01*
G36*
X147745000Y-100780000D02*
G01*
X147295000Y-100780000D01*
X147295000Y-100580000D01*
X147745000Y-100580000D01*
X147745000Y-100780000D01*
G37*
X147745000Y-101280000D02*
X147295000Y-101280000D01*
X147295000Y-101080000D01*
X147745000Y-101080000D01*
X147745000Y-101280000D01*
G36*
X147745000Y-101280000D02*
G01*
X147295000Y-101280000D01*
X147295000Y-101080000D01*
X147745000Y-101080000D01*
X147745000Y-101280000D01*
G37*
X147745000Y-101780000D02*
X147295000Y-101780000D01*
X147295000Y-101580000D01*
X147745000Y-101580000D01*
X147745000Y-101780000D01*
G36*
X147745000Y-101780000D02*
G01*
X147295000Y-101780000D01*
X147295000Y-101580000D01*
X147745000Y-101580000D01*
X147745000Y-101780000D01*
G37*
X148520000Y-99780000D02*
X148070000Y-99780000D01*
X148070000Y-99580000D01*
X148520000Y-99580000D01*
X148520000Y-99780000D01*
G36*
X148520000Y-99780000D02*
G01*
X148070000Y-99780000D01*
X148070000Y-99580000D01*
X148520000Y-99580000D01*
X148520000Y-99780000D01*
G37*
X148520000Y-100280000D02*
X148070000Y-100280000D01*
X148070000Y-100080000D01*
X148520000Y-100080000D01*
X148520000Y-100280000D01*
G36*
X148520000Y-100280000D02*
G01*
X148070000Y-100280000D01*
X148070000Y-100080000D01*
X148520000Y-100080000D01*
X148520000Y-100280000D01*
G37*
X148520000Y-100780000D02*
X148070000Y-100780000D01*
X148070000Y-100580000D01*
X148520000Y-100580000D01*
X148520000Y-100780000D01*
G36*
X148520000Y-100780000D02*
G01*
X148070000Y-100780000D01*
X148070000Y-100580000D01*
X148520000Y-100580000D01*
X148520000Y-100780000D01*
G37*
X148520000Y-101280000D02*
X148070000Y-101280000D01*
X148070000Y-101080000D01*
X148520000Y-101080000D01*
X148520000Y-101280000D01*
G36*
X148520000Y-101280000D02*
G01*
X148070000Y-101280000D01*
X148070000Y-101080000D01*
X148520000Y-101080000D01*
X148520000Y-101280000D01*
G37*
X148520000Y-101780000D02*
X148070000Y-101780000D01*
X148070000Y-101580000D01*
X148520000Y-101580000D01*
X148520000Y-101780000D01*
G36*
X148520000Y-101780000D02*
G01*
X148070000Y-101780000D01*
X148070000Y-101580000D01*
X148520000Y-101580000D01*
X148520000Y-101780000D01*
G37*
%TD*%
D11*
%TO.C,D305*%
X173130000Y-71930000D03*
X173130000Y-73505000D03*
%TD*%
D12*
%TO.C,C206*%
X152930000Y-84130000D03*
X153890000Y-84130000D03*
%TD*%
%TO.C,C403*%
X172010000Y-78090000D03*
X172970000Y-78090000D03*
%TD*%
D13*
%TO.C,C204*%
X161225000Y-73265000D03*
X161225000Y-72305000D03*
%TD*%
D14*
%TO.C,U203*%
X153090000Y-83190000D03*
D15*
X153740000Y-83190000D03*
D16*
X153090000Y-82330000D03*
D17*
X153740000Y-82330000D03*
D18*
X153415000Y-82760000D03*
%TD*%
D19*
%TO.C,C101*%
X139410000Y-80305000D03*
X139410000Y-83255000D03*
%TD*%
D20*
%TO.C,R404*%
X166560000Y-72180000D03*
X166560000Y-73200000D03*
%TD*%
D21*
%TO.C,R103*%
X142940000Y-83220000D03*
X142940000Y-82200000D03*
%TD*%
D13*
%TO.C,C103*%
X142930000Y-85165000D03*
X142930000Y-84205000D03*
%TD*%
D22*
%TO.C,C405*%
X168220000Y-82670000D03*
X167260000Y-82670000D03*
%TD*%
D23*
%TO.C,R305*%
X163180000Y-83510000D03*
X162160000Y-83510000D03*
%TD*%
D21*
%TO.C,R308*%
X171630000Y-75650000D03*
X171630000Y-74630000D03*
%TD*%
%TO.C,R105*%
X148750000Y-82150000D03*
X148750000Y-81130000D03*
%TD*%
D12*
%TO.C,C401*%
X168250000Y-79330000D03*
X169210000Y-79330000D03*
%TD*%
D22*
%TO.C,C207*%
X155687500Y-80137500D03*
X154727500Y-80137500D03*
%TD*%
D24*
%TO.C,D302*%
X142836073Y-79010000D03*
X141866073Y-79010000D03*
%TD*%
D25*
%TO.C,U301*%
X159660000Y-75630000D03*
X160060000Y-75630000D03*
X160460000Y-75630000D03*
X160860000Y-75630000D03*
X161260000Y-75630000D03*
X161660000Y-75630000D03*
X159660000Y-76030000D03*
X160060000Y-76030000D03*
X160460000Y-76030000D03*
X160860000Y-76030000D03*
X161260000Y-76030000D03*
X161660000Y-76030000D03*
X159660000Y-76430000D03*
X160060000Y-76430000D03*
X160460000Y-76430000D03*
X160860000Y-76430000D03*
X161260000Y-76430000D03*
X161660000Y-76430000D03*
X159660000Y-76830000D03*
X160060000Y-76830000D03*
X160460000Y-76830000D03*
X160860000Y-76830000D03*
X161260000Y-76830000D03*
X161660000Y-76830000D03*
X159660000Y-77230000D03*
X160060000Y-77230000D03*
X160460000Y-77230000D03*
X160860000Y-77230000D03*
X161260000Y-77230000D03*
X161660000Y-77230000D03*
X159660000Y-77630000D03*
X160060000Y-77630000D03*
X160460000Y-77630000D03*
X160860000Y-77630000D03*
X161260000Y-77630000D03*
X161660000Y-77630000D03*
%TD*%
D22*
%TO.C,C501*%
X138826073Y-78880000D03*
X137866073Y-78880000D03*
%TD*%
D26*
%TO.C,U204*%
X157060000Y-81550000D03*
X156110000Y-81550000D03*
X155160000Y-81550000D03*
X155160000Y-83825000D03*
X157060000Y-83825000D03*
%TD*%
D12*
%TO.C,C402*%
X170090000Y-76860000D03*
X171050000Y-76860000D03*
%TD*%
D21*
%TO.C,R501*%
X140870000Y-79040000D03*
X140870000Y-78020000D03*
%TD*%
D12*
%TO.C,C301*%
X141875000Y-78010000D03*
X142835000Y-78010000D03*
%TD*%
D20*
%TO.C,R407*%
X167510000Y-72190000D03*
X167510000Y-73210000D03*
%TD*%
D21*
%TO.C,R303*%
X174630000Y-75650000D03*
X174630000Y-74630000D03*
%TD*%
D20*
%TO.C,R502*%
X178850000Y-76720000D03*
X178850000Y-77740000D03*
%TD*%
%TO.C,R403*%
X168510000Y-72190000D03*
X168510000Y-73210000D03*
%TD*%
D27*
%TO.C,D502*%
X178860000Y-84030000D03*
X178860000Y-83060000D03*
%TD*%
D28*
%TO.C,U202*%
X160225000Y-73110000D03*
D29*
X160225000Y-72460000D03*
D30*
X159365000Y-73110000D03*
D31*
X159365000Y-72460000D03*
D32*
X159795000Y-72785000D03*
%TD*%
D12*
%TO.C,C208*%
X158170000Y-84470000D03*
X159130000Y-84470000D03*
%TD*%
D11*
%TO.C,D306*%
X170140000Y-71930000D03*
X170140000Y-73505000D03*
%TD*%
%TO.C,D308*%
X174630000Y-71930000D03*
X174630000Y-73505000D03*
%TD*%
D33*
%TO.C,R101*%
X139920000Y-84810000D03*
X138270000Y-84810000D03*
%TD*%
D23*
%TO.C,R201*%
X157600000Y-80140000D03*
X156580000Y-80140000D03*
%TD*%
D13*
%TO.C,C202*%
X156750000Y-75340000D03*
X156750000Y-74380000D03*
%TD*%
D34*
%TO.C,D101*%
X148750000Y-84840000D03*
X148750000Y-83265000D03*
%TD*%
D12*
%TO.C,C217*%
X161480000Y-78850000D03*
X162440000Y-78850000D03*
%TD*%
D35*
%TO.C,D102*%
X137050000Y-84025000D03*
X137050000Y-84995000D03*
%TD*%
D13*
%TO.C,C302*%
X163650000Y-82590000D03*
X163650000Y-81630000D03*
%TD*%
D21*
%TO.C,R307*%
X170130000Y-75650000D03*
X170130000Y-74630000D03*
%TD*%
D36*
%TO.C,C502*%
X140220000Y-74970000D03*
X140220000Y-75930000D03*
%TD*%
D37*
%TO.C,R405*%
X170070000Y-78110000D03*
X171090000Y-78110000D03*
%TD*%
D12*
%TO.C,C205*%
X152940000Y-81380000D03*
X153900000Y-81380000D03*
%TD*%
D13*
%TO.C,C203*%
X158425000Y-73265000D03*
X158425000Y-72305000D03*
%TD*%
D38*
%TO.C,SW501*%
X137700000Y-74061000D03*
X136700000Y-74061000D03*
X135700000Y-74061000D03*
D39*
X139700000Y-72671000D03*
X133700000Y-72671000D03*
%TD*%
D12*
%TO.C,C214*%
X161070000Y-74200000D03*
X162030000Y-74200000D03*
%TD*%
D20*
%TO.C,R503*%
X178850000Y-74860000D03*
X178850000Y-75880000D03*
%TD*%
D40*
%TO.C,D301*%
X141865000Y-77007500D03*
X142835000Y-77007500D03*
%TD*%
D27*
%TO.C,D303*%
X155700000Y-72030000D03*
X155700000Y-71060000D03*
%TD*%
D37*
%TO.C,R106*%
X141000000Y-85125000D03*
X142020000Y-85125000D03*
%TD*%
D20*
%TO.C,R402*%
X163220000Y-74250000D03*
X163220000Y-75270000D03*
%TD*%
D21*
%TO.C,R306*%
X173130000Y-75650000D03*
X173130000Y-74630000D03*
%TD*%
D23*
%TO.C,R304*%
X161270000Y-83510000D03*
X160250000Y-83510000D03*
%TD*%
D20*
%TO.C,R504*%
X178850000Y-80050000D03*
X178850000Y-81070000D03*
%TD*%
D11*
%TO.C,D307*%
X171640000Y-71930000D03*
X171640000Y-73505000D03*
%TD*%
D20*
%TO.C,R406*%
X165610000Y-72190000D03*
X165610000Y-73210000D03*
%TD*%
D41*
%TO.C,C102*%
X141736073Y-80335000D03*
X141736073Y-81885000D03*
%TD*%
D21*
%TO.C,R102*%
X142936073Y-81360000D03*
X142936073Y-80340000D03*
%TD*%
D27*
%TO.C,D304*%
X154750000Y-72030000D03*
X154750000Y-71060000D03*
%TD*%
D42*
%TO.C,C215*%
X164075000Y-80010000D03*
X165625000Y-80010000D03*
%TD*%
D27*
%TO.C,D501*%
X133936073Y-84695000D03*
X133936073Y-83725000D03*
%TD*%
D23*
%TO.C,R302*%
X157580000Y-78620000D03*
X156560000Y-78620000D03*
%TD*%
D12*
%TO.C,C404*%
X169710000Y-82670000D03*
X170670000Y-82670000D03*
%TD*%
D35*
%TO.C,D103*%
X150050000Y-81125000D03*
X150050000Y-82095000D03*
%TD*%
D21*
%TO.C,R104*%
X141730000Y-84235000D03*
X141730000Y-83215000D03*
%TD*%
D22*
%TO.C,C216*%
X160210000Y-74190000D03*
X159250000Y-74190000D03*
%TD*%
D43*
%TO.C,R301*%
X153790000Y-79204000D03*
D44*
X153790000Y-78647000D03*
X153790000Y-78147000D03*
D43*
X153790000Y-77590000D03*
X152740000Y-77590000D03*
D44*
X152740000Y-78147000D03*
X152740000Y-78647000D03*
D43*
X152740000Y-79204000D03*
%TD*%
D36*
%TO.C,C303*%
X155680000Y-76540000D03*
X155680000Y-77500000D03*
%TD*%
%TO.C,C201*%
X153910000Y-74405000D03*
X153910000Y-75365000D03*
%TD*%
D45*
%TO.C,C209*%
X156525000Y-73210000D03*
X154975000Y-73210000D03*
%TD*%
D28*
%TO.C,U201*%
X155710000Y-75210000D03*
D29*
X155710000Y-74560000D03*
D30*
X154850000Y-75210000D03*
D31*
X154850000Y-74560000D03*
D32*
X155280000Y-74885000D03*
%TD*%
D20*
%TO.C,R408*%
X167000000Y-80430000D03*
X167000000Y-81450000D03*
%TD*%
D13*
%TO.C,C210*%
X157750000Y-75340000D03*
X157750000Y-74380000D03*
%TD*%
D42*
%TO.C,C213*%
X162475000Y-72510000D03*
X164025000Y-72510000D03*
%TD*%
D20*
%TO.C,R401*%
X163220000Y-76120000D03*
X163220000Y-77140000D03*
%TD*%
D22*
%TO.C,C304*%
X171160000Y-84720000D03*
X170200000Y-84720000D03*
%TD*%
D40*
%TO.C,D102*%
X143435000Y-94590000D03*
X144405000Y-94590000D03*
%TD*%
D36*
%TO.C,C213*%
X156455000Y-106030000D03*
X156455000Y-106990000D03*
%TD*%
D22*
%TO.C,C202*%
X154435000Y-102090000D03*
X153475000Y-102090000D03*
%TD*%
D40*
%TO.C,FB202*%
X153470000Y-95690000D03*
X154440000Y-95690000D03*
%TD*%
D22*
%TO.C,C215*%
X154435000Y-98690000D03*
X153475000Y-98690000D03*
%TD*%
D24*
%TO.C,D101*%
X144420000Y-105490000D03*
X143450000Y-105490000D03*
%TD*%
D37*
%TO.C,R209*%
X165825000Y-95090000D03*
X166845000Y-95090000D03*
%TD*%
D46*
%TO.C,D105*%
X176522500Y-94390000D03*
X174947500Y-94390000D03*
%TD*%
D47*
%TO.C,U201*%
X161605000Y-101850000D03*
X161605000Y-100400000D03*
X161605000Y-98950000D03*
X160155000Y-101850000D03*
X160155000Y-100400000D03*
X160155000Y-98950000D03*
X158705000Y-101850000D03*
X158705000Y-100400000D03*
X158705000Y-98950000D03*
D48*
X164605000Y-104150000D03*
X164605000Y-103650000D03*
X164605000Y-103150000D03*
X164605000Y-102650000D03*
X164605000Y-102150000D03*
X164605000Y-101650000D03*
X164605000Y-101150000D03*
X164605000Y-100650000D03*
X164605000Y-100150000D03*
X164605000Y-99650000D03*
X164605000Y-99150000D03*
X164605000Y-98650000D03*
X164605000Y-98150000D03*
X164605000Y-97650000D03*
X164605000Y-97150000D03*
X164605000Y-96650000D03*
D49*
X163905000Y-95950000D03*
X163405000Y-95950000D03*
X162905000Y-95950000D03*
X162405000Y-95950000D03*
X161905000Y-95950000D03*
X161405000Y-95950000D03*
X160905000Y-95950000D03*
X160405000Y-95950000D03*
X159905000Y-95950000D03*
X159405000Y-95950000D03*
X158905000Y-95950000D03*
X158405000Y-95950000D03*
X157905000Y-95950000D03*
X157405000Y-95950000D03*
X156905000Y-95950000D03*
X156405000Y-95950000D03*
D48*
X155705000Y-96650000D03*
X155705000Y-97150000D03*
X155705000Y-97650000D03*
X155705000Y-98150000D03*
X155705000Y-98650000D03*
X155705000Y-99150000D03*
X155705000Y-99650000D03*
X155705000Y-100150000D03*
X155705000Y-100650000D03*
X155705000Y-101150000D03*
X155705000Y-101650000D03*
X155705000Y-102150000D03*
X155705000Y-102650000D03*
X155705000Y-103150000D03*
X155705000Y-103650000D03*
X155705000Y-104150000D03*
D49*
X156405000Y-104850000D03*
X156905000Y-104850000D03*
X157405000Y-104850000D03*
X157905000Y-104850000D03*
X158405000Y-104850000D03*
X158905000Y-104850000D03*
X159405000Y-104850000D03*
X159905000Y-104850000D03*
X160405000Y-104850000D03*
X160905000Y-104850000D03*
X161405000Y-104850000D03*
X161905000Y-104850000D03*
X162405000Y-104850000D03*
X162905000Y-104850000D03*
X163405000Y-104850000D03*
X163905000Y-104850000D03*
%TD*%
D13*
%TO.C,C214*%
X164735000Y-106890000D03*
X164735000Y-105930000D03*
%TD*%
D22*
%TO.C,C201*%
X154435000Y-103090000D03*
X153475000Y-103090000D03*
%TD*%
D37*
%TO.C,R105*%
X171825000Y-93790000D03*
X172845000Y-93790000D03*
%TD*%
D22*
%TO.C,C206*%
X166755000Y-102490000D03*
X165795000Y-102490000D03*
%TD*%
D21*
%TO.C,R213*%
X159735000Y-94810000D03*
X159735000Y-93790000D03*
%TD*%
D23*
%TO.C,R204*%
X168835000Y-105990000D03*
X167815000Y-105990000D03*
%TD*%
D22*
%TO.C,C203*%
X154435000Y-96690000D03*
X153475000Y-96690000D03*
%TD*%
D13*
%TO.C,C102*%
X151695000Y-107020000D03*
X151695000Y-106060000D03*
%TD*%
D50*
%TO.C,U102*%
X153295000Y-106090000D03*
D51*
X152645000Y-106090000D03*
D52*
X153295000Y-106950000D03*
D53*
X152645000Y-106950000D03*
D54*
X152970000Y-106520000D03*
%TD*%
D55*
%TO.C,J103*%
X172745000Y-103880000D03*
X172745000Y-103080000D03*
D56*
X172745000Y-101930000D03*
X172745000Y-100930000D03*
X172745000Y-100430000D03*
X172745000Y-99430000D03*
D55*
X172745000Y-98280000D03*
X172745000Y-97480000D03*
X172745000Y-97480000D03*
X172745000Y-98280000D03*
D56*
X172745000Y-98930000D03*
X172745000Y-99930000D03*
X172745000Y-101430000D03*
X172745000Y-102430000D03*
D55*
X172745000Y-103080000D03*
X172745000Y-103880000D03*
D57*
X173320000Y-105000000D03*
D58*
X177500000Y-105000000D03*
D57*
X173320000Y-96360000D03*
D58*
X177500000Y-96360000D03*
%TD*%
D23*
%TO.C,R107*%
X172845000Y-94790000D03*
X171825000Y-94790000D03*
%TD*%
D40*
%TO.C,FB201*%
X153470000Y-104090000D03*
X154440000Y-104090000D03*
%TD*%
D23*
%TO.C,R203*%
X168845000Y-106990000D03*
X167825000Y-106990000D03*
%TD*%
%TO.C,R206*%
X166845000Y-97090000D03*
X165825000Y-97090000D03*
%TD*%
D37*
%TO.C,R103*%
X143435000Y-93590000D03*
X144455000Y-93590000D03*
%TD*%
D59*
%TO.C,U202*%
X160480000Y-107210000D03*
X160480000Y-106510000D03*
X159830000Y-107210000D03*
X159830000Y-106510000D03*
D60*
X161617500Y-107610000D03*
X161617500Y-107110000D03*
X161617500Y-106610000D03*
X161617500Y-106110000D03*
X158692500Y-106110000D03*
X158692500Y-106610000D03*
X158692500Y-107110000D03*
X158692500Y-107610000D03*
%TD*%
D23*
%TO.C,R202*%
X166835000Y-105990000D03*
X165815000Y-105990000D03*
%TD*%
D21*
%TO.C,R211*%
X161735000Y-94810000D03*
X161735000Y-93790000D03*
%TD*%
D13*
%TO.C,C205*%
X170755000Y-103190000D03*
X170755000Y-102230000D03*
%TD*%
D61*
%TO.C,U103*%
X169855000Y-100210000D03*
X169855000Y-99260000D03*
X169855000Y-98310000D03*
X167580000Y-98310000D03*
X167580000Y-99260000D03*
X167580000Y-100210000D03*
%TD*%
D27*
%TO.C,D104*%
X170535000Y-96890000D03*
X170535000Y-95920000D03*
%TD*%
D36*
%TO.C,C211*%
X154455000Y-106030000D03*
X154455000Y-106990000D03*
%TD*%
D23*
%TO.C,R207*%
X166795000Y-101490000D03*
X165775000Y-101490000D03*
%TD*%
D37*
%TO.C,R205*%
X165825000Y-106990000D03*
X166845000Y-106990000D03*
%TD*%
D13*
%TO.C,C210*%
X162735000Y-94780000D03*
X162735000Y-93820000D03*
%TD*%
D40*
%TO.C,D103*%
X143435000Y-95590000D03*
X144405000Y-95590000D03*
%TD*%
D36*
%TO.C,C12*%
X155455000Y-106030000D03*
X155455000Y-106990000D03*
%TD*%
D22*
%TO.C,C103*%
X154435000Y-105090000D03*
X153475000Y-105090000D03*
%TD*%
D23*
%TO.C,R106*%
X170245000Y-93790000D03*
X169225000Y-93790000D03*
%TD*%
D37*
%TO.C,R208*%
X165825000Y-96090000D03*
X166845000Y-96090000D03*
%TD*%
D21*
%TO.C,R212*%
X160735000Y-94810000D03*
X160735000Y-93790000D03*
%TD*%
D62*
%TO.C,C101*%
X169235000Y-96665000D03*
X169235000Y-95115000D03*
%TD*%
D13*
%TO.C,C207*%
X157955000Y-94790000D03*
X157955000Y-93830000D03*
%TD*%
D37*
%TO.C,R201*%
X165745000Y-103490000D03*
X166765000Y-103490000D03*
%TD*%
D13*
%TO.C,C216*%
X157455000Y-106990000D03*
X157455000Y-106030000D03*
%TD*%
%TO.C,C209*%
X156955000Y-94790000D03*
X156955000Y-93830000D03*
%TD*%
D37*
%TO.C,R104*%
X172125000Y-106590000D03*
X173145000Y-106590000D03*
%TD*%
D22*
%TO.C,C208*%
X154435000Y-101090000D03*
X153475000Y-101090000D03*
%TD*%
%TO.C,C204*%
X154435000Y-97690000D03*
X153475000Y-97690000D03*
%TD*%
D37*
%TO.C,R102*%
X143425000Y-96590000D03*
X144445000Y-96590000D03*
%TD*%
%TO.C,R210*%
X165825000Y-94090000D03*
X166845000Y-94090000D03*
%TD*%
D43*
%TO.C,R101*%
X150635000Y-101487000D03*
D44*
X150635000Y-100930000D03*
X150635000Y-100430000D03*
D43*
X150635000Y-99873000D03*
X149585000Y-99873000D03*
D44*
X149585000Y-100430000D03*
X149585000Y-100930000D03*
D43*
X149585000Y-101487000D03*
%TD*%
M02*
