M48
; DRILL file {KiCad 9.0.6} date 2025-12-30T15:38:53+0100
; FORMAT={-:-/ absolute / metric / decimal}
; #@! TF.CreationDate,2025-12-30T15:38:53+01:00
; #@! TF.GenerationSoftware,Kicad,Pcbnew,9.0.6
; #@! TF.FileFunction,Plated,1,4,PTH
FMAT,2
METRIC
; #@! TA.AperFunction,Plated,PTH,ViaDrill
T1C0.150
; #@! TA.AperFunction,Plated,PTH,ViaDrill
T2C0.200
; #@! TA.AperFunction,Plated,PTH,ViaDrill
T3C0.300
; #@! TA.AperFunction,Plated,PTH,ComponentDrill
T4C0.500
; #@! TA.AperFunction,Plated,PTH,ComponentDrill
T5C0.889
; #@! TA.AperFunction,Plated,PTH,ComponentDrill
T6C3.251
%
G90
G05
T1
X111.5Y-72.675
X111.5Y-73.125
X111.631Y-71.195
X111.631Y-71.645
X112.425Y-69.64
X112.932Y-69.961
X113.11Y-72.02
X113.485Y-72.784
X113.51Y-70.82
X113.51Y-71.62
X113.51Y-72.42
X113.91Y-70.82
X113.91Y-72.02
X114.31Y-71.22
X114.31Y-71.62
X114.31Y-72.02
X114.35Y-70.01
X115.3Y-71.6
X115.4Y-70.3
X116.27Y-70.91
T2
X86.17Y-71.11
X86.17Y-74.6
X86.746Y-66.77
X86.986Y-77.8
X87.0Y-76.9
X88.096Y-68.84
X89.086Y-71.75
X89.086Y-72.45
X89.086Y-73.05
X89.086Y-73.65
X89.086Y-74.35
X89.086Y-74.95
X89.086Y-75.55
X89.086Y-76.25
X89.086Y-76.85
X89.09Y-71.15
X89.317Y-70.592
X89.812Y-70.097
X89.916Y-67.71
X90.1Y-74.6
X90.561Y-70.175
X91.197Y-70.572
X91.261Y-69.975
X91.811Y-69.45
X92.383Y-69.269
X92.51Y-70.72
X92.817Y-71.75
X92.817Y-72.45
X93.318Y-72.08
X93.796Y-67.46
X94.09Y-69.77
X94.756Y-67.45
X94.786Y-75.925
X94.79Y-69.77
X94.99Y-69.198
X96.586Y-71.8
X98.5Y-71.0
X99.06Y-66.03
X99.06Y-66.73
X99.58Y-65.731
X99.601Y-66.989
X100.0Y-71.6
X101.256Y-74.356
X103.385Y-73.187
X104.48Y-75.91
X104.7Y-78.8
X105.2Y-75.1
X106.1Y-75.5
X107.1Y-65.85
X107.1Y-71.1
X107.557Y-72.587
X107.56Y-78.878
X107.6Y-76.17
X107.75Y-73.35
X107.8Y-71.1
X108.2Y-74.2
X108.77Y-67.4
X108.775Y-68.0
X109.227Y-71.838
X109.45Y-65.85
X110.21Y-67.36
X110.75Y-75.75
X110.8Y-68.55
X110.825Y-67.1
X111.498Y-69.951
X111.6Y-69.1
X111.6Y-70.7
X111.6Y-72.2
X111.601Y-73.589
X111.85Y-78.878
X112.1Y-74.9
X112.211Y-75.824
X112.81Y-76.59
X112.84Y-68.38
X113.7Y-75.5
X113.7Y-76.1
X113.85Y-69.75
X114.275Y-66.475
X114.53Y-73.64
X114.976Y-75.55
X115.49Y-74.2
X115.573Y-69.698
X115.6Y-68.48
X115.6Y-75.55
X115.7Y-76.75
X116.3Y-66.72
X116.7Y-74.16
X117.075Y-66.5
X117.5Y-76.4
X118.57Y-77.0
X118.6Y-71.2
X118.66Y-75.64
X119.4Y-73.88
X119.8Y-76.95
X120.47Y-71.18
X121.2Y-71.9
X121.25Y-70.65
X121.61Y-68.92
X122.33Y-66.85
X122.9Y-74.125
X123.17Y-67.507
X123.25Y-78.84
X123.6Y-73.6
X123.72Y-76.77
X124.67Y-67.5
X124.72Y-71.65
X125.68Y-71.35
X126.18Y-67.507
X126.34Y-74.57
X126.65Y-72.88
X127.68Y-67.507
X128.36Y-70.43
X128.361Y-69.214
X128.5Y-67.2
X128.558Y-71.8
X128.558Y-72.5
X128.6Y-68.0
X128.75Y-75.0
X128.75Y-75.7
X128.96Y-69.198
X129.2Y-71.1
X129.2Y-74.6
X129.2Y-76.1
X129.66Y-69.198
X130.26Y-69.188
X131.9Y-79.728
X132.61Y-77.84
T3
X68.7Y-74.7
X69.1Y-66.6
X70.7Y-78.3
X70.9Y-69.3
X73.0Y-70.9
X75.8Y-74.7
X77.4Y-71.4
X78.6Y-66.4
X79.9Y-73.8
X82.19Y-77.53
X83.6Y-66.3
X89.45Y-78.75
X96.0Y-65.9
X97.4Y-74.7
X99.3Y-74.6
X102.6Y-71.0
X105.8Y-65.6
X106.16Y-70.16
X124.1Y-75.7
X127.1Y-78.1
X129.9Y-77.8
X130.5Y-66.8
X132.3Y-68.5
X136.2Y-78.5
X139.5Y-66.3
X139.7Y-70.6
X142.1Y-72.4
X146.6Y-75.3
X148.7Y-66.6
X149.2Y-70.4
X149.9Y-78.8
T4
X95.736Y-69.75
X96.986Y-69.75
X98.236Y-69.75
X99.486Y-69.75
X100.736Y-69.75
X101.986Y-69.75
X103.236Y-69.75
X104.486Y-69.75
T5
X81.435Y-68.41
X81.435Y-70.95
X81.435Y-73.49
X81.435Y-76.03
X83.975Y-69.68
X83.975Y-72.22
X83.975Y-74.76
X83.975Y-77.3
X134.907Y-68.41
X134.907Y-70.95
X134.907Y-73.49
X134.907Y-76.03
X137.447Y-69.68
X137.447Y-72.22
X137.447Y-74.76
X137.447Y-77.3
T6
X75.085Y-67.14
X75.085Y-78.57
X143.797Y-67.14
X143.797Y-78.57
M30
