%TF.GenerationSoftware,KiCad,Pcbnew,9.0.6*%
%TF.CreationDate,2025-12-28T22:26:22+01:00*%
%TF.ProjectId,VoxSense,566f7853-656e-4736-952e-6b696361645f,1.0*%
%TF.SameCoordinates,Original*%
%TF.FileFunction,Copper,L4,Bot*%
%TF.FilePolarity,Positive*%
%FSLAX46Y46*%
G04 Gerber Fmt 4.6, Leading zero omitted, Abs format (unit mm)*
G04 Created by KiCad (PCBNEW 9.0.6) date 2025-12-28 22:26:22*
%MOMM*%
%LPD*%
G01*
G04 APERTURE LIST*
G04 Aperture macros list*
%AMRoundRect*
0 Rectangle with rounded corners*
0 $1 Rounding radius*
0 $2 $3 $4 $5 $6 $7 $8 $9 X,Y pos of 4 corners*
0 Add a 4 corners polygon primitive as box body*
4,1,4,$2,$3,$4,$5,$6,$7,$8,$9,$2,$3,0*
0 Add four circle primitives for the rounded corners*
1,1,$1+$1,$2,$3*
1,1,$1+$1,$4,$5*
1,1,$1+$1,$6,$7*
1,1,$1+$1,$8,$9*
0 Add four rect primitives between the rounded corners*
20,1,$1+$1,$2,$3,$4,$5,0*
20,1,$1+$1,$4,$5,$6,$7,0*
20,1,$1+$1,$6,$7,$8,$9,0*
20,1,$1+$1,$8,$9,$2,$3,0*%
G04 Aperture macros list end*
%TA.AperFunction,ComponentPad*%
%ADD10C,1.397000*%
%TD*%
%TA.AperFunction,ComponentPad*%
%ADD11C,3.759200*%
%TD*%
%TA.AperFunction,ComponentPad*%
%ADD12RoundRect,0.200000X0.200000X0.450000X-0.200000X0.450000X-0.200000X-0.450000X0.200000X-0.450000X0*%
%TD*%
%TA.AperFunction,ComponentPad*%
%ADD13O,0.800000X1.300000*%
%TD*%
%TA.AperFunction,SMDPad,CuDef*%
%ADD14C,0.500000*%
%TD*%
%TA.AperFunction,ViaPad*%
%ADD15C,0.600000*%
%TD*%
%TA.AperFunction,ViaPad*%
%ADD16C,0.500000*%
%TD*%
%TA.AperFunction,Conductor*%
%ADD17C,1.000000*%
%TD*%
%TA.AperFunction,Conductor*%
%ADD18C,0.200000*%
%TD*%
%TA.AperFunction,Conductor*%
%ADD19C,0.100000*%
%TD*%
G04 APERTURE END LIST*
D10*
%TO.P,J501,1,RX*%
%TO.N,/Connectivity/VOX_RX_P*%
X81435101Y-68409900D03*
%TO.P,J501,2,~{RX}*%
%TO.N,/Connectivity/VOX_RX_N*%
X83975101Y-69679900D03*
%TO.P,J501,3,VCC*%
%TO.N,VCC*%
X81435101Y-70949900D03*
%TO.P,J501,4,CLK*%
%TO.N,/Connectivity/VOX_CLK_P*%
X83975101Y-72219900D03*
%TO.P,J501,5,~{CLK}*%
%TO.N,/Connectivity/VOX_CLK_N*%
X81435101Y-73489900D03*
%TO.P,J501,6,GND*%
%TO.N,GND*%
X83975101Y-74759900D03*
%TO.P,J501,7,~{TX}*%
%TO.N,/Connectivity/VOX_TX_N*%
X81435101Y-76029900D03*
%TO.P,J501,8,TX*%
%TO.N,/Connectivity/VOX_TX_P*%
X83975101Y-77299900D03*
D11*
%TO.P,J501,9,SHD*%
%TO.N,GND*%
X75085101Y-67139900D03*
%TO.P,J501,10,SHD*%
X75085101Y-78569900D03*
%TD*%
D12*
%TO.P,J302,1,Pin_1*%
%TO.N,GND*%
X104486073Y-69750000D03*
D13*
%TO.P,J302,2,Pin_2*%
%TO.N,~{CRESET}*%
X103236073Y-69750000D03*
%TO.P,J302,3,Pin_3*%
%TO.N,/System/CDONE*%
X101986073Y-69750000D03*
%TO.P,J302,4,Pin_4*%
%TO.N,/System/FLASH_SCK_NOESD*%
X100736073Y-69750000D03*
%TO.P,J302,5,Pin_5*%
%TO.N,/System/FLASH_MISO_NOESD*%
X99486073Y-69750000D03*
%TO.P,J302,6,Pin_6*%
%TO.N,/System/FLASH_MOSI_NOESD*%
X98236073Y-69750000D03*
%TO.P,J302,7,Pin_7*%
%TO.N,/System/FLASH_~{CS}_NOESD*%
X96986073Y-69750000D03*
%TO.P,J302,8,Pin_8*%
%TO.N,VCCD*%
X95736073Y-69750000D03*
%TD*%
D10*
%TO.P,J502,1,RX*%
%TO.N,/Connectivity/VOX_RX_OUT_P*%
X137447000Y-77299900D03*
%TO.P,J502,2,~{RX}*%
%TO.N,/Connectivity/VOX_RX_OUT_N*%
X134907000Y-76029900D03*
%TO.P,J502,3,VCC*%
%TO.N,VCC*%
X137447000Y-74759900D03*
%TO.P,J502,4,CLK*%
%TO.N,/Connectivity/VOX_CLK_P*%
X134907000Y-73489900D03*
%TO.P,J502,5,~{CLK}*%
%TO.N,/Connectivity/VOX_CLK_N*%
X137447000Y-72219900D03*
%TO.P,J502,6,GND*%
%TO.N,GND*%
X134907000Y-70949900D03*
%TO.P,J502,7,~{TX}*%
%TO.N,/Connectivity/VOX_TX_N*%
X137447000Y-69679900D03*
%TO.P,J502,8,TX*%
%TO.N,/Connectivity/VOX_TX_P*%
X134907000Y-68409900D03*
D11*
%TO.P,J502,9,SHD*%
%TO.N,GND*%
X143797000Y-78569900D03*
%TO.P,J502,10,SHD*%
X143797000Y-67139900D03*
%TD*%
D14*
%TO.P,TP501,1,1*%
%TO.N,/Connectivity/VOX_TX_FPGA_P*%
X90100000Y-69000000D03*
%TD*%
%TO.P,TP502,1,1*%
%TO.N,/Connectivity/VOX_TX_FPGA_N*%
X89600000Y-68450000D03*
%TD*%
D15*
%TO.N,GND*%
X82190000Y-77530000D03*
X136200000Y-78500000D03*
X102600000Y-71000000D03*
X130500000Y-66800000D03*
X132300000Y-68500000D03*
X121200000Y-71900000D03*
X105800000Y-65600000D03*
X96000000Y-65900000D03*
X79900000Y-73800000D03*
X77400000Y-71400000D03*
X75800000Y-74700000D03*
X78600000Y-66400000D03*
X83600000Y-66300000D03*
X70900000Y-69300000D03*
X73000000Y-70900000D03*
X68700000Y-74700000D03*
X70700000Y-78300000D03*
X69100000Y-66600000D03*
X97400000Y-74700000D03*
X99300000Y-74600000D03*
X124100000Y-75700000D03*
X127100000Y-78100000D03*
X129900000Y-77800000D03*
X149200000Y-70400000D03*
X146600000Y-75300000D03*
X149900000Y-78800000D03*
X148700000Y-66600000D03*
X139700000Y-70600000D03*
X142100000Y-72400000D03*
X139500000Y-66300000D03*
D16*
%TO.N,VCC*%
X131900000Y-79727900D03*
%TO.N,GND*%
X126650000Y-72880000D03*
X89086073Y-73049856D03*
X103385000Y-73187000D03*
X107600000Y-76170000D03*
X128360648Y-69213765D03*
X108775000Y-68000000D03*
X126340000Y-74570000D03*
X91196597Y-70571529D03*
X117075000Y-66500000D03*
X107100000Y-65850000D03*
X122900000Y-74125000D03*
X129200000Y-74600000D03*
X112100000Y-74900000D03*
X129200000Y-76100000D03*
X86170000Y-74600000D03*
X111850000Y-78877900D03*
X109450000Y-65850000D03*
X89086073Y-76849868D03*
X128500000Y-67200000D03*
X93796073Y-67460000D03*
X88096073Y-68840000D03*
X111800207Y-70470325D03*
X130260352Y-69187691D03*
X112836073Y-74153133D03*
X99580135Y-65730900D03*
X123720000Y-76770000D03*
X115490000Y-74200000D03*
X86170000Y-71110000D03*
D15*
X106160000Y-70160000D03*
D16*
X107560000Y-78877900D03*
X94786073Y-75925000D03*
X121610000Y-68920000D03*
X132610000Y-77840000D03*
X92510000Y-70720000D03*
X110800000Y-68550000D03*
X115600000Y-68480000D03*
X129200000Y-71100000D03*
X113700000Y-76100000D03*
X90100000Y-74600000D03*
X92383225Y-69269320D03*
X111262282Y-72895954D03*
X114275000Y-66475000D03*
D15*
X89450000Y-78750000D03*
D16*
X101256073Y-74356073D03*
X110825000Y-67100000D03*
X121250000Y-70650000D03*
X94990001Y-69198191D03*
X96586073Y-71800000D03*
X119800000Y-76950000D03*
X124720000Y-71650000D03*
X109226854Y-71838257D03*
X111600000Y-69100000D03*
X111324520Y-72108383D03*
X89086073Y-74949862D03*
X86986073Y-77800000D03*
X99601423Y-66988580D03*
X115395253Y-70271562D03*
X86746073Y-66770000D03*
X123250000Y-78840000D03*
X117500000Y-76400000D03*
X93317838Y-72080348D03*
X118660000Y-75640000D03*
X119400000Y-73880000D03*
X89090280Y-71150012D03*
%TO.N,+5V*%
X104480000Y-75910000D03*
X107800000Y-71100000D03*
X107100000Y-71100000D03*
%TO.N,+1V2_CORE*%
X111811073Y-72475000D03*
X110210000Y-67360000D03*
X111498459Y-69950624D03*
X108200000Y-74200000D03*
%TO.N,+3V3*%
X123600000Y-73600000D03*
X128600000Y-68000000D03*
X116700000Y-74160000D03*
X104700000Y-78800000D03*
X114530000Y-73640000D03*
X87000000Y-76900000D03*
X118570000Y-77000000D03*
X128360000Y-70430000D03*
X89916073Y-67710000D03*
X113850000Y-69750000D03*
X116652531Y-71349216D03*
%TO.N,~{CRESET}*%
X115700000Y-76750000D03*
X110750000Y-75750000D03*
X113700000Y-75499997D03*
%TO.N,Net-(U401-CAP)*%
X125680000Y-71350000D03*
X120470000Y-71180000D03*
%TO.N,/System/CDONE*%
X127680000Y-67507500D03*
X115730000Y-71410000D03*
X108769546Y-67400022D03*
%TO.N,/System/LED*%
X112840000Y-68380000D03*
X126180000Y-67507500D03*
%TO.N,/System/RX_LED*%
X123170000Y-67507500D03*
X112425279Y-69640000D03*
%TO.N,/System/TX_LED*%
X124670000Y-67500000D03*
X112931968Y-69961349D03*
%TO.N,/Connectivity/ARCHITECTURE_SEL*%
X94756073Y-67450000D03*
X90561073Y-70175000D03*
%TO.N,/System/FLASH_MOSI_NOESD*%
X100000000Y-71600000D03*
X98500000Y-71000000D03*
%TO.N,/System/FLASH_~{CS}*%
X105200000Y-75100000D03*
X115600000Y-75550000D03*
%TO.N,/System/FLASH_MOSI*%
X106100000Y-75500000D03*
X112810000Y-76590000D03*
%TO.N,/System/FLASH_MISO*%
X114975684Y-75549998D03*
X107750000Y-73350000D03*
%TO.N,/System/FLASH_SCK*%
X107557081Y-72587239D03*
X112210772Y-75823775D03*
%TO.N,BNO_SCL*%
X115572876Y-69698454D03*
X118600000Y-71200000D03*
%TO.N,BNO_~{RST}*%
X116300000Y-66720000D03*
X122330000Y-66850000D03*
%TO.N,/Connectivity/VOX_TX_P*%
X89086073Y-74349859D03*
X128960431Y-69197559D03*
X94790000Y-69770000D03*
X99060000Y-66730000D03*
%TO.N,/Connectivity/VOX_CLK_P*%
X113060000Y-73596485D03*
X89086073Y-75549865D03*
X128557769Y-71800000D03*
%TO.N,/Connectivity/VOX_RX_P*%
X91261073Y-69975000D03*
X111883561Y-73977488D03*
%TO.N,/Connectivity/VOX_TX_FPGA_P*%
X111820000Y-71770000D03*
X89811711Y-70096735D03*
%TO.N,/Connectivity/VOX_TX_N*%
X89086073Y-73649859D03*
X99060000Y-66030000D03*
X129660431Y-69197559D03*
X94090000Y-69770000D03*
%TO.N,/Connectivity/VOX_CLK_N*%
X113760000Y-73596485D03*
X89086073Y-76249865D03*
X128557769Y-72500000D03*
%TO.N,/Connectivity/VOX_RX_N*%
X111388585Y-73482512D03*
X91811073Y-69450000D03*
%TO.N,/Connectivity/VOX_TX_FPGA_N*%
X89316735Y-70591711D03*
X111820000Y-71070000D03*
%TO.N,/Connectivity/VOX_RX_OUT_N*%
X92816964Y-72450001D03*
X89086073Y-72450000D03*
X128750000Y-75000000D03*
%TO.N,/Connectivity/VOX_RX_OUT_P*%
X89086073Y-71750000D03*
X92816964Y-71750001D03*
X128750000Y-75700000D03*
%TD*%
D17*
%TO.N,VCC*%
X138858173Y-79727900D02*
X140086073Y-78500000D01*
X80386173Y-70949900D02*
X78586073Y-72750000D01*
X78586073Y-72750000D02*
X78586073Y-77750000D01*
X78586073Y-77750000D02*
X80563973Y-79727900D01*
X140086073Y-78500000D02*
X140086073Y-76250000D01*
X80563973Y-79727900D02*
X131540000Y-79727900D01*
X140086073Y-76250000D02*
X138595973Y-74759900D01*
X81435101Y-70949900D02*
X80386173Y-70949900D01*
X138595973Y-74759900D02*
X137550000Y-74759900D01*
X131540000Y-79727900D02*
X138858173Y-79727900D01*
D18*
%TO.N,+5V*%
X104480000Y-75910000D02*
X104480000Y-71720000D01*
X105100000Y-71100000D02*
X107800000Y-71100000D01*
X104480000Y-71720000D02*
X105100000Y-71100000D01*
D19*
%TO.N,+1V2_CORE*%
X110000000Y-68500000D02*
X111450624Y-69950624D01*
X110000000Y-67570000D02*
X110000000Y-68500000D01*
X111625633Y-70077798D02*
X111498459Y-69950624D01*
X111634107Y-70069325D02*
X111625633Y-70077798D01*
X111966307Y-70069325D02*
X111634107Y-70069325D01*
X111811073Y-72475000D02*
X111975000Y-72475000D01*
X112435073Y-74264927D02*
X112435073Y-73099000D01*
X112200000Y-74500000D02*
X112435073Y-74264927D01*
X112440000Y-70543018D02*
X112201207Y-70304225D01*
X108500000Y-74500000D02*
X112200000Y-74500000D01*
X110210000Y-67360000D02*
X110000000Y-67570000D01*
X112435073Y-73099000D02*
X111811073Y-72475000D01*
X112201207Y-70304225D02*
X111966307Y-70069325D01*
X111450624Y-69950624D02*
X111498459Y-69950624D01*
X112440000Y-72010000D02*
X112440000Y-70543018D01*
X108200000Y-74200000D02*
X108500000Y-74500000D01*
X111975000Y-72475000D02*
X112440000Y-72010000D01*
%TO.N,+3V3*%
X127250000Y-66950000D02*
X127050000Y-67150000D01*
D18*
X116700000Y-74160000D02*
X116180000Y-73640000D01*
X86200000Y-76900000D02*
X85400000Y-76100000D01*
X88300000Y-78200000D02*
X102400000Y-78200000D01*
D19*
X116990000Y-67950000D02*
X115500000Y-67950000D01*
X113850000Y-69600000D02*
X113850000Y-69750000D01*
D18*
X119100000Y-71700000D02*
X120800000Y-70000000D01*
D19*
X128600000Y-68000000D02*
X128600000Y-67900000D01*
D18*
X118000000Y-76800000D02*
X118200000Y-77000000D01*
D19*
X128600000Y-67900000D02*
X128100000Y-67400000D01*
D18*
X89916073Y-67116073D02*
X89916073Y-67710000D01*
X85900000Y-66100000D02*
X88900000Y-66100000D01*
X127930000Y-70000000D02*
X128360000Y-70430000D01*
X123900000Y-74800000D02*
X122900000Y-75800000D01*
X127600000Y-69000000D02*
X127600000Y-69670000D01*
D19*
X115500000Y-67950000D02*
X113850000Y-69600000D01*
D18*
X85400000Y-66600000D02*
X85900000Y-66100000D01*
D19*
X128100000Y-67150000D02*
X127900000Y-66950000D01*
D18*
X87000000Y-76900000D02*
X86200000Y-76900000D01*
X128600000Y-68000000D02*
X127600000Y-69000000D01*
D19*
X128100000Y-67400000D02*
X128100000Y-67150000D01*
D18*
X123600000Y-73600000D02*
X123900000Y-73900000D01*
D19*
X127050000Y-67150000D02*
X127050000Y-68100000D01*
D18*
X116700000Y-74200000D02*
X118000000Y-75500000D01*
X123900000Y-73900000D02*
X123900000Y-74800000D01*
X87000000Y-76900000D02*
X88300000Y-78200000D01*
D19*
X117559000Y-68519000D02*
X116990000Y-67950000D01*
D18*
X120150000Y-75800000D02*
X118950000Y-77000000D01*
X102400000Y-78200000D02*
X103000000Y-78800000D01*
D19*
X127050000Y-68100000D02*
X126631000Y-68519000D01*
D18*
X88900000Y-66100000D02*
X89916073Y-67116073D01*
X116652531Y-71349216D02*
X117003315Y-71700000D01*
X118950000Y-77000000D02*
X118570000Y-77000000D01*
X117003315Y-71700000D02*
X119100000Y-71700000D01*
X116700000Y-74160000D02*
X116700000Y-74200000D01*
D19*
X126631000Y-68519000D02*
X117559000Y-68519000D01*
D18*
X122900000Y-75800000D02*
X120150000Y-75800000D01*
D19*
X127900000Y-66950000D02*
X127250000Y-66950000D01*
D18*
X120800000Y-70000000D02*
X127930000Y-70000000D01*
X118200000Y-77000000D02*
X118570000Y-77000000D01*
X118000000Y-75500000D02*
X118000000Y-76800000D01*
X85400000Y-76100000D02*
X85400000Y-66600000D01*
X127600000Y-69670000D02*
X128360000Y-70430000D01*
X116180000Y-73640000D02*
X114530000Y-73640000D01*
X89896073Y-67710000D02*
X89916073Y-67710000D01*
X103000000Y-78800000D02*
X104700000Y-78800000D01*
D19*
%TO.N,~{CRESET}*%
X113232903Y-75499997D02*
X113700000Y-75499997D01*
X114049997Y-75499997D02*
X113700000Y-75499997D01*
X112383900Y-76349000D02*
X113232903Y-75499997D01*
X111349000Y-76349000D02*
X110750000Y-75750000D01*
X115700000Y-76750000D02*
X115300000Y-76750000D01*
X115300000Y-76750000D02*
X114049997Y-75499997D01*
X112383900Y-76349000D02*
X111349000Y-76349000D01*
%TO.N,Net-(U401-CAP)*%
X125510000Y-71180000D02*
X120820000Y-71180000D01*
X120820000Y-71180000D02*
X120470000Y-71180000D01*
X125680000Y-71350000D02*
X125510000Y-71180000D01*
D18*
%TO.N,/System/CDONE*%
X115000000Y-69000000D02*
X114600000Y-69400000D01*
D19*
X111109000Y-66699000D02*
X111520000Y-67110000D01*
X108769546Y-67400022D02*
X109479978Y-67400022D01*
X109479978Y-67400022D02*
X110181000Y-66699000D01*
D18*
X127680000Y-68220000D02*
X126400000Y-69500000D01*
X117740000Y-69500000D02*
X117240000Y-69000000D01*
D19*
X111520000Y-68397100D02*
X111130000Y-68787100D01*
D18*
X117240000Y-69000000D02*
X115000000Y-69000000D01*
D19*
X110181000Y-66699000D02*
X111109000Y-66699000D01*
X111130000Y-69270000D02*
X111370000Y-69510000D01*
X113628179Y-71410000D02*
X115730000Y-71410000D01*
D18*
X127680000Y-67507500D02*
X127680000Y-68220000D01*
D19*
X111728179Y-69510000D02*
X113628179Y-71410000D01*
D18*
X126400000Y-69500000D02*
X117740000Y-69500000D01*
D19*
X111520000Y-67110000D02*
X111520000Y-68397100D01*
X127680000Y-67507500D02*
X127680000Y-67490000D01*
D18*
X114600000Y-70280000D02*
X115730000Y-71410000D01*
D19*
X111130000Y-68787100D02*
X111130000Y-69270000D01*
D18*
X114600000Y-69400000D02*
X114600000Y-70280000D01*
D19*
X111370000Y-69510000D02*
X111728179Y-69510000D01*
%TO.N,/System/LED*%
X120518256Y-67549000D02*
X122401000Y-67549000D01*
X123000000Y-66950000D02*
X125650000Y-66950000D01*
X114643138Y-67199000D02*
X120168256Y-67199000D01*
X114090000Y-67200000D02*
X114642138Y-67200000D01*
X125650000Y-66950000D02*
X126180000Y-67480000D01*
X114642138Y-67200000D02*
X114643138Y-67199000D01*
X122401000Y-67549000D02*
X123000000Y-66950000D01*
X120168256Y-67199000D02*
X120518256Y-67549000D01*
X112910000Y-68380000D02*
X114090000Y-67200000D01*
X126180000Y-67480000D02*
X126180000Y-67507500D01*
X112840000Y-68380000D02*
X112910000Y-68380000D01*
%TO.N,/System/RX_LED*%
X112486395Y-69640000D02*
X114726395Y-67400000D01*
X120085000Y-67400000D02*
X120435000Y-67750000D01*
X114726395Y-67400000D02*
X120085000Y-67400000D01*
X120435000Y-67750000D02*
X122927500Y-67750000D01*
X122927500Y-67750000D02*
X123170000Y-67507500D01*
X112425279Y-69640000D02*
X112486395Y-69640000D01*
%TO.N,/System/TX_LED*%
X124592500Y-67507500D02*
X124670000Y-67507500D01*
X112931968Y-69961349D02*
X112932100Y-69961349D01*
X116977000Y-67602000D02*
X117675000Y-68300000D01*
X117675000Y-68300000D02*
X123800000Y-68300000D01*
X123800000Y-68300000D02*
X124592500Y-67507500D01*
X112932100Y-69961349D02*
X115291449Y-67602000D01*
X115291449Y-67602000D02*
X116977000Y-67602000D01*
%TO.N,/Connectivity/ARCHITECTURE_SEL*%
X92135445Y-68950000D02*
X91036073Y-68950000D01*
X94756073Y-67450000D02*
X94306073Y-67900000D01*
X93185445Y-67900000D02*
X92135445Y-68950000D01*
X90561073Y-69425000D02*
X90561073Y-70175000D01*
X91036073Y-68950000D02*
X90561073Y-69425000D01*
X94306073Y-67900000D02*
X93185445Y-67900000D01*
%TO.N,/System/FLASH_MOSI_NOESD*%
X99400000Y-71000000D02*
X98500000Y-71000000D01*
X100000000Y-71600000D02*
X99400000Y-71000000D01*
%TO.N,/System/FLASH_~{CS}*%
X110700000Y-77100000D02*
X109350000Y-75750000D01*
X106700000Y-76150000D02*
X105650000Y-76150000D01*
X115451675Y-77226675D02*
X115325000Y-77100000D01*
X109350000Y-75750000D02*
X107100000Y-75750000D01*
X115325000Y-77100000D02*
X110700000Y-77100000D01*
X115600000Y-75550000D02*
X116180000Y-76130000D01*
X115923325Y-77226675D02*
X115451675Y-77226675D01*
X105200000Y-75700000D02*
X105200000Y-75100000D01*
X116180000Y-76130000D02*
X116180000Y-76970000D01*
X107100000Y-75750000D02*
X106700000Y-76150000D01*
X105650000Y-76150000D02*
X105200000Y-75700000D01*
X105200000Y-75100000D02*
X105050000Y-75100000D01*
X116180000Y-76970000D02*
X115923325Y-77226675D01*
%TO.N,/System/FLASH_MOSI*%
X106100000Y-75500000D02*
X106550000Y-75500000D01*
X109700000Y-75400000D02*
X110900000Y-76600000D01*
X112800000Y-76600000D02*
X112810000Y-76590000D01*
X106550000Y-75500000D02*
X106650000Y-75400000D01*
X106650000Y-75400000D02*
X109700000Y-75400000D01*
X110900000Y-76600000D02*
X112800000Y-76600000D01*
%TO.N,/System/FLASH_MISO*%
X112400000Y-75300000D02*
X111550000Y-75300000D01*
X108000000Y-74800000D02*
X107750000Y-74550000D01*
X111050000Y-74800000D02*
X108000000Y-74800000D01*
X112700000Y-75000000D02*
X112400000Y-75300000D01*
X113901805Y-75000000D02*
X112700000Y-75000000D01*
X111550000Y-75300000D02*
X111050000Y-74800000D01*
X107750000Y-74550000D02*
X107750000Y-73350000D01*
X114450000Y-75250000D02*
X114151805Y-75250000D01*
X114151805Y-75250000D02*
X113901805Y-75000000D01*
X114749998Y-75549998D02*
X114450000Y-75250000D01*
X114975684Y-75549998D02*
X114749998Y-75549998D01*
%TO.N,/System/FLASH_SCK*%
X107200000Y-74500000D02*
X107200000Y-72944320D01*
X111573775Y-75823775D02*
X110850000Y-75100000D01*
X110850000Y-75100000D02*
X107800000Y-75100000D01*
X107800000Y-75100000D02*
X107200000Y-74500000D01*
X107200000Y-72944320D02*
X107557081Y-72587239D01*
X112210772Y-75823775D02*
X111573775Y-75823775D01*
%TO.N,BNO_SCL*%
X117900000Y-71200000D02*
X116398454Y-69698454D01*
X118600000Y-71200000D02*
X117900000Y-71200000D01*
X116398454Y-69698454D02*
X115572876Y-69698454D01*
%TO.N,BNO_~{RST}*%
X116481000Y-66901000D02*
X122279000Y-66901000D01*
X116300000Y-66720000D02*
X116481000Y-66901000D01*
X122279000Y-66901000D02*
X122330000Y-66850000D01*
%TO.N,/Connectivity/VOX_TX_P*%
X102549992Y-66229999D02*
X102549992Y-66179999D01*
X100749984Y-66229999D02*
X100749984Y-66530001D01*
X103549996Y-66580001D02*
X103549996Y-66530001D01*
X102549992Y-66580001D02*
X102549992Y-66530001D01*
X131680000Y-66060000D02*
X131870000Y-66250000D01*
X99259999Y-66530001D02*
X100199982Y-66530001D01*
X93802272Y-74149860D02*
X89286072Y-74149860D01*
X131268443Y-67460000D02*
X129907868Y-67460000D01*
X101749988Y-66179999D02*
X101749988Y-66229999D01*
X129160430Y-68997560D02*
X128960431Y-69197559D01*
X101549988Y-66229999D02*
X101549988Y-66179999D01*
X101549988Y-66530001D02*
X101549988Y-66229999D01*
X103599996Y-66129999D02*
X103699996Y-66129999D01*
X101099986Y-66930003D02*
X101199986Y-66930003D01*
X103549996Y-66530001D02*
X103549996Y-66330000D01*
X94790000Y-69770000D02*
X94590001Y-69969999D01*
X100749984Y-66179999D02*
X100749984Y-66229999D01*
X105397868Y-66690000D02*
X109630000Y-66690000D01*
X94590001Y-73362131D02*
X93802272Y-74149860D01*
X104099998Y-66530001D02*
X104199998Y-66530001D01*
X102599992Y-66129999D02*
X102699992Y-66129999D01*
X131870000Y-66250000D02*
X131870000Y-67239228D01*
X131870000Y-67239228D02*
X131649228Y-67460000D01*
X94590001Y-69969999D02*
X94590001Y-73362131D01*
X104737487Y-66530001D02*
X105237869Y-66530001D01*
X110260000Y-66060000D02*
X131680000Y-66060000D01*
X101549988Y-66580001D02*
X101549988Y-66530001D01*
X103099994Y-66930003D02*
X103199994Y-66930003D01*
X102749992Y-66229999D02*
X102749992Y-66530001D01*
X103549996Y-66330000D02*
X103549996Y-66179999D01*
X102099990Y-66930003D02*
X102199990Y-66930003D01*
X101599988Y-66129999D02*
X101699988Y-66129999D01*
X100749984Y-66530001D02*
X100749984Y-66580001D01*
X104199998Y-66530001D02*
X104737487Y-66530001D01*
X129160430Y-68207438D02*
X129160430Y-68997560D01*
X131649228Y-67460000D02*
X131268443Y-67460000D01*
X100599984Y-66129999D02*
X100699984Y-66129999D01*
X89286072Y-74149860D02*
X89086073Y-74349859D01*
X99060000Y-66730000D02*
X99259999Y-66530001D01*
X101749988Y-66530001D02*
X101749988Y-66580001D01*
X102549992Y-66530001D02*
X102549992Y-66229999D01*
X129907868Y-67460000D02*
X129160430Y-68207438D01*
X102749992Y-66530001D02*
X102749992Y-66580001D01*
X109630000Y-66690000D02*
X110260000Y-66060000D01*
X105237869Y-66530001D02*
X105397868Y-66690000D01*
X102749992Y-66179999D02*
X102749992Y-66229999D01*
X101749988Y-66229999D02*
X101749988Y-66530001D01*
X103199994Y-66930003D02*
G75*
G03*
X103550003Y-66580001I6J350003D01*
G01*
X101699988Y-66129999D02*
G75*
G02*
X101750001Y-66179999I12J-50001D01*
G01*
X100749984Y-66580001D02*
G75*
G03*
X101099986Y-66930016I350016J1D01*
G01*
X101549988Y-66179999D02*
G75*
G02*
X101599988Y-66129988I50012J-1D01*
G01*
X100699984Y-66129999D02*
G75*
G02*
X100750001Y-66179999I16J-50001D01*
G01*
X103549996Y-66179999D02*
G75*
G02*
X103599996Y-66129996I50004J-1D01*
G01*
X100549984Y-66179999D02*
G75*
G02*
X100599984Y-66129984I50016J-1D01*
G01*
X102549992Y-66179999D02*
G75*
G02*
X102599992Y-66129992I50008J-1D01*
G01*
X102699992Y-66129999D02*
G75*
G02*
X102750001Y-66179999I8J-50001D01*
G01*
X100199982Y-66530001D02*
G75*
G03*
X100550001Y-66179999I18J350001D01*
G01*
X102749992Y-66580001D02*
G75*
G03*
X103099994Y-66930008I350008J1D01*
G01*
X103699996Y-66129999D02*
G75*
G02*
X103750001Y-66179999I4J-50001D01*
G01*
X103749996Y-66179999D02*
G75*
G03*
X104099998Y-66530004I350004J-1D01*
G01*
X101749988Y-66580001D02*
G75*
G03*
X102099990Y-66930012I350012J1D01*
G01*
X101199986Y-66930003D02*
G75*
G03*
X101550003Y-66580001I14J350003D01*
G01*
X102199990Y-66930003D02*
G75*
G03*
X102550003Y-66580001I10J350003D01*
G01*
%TO.N,/Connectivity/VOX_CLK_P*%
X116600000Y-75474262D02*
X116025738Y-74900000D01*
X128357770Y-71999999D02*
X128557769Y-71800000D01*
X113259999Y-73083942D02*
X113259999Y-73396486D01*
X109439807Y-77427675D02*
X116172325Y-77427675D01*
X125037868Y-72400000D02*
X113943941Y-72400000D01*
X95437868Y-76550000D02*
X96037868Y-75950000D01*
X114125738Y-74900000D02*
X113259999Y-74034261D01*
X89086073Y-75549865D02*
X89286072Y-75749864D01*
X127840001Y-71999999D02*
X128357770Y-71999999D01*
X109012132Y-77000000D02*
X109439807Y-77427675D01*
X104362132Y-77000000D02*
X109012132Y-77000000D01*
X113259999Y-73796484D02*
X113060000Y-73596485D01*
X90461996Y-75749864D02*
X91262132Y-76550000D01*
X113943941Y-72400000D02*
X113259999Y-73083942D01*
X125437868Y-72000000D02*
X125037868Y-72400000D01*
X116600000Y-77000000D02*
X116600000Y-75474262D01*
X103312132Y-75950000D02*
X104362132Y-77000000D01*
X91262132Y-76550000D02*
X95437868Y-76550000D01*
X113259999Y-73396486D02*
X113060000Y-73596485D01*
X89286072Y-75749864D02*
X90461996Y-75749864D01*
X113259999Y-74034261D02*
X113259999Y-73796484D01*
X96037868Y-75950000D02*
X103312132Y-75950000D01*
X116172325Y-77427675D02*
X116600000Y-77000000D01*
X127840000Y-72000000D02*
X127840001Y-71999999D01*
X127840000Y-72000000D02*
X125437868Y-72000000D01*
X116025738Y-74900000D02*
X114125738Y-74900000D01*
%TO.N,/Connectivity/VOX_RX_P*%
X91848940Y-70225000D02*
X92485335Y-70225000D01*
X111600718Y-73977488D02*
X111883561Y-73977488D01*
X94150335Y-68560000D02*
X106597868Y-68560000D01*
X109950000Y-71912132D02*
X109950000Y-73162132D01*
X91598940Y-69975000D02*
X91848940Y-70225000D01*
X111431044Y-74147162D02*
X111600718Y-73977488D01*
X106597868Y-68560000D02*
X109950000Y-71912132D01*
X109950000Y-73162132D02*
X110935030Y-74147162D01*
X92485335Y-70225000D02*
X94150335Y-68560000D01*
X110935030Y-74147162D02*
X111431044Y-74147162D01*
X91261073Y-69975000D02*
X91598940Y-69975000D01*
%TO.N,/Connectivity/VOX_TX_FPGA_P*%
X107267868Y-67730000D02*
X111107869Y-71570001D01*
X90194262Y-68600000D02*
X91820000Y-68600000D01*
X93590000Y-66830000D02*
X95177868Y-66830000D01*
X95177868Y-66830000D02*
X96077868Y-67730000D01*
X91820000Y-68600000D02*
X93590000Y-66830000D01*
X111620001Y-71570001D02*
X111820000Y-71770000D01*
X111107869Y-71570001D02*
X111620001Y-71570001D01*
X89811711Y-70096735D02*
X89528868Y-70096735D01*
X89330000Y-69897867D02*
X89330000Y-69464262D01*
X89528868Y-70096735D02*
X89330000Y-69897867D01*
X96077868Y-67730000D02*
X107267868Y-67730000D01*
X89330000Y-69464262D02*
X90194262Y-68600000D01*
%TO.N,/Connectivity/VOX_TX_N*%
X101049986Y-66229999D02*
X101049986Y-66530001D01*
X110135738Y-65760000D02*
X131804262Y-65760000D01*
X132170000Y-67363492D02*
X131773492Y-67760000D01*
X105362131Y-66229999D02*
X105522132Y-66390000D01*
X130032132Y-67760000D02*
X129460432Y-68331700D01*
X131268443Y-67760000D02*
X130032132Y-67760000D01*
X101099986Y-66630001D02*
X101199986Y-66630001D01*
X102049990Y-66229999D02*
X102049990Y-66530001D01*
X94289999Y-73237869D02*
X93678010Y-73849858D01*
X102599992Y-65829997D02*
X102699992Y-65829997D01*
X104099998Y-66229999D02*
X104199998Y-66229999D01*
X102049990Y-66530001D02*
X102049990Y-66580001D01*
X103249994Y-66330000D02*
X103249994Y-66179999D01*
X94090000Y-69770000D02*
X94289999Y-69969999D01*
X101249986Y-66229999D02*
X101249986Y-66179999D01*
X129460432Y-68331700D02*
X129460432Y-68997560D01*
X102249990Y-66530001D02*
X102249990Y-66229999D01*
X132170000Y-66125738D02*
X132170000Y-67363492D01*
X131804262Y-65760000D02*
X132170000Y-66125738D01*
X103249994Y-66530001D02*
X103249994Y-66330000D01*
X103249994Y-66580001D02*
X103249994Y-66530001D01*
X101249986Y-66580001D02*
X101249986Y-66530001D01*
X103099994Y-66630001D02*
X103199994Y-66630001D01*
X99060000Y-66030000D02*
X99259999Y-66229999D01*
X102249990Y-66580001D02*
X102249990Y-66530001D01*
X104737487Y-66229999D02*
X105362131Y-66229999D01*
X105522132Y-66390000D02*
X109505738Y-66390000D01*
X131773492Y-67760000D02*
X131674221Y-67760000D01*
X102049990Y-66179999D02*
X102049990Y-66229999D01*
X89286072Y-73849858D02*
X89086073Y-73649859D01*
X102099990Y-66630001D02*
X102199990Y-66630001D01*
X129460432Y-68997560D02*
X129660431Y-69197559D01*
X99259999Y-66229999D02*
X100199982Y-66229999D01*
X100599984Y-65829997D02*
X100699984Y-65829997D01*
X93678010Y-73849858D02*
X89286072Y-73849858D01*
X101049986Y-66179999D02*
X101049986Y-66229999D01*
X103599996Y-65829997D02*
X103699996Y-65829997D01*
X109505738Y-66390000D02*
X110135738Y-65760000D01*
X103049994Y-66179999D02*
X103049994Y-66229999D01*
X101049986Y-66530001D02*
X101049986Y-66580001D01*
X103049994Y-66229999D02*
X103049994Y-66530001D01*
X103049994Y-66530001D02*
X103049994Y-66580001D01*
X131674221Y-67760000D02*
X131268443Y-67760000D01*
X102249990Y-66229999D02*
X102249990Y-66179999D01*
X104199998Y-66229999D02*
X104737487Y-66229999D01*
X94289999Y-69969999D02*
X94289999Y-73237869D01*
X101249986Y-66530001D02*
X101249986Y-66229999D01*
X101599988Y-65829997D02*
X101699988Y-65829997D01*
X100699984Y-65829997D02*
G75*
G02*
X101050003Y-66179999I16J-350003D01*
G01*
X101199986Y-66630001D02*
G75*
G03*
X101250001Y-66580001I14J50001D01*
G01*
X103699996Y-65829997D02*
G75*
G02*
X104050003Y-66179999I4J-350003D01*
G01*
X102699992Y-65829997D02*
G75*
G02*
X103050003Y-66179999I8J-350003D01*
G01*
X102249990Y-66179999D02*
G75*
G02*
X102599992Y-65829990I350010J-1D01*
G01*
X100249982Y-66179999D02*
G75*
G02*
X100599984Y-65829982I350018J-1D01*
G01*
X103049994Y-66580001D02*
G75*
G03*
X103099994Y-66630006I50006J1D01*
G01*
X102199990Y-66630001D02*
G75*
G03*
X102250001Y-66580001I10J50001D01*
G01*
X101049986Y-66580001D02*
G75*
G03*
X101099986Y-66630014I50014J1D01*
G01*
X102049990Y-66580001D02*
G75*
G03*
X102099990Y-66630010I50010J1D01*
G01*
X101699988Y-65829997D02*
G75*
G02*
X102050003Y-66179999I12J-350003D01*
G01*
X103249994Y-66179999D02*
G75*
G02*
X103599996Y-65829994I350006J-1D01*
G01*
X100199982Y-66229999D02*
G75*
G03*
X100249999Y-66179999I18J49999D01*
G01*
X101249986Y-66179999D02*
G75*
G02*
X101599988Y-65829986I350014J-1D01*
G01*
X103199994Y-66630001D02*
G75*
G03*
X103250001Y-66580001I6J50001D01*
G01*
X104049998Y-66179999D02*
G75*
G03*
X104099998Y-66230002I50002J-1D01*
G01*
%TO.N,/Connectivity/VOX_CLK_N*%
X125162132Y-72700000D02*
X114068205Y-72700000D01*
X127840000Y-72300000D02*
X125562132Y-72300000D01*
X89286072Y-76049866D02*
X90337734Y-76049866D01*
X127840000Y-72300000D02*
X127840001Y-72300001D01*
X128357770Y-72300001D02*
X128557769Y-72500000D01*
X95562132Y-76850000D02*
X96162132Y-76250000D01*
X125562132Y-72300000D02*
X125162132Y-72700000D01*
X113560001Y-73396486D02*
X113760000Y-73596485D01*
X116150000Y-74600000D02*
X114250000Y-74600000D01*
X96162132Y-76250000D02*
X103187868Y-76250000D01*
X113560001Y-73796484D02*
X113760000Y-73596485D01*
X113560001Y-73208204D02*
X113560001Y-73396486D01*
X114068205Y-72700000D02*
X113560001Y-73208204D01*
X104237868Y-77300000D02*
X108887868Y-77300000D01*
X113560001Y-73910001D02*
X113560001Y-73796484D01*
X90337734Y-76049866D02*
X91137868Y-76850000D01*
X89086073Y-76249865D02*
X89286072Y-76049866D01*
X116900000Y-77124262D02*
X116900000Y-75350000D01*
X114250000Y-74600000D02*
X113560001Y-73910001D01*
X127840001Y-72300001D02*
X128357770Y-72300001D01*
X116296587Y-77727675D02*
X116900000Y-77124262D01*
X91137868Y-76850000D02*
X95562132Y-76850000D01*
X103187868Y-76250000D02*
X104237868Y-77300000D01*
X116900000Y-75350000D02*
X116150000Y-74600000D01*
X108887868Y-77300000D02*
X109315543Y-77727675D01*
X109315543Y-77727675D02*
X116296587Y-77727675D01*
%TO.N,/Connectivity/VOX_RX_N*%
X91973206Y-69925000D02*
X92361073Y-69925000D01*
X110250000Y-73037868D02*
X111059294Y-73847162D01*
X91811073Y-69762867D02*
X91973206Y-69925000D01*
X94026073Y-68260000D02*
X106722132Y-68260000D01*
X92361073Y-69925000D02*
X94026073Y-68260000D01*
X110250000Y-71787868D02*
X110250000Y-73037868D01*
X111306778Y-73847162D02*
X111388585Y-73765355D01*
X106722132Y-68260000D02*
X110250000Y-71787868D01*
X91811073Y-69450000D02*
X91811073Y-69762867D01*
X111059294Y-73847162D02*
X111306778Y-73847162D01*
X111388585Y-73765355D02*
X111388585Y-73482512D01*
%TO.N,/Connectivity/VOX_TX_FPGA_N*%
X91695738Y-68300000D02*
X93465738Y-66530000D01*
X96202132Y-67430000D02*
X107392132Y-67430000D01*
X93465738Y-66530000D02*
X95302132Y-66530000D01*
X107392132Y-67430000D02*
X111232131Y-71269999D01*
X89316735Y-70308868D02*
X89030000Y-70022133D01*
X95302132Y-66530000D02*
X96202132Y-67430000D01*
X89030000Y-70022133D02*
X89030000Y-69340000D01*
X89316735Y-70591711D02*
X89316735Y-70308868D01*
X111620001Y-71269999D02*
X111820000Y-71070000D01*
X89030000Y-69340000D02*
X90070000Y-68300000D01*
X90070000Y-68300000D02*
X91695738Y-68300000D01*
X111232131Y-71269999D02*
X111620001Y-71269999D01*
%TO.N,/Connectivity/VOX_RX_OUT_N*%
X126152334Y-76797666D02*
X127750001Y-75199999D01*
X120613193Y-78276759D02*
X120710993Y-78276759D01*
X120762093Y-78225659D02*
X120762093Y-78130100D01*
X112126870Y-78100000D02*
X112626870Y-78600000D01*
X122518093Y-77790000D02*
X122518093Y-78130100D01*
X89086073Y-72450000D02*
X88886074Y-72250001D01*
X108262132Y-78550000D02*
X111050000Y-78550000D01*
X122518093Y-77643341D02*
X122518093Y-77790000D01*
X127750001Y-75199999D02*
X128550001Y-75199999D01*
X117550000Y-77790000D02*
X120221993Y-77790000D01*
X120762093Y-77790000D02*
X120762093Y-77643341D01*
X111050000Y-78550000D02*
X111500000Y-78100000D01*
X121740093Y-78225659D02*
X121740093Y-78079000D01*
X122718093Y-78225650D02*
X122718093Y-78130100D01*
X107662132Y-77950000D02*
X108262132Y-78550000D01*
X112626870Y-78600000D02*
X116740000Y-78600000D01*
X88886074Y-72250001D02*
X88602131Y-72250001D01*
X89286073Y-72250000D02*
X92616963Y-72250000D01*
X88602131Y-72250001D02*
X88040000Y-72812132D01*
X116740000Y-78600000D02*
X117550000Y-77790000D01*
X111500000Y-78100000D02*
X112126870Y-78100000D01*
X122569193Y-78276750D02*
X122666993Y-78276750D01*
X121740093Y-77790000D02*
X121740093Y-77643341D01*
X88040000Y-72812132D02*
X88040000Y-76740000D01*
X123058193Y-77790000D02*
X123155993Y-77790000D01*
X121591193Y-78276759D02*
X121688993Y-78276759D01*
X89086073Y-72450000D02*
X89286073Y-72250000D01*
X120562093Y-78130100D02*
X120562093Y-78225659D01*
X121540093Y-77790000D02*
X121540093Y-78079000D01*
X121102193Y-77303241D02*
X121199993Y-77303241D01*
X121740093Y-78079000D02*
X121740093Y-77790000D01*
X103562132Y-77950000D02*
X107662132Y-77950000D01*
X121540093Y-78079000D02*
X121540093Y-78225659D01*
X125160000Y-77790000D02*
X126152334Y-76797666D01*
X88040000Y-76740000D02*
X88650000Y-77350000D01*
X88650000Y-77350000D02*
X102962132Y-77350000D01*
X121540093Y-77643341D02*
X121540093Y-77790000D01*
X92616963Y-72250000D02*
X92816964Y-72450001D01*
X122080193Y-77303241D02*
X122177993Y-77303241D01*
X123155993Y-77790000D02*
X125160000Y-77790000D01*
X120762093Y-78130100D02*
X120762093Y-77790000D01*
X122518093Y-78130100D02*
X122518093Y-78225650D01*
X128550001Y-75199999D02*
X128750000Y-75000000D01*
X102962132Y-77350000D02*
X103562132Y-77950000D01*
X121199993Y-77303241D02*
G75*
G02*
X121540059Y-77643341I7J-340059D01*
G01*
X121740093Y-77643341D02*
G75*
G02*
X122080193Y-77303193I340107J41D01*
G01*
X121540093Y-78225659D02*
G75*
G03*
X121591193Y-78276807I51107J-41D01*
G01*
X120710993Y-78276759D02*
G75*
G03*
X120762059Y-78225659I7J51059D01*
G01*
X122718093Y-78130100D02*
G75*
G02*
X123058193Y-77789993I340107J0D01*
G01*
X122666993Y-78276750D02*
G75*
G03*
X122718150Y-78225650I7J51150D01*
G01*
X120762093Y-77643341D02*
G75*
G02*
X121102193Y-77303193I340107J41D01*
G01*
X122518093Y-78225650D02*
G75*
G03*
X122569193Y-78276707I51107J50D01*
G01*
X120221993Y-77790000D02*
G75*
G02*
X120562100Y-78130100I7J-340100D01*
G01*
X120562093Y-78225659D02*
G75*
G03*
X120613193Y-78276807I51107J-41D01*
G01*
X122177993Y-77303241D02*
G75*
G02*
X122518059Y-77643341I7J-340059D01*
G01*
X121688993Y-78276759D02*
G75*
G03*
X121740059Y-78225659I7J51059D01*
G01*
%TO.N,/Connectivity/VOX_RX_OUT_P*%
X122029093Y-78225659D02*
X122029093Y-78079000D01*
X121591193Y-78565759D02*
X121688993Y-78565759D01*
X128550001Y-75500001D02*
X128750000Y-75700000D01*
X122569193Y-78565750D02*
X122666993Y-78565750D01*
X122029093Y-78079000D02*
X122029093Y-77790000D01*
X121251093Y-78079000D02*
X121251093Y-78225659D01*
X111640701Y-78392199D02*
X111972901Y-78392199D01*
X123058193Y-78079000D02*
X123155993Y-78079000D01*
X107537868Y-78250000D02*
X108137868Y-78850000D01*
X121251093Y-77790000D02*
X121251093Y-78079000D01*
X108137868Y-78850000D02*
X111182900Y-78850000D01*
X112480702Y-78900000D02*
X116862900Y-78900000D01*
X88525736Y-77650000D02*
X102837868Y-77650000D01*
X121251093Y-77643341D02*
X121251093Y-77790000D01*
X89086073Y-71750000D02*
X88886074Y-71949999D01*
X111182900Y-78850000D02*
X111640701Y-78392199D01*
X92616965Y-71950000D02*
X92816964Y-71750001D01*
X122229093Y-77790000D02*
X122229093Y-78130100D01*
X88477869Y-71949999D02*
X87740000Y-72687868D01*
X127874261Y-75500001D02*
X128550001Y-75500001D01*
X121102193Y-77592241D02*
X121199993Y-77592241D01*
X89286073Y-71950000D02*
X92616965Y-71950000D01*
X122029093Y-77790000D02*
X122029093Y-77643341D01*
X123155993Y-78079000D02*
X125295262Y-78079000D01*
X87740000Y-76864264D02*
X88525736Y-77650000D01*
X123007093Y-78225650D02*
X123007093Y-78130100D01*
X120273093Y-78130100D02*
X120273093Y-78225659D01*
X89086073Y-71750000D02*
X89286073Y-71950000D01*
X87740000Y-72687868D02*
X87740000Y-76864264D01*
X121051093Y-78225659D02*
X121051093Y-78130100D01*
X121051093Y-77790000D02*
X121051093Y-77643341D01*
X102837868Y-77650000D02*
X103437868Y-78250000D01*
X126364465Y-77009797D02*
X127874261Y-75500001D01*
X120613193Y-78565759D02*
X120710993Y-78565759D01*
X122080193Y-77592241D02*
X122177993Y-77592241D01*
X116862900Y-78900000D02*
X117683900Y-78079000D01*
X125295262Y-78079000D02*
X126364465Y-77009797D01*
X121051093Y-78130100D02*
X121051093Y-77790000D01*
X88886074Y-71949999D02*
X88477869Y-71949999D01*
X103437868Y-78250000D02*
X107537868Y-78250000D01*
X122229093Y-77643341D02*
X122229093Y-77790000D01*
X111972901Y-78392199D02*
X112480702Y-78900000D01*
X122229093Y-78130100D02*
X122229093Y-78225650D01*
X117683900Y-78079000D02*
X120221993Y-78079000D01*
X121199993Y-77592241D02*
G75*
G02*
X121251059Y-77643341I7J-51059D01*
G01*
X121251093Y-78225659D02*
G75*
G03*
X121591193Y-78565807I340107J-41D01*
G01*
X121688993Y-78565759D02*
G75*
G03*
X122029059Y-78225659I7J340059D01*
G01*
X120273093Y-78225659D02*
G75*
G03*
X120613193Y-78565807I340107J-41D01*
G01*
X122029093Y-77643341D02*
G75*
G02*
X122080193Y-77592193I51107J41D01*
G01*
X122177993Y-77592241D02*
G75*
G02*
X122229059Y-77643341I7J-51059D01*
G01*
X122229093Y-78225650D02*
G75*
G03*
X122569193Y-78565707I340107J50D01*
G01*
X121051093Y-77643341D02*
G75*
G02*
X121102193Y-77592193I51107J41D01*
G01*
X120221993Y-78079000D02*
G75*
G02*
X120273100Y-78130100I7J-51100D01*
G01*
X120710993Y-78565759D02*
G75*
G03*
X121051059Y-78225659I7J340059D01*
G01*
X122666993Y-78565750D02*
G75*
G03*
X123007150Y-78225650I7J340150D01*
G01*
X123007093Y-78130100D02*
G75*
G02*
X123058193Y-78078993I51107J0D01*
G01*
%TD*%
M02*
