%TF.GenerationSoftware,KiCad,Pcbnew,9.0.6*%
%TF.CreationDate,2025-12-28T22:26:22+01:00*%
%TF.ProjectId,VoxSense,566f7853-656e-4736-952e-6b696361645f,1.0*%
%TF.SameCoordinates,Original*%
%TF.FileFunction,Legend,Bot*%
%TF.FilePolarity,Positive*%
%FSLAX46Y46*%
G04 Gerber Fmt 4.6, Leading zero omitted, Abs format (unit mm)*
G04 Created by KiCad (PCBNEW 9.0.6) date 2025-12-28 22:26:22*
%MOMM*%
%LPD*%
G01*
G04 APERTURE LIST*
%ADD10C,0.175000*%
%ADD11C,0.508000*%
G04 APERTURE END LIST*
D10*
G36*
X92075414Y-80058500D02*
G01*
X91771771Y-80058500D01*
X91719045Y-80054566D01*
X91672836Y-80043297D01*
X91632075Y-80025145D01*
X91595922Y-80000085D01*
X91563820Y-79967620D01*
X91535533Y-79926810D01*
X91511650Y-79877318D01*
X91494022Y-79821712D01*
X91482974Y-79759085D01*
X91479657Y-79698351D01*
X91628797Y-79698351D01*
X91631523Y-79750590D01*
X91639210Y-79795533D01*
X91651280Y-79834187D01*
X91671254Y-79873142D01*
X91695330Y-79901695D01*
X91723617Y-79921645D01*
X91756923Y-79933853D01*
X91796647Y-79938137D01*
X91932440Y-79938137D01*
X91932440Y-79473098D01*
X91796647Y-79473098D01*
X91746411Y-79477512D01*
X91709197Y-79489336D01*
X91681928Y-79507292D01*
X91662521Y-79531356D01*
X91645038Y-79571743D01*
X91633229Y-79626153D01*
X91628797Y-79698351D01*
X91479657Y-79698351D01*
X91479113Y-79688392D01*
X91482368Y-79632291D01*
X91492534Y-79571577D01*
X91504020Y-79531768D01*
X91520680Y-79493869D01*
X91542714Y-79457583D01*
X91576715Y-79418457D01*
X91616446Y-79388861D01*
X91662735Y-79368037D01*
X91709181Y-79357401D01*
X91771771Y-79352735D01*
X92075414Y-79352735D01*
X92075414Y-80058500D01*
G37*
G36*
X91227252Y-79527115D02*
G01*
X91274014Y-79540842D01*
X91315217Y-79563183D01*
X91351783Y-79594572D01*
X91380481Y-79632417D01*
X91401824Y-79678440D01*
X91415481Y-79734325D01*
X91420385Y-79802215D01*
X91416737Y-79861650D01*
X91406607Y-79910647D01*
X91390922Y-79950936D01*
X91370166Y-79983959D01*
X91344346Y-80010799D01*
X91304551Y-80039031D01*
X91262452Y-80058884D01*
X91217468Y-80070844D01*
X91168845Y-80074913D01*
X91120547Y-80071565D01*
X91078541Y-80062021D01*
X91041843Y-80046766D01*
X91009656Y-80025907D01*
X90981420Y-79999173D01*
X90955730Y-79965690D01*
X90940216Y-79934656D01*
X90933121Y-79905310D01*
X91072290Y-79905310D01*
X91084577Y-79926549D01*
X91097636Y-79941428D01*
X91116426Y-79954547D01*
X91138874Y-79962636D01*
X91165982Y-79965492D01*
X91191822Y-79963162D01*
X91214243Y-79956480D01*
X91233900Y-79945617D01*
X91253380Y-79927863D01*
X91268222Y-79904353D01*
X91278394Y-79873755D01*
X91283139Y-79834187D01*
X90926410Y-79834187D01*
X90927195Y-79770809D01*
X90929584Y-79743915D01*
X91067973Y-79743915D01*
X91279805Y-79743915D01*
X91272766Y-79711254D01*
X91261738Y-79684993D01*
X91247064Y-79663986D01*
X91227880Y-79647938D01*
X91203888Y-79638033D01*
X91173633Y-79634494D01*
X91145736Y-79637696D01*
X91121727Y-79646947D01*
X91100714Y-79662319D01*
X91084624Y-79682681D01*
X91073543Y-79709301D01*
X91067973Y-79743915D01*
X90929584Y-79743915D01*
X90930727Y-79731049D01*
X90939398Y-79691195D01*
X90952672Y-79655560D01*
X90970435Y-79623595D01*
X90995526Y-79591227D01*
X91024112Y-79565828D01*
X91056518Y-79546701D01*
X91091996Y-79533366D01*
X91130839Y-79525165D01*
X91173633Y-79522338D01*
X91227252Y-79527115D01*
G37*
G36*
X90728726Y-79886162D02*
G01*
X90721197Y-79919332D01*
X90710090Y-79938094D01*
X90691078Y-79952032D01*
X90661286Y-79961699D01*
X90616356Y-79965492D01*
X90578574Y-79962162D01*
X90552541Y-79953524D01*
X90539062Y-79943884D01*
X90531456Y-79932153D01*
X90528862Y-79917620D01*
X90533662Y-79897371D01*
X90547968Y-79882700D01*
X90579727Y-79870534D01*
X90690001Y-79842265D01*
X90748484Y-79824791D01*
X90788608Y-79806599D01*
X90814809Y-79788239D01*
X90834478Y-79764596D01*
X90846729Y-79734456D01*
X90851140Y-79695829D01*
X90847619Y-79661580D01*
X90837239Y-79630223D01*
X90819805Y-79601025D01*
X90794507Y-79573500D01*
X90764957Y-79552069D01*
X90729384Y-79536142D01*
X90686581Y-79525976D01*
X90635034Y-79522338D01*
X90570971Y-79527115D01*
X90518714Y-79540377D01*
X90476075Y-79561062D01*
X90449608Y-79582848D01*
X90429011Y-79611378D01*
X90414101Y-79647992D01*
X90405507Y-79694675D01*
X90541770Y-79694675D01*
X90547205Y-79670643D01*
X90556602Y-79653643D01*
X90573609Y-79639290D01*
X90598198Y-79629856D01*
X90633111Y-79626287D01*
X90673866Y-79630324D01*
X90696455Y-79639965D01*
X90710925Y-79655294D01*
X90715348Y-79671936D01*
X90713045Y-79686106D01*
X90706489Y-79696973D01*
X90695259Y-79705361D01*
X90662843Y-79716482D01*
X90553268Y-79742333D01*
X90500377Y-79758262D01*
X90460581Y-79777664D01*
X90431324Y-79799950D01*
X90409050Y-79828335D01*
X90395740Y-79860765D01*
X90391146Y-79898514D01*
X90394870Y-79936245D01*
X90405649Y-79969429D01*
X90423411Y-79999016D01*
X90448763Y-80025631D01*
X90478463Y-80045624D01*
X90516670Y-80061024D01*
X90565358Y-80071183D01*
X90626913Y-80074913D01*
X90689446Y-80070918D01*
X90738989Y-80060016D01*
X90777978Y-80043422D01*
X90808398Y-80021741D01*
X90834086Y-79993216D01*
X90852162Y-79961593D01*
X90863157Y-79926226D01*
X90866955Y-79886162D01*
X90728726Y-79886162D01*
G37*
G36*
X90150420Y-79473098D02*
G01*
X90288606Y-79473098D01*
X90288606Y-79350000D01*
X90150420Y-79350000D01*
X90150420Y-79473098D01*
G37*
G36*
X90288606Y-79536015D02*
G01*
X90150420Y-79536015D01*
X90150420Y-80058500D01*
X90288606Y-80058500D01*
X90288606Y-79536015D01*
G37*
G36*
X89870365Y-79525742D02*
G01*
X89906868Y-79535501D01*
X89938974Y-79551277D01*
X89967388Y-79573215D01*
X89992529Y-79601924D01*
X90017275Y-79642857D01*
X90035296Y-79688650D01*
X90046499Y-79740124D01*
X90050403Y-79798283D01*
X90046194Y-79858918D01*
X90034349Y-79910150D01*
X90015663Y-79953536D01*
X89990392Y-79990325D01*
X89957975Y-80021261D01*
X89921097Y-80043141D01*
X89878863Y-80056558D01*
X89829937Y-80061235D01*
X89787560Y-80057529D01*
X89752844Y-80047168D01*
X89724277Y-80030760D01*
X89703380Y-80011221D01*
X89682176Y-79981478D01*
X89682176Y-80014517D01*
X89684492Y-80064076D01*
X89690351Y-80097630D01*
X89698418Y-80119322D01*
X89713129Y-80139811D01*
X89733435Y-80154727D01*
X89760656Y-80164362D01*
X89796939Y-80167920D01*
X89831462Y-80165412D01*
X89855233Y-80158955D01*
X89871098Y-80149669D01*
X89881743Y-80136918D01*
X89889733Y-80115945D01*
X90037964Y-80115945D01*
X90030837Y-80153190D01*
X90016928Y-80184388D01*
X89996286Y-80210695D01*
X89968166Y-80232761D01*
X89924391Y-80253643D01*
X89870764Y-80267042D01*
X89805061Y-80271870D01*
X89736422Y-80267463D01*
X89682160Y-80255442D01*
X89639573Y-80237157D01*
X89606460Y-80213279D01*
X89581261Y-80183735D01*
X89563707Y-80147790D01*
X89551814Y-80098313D01*
X89547323Y-80031358D01*
X89547323Y-79796146D01*
X89680765Y-79796146D01*
X89685131Y-79848503D01*
X89696636Y-79886067D01*
X89713763Y-79912534D01*
X89737701Y-79933027D01*
X89764292Y-79945007D01*
X89794546Y-79949079D01*
X89828310Y-79944722D01*
X89855212Y-79932418D01*
X89876901Y-79912127D01*
X89894008Y-79882272D01*
X89905325Y-79844764D01*
X89909310Y-79800506D01*
X89905422Y-79749682D01*
X89894948Y-79710960D01*
X89877993Y-79680355D01*
X89856424Y-79659646D01*
X89829648Y-79647129D01*
X89795999Y-79642700D01*
X89762805Y-79647197D01*
X89735303Y-79660134D01*
X89712096Y-79681895D01*
X89695626Y-79709772D01*
X89684789Y-79746956D01*
X89680765Y-79796146D01*
X89547323Y-79796146D01*
X89547323Y-79536015D01*
X89679782Y-79536015D01*
X89679782Y-79611114D01*
X89703108Y-79576865D01*
X89729786Y-79551750D01*
X89760138Y-79534476D01*
X89790869Y-79525542D01*
X89828526Y-79522338D01*
X89870365Y-79525742D01*
G37*
G36*
X89131140Y-79522338D02*
G01*
X89078729Y-79527363D01*
X89035269Y-79541542D01*
X88998937Y-79564311D01*
X88977745Y-79586965D01*
X88961791Y-79616704D01*
X88951356Y-79655267D01*
X88947518Y-79704976D01*
X88947518Y-80058500D01*
X89087158Y-80058500D01*
X89087158Y-79738700D01*
X89090294Y-79699861D01*
X89098142Y-79675014D01*
X89110088Y-79657674D01*
X89126133Y-79645264D01*
X89147147Y-79637375D01*
X89174651Y-79634494D01*
X89207676Y-79638482D01*
X89233568Y-79649618D01*
X89254020Y-79667686D01*
X89269796Y-79693821D01*
X89279510Y-79727666D01*
X89283175Y-79773920D01*
X89283175Y-80058500D01*
X89419010Y-80058500D01*
X89419010Y-79536015D01*
X89287492Y-79536015D01*
X89287492Y-79610943D01*
X89260312Y-79574882D01*
X89237782Y-79553625D01*
X89208256Y-79536683D01*
X89173156Y-79526091D01*
X89131140Y-79522338D01*
G37*
G36*
X88669541Y-79527115D02*
G01*
X88716303Y-79540842D01*
X88757506Y-79563183D01*
X88794072Y-79594572D01*
X88822770Y-79632417D01*
X88844113Y-79678440D01*
X88857770Y-79734325D01*
X88862674Y-79802215D01*
X88859026Y-79861650D01*
X88848896Y-79910647D01*
X88833211Y-79950936D01*
X88812455Y-79983959D01*
X88786635Y-80010799D01*
X88746840Y-80039031D01*
X88704741Y-80058884D01*
X88659757Y-80070844D01*
X88611134Y-80074913D01*
X88562836Y-80071565D01*
X88520830Y-80062021D01*
X88484132Y-80046766D01*
X88451945Y-80025907D01*
X88423709Y-79999173D01*
X88398019Y-79965690D01*
X88382505Y-79934656D01*
X88375409Y-79905310D01*
X88514579Y-79905310D01*
X88526866Y-79926549D01*
X88539925Y-79941428D01*
X88558715Y-79954547D01*
X88581163Y-79962636D01*
X88608271Y-79965492D01*
X88634111Y-79963162D01*
X88656532Y-79956480D01*
X88676188Y-79945617D01*
X88695669Y-79927863D01*
X88710511Y-79904353D01*
X88720682Y-79873755D01*
X88725428Y-79834187D01*
X88368699Y-79834187D01*
X88369484Y-79770809D01*
X88371873Y-79743915D01*
X88510262Y-79743915D01*
X88722094Y-79743915D01*
X88715055Y-79711254D01*
X88704027Y-79684993D01*
X88689353Y-79663986D01*
X88670169Y-79647938D01*
X88646177Y-79638033D01*
X88615922Y-79634494D01*
X88588025Y-79637696D01*
X88564016Y-79646947D01*
X88543003Y-79662319D01*
X88526913Y-79682681D01*
X88515832Y-79709301D01*
X88510262Y-79743915D01*
X88371873Y-79743915D01*
X88373016Y-79731049D01*
X88381687Y-79691195D01*
X88394961Y-79655560D01*
X88412724Y-79623595D01*
X88437815Y-79591227D01*
X88466401Y-79565828D01*
X88498807Y-79546701D01*
X88534285Y-79533366D01*
X88573128Y-79525165D01*
X88615922Y-79522338D01*
X88669541Y-79527115D01*
G37*
G36*
X87941017Y-79601625D02*
G01*
X87967555Y-79568337D01*
X88000814Y-79543367D01*
X88026095Y-79531831D01*
X88053953Y-79524772D01*
X88084931Y-79522338D01*
X88134754Y-79527352D01*
X88177901Y-79541784D01*
X88215764Y-79565469D01*
X88249234Y-79599231D01*
X88274881Y-79638841D01*
X88294037Y-79686164D01*
X88306280Y-79742673D01*
X88310655Y-79810166D01*
X88306417Y-79867907D01*
X88294320Y-79918129D01*
X88274919Y-79962061D01*
X88248251Y-80000669D01*
X88214409Y-80033811D01*
X88178005Y-80056644D01*
X88138382Y-80070269D01*
X88094506Y-80074913D01*
X88058010Y-80072402D01*
X88027425Y-80065365D01*
X88001755Y-80054311D01*
X87978652Y-80038540D01*
X87956530Y-80016864D01*
X87935290Y-79988316D01*
X87935290Y-80058500D01*
X87802831Y-80058500D01*
X87802831Y-79806362D01*
X87937213Y-79806362D01*
X87940899Y-79851660D01*
X87951178Y-79888750D01*
X87967347Y-79919202D01*
X87984098Y-79938216D01*
X88003885Y-79951608D01*
X88027297Y-79959853D01*
X88055311Y-79962756D01*
X88083334Y-79959814D01*
X88106431Y-79951497D01*
X88125660Y-79938038D01*
X88141651Y-79918945D01*
X88156737Y-79888435D01*
X88166516Y-79850085D01*
X88170075Y-79802002D01*
X88166698Y-79757544D01*
X88157188Y-79720114D01*
X88142121Y-79688478D01*
X88126223Y-79668532D01*
X88106829Y-79654484D01*
X88083267Y-79645788D01*
X88054371Y-79642700D01*
X88029160Y-79645530D01*
X88006420Y-79653852D01*
X87985512Y-79667876D01*
X87965694Y-79690176D01*
X87950688Y-79719454D01*
X87940839Y-79757432D01*
X87937213Y-79806362D01*
X87802831Y-79806362D01*
X87802831Y-79355471D01*
X87941017Y-79355471D01*
X87941017Y-79601625D01*
G37*
G36*
X87411395Y-80058500D02*
G01*
X87277996Y-80058500D01*
X87277996Y-79994813D01*
X87249937Y-80029461D01*
X87227303Y-80048840D01*
X87199971Y-80062724D01*
X87165916Y-80071671D01*
X87123524Y-80074913D01*
X87083230Y-80071509D01*
X87047835Y-80061717D01*
X87016449Y-80045797D01*
X86988417Y-80023517D01*
X86963368Y-79994172D01*
X86939008Y-79952759D01*
X86921113Y-79905696D01*
X86909898Y-79852035D01*
X86906942Y-79805891D01*
X87048939Y-79805891D01*
X87052548Y-79852043D01*
X87062544Y-79889360D01*
X87078132Y-79919544D01*
X87100357Y-79943697D01*
X87127090Y-79957851D01*
X87159856Y-79962756D01*
X87189359Y-79959732D01*
X87213586Y-79951209D01*
X87233656Y-79937475D01*
X87250256Y-79918090D01*
X87266219Y-79886990D01*
X87276292Y-79849872D01*
X87279877Y-79805378D01*
X87275907Y-79750524D01*
X87265515Y-79711174D01*
X87248312Y-79680628D01*
X87226238Y-79659836D01*
X87198621Y-79647192D01*
X87163702Y-79642700D01*
X87129402Y-79647238D01*
X87102196Y-79660056D01*
X87080362Y-79681260D01*
X87063300Y-79712627D01*
X87052869Y-79752261D01*
X87048939Y-79805891D01*
X86906942Y-79805891D01*
X86905965Y-79790632D01*
X86909967Y-79731477D01*
X86921338Y-79680323D01*
X86939444Y-79635924D01*
X86964095Y-79597265D01*
X86995840Y-79564560D01*
X87032495Y-79541475D01*
X87075035Y-79527299D01*
X87124978Y-79522338D01*
X87162239Y-79525278D01*
X87193090Y-79533508D01*
X87218712Y-79546487D01*
X87247738Y-79569469D01*
X87275602Y-79602565D01*
X87275602Y-79355471D01*
X87411395Y-79355471D01*
X87411395Y-80058500D01*
G37*
G36*
X86787184Y-80159714D02*
G01*
X86769959Y-80161081D01*
X86731704Y-80159970D01*
X86714629Y-80155738D01*
X86701100Y-80148515D01*
X86690565Y-80137012D01*
X86678874Y-80113210D01*
X86670936Y-80088612D01*
X86670497Y-80080384D01*
X86861769Y-79536015D01*
X86710204Y-79536015D01*
X86596381Y-79921424D01*
X86488798Y-79536015D01*
X86343901Y-79536015D01*
X86522736Y-80049866D01*
X86560646Y-80151698D01*
X86586896Y-80208510D01*
X86604502Y-80235838D01*
X86620663Y-80249940D01*
X86644407Y-80261173D01*
X86678161Y-80268912D01*
X86724993Y-80271870D01*
X86754187Y-80271528D01*
X86787184Y-80269135D01*
X86787184Y-80159714D01*
G37*
G36*
X85513500Y-79352735D02*
G01*
X85301625Y-79352735D01*
X85301625Y-80058500D01*
X85438872Y-80058500D01*
X85438872Y-79581151D01*
X85438401Y-79523449D01*
X85437931Y-79466217D01*
X85571331Y-80058500D01*
X85714304Y-80058500D01*
X85846763Y-79466217D01*
X85846293Y-79523449D01*
X85845823Y-79581151D01*
X85845823Y-80058500D01*
X85983069Y-80058500D01*
X85983069Y-79352735D01*
X85768844Y-79352735D01*
X85640659Y-79907661D01*
X85513500Y-79352735D01*
G37*
G36*
X85035682Y-79473098D02*
G01*
X85173868Y-79473098D01*
X85173868Y-79350000D01*
X85035682Y-79350000D01*
X85035682Y-79473098D01*
G37*
G36*
X85173868Y-79536015D02*
G01*
X85035682Y-79536015D01*
X85035682Y-80058500D01*
X85173868Y-80058500D01*
X85173868Y-79536015D01*
G37*
G36*
X84592314Y-79719295D02*
G01*
X84599195Y-79691199D01*
X84611933Y-79666294D01*
X84629454Y-79649035D01*
X84652588Y-79638359D01*
X84683184Y-79634494D01*
X84715228Y-79638900D01*
X84740726Y-79651401D01*
X84761288Y-79672253D01*
X84777389Y-79703395D01*
X84787016Y-79743984D01*
X84790767Y-79802686D01*
X84787029Y-79858596D01*
X84777389Y-79897574D01*
X84761937Y-79926860D01*
X84742013Y-79946608D01*
X84717085Y-79958532D01*
X84685535Y-79962756D01*
X84654817Y-79959429D01*
X84632971Y-79950565D01*
X84617660Y-79936897D01*
X84601883Y-79908162D01*
X84593254Y-79869749D01*
X84454127Y-79869749D01*
X84461105Y-79909547D01*
X84475883Y-79948206D01*
X84499092Y-79986307D01*
X84526846Y-80017888D01*
X84558953Y-80042251D01*
X84595995Y-80059956D01*
X84638908Y-80071020D01*
X84688912Y-80074913D01*
X84740002Y-80071500D01*
X84782826Y-80061936D01*
X84818745Y-80046938D01*
X84848868Y-80026796D01*
X84873987Y-80001353D01*
X84898997Y-79963310D01*
X84917465Y-79918897D01*
X84929138Y-79866947D01*
X84933271Y-79806020D01*
X84928544Y-79736878D01*
X84915415Y-79680124D01*
X84895002Y-79633585D01*
X84867746Y-79595513D01*
X84832653Y-79564047D01*
X84791685Y-79541407D01*
X84743676Y-79527308D01*
X84686988Y-79522338D01*
X84637785Y-79525359D01*
X84595281Y-79533923D01*
X84558487Y-79547489D01*
X84526576Y-79565807D01*
X84500128Y-79589814D01*
X84478793Y-79622066D01*
X84462683Y-79664394D01*
X84452674Y-79719295D01*
X84592314Y-79719295D01*
G37*
G36*
X84071838Y-79522338D02*
G01*
X84025108Y-79526661D01*
X83984088Y-79539135D01*
X83959292Y-79552322D01*
X83937805Y-79569330D01*
X83919290Y-79590426D01*
X83901727Y-79620679D01*
X83893004Y-79650651D01*
X83889660Y-79686462D01*
X83888217Y-79751566D01*
X83888217Y-80058500D01*
X84027386Y-80058500D01*
X84027386Y-79739427D01*
X84031317Y-79699587D01*
X84041748Y-79671081D01*
X84057252Y-79651284D01*
X84079946Y-79639029D01*
X84112486Y-79634494D01*
X84146727Y-79638835D01*
X84173465Y-79650982D01*
X84194509Y-79670825D01*
X84209242Y-79696546D01*
X84218896Y-79730370D01*
X84222463Y-79774561D01*
X84222463Y-80058500D01*
X84358299Y-80058500D01*
X84358299Y-79355471D01*
X84222463Y-79355471D01*
X84222463Y-79602779D01*
X84200738Y-79574828D01*
X84177927Y-79554286D01*
X84153861Y-79540076D01*
X84113890Y-79526778D01*
X84071838Y-79522338D01*
G37*
G36*
X83610022Y-79525688D02*
G01*
X83654136Y-79534926D01*
X83689792Y-79549127D01*
X83718458Y-79567802D01*
X83741225Y-79590939D01*
X83760043Y-79621746D01*
X83772940Y-79658621D01*
X83779480Y-79702882D01*
X83648004Y-79702882D01*
X83640463Y-79675215D01*
X83628855Y-79655480D01*
X83613748Y-79643073D01*
X83591795Y-79634871D01*
X83560510Y-79631758D01*
X83520404Y-79635271D01*
X83495242Y-79644025D01*
X83483195Y-79654014D01*
X83475727Y-79668323D01*
X83472973Y-79688520D01*
X83476082Y-79704334D01*
X83485320Y-79717076D01*
X83502124Y-79727502D01*
X83521209Y-79733536D01*
X83556193Y-79739555D01*
X83602568Y-79745325D01*
X83655060Y-79754486D01*
X83693993Y-79765955D01*
X83722119Y-79779006D01*
X83748727Y-79798396D01*
X83769055Y-79821474D01*
X83783766Y-79848672D01*
X83792975Y-79880812D01*
X83796235Y-79919031D01*
X83793060Y-79955832D01*
X83784110Y-79986595D01*
X83769834Y-80012466D01*
X83750116Y-80034265D01*
X83717296Y-80056501D01*
X83678824Y-80070132D01*
X83633172Y-80074913D01*
X83596869Y-80072008D01*
X83563917Y-80063547D01*
X83533710Y-80049652D01*
X83498924Y-80025892D01*
X83468656Y-79997762D01*
X83464852Y-80029093D01*
X83456261Y-80058500D01*
X83307987Y-80058500D01*
X83307987Y-80042086D01*
X83320003Y-80034456D01*
X83328119Y-80025545D01*
X83333011Y-80013067D01*
X83336240Y-79987376D01*
X83337180Y-79926596D01*
X83337180Y-79854703D01*
X83473443Y-79854703D01*
X83476937Y-79889583D01*
X83484942Y-79915979D01*
X83496668Y-79935745D01*
X83511954Y-79950233D01*
X83537656Y-79964890D01*
X83564491Y-79973533D01*
X83592994Y-79976434D01*
X83618953Y-79972385D01*
X83640096Y-79960662D01*
X83650376Y-79948774D01*
X83656996Y-79932248D01*
X83659459Y-79909499D01*
X83655781Y-79884780D01*
X83645387Y-79865685D01*
X83627915Y-79850814D01*
X83605950Y-79841376D01*
X83566237Y-79831879D01*
X83535634Y-79826066D01*
X83499516Y-79816620D01*
X83473443Y-79803284D01*
X83473443Y-79854703D01*
X83337180Y-79854703D01*
X83337180Y-79685528D01*
X83341936Y-79639058D01*
X83354937Y-79603588D01*
X83375315Y-79576555D01*
X83403645Y-79556446D01*
X83449089Y-79537808D01*
X83499461Y-79526316D01*
X83555680Y-79522338D01*
X83610022Y-79525688D01*
G37*
G36*
X83077306Y-80058500D02*
G01*
X83213612Y-80058500D01*
X83213612Y-79355471D01*
X83077306Y-79355471D01*
X83077306Y-80058500D01*
G37*
G36*
X82248443Y-79352735D02*
G01*
X82095425Y-79352735D01*
X82335937Y-80058500D01*
X82475107Y-80058500D01*
X82713225Y-79352735D01*
X82555890Y-79352735D01*
X82402872Y-79888513D01*
X82248443Y-79352735D01*
G37*
G36*
X81921523Y-79525688D02*
G01*
X81965637Y-79534926D01*
X82001292Y-79549127D01*
X82029958Y-79567802D01*
X82052725Y-79590939D01*
X82071544Y-79621746D01*
X82084440Y-79658621D01*
X82090980Y-79702882D01*
X81959504Y-79702882D01*
X81951963Y-79675215D01*
X81940355Y-79655480D01*
X81925248Y-79643073D01*
X81903295Y-79634871D01*
X81872010Y-79631758D01*
X81831905Y-79635271D01*
X81806742Y-79644025D01*
X81794695Y-79654014D01*
X81787227Y-79668323D01*
X81784474Y-79688520D01*
X81787582Y-79704334D01*
X81796821Y-79717076D01*
X81813624Y-79727502D01*
X81832709Y-79733536D01*
X81867693Y-79739555D01*
X81914069Y-79745325D01*
X81966560Y-79754486D01*
X82005493Y-79765955D01*
X82033620Y-79779006D01*
X82060228Y-79798396D01*
X82080555Y-79821474D01*
X82095266Y-79848672D01*
X82104476Y-79880812D01*
X82107735Y-79919031D01*
X82104560Y-79955832D01*
X82095610Y-79986595D01*
X82081335Y-80012466D01*
X82061616Y-80034265D01*
X82028796Y-80056501D01*
X81990324Y-80070132D01*
X81944672Y-80074913D01*
X81908369Y-80072008D01*
X81875417Y-80063547D01*
X81845211Y-80049652D01*
X81810424Y-80025892D01*
X81780157Y-79997762D01*
X81776352Y-80029093D01*
X81767761Y-80058500D01*
X81619487Y-80058500D01*
X81619487Y-80042086D01*
X81631504Y-80034456D01*
X81639619Y-80025545D01*
X81644511Y-80013067D01*
X81647740Y-79987376D01*
X81648681Y-79926596D01*
X81648681Y-79854703D01*
X81784944Y-79854703D01*
X81788438Y-79889583D01*
X81796443Y-79915979D01*
X81808169Y-79935745D01*
X81823455Y-79950233D01*
X81849157Y-79964890D01*
X81875992Y-79973533D01*
X81904494Y-79976434D01*
X81930454Y-79972385D01*
X81951597Y-79960662D01*
X81961877Y-79948774D01*
X81968496Y-79932248D01*
X81970959Y-79909499D01*
X81967281Y-79884780D01*
X81956887Y-79865685D01*
X81939415Y-79850814D01*
X81917450Y-79841376D01*
X81877738Y-79831879D01*
X81847134Y-79826066D01*
X81811017Y-79816620D01*
X81784944Y-79803284D01*
X81784944Y-79854703D01*
X81648681Y-79854703D01*
X81648681Y-79685528D01*
X81653436Y-79639058D01*
X81666438Y-79603588D01*
X81686816Y-79576555D01*
X81715145Y-79556446D01*
X81760589Y-79537808D01*
X81810962Y-79526316D01*
X81867180Y-79522338D01*
X81921523Y-79525688D01*
G37*
G36*
X81244892Y-79522338D02*
G01*
X81238481Y-79522338D01*
X81226727Y-79522338D01*
X81226727Y-79661849D01*
X81249679Y-79661849D01*
X81265922Y-79661849D01*
X81306507Y-79665787D01*
X81337018Y-79676453D01*
X81359827Y-79692952D01*
X81376411Y-79715576D01*
X81384409Y-79736478D01*
X81390021Y-79766569D01*
X81392183Y-79808627D01*
X81392183Y-80058500D01*
X81529429Y-80058500D01*
X81529429Y-79536015D01*
X81399364Y-79536015D01*
X81399364Y-79626928D01*
X81367335Y-79579261D01*
X81344354Y-79554779D01*
X81317198Y-79537183D01*
X81284525Y-79526227D01*
X81244892Y-79522338D01*
G37*
G36*
X81040882Y-79886162D02*
G01*
X81033353Y-79919332D01*
X81022247Y-79938094D01*
X81003235Y-79952032D01*
X80973442Y-79961699D01*
X80928512Y-79965492D01*
X80890730Y-79962162D01*
X80864698Y-79953524D01*
X80851218Y-79943884D01*
X80843612Y-79932153D01*
X80841018Y-79917620D01*
X80845818Y-79897371D01*
X80860124Y-79882700D01*
X80891883Y-79870534D01*
X81002158Y-79842265D01*
X81060640Y-79824791D01*
X81100765Y-79806599D01*
X81126966Y-79788239D01*
X81146634Y-79764596D01*
X81158885Y-79734456D01*
X81163297Y-79695829D01*
X81159775Y-79661580D01*
X81149396Y-79630223D01*
X81131962Y-79601025D01*
X81106663Y-79573500D01*
X81077114Y-79552069D01*
X81041540Y-79536142D01*
X80998737Y-79525976D01*
X80947191Y-79522338D01*
X80883127Y-79527115D01*
X80830871Y-79540377D01*
X80788231Y-79561062D01*
X80761765Y-79582848D01*
X80741168Y-79611378D01*
X80726258Y-79647992D01*
X80717663Y-79694675D01*
X80853927Y-79694675D01*
X80859361Y-79670643D01*
X80868758Y-79653643D01*
X80885765Y-79639290D01*
X80910354Y-79629856D01*
X80945267Y-79626287D01*
X80986023Y-79630324D01*
X81008612Y-79639965D01*
X81023081Y-79655294D01*
X81027504Y-79671936D01*
X81025201Y-79686106D01*
X81018646Y-79696973D01*
X81007415Y-79705361D01*
X80974999Y-79716482D01*
X80865424Y-79742333D01*
X80812533Y-79758262D01*
X80772738Y-79777664D01*
X80743480Y-79799950D01*
X80721207Y-79828335D01*
X80707896Y-79860765D01*
X80703302Y-79898514D01*
X80707026Y-79936245D01*
X80717806Y-79969429D01*
X80735567Y-79999016D01*
X80760919Y-80025631D01*
X80790620Y-80045624D01*
X80828826Y-80061024D01*
X80877514Y-80071183D01*
X80939070Y-80074913D01*
X81001602Y-80070918D01*
X81051146Y-80060016D01*
X81090135Y-80043422D01*
X81120554Y-80021741D01*
X81146243Y-79993216D01*
X81164319Y-79961593D01*
X81175313Y-79926226D01*
X81179112Y-79886162D01*
X81040882Y-79886162D01*
G37*
G36*
X80451865Y-79525688D02*
G01*
X80495978Y-79534926D01*
X80531634Y-79549127D01*
X80560300Y-79567802D01*
X80583067Y-79590939D01*
X80601886Y-79621746D01*
X80614782Y-79658621D01*
X80621322Y-79702882D01*
X80489846Y-79702882D01*
X80482305Y-79675215D01*
X80470697Y-79655480D01*
X80455590Y-79643073D01*
X80433637Y-79634871D01*
X80402352Y-79631758D01*
X80362247Y-79635271D01*
X80337084Y-79644025D01*
X80325037Y-79654014D01*
X80317569Y-79668323D01*
X80314815Y-79688520D01*
X80317924Y-79704334D01*
X80327163Y-79717076D01*
X80343966Y-79727502D01*
X80363051Y-79733536D01*
X80398035Y-79739555D01*
X80444411Y-79745325D01*
X80496902Y-79754486D01*
X80535835Y-79765955D01*
X80563961Y-79779006D01*
X80590570Y-79798396D01*
X80610897Y-79821474D01*
X80625608Y-79848672D01*
X80634818Y-79880812D01*
X80638077Y-79919031D01*
X80634902Y-79955832D01*
X80625952Y-79986595D01*
X80611677Y-80012466D01*
X80591958Y-80034265D01*
X80559138Y-80056501D01*
X80520666Y-80070132D01*
X80475014Y-80074913D01*
X80438711Y-80072008D01*
X80405759Y-80063547D01*
X80375553Y-80049652D01*
X80340766Y-80025892D01*
X80310498Y-79997762D01*
X80306694Y-80029093D01*
X80298103Y-80058500D01*
X80149829Y-80058500D01*
X80149829Y-80042086D01*
X80161845Y-80034456D01*
X80169961Y-80025545D01*
X80174853Y-80013067D01*
X80178082Y-79987376D01*
X80179023Y-79926596D01*
X80179023Y-79854703D01*
X80315286Y-79854703D01*
X80318780Y-79889583D01*
X80326785Y-79915979D01*
X80338511Y-79935745D01*
X80353797Y-79950233D01*
X80379499Y-79964890D01*
X80406334Y-79973533D01*
X80434836Y-79976434D01*
X80460796Y-79972385D01*
X80481939Y-79960662D01*
X80492219Y-79948774D01*
X80498838Y-79932248D01*
X80501301Y-79909499D01*
X80497623Y-79884780D01*
X80487229Y-79865685D01*
X80469757Y-79850814D01*
X80447792Y-79841376D01*
X80408080Y-79831879D01*
X80377476Y-79826066D01*
X80341359Y-79816620D01*
X80315286Y-79803284D01*
X80315286Y-79854703D01*
X80179023Y-79854703D01*
X80179023Y-79685528D01*
X80183778Y-79639058D01*
X80196780Y-79603588D01*
X80217157Y-79576555D01*
X80245487Y-79556446D01*
X80290931Y-79537808D01*
X80341304Y-79526316D01*
X80397522Y-79522338D01*
X80451865Y-79525688D01*
G37*
G36*
X79769507Y-79522338D02*
G01*
X79717096Y-79527363D01*
X79673636Y-79541542D01*
X79637304Y-79564311D01*
X79616112Y-79586965D01*
X79600158Y-79616704D01*
X79589723Y-79655267D01*
X79585885Y-79704976D01*
X79585885Y-80058500D01*
X79725525Y-80058500D01*
X79725525Y-79738700D01*
X79728661Y-79699861D01*
X79736509Y-79675014D01*
X79748455Y-79657674D01*
X79764500Y-79645264D01*
X79785514Y-79637375D01*
X79813019Y-79634494D01*
X79846043Y-79638482D01*
X79871935Y-79649618D01*
X79892387Y-79667686D01*
X79908163Y-79693821D01*
X79917877Y-79727666D01*
X79921542Y-79773920D01*
X79921542Y-80058500D01*
X80057377Y-80058500D01*
X80057377Y-79536015D01*
X79925859Y-79536015D01*
X79925859Y-79610943D01*
X79898679Y-79574882D01*
X79876149Y-79553625D01*
X79846623Y-79536683D01*
X79811523Y-79526091D01*
X79769507Y-79522338D01*
G37*
G36*
X79438893Y-80159714D02*
G01*
X79421668Y-80161081D01*
X79383414Y-80159970D01*
X79366338Y-80155738D01*
X79352810Y-80148515D01*
X79342275Y-80137012D01*
X79330584Y-80113210D01*
X79322645Y-80088612D01*
X79322206Y-80080384D01*
X79513479Y-79536015D01*
X79361914Y-79536015D01*
X79248091Y-79921424D01*
X79140508Y-79536015D01*
X78995611Y-79536015D01*
X79174446Y-80049866D01*
X79212356Y-80151698D01*
X79238606Y-80208510D01*
X79256212Y-80235838D01*
X79272373Y-80249940D01*
X79296117Y-80261173D01*
X79329871Y-80268912D01*
X79376703Y-80271870D01*
X79405896Y-80271528D01*
X79438893Y-80269135D01*
X79438893Y-80159714D01*
G37*
G36*
X78775444Y-79473098D02*
G01*
X78913631Y-79473098D01*
X78913631Y-79350000D01*
X78775444Y-79350000D01*
X78775444Y-79473098D01*
G37*
G36*
X78913631Y-79536015D02*
G01*
X78775444Y-79536015D01*
X78775444Y-80058500D01*
X78913631Y-80058500D01*
X78913631Y-79536015D01*
G37*
D11*
%TO.C,J501*%
X79916101Y-68409900D02*
G75*
G02*
X79154101Y-68409900I-381000J0D01*
G01*
X79154101Y-68409900D02*
G75*
G02*
X79916101Y-68409900I381000J0D01*
G01*
%TO.C,J502*%
X139728000Y-77299900D02*
G75*
G02*
X138966000Y-77299900I-381000J0D01*
G01*
X138966000Y-77299900D02*
G75*
G02*
X139728000Y-77299900I381000J0D01*
G01*
%TD*%
M02*
