%TF.GenerationSoftware,KiCad,Pcbnew,9.0.6*%
%TF.CreationDate,2025-12-30T15:38:49+01:00*%
%TF.ProjectId,VoxSense,566f7853-656e-4736-952e-6b696361645f,1.0*%
%TF.SameCoordinates,Original*%
%TF.FileFunction,Soldermask,Top*%
%TF.FilePolarity,Negative*%
%FSLAX46Y46*%
G04 Gerber Fmt 4.6, Leading zero omitted, Abs format (unit mm)*
G04 Created by KiCad (PCBNEW 9.0.6) date 2025-12-30 15:38:49*
%MOMM*%
%LPD*%
G01*
G04 APERTURE LIST*
G04 Aperture macros list*
%AMRoundRect*
0 Rectangle with rounded corners*
0 $1 Rounding radius*
0 $2 $3 $4 $5 $6 $7 $8 $9 X,Y pos of 4 corners*
0 Add a 4 corners polygon primitive as box body*
4,1,4,$2,$3,$4,$5,$6,$7,$8,$9,$2,$3,0*
0 Add four circle primitives for the rounded corners*
1,1,$1+$1,$2,$3*
1,1,$1+$1,$4,$5*
1,1,$1+$1,$6,$7*
1,1,$1+$1,$8,$9*
0 Add four rect primitives between the rounded corners*
20,1,$1+$1,$2,$3,$4,$5,0*
20,1,$1+$1,$4,$5,$6,$7,0*
20,1,$1+$1,$6,$7,$8,$9,0*
20,1,$1+$1,$8,$9,$2,$3,0*%
%AMFreePoly0*
4,1,6,0.180000,0.075000,0.000000,-0.105000,-0.180000,-0.105000,-0.180000,0.105000,0.180000,0.105000,0.180000,0.075000,0.180000,0.075000,$1*%
%AMFreePoly1*
4,1,6,0.180000,-0.075000,0.180000,-0.105000,-0.180000,-0.105000,-0.180000,0.105000,0.000000,0.105000,0.180000,-0.075000,0.180000,-0.075000,$1*%
%AMFreePoly2*
4,1,6,0.180000,-0.105000,0.000000,-0.105000,-0.180000,0.075000,-0.180000,0.105000,0.180000,0.105000,0.180000,-0.105000,0.180000,-0.105000,$1*%
%AMFreePoly3*
4,1,6,0.180000,-0.105000,-0.180000,-0.105000,-0.180000,-0.075000,0.000000,0.105000,0.180000,0.105000,0.180000,-0.105000,0.180000,-0.105000,$1*%
G04 Aperture macros list end*
%ADD10C,0.000000*%
%ADD11RoundRect,0.045000X-0.105000X0.255000X-0.105000X-0.255000X0.105000X-0.255000X0.105000X0.255000X0*%
%ADD12RoundRect,0.030000X-0.370000X-0.070000X0.370000X-0.070000X0.370000X0.070000X-0.370000X0.070000X0*%
%ADD13RoundRect,0.150000X-0.150000X0.512500X-0.150000X-0.512500X0.150000X-0.512500X0.150000X0.512500X0*%
%ADD14RoundRect,0.140000X0.140000X0.170000X-0.140000X0.170000X-0.140000X-0.170000X0.140000X-0.170000X0*%
%ADD15RoundRect,0.147500X0.147500X0.172500X-0.147500X0.172500X-0.147500X-0.172500X0.147500X-0.172500X0*%
%ADD16RoundRect,0.140000X-0.140000X-0.170000X0.140000X-0.170000X0.140000X0.170000X-0.140000X0.170000X0*%
%ADD17C,1.397000*%
%ADD18C,3.759200*%
%ADD19RoundRect,0.218750X-0.256250X0.218750X-0.256250X-0.218750X0.256250X-0.218750X0.256250X0.218750X0*%
%ADD20FreePoly0,180.000000*%
%ADD21FreePoly1,180.000000*%
%ADD22FreePoly2,180.000000*%
%ADD23FreePoly3,180.000000*%
%ADD24RoundRect,0.120000X0.000000X0.169706X-0.169706X0.000000X0.000000X-0.169706X0.169706X0.000000X0*%
%ADD25RoundRect,0.147500X0.172500X-0.147500X0.172500X0.147500X-0.172500X0.147500X-0.172500X-0.147500X0*%
%ADD26RoundRect,0.200000X0.200000X0.275000X-0.200000X0.275000X-0.200000X-0.275000X0.200000X-0.275000X0*%
%ADD27RoundRect,0.135000X-0.185000X0.135000X-0.185000X-0.135000X0.185000X-0.135000X0.185000X0.135000X0*%
%ADD28RoundRect,0.075000X-0.200000X0.075000X-0.200000X-0.075000X0.200000X-0.075000X0.200000X0.075000X0*%
%ADD29RoundRect,0.135000X0.135000X0.185000X-0.135000X0.185000X-0.135000X-0.185000X0.135000X-0.185000X0*%
%ADD30R,0.254000X0.675000*%
%ADD31R,0.675000X0.254000*%
%ADD32RoundRect,0.075000X0.200000X-0.075000X0.200000X0.075000X-0.200000X0.075000X-0.200000X-0.075000X0*%
%ADD33R,0.250000X0.450000*%
%ADD34R,0.450000X0.250000*%
%ADD35R,1.400000X0.600000*%
%ADD36RoundRect,0.135000X0.185000X-0.135000X0.185000X0.135000X-0.185000X0.135000X-0.185000X-0.135000X0*%
%ADD37RoundRect,0.140000X-0.170000X0.140000X-0.170000X-0.140000X0.170000X-0.140000X0.170000X0.140000X0*%
%ADD38RoundRect,0.225000X-0.225000X-0.250000X0.225000X-0.250000X0.225000X0.250000X-0.225000X0.250000X0*%
%ADD39R,0.550000X0.365000*%
%ADD40R,0.550000X0.250000*%
%ADD41RoundRect,0.140000X0.170000X-0.140000X0.170000X0.140000X-0.170000X0.140000X-0.170000X-0.140000X0*%
%ADD42RoundRect,0.147500X-0.172500X0.147500X-0.172500X-0.147500X0.172500X-0.147500X0.172500X0.147500X0*%
%ADD43RoundRect,0.225000X0.225000X0.250000X-0.225000X0.250000X-0.225000X-0.250000X0.225000X-0.250000X0*%
%ADD44R,0.500000X0.600000*%
%ADD45R,0.850000X0.250000*%
%ADD46R,0.250000X0.850000*%
%ADD47R,1.700000X2.700000*%
%ADD48RoundRect,0.200000X0.200000X0.450000X-0.200000X0.450000X-0.200000X-0.450000X0.200000X-0.450000X0*%
%ADD49O,0.800000X1.300000*%
%ADD50C,0.990600*%
%ADD51C,0.787400*%
%ADD52RoundRect,0.200000X-0.200000X-0.550000X0.200000X-0.550000X0.200000X0.550000X-0.200000X0.550000X0*%
%ADD53FreePoly0,90.000000*%
%ADD54FreePoly1,90.000000*%
%ADD55FreePoly2,90.000000*%
%ADD56FreePoly3,90.000000*%
%ADD57RoundRect,0.120000X0.169706X0.000000X0.000000X0.169706X-0.169706X0.000000X0.000000X-0.169706X0*%
%ADD58RoundRect,0.250000X-1.100000X0.325000X-1.100000X-0.325000X1.100000X-0.325000X1.100000X0.325000X0*%
%ADD59C,0.900000*%
%ADD60R,0.600000X0.510000*%
%ADD61R,0.900000X0.700000*%
%ADD62RoundRect,0.147500X-0.147500X-0.172500X0.147500X-0.172500X0.147500X0.172500X-0.147500X0.172500X0*%
%ADD63RoundRect,0.135000X-0.135000X-0.185000X0.135000X-0.185000X0.135000X0.185000X-0.135000X0.185000X0*%
%ADD64RoundRect,0.218750X0.256250X-0.218750X0.256250X0.218750X-0.256250X0.218750X-0.256250X-0.218750X0*%
%ADD65RoundRect,0.225000X-0.250000X0.225000X-0.250000X-0.225000X0.250000X-0.225000X0.250000X0.225000X0*%
%ADD66RoundRect,0.200000X0.800000X-0.200000X0.800000X0.200000X-0.800000X0.200000X-0.800000X-0.200000X0*%
%ADD67C,0.340000*%
%ADD68C,0.250000*%
%ADD69C,0.500000*%
%ADD70C,0.600000*%
G04 APERTURE END LIST*
D10*
%TO.C,G\u002A\u002A\u002A*%
G36*
X117674894Y-77794724D02*
G01*
X117679684Y-77809420D01*
X117679170Y-77833501D01*
X117679424Y-77896045D01*
X117691471Y-77967096D01*
X117715475Y-78047346D01*
X117751608Y-78137493D01*
X117751955Y-78138275D01*
X117775306Y-78188396D01*
X117797469Y-78228765D01*
X117821113Y-78262263D01*
X117848912Y-78291773D01*
X117883536Y-78320178D01*
X117927659Y-78350363D01*
X117976841Y-78380912D01*
X118077174Y-78444373D01*
X118163719Y-78505049D01*
X118238371Y-78564318D01*
X118275159Y-78596909D01*
X118329685Y-78646893D01*
X118375413Y-78687825D01*
X118415137Y-78722006D01*
X118451653Y-78751737D01*
X118487755Y-78779324D01*
X118526242Y-78807067D01*
X118552541Y-78825367D01*
X118659057Y-78895071D01*
X118762684Y-78954808D01*
X118868493Y-79007137D01*
X118981566Y-79054620D01*
X119076202Y-79089289D01*
X119251360Y-79141854D01*
X119433763Y-79180717D01*
X119621740Y-79205737D01*
X119813623Y-79216771D01*
X120007742Y-79213680D01*
X120202425Y-79196321D01*
X120256478Y-79188935D01*
X120297458Y-79182221D01*
X120346850Y-79173070D01*
X120401106Y-79162244D01*
X120456660Y-79150516D01*
X120509960Y-79138651D01*
X120557449Y-79127417D01*
X120595570Y-79117583D01*
X120618148Y-79110834D01*
X120639531Y-79103901D01*
X120665915Y-79095738D01*
X120670412Y-79094387D01*
X120723964Y-79077947D01*
X120772917Y-79061847D01*
X120821940Y-79044412D01*
X120875709Y-79023977D01*
X120938895Y-78998866D01*
X120950007Y-78994376D01*
X121058252Y-78950986D01*
X121153033Y-78913939D01*
X121235638Y-78882814D01*
X121307358Y-78857197D01*
X121369480Y-78836667D01*
X121423296Y-78820804D01*
X121470092Y-78809188D01*
X121511161Y-78801403D01*
X121547790Y-78797032D01*
X121560166Y-78796212D01*
X121583962Y-78796421D01*
X121599820Y-78802453D01*
X121614864Y-78817718D01*
X121620746Y-78825208D01*
X121655258Y-78868252D01*
X121684793Y-78900415D01*
X121712529Y-78924841D01*
X121740836Y-78944195D01*
X121783079Y-78969801D01*
X121774344Y-78998645D01*
X121747258Y-79073421D01*
X121709752Y-79155504D01*
X121663791Y-79241712D01*
X121611344Y-79328867D01*
X121554376Y-79413790D01*
X121494859Y-79493302D01*
X121434756Y-79564220D01*
X121404914Y-79595654D01*
X121324679Y-79673865D01*
X121249669Y-79741035D01*
X121176456Y-79799851D01*
X121101605Y-79853001D01*
X121021688Y-79903175D01*
X120985502Y-79924166D01*
X120940542Y-79948824D01*
X120892398Y-79973772D01*
X120846653Y-79996201D01*
X120808885Y-80013301D01*
X120806774Y-80014187D01*
X120729429Y-80045497D01*
X120659165Y-80071523D01*
X120591273Y-80093698D01*
X120521044Y-80113466D01*
X120443765Y-80132257D01*
X120361620Y-80150086D01*
X120173434Y-80181438D01*
X119978310Y-80198787D01*
X119884262Y-80200353D01*
X119777515Y-80202131D01*
X119623069Y-80194104D01*
X119895086Y-80194104D01*
X119900630Y-80195589D01*
X119902114Y-80190046D01*
X119896572Y-80188561D01*
X119895086Y-80194104D01*
X119623069Y-80194104D01*
X119572312Y-80191466D01*
X119363971Y-80166793D01*
X119269720Y-80151155D01*
X119157569Y-80127958D01*
X119037080Y-80097793D01*
X118913323Y-80062192D01*
X118791376Y-80022697D01*
X118676308Y-79980838D01*
X118588484Y-79944888D01*
X118538204Y-79922169D01*
X118484116Y-79896271D01*
X118428402Y-79868382D01*
X118373254Y-79839700D01*
X118320859Y-79811411D01*
X118273405Y-79784712D01*
X118233078Y-79760790D01*
X118202067Y-79740840D01*
X118182559Y-79726052D01*
X118178074Y-79721342D01*
X118168810Y-79713616D01*
X118158447Y-79706858D01*
X118145217Y-79696909D01*
X118140953Y-79691189D01*
X118134223Y-79688359D01*
X118131961Y-79689353D01*
X118125278Y-79687471D01*
X118124803Y-79684115D01*
X118120935Y-79677689D01*
X118118413Y-79678433D01*
X118110062Y-79675050D01*
X118091613Y-79663284D01*
X118065557Y-79645002D01*
X118034383Y-79622066D01*
X118000584Y-79596340D01*
X117966648Y-79569683D01*
X117935071Y-79543965D01*
X117909869Y-79522409D01*
X117871627Y-79486539D01*
X117827636Y-79441994D01*
X117781930Y-79393054D01*
X117738548Y-79343995D01*
X117715236Y-79316188D01*
X117668984Y-79254065D01*
X117623992Y-79183330D01*
X117582057Y-79107603D01*
X117544969Y-79030503D01*
X117514528Y-78955655D01*
X117492523Y-78886680D01*
X117484167Y-78849889D01*
X117476000Y-78793528D01*
X117470560Y-78730867D01*
X117468051Y-78667341D01*
X117468680Y-78608386D01*
X117472652Y-78559438D01*
X117473074Y-78556439D01*
X117483674Y-78481973D01*
X117491722Y-78421259D01*
X117497433Y-78372060D01*
X117501020Y-78332135D01*
X117502700Y-78299248D01*
X117502685Y-78271157D01*
X117501930Y-78255329D01*
X117497692Y-78199289D01*
X117492444Y-78154874D01*
X117484912Y-78117477D01*
X117480182Y-78102557D01*
X117473824Y-78082497D01*
X117457905Y-78045329D01*
X117446232Y-78022026D01*
X117619663Y-78022026D01*
X117625205Y-78023512D01*
X117626690Y-78017969D01*
X117621148Y-78016483D01*
X117619663Y-78022026D01*
X117446232Y-78022026D01*
X117435885Y-78001371D01*
X117427115Y-77984686D01*
X117387921Y-77910628D01*
X117384756Y-77904649D01*
X117380812Y-77897196D01*
X117397665Y-77897196D01*
X117403208Y-77898682D01*
X117404693Y-77893140D01*
X117399151Y-77891652D01*
X117397665Y-77897196D01*
X117380812Y-77897196D01*
X117374607Y-77885469D01*
X117431499Y-77885469D01*
X117434876Y-77889092D01*
X117438890Y-77887450D01*
X117443190Y-77881539D01*
X117440870Y-77880061D01*
X117432044Y-77884034D01*
X117431499Y-77885469D01*
X117374607Y-77885469D01*
X117374511Y-77885287D01*
X117397979Y-77877349D01*
X117422870Y-77867115D01*
X117444668Y-77856004D01*
X117458214Y-77849152D01*
X117468547Y-77849026D01*
X117480119Y-77857454D01*
X117497382Y-77876257D01*
X117499242Y-77878375D01*
X117520621Y-77901526D01*
X117548526Y-77930073D01*
X117577503Y-77958460D01*
X117582241Y-77962961D01*
X117633889Y-78011770D01*
X117634023Y-77984603D01*
X117633582Y-77955573D01*
X117632523Y-77930479D01*
X117633519Y-77908402D01*
X117637840Y-77879744D01*
X117644363Y-77849252D01*
X117651967Y-77821668D01*
X117659527Y-77801745D01*
X117664662Y-77794582D01*
X117674894Y-77794724D01*
G37*
%TD*%
D11*
%TO.C,U305*%
X114900000Y-74900000D03*
X114100000Y-74900000D03*
X113300000Y-74900000D03*
X112500000Y-74900000D03*
D12*
X114500000Y-76100000D03*
X112900000Y-76100000D03*
D11*
X112500000Y-77300000D03*
X113300000Y-77300000D03*
X114100000Y-77300000D03*
X114900000Y-77300000D03*
%TD*%
D13*
%TO.C,U204*%
X110110000Y-76340000D03*
X109160000Y-76340000D03*
X108210000Y-76340000D03*
X108210000Y-78615000D03*
X110110000Y-78615000D03*
%TD*%
D14*
%TO.C,C501*%
X91876073Y-73670000D03*
X90916073Y-73670000D03*
%TD*%
%TO.C,C207*%
X108737500Y-74927500D03*
X107777500Y-74927500D03*
%TD*%
D15*
%TO.C,D302*%
X95886073Y-73800000D03*
X94916073Y-73800000D03*
%TD*%
D16*
%TO.C,C401*%
X121300000Y-74120000D03*
X122260000Y-74120000D03*
%TD*%
%TO.C,C402*%
X123140000Y-71650000D03*
X124100000Y-71650000D03*
%TD*%
D17*
%TO.C,J501*%
X81435101Y-68409900D03*
X83975101Y-69679900D03*
X81435101Y-70949900D03*
X83975101Y-72219900D03*
X81435101Y-73489900D03*
X83975101Y-74759900D03*
X81435101Y-76029900D03*
X83975101Y-77299900D03*
D18*
X75085101Y-67139900D03*
X75085101Y-78569900D03*
%TD*%
D19*
%TO.C,D306*%
X123190000Y-66720000D03*
X123190000Y-68295000D03*
%TD*%
D20*
%TO.C,U202*%
X113275000Y-67900000D03*
D21*
X113275000Y-67250000D03*
D22*
X112415000Y-67900000D03*
D23*
X112415000Y-67250000D03*
D24*
X112845000Y-67575000D03*
%TD*%
D16*
%TO.C,C208*%
X111220000Y-79260000D03*
X112180000Y-79260000D03*
%TD*%
D25*
%TO.C,D502*%
X131910000Y-78820000D03*
X131910000Y-77850000D03*
%TD*%
D19*
%TO.C,D308*%
X127680000Y-66720000D03*
X127680000Y-68295000D03*
%TD*%
D26*
%TO.C,R101*%
X92970000Y-79600000D03*
X91320000Y-79600000D03*
%TD*%
D27*
%TO.C,R403*%
X121560000Y-66980000D03*
X121560000Y-68000000D03*
%TD*%
D28*
%TO.C,U501*%
X86810000Y-73600000D03*
X86810000Y-74100000D03*
X86810000Y-74600000D03*
X86810000Y-75100000D03*
X86810000Y-75600000D03*
X87580000Y-75600000D03*
X87580000Y-75100000D03*
X87580000Y-74600000D03*
X87580000Y-74100000D03*
X87580000Y-73600000D03*
%TD*%
D29*
%TO.C,R201*%
X110650000Y-74930000D03*
X109630000Y-74930000D03*
%TD*%
D27*
%TO.C,R502*%
X131900000Y-71510000D03*
X131900000Y-72530000D03*
%TD*%
D30*
%TO.C,U401*%
X121970000Y-73062500D03*
D31*
X122107500Y-72150000D03*
X122107500Y-71650000D03*
X122107500Y-71150000D03*
X122107500Y-70650000D03*
D30*
X121970000Y-69737500D03*
X121470000Y-69737500D03*
X120970000Y-69737500D03*
X120470000Y-69737500D03*
X119970000Y-69737500D03*
X119470000Y-69737500D03*
X118970000Y-69737500D03*
X118470000Y-69737500D03*
X117970000Y-69737500D03*
X117470000Y-69737500D03*
D31*
X117332500Y-70650000D03*
X117332500Y-71150000D03*
X117332500Y-71650000D03*
X117332500Y-72150000D03*
D30*
X117470000Y-73062500D03*
X117970000Y-73062500D03*
X118470000Y-73062500D03*
X118970000Y-73062500D03*
X119470000Y-73062500D03*
X119970000Y-73062500D03*
X120470000Y-73062500D03*
X120970000Y-73062500D03*
X121470000Y-73062500D03*
%TD*%
D32*
%TO.C,U503*%
X130892101Y-72100000D03*
X130892101Y-71600000D03*
X130892101Y-71100000D03*
X130892101Y-70600000D03*
X130892101Y-70100000D03*
X130122101Y-70100000D03*
X130122101Y-70600000D03*
X130122101Y-71100000D03*
X130122101Y-71600000D03*
X130122101Y-72100000D03*
%TD*%
D33*
%TO.C,U505*%
X89950000Y-72800000D03*
X90350000Y-72800000D03*
X90750000Y-72800000D03*
X91150000Y-72800000D03*
X91550000Y-72800000D03*
X91950000Y-72800000D03*
D34*
X92050000Y-72300000D03*
X92050000Y-71900000D03*
D33*
X91950000Y-71400000D03*
X91550000Y-71400000D03*
X91150000Y-71400000D03*
X90750000Y-71400000D03*
X90350000Y-71400000D03*
X89950000Y-71400000D03*
D34*
X89850000Y-71900000D03*
X89850000Y-72300000D03*
D35*
X90950000Y-72100000D03*
%TD*%
D16*
%TO.C,C301*%
X94925000Y-72800000D03*
X95885000Y-72800000D03*
%TD*%
D36*
%TO.C,R303*%
X127680000Y-70440000D03*
X127680000Y-69420000D03*
%TD*%
D27*
%TO.C,R407*%
X120560000Y-66980000D03*
X120560000Y-68000000D03*
%TD*%
D36*
%TO.C,R501*%
X93920000Y-73830000D03*
X93920000Y-72810000D03*
%TD*%
D37*
%TO.C,C201*%
X106960000Y-69195000D03*
X106960000Y-70155000D03*
%TD*%
D27*
%TO.C,R401*%
X116270000Y-70910000D03*
X116270000Y-71930000D03*
%TD*%
D38*
%TO.C,C213*%
X115525000Y-67300000D03*
X117075000Y-67300000D03*
%TD*%
D14*
%TO.C,C304*%
X124210000Y-79510000D03*
X123250000Y-79510000D03*
%TD*%
D20*
%TO.C,U201*%
X108760000Y-70000000D03*
D21*
X108760000Y-69350000D03*
D22*
X107900000Y-70000000D03*
D23*
X107900000Y-69350000D03*
D24*
X108330000Y-69675000D03*
%TD*%
D14*
%TO.C,C216*%
X113260000Y-68980000D03*
X112300000Y-68980000D03*
%TD*%
D39*
%TO.C,R301*%
X106840000Y-73994000D03*
D40*
X106840000Y-73437000D03*
X106840000Y-72937000D03*
D39*
X106840000Y-72380000D03*
X105790000Y-72380000D03*
D40*
X105790000Y-72937000D03*
X105790000Y-73437000D03*
D39*
X105790000Y-73994000D03*
%TD*%
D37*
%TO.C,C303*%
X108730000Y-71330000D03*
X108730000Y-72290000D03*
%TD*%
D41*
%TO.C,C210*%
X110800000Y-70130000D03*
X110800000Y-69170000D03*
%TD*%
D27*
%TO.C,R408*%
X120050000Y-75220000D03*
X120050000Y-76240000D03*
%TD*%
D36*
%TO.C,R104*%
X94780000Y-79025000D03*
X94780000Y-78005000D03*
%TD*%
D42*
%TO.C,D103*%
X103100000Y-75915000D03*
X103100000Y-76885000D03*
%TD*%
D43*
%TO.C,C209*%
X109575000Y-68000000D03*
X108025000Y-68000000D03*
%TD*%
D44*
%TO.C,Y301*%
X109730000Y-71260000D03*
X109730000Y-72360000D03*
X110530000Y-72360000D03*
X110530000Y-71260000D03*
%TD*%
D45*
%TO.C,U101*%
X100100000Y-78900000D03*
X100100000Y-78400000D03*
X100100000Y-77900000D03*
X100100000Y-77400000D03*
X100100000Y-76900000D03*
X100100000Y-76400000D03*
D46*
X99400000Y-75700000D03*
X98900000Y-75700000D03*
X98400000Y-75700000D03*
X97900000Y-75700000D03*
D45*
X97200000Y-76400000D03*
X97200000Y-76900000D03*
X97200000Y-77400000D03*
X97200000Y-77900000D03*
X97200000Y-78400000D03*
X97200000Y-78900000D03*
D46*
X97900000Y-79600000D03*
X98400000Y-79600000D03*
X98900000Y-79600000D03*
X99400000Y-79600000D03*
D47*
X98650000Y-77650000D03*
%TD*%
D16*
%TO.C,C404*%
X122760000Y-77460000D03*
X123720000Y-77460000D03*
%TD*%
D29*
%TO.C,R302*%
X110630000Y-73410000D03*
X109610000Y-73410000D03*
%TD*%
D25*
%TO.C,D501*%
X86986073Y-79485000D03*
X86986073Y-78515000D03*
%TD*%
D48*
%TO.C,J302*%
X104486073Y-69750000D03*
D49*
X103236073Y-69750000D03*
X101986073Y-69750000D03*
X100736073Y-69750000D03*
X99486073Y-69750000D03*
X98236073Y-69750000D03*
X96986073Y-69750000D03*
X95736073Y-69750000D03*
%TD*%
D36*
%TO.C,R308*%
X124680000Y-70440000D03*
X124680000Y-69420000D03*
%TD*%
D14*
%TO.C,C405*%
X121270000Y-77460000D03*
X120310000Y-77460000D03*
%TD*%
D50*
%TO.C,J301*%
X97446073Y-73015000D03*
X102526073Y-71999000D03*
X102526073Y-74031000D03*
D51*
X98716073Y-73650000D03*
X98716073Y-72380000D03*
X99986073Y-73650000D03*
X99986073Y-72380000D03*
X101256073Y-73650000D03*
X101256073Y-72380000D03*
%TD*%
D41*
%TO.C,C103*%
X95980000Y-79955000D03*
X95980000Y-78995000D03*
%TD*%
D29*
%TO.C,R305*%
X116230000Y-78300000D03*
X115210000Y-78300000D03*
%TD*%
D36*
%TO.C,R103*%
X95990000Y-78010000D03*
X95990000Y-76990000D03*
%TD*%
%TO.C,R105*%
X101800000Y-76940000D03*
X101800000Y-75920000D03*
%TD*%
D27*
%TO.C,R404*%
X119610000Y-66970000D03*
X119610000Y-67990000D03*
%TD*%
D52*
%TO.C,Y401*%
X121270000Y-75900000D03*
X122770000Y-75900000D03*
%TD*%
D53*
%TO.C,U203*%
X106140000Y-77980000D03*
D54*
X106790000Y-77980000D03*
D55*
X106140000Y-77120000D03*
D56*
X106790000Y-77120000D03*
D57*
X106465000Y-77550000D03*
%TD*%
D41*
%TO.C,C204*%
X114275000Y-68055000D03*
X114275000Y-67095000D03*
%TD*%
D16*
%TO.C,C206*%
X105980000Y-78920000D03*
X106940000Y-78920000D03*
%TD*%
D17*
%TO.C,J502*%
X137447000Y-77299900D03*
X134907000Y-76029900D03*
X137447000Y-74759900D03*
X134907000Y-73489900D03*
X137447000Y-72219900D03*
X134907000Y-70949900D03*
X137447000Y-69679900D03*
X134907000Y-68409900D03*
D18*
X143797000Y-78569900D03*
X143797000Y-67139900D03*
%TD*%
D16*
%TO.C,C403*%
X125060000Y-72880000D03*
X126020000Y-72880000D03*
%TD*%
D19*
%TO.C,D305*%
X126180000Y-66720000D03*
X126180000Y-68295000D03*
%TD*%
D58*
%TO.C,C101*%
X92460000Y-75095000D03*
X92460000Y-78045000D03*
%TD*%
D25*
%TO.C,D303*%
X108750000Y-66820000D03*
X108750000Y-65850000D03*
%TD*%
D16*
%TO.C,C214*%
X114120000Y-68990000D03*
X115080000Y-68990000D03*
%TD*%
D59*
%TO.C,SW501*%
X91250000Y-67571000D03*
X88250000Y-67571000D03*
D60*
X90750000Y-68851000D03*
X89750000Y-68851000D03*
X88750000Y-68851000D03*
D61*
X92750000Y-67461000D03*
X86750000Y-67461000D03*
%TD*%
D41*
%TO.C,C203*%
X111475000Y-68055000D03*
X111475000Y-67095000D03*
%TD*%
D16*
%TO.C,C205*%
X105990000Y-76170000D03*
X106950000Y-76170000D03*
%TD*%
D62*
%TO.C,D301*%
X94915000Y-71797500D03*
X95885000Y-71797500D03*
%TD*%
D27*
%TO.C,R402*%
X116270000Y-69040000D03*
X116270000Y-70060000D03*
%TD*%
D63*
%TO.C,R106*%
X94050000Y-79915000D03*
X95070000Y-79915000D03*
%TD*%
D36*
%TO.C,R307*%
X123180000Y-70440000D03*
X123180000Y-69420000D03*
%TD*%
D63*
%TO.C,R405*%
X123120000Y-72900000D03*
X124140000Y-72900000D03*
%TD*%
D37*
%TO.C,C502*%
X93270000Y-69760000D03*
X93270000Y-70720000D03*
%TD*%
D27*
%TO.C,R503*%
X131900000Y-69650000D03*
X131900000Y-70670000D03*
%TD*%
D42*
%TO.C,D102*%
X90100000Y-78815000D03*
X90100000Y-79785000D03*
%TD*%
D41*
%TO.C,C302*%
X116700000Y-77380000D03*
X116700000Y-76420000D03*
%TD*%
D16*
%TO.C,C217*%
X114530000Y-73640000D03*
X115490000Y-73640000D03*
%TD*%
D41*
%TO.C,C202*%
X109800000Y-70130000D03*
X109800000Y-69170000D03*
%TD*%
D64*
%TO.C,D101*%
X101800000Y-79630000D03*
X101800000Y-78055000D03*
%TD*%
D28*
%TO.C,U502*%
X86810000Y-70100000D03*
X86810000Y-70600000D03*
X86810000Y-71100000D03*
X86810000Y-71600000D03*
X86810000Y-72100000D03*
X87580000Y-72100000D03*
X87580000Y-71600000D03*
X87580000Y-71100000D03*
X87580000Y-70600000D03*
X87580000Y-70100000D03*
%TD*%
D25*
%TO.C,D304*%
X107800000Y-66820000D03*
X107800000Y-65850000D03*
%TD*%
D38*
%TO.C,C215*%
X117125000Y-74800000D03*
X118675000Y-74800000D03*
%TD*%
D65*
%TO.C,C102*%
X94786073Y-75125000D03*
X94786073Y-76675000D03*
%TD*%
D36*
%TO.C,R102*%
X95986073Y-76150000D03*
X95986073Y-75130000D03*
%TD*%
D27*
%TO.C,R504*%
X131900000Y-74840000D03*
X131900000Y-75860000D03*
%TD*%
%TO.C,R406*%
X118660000Y-66980000D03*
X118660000Y-68000000D03*
%TD*%
D29*
%TO.C,R304*%
X114320000Y-78300000D03*
X113300000Y-78300000D03*
%TD*%
D28*
%TO.C,U302*%
X104025000Y-72187000D03*
X104025000Y-72687000D03*
X104025000Y-73187000D03*
X104025000Y-73687000D03*
X104025000Y-74187000D03*
X104795000Y-74187000D03*
X104795000Y-73687000D03*
X104795000Y-73187000D03*
X104795000Y-72687000D03*
X104795000Y-72187000D03*
%TD*%
D19*
%TO.C,D307*%
X124690000Y-66720000D03*
X124690000Y-68295000D03*
%TD*%
D32*
%TO.C,U504*%
X130892101Y-75600000D03*
X130892101Y-75100000D03*
X130892101Y-74600000D03*
X130892101Y-74100000D03*
X130892101Y-73600000D03*
X130122101Y-73600000D03*
X130122101Y-74100000D03*
X130122101Y-74600000D03*
X130122101Y-75100000D03*
X130122101Y-75600000D03*
%TD*%
D36*
%TO.C,R306*%
X126180000Y-70440000D03*
X126180000Y-69420000D03*
%TD*%
D66*
%TO.C,SW301*%
X126340000Y-79510000D03*
X126340000Y-75310000D03*
%TD*%
D67*
%TO.C,U301*%
X112710000Y-70420000D03*
X113110000Y-70420000D03*
X113510000Y-70420000D03*
X113910000Y-70420000D03*
X114310000Y-70420000D03*
X114710000Y-70420000D03*
X112710000Y-70820000D03*
X113110000Y-70820000D03*
X113510000Y-70820000D03*
X113910000Y-70820000D03*
X114310000Y-70820000D03*
X114710000Y-70820000D03*
X112710000Y-71220000D03*
X113110000Y-71220000D03*
X113510000Y-71220000D03*
X113910000Y-71220000D03*
X114310000Y-71220000D03*
X114710000Y-71220000D03*
X112710000Y-71620000D03*
X113110000Y-71620000D03*
X113510000Y-71620000D03*
X113910000Y-71620000D03*
X114310000Y-71620000D03*
X114710000Y-71620000D03*
X112710000Y-72020000D03*
X113110000Y-72020000D03*
X113510000Y-72020000D03*
X113910000Y-72020000D03*
X114310000Y-72020000D03*
X114710000Y-72020000D03*
X112710000Y-72420000D03*
X113110000Y-72420000D03*
X113510000Y-72420000D03*
X113910000Y-72420000D03*
X114310000Y-72420000D03*
X114710000Y-72420000D03*
%TD*%
D68*
X113510000Y-71620000D03*
X113910000Y-72020000D03*
X114310000Y-72020000D03*
X113510000Y-72420000D03*
X113110000Y-72020000D03*
X113910000Y-70820000D03*
X113510000Y-70820000D03*
X114310000Y-71620000D03*
X114310000Y-71220000D03*
X115400000Y-70300000D03*
X115300000Y-71600000D03*
X113485285Y-72784194D03*
X111500000Y-72675000D03*
X111500000Y-73125000D03*
X111630808Y-71645000D03*
X111630808Y-71195000D03*
X112425279Y-69640000D03*
X112931968Y-69961349D03*
X114350000Y-70010000D03*
X116270000Y-70910000D03*
D69*
X111600000Y-72200000D03*
X131900000Y-79727900D03*
X126650000Y-72880000D03*
X89086073Y-73049856D03*
X103385000Y-73187000D03*
X107600000Y-76170000D03*
X128360648Y-69213765D03*
X108775000Y-68000000D03*
D70*
X99300000Y-74600000D03*
D69*
X126340000Y-74570000D03*
D70*
X69100000Y-66600000D03*
D69*
X91196597Y-70571529D03*
X117075000Y-66500000D03*
D70*
X105800000Y-65600000D03*
D69*
X107100000Y-65850000D03*
X122900000Y-74125000D03*
X129200000Y-74600000D03*
D70*
X68700000Y-74700000D03*
D69*
X112100000Y-74900000D03*
D70*
X146600000Y-75300000D03*
X78600000Y-66400000D03*
D69*
X129200000Y-76100000D03*
X86170000Y-74600000D03*
D70*
X83600000Y-66300000D03*
D69*
X111850000Y-78877900D03*
D70*
X130500000Y-66800000D03*
D69*
X109450000Y-65850000D03*
D70*
X139500000Y-66300000D03*
D69*
X89086073Y-76849868D03*
D70*
X77400000Y-71400000D03*
X127100000Y-78100000D03*
D69*
X121200000Y-71900000D03*
D70*
X73000000Y-70900000D03*
D69*
X128500000Y-67200000D03*
X93796073Y-67460000D03*
X88096073Y-68840000D03*
X130260352Y-69187691D03*
X99580135Y-65730900D03*
X123720000Y-76770000D03*
X115490000Y-74200000D03*
X86170000Y-71110000D03*
D70*
X148700000Y-66600000D03*
X149200000Y-70400000D03*
X106160000Y-70160000D03*
X96000000Y-65900000D03*
D69*
X107560000Y-78877900D03*
X94786073Y-75925000D03*
X121610000Y-68920000D03*
X132610000Y-77840000D03*
X111600000Y-70700000D03*
X92510000Y-70720000D03*
X110800000Y-68550000D03*
X115600000Y-68480000D03*
X129200000Y-71100000D03*
X111601122Y-73589114D03*
X113700000Y-76100000D03*
X90100000Y-74600000D03*
D70*
X97400000Y-74700000D03*
X82190000Y-77530000D03*
D69*
X92383225Y-69269320D03*
D70*
X142100000Y-72400000D03*
X70700000Y-78300000D03*
X75800000Y-74700000D03*
X139700000Y-70600000D03*
X136200000Y-78500000D03*
X102600000Y-71000000D03*
D69*
X114275000Y-66475000D03*
D70*
X149900000Y-78800000D03*
X89450000Y-78750000D03*
X124100000Y-75700000D03*
D69*
X101256073Y-74356073D03*
X110825000Y-67100000D03*
X121250000Y-70650000D03*
X94990001Y-69198191D03*
X96586073Y-71800000D03*
D70*
X129900000Y-77800000D03*
D69*
X119800000Y-76950000D03*
X124720000Y-71650000D03*
X109226854Y-71838257D03*
X111600000Y-69100000D03*
D70*
X70900000Y-69300000D03*
D69*
X89086073Y-74949862D03*
X86986073Y-77800000D03*
X99601423Y-66988580D03*
D70*
X79900000Y-73800000D03*
X132300000Y-68500000D03*
D69*
X86746073Y-66770000D03*
X123250000Y-78840000D03*
X117500000Y-76400000D03*
X93317838Y-72080348D03*
X118660000Y-75640000D03*
X119400000Y-73880000D03*
X89090280Y-71150012D03*
X104480000Y-75910000D03*
X107800000Y-71100000D03*
X107100000Y-71100000D03*
X110210000Y-67360000D03*
X111498459Y-69950624D03*
X108200000Y-74200000D03*
X123600000Y-73600000D03*
X128600000Y-68000000D03*
X116700000Y-74160000D03*
X104700000Y-78800000D03*
X114530000Y-73640000D03*
X87000000Y-76900000D03*
X118570000Y-77000000D03*
X128360000Y-70430000D03*
X89916073Y-67710000D03*
X113850000Y-69750000D03*
X115700000Y-76750000D03*
X110750000Y-75750000D03*
X113700000Y-75499997D03*
X125680000Y-71350000D03*
X120470000Y-71180000D03*
X127680000Y-67507500D03*
X108769546Y-67400022D03*
X112840000Y-68380000D03*
X126180000Y-67507500D03*
X123170000Y-67507500D03*
X124670000Y-67500000D03*
X94756073Y-67450000D03*
X90561073Y-70175000D03*
X100000000Y-71600000D03*
X98500000Y-71000000D03*
X105200000Y-75100000D03*
X115600000Y-75550000D03*
X106100000Y-75500000D03*
X112810000Y-76590000D03*
X114975684Y-75549998D03*
X107750000Y-73350000D03*
X107557081Y-72587239D03*
X112210772Y-75823775D03*
X115572876Y-69698454D03*
X118600000Y-71200000D03*
X116300000Y-66720000D03*
X122330000Y-66850000D03*
X89086073Y-74349859D03*
X128960431Y-69197559D03*
X94790000Y-69770000D03*
X99060000Y-66730000D03*
X89086073Y-75549865D03*
X128557769Y-71800000D03*
X91261073Y-69975000D03*
X89811711Y-70096735D03*
X89086073Y-73649859D03*
X99060000Y-66030000D03*
X129660431Y-69197559D03*
X94090000Y-69770000D03*
X89086073Y-76249865D03*
X128557769Y-72500000D03*
X91811073Y-69450000D03*
X89316735Y-70591711D03*
X92816964Y-72450001D03*
X89086073Y-72450000D03*
X128750000Y-75000000D03*
X89086073Y-71750000D03*
X92816964Y-71750001D03*
X128750000Y-75700000D03*
M02*
