%TF.GenerationSoftware,KiCad,Pcbnew,9.0.6*%
%TF.CreationDate,2025-12-30T15:38:49+01:00*%
%TF.ProjectId,VoxSense,566f7853-656e-4736-952e-6b696361645f,1.0*%
%TF.SameCoordinates,Original*%
%TF.FileFunction,Paste,Top*%
%TF.FilePolarity,Positive*%
%FSLAX46Y46*%
G04 Gerber Fmt 4.6, Leading zero omitted, Abs format (unit mm)*
G04 Created by KiCad (PCBNEW 9.0.6) date 2025-12-30 15:38:49*
%MOMM*%
%LPD*%
G01*
G04 APERTURE LIST*
G04 Aperture macros list*
%AMRoundRect*
0 Rectangle with rounded corners*
0 $1 Rounding radius*
0 $2 $3 $4 $5 $6 $7 $8 $9 X,Y pos of 4 corners*
0 Add a 4 corners polygon primitive as box body*
4,1,4,$2,$3,$4,$5,$6,$7,$8,$9,$2,$3,0*
0 Add four circle primitives for the rounded corners*
1,1,$1+$1,$2,$3*
1,1,$1+$1,$4,$5*
1,1,$1+$1,$6,$7*
1,1,$1+$1,$8,$9*
0 Add four rect primitives between the rounded corners*
20,1,$1+$1,$2,$3,$4,$5,0*
20,1,$1+$1,$4,$5,$6,$7,0*
20,1,$1+$1,$6,$7,$8,$9,0*
20,1,$1+$1,$8,$9,$2,$3,0*%
%AMFreePoly0*
4,1,6,0.180000,0.075000,0.000000,-0.105000,-0.220000,-0.105000,-0.220000,0.105000,0.180000,0.105000,0.180000,0.075000,0.180000,0.075000,$1*%
%AMFreePoly1*
4,1,6,0.180000,-0.075000,0.180000,-0.105000,-0.220000,-0.105000,-0.220000,0.105000,0.000000,0.105000,0.180000,-0.075000,0.180000,-0.075000,$1*%
%AMFreePoly2*
4,1,6,0.220000,-0.105000,0.000000,-0.105000,-0.180000,0.075000,-0.180000,0.105000,0.220000,0.105000,0.220000,-0.105000,0.220000,-0.105000,$1*%
%AMFreePoly3*
4,1,6,0.220000,-0.105000,-0.180000,-0.105000,-0.180000,-0.075000,0.000000,0.105000,0.220000,0.105000,0.220000,-0.105000,0.220000,-0.105000,$1*%
G04 Aperture macros list end*
%ADD10C,0.010000*%
%ADD11RoundRect,0.150000X-0.150000X0.512500X-0.150000X-0.512500X0.150000X-0.512500X0.150000X0.512500X0*%
%ADD12RoundRect,0.140000X0.140000X0.170000X-0.140000X0.170000X-0.140000X-0.170000X0.140000X-0.170000X0*%
%ADD13RoundRect,0.147500X0.147500X0.172500X-0.147500X0.172500X-0.147500X-0.172500X0.147500X-0.172500X0*%
%ADD14RoundRect,0.140000X-0.140000X-0.170000X0.140000X-0.170000X0.140000X0.170000X-0.140000X0.170000X0*%
%ADD15RoundRect,0.218750X-0.256250X0.218750X-0.256250X-0.218750X0.256250X-0.218750X0.256250X0.218750X0*%
%ADD16FreePoly0,180.000000*%
%ADD17FreePoly1,180.000000*%
%ADD18FreePoly2,180.000000*%
%ADD19FreePoly3,180.000000*%
%ADD20RoundRect,0.112500X0.000000X0.159099X-0.159099X0.000000X0.000000X-0.159099X0.159099X0.000000X0*%
%ADD21RoundRect,0.147500X0.172500X-0.147500X0.172500X0.147500X-0.172500X0.147500X-0.172500X-0.147500X0*%
%ADD22RoundRect,0.200000X0.200000X0.275000X-0.200000X0.275000X-0.200000X-0.275000X0.200000X-0.275000X0*%
%ADD23RoundRect,0.135000X-0.185000X0.135000X-0.185000X-0.135000X0.185000X-0.135000X0.185000X0.135000X0*%
%ADD24RoundRect,0.135000X0.135000X0.185000X-0.135000X0.185000X-0.135000X-0.185000X0.135000X-0.185000X0*%
%ADD25RoundRect,0.135000X0.185000X-0.135000X0.185000X0.135000X-0.185000X0.135000X-0.185000X-0.135000X0*%
%ADD26RoundRect,0.140000X-0.170000X0.140000X-0.170000X-0.140000X0.170000X-0.140000X0.170000X0.140000X0*%
%ADD27RoundRect,0.225000X-0.225000X-0.250000X0.225000X-0.250000X0.225000X0.250000X-0.225000X0.250000X0*%
%ADD28R,0.550000X0.365000*%
%ADD29R,0.550000X0.250000*%
%ADD30RoundRect,0.140000X0.170000X-0.140000X0.170000X0.140000X-0.170000X0.140000X-0.170000X-0.140000X0*%
%ADD31RoundRect,0.147500X-0.172500X0.147500X-0.172500X-0.147500X0.172500X-0.147500X0.172500X0.147500X0*%
%ADD32RoundRect,0.225000X0.225000X0.250000X-0.225000X0.250000X-0.225000X-0.250000X0.225000X-0.250000X0*%
%ADD33FreePoly0,90.000000*%
%ADD34FreePoly1,90.000000*%
%ADD35FreePoly2,90.000000*%
%ADD36FreePoly3,90.000000*%
%ADD37RoundRect,0.112500X0.159099X0.000000X0.000000X0.159099X-0.159099X0.000000X0.000000X-0.159099X0*%
%ADD38RoundRect,0.250000X-1.100000X0.325000X-1.100000X-0.325000X1.100000X-0.325000X1.100000X0.325000X0*%
%ADD39R,0.600000X0.510000*%
%ADD40R,0.900000X0.700000*%
%ADD41RoundRect,0.147500X-0.147500X-0.172500X0.147500X-0.172500X0.147500X0.172500X-0.147500X0.172500X0*%
%ADD42RoundRect,0.135000X-0.135000X-0.185000X0.135000X-0.185000X0.135000X0.185000X-0.135000X0.185000X0*%
%ADD43RoundRect,0.218750X0.256250X-0.218750X0.256250X0.218750X-0.256250X0.218750X-0.256250X-0.218750X0*%
%ADD44RoundRect,0.225000X-0.250000X0.225000X-0.250000X-0.225000X0.250000X-0.225000X0.250000X0.225000X0*%
%ADD45C,0.270002*%
G04 APERTURE END LIST*
%TO.C,U305*%
D10*
X112600000Y-74650000D02*
X112400000Y-74650000D01*
X112400000Y-75150000D01*
X112600000Y-75150000D01*
X112600000Y-74650000D01*
G36*
X112600000Y-74650000D02*
G01*
X112400000Y-74650000D01*
X112400000Y-75150000D01*
X112600000Y-75150000D01*
X112600000Y-74650000D01*
G37*
X112600000Y-77050000D02*
X112400000Y-77050000D01*
X112400000Y-77550000D01*
X112600000Y-77550000D01*
X112600000Y-77050000D01*
G36*
X112600000Y-77050000D02*
G01*
X112400000Y-77050000D01*
X112400000Y-77550000D01*
X112600000Y-77550000D01*
X112600000Y-77050000D01*
G37*
X113250000Y-76050000D02*
X112550000Y-76050000D01*
X112550000Y-76150000D01*
X113250000Y-76150000D01*
X113250000Y-76050000D01*
G36*
X113250000Y-76050000D02*
G01*
X112550000Y-76050000D01*
X112550000Y-76150000D01*
X113250000Y-76150000D01*
X113250000Y-76050000D01*
G37*
X113400000Y-74650000D02*
X113200000Y-74650000D01*
X113200000Y-75150000D01*
X113400000Y-75150000D01*
X113400000Y-74650000D01*
G36*
X113400000Y-74650000D02*
G01*
X113200000Y-74650000D01*
X113200000Y-75150000D01*
X113400000Y-75150000D01*
X113400000Y-74650000D01*
G37*
X113400000Y-77050000D02*
X113200000Y-77050000D01*
X113200000Y-77550000D01*
X113400000Y-77550000D01*
X113400000Y-77050000D01*
G36*
X113400000Y-77050000D02*
G01*
X113200000Y-77050000D01*
X113200000Y-77550000D01*
X113400000Y-77550000D01*
X113400000Y-77050000D01*
G37*
X114200000Y-74650000D02*
X114000000Y-74650000D01*
X114000000Y-75150000D01*
X114200000Y-75150000D01*
X114200000Y-74650000D01*
G36*
X114200000Y-74650000D02*
G01*
X114000000Y-74650000D01*
X114000000Y-75150000D01*
X114200000Y-75150000D01*
X114200000Y-74650000D01*
G37*
X114200000Y-77050000D02*
X114000000Y-77050000D01*
X114000000Y-77550000D01*
X114200000Y-77550000D01*
X114200000Y-77050000D01*
G36*
X114200000Y-77050000D02*
G01*
X114000000Y-77050000D01*
X114000000Y-77550000D01*
X114200000Y-77550000D01*
X114200000Y-77050000D01*
G37*
X114850000Y-76050000D02*
X114150000Y-76050000D01*
X114150000Y-76150000D01*
X114850000Y-76150000D01*
X114850000Y-76050000D01*
G36*
X114850000Y-76050000D02*
G01*
X114150000Y-76050000D01*
X114150000Y-76150000D01*
X114850000Y-76150000D01*
X114850000Y-76050000D01*
G37*
X115000000Y-74650000D02*
X114800000Y-74650000D01*
X114800000Y-75150000D01*
X115000000Y-75150000D01*
X115000000Y-74650000D01*
G36*
X115000000Y-74650000D02*
G01*
X114800000Y-74650000D01*
X114800000Y-75150000D01*
X115000000Y-75150000D01*
X115000000Y-74650000D01*
G37*
X115000000Y-77050000D02*
X114800000Y-77050000D01*
X114800000Y-77550000D01*
X115000000Y-77550000D01*
X115000000Y-77050000D01*
G36*
X115000000Y-77050000D02*
G01*
X114800000Y-77050000D01*
X114800000Y-77550000D01*
X115000000Y-77550000D01*
X115000000Y-77050000D01*
G37*
%TO.C,U501*%
X86585000Y-73500000D02*
X87035000Y-73500000D01*
X87035000Y-73700000D01*
X86585000Y-73700000D01*
X86585000Y-73500000D01*
G36*
X86585000Y-73500000D02*
G01*
X87035000Y-73500000D01*
X87035000Y-73700000D01*
X86585000Y-73700000D01*
X86585000Y-73500000D01*
G37*
X86585000Y-74000000D02*
X87035000Y-74000000D01*
X87035000Y-74200000D01*
X86585000Y-74200000D01*
X86585000Y-74000000D01*
G36*
X86585000Y-74000000D02*
G01*
X87035000Y-74000000D01*
X87035000Y-74200000D01*
X86585000Y-74200000D01*
X86585000Y-74000000D01*
G37*
X86585000Y-74500000D02*
X87035000Y-74500000D01*
X87035000Y-74700000D01*
X86585000Y-74700000D01*
X86585000Y-74500000D01*
G36*
X86585000Y-74500000D02*
G01*
X87035000Y-74500000D01*
X87035000Y-74700000D01*
X86585000Y-74700000D01*
X86585000Y-74500000D01*
G37*
X86585000Y-75000000D02*
X87035000Y-75000000D01*
X87035000Y-75200000D01*
X86585000Y-75200000D01*
X86585000Y-75000000D01*
G36*
X86585000Y-75000000D02*
G01*
X87035000Y-75000000D01*
X87035000Y-75200000D01*
X86585000Y-75200000D01*
X86585000Y-75000000D01*
G37*
X86585000Y-75500000D02*
X87035000Y-75500000D01*
X87035000Y-75700000D01*
X86585000Y-75700000D01*
X86585000Y-75500000D01*
G36*
X86585000Y-75500000D02*
G01*
X87035000Y-75500000D01*
X87035000Y-75700000D01*
X86585000Y-75700000D01*
X86585000Y-75500000D01*
G37*
X87360000Y-73500000D02*
X87810000Y-73500000D01*
X87810000Y-73700000D01*
X87360000Y-73700000D01*
X87360000Y-73500000D01*
G36*
X87360000Y-73500000D02*
G01*
X87810000Y-73500000D01*
X87810000Y-73700000D01*
X87360000Y-73700000D01*
X87360000Y-73500000D01*
G37*
X87360000Y-74000000D02*
X87810000Y-74000000D01*
X87810000Y-74200000D01*
X87360000Y-74200000D01*
X87360000Y-74000000D01*
G36*
X87360000Y-74000000D02*
G01*
X87810000Y-74000000D01*
X87810000Y-74200000D01*
X87360000Y-74200000D01*
X87360000Y-74000000D01*
G37*
X87360000Y-74500000D02*
X87810000Y-74500000D01*
X87810000Y-74700000D01*
X87360000Y-74700000D01*
X87360000Y-74500000D01*
G36*
X87360000Y-74500000D02*
G01*
X87810000Y-74500000D01*
X87810000Y-74700000D01*
X87360000Y-74700000D01*
X87360000Y-74500000D01*
G37*
X87360000Y-75000000D02*
X87810000Y-75000000D01*
X87810000Y-75200000D01*
X87360000Y-75200000D01*
X87360000Y-75000000D01*
G36*
X87360000Y-75000000D02*
G01*
X87810000Y-75000000D01*
X87810000Y-75200000D01*
X87360000Y-75200000D01*
X87360000Y-75000000D01*
G37*
X87360000Y-75500000D02*
X87810000Y-75500000D01*
X87810000Y-75700000D01*
X87360000Y-75700000D01*
X87360000Y-75500000D01*
G36*
X87360000Y-75500000D02*
G01*
X87810000Y-75500000D01*
X87810000Y-75700000D01*
X87360000Y-75700000D01*
X87360000Y-75500000D01*
G37*
%TO.C,U401*%
X117545000Y-70025000D02*
X117395000Y-70025000D01*
X117395000Y-69450000D01*
X117545000Y-69450000D01*
X117545000Y-70025000D01*
G36*
X117545000Y-70025000D02*
G01*
X117395000Y-70025000D01*
X117395000Y-69450000D01*
X117545000Y-69450000D01*
X117545000Y-70025000D01*
G37*
X117545000Y-73350000D02*
X117395000Y-73350000D01*
X117395000Y-72775000D01*
X117545000Y-72775000D01*
X117545000Y-73350000D01*
G36*
X117545000Y-73350000D02*
G01*
X117395000Y-73350000D01*
X117395000Y-72775000D01*
X117545000Y-72775000D01*
X117545000Y-73350000D01*
G37*
X117625000Y-71225000D02*
X117050000Y-71225000D01*
X117050000Y-71075000D01*
X117625000Y-71075000D01*
X117625000Y-71225000D01*
G36*
X117625000Y-71225000D02*
G01*
X117050000Y-71225000D01*
X117050000Y-71075000D01*
X117625000Y-71075000D01*
X117625000Y-71225000D01*
G37*
X117625000Y-71725000D02*
X117050000Y-71725000D01*
X117050000Y-71575000D01*
X117625000Y-71575000D01*
X117625000Y-71725000D01*
G36*
X117625000Y-71725000D02*
G01*
X117050000Y-71725000D01*
X117050000Y-71575000D01*
X117625000Y-71575000D01*
X117625000Y-71725000D01*
G37*
X117625000Y-72225000D02*
X117050000Y-72225000D01*
X117050000Y-72075000D01*
X117625000Y-72075000D01*
X117625000Y-72225000D01*
G36*
X117625000Y-72225000D02*
G01*
X117050000Y-72225000D01*
X117050000Y-72075000D01*
X117625000Y-72075000D01*
X117625000Y-72225000D01*
G37*
X117627500Y-70725000D02*
X117052500Y-70725000D01*
X117052500Y-70575000D01*
X117627500Y-70575000D01*
X117627500Y-70725000D01*
G36*
X117627500Y-70725000D02*
G01*
X117052500Y-70725000D01*
X117052500Y-70575000D01*
X117627500Y-70575000D01*
X117627500Y-70725000D01*
G37*
X118045000Y-70025000D02*
X117895000Y-70025000D01*
X117895000Y-69450000D01*
X118045000Y-69450000D01*
X118045000Y-70025000D01*
G36*
X118045000Y-70025000D02*
G01*
X117895000Y-70025000D01*
X117895000Y-69450000D01*
X118045000Y-69450000D01*
X118045000Y-70025000D01*
G37*
X118045000Y-73350000D02*
X117895000Y-73350000D01*
X117895000Y-72775000D01*
X118045000Y-72775000D01*
X118045000Y-73350000D01*
G36*
X118045000Y-73350000D02*
G01*
X117895000Y-73350000D01*
X117895000Y-72775000D01*
X118045000Y-72775000D01*
X118045000Y-73350000D01*
G37*
X118545000Y-70025000D02*
X118395000Y-70025000D01*
X118395000Y-69450000D01*
X118545000Y-69450000D01*
X118545000Y-70025000D01*
G36*
X118545000Y-70025000D02*
G01*
X118395000Y-70025000D01*
X118395000Y-69450000D01*
X118545000Y-69450000D01*
X118545000Y-70025000D01*
G37*
X118545000Y-73350000D02*
X118395000Y-73350000D01*
X118395000Y-72775000D01*
X118545000Y-72775000D01*
X118545000Y-73350000D01*
G36*
X118545000Y-73350000D02*
G01*
X118395000Y-73350000D01*
X118395000Y-72775000D01*
X118545000Y-72775000D01*
X118545000Y-73350000D01*
G37*
X119045000Y-70025000D02*
X118895000Y-70025000D01*
X118895000Y-69450000D01*
X119045000Y-69450000D01*
X119045000Y-70025000D01*
G36*
X119045000Y-70025000D02*
G01*
X118895000Y-70025000D01*
X118895000Y-69450000D01*
X119045000Y-69450000D01*
X119045000Y-70025000D01*
G37*
X119045000Y-73350000D02*
X118895000Y-73350000D01*
X118895000Y-72775000D01*
X119045000Y-72775000D01*
X119045000Y-73350000D01*
G36*
X119045000Y-73350000D02*
G01*
X118895000Y-73350000D01*
X118895000Y-72775000D01*
X119045000Y-72775000D01*
X119045000Y-73350000D01*
G37*
X119545000Y-70025000D02*
X119395000Y-70025000D01*
X119395000Y-69450000D01*
X119545000Y-69450000D01*
X119545000Y-70025000D01*
G36*
X119545000Y-70025000D02*
G01*
X119395000Y-70025000D01*
X119395000Y-69450000D01*
X119545000Y-69450000D01*
X119545000Y-70025000D01*
G37*
X119545000Y-73350000D02*
X119395000Y-73350000D01*
X119395000Y-72775000D01*
X119545000Y-72775000D01*
X119545000Y-73350000D01*
G36*
X119545000Y-73350000D02*
G01*
X119395000Y-73350000D01*
X119395000Y-72775000D01*
X119545000Y-72775000D01*
X119545000Y-73350000D01*
G37*
X120045000Y-70025000D02*
X119895000Y-70025000D01*
X119895000Y-69450000D01*
X120045000Y-69450000D01*
X120045000Y-70025000D01*
G36*
X120045000Y-70025000D02*
G01*
X119895000Y-70025000D01*
X119895000Y-69450000D01*
X120045000Y-69450000D01*
X120045000Y-70025000D01*
G37*
X120045000Y-73350000D02*
X119895000Y-73350000D01*
X119895000Y-72775000D01*
X120045000Y-72775000D01*
X120045000Y-73350000D01*
G36*
X120045000Y-73350000D02*
G01*
X119895000Y-73350000D01*
X119895000Y-72775000D01*
X120045000Y-72775000D01*
X120045000Y-73350000D01*
G37*
X120545000Y-70025000D02*
X120395000Y-70025000D01*
X120395000Y-69450000D01*
X120545000Y-69450000D01*
X120545000Y-70025000D01*
G36*
X120545000Y-70025000D02*
G01*
X120395000Y-70025000D01*
X120395000Y-69450000D01*
X120545000Y-69450000D01*
X120545000Y-70025000D01*
G37*
X120545000Y-73350000D02*
X120395000Y-73350000D01*
X120395000Y-72775000D01*
X120545000Y-72775000D01*
X120545000Y-73350000D01*
G36*
X120545000Y-73350000D02*
G01*
X120395000Y-73350000D01*
X120395000Y-72775000D01*
X120545000Y-72775000D01*
X120545000Y-73350000D01*
G37*
X121045000Y-70025000D02*
X120895000Y-70025000D01*
X120895000Y-69450000D01*
X121045000Y-69450000D01*
X121045000Y-70025000D01*
G36*
X121045000Y-70025000D02*
G01*
X120895000Y-70025000D01*
X120895000Y-69450000D01*
X121045000Y-69450000D01*
X121045000Y-70025000D01*
G37*
X121045000Y-73350000D02*
X120895000Y-73350000D01*
X120895000Y-72775000D01*
X121045000Y-72775000D01*
X121045000Y-73350000D01*
G36*
X121045000Y-73350000D02*
G01*
X120895000Y-73350000D01*
X120895000Y-72775000D01*
X121045000Y-72775000D01*
X121045000Y-73350000D01*
G37*
X121545000Y-70025000D02*
X121395000Y-70025000D01*
X121395000Y-69450000D01*
X121545000Y-69450000D01*
X121545000Y-70025000D01*
G36*
X121545000Y-70025000D02*
G01*
X121395000Y-70025000D01*
X121395000Y-69450000D01*
X121545000Y-69450000D01*
X121545000Y-70025000D01*
G37*
X121545000Y-73350000D02*
X121395000Y-73350000D01*
X121395000Y-72775000D01*
X121545000Y-72775000D01*
X121545000Y-73350000D01*
G36*
X121545000Y-73350000D02*
G01*
X121395000Y-73350000D01*
X121395000Y-72775000D01*
X121545000Y-72775000D01*
X121545000Y-73350000D01*
G37*
X122045000Y-70025000D02*
X121895000Y-70025000D01*
X121895000Y-69450000D01*
X122045000Y-69450000D01*
X122045000Y-70025000D01*
G36*
X122045000Y-70025000D02*
G01*
X121895000Y-70025000D01*
X121895000Y-69450000D01*
X122045000Y-69450000D01*
X122045000Y-70025000D01*
G37*
X122045000Y-73350000D02*
X121895000Y-73350000D01*
X121895000Y-72775000D01*
X122045000Y-72775000D01*
X122045000Y-73350000D01*
G36*
X122045000Y-73350000D02*
G01*
X121895000Y-73350000D01*
X121895000Y-72775000D01*
X122045000Y-72775000D01*
X122045000Y-73350000D01*
G37*
X122400000Y-70725000D02*
X121825000Y-70725000D01*
X121825000Y-70575000D01*
X122400000Y-70575000D01*
X122400000Y-70725000D01*
G36*
X122400000Y-70725000D02*
G01*
X121825000Y-70725000D01*
X121825000Y-70575000D01*
X122400000Y-70575000D01*
X122400000Y-70725000D01*
G37*
X122400000Y-71225000D02*
X121825000Y-71225000D01*
X121825000Y-71075000D01*
X122400000Y-71075000D01*
X122400000Y-71225000D01*
G36*
X122400000Y-71225000D02*
G01*
X121825000Y-71225000D01*
X121825000Y-71075000D01*
X122400000Y-71075000D01*
X122400000Y-71225000D01*
G37*
X122400000Y-71725000D02*
X121825000Y-71725000D01*
X121825000Y-71575000D01*
X122400000Y-71575000D01*
X122400000Y-71725000D01*
G36*
X122400000Y-71725000D02*
G01*
X121825000Y-71725000D01*
X121825000Y-71575000D01*
X122400000Y-71575000D01*
X122400000Y-71725000D01*
G37*
X122400000Y-72230000D02*
X121825000Y-72230000D01*
X121825000Y-72080000D01*
X122400000Y-72080000D01*
X122400000Y-72230000D01*
G36*
X122400000Y-72230000D02*
G01*
X121825000Y-72230000D01*
X121825000Y-72080000D01*
X122400000Y-72080000D01*
X122400000Y-72230000D01*
G37*
%TO.C,U503*%
X130342101Y-70200000D02*
X129892101Y-70200000D01*
X129892101Y-70000000D01*
X130342101Y-70000000D01*
X130342101Y-70200000D01*
G36*
X130342101Y-70200000D02*
G01*
X129892101Y-70200000D01*
X129892101Y-70000000D01*
X130342101Y-70000000D01*
X130342101Y-70200000D01*
G37*
X130342101Y-70700000D02*
X129892101Y-70700000D01*
X129892101Y-70500000D01*
X130342101Y-70500000D01*
X130342101Y-70700000D01*
G36*
X130342101Y-70700000D02*
G01*
X129892101Y-70700000D01*
X129892101Y-70500000D01*
X130342101Y-70500000D01*
X130342101Y-70700000D01*
G37*
X130342101Y-71200000D02*
X129892101Y-71200000D01*
X129892101Y-71000000D01*
X130342101Y-71000000D01*
X130342101Y-71200000D01*
G36*
X130342101Y-71200000D02*
G01*
X129892101Y-71200000D01*
X129892101Y-71000000D01*
X130342101Y-71000000D01*
X130342101Y-71200000D01*
G37*
X130342101Y-71700000D02*
X129892101Y-71700000D01*
X129892101Y-71500000D01*
X130342101Y-71500000D01*
X130342101Y-71700000D01*
G36*
X130342101Y-71700000D02*
G01*
X129892101Y-71700000D01*
X129892101Y-71500000D01*
X130342101Y-71500000D01*
X130342101Y-71700000D01*
G37*
X130342101Y-72200000D02*
X129892101Y-72200000D01*
X129892101Y-72000000D01*
X130342101Y-72000000D01*
X130342101Y-72200000D01*
G36*
X130342101Y-72200000D02*
G01*
X129892101Y-72200000D01*
X129892101Y-72000000D01*
X130342101Y-72000000D01*
X130342101Y-72200000D01*
G37*
X131117101Y-70200000D02*
X130667101Y-70200000D01*
X130667101Y-70000000D01*
X131117101Y-70000000D01*
X131117101Y-70200000D01*
G36*
X131117101Y-70200000D02*
G01*
X130667101Y-70200000D01*
X130667101Y-70000000D01*
X131117101Y-70000000D01*
X131117101Y-70200000D01*
G37*
X131117101Y-70700000D02*
X130667101Y-70700000D01*
X130667101Y-70500000D01*
X131117101Y-70500000D01*
X131117101Y-70700000D01*
G36*
X131117101Y-70700000D02*
G01*
X130667101Y-70700000D01*
X130667101Y-70500000D01*
X131117101Y-70500000D01*
X131117101Y-70700000D01*
G37*
X131117101Y-71200000D02*
X130667101Y-71200000D01*
X130667101Y-71000000D01*
X131117101Y-71000000D01*
X131117101Y-71200000D01*
G36*
X131117101Y-71200000D02*
G01*
X130667101Y-71200000D01*
X130667101Y-71000000D01*
X131117101Y-71000000D01*
X131117101Y-71200000D01*
G37*
X131117101Y-71700000D02*
X130667101Y-71700000D01*
X130667101Y-71500000D01*
X131117101Y-71500000D01*
X131117101Y-71700000D01*
G36*
X131117101Y-71700000D02*
G01*
X130667101Y-71700000D01*
X130667101Y-71500000D01*
X131117101Y-71500000D01*
X131117101Y-71700000D01*
G37*
X131117101Y-72200000D02*
X130667101Y-72200000D01*
X130667101Y-72000000D01*
X131117101Y-72000000D01*
X131117101Y-72200000D01*
G36*
X131117101Y-72200000D02*
G01*
X130667101Y-72200000D01*
X130667101Y-72000000D01*
X131117101Y-72000000D01*
X131117101Y-72200000D01*
G37*
%TO.C,U505*%
X89650000Y-72000000D02*
X90050000Y-72000000D01*
X90050000Y-71800000D01*
X89650000Y-71800000D01*
X89650000Y-72000000D01*
G36*
X89650000Y-72000000D02*
G01*
X90050000Y-72000000D01*
X90050000Y-71800000D01*
X89650000Y-71800000D01*
X89650000Y-72000000D01*
G37*
X89650000Y-72400000D02*
X90050000Y-72400000D01*
X90050000Y-72200000D01*
X89650000Y-72200000D01*
X89650000Y-72400000D01*
G36*
X89650000Y-72400000D02*
G01*
X90050000Y-72400000D01*
X90050000Y-72200000D01*
X89650000Y-72200000D01*
X89650000Y-72400000D01*
G37*
X89850000Y-71600000D02*
X90050000Y-71600000D01*
X90050000Y-71200000D01*
X89850000Y-71200000D01*
X89850000Y-71600000D01*
G36*
X89850000Y-71600000D02*
G01*
X90050000Y-71600000D01*
X90050000Y-71200000D01*
X89850000Y-71200000D01*
X89850000Y-71600000D01*
G37*
X89850000Y-73000000D02*
X90050000Y-73000000D01*
X90050000Y-72600000D01*
X89850000Y-72600000D01*
X89850000Y-73000000D01*
G36*
X89850000Y-73000000D02*
G01*
X90050000Y-73000000D01*
X90050000Y-72600000D01*
X89850000Y-72600000D01*
X89850000Y-73000000D01*
G37*
X90250000Y-71600000D02*
X90450000Y-71600000D01*
X90450000Y-71200000D01*
X90250000Y-71200000D01*
X90250000Y-71600000D01*
G36*
X90250000Y-71600000D02*
G01*
X90450000Y-71600000D01*
X90450000Y-71200000D01*
X90250000Y-71200000D01*
X90250000Y-71600000D01*
G37*
X90250000Y-73000000D02*
X90450000Y-73000000D01*
X90450000Y-72600000D01*
X90250000Y-72600000D01*
X90250000Y-73000000D01*
G36*
X90250000Y-73000000D02*
G01*
X90450000Y-73000000D01*
X90450000Y-72600000D01*
X90250000Y-72600000D01*
X90250000Y-73000000D01*
G37*
X90350000Y-72300000D02*
X90750000Y-72300000D01*
X90750000Y-71900000D01*
X90350000Y-71900000D01*
X90350000Y-72300000D01*
G36*
X90350000Y-72300000D02*
G01*
X90750000Y-72300000D01*
X90750000Y-71900000D01*
X90350000Y-71900000D01*
X90350000Y-72300000D01*
G37*
X90650000Y-71600000D02*
X90850000Y-71600000D01*
X90850000Y-71200000D01*
X90650000Y-71200000D01*
X90650000Y-71600000D01*
G36*
X90650000Y-71600000D02*
G01*
X90850000Y-71600000D01*
X90850000Y-71200000D01*
X90650000Y-71200000D01*
X90650000Y-71600000D01*
G37*
X90650000Y-73000000D02*
X90850000Y-73000000D01*
X90850000Y-72600000D01*
X90650000Y-72600000D01*
X90650000Y-73000000D01*
G36*
X90650000Y-73000000D02*
G01*
X90850000Y-73000000D01*
X90850000Y-72600000D01*
X90650000Y-72600000D01*
X90650000Y-73000000D01*
G37*
X91050000Y-71600000D02*
X91250000Y-71600000D01*
X91250000Y-71200000D01*
X91050000Y-71200000D01*
X91050000Y-71600000D01*
G36*
X91050000Y-71600000D02*
G01*
X91250000Y-71600000D01*
X91250000Y-71200000D01*
X91050000Y-71200000D01*
X91050000Y-71600000D01*
G37*
X91050000Y-73000000D02*
X91250000Y-73000000D01*
X91250000Y-72600000D01*
X91050000Y-72600000D01*
X91050000Y-73000000D01*
G36*
X91050000Y-73000000D02*
G01*
X91250000Y-73000000D01*
X91250000Y-72600000D01*
X91050000Y-72600000D01*
X91050000Y-73000000D01*
G37*
X91150000Y-72300000D02*
X91550000Y-72300000D01*
X91550000Y-71900000D01*
X91150000Y-71900000D01*
X91150000Y-72300000D01*
G36*
X91150000Y-72300000D02*
G01*
X91550000Y-72300000D01*
X91550000Y-71900000D01*
X91150000Y-71900000D01*
X91150000Y-72300000D01*
G37*
X91450000Y-71600000D02*
X91650000Y-71600000D01*
X91650000Y-71200000D01*
X91450000Y-71200000D01*
X91450000Y-71600000D01*
G36*
X91450000Y-71600000D02*
G01*
X91650000Y-71600000D01*
X91650000Y-71200000D01*
X91450000Y-71200000D01*
X91450000Y-71600000D01*
G37*
X91450000Y-73000000D02*
X91650000Y-73000000D01*
X91650000Y-72600000D01*
X91450000Y-72600000D01*
X91450000Y-73000000D01*
G36*
X91450000Y-73000000D02*
G01*
X91650000Y-73000000D01*
X91650000Y-72600000D01*
X91450000Y-72600000D01*
X91450000Y-73000000D01*
G37*
X91850000Y-71600000D02*
X92050000Y-71600000D01*
X92050000Y-71200000D01*
X91850000Y-71200000D01*
X91850000Y-71600000D01*
G36*
X91850000Y-71600000D02*
G01*
X92050000Y-71600000D01*
X92050000Y-71200000D01*
X91850000Y-71200000D01*
X91850000Y-71600000D01*
G37*
X91850000Y-72000000D02*
X92250000Y-72000000D01*
X92250000Y-71800000D01*
X91850000Y-71800000D01*
X91850000Y-72000000D01*
G36*
X91850000Y-72000000D02*
G01*
X92250000Y-72000000D01*
X92250000Y-71800000D01*
X91850000Y-71800000D01*
X91850000Y-72000000D01*
G37*
X91850000Y-72400000D02*
X92250000Y-72400000D01*
X92250000Y-72200000D01*
X91850000Y-72200000D01*
X91850000Y-72400000D01*
G36*
X91850000Y-72400000D02*
G01*
X92250000Y-72400000D01*
X92250000Y-72200000D01*
X91850000Y-72200000D01*
X91850000Y-72400000D01*
G37*
X91850000Y-73000000D02*
X92050000Y-73000000D01*
X92050000Y-72600000D01*
X91850000Y-72600000D01*
X91850000Y-73000000D01*
G36*
X91850000Y-73000000D02*
G01*
X92050000Y-73000000D01*
X92050000Y-72600000D01*
X91850000Y-72600000D01*
X91850000Y-73000000D01*
G37*
%TO.C,Y301*%
X109580000Y-71060000D02*
X109880000Y-71060000D01*
X109880000Y-71460000D01*
X109580000Y-71460000D01*
X109580000Y-71060000D01*
G36*
X109580000Y-71060000D02*
G01*
X109880000Y-71060000D01*
X109880000Y-71460000D01*
X109580000Y-71460000D01*
X109580000Y-71060000D01*
G37*
X109580000Y-72160000D02*
X109880000Y-72160000D01*
X109880000Y-72560000D01*
X109580000Y-72560000D01*
X109580000Y-72160000D01*
G36*
X109580000Y-72160000D02*
G01*
X109880000Y-72160000D01*
X109880000Y-72560000D01*
X109580000Y-72560000D01*
X109580000Y-72160000D01*
G37*
X110380000Y-71060000D02*
X110680000Y-71060000D01*
X110680000Y-71460000D01*
X110380000Y-71460000D01*
X110380000Y-71060000D01*
G36*
X110380000Y-71060000D02*
G01*
X110680000Y-71060000D01*
X110680000Y-71460000D01*
X110380000Y-71460000D01*
X110380000Y-71060000D01*
G37*
X110380000Y-72160000D02*
X110680000Y-72160000D01*
X110680000Y-72560000D01*
X110380000Y-72560000D01*
X110380000Y-72160000D01*
G36*
X110380000Y-72160000D02*
G01*
X110680000Y-72160000D01*
X110680000Y-72560000D01*
X110380000Y-72560000D01*
X110380000Y-72160000D01*
G37*
%TO.C,U101*%
X97600000Y-76500000D02*
X96800000Y-76500000D01*
X96800000Y-76300000D01*
X97600000Y-76300000D01*
X97600000Y-76500000D01*
G36*
X97600000Y-76500000D02*
G01*
X96800000Y-76500000D01*
X96800000Y-76300000D01*
X97600000Y-76300000D01*
X97600000Y-76500000D01*
G37*
X97600000Y-77000000D02*
X96800000Y-77000000D01*
X96800000Y-76800000D01*
X97600000Y-76800000D01*
X97600000Y-77000000D01*
G36*
X97600000Y-77000000D02*
G01*
X96800000Y-77000000D01*
X96800000Y-76800000D01*
X97600000Y-76800000D01*
X97600000Y-77000000D01*
G37*
X97600000Y-77500000D02*
X96800000Y-77500000D01*
X96800000Y-77300000D01*
X97600000Y-77300000D01*
X97600000Y-77500000D01*
G36*
X97600000Y-77500000D02*
G01*
X96800000Y-77500000D01*
X96800000Y-77300000D01*
X97600000Y-77300000D01*
X97600000Y-77500000D01*
G37*
X97600000Y-78000000D02*
X96800000Y-78000000D01*
X96800000Y-77800000D01*
X97600000Y-77800000D01*
X97600000Y-78000000D01*
G36*
X97600000Y-78000000D02*
G01*
X96800000Y-78000000D01*
X96800000Y-77800000D01*
X97600000Y-77800000D01*
X97600000Y-78000000D01*
G37*
X97600000Y-78500000D02*
X96800000Y-78500000D01*
X96800000Y-78300000D01*
X97600000Y-78300000D01*
X97600000Y-78500000D01*
G36*
X97600000Y-78500000D02*
G01*
X96800000Y-78500000D01*
X96800000Y-78300000D01*
X97600000Y-78300000D01*
X97600000Y-78500000D01*
G37*
X97600000Y-79000000D02*
X96800000Y-79000000D01*
X96800000Y-78800000D01*
X97600000Y-78800000D01*
X97600000Y-79000000D01*
G36*
X97600000Y-79000000D02*
G01*
X96800000Y-79000000D01*
X96800000Y-78800000D01*
X97600000Y-78800000D01*
X97600000Y-79000000D01*
G37*
X98000000Y-76100000D02*
X97800000Y-76100000D01*
X97800000Y-75300000D01*
X98000000Y-75300000D01*
X98000000Y-76100000D01*
G36*
X98000000Y-76100000D02*
G01*
X97800000Y-76100000D01*
X97800000Y-75300000D01*
X98000000Y-75300000D01*
X98000000Y-76100000D01*
G37*
X98000000Y-80000000D02*
X97800000Y-80000000D01*
X97800000Y-79200000D01*
X98000000Y-79200000D01*
X98000000Y-80000000D01*
G36*
X98000000Y-80000000D02*
G01*
X97800000Y-80000000D01*
X97800000Y-79200000D01*
X98000000Y-79200000D01*
X98000000Y-80000000D01*
G37*
X98500000Y-76100000D02*
X98300000Y-76100000D01*
X98300000Y-75300000D01*
X98500000Y-75300000D01*
X98500000Y-76100000D01*
G36*
X98500000Y-76100000D02*
G01*
X98300000Y-76100000D01*
X98300000Y-75300000D01*
X98500000Y-75300000D01*
X98500000Y-76100000D01*
G37*
X98500000Y-80000000D02*
X98300000Y-80000000D01*
X98300000Y-79200000D01*
X98500000Y-79200000D01*
X98500000Y-80000000D01*
G36*
X98500000Y-80000000D02*
G01*
X98300000Y-80000000D01*
X98300000Y-79200000D01*
X98500000Y-79200000D01*
X98500000Y-80000000D01*
G37*
X98950000Y-77150000D02*
X98350000Y-77150000D01*
X98350000Y-76550000D01*
X98950000Y-76550000D01*
X98950000Y-77150000D01*
G36*
X98950000Y-77150000D02*
G01*
X98350000Y-77150000D01*
X98350000Y-76550000D01*
X98950000Y-76550000D01*
X98950000Y-77150000D01*
G37*
X98950000Y-78750000D02*
X98350000Y-78750000D01*
X98350000Y-78150000D01*
X98950000Y-78150000D01*
X98950000Y-78750000D01*
G36*
X98950000Y-78750000D02*
G01*
X98350000Y-78750000D01*
X98350000Y-78150000D01*
X98950000Y-78150000D01*
X98950000Y-78750000D01*
G37*
X99000000Y-76100000D02*
X98800000Y-76100000D01*
X98800000Y-75300000D01*
X99000000Y-75300000D01*
X99000000Y-76100000D01*
G36*
X99000000Y-76100000D02*
G01*
X98800000Y-76100000D01*
X98800000Y-75300000D01*
X99000000Y-75300000D01*
X99000000Y-76100000D01*
G37*
X99000000Y-80000000D02*
X98800000Y-80000000D01*
X98800000Y-79200000D01*
X99000000Y-79200000D01*
X99000000Y-80000000D01*
G36*
X99000000Y-80000000D02*
G01*
X98800000Y-80000000D01*
X98800000Y-79200000D01*
X99000000Y-79200000D01*
X99000000Y-80000000D01*
G37*
X99500000Y-76100000D02*
X99300000Y-76100000D01*
X99300000Y-75300000D01*
X99500000Y-75300000D01*
X99500000Y-76100000D01*
G36*
X99500000Y-76100000D02*
G01*
X99300000Y-76100000D01*
X99300000Y-75300000D01*
X99500000Y-75300000D01*
X99500000Y-76100000D01*
G37*
X99500000Y-80000000D02*
X99300000Y-80000000D01*
X99300000Y-79200000D01*
X99500000Y-79200000D01*
X99500000Y-80000000D01*
G36*
X99500000Y-80000000D02*
G01*
X99300000Y-80000000D01*
X99300000Y-79200000D01*
X99500000Y-79200000D01*
X99500000Y-80000000D01*
G37*
X100500000Y-76500000D02*
X99700000Y-76500000D01*
X99700000Y-76300000D01*
X100500000Y-76300000D01*
X100500000Y-76500000D01*
G36*
X100500000Y-76500000D02*
G01*
X99700000Y-76500000D01*
X99700000Y-76300000D01*
X100500000Y-76300000D01*
X100500000Y-76500000D01*
G37*
X100500000Y-77000000D02*
X99700000Y-77000000D01*
X99700000Y-76800000D01*
X100500000Y-76800000D01*
X100500000Y-77000000D01*
G36*
X100500000Y-77000000D02*
G01*
X99700000Y-77000000D01*
X99700000Y-76800000D01*
X100500000Y-76800000D01*
X100500000Y-77000000D01*
G37*
X100500000Y-77500000D02*
X99700000Y-77500000D01*
X99700000Y-77300000D01*
X100500000Y-77300000D01*
X100500000Y-77500000D01*
G36*
X100500000Y-77500000D02*
G01*
X99700000Y-77500000D01*
X99700000Y-77300000D01*
X100500000Y-77300000D01*
X100500000Y-77500000D01*
G37*
X100500000Y-78000000D02*
X99700000Y-78000000D01*
X99700000Y-77800000D01*
X100500000Y-77800000D01*
X100500000Y-78000000D01*
G36*
X100500000Y-78000000D02*
G01*
X99700000Y-78000000D01*
X99700000Y-77800000D01*
X100500000Y-77800000D01*
X100500000Y-78000000D01*
G37*
X100500000Y-78500000D02*
X99700000Y-78500000D01*
X99700000Y-78300000D01*
X100500000Y-78300000D01*
X100500000Y-78500000D01*
G36*
X100500000Y-78500000D02*
G01*
X99700000Y-78500000D01*
X99700000Y-78300000D01*
X100500000Y-78300000D01*
X100500000Y-78500000D01*
G37*
X100500000Y-79000000D02*
X99700000Y-79000000D01*
X99700000Y-78800000D01*
X100500000Y-78800000D01*
X100500000Y-79000000D01*
G36*
X100500000Y-79000000D02*
G01*
X99700000Y-79000000D01*
X99700000Y-78800000D01*
X100500000Y-78800000D01*
X100500000Y-79000000D01*
G37*
%TO.C,Y401*%
X121020000Y-75300000D02*
X121520000Y-75300000D01*
X121520000Y-75800000D01*
X121020000Y-75800000D01*
X121020000Y-75300000D01*
G36*
X121020000Y-75300000D02*
G01*
X121520000Y-75300000D01*
X121520000Y-75800000D01*
X121020000Y-75800000D01*
X121020000Y-75300000D01*
G37*
X121020000Y-76075000D02*
X121520000Y-76075000D01*
X121520000Y-76575000D01*
X121020000Y-76575000D01*
X121020000Y-76075000D01*
G36*
X121020000Y-76075000D02*
G01*
X121520000Y-76075000D01*
X121520000Y-76575000D01*
X121020000Y-76575000D01*
X121020000Y-76075000D01*
G37*
X122520000Y-75275000D02*
X123020000Y-75275000D01*
X123020000Y-75775000D01*
X122520000Y-75775000D01*
X122520000Y-75275000D01*
G36*
X122520000Y-75275000D02*
G01*
X123020000Y-75275000D01*
X123020000Y-75775000D01*
X122520000Y-75775000D01*
X122520000Y-75275000D01*
G37*
X122520000Y-76050000D02*
X123020000Y-76050000D01*
X123020000Y-76550000D01*
X122520000Y-76550000D01*
X122520000Y-76050000D01*
G36*
X122520000Y-76050000D02*
G01*
X123020000Y-76050000D01*
X123020000Y-76550000D01*
X122520000Y-76550000D01*
X122520000Y-76050000D01*
G37*
%TO.C,U502*%
X86585000Y-70000000D02*
X87035000Y-70000000D01*
X87035000Y-70200000D01*
X86585000Y-70200000D01*
X86585000Y-70000000D01*
G36*
X86585000Y-70000000D02*
G01*
X87035000Y-70000000D01*
X87035000Y-70200000D01*
X86585000Y-70200000D01*
X86585000Y-70000000D01*
G37*
X86585000Y-70500000D02*
X87035000Y-70500000D01*
X87035000Y-70700000D01*
X86585000Y-70700000D01*
X86585000Y-70500000D01*
G36*
X86585000Y-70500000D02*
G01*
X87035000Y-70500000D01*
X87035000Y-70700000D01*
X86585000Y-70700000D01*
X86585000Y-70500000D01*
G37*
X86585000Y-71000000D02*
X87035000Y-71000000D01*
X87035000Y-71200000D01*
X86585000Y-71200000D01*
X86585000Y-71000000D01*
G36*
X86585000Y-71000000D02*
G01*
X87035000Y-71000000D01*
X87035000Y-71200000D01*
X86585000Y-71200000D01*
X86585000Y-71000000D01*
G37*
X86585000Y-71500000D02*
X87035000Y-71500000D01*
X87035000Y-71700000D01*
X86585000Y-71700000D01*
X86585000Y-71500000D01*
G36*
X86585000Y-71500000D02*
G01*
X87035000Y-71500000D01*
X87035000Y-71700000D01*
X86585000Y-71700000D01*
X86585000Y-71500000D01*
G37*
X86585000Y-72000000D02*
X87035000Y-72000000D01*
X87035000Y-72200000D01*
X86585000Y-72200000D01*
X86585000Y-72000000D01*
G36*
X86585000Y-72000000D02*
G01*
X87035000Y-72000000D01*
X87035000Y-72200000D01*
X86585000Y-72200000D01*
X86585000Y-72000000D01*
G37*
X87360000Y-70000000D02*
X87810000Y-70000000D01*
X87810000Y-70200000D01*
X87360000Y-70200000D01*
X87360000Y-70000000D01*
G36*
X87360000Y-70000000D02*
G01*
X87810000Y-70000000D01*
X87810000Y-70200000D01*
X87360000Y-70200000D01*
X87360000Y-70000000D01*
G37*
X87360000Y-70500000D02*
X87810000Y-70500000D01*
X87810000Y-70700000D01*
X87360000Y-70700000D01*
X87360000Y-70500000D01*
G36*
X87360000Y-70500000D02*
G01*
X87810000Y-70500000D01*
X87810000Y-70700000D01*
X87360000Y-70700000D01*
X87360000Y-70500000D01*
G37*
X87360000Y-71000000D02*
X87810000Y-71000000D01*
X87810000Y-71200000D01*
X87360000Y-71200000D01*
X87360000Y-71000000D01*
G36*
X87360000Y-71000000D02*
G01*
X87810000Y-71000000D01*
X87810000Y-71200000D01*
X87360000Y-71200000D01*
X87360000Y-71000000D01*
G37*
X87360000Y-71500000D02*
X87810000Y-71500000D01*
X87810000Y-71700000D01*
X87360000Y-71700000D01*
X87360000Y-71500000D01*
G36*
X87360000Y-71500000D02*
G01*
X87810000Y-71500000D01*
X87810000Y-71700000D01*
X87360000Y-71700000D01*
X87360000Y-71500000D01*
G37*
X87360000Y-72000000D02*
X87810000Y-72000000D01*
X87810000Y-72200000D01*
X87360000Y-72200000D01*
X87360000Y-72000000D01*
G36*
X87360000Y-72000000D02*
G01*
X87810000Y-72000000D01*
X87810000Y-72200000D01*
X87360000Y-72200000D01*
X87360000Y-72000000D01*
G37*
%TO.C,U302*%
X103800000Y-72087000D02*
X104250000Y-72087000D01*
X104250000Y-72287000D01*
X103800000Y-72287000D01*
X103800000Y-72087000D01*
G36*
X103800000Y-72087000D02*
G01*
X104250000Y-72087000D01*
X104250000Y-72287000D01*
X103800000Y-72287000D01*
X103800000Y-72087000D01*
G37*
X103800000Y-72587000D02*
X104250000Y-72587000D01*
X104250000Y-72787000D01*
X103800000Y-72787000D01*
X103800000Y-72587000D01*
G36*
X103800000Y-72587000D02*
G01*
X104250000Y-72587000D01*
X104250000Y-72787000D01*
X103800000Y-72787000D01*
X103800000Y-72587000D01*
G37*
X103800000Y-73087000D02*
X104250000Y-73087000D01*
X104250000Y-73287000D01*
X103800000Y-73287000D01*
X103800000Y-73087000D01*
G36*
X103800000Y-73087000D02*
G01*
X104250000Y-73087000D01*
X104250000Y-73287000D01*
X103800000Y-73287000D01*
X103800000Y-73087000D01*
G37*
X103800000Y-73587000D02*
X104250000Y-73587000D01*
X104250000Y-73787000D01*
X103800000Y-73787000D01*
X103800000Y-73587000D01*
G36*
X103800000Y-73587000D02*
G01*
X104250000Y-73587000D01*
X104250000Y-73787000D01*
X103800000Y-73787000D01*
X103800000Y-73587000D01*
G37*
X103800000Y-74087000D02*
X104250000Y-74087000D01*
X104250000Y-74287000D01*
X103800000Y-74287000D01*
X103800000Y-74087000D01*
G36*
X103800000Y-74087000D02*
G01*
X104250000Y-74087000D01*
X104250000Y-74287000D01*
X103800000Y-74287000D01*
X103800000Y-74087000D01*
G37*
X104575000Y-72087000D02*
X105025000Y-72087000D01*
X105025000Y-72287000D01*
X104575000Y-72287000D01*
X104575000Y-72087000D01*
G36*
X104575000Y-72087000D02*
G01*
X105025000Y-72087000D01*
X105025000Y-72287000D01*
X104575000Y-72287000D01*
X104575000Y-72087000D01*
G37*
X104575000Y-72587000D02*
X105025000Y-72587000D01*
X105025000Y-72787000D01*
X104575000Y-72787000D01*
X104575000Y-72587000D01*
G36*
X104575000Y-72587000D02*
G01*
X105025000Y-72587000D01*
X105025000Y-72787000D01*
X104575000Y-72787000D01*
X104575000Y-72587000D01*
G37*
X104575000Y-73087000D02*
X105025000Y-73087000D01*
X105025000Y-73287000D01*
X104575000Y-73287000D01*
X104575000Y-73087000D01*
G36*
X104575000Y-73087000D02*
G01*
X105025000Y-73087000D01*
X105025000Y-73287000D01*
X104575000Y-73287000D01*
X104575000Y-73087000D01*
G37*
X104575000Y-73587000D02*
X105025000Y-73587000D01*
X105025000Y-73787000D01*
X104575000Y-73787000D01*
X104575000Y-73587000D01*
G36*
X104575000Y-73587000D02*
G01*
X105025000Y-73587000D01*
X105025000Y-73787000D01*
X104575000Y-73787000D01*
X104575000Y-73587000D01*
G37*
X104575000Y-74087000D02*
X105025000Y-74087000D01*
X105025000Y-74287000D01*
X104575000Y-74287000D01*
X104575000Y-74087000D01*
G36*
X104575000Y-74087000D02*
G01*
X105025000Y-74087000D01*
X105025000Y-74287000D01*
X104575000Y-74287000D01*
X104575000Y-74087000D01*
G37*
%TO.C,U504*%
X130342101Y-73700000D02*
X129892101Y-73700000D01*
X129892101Y-73500000D01*
X130342101Y-73500000D01*
X130342101Y-73700000D01*
G36*
X130342101Y-73700000D02*
G01*
X129892101Y-73700000D01*
X129892101Y-73500000D01*
X130342101Y-73500000D01*
X130342101Y-73700000D01*
G37*
X130342101Y-74200000D02*
X129892101Y-74200000D01*
X129892101Y-74000000D01*
X130342101Y-74000000D01*
X130342101Y-74200000D01*
G36*
X130342101Y-74200000D02*
G01*
X129892101Y-74200000D01*
X129892101Y-74000000D01*
X130342101Y-74000000D01*
X130342101Y-74200000D01*
G37*
X130342101Y-74700000D02*
X129892101Y-74700000D01*
X129892101Y-74500000D01*
X130342101Y-74500000D01*
X130342101Y-74700000D01*
G36*
X130342101Y-74700000D02*
G01*
X129892101Y-74700000D01*
X129892101Y-74500000D01*
X130342101Y-74500000D01*
X130342101Y-74700000D01*
G37*
X130342101Y-75200000D02*
X129892101Y-75200000D01*
X129892101Y-75000000D01*
X130342101Y-75000000D01*
X130342101Y-75200000D01*
G36*
X130342101Y-75200000D02*
G01*
X129892101Y-75200000D01*
X129892101Y-75000000D01*
X130342101Y-75000000D01*
X130342101Y-75200000D01*
G37*
X130342101Y-75700000D02*
X129892101Y-75700000D01*
X129892101Y-75500000D01*
X130342101Y-75500000D01*
X130342101Y-75700000D01*
G36*
X130342101Y-75700000D02*
G01*
X129892101Y-75700000D01*
X129892101Y-75500000D01*
X130342101Y-75500000D01*
X130342101Y-75700000D01*
G37*
X131117101Y-73700000D02*
X130667101Y-73700000D01*
X130667101Y-73500000D01*
X131117101Y-73500000D01*
X131117101Y-73700000D01*
G36*
X131117101Y-73700000D02*
G01*
X130667101Y-73700000D01*
X130667101Y-73500000D01*
X131117101Y-73500000D01*
X131117101Y-73700000D01*
G37*
X131117101Y-74200000D02*
X130667101Y-74200000D01*
X130667101Y-74000000D01*
X131117101Y-74000000D01*
X131117101Y-74200000D01*
G36*
X131117101Y-74200000D02*
G01*
X130667101Y-74200000D01*
X130667101Y-74000000D01*
X131117101Y-74000000D01*
X131117101Y-74200000D01*
G37*
X131117101Y-74700000D02*
X130667101Y-74700000D01*
X130667101Y-74500000D01*
X131117101Y-74500000D01*
X131117101Y-74700000D01*
G36*
X131117101Y-74700000D02*
G01*
X130667101Y-74700000D01*
X130667101Y-74500000D01*
X131117101Y-74500000D01*
X131117101Y-74700000D01*
G37*
X131117101Y-75200000D02*
X130667101Y-75200000D01*
X130667101Y-75000000D01*
X131117101Y-75000000D01*
X131117101Y-75200000D01*
G36*
X131117101Y-75200000D02*
G01*
X130667101Y-75200000D01*
X130667101Y-75000000D01*
X131117101Y-75000000D01*
X131117101Y-75200000D01*
G37*
X131117101Y-75700000D02*
X130667101Y-75700000D01*
X130667101Y-75500000D01*
X131117101Y-75500000D01*
X131117101Y-75700000D01*
G36*
X131117101Y-75700000D02*
G01*
X130667101Y-75700000D01*
X130667101Y-75500000D01*
X131117101Y-75500000D01*
X131117101Y-75700000D01*
G37*
%TO.C,SW301*%
X125490000Y-75610000D02*
X126090000Y-75610000D01*
X126090000Y-75010000D01*
X125490000Y-75010000D01*
X125490000Y-75610000D01*
G36*
X125490000Y-75610000D02*
G01*
X126090000Y-75610000D01*
X126090000Y-75010000D01*
X125490000Y-75010000D01*
X125490000Y-75610000D01*
G37*
X125490000Y-79810000D02*
X126090000Y-79810000D01*
X126090000Y-79210000D01*
X125490000Y-79210000D01*
X125490000Y-79810000D01*
G36*
X125490000Y-79810000D02*
G01*
X126090000Y-79810000D01*
X126090000Y-79210000D01*
X125490000Y-79210000D01*
X125490000Y-79810000D01*
G37*
X126590000Y-75610000D02*
X127190000Y-75610000D01*
X127190000Y-75010000D01*
X126590000Y-75010000D01*
X126590000Y-75610000D01*
G36*
X126590000Y-75610000D02*
G01*
X127190000Y-75610000D01*
X127190000Y-75010000D01*
X126590000Y-75010000D01*
X126590000Y-75610000D01*
G37*
X126590000Y-79810000D02*
X127190000Y-79810000D01*
X127190000Y-79210000D01*
X126590000Y-79210000D01*
X126590000Y-79810000D01*
G36*
X126590000Y-79810000D02*
G01*
X127190000Y-79810000D01*
X127190000Y-79210000D01*
X126590000Y-79210000D01*
X126590000Y-79810000D01*
G37*
%TD*%
D11*
%TO.C,U204*%
X110110000Y-76340000D03*
X109160000Y-76340000D03*
X108210000Y-76340000D03*
X108210000Y-78615000D03*
X110110000Y-78615000D03*
%TD*%
D12*
%TO.C,C501*%
X91876073Y-73670000D03*
X90916073Y-73670000D03*
%TD*%
%TO.C,C207*%
X108737500Y-74927500D03*
X107777500Y-74927500D03*
%TD*%
D13*
%TO.C,D302*%
X95886073Y-73800000D03*
X94916073Y-73800000D03*
%TD*%
D14*
%TO.C,C401*%
X121300000Y-74120000D03*
X122260000Y-74120000D03*
%TD*%
%TO.C,C402*%
X123140000Y-71650000D03*
X124100000Y-71650000D03*
%TD*%
D15*
%TO.C,D306*%
X123190000Y-66720000D03*
X123190000Y-68295000D03*
%TD*%
D16*
%TO.C,U202*%
X113275000Y-67900000D03*
D17*
X113275000Y-67250000D03*
D18*
X112415000Y-67900000D03*
D19*
X112415000Y-67250000D03*
D20*
X112845000Y-67575000D03*
%TD*%
D14*
%TO.C,C208*%
X111220000Y-79260000D03*
X112180000Y-79260000D03*
%TD*%
D21*
%TO.C,D502*%
X131910000Y-78820000D03*
X131910000Y-77850000D03*
%TD*%
D15*
%TO.C,D308*%
X127680000Y-66720000D03*
X127680000Y-68295000D03*
%TD*%
D22*
%TO.C,R101*%
X92970000Y-79600000D03*
X91320000Y-79600000D03*
%TD*%
D23*
%TO.C,R403*%
X121560000Y-66980000D03*
X121560000Y-68000000D03*
%TD*%
D24*
%TO.C,R201*%
X110650000Y-74930000D03*
X109630000Y-74930000D03*
%TD*%
D23*
%TO.C,R502*%
X131900000Y-71510000D03*
X131900000Y-72530000D03*
%TD*%
D14*
%TO.C,C301*%
X94925000Y-72800000D03*
X95885000Y-72800000D03*
%TD*%
D25*
%TO.C,R303*%
X127680000Y-70440000D03*
X127680000Y-69420000D03*
%TD*%
D23*
%TO.C,R407*%
X120560000Y-66980000D03*
X120560000Y-68000000D03*
%TD*%
D25*
%TO.C,R501*%
X93920000Y-73830000D03*
X93920000Y-72810000D03*
%TD*%
D26*
%TO.C,C201*%
X106960000Y-69195000D03*
X106960000Y-70155000D03*
%TD*%
D23*
%TO.C,R401*%
X116270000Y-70910000D03*
X116270000Y-71930000D03*
%TD*%
D27*
%TO.C,C213*%
X115525000Y-67300000D03*
X117075000Y-67300000D03*
%TD*%
D12*
%TO.C,C304*%
X124210000Y-79510000D03*
X123250000Y-79510000D03*
%TD*%
D16*
%TO.C,U201*%
X108760000Y-70000000D03*
D17*
X108760000Y-69350000D03*
D18*
X107900000Y-70000000D03*
D19*
X107900000Y-69350000D03*
D20*
X108330000Y-69675000D03*
%TD*%
D12*
%TO.C,C216*%
X113260000Y-68980000D03*
X112300000Y-68980000D03*
%TD*%
D28*
%TO.C,R301*%
X106840000Y-73994000D03*
D29*
X106840000Y-73437000D03*
X106840000Y-72937000D03*
D28*
X106840000Y-72380000D03*
X105790000Y-72380000D03*
D29*
X105790000Y-72937000D03*
X105790000Y-73437000D03*
D28*
X105790000Y-73994000D03*
%TD*%
D26*
%TO.C,C303*%
X108730000Y-71330000D03*
X108730000Y-72290000D03*
%TD*%
D30*
%TO.C,C210*%
X110800000Y-70130000D03*
X110800000Y-69170000D03*
%TD*%
D23*
%TO.C,R408*%
X120050000Y-75220000D03*
X120050000Y-76240000D03*
%TD*%
D25*
%TO.C,R104*%
X94780000Y-79025000D03*
X94780000Y-78005000D03*
%TD*%
D31*
%TO.C,D103*%
X103100000Y-75915000D03*
X103100000Y-76885000D03*
%TD*%
D32*
%TO.C,C209*%
X109575000Y-68000000D03*
X108025000Y-68000000D03*
%TD*%
D14*
%TO.C,C404*%
X122760000Y-77460000D03*
X123720000Y-77460000D03*
%TD*%
D24*
%TO.C,R302*%
X110630000Y-73410000D03*
X109610000Y-73410000D03*
%TD*%
D21*
%TO.C,D501*%
X86986073Y-79485000D03*
X86986073Y-78515000D03*
%TD*%
D25*
%TO.C,R308*%
X124680000Y-70440000D03*
X124680000Y-69420000D03*
%TD*%
D12*
%TO.C,C405*%
X121270000Y-77460000D03*
X120310000Y-77460000D03*
%TD*%
D30*
%TO.C,C103*%
X95980000Y-79955000D03*
X95980000Y-78995000D03*
%TD*%
D24*
%TO.C,R305*%
X116230000Y-78300000D03*
X115210000Y-78300000D03*
%TD*%
D25*
%TO.C,R103*%
X95990000Y-78010000D03*
X95990000Y-76990000D03*
%TD*%
%TO.C,R105*%
X101800000Y-76940000D03*
X101800000Y-75920000D03*
%TD*%
D23*
%TO.C,R404*%
X119610000Y-66970000D03*
X119610000Y-67990000D03*
%TD*%
D33*
%TO.C,U203*%
X106140000Y-77980000D03*
D34*
X106790000Y-77980000D03*
D35*
X106140000Y-77120000D03*
D36*
X106790000Y-77120000D03*
D37*
X106465000Y-77550000D03*
%TD*%
D30*
%TO.C,C204*%
X114275000Y-68055000D03*
X114275000Y-67095000D03*
%TD*%
D14*
%TO.C,C206*%
X105980000Y-78920000D03*
X106940000Y-78920000D03*
%TD*%
%TO.C,C403*%
X125060000Y-72880000D03*
X126020000Y-72880000D03*
%TD*%
D15*
%TO.C,D305*%
X126180000Y-66720000D03*
X126180000Y-68295000D03*
%TD*%
D38*
%TO.C,C101*%
X92460000Y-75095000D03*
X92460000Y-78045000D03*
%TD*%
D21*
%TO.C,D303*%
X108750000Y-66820000D03*
X108750000Y-65850000D03*
%TD*%
D14*
%TO.C,C214*%
X114120000Y-68990000D03*
X115080000Y-68990000D03*
%TD*%
D39*
%TO.C,SW501*%
X90750000Y-68851000D03*
X89750000Y-68851000D03*
X88750000Y-68851000D03*
D40*
X92750000Y-67461000D03*
X86750000Y-67461000D03*
%TD*%
D30*
%TO.C,C203*%
X111475000Y-68055000D03*
X111475000Y-67095000D03*
%TD*%
D14*
%TO.C,C205*%
X105990000Y-76170000D03*
X106950000Y-76170000D03*
%TD*%
D41*
%TO.C,D301*%
X94915000Y-71797500D03*
X95885000Y-71797500D03*
%TD*%
D23*
%TO.C,R402*%
X116270000Y-69040000D03*
X116270000Y-70060000D03*
%TD*%
D42*
%TO.C,R106*%
X94050000Y-79915000D03*
X95070000Y-79915000D03*
%TD*%
D25*
%TO.C,R307*%
X123180000Y-70440000D03*
X123180000Y-69420000D03*
%TD*%
D42*
%TO.C,R405*%
X123120000Y-72900000D03*
X124140000Y-72900000D03*
%TD*%
D26*
%TO.C,C502*%
X93270000Y-69760000D03*
X93270000Y-70720000D03*
%TD*%
D23*
%TO.C,R503*%
X131900000Y-69650000D03*
X131900000Y-70670000D03*
%TD*%
D31*
%TO.C,D102*%
X90100000Y-78815000D03*
X90100000Y-79785000D03*
%TD*%
D30*
%TO.C,C302*%
X116700000Y-77380000D03*
X116700000Y-76420000D03*
%TD*%
D14*
%TO.C,C217*%
X114530000Y-73640000D03*
X115490000Y-73640000D03*
%TD*%
D30*
%TO.C,C202*%
X109800000Y-70130000D03*
X109800000Y-69170000D03*
%TD*%
D43*
%TO.C,D101*%
X101800000Y-79630000D03*
X101800000Y-78055000D03*
%TD*%
D21*
%TO.C,D304*%
X107800000Y-66820000D03*
X107800000Y-65850000D03*
%TD*%
D27*
%TO.C,C215*%
X117125000Y-74800000D03*
X118675000Y-74800000D03*
%TD*%
D44*
%TO.C,C102*%
X94786073Y-75125000D03*
X94786073Y-76675000D03*
%TD*%
D25*
%TO.C,R102*%
X95986073Y-76150000D03*
X95986073Y-75130000D03*
%TD*%
D23*
%TO.C,R504*%
X131900000Y-74840000D03*
X131900000Y-75860000D03*
%TD*%
%TO.C,R406*%
X118660000Y-66980000D03*
X118660000Y-68000000D03*
%TD*%
D24*
%TO.C,R304*%
X114320000Y-78300000D03*
X113300000Y-78300000D03*
%TD*%
D15*
%TO.C,D307*%
X124690000Y-66720000D03*
X124690000Y-68295000D03*
%TD*%
D25*
%TO.C,R306*%
X126180000Y-70440000D03*
X126180000Y-69420000D03*
%TD*%
D45*
%TO.C,U301*%
X112710000Y-70420000D03*
X113110000Y-70420000D03*
X113510000Y-70420000D03*
X113910000Y-70420000D03*
X114310000Y-70420000D03*
X114710000Y-70420000D03*
X112710000Y-70820000D03*
X113110000Y-70820000D03*
X113510000Y-70820000D03*
X113910000Y-70820000D03*
X114310000Y-70820000D03*
X114710000Y-70820000D03*
X112710000Y-71220000D03*
X113110000Y-71220000D03*
X113510000Y-71220000D03*
X113910000Y-71220000D03*
X114310000Y-71220000D03*
X114710000Y-71220000D03*
X112710000Y-71620000D03*
X113110000Y-71620000D03*
X113510000Y-71620000D03*
X113910000Y-71620000D03*
X114310000Y-71620000D03*
X114710000Y-71620000D03*
X112710000Y-72020000D03*
X113110000Y-72020000D03*
X113510000Y-72020000D03*
X113910000Y-72020000D03*
X114310000Y-72020000D03*
X114710000Y-72020000D03*
X112710000Y-72420000D03*
X113110000Y-72420000D03*
X113510000Y-72420000D03*
X113910000Y-72420000D03*
X114310000Y-72420000D03*
X114710000Y-72420000D03*
%TD*%
M02*
