%TF.GenerationSoftware,KiCad,Pcbnew,9.0.6*%
%TF.CreationDate,2025-12-28T22:26:22+01:00*%
%TF.ProjectId,VoxSense,566f7853-656e-4736-952e-6b696361645f,1.0*%
%TF.SameCoordinates,Original*%
%TF.FileFunction,Copper,L2,Inr*%
%TF.FilePolarity,Positive*%
%FSLAX46Y46*%
G04 Gerber Fmt 4.6, Leading zero omitted, Abs format (unit mm)*
G04 Created by KiCad (PCBNEW 9.0.6) date 2025-12-28 22:26:22*
%MOMM*%
%LPD*%
G01*
G04 APERTURE LIST*
G04 Aperture macros list*
%AMRoundRect*
0 Rectangle with rounded corners*
0 $1 Rounding radius*
0 $2 $3 $4 $5 $6 $7 $8 $9 X,Y pos of 4 corners*
0 Add a 4 corners polygon primitive as box body*
4,1,4,$2,$3,$4,$5,$6,$7,$8,$9,$2,$3,0*
0 Add four circle primitives for the rounded corners*
1,1,$1+$1,$2,$3*
1,1,$1+$1,$4,$5*
1,1,$1+$1,$6,$7*
1,1,$1+$1,$8,$9*
0 Add four rect primitives between the rounded corners*
20,1,$1+$1,$2,$3,$4,$5,0*
20,1,$1+$1,$4,$5,$6,$7,0*
20,1,$1+$1,$6,$7,$8,$9,0*
20,1,$1+$1,$8,$9,$2,$3,0*%
G04 Aperture macros list end*
%TA.AperFunction,ComponentPad*%
%ADD10C,1.397000*%
%TD*%
%TA.AperFunction,ComponentPad*%
%ADD11C,3.759200*%
%TD*%
%TA.AperFunction,ComponentPad*%
%ADD12RoundRect,0.200000X0.200000X0.450000X-0.200000X0.450000X-0.200000X-0.450000X0.200000X-0.450000X0*%
%TD*%
%TA.AperFunction,ComponentPad*%
%ADD13O,0.800000X1.300000*%
%TD*%
%TA.AperFunction,ViaPad*%
%ADD14C,0.600000*%
%TD*%
%TA.AperFunction,ViaPad*%
%ADD15C,0.500000*%
%TD*%
G04 APERTURE END LIST*
D10*
%TO.N,/Connectivity/VOX_RX_P*%
%TO.C,J501*%
X81435101Y-68409900D03*
%TO.N,/Connectivity/VOX_RX_N*%
X83975101Y-69679900D03*
%TO.N,VCC*%
X81435101Y-70949900D03*
%TO.N,/Connectivity/VOX_CLK_P*%
X83975101Y-72219900D03*
%TO.N,/Connectivity/VOX_CLK_N*%
X81435101Y-73489900D03*
%TO.N,GND*%
X83975101Y-74759900D03*
%TO.N,/Connectivity/VOX_TX_N*%
X81435101Y-76029900D03*
%TO.N,/Connectivity/VOX_TX_P*%
X83975101Y-77299900D03*
D11*
%TO.N,GND*%
X75085101Y-67139900D03*
X75085101Y-78569900D03*
%TD*%
D12*
%TO.N,GND*%
%TO.C,J302*%
X104486073Y-69750000D03*
D13*
%TO.N,~{CRESET}*%
X103236073Y-69750000D03*
%TO.N,/System/CDONE*%
X101986073Y-69750000D03*
%TO.N,/System/FLASH_SCK_NOESD*%
X100736073Y-69750000D03*
%TO.N,/System/FLASH_MISO_NOESD*%
X99486073Y-69750000D03*
%TO.N,/System/FLASH_MOSI_NOESD*%
X98236073Y-69750000D03*
%TO.N,/System/FLASH_~{CS}_NOESD*%
X96986073Y-69750000D03*
%TO.N,VCCD*%
X95736073Y-69750000D03*
%TD*%
D10*
%TO.N,/Connectivity/VOX_RX_OUT_P*%
%TO.C,J502*%
X137447000Y-77299900D03*
%TO.N,/Connectivity/VOX_RX_OUT_N*%
X134907000Y-76029900D03*
%TO.N,VCC*%
X137447000Y-74759900D03*
%TO.N,/Connectivity/VOX_CLK_P*%
X134907000Y-73489900D03*
%TO.N,/Connectivity/VOX_CLK_N*%
X137447000Y-72219900D03*
%TO.N,GND*%
X134907000Y-70949900D03*
%TO.N,/Connectivity/VOX_TX_N*%
X137447000Y-69679900D03*
%TO.N,/Connectivity/VOX_TX_P*%
X134907000Y-68409900D03*
D11*
%TO.N,GND*%
X143797000Y-78569900D03*
X143797000Y-67139900D03*
%TD*%
D14*
%TO.N,GND*%
X82190000Y-77530000D03*
X136200000Y-78500000D03*
X102600000Y-71000000D03*
X130500000Y-66800000D03*
X132300000Y-68500000D03*
X121200000Y-71900000D03*
X105800000Y-65600000D03*
X96000000Y-65900000D03*
X79900000Y-73800000D03*
X77400000Y-71400000D03*
X75800000Y-74700000D03*
X78600000Y-66400000D03*
X83600000Y-66300000D03*
X70900000Y-69300000D03*
X73000000Y-70900000D03*
X68700000Y-74700000D03*
X70700000Y-78300000D03*
X69100000Y-66600000D03*
X97400000Y-74700000D03*
X99300000Y-74600000D03*
X124100000Y-75700000D03*
X127100000Y-78100000D03*
X129900000Y-77800000D03*
X149200000Y-70400000D03*
X146600000Y-75300000D03*
X149900000Y-78800000D03*
X148700000Y-66600000D03*
X139700000Y-70600000D03*
X142100000Y-72400000D03*
X139500000Y-66300000D03*
D15*
%TO.N,VCC*%
X131900000Y-79727900D03*
%TO.N,GND*%
X126650000Y-72880000D03*
X89086073Y-73049856D03*
X103385000Y-73187000D03*
X107600000Y-76170000D03*
X128360648Y-69213765D03*
X108775000Y-68000000D03*
X126340000Y-74570000D03*
X91196597Y-70571529D03*
X117075000Y-66500000D03*
X107100000Y-65850000D03*
X122900000Y-74125000D03*
X129200000Y-74600000D03*
X112100000Y-74900000D03*
X129200000Y-76100000D03*
X86170000Y-74600000D03*
X111850000Y-78877900D03*
X109450000Y-65850000D03*
X89086073Y-76849868D03*
X128500000Y-67200000D03*
X93796073Y-67460000D03*
X88096073Y-68840000D03*
X111800207Y-70470325D03*
X130260352Y-69187691D03*
X112836073Y-74153133D03*
X99580135Y-65730900D03*
X123720000Y-76770000D03*
X115490000Y-74200000D03*
X86170000Y-71110000D03*
D14*
X106160000Y-70160000D03*
D15*
X107560000Y-78877900D03*
X94786073Y-75925000D03*
X121610000Y-68920000D03*
X132610000Y-77840000D03*
X92510000Y-70720000D03*
X110800000Y-68550000D03*
X115600000Y-68480000D03*
X129200000Y-71100000D03*
X113700000Y-76100000D03*
X90100000Y-74600000D03*
X92383225Y-69269320D03*
X111262282Y-72895954D03*
X114275000Y-66475000D03*
D14*
X89450000Y-78750000D03*
D15*
X101256073Y-74356073D03*
X110825000Y-67100000D03*
X121250000Y-70650000D03*
X94990001Y-69198191D03*
X96586073Y-71800000D03*
X119800000Y-76950000D03*
X124720000Y-71650000D03*
X109226854Y-71838257D03*
X111600000Y-69100000D03*
X111324520Y-72108383D03*
X89086073Y-74949862D03*
X86986073Y-77800000D03*
X99601423Y-66988580D03*
X115395253Y-70271562D03*
X86746073Y-66770000D03*
X123250000Y-78840000D03*
X117500000Y-76400000D03*
X93317838Y-72080348D03*
X118660000Y-75640000D03*
X119400000Y-73880000D03*
X89090280Y-71150012D03*
%TO.N,+5V*%
X104480000Y-75910000D03*
X107800000Y-71100000D03*
X107100000Y-71100000D03*
%TO.N,+1V2_CORE*%
X111811073Y-72475000D03*
X110210000Y-67360000D03*
X111498459Y-69950624D03*
X108200000Y-74200000D03*
%TO.N,+3V3*%
X123600000Y-73600000D03*
X128600000Y-68000000D03*
X116700000Y-74160000D03*
X104700000Y-78800000D03*
X114530000Y-73640000D03*
X87000000Y-76900000D03*
X118570000Y-77000000D03*
X128360000Y-70430000D03*
X89916073Y-67710000D03*
X113850000Y-69750000D03*
X116652531Y-71349216D03*
%TO.N,~{CRESET}*%
X115700000Y-76750000D03*
X110750000Y-75750000D03*
X113700000Y-75499997D03*
%TO.N,Net-(U401-CAP)*%
X125680000Y-71350000D03*
X120470000Y-71180000D03*
%TO.N,/System/CDONE*%
X127680000Y-67507500D03*
X115730000Y-71410000D03*
X108769546Y-67400022D03*
%TO.N,/System/LED*%
X112840000Y-68380000D03*
X126180000Y-67507500D03*
%TO.N,/System/RX_LED*%
X123170000Y-67507500D03*
X112425279Y-69640000D03*
%TO.N,/System/TX_LED*%
X124670000Y-67500000D03*
X112931968Y-69961349D03*
%TO.N,/Connectivity/ARCHITECTURE_SEL*%
X94756073Y-67450000D03*
X90561073Y-70175000D03*
%TO.N,/System/FLASH_MOSI_NOESD*%
X100000000Y-71600000D03*
X98500000Y-71000000D03*
%TO.N,/System/FLASH_~{CS}*%
X105200000Y-75100000D03*
X115600000Y-75550000D03*
%TO.N,/System/FLASH_MOSI*%
X106100000Y-75500000D03*
X112810000Y-76590000D03*
%TO.N,/System/FLASH_MISO*%
X114975684Y-75549998D03*
X107750000Y-73350000D03*
%TO.N,/System/FLASH_SCK*%
X107557081Y-72587239D03*
X112210772Y-75823775D03*
%TO.N,BNO_SCL*%
X115572876Y-69698454D03*
X118600000Y-71200000D03*
%TO.N,BNO_~{RST}*%
X116300000Y-66720000D03*
X122330000Y-66850000D03*
%TO.N,/Connectivity/VOX_TX_P*%
X89086073Y-74349859D03*
X128960431Y-69197559D03*
X94790000Y-69770000D03*
X99060000Y-66730000D03*
%TO.N,/Connectivity/VOX_CLK_P*%
X113060000Y-73596485D03*
X89086073Y-75549865D03*
X128557769Y-71800000D03*
%TO.N,/Connectivity/VOX_RX_P*%
X91261073Y-69975000D03*
X111883561Y-73977488D03*
%TO.N,/Connectivity/VOX_TX_FPGA_P*%
X111820000Y-71770000D03*
X89811711Y-70096735D03*
%TO.N,/Connectivity/VOX_TX_N*%
X89086073Y-73649859D03*
X99060000Y-66030000D03*
X129660431Y-69197559D03*
X94090000Y-69770000D03*
%TO.N,/Connectivity/VOX_CLK_N*%
X113760000Y-73596485D03*
X89086073Y-76249865D03*
X128557769Y-72500000D03*
%TO.N,/Connectivity/VOX_RX_N*%
X111388585Y-73482512D03*
X91811073Y-69450000D03*
%TO.N,/Connectivity/VOX_TX_FPGA_N*%
X89316735Y-70591711D03*
X111820000Y-71070000D03*
%TO.N,/Connectivity/VOX_RX_OUT_N*%
X92816964Y-72450001D03*
X89086073Y-72450000D03*
X128750000Y-75000000D03*
%TO.N,/Connectivity/VOX_RX_OUT_P*%
X89086073Y-71750000D03*
X92816964Y-71750001D03*
X128750000Y-75700000D03*
%TD*%
%TA.AperFunction,Conductor*%
%TO.N,GND*%
G36*
X74194277Y-65203074D02*
G01*
X74215951Y-65255400D01*
X74194277Y-65307726D01*
X74178951Y-65319486D01*
X73955099Y-65448725D01*
X73955093Y-65448729D01*
X73744020Y-65610692D01*
X73702990Y-65651723D01*
X73988661Y-65937394D01*
X73882595Y-66043460D01*
X73596924Y-65757789D01*
X73555893Y-65798819D01*
X73393930Y-66009892D01*
X73393926Y-66009898D01*
X73260901Y-66240305D01*
X73260898Y-66240313D01*
X73159089Y-66486103D01*
X73159085Y-66486114D01*
X73090226Y-66743101D01*
X73055501Y-67006874D01*
X73055501Y-67272925D01*
X73090226Y-67536698D01*
X73159085Y-67793685D01*
X73159089Y-67793696D01*
X73260898Y-68039486D01*
X73260901Y-68039494D01*
X73393926Y-68269901D01*
X73393930Y-68269907D01*
X73555893Y-68480980D01*
X73596924Y-68522011D01*
X73882595Y-68236340D01*
X73988661Y-68342406D01*
X73702990Y-68628077D01*
X73744020Y-68669107D01*
X73955093Y-68831070D01*
X73955099Y-68831074D01*
X74185506Y-68964099D01*
X74185514Y-68964102D01*
X74431304Y-69065911D01*
X74431315Y-69065915D01*
X74688303Y-69134774D01*
X74688302Y-69134774D01*
X74952076Y-69169500D01*
X75218126Y-69169500D01*
X75481899Y-69134774D01*
X75738886Y-69065915D01*
X75738897Y-69065911D01*
X75984687Y-68964102D01*
X75984695Y-68964099D01*
X76215102Y-68831074D01*
X76215108Y-68831070D01*
X76426181Y-68669107D01*
X76467212Y-68628077D01*
X76181541Y-68342406D01*
X76287607Y-68236340D01*
X76573278Y-68522011D01*
X76614308Y-68480980D01*
X76733014Y-68326281D01*
X80586101Y-68326281D01*
X80586101Y-68493519D01*
X80593405Y-68530238D01*
X80618726Y-68657538D01*
X80618729Y-68657548D01*
X80682724Y-68812047D01*
X80682726Y-68812050D01*
X80682727Y-68812052D01*
X80695437Y-68831074D01*
X80774901Y-68950001D01*
X80775640Y-68951106D01*
X80893895Y-69069361D01*
X81032949Y-69162274D01*
X81032954Y-69162276D01*
X81032953Y-69162276D01*
X81133895Y-69204087D01*
X81187457Y-69226273D01*
X81351482Y-69258900D01*
X81351484Y-69258900D01*
X81518718Y-69258900D01*
X81518720Y-69258900D01*
X81682745Y-69226273D01*
X81837253Y-69162274D01*
X81976307Y-69069361D01*
X82094562Y-68951106D01*
X82187475Y-68812052D01*
X82251474Y-68657544D01*
X82284101Y-68493519D01*
X82284101Y-68327270D01*
X112439500Y-68327270D01*
X112439500Y-68432729D01*
X112466791Y-68534582D01*
X112466792Y-68534585D01*
X112466793Y-68534587D01*
X112519520Y-68625913D01*
X112594087Y-68700480D01*
X112685413Y-68753207D01*
X112787270Y-68780499D01*
X112787271Y-68780500D01*
X112787273Y-68780500D01*
X112892729Y-68780500D01*
X112892729Y-68780499D01*
X112994587Y-68753207D01*
X113085913Y-68700480D01*
X113160480Y-68625913D01*
X113213207Y-68534587D01*
X113240499Y-68432729D01*
X113240500Y-68432729D01*
X113240500Y-68327271D01*
X113240499Y-68327270D01*
X113238679Y-68320479D01*
X113213207Y-68225413D01*
X113160480Y-68134087D01*
X113085913Y-68059520D01*
X113035614Y-68030480D01*
X112994591Y-68006795D01*
X112994582Y-68006791D01*
X112892729Y-67979500D01*
X112892727Y-67979500D01*
X112787273Y-67979500D01*
X112787271Y-67979500D01*
X112685417Y-68006791D01*
X112685408Y-68006795D01*
X112594086Y-68059520D01*
X112519520Y-68134086D01*
X112466795Y-68225408D01*
X112466791Y-68225417D01*
X112439500Y-68327270D01*
X82284101Y-68327270D01*
X82284101Y-68326281D01*
X82251474Y-68162256D01*
X82239806Y-68134086D01*
X82187477Y-68007752D01*
X82187476Y-68007750D01*
X82187475Y-68007748D01*
X82094562Y-67868694D01*
X81976307Y-67750439D01*
X81969533Y-67745913D01*
X81931502Y-67720501D01*
X81837253Y-67657526D01*
X81837249Y-67657524D01*
X81837247Y-67657523D01*
X81837248Y-67657523D01*
X81682749Y-67593528D01*
X81682739Y-67593525D01*
X81573173Y-67571731D01*
X81518720Y-67560900D01*
X81351482Y-67560900D01*
X81304982Y-67570149D01*
X81187462Y-67593525D01*
X81187452Y-67593528D01*
X81032953Y-67657523D01*
X80893895Y-67750438D01*
X80893894Y-67750440D01*
X80775641Y-67868693D01*
X80775639Y-67868694D01*
X80682724Y-68007752D01*
X80618729Y-68162251D01*
X80618726Y-68162261D01*
X80597232Y-68270320D01*
X80586101Y-68326281D01*
X76733014Y-68326281D01*
X76770370Y-68277598D01*
X76770370Y-68277597D01*
X76776275Y-68269900D01*
X76909300Y-68039494D01*
X76909303Y-68039486D01*
X77011112Y-67793696D01*
X77011116Y-67793685D01*
X77079975Y-67536698D01*
X77085001Y-67498522D01*
X87699500Y-67498522D01*
X87699500Y-67643477D01*
X87737014Y-67783481D01*
X87737016Y-67783486D01*
X87793147Y-67880706D01*
X87809491Y-67909015D01*
X87911985Y-68011509D01*
X88037515Y-68083984D01*
X88037516Y-68083984D01*
X88037518Y-68083985D01*
X88107520Y-68102742D01*
X88177522Y-68121499D01*
X88177523Y-68121500D01*
X88177525Y-68121500D01*
X88322477Y-68121500D01*
X88322477Y-68121499D01*
X88462485Y-68083984D01*
X88588015Y-68011509D01*
X88690509Y-67909015D01*
X88762984Y-67783485D01*
X88771042Y-67753413D01*
X88796804Y-67657270D01*
X89515573Y-67657270D01*
X89515573Y-67762729D01*
X89542864Y-67864582D01*
X89542868Y-67864591D01*
X89552171Y-67880704D01*
X89595593Y-67955913D01*
X89670160Y-68030480D01*
X89761486Y-68083207D01*
X89863343Y-68110499D01*
X89863344Y-68110500D01*
X89863346Y-68110500D01*
X89968802Y-68110500D01*
X89968802Y-68110499D01*
X90070660Y-68083207D01*
X90161986Y-68030480D01*
X90236553Y-67955913D01*
X90289280Y-67864587D01*
X90316572Y-67762729D01*
X90316573Y-67762729D01*
X90316573Y-67657271D01*
X90316572Y-67657270D01*
X90308406Y-67626795D01*
X90289280Y-67555413D01*
X90289278Y-67555410D01*
X90289276Y-67555404D01*
X90275000Y-67530678D01*
X90274998Y-67530675D01*
X90256434Y-67498522D01*
X90699500Y-67498522D01*
X90699500Y-67643477D01*
X90737014Y-67783481D01*
X90737016Y-67783486D01*
X90793147Y-67880706D01*
X90809491Y-67909015D01*
X90911985Y-68011509D01*
X91037515Y-68083984D01*
X91037516Y-68083984D01*
X91037518Y-68083985D01*
X91107520Y-68102742D01*
X91177522Y-68121499D01*
X91177523Y-68121500D01*
X91177525Y-68121500D01*
X91322477Y-68121500D01*
X91322477Y-68121499D01*
X91462485Y-68083984D01*
X91588015Y-68011509D01*
X91652254Y-67947270D01*
X128199500Y-67947270D01*
X128199500Y-68052729D01*
X128226791Y-68154582D01*
X128226795Y-68154591D01*
X128252382Y-68198908D01*
X128279520Y-68245913D01*
X128354087Y-68320480D01*
X128445413Y-68373207D01*
X128547270Y-68400499D01*
X128547271Y-68400500D01*
X128547273Y-68400500D01*
X128652729Y-68400500D01*
X128652729Y-68400499D01*
X128754587Y-68373207D01*
X128835865Y-68326281D01*
X134058000Y-68326281D01*
X134058000Y-68493519D01*
X134065304Y-68530238D01*
X134090625Y-68657538D01*
X134090628Y-68657548D01*
X134154623Y-68812047D01*
X134154625Y-68812050D01*
X134154626Y-68812052D01*
X134167336Y-68831074D01*
X134246800Y-68950001D01*
X134247539Y-68951106D01*
X134365794Y-69069361D01*
X134504848Y-69162274D01*
X134504853Y-69162276D01*
X134504852Y-69162276D01*
X134605794Y-69204087D01*
X134659356Y-69226273D01*
X134823381Y-69258900D01*
X134823383Y-69258900D01*
X134990617Y-69258900D01*
X134990619Y-69258900D01*
X135154644Y-69226273D01*
X135309152Y-69162274D01*
X135448206Y-69069361D01*
X135566461Y-68951106D01*
X135659374Y-68812052D01*
X135723373Y-68657544D01*
X135756000Y-68493519D01*
X135756000Y-68326281D01*
X135723373Y-68162256D01*
X135711705Y-68134086D01*
X135659376Y-68007752D01*
X135659375Y-68007750D01*
X135659374Y-68007748D01*
X135566461Y-67868694D01*
X135448206Y-67750439D01*
X135441432Y-67745913D01*
X135403401Y-67720501D01*
X135309152Y-67657526D01*
X135309148Y-67657524D01*
X135309146Y-67657523D01*
X135309147Y-67657523D01*
X135154648Y-67593528D01*
X135154638Y-67593525D01*
X135044798Y-67571677D01*
X134990619Y-67560900D01*
X134823381Y-67560900D01*
X134776881Y-67570149D01*
X134659361Y-67593525D01*
X134659351Y-67593528D01*
X134504852Y-67657523D01*
X134365794Y-67750438D01*
X134365793Y-67750440D01*
X134247540Y-67868693D01*
X134247538Y-67868694D01*
X134154623Y-68007752D01*
X134090628Y-68162251D01*
X134090625Y-68162261D01*
X134069131Y-68270320D01*
X134058000Y-68326281D01*
X128835865Y-68326281D01*
X128845913Y-68320480D01*
X128920480Y-68245913D01*
X128973207Y-68154587D01*
X129000499Y-68052729D01*
X129000500Y-68052729D01*
X129000500Y-67947271D01*
X129000499Y-67947270D01*
X128982028Y-67878336D01*
X128973207Y-67845413D01*
X128920480Y-67754087D01*
X128845913Y-67679520D01*
X128783481Y-67643475D01*
X128754591Y-67626795D01*
X128754582Y-67626791D01*
X128652729Y-67599500D01*
X128652727Y-67599500D01*
X128547273Y-67599500D01*
X128547271Y-67599500D01*
X128445417Y-67626791D01*
X128445408Y-67626795D01*
X128354086Y-67679520D01*
X128279520Y-67754086D01*
X128226795Y-67845408D01*
X128226791Y-67845417D01*
X128199500Y-67947270D01*
X91652254Y-67947270D01*
X91690509Y-67909015D01*
X91762984Y-67783485D01*
X91800499Y-67643477D01*
X91800500Y-67643477D01*
X91800500Y-67498523D01*
X91800499Y-67498522D01*
X91791272Y-67464086D01*
X91773368Y-67397270D01*
X94355573Y-67397270D01*
X94355573Y-67502729D01*
X94382864Y-67604582D01*
X94382868Y-67604591D01*
X94426682Y-67680479D01*
X94435593Y-67695913D01*
X94510160Y-67770480D01*
X94601486Y-67823207D01*
X94703343Y-67850499D01*
X94703344Y-67850500D01*
X94703346Y-67850500D01*
X94808802Y-67850500D01*
X94808802Y-67850499D01*
X94910660Y-67823207D01*
X95001986Y-67770480D01*
X95076553Y-67695913D01*
X95129280Y-67604587D01*
X95156572Y-67502729D01*
X95156573Y-67502729D01*
X95156573Y-67397271D01*
X95147014Y-67361599D01*
X95147014Y-67361598D01*
X95143181Y-67347292D01*
X108369046Y-67347292D01*
X108369046Y-67452751D01*
X108396337Y-67554604D01*
X108396341Y-67554613D01*
X108447646Y-67643475D01*
X108449066Y-67645935D01*
X108523633Y-67720502D01*
X108614959Y-67773229D01*
X108716816Y-67800521D01*
X108716817Y-67800522D01*
X108716819Y-67800522D01*
X108822275Y-67800522D01*
X108822275Y-67800521D01*
X108924133Y-67773229D01*
X109015459Y-67720502D01*
X109090026Y-67645935D01*
X109142753Y-67554609D01*
X109170045Y-67452751D01*
X109170046Y-67452751D01*
X109170046Y-67347293D01*
X109170045Y-67347292D01*
X109169540Y-67345408D01*
X109159321Y-67307270D01*
X109809500Y-67307270D01*
X109809500Y-67412729D01*
X109836791Y-67514582D01*
X109836795Y-67514591D01*
X109885817Y-67599500D01*
X109889520Y-67605913D01*
X109964087Y-67680480D01*
X110055413Y-67733207D01*
X110157270Y-67760499D01*
X110157271Y-67760500D01*
X110157273Y-67760500D01*
X110262729Y-67760500D01*
X110262729Y-67760499D01*
X110364587Y-67733207D01*
X110455913Y-67680480D01*
X110530480Y-67605913D01*
X110583207Y-67514587D01*
X110599234Y-67454773D01*
X110599235Y-67454770D01*
X122769500Y-67454770D01*
X122769500Y-67560229D01*
X122795503Y-67657273D01*
X122796793Y-67662087D01*
X122796794Y-67662089D01*
X122796795Y-67662091D01*
X122807412Y-67680480D01*
X122849520Y-67753413D01*
X122924087Y-67827980D01*
X123015413Y-67880707D01*
X123117270Y-67907999D01*
X123117271Y-67908000D01*
X123117273Y-67908000D01*
X123222729Y-67908000D01*
X123222729Y-67907999D01*
X123324587Y-67880707D01*
X123415913Y-67827980D01*
X123490480Y-67753413D01*
X123543207Y-67662087D01*
X123544498Y-67657271D01*
X123552664Y-67626791D01*
X123570499Y-67560229D01*
X123570500Y-67560229D01*
X123570500Y-67454770D01*
X123568490Y-67447270D01*
X124269500Y-67447270D01*
X124269500Y-67552729D01*
X124296791Y-67654582D01*
X124296795Y-67654591D01*
X124334848Y-67720501D01*
X124349520Y-67745913D01*
X124424087Y-67820480D01*
X124515413Y-67873207D01*
X124617270Y-67900499D01*
X124617271Y-67900500D01*
X124617273Y-67900500D01*
X124722729Y-67900500D01*
X124722729Y-67900499D01*
X124824587Y-67873207D01*
X124915913Y-67820480D01*
X124990480Y-67745913D01*
X125043207Y-67654587D01*
X125070499Y-67552729D01*
X125070500Y-67552729D01*
X125070500Y-67454770D01*
X125779500Y-67454770D01*
X125779500Y-67560229D01*
X125805503Y-67657273D01*
X125806793Y-67662087D01*
X125806794Y-67662089D01*
X125806795Y-67662091D01*
X125817412Y-67680480D01*
X125859520Y-67753413D01*
X125934087Y-67827980D01*
X126025413Y-67880707D01*
X126127270Y-67907999D01*
X126127271Y-67908000D01*
X126127273Y-67908000D01*
X126232729Y-67908000D01*
X126232729Y-67907999D01*
X126334587Y-67880707D01*
X126425913Y-67827980D01*
X126500480Y-67753413D01*
X126553207Y-67662087D01*
X126554498Y-67657271D01*
X126562664Y-67626791D01*
X126580499Y-67560229D01*
X126580500Y-67560229D01*
X126580500Y-67454771D01*
X126580499Y-67454770D01*
X127279500Y-67454770D01*
X127279500Y-67560229D01*
X127305503Y-67657273D01*
X127306793Y-67662087D01*
X127306794Y-67662089D01*
X127306795Y-67662091D01*
X127317412Y-67680480D01*
X127359520Y-67753413D01*
X127434087Y-67827980D01*
X127525413Y-67880707D01*
X127627270Y-67907999D01*
X127627271Y-67908000D01*
X127627273Y-67908000D01*
X127732729Y-67908000D01*
X127732729Y-67907999D01*
X127834587Y-67880707D01*
X127925913Y-67827980D01*
X128000480Y-67753413D01*
X128053207Y-67662087D01*
X128054498Y-67657271D01*
X128062664Y-67626791D01*
X128080499Y-67560229D01*
X128080500Y-67560229D01*
X128080500Y-67454771D01*
X128080499Y-67454770D01*
X128079957Y-67452749D01*
X128053207Y-67352913D01*
X128000480Y-67261587D01*
X127925913Y-67187020D01*
X127897263Y-67170479D01*
X127834591Y-67134295D01*
X127834582Y-67134291D01*
X127732729Y-67107000D01*
X127732727Y-67107000D01*
X127627273Y-67107000D01*
X127627271Y-67107000D01*
X127525417Y-67134291D01*
X127525408Y-67134295D01*
X127434086Y-67187020D01*
X127359520Y-67261586D01*
X127306795Y-67352908D01*
X127306791Y-67352917D01*
X127279500Y-67454770D01*
X126580499Y-67454770D01*
X126579957Y-67452749D01*
X126553207Y-67352913D01*
X126500480Y-67261587D01*
X126425913Y-67187020D01*
X126397263Y-67170479D01*
X126334591Y-67134295D01*
X126334582Y-67134291D01*
X126232729Y-67107000D01*
X126232727Y-67107000D01*
X126127273Y-67107000D01*
X126127271Y-67107000D01*
X126025417Y-67134291D01*
X126025408Y-67134295D01*
X125934086Y-67187020D01*
X125859520Y-67261586D01*
X125806795Y-67352908D01*
X125806791Y-67352917D01*
X125779500Y-67454770D01*
X125070500Y-67454770D01*
X125070500Y-67447271D01*
X125070499Y-67447270D01*
X125061243Y-67412727D01*
X125043207Y-67345413D01*
X124990480Y-67254087D01*
X124915913Y-67179520D01*
X124837581Y-67134295D01*
X124824591Y-67126795D01*
X124824582Y-67126791D01*
X124722729Y-67099500D01*
X124722727Y-67099500D01*
X124617273Y-67099500D01*
X124617271Y-67099500D01*
X124515417Y-67126791D01*
X124515408Y-67126795D01*
X124424086Y-67179520D01*
X124349520Y-67254086D01*
X124296795Y-67345408D01*
X124296791Y-67345417D01*
X124269500Y-67447270D01*
X123568490Y-67447270D01*
X123543208Y-67352917D01*
X123543207Y-67352913D01*
X123490480Y-67261587D01*
X123415913Y-67187020D01*
X123387263Y-67170479D01*
X123324591Y-67134295D01*
X123324582Y-67134291D01*
X123222729Y-67107000D01*
X123222727Y-67107000D01*
X123117273Y-67107000D01*
X123117271Y-67107000D01*
X123015417Y-67134291D01*
X123015408Y-67134295D01*
X122924086Y-67187020D01*
X122849520Y-67261586D01*
X122796795Y-67352908D01*
X122796791Y-67352917D01*
X122769500Y-67454770D01*
X110599235Y-67454770D01*
X110605666Y-67430770D01*
X110610499Y-67412729D01*
X110610500Y-67412729D01*
X110610500Y-67307271D01*
X110610499Y-67307270D01*
X110601296Y-67272925D01*
X110583207Y-67205413D01*
X110530480Y-67114087D01*
X110455913Y-67039520D01*
X110433904Y-67026813D01*
X110364591Y-66986795D01*
X110364582Y-66986791D01*
X110262729Y-66959500D01*
X110262727Y-66959500D01*
X110157273Y-66959500D01*
X110157271Y-66959500D01*
X110055417Y-66986791D01*
X110055408Y-66986795D01*
X109964086Y-67039520D01*
X109889520Y-67114086D01*
X109836795Y-67205408D01*
X109836791Y-67205417D01*
X109809500Y-67307270D01*
X109159321Y-67307270D01*
X109142753Y-67245435D01*
X109090026Y-67154109D01*
X109015459Y-67079542D01*
X108978175Y-67058016D01*
X108924137Y-67026817D01*
X108924128Y-67026813D01*
X108822275Y-66999522D01*
X108822273Y-66999522D01*
X108716819Y-66999522D01*
X108716817Y-66999522D01*
X108614963Y-67026813D01*
X108614954Y-67026817D01*
X108523632Y-67079542D01*
X108449066Y-67154108D01*
X108396341Y-67245430D01*
X108396337Y-67245439D01*
X108369046Y-67347292D01*
X95143181Y-67347292D01*
X95129280Y-67295413D01*
X95076553Y-67204087D01*
X95001986Y-67129520D01*
X94975255Y-67114087D01*
X94910664Y-67076795D01*
X94910655Y-67076791D01*
X94808802Y-67049500D01*
X94808800Y-67049500D01*
X94703346Y-67049500D01*
X94703344Y-67049500D01*
X94601490Y-67076791D01*
X94601481Y-67076795D01*
X94510159Y-67129520D01*
X94435593Y-67204086D01*
X94382868Y-67295408D01*
X94382864Y-67295417D01*
X94355573Y-67397270D01*
X91773368Y-67397270D01*
X91762984Y-67358515D01*
X91690509Y-67232985D01*
X91588015Y-67130491D01*
X91570710Y-67120500D01*
X91462486Y-67058016D01*
X91462481Y-67058014D01*
X91322477Y-67020500D01*
X91322475Y-67020500D01*
X91177525Y-67020500D01*
X91177523Y-67020500D01*
X91037518Y-67058014D01*
X91037513Y-67058016D01*
X90911984Y-67130491D01*
X90809491Y-67232984D01*
X90737016Y-67358513D01*
X90737014Y-67358518D01*
X90699500Y-67498522D01*
X90256434Y-67498522D01*
X90236552Y-67464086D01*
X90161986Y-67389520D01*
X90070664Y-67336795D01*
X90070655Y-67336791D01*
X89968802Y-67309500D01*
X89968800Y-67309500D01*
X89863346Y-67309500D01*
X89863344Y-67309500D01*
X89761490Y-67336791D01*
X89761481Y-67336795D01*
X89670159Y-67389520D01*
X89595593Y-67464086D01*
X89542868Y-67555408D01*
X89542864Y-67555417D01*
X89515573Y-67657270D01*
X88796804Y-67657270D01*
X88800500Y-67643477D01*
X88800500Y-67498523D01*
X88800499Y-67498522D01*
X88788776Y-67454773D01*
X88773369Y-67397271D01*
X88762985Y-67358518D01*
X88762983Y-67358513D01*
X88702692Y-67254087D01*
X88690509Y-67232985D01*
X88588015Y-67130491D01*
X88570710Y-67120500D01*
X88462486Y-67058016D01*
X88462481Y-67058014D01*
X88322477Y-67020500D01*
X88322475Y-67020500D01*
X88177525Y-67020500D01*
X88177523Y-67020500D01*
X88037518Y-67058014D01*
X88037513Y-67058016D01*
X87911984Y-67130491D01*
X87809491Y-67232984D01*
X87737016Y-67358513D01*
X87737014Y-67358518D01*
X87699500Y-67498522D01*
X77085001Y-67498522D01*
X77114701Y-67272925D01*
X77114701Y-67006874D01*
X77079975Y-66743101D01*
X77011116Y-66486114D01*
X77011112Y-66486103D01*
X76909303Y-66240313D01*
X76909300Y-66240305D01*
X76776276Y-66009900D01*
X76776271Y-66009892D01*
X76751239Y-65977270D01*
X98659500Y-65977270D01*
X98659500Y-66082729D01*
X98686791Y-66184582D01*
X98686795Y-66184591D01*
X98739520Y-66275913D01*
X98791281Y-66327674D01*
X98812955Y-66380000D01*
X98791281Y-66432326D01*
X98739520Y-66484086D01*
X98686795Y-66575408D01*
X98686791Y-66575417D01*
X98659500Y-66677270D01*
X98659500Y-66782729D01*
X98686791Y-66884582D01*
X98686795Y-66884591D01*
X98739520Y-66975913D01*
X98814087Y-67050480D01*
X98905413Y-67103207D01*
X99007270Y-67130499D01*
X99007271Y-67130500D01*
X99007273Y-67130500D01*
X99112729Y-67130500D01*
X99112729Y-67130499D01*
X99214587Y-67103207D01*
X99305913Y-67050480D01*
X99380480Y-66975913D01*
X99433207Y-66884587D01*
X99460499Y-66782729D01*
X99460500Y-66782729D01*
X99460500Y-66677271D01*
X99460499Y-66677267D01*
X99457820Y-66667270D01*
X115899500Y-66667270D01*
X115899500Y-66772729D01*
X115926791Y-66874582D01*
X115926795Y-66874591D01*
X115943041Y-66902729D01*
X115979520Y-66965913D01*
X116054087Y-67040480D01*
X116145413Y-67093207D01*
X116247270Y-67120499D01*
X116247271Y-67120500D01*
X116247273Y-67120500D01*
X116352729Y-67120500D01*
X116352729Y-67120499D01*
X116454587Y-67093207D01*
X116545913Y-67040480D01*
X116620480Y-66965913D01*
X116673207Y-66874587D01*
X116693924Y-66797270D01*
X121929500Y-66797270D01*
X121929500Y-66902729D01*
X121956791Y-67004582D01*
X121956795Y-67004591D01*
X121977515Y-67040479D01*
X122009520Y-67095913D01*
X122084087Y-67170480D01*
X122175413Y-67223207D01*
X122277270Y-67250499D01*
X122277271Y-67250500D01*
X122277273Y-67250500D01*
X122382729Y-67250500D01*
X122382729Y-67250499D01*
X122484587Y-67223207D01*
X122575913Y-67170480D01*
X122650480Y-67095913D01*
X122703207Y-67004587D01*
X122705878Y-66994617D01*
X122708376Y-66985297D01*
X122730499Y-66902729D01*
X122730500Y-66902729D01*
X122730500Y-66797271D01*
X122730499Y-66797270D01*
X122723923Y-66772729D01*
X122703207Y-66695413D01*
X122650480Y-66604087D01*
X122575913Y-66529520D01*
X122552298Y-66515886D01*
X122484591Y-66476795D01*
X122484582Y-66476791D01*
X122382729Y-66449500D01*
X122382727Y-66449500D01*
X122277273Y-66449500D01*
X122277271Y-66449500D01*
X122175417Y-66476791D01*
X122175408Y-66476795D01*
X122084086Y-66529520D01*
X122009520Y-66604086D01*
X121956795Y-66695408D01*
X121956791Y-66695417D01*
X121929500Y-66797270D01*
X116693924Y-66797270D01*
X116700500Y-66772727D01*
X116700500Y-66667273D01*
X116700500Y-66667271D01*
X116700499Y-66667270D01*
X116683569Y-66604087D01*
X116673207Y-66565413D01*
X116620480Y-66474087D01*
X116545913Y-66399520D01*
X116454591Y-66346795D01*
X116454582Y-66346791D01*
X116352729Y-66319500D01*
X116352727Y-66319500D01*
X116247273Y-66319500D01*
X116247271Y-66319500D01*
X116145417Y-66346791D01*
X116145408Y-66346795D01*
X116054086Y-66399520D01*
X115979520Y-66474086D01*
X115926795Y-66565408D01*
X115926791Y-66565417D01*
X115899500Y-66667270D01*
X99457820Y-66667270D01*
X99433208Y-66575417D01*
X99433207Y-66575413D01*
X99380480Y-66484087D01*
X99328719Y-66432326D01*
X99307045Y-66380000D01*
X99328719Y-66327674D01*
X99336893Y-66319500D01*
X99380480Y-66275913D01*
X99433207Y-66184587D01*
X99460499Y-66082729D01*
X99460500Y-66082729D01*
X99460500Y-65977271D01*
X99460499Y-65977270D01*
X99433208Y-65875417D01*
X99433207Y-65875413D01*
X99380480Y-65784087D01*
X99305913Y-65709520D01*
X99214591Y-65656795D01*
X99214582Y-65656791D01*
X99112729Y-65629500D01*
X99112727Y-65629500D01*
X99007273Y-65629500D01*
X99007271Y-65629500D01*
X98905417Y-65656791D01*
X98905408Y-65656795D01*
X98814086Y-65709520D01*
X98739520Y-65784086D01*
X98686795Y-65875408D01*
X98686791Y-65875417D01*
X98659500Y-65977270D01*
X76751239Y-65977270D01*
X76614308Y-65798819D01*
X76573278Y-65757789D01*
X76287607Y-66043460D01*
X76181541Y-65937394D01*
X76467212Y-65651723D01*
X76426181Y-65610692D01*
X76215108Y-65448729D01*
X76215102Y-65448725D01*
X75991251Y-65319486D01*
X75956773Y-65274553D01*
X75964165Y-65218400D01*
X76009098Y-65183922D01*
X76028251Y-65181400D01*
X142853850Y-65181400D01*
X142906176Y-65203074D01*
X142927850Y-65255400D01*
X142906176Y-65307726D01*
X142890850Y-65319486D01*
X142666998Y-65448725D01*
X142666992Y-65448729D01*
X142455919Y-65610692D01*
X142414889Y-65651723D01*
X142700560Y-65937394D01*
X142594494Y-66043460D01*
X142308823Y-65757789D01*
X142267792Y-65798819D01*
X142105829Y-66009892D01*
X142105825Y-66009898D01*
X141972800Y-66240305D01*
X141972797Y-66240313D01*
X141870988Y-66486103D01*
X141870984Y-66486114D01*
X141802125Y-66743101D01*
X141767400Y-67006874D01*
X141767400Y-67272925D01*
X141802125Y-67536698D01*
X141870984Y-67793685D01*
X141870988Y-67793696D01*
X141972797Y-68039486D01*
X141972800Y-68039494D01*
X142105825Y-68269901D01*
X142105829Y-68269907D01*
X142267792Y-68480980D01*
X142308823Y-68522011D01*
X142594494Y-68236340D01*
X142700560Y-68342406D01*
X142414889Y-68628077D01*
X142455919Y-68669107D01*
X142666992Y-68831070D01*
X142666998Y-68831074D01*
X142897405Y-68964099D01*
X142897413Y-68964102D01*
X143143203Y-69065911D01*
X143143214Y-69065915D01*
X143400202Y-69134774D01*
X143400201Y-69134774D01*
X143663975Y-69169500D01*
X143930025Y-69169500D01*
X144193798Y-69134774D01*
X144450785Y-69065915D01*
X144450796Y-69065911D01*
X144696586Y-68964102D01*
X144696594Y-68964099D01*
X144927001Y-68831074D01*
X144927007Y-68831070D01*
X145138080Y-68669107D01*
X145179111Y-68628077D01*
X144893440Y-68342406D01*
X144999506Y-68236340D01*
X145285177Y-68522011D01*
X145326207Y-68480980D01*
X145488170Y-68269907D01*
X145488174Y-68269901D01*
X145621199Y-68039494D01*
X145621202Y-68039486D01*
X145723011Y-67793696D01*
X145723015Y-67793685D01*
X145791874Y-67536698D01*
X145826600Y-67272925D01*
X145826600Y-67006874D01*
X145791874Y-66743101D01*
X145723015Y-66486114D01*
X145723011Y-66486103D01*
X145621202Y-66240313D01*
X145621199Y-66240305D01*
X145488174Y-66009898D01*
X145488170Y-66009892D01*
X145326207Y-65798819D01*
X145285177Y-65757789D01*
X144999506Y-66043460D01*
X144893440Y-65937394D01*
X145179111Y-65651723D01*
X145138080Y-65610692D01*
X144927007Y-65448729D01*
X144927001Y-65448725D01*
X144703150Y-65319486D01*
X144668672Y-65274553D01*
X144676064Y-65218400D01*
X144720997Y-65183922D01*
X144740150Y-65181400D01*
X151666701Y-65181400D01*
X151719027Y-65203074D01*
X151740701Y-65255400D01*
X151740701Y-80454400D01*
X151719027Y-80506726D01*
X151666701Y-80528400D01*
X144740150Y-80528400D01*
X144687824Y-80506726D01*
X144666150Y-80454400D01*
X144687824Y-80402074D01*
X144703150Y-80390314D01*
X144927001Y-80261074D01*
X144927007Y-80261070D01*
X145138080Y-80099107D01*
X145179111Y-80058077D01*
X144893440Y-79772406D01*
X144999506Y-79666340D01*
X145285177Y-79952011D01*
X145326207Y-79910980D01*
X145488170Y-79699907D01*
X145488174Y-79699901D01*
X145621199Y-79469494D01*
X145621202Y-79469486D01*
X145723011Y-79223696D01*
X145723015Y-79223685D01*
X145791874Y-78966698D01*
X145826600Y-78702925D01*
X145826600Y-78436874D01*
X145791874Y-78173101D01*
X145723015Y-77916114D01*
X145723011Y-77916103D01*
X145621202Y-77670313D01*
X145621199Y-77670305D01*
X145488174Y-77439898D01*
X145488170Y-77439892D01*
X145326207Y-77228819D01*
X145285177Y-77187789D01*
X144999506Y-77473460D01*
X144893440Y-77367394D01*
X145179111Y-77081723D01*
X145138080Y-77040692D01*
X144927007Y-76878729D01*
X144927001Y-76878725D01*
X144696594Y-76745700D01*
X144696586Y-76745697D01*
X144450796Y-76643888D01*
X144450785Y-76643884D01*
X144193797Y-76575025D01*
X144193798Y-76575025D01*
X143930025Y-76540300D01*
X143663975Y-76540300D01*
X143400201Y-76575025D01*
X143143214Y-76643884D01*
X143143203Y-76643888D01*
X142897413Y-76745697D01*
X142897405Y-76745700D01*
X142666998Y-76878725D01*
X142666992Y-76878729D01*
X142455919Y-77040692D01*
X142414889Y-77081723D01*
X142700560Y-77367394D01*
X142594494Y-77473460D01*
X142308823Y-77187789D01*
X142267792Y-77228819D01*
X142105829Y-77439892D01*
X142105825Y-77439898D01*
X141972800Y-77670305D01*
X141972797Y-77670313D01*
X141870988Y-77916103D01*
X141870984Y-77916114D01*
X141802125Y-78173101D01*
X141767400Y-78436874D01*
X141767400Y-78702925D01*
X141802125Y-78966698D01*
X141870984Y-79223685D01*
X141870988Y-79223696D01*
X141972797Y-79469486D01*
X141972800Y-79469494D01*
X142105825Y-79699901D01*
X142105829Y-79699907D01*
X142267792Y-79910980D01*
X142308823Y-79952011D01*
X142594494Y-79666340D01*
X142700560Y-79772406D01*
X142414889Y-80058077D01*
X142455919Y-80099107D01*
X142666992Y-80261070D01*
X142666998Y-80261074D01*
X142890850Y-80390314D01*
X142925328Y-80435247D01*
X142917936Y-80491400D01*
X142873003Y-80525878D01*
X142853850Y-80528400D01*
X76028251Y-80528400D01*
X75975925Y-80506726D01*
X75954251Y-80454400D01*
X75975925Y-80402074D01*
X75991251Y-80390314D01*
X76215102Y-80261074D01*
X76215108Y-80261070D01*
X76426181Y-80099107D01*
X76467212Y-80058077D01*
X76181541Y-79772406D01*
X76287607Y-79666340D01*
X76573278Y-79952011D01*
X76614308Y-79910980D01*
X76776271Y-79699907D01*
X76776275Y-79699901D01*
X76790554Y-79675170D01*
X131499500Y-79675170D01*
X131499500Y-79780629D01*
X131526791Y-79882482D01*
X131526792Y-79882485D01*
X131526793Y-79882487D01*
X131579520Y-79973813D01*
X131654087Y-80048380D01*
X131745413Y-80101107D01*
X131847270Y-80128399D01*
X131847271Y-80128400D01*
X131847273Y-80128400D01*
X131952729Y-80128400D01*
X131952729Y-80128399D01*
X132054587Y-80101107D01*
X132145913Y-80048380D01*
X132220480Y-79973813D01*
X132273207Y-79882487D01*
X132300499Y-79780629D01*
X132300500Y-79780629D01*
X132300500Y-79675171D01*
X132300499Y-79675170D01*
X132273208Y-79573317D01*
X132273207Y-79573313D01*
X132220480Y-79481987D01*
X132145913Y-79407420D01*
X132054591Y-79354695D01*
X132054582Y-79354691D01*
X131952729Y-79327400D01*
X131952727Y-79327400D01*
X131847273Y-79327400D01*
X131847271Y-79327400D01*
X131745417Y-79354691D01*
X131745408Y-79354695D01*
X131654086Y-79407420D01*
X131579520Y-79481986D01*
X131526795Y-79573308D01*
X131526791Y-79573317D01*
X131499500Y-79675170D01*
X76790554Y-79675170D01*
X76814714Y-79633323D01*
X76909300Y-79469494D01*
X76909303Y-79469486D01*
X77011112Y-79223696D01*
X77011116Y-79223685D01*
X77079975Y-78966697D01*
X77108863Y-78747270D01*
X104299500Y-78747270D01*
X104299500Y-78852729D01*
X104326791Y-78954582D01*
X104326795Y-78954591D01*
X104333785Y-78966698D01*
X104379520Y-79045913D01*
X104454087Y-79120480D01*
X104545413Y-79173207D01*
X104647270Y-79200499D01*
X104647271Y-79200500D01*
X104647273Y-79200500D01*
X104752729Y-79200500D01*
X104752729Y-79200499D01*
X104854587Y-79173207D01*
X104945913Y-79120480D01*
X105020480Y-79045913D01*
X105073207Y-78954587D01*
X105100499Y-78852729D01*
X105100500Y-78852729D01*
X105100500Y-78747271D01*
X105100499Y-78747270D01*
X105081393Y-78675966D01*
X105073207Y-78645413D01*
X105020480Y-78554087D01*
X104945913Y-78479520D01*
X104872048Y-78436874D01*
X104854591Y-78426795D01*
X104854582Y-78426791D01*
X104752729Y-78399500D01*
X104752727Y-78399500D01*
X104647273Y-78399500D01*
X104647271Y-78399500D01*
X104545417Y-78426791D01*
X104545408Y-78426795D01*
X104454086Y-78479520D01*
X104379520Y-78554086D01*
X104326795Y-78645408D01*
X104326791Y-78645417D01*
X104299500Y-78747270D01*
X77108863Y-78747270D01*
X77110773Y-78732764D01*
X77110773Y-78732763D01*
X77114701Y-78702926D01*
X77114701Y-78436874D01*
X77079975Y-78173101D01*
X77011116Y-77916114D01*
X77011112Y-77916103D01*
X76909303Y-77670313D01*
X76909300Y-77670305D01*
X76776275Y-77439898D01*
X76776271Y-77439892D01*
X76636471Y-77257701D01*
X76636465Y-77257695D01*
X76614304Y-77228815D01*
X76601771Y-77216282D01*
X83126101Y-77216282D01*
X83126101Y-77383517D01*
X83158726Y-77547538D01*
X83158729Y-77547548D01*
X83222724Y-77702047D01*
X83222726Y-77702050D01*
X83222727Y-77702052D01*
X83315640Y-77841106D01*
X83433895Y-77959361D01*
X83572949Y-78052274D01*
X83572954Y-78052276D01*
X83572953Y-78052276D01*
X83727452Y-78116271D01*
X83727457Y-78116273D01*
X83891482Y-78148900D01*
X83891484Y-78148900D01*
X84058718Y-78148900D01*
X84058720Y-78148900D01*
X84222745Y-78116273D01*
X84377253Y-78052274D01*
X84516307Y-77959361D01*
X84634562Y-77841106D01*
X84727475Y-77702052D01*
X84791474Y-77547544D01*
X84824101Y-77383519D01*
X84824101Y-77216281D01*
X84791474Y-77052256D01*
X84763337Y-76984327D01*
X84727477Y-76897752D01*
X84727476Y-76897751D01*
X84727475Y-76897748D01*
X84693747Y-76847270D01*
X86599500Y-76847270D01*
X86599500Y-76952729D01*
X86626791Y-77054582D01*
X86626795Y-77054591D01*
X86633098Y-77065508D01*
X86679520Y-77145913D01*
X86754087Y-77220480D01*
X86845413Y-77273207D01*
X86947270Y-77300499D01*
X86947271Y-77300500D01*
X86947273Y-77300500D01*
X87052729Y-77300500D01*
X87052729Y-77300499D01*
X87154587Y-77273207D01*
X87245913Y-77220480D01*
X87320480Y-77145913D01*
X87373207Y-77054587D01*
X87400499Y-76952729D01*
X87400500Y-76952729D01*
X87400500Y-76847271D01*
X87400499Y-76847270D01*
X87400231Y-76846271D01*
X87373207Y-76745413D01*
X87320480Y-76654087D01*
X87245913Y-76579520D01*
X87231341Y-76571107D01*
X87154591Y-76526795D01*
X87154582Y-76526791D01*
X87052729Y-76499500D01*
X87052727Y-76499500D01*
X86947273Y-76499500D01*
X86947271Y-76499500D01*
X86845417Y-76526791D01*
X86845408Y-76526795D01*
X86754086Y-76579520D01*
X86679520Y-76654086D01*
X86626795Y-76745408D01*
X86626791Y-76745417D01*
X86599500Y-76847270D01*
X84693747Y-76847270D01*
X84634562Y-76758694D01*
X84516307Y-76640439D01*
X84495887Y-76626795D01*
X84481894Y-76617445D01*
X84377253Y-76547526D01*
X84377249Y-76547524D01*
X84377247Y-76547523D01*
X84377248Y-76547523D01*
X84222749Y-76483528D01*
X84222739Y-76483525D01*
X84112899Y-76461677D01*
X84058720Y-76450900D01*
X83891482Y-76450900D01*
X83844982Y-76460149D01*
X83727462Y-76483525D01*
X83727452Y-76483528D01*
X83572953Y-76547523D01*
X83433895Y-76640438D01*
X83433894Y-76640440D01*
X83315641Y-76758693D01*
X83315639Y-76758694D01*
X83222724Y-76897752D01*
X83158729Y-77052251D01*
X83158726Y-77052261D01*
X83126101Y-77216282D01*
X76601771Y-77216282D01*
X76573278Y-77187789D01*
X76287607Y-77473460D01*
X76181541Y-77367394D01*
X76467212Y-77081723D01*
X76426181Y-77040692D01*
X76215108Y-76878729D01*
X76215102Y-76878725D01*
X75984695Y-76745700D01*
X75984687Y-76745697D01*
X75738897Y-76643888D01*
X75738886Y-76643884D01*
X75481898Y-76575025D01*
X75481899Y-76575025D01*
X75218126Y-76540300D01*
X74952076Y-76540300D01*
X74688302Y-76575025D01*
X74431315Y-76643884D01*
X74431304Y-76643888D01*
X74185514Y-76745697D01*
X74185506Y-76745700D01*
X73955099Y-76878725D01*
X73955093Y-76878729D01*
X73744020Y-77040692D01*
X73702990Y-77081723D01*
X73988661Y-77367394D01*
X73882595Y-77473460D01*
X73596924Y-77187789D01*
X73555893Y-77228819D01*
X73393930Y-77439892D01*
X73393926Y-77439898D01*
X73260901Y-77670305D01*
X73260898Y-77670313D01*
X73159089Y-77916103D01*
X73159085Y-77916114D01*
X73090226Y-78173101D01*
X73055501Y-78436874D01*
X73055501Y-78702925D01*
X73090226Y-78966698D01*
X73159085Y-79223685D01*
X73159089Y-79223696D01*
X73260898Y-79469486D01*
X73260901Y-79469494D01*
X73393926Y-79699901D01*
X73393930Y-79699907D01*
X73555893Y-79910980D01*
X73596924Y-79952011D01*
X73882595Y-79666340D01*
X73988661Y-79772406D01*
X73702990Y-80058077D01*
X73744020Y-80099107D01*
X73955093Y-80261070D01*
X73955099Y-80261074D01*
X74178951Y-80390314D01*
X74213429Y-80435247D01*
X74206037Y-80491400D01*
X74161104Y-80525878D01*
X74141951Y-80528400D01*
X67215400Y-80528400D01*
X67163074Y-80506726D01*
X67141400Y-80454400D01*
X67141400Y-75946281D01*
X80586101Y-75946281D01*
X80586101Y-76113519D01*
X80592215Y-76144254D01*
X80618726Y-76277538D01*
X80618729Y-76277548D01*
X80682724Y-76432047D01*
X80682726Y-76432050D01*
X80682727Y-76432052D01*
X80695321Y-76450900D01*
X80775131Y-76570345D01*
X80775640Y-76571106D01*
X80893895Y-76689361D01*
X81032949Y-76782274D01*
X81032954Y-76782276D01*
X81032953Y-76782276D01*
X81185369Y-76845408D01*
X81187457Y-76846273D01*
X81351482Y-76878900D01*
X81351484Y-76878900D01*
X81518718Y-76878900D01*
X81518720Y-76878900D01*
X81682745Y-76846273D01*
X81837253Y-76782274D01*
X81976307Y-76689361D01*
X82094562Y-76571106D01*
X82187475Y-76432052D01*
X82251474Y-76277544D01*
X82284101Y-76113519D01*
X82284101Y-75946281D01*
X82251474Y-75782256D01*
X82219304Y-75704591D01*
X82187477Y-75627752D01*
X82187476Y-75627750D01*
X82187475Y-75627748D01*
X82094562Y-75488694D01*
X81976307Y-75370439D01*
X81837253Y-75277526D01*
X81837249Y-75277524D01*
X81837247Y-75277523D01*
X81837248Y-75277523D01*
X81682749Y-75213528D01*
X81682739Y-75213525D01*
X81572899Y-75191677D01*
X81518720Y-75180900D01*
X81351482Y-75180900D01*
X81304982Y-75190149D01*
X81187462Y-75213525D01*
X81187452Y-75213528D01*
X81032953Y-75277523D01*
X80893895Y-75370438D01*
X80893894Y-75370440D01*
X80775641Y-75488693D01*
X80775639Y-75488694D01*
X80682724Y-75627752D01*
X80618729Y-75782251D01*
X80618726Y-75782261D01*
X80594394Y-75904591D01*
X80586101Y-75946281D01*
X67141400Y-75946281D01*
X67141400Y-74676330D01*
X83126601Y-74676330D01*
X83126601Y-74843469D01*
X83159206Y-75007391D01*
X83159209Y-75007402D01*
X83223167Y-75161811D01*
X83316027Y-75300787D01*
X83322087Y-75306847D01*
X83610880Y-75018052D01*
X83619412Y-75032830D01*
X83702171Y-75115589D01*
X83716946Y-75124119D01*
X83428153Y-75412913D01*
X83434213Y-75418973D01*
X83573190Y-75511833D01*
X83573189Y-75511833D01*
X83727598Y-75575791D01*
X83727609Y-75575794D01*
X83891532Y-75608400D01*
X84058670Y-75608400D01*
X84222592Y-75575794D01*
X84222603Y-75575791D01*
X84377012Y-75511833D01*
X84399009Y-75497135D01*
X88685573Y-75497135D01*
X88685573Y-75602594D01*
X88712864Y-75704447D01*
X88712868Y-75704456D01*
X88765593Y-75795778D01*
X88817354Y-75847539D01*
X88839028Y-75899865D01*
X88817354Y-75952191D01*
X88765593Y-76003951D01*
X88712868Y-76095273D01*
X88712864Y-76095282D01*
X88685573Y-76197135D01*
X88685573Y-76302594D01*
X88712864Y-76404447D01*
X88712868Y-76404456D01*
X88739683Y-76450900D01*
X88765593Y-76495778D01*
X88840160Y-76570345D01*
X88931486Y-76623072D01*
X89033343Y-76650364D01*
X89033344Y-76650365D01*
X89033346Y-76650365D01*
X89138802Y-76650365D01*
X89138802Y-76650364D01*
X89240660Y-76623072D01*
X89331986Y-76570345D01*
X89365061Y-76537270D01*
X112409500Y-76537270D01*
X112409500Y-76642729D01*
X112436791Y-76744582D01*
X112436795Y-76744591D01*
X112458553Y-76782276D01*
X112489520Y-76835913D01*
X112564087Y-76910480D01*
X112655413Y-76963207D01*
X112757270Y-76990499D01*
X112757271Y-76990500D01*
X112757273Y-76990500D01*
X112862729Y-76990500D01*
X112862729Y-76990499D01*
X112964587Y-76963207D01*
X113055913Y-76910480D01*
X113130480Y-76835913D01*
X113183207Y-76744587D01*
X113195885Y-76697271D01*
X113195885Y-76697270D01*
X115299500Y-76697270D01*
X115299500Y-76802729D01*
X115326791Y-76904582D01*
X115326795Y-76904591D01*
X115354588Y-76952729D01*
X115379520Y-76995913D01*
X115454087Y-77070480D01*
X115545413Y-77123207D01*
X115647270Y-77150499D01*
X115647271Y-77150500D01*
X115647273Y-77150500D01*
X115752729Y-77150500D01*
X115752729Y-77150499D01*
X115854587Y-77123207D01*
X115945913Y-77070480D01*
X116020480Y-76995913D01*
X116048564Y-76947270D01*
X118169500Y-76947270D01*
X118169500Y-77052729D01*
X118196791Y-77154582D01*
X118196795Y-77154591D01*
X118234836Y-77220479D01*
X118249520Y-77245913D01*
X118324087Y-77320480D01*
X118415413Y-77373207D01*
X118517270Y-77400499D01*
X118517271Y-77400500D01*
X118517273Y-77400500D01*
X118622729Y-77400500D01*
X118622729Y-77400499D01*
X118724587Y-77373207D01*
X118815913Y-77320480D01*
X118890480Y-77245913D01*
X118907588Y-77216282D01*
X136598000Y-77216282D01*
X136598000Y-77383517D01*
X136630625Y-77547538D01*
X136630628Y-77547548D01*
X136694623Y-77702047D01*
X136694625Y-77702050D01*
X136694626Y-77702052D01*
X136787539Y-77841106D01*
X136905794Y-77959361D01*
X137044848Y-78052274D01*
X137044853Y-78052276D01*
X137044852Y-78052276D01*
X137199351Y-78116271D01*
X137199356Y-78116273D01*
X137363381Y-78148900D01*
X137363383Y-78148900D01*
X137530617Y-78148900D01*
X137530619Y-78148900D01*
X137694644Y-78116273D01*
X137849152Y-78052274D01*
X137988206Y-77959361D01*
X138106461Y-77841106D01*
X138199374Y-77702052D01*
X138263373Y-77547544D01*
X138296000Y-77383519D01*
X138296000Y-77216281D01*
X138263373Y-77052256D01*
X138235236Y-76984327D01*
X138199376Y-76897752D01*
X138199375Y-76897750D01*
X138199374Y-76897748D01*
X138106461Y-76758694D01*
X137988206Y-76640439D01*
X137967786Y-76626795D01*
X137953793Y-76617445D01*
X137849152Y-76547526D01*
X137849148Y-76547524D01*
X137849146Y-76547523D01*
X137849147Y-76547523D01*
X137694648Y-76483528D01*
X137694638Y-76483525D01*
X137584798Y-76461677D01*
X137530619Y-76450900D01*
X137363381Y-76450900D01*
X137316881Y-76460149D01*
X137199361Y-76483525D01*
X137199351Y-76483528D01*
X137044852Y-76547523D01*
X136905794Y-76640438D01*
X136905793Y-76640440D01*
X136787540Y-76758693D01*
X136787538Y-76758694D01*
X136694623Y-76897752D01*
X136630628Y-77052251D01*
X136630625Y-77052261D01*
X136598000Y-77216282D01*
X118907588Y-77216282D01*
X118931049Y-77175646D01*
X118931050Y-77175645D01*
X118943203Y-77154594D01*
X118943203Y-77154593D01*
X118943207Y-77154587D01*
X118970499Y-77052729D01*
X118970500Y-77052729D01*
X118970500Y-76947271D01*
X118970499Y-76947270D01*
X118959063Y-76904591D01*
X118943207Y-76845413D01*
X118890480Y-76754087D01*
X118815913Y-76679520D01*
X118765415Y-76650365D01*
X118724591Y-76626795D01*
X118724582Y-76626791D01*
X118622729Y-76599500D01*
X118622727Y-76599500D01*
X118517273Y-76599500D01*
X118517271Y-76599500D01*
X118415417Y-76626791D01*
X118415408Y-76626795D01*
X118324086Y-76679520D01*
X118249520Y-76754086D01*
X118196795Y-76845408D01*
X118196791Y-76845417D01*
X118169500Y-76947270D01*
X116048564Y-76947270D01*
X116072724Y-76905422D01*
X116072726Y-76905421D01*
X116072727Y-76905419D01*
X116072916Y-76905090D01*
X116073207Y-76904587D01*
X116100499Y-76802729D01*
X116100500Y-76802729D01*
X116100500Y-76697271D01*
X116100499Y-76697270D01*
X116086194Y-76643884D01*
X116073207Y-76595413D01*
X116020480Y-76504087D01*
X115945913Y-76429520D01*
X115902485Y-76404447D01*
X115854591Y-76376795D01*
X115854582Y-76376791D01*
X115752729Y-76349500D01*
X115752727Y-76349500D01*
X115647273Y-76349500D01*
X115647271Y-76349500D01*
X115545417Y-76376791D01*
X115545408Y-76376795D01*
X115454086Y-76429520D01*
X115379520Y-76504086D01*
X115326795Y-76595408D01*
X115326791Y-76595417D01*
X115299500Y-76697270D01*
X113195885Y-76697270D01*
X113202315Y-76673276D01*
X113202316Y-76673271D01*
X113210500Y-76642726D01*
X113210500Y-76537271D01*
X113210499Y-76537270D01*
X113199381Y-76495778D01*
X113183207Y-76435413D01*
X113130480Y-76344087D01*
X113055913Y-76269520D01*
X112988292Y-76230479D01*
X112964591Y-76216795D01*
X112964582Y-76216791D01*
X112862729Y-76189500D01*
X112862727Y-76189500D01*
X112757273Y-76189500D01*
X112757271Y-76189500D01*
X112655417Y-76216791D01*
X112655408Y-76216795D01*
X112564086Y-76269520D01*
X112489520Y-76344086D01*
X112436795Y-76435408D01*
X112436791Y-76435417D01*
X112409500Y-76537270D01*
X89365061Y-76537270D01*
X89406553Y-76495778D01*
X89459280Y-76404452D01*
X89486572Y-76302594D01*
X89486573Y-76302594D01*
X89486573Y-76197136D01*
X89486572Y-76197135D01*
X89474076Y-76150500D01*
X89459280Y-76095278D01*
X89406553Y-76003952D01*
X89354792Y-75952191D01*
X89333118Y-75899865D01*
X89350761Y-75857270D01*
X104079500Y-75857270D01*
X104079500Y-75962729D01*
X104106791Y-76064582D01*
X104106795Y-76064591D01*
X104124512Y-76095278D01*
X104159520Y-76155913D01*
X104234087Y-76230480D01*
X104325413Y-76283207D01*
X104427270Y-76310499D01*
X104427271Y-76310500D01*
X104427273Y-76310500D01*
X104532729Y-76310500D01*
X104532729Y-76310499D01*
X104634587Y-76283207D01*
X104725913Y-76230480D01*
X104800480Y-76155913D01*
X104853207Y-76064587D01*
X104880499Y-75962729D01*
X104880500Y-75962729D01*
X104880500Y-75857271D01*
X104880499Y-75857270D01*
X104865884Y-75802727D01*
X104853207Y-75755413D01*
X104800480Y-75664087D01*
X104725913Y-75589520D01*
X104702970Y-75576274D01*
X104634591Y-75536795D01*
X104634582Y-75536791D01*
X104532729Y-75509500D01*
X104532727Y-75509500D01*
X104427273Y-75509500D01*
X104427271Y-75509500D01*
X104325417Y-75536791D01*
X104325408Y-75536795D01*
X104234086Y-75589520D01*
X104159520Y-75664086D01*
X104106795Y-75755408D01*
X104106791Y-75755417D01*
X104079500Y-75857270D01*
X89350761Y-75857270D01*
X89354792Y-75847539D01*
X89402234Y-75800097D01*
X89406553Y-75795778D01*
X89459280Y-75704452D01*
X89486572Y-75602594D01*
X89486573Y-75602594D01*
X89486573Y-75497136D01*
X89486572Y-75497135D01*
X89473210Y-75447268D01*
X89459280Y-75395278D01*
X89406553Y-75303952D01*
X89331986Y-75229385D01*
X89288711Y-75204400D01*
X89240664Y-75176660D01*
X89240655Y-75176656D01*
X89138802Y-75149365D01*
X89138800Y-75149365D01*
X89033346Y-75149365D01*
X89033344Y-75149365D01*
X88931490Y-75176656D01*
X88931481Y-75176660D01*
X88840159Y-75229385D01*
X88765593Y-75303951D01*
X88712868Y-75395273D01*
X88712864Y-75395282D01*
X88685573Y-75497135D01*
X84399009Y-75497135D01*
X84498349Y-75430759D01*
X84515989Y-75418972D01*
X84522047Y-75412912D01*
X84233254Y-75124119D01*
X84248031Y-75115589D01*
X84330790Y-75032830D01*
X84339320Y-75018053D01*
X84628113Y-75306846D01*
X84634173Y-75300788D01*
X84727034Y-75161811D01*
X84774479Y-75047270D01*
X104799500Y-75047270D01*
X104799500Y-75152729D01*
X104826791Y-75254582D01*
X104826795Y-75254591D01*
X104855371Y-75304086D01*
X104879520Y-75345913D01*
X104954087Y-75420480D01*
X105045413Y-75473207D01*
X105147270Y-75500499D01*
X105147271Y-75500500D01*
X105147273Y-75500500D01*
X105252729Y-75500500D01*
X105252729Y-75500499D01*
X105354587Y-75473207D01*
X105399511Y-75447270D01*
X105699500Y-75447270D01*
X105699500Y-75552729D01*
X105726791Y-75654582D01*
X105726795Y-75654591D01*
X105755663Y-75704591D01*
X105779520Y-75745913D01*
X105854087Y-75820480D01*
X105945413Y-75873207D01*
X106047270Y-75900499D01*
X106047271Y-75900500D01*
X106047273Y-75900500D01*
X106152729Y-75900500D01*
X106152729Y-75900499D01*
X106254587Y-75873207D01*
X106345913Y-75820480D01*
X106420480Y-75745913D01*
X106448564Y-75697270D01*
X110349500Y-75697270D01*
X110349500Y-75802729D01*
X110376791Y-75904582D01*
X110376795Y-75904591D01*
X110403299Y-75950497D01*
X110429520Y-75995913D01*
X110504087Y-76070480D01*
X110595413Y-76123207D01*
X110697270Y-76150499D01*
X110697271Y-76150500D01*
X110697273Y-76150500D01*
X110802729Y-76150500D01*
X110802729Y-76150499D01*
X110904587Y-76123207D01*
X110995913Y-76070480D01*
X111070480Y-75995913D01*
X111123207Y-75904587D01*
X111150499Y-75802729D01*
X111150500Y-75802729D01*
X111150500Y-75771045D01*
X111810272Y-75771045D01*
X111810272Y-75876504D01*
X111837563Y-75978357D01*
X111837564Y-75978360D01*
X111837565Y-75978362D01*
X111890292Y-76069688D01*
X111964859Y-76144255D01*
X112056185Y-76196982D01*
X112158042Y-76224274D01*
X112158043Y-76224275D01*
X112158045Y-76224275D01*
X112263501Y-76224275D01*
X112263501Y-76224274D01*
X112365359Y-76196982D01*
X112456685Y-76144255D01*
X112531252Y-76069688D01*
X112583979Y-75978362D01*
X112611271Y-75876504D01*
X112611272Y-75876504D01*
X112611272Y-75771046D01*
X112611271Y-75771045D01*
X112607082Y-75755413D01*
X112583979Y-75669188D01*
X112531252Y-75577862D01*
X112456685Y-75503295D01*
X112404566Y-75473204D01*
X112365363Y-75450570D01*
X112365354Y-75450566D01*
X112353042Y-75447267D01*
X113299500Y-75447267D01*
X113299500Y-75552726D01*
X113326791Y-75654579D01*
X113326795Y-75654588D01*
X113379520Y-75745910D01*
X113454087Y-75820477D01*
X113545413Y-75873204D01*
X113647270Y-75900496D01*
X113647271Y-75900497D01*
X113647273Y-75900497D01*
X113752729Y-75900497D01*
X113752729Y-75900496D01*
X113854587Y-75873204D01*
X113945913Y-75820477D01*
X114020480Y-75745910D01*
X114073207Y-75654584D01*
X114100499Y-75552726D01*
X114100500Y-75552726D01*
X114100500Y-75497268D01*
X114575184Y-75497268D01*
X114575184Y-75602727D01*
X114602475Y-75704580D01*
X114602479Y-75704589D01*
X114631825Y-75755417D01*
X114655204Y-75795911D01*
X114729771Y-75870478D01*
X114821097Y-75923205D01*
X114922954Y-75950497D01*
X114922955Y-75950498D01*
X114922957Y-75950498D01*
X115028413Y-75950498D01*
X115028413Y-75950497D01*
X115130271Y-75923205D01*
X115221597Y-75870478D01*
X115235515Y-75856560D01*
X115287841Y-75834886D01*
X115340167Y-75856560D01*
X115354087Y-75870480D01*
X115445413Y-75923207D01*
X115547270Y-75950499D01*
X115547271Y-75950500D01*
X115547273Y-75950500D01*
X115652729Y-75950500D01*
X115652729Y-75950499D01*
X115754587Y-75923207D01*
X115845913Y-75870480D01*
X115920480Y-75795913D01*
X115973207Y-75704587D01*
X116000499Y-75602729D01*
X116000500Y-75602729D01*
X116000500Y-75497271D01*
X116000499Y-75497270D01*
X116000498Y-75497268D01*
X115973207Y-75395413D01*
X115920480Y-75304087D01*
X115845913Y-75229520D01*
X115761701Y-75180900D01*
X115754591Y-75176795D01*
X115754582Y-75176791D01*
X115652729Y-75149500D01*
X115652727Y-75149500D01*
X115547273Y-75149500D01*
X115547271Y-75149500D01*
X115445417Y-75176791D01*
X115445408Y-75176795D01*
X115354086Y-75229520D01*
X115340169Y-75243438D01*
X115287843Y-75265112D01*
X115235517Y-75243438D01*
X115221597Y-75229518D01*
X115130275Y-75176793D01*
X115130266Y-75176789D01*
X115028413Y-75149498D01*
X115028411Y-75149498D01*
X114922957Y-75149498D01*
X114922955Y-75149498D01*
X114821101Y-75176789D01*
X114821092Y-75176793D01*
X114729770Y-75229518D01*
X114655204Y-75304084D01*
X114602479Y-75395406D01*
X114602475Y-75395415D01*
X114575184Y-75497268D01*
X114100500Y-75497268D01*
X114100500Y-75447268D01*
X114100499Y-75447267D01*
X114094070Y-75423275D01*
X114073207Y-75345410D01*
X114020480Y-75254084D01*
X113945913Y-75179517D01*
X113899515Y-75152729D01*
X113854591Y-75126792D01*
X113854582Y-75126788D01*
X113752729Y-75099497D01*
X113752727Y-75099497D01*
X113647273Y-75099497D01*
X113647271Y-75099497D01*
X113545417Y-75126788D01*
X113545408Y-75126792D01*
X113454086Y-75179517D01*
X113379520Y-75254083D01*
X113326795Y-75345405D01*
X113326791Y-75345414D01*
X113299500Y-75447267D01*
X112353042Y-75447267D01*
X112263501Y-75423275D01*
X112263499Y-75423275D01*
X112158045Y-75423275D01*
X112158043Y-75423275D01*
X112056189Y-75450566D01*
X112056180Y-75450570D01*
X111964858Y-75503295D01*
X111890292Y-75577861D01*
X111837567Y-75669183D01*
X111837563Y-75669192D01*
X111810272Y-75771045D01*
X111150500Y-75771045D01*
X111150500Y-75697271D01*
X111150499Y-75697270D01*
X111139063Y-75654591D01*
X111123207Y-75595413D01*
X111070480Y-75504087D01*
X110995913Y-75429520D01*
X110936845Y-75395417D01*
X110904591Y-75376795D01*
X110904582Y-75376791D01*
X110802729Y-75349500D01*
X110802727Y-75349500D01*
X110697273Y-75349500D01*
X110697271Y-75349500D01*
X110595417Y-75376791D01*
X110595408Y-75376795D01*
X110504086Y-75429520D01*
X110429520Y-75504086D01*
X110376795Y-75595408D01*
X110376791Y-75595417D01*
X110349500Y-75697270D01*
X106448564Y-75697270D01*
X106472724Y-75655422D01*
X106472726Y-75655421D01*
X106472727Y-75655419D01*
X106472916Y-75655090D01*
X106473207Y-75654587D01*
X106500499Y-75552729D01*
X106500500Y-75552729D01*
X106500500Y-75447271D01*
X106500499Y-75447270D01*
X106500498Y-75447268D01*
X106473207Y-75345413D01*
X106420480Y-75254087D01*
X106345913Y-75179520D01*
X106336539Y-75174108D01*
X106254591Y-75126795D01*
X106254582Y-75126791D01*
X106152729Y-75099500D01*
X106152727Y-75099500D01*
X106047273Y-75099500D01*
X106047271Y-75099500D01*
X105945417Y-75126791D01*
X105945408Y-75126795D01*
X105854086Y-75179520D01*
X105779520Y-75254086D01*
X105726795Y-75345408D01*
X105726791Y-75345417D01*
X105699500Y-75447270D01*
X105399511Y-75447270D01*
X105445913Y-75420480D01*
X105520480Y-75345913D01*
X105573207Y-75254587D01*
X105600499Y-75152729D01*
X105600500Y-75152729D01*
X105600500Y-75047271D01*
X105600499Y-75047270D01*
X105577538Y-74961576D01*
X105573705Y-74947270D01*
X128349500Y-74947270D01*
X128349500Y-75052729D01*
X128376791Y-75154582D01*
X128376795Y-75154591D01*
X128429520Y-75245913D01*
X128481281Y-75297674D01*
X128502955Y-75350000D01*
X128481281Y-75402326D01*
X128429520Y-75454086D01*
X128376795Y-75545408D01*
X128376791Y-75545417D01*
X128349500Y-75647270D01*
X128349500Y-75752729D01*
X128376791Y-75854582D01*
X128376795Y-75854591D01*
X128416410Y-75923206D01*
X128429520Y-75945913D01*
X128504087Y-76020480D01*
X128595413Y-76073207D01*
X128697270Y-76100499D01*
X128697271Y-76100500D01*
X128697273Y-76100500D01*
X128802729Y-76100500D01*
X128802729Y-76100499D01*
X128904587Y-76073207D01*
X128995913Y-76020480D01*
X129070112Y-75946281D01*
X134058000Y-75946281D01*
X134058000Y-76113519D01*
X134064114Y-76144254D01*
X134090625Y-76277538D01*
X134090628Y-76277548D01*
X134154623Y-76432047D01*
X134154625Y-76432050D01*
X134154626Y-76432052D01*
X134167220Y-76450900D01*
X134247030Y-76570345D01*
X134247539Y-76571106D01*
X134365794Y-76689361D01*
X134504848Y-76782274D01*
X134504853Y-76782276D01*
X134504852Y-76782276D01*
X134657268Y-76845408D01*
X134659356Y-76846273D01*
X134823381Y-76878900D01*
X134823383Y-76878900D01*
X134990617Y-76878900D01*
X134990619Y-76878900D01*
X135154644Y-76846273D01*
X135309152Y-76782274D01*
X135448206Y-76689361D01*
X135566461Y-76571106D01*
X135659374Y-76432052D01*
X135723373Y-76277544D01*
X135756000Y-76113519D01*
X135756000Y-75946281D01*
X135723373Y-75782256D01*
X135691203Y-75704591D01*
X135659376Y-75627752D01*
X135659375Y-75627750D01*
X135659374Y-75627748D01*
X135566461Y-75488694D01*
X135448206Y-75370439D01*
X135309152Y-75277526D01*
X135309148Y-75277524D01*
X135309146Y-75277523D01*
X135309147Y-75277523D01*
X135154648Y-75213528D01*
X135154638Y-75213525D01*
X135044798Y-75191677D01*
X134990619Y-75180900D01*
X134823381Y-75180900D01*
X134776881Y-75190149D01*
X134659361Y-75213525D01*
X134659351Y-75213528D01*
X134504852Y-75277523D01*
X134365794Y-75370438D01*
X134365793Y-75370440D01*
X134247540Y-75488693D01*
X134247538Y-75488694D01*
X134154623Y-75627752D01*
X134090628Y-75782251D01*
X134090625Y-75782261D01*
X134066293Y-75904591D01*
X134058000Y-75946281D01*
X129070112Y-75946281D01*
X129070480Y-75945913D01*
X129123207Y-75854587D01*
X129150499Y-75752729D01*
X129150500Y-75752729D01*
X129150500Y-75647271D01*
X129150499Y-75647270D01*
X129138564Y-75602729D01*
X129123207Y-75545413D01*
X129070480Y-75454087D01*
X129018719Y-75402326D01*
X128997045Y-75350000D01*
X129018719Y-75297674D01*
X129038870Y-75277523D01*
X129070480Y-75245913D01*
X129123207Y-75154587D01*
X129150499Y-75052729D01*
X129150500Y-75052729D01*
X129150500Y-74947271D01*
X129150499Y-74947270D01*
X129150002Y-74945417D01*
X129123207Y-74845413D01*
X129070480Y-74754087D01*
X128995913Y-74679520D01*
X128990305Y-74676282D01*
X136598000Y-74676282D01*
X136598000Y-74843517D01*
X136630625Y-75007538D01*
X136630628Y-75007548D01*
X136694623Y-75162047D01*
X136694625Y-75162050D01*
X136694626Y-75162052D01*
X136704476Y-75176793D01*
X136787326Y-75300788D01*
X136787539Y-75301106D01*
X136905794Y-75419361D01*
X137044848Y-75512274D01*
X137044853Y-75512276D01*
X137044852Y-75512276D01*
X137199351Y-75576271D01*
X137199356Y-75576273D01*
X137363381Y-75608900D01*
X137363383Y-75608900D01*
X137530617Y-75608900D01*
X137530619Y-75608900D01*
X137694644Y-75576273D01*
X137849152Y-75512274D01*
X137988206Y-75419361D01*
X138106461Y-75301106D01*
X138199374Y-75162052D01*
X138263373Y-75007544D01*
X138296000Y-74843519D01*
X138296000Y-74676281D01*
X138263373Y-74512256D01*
X138235893Y-74445913D01*
X138199376Y-74357752D01*
X138199375Y-74357750D01*
X138199374Y-74357748D01*
X138106461Y-74218694D01*
X137988206Y-74100439D01*
X137849152Y-74007526D01*
X137849148Y-74007524D01*
X137849146Y-74007523D01*
X137849147Y-74007523D01*
X137694648Y-73943528D01*
X137694638Y-73943525D01*
X137561104Y-73916964D01*
X137530619Y-73910900D01*
X137363381Y-73910900D01*
X137332896Y-73916964D01*
X137199361Y-73943525D01*
X137199351Y-73943528D01*
X137044852Y-74007523D01*
X136905794Y-74100438D01*
X136905793Y-74100440D01*
X136787540Y-74218693D01*
X136787538Y-74218694D01*
X136694623Y-74357752D01*
X136630628Y-74512251D01*
X136630625Y-74512261D01*
X136598000Y-74676282D01*
X128990305Y-74676282D01*
X128951422Y-74653833D01*
X128904591Y-74626795D01*
X128904582Y-74626791D01*
X128802729Y-74599500D01*
X128802727Y-74599500D01*
X128697273Y-74599500D01*
X128697271Y-74599500D01*
X128595417Y-74626791D01*
X128595408Y-74626795D01*
X128504086Y-74679520D01*
X128429520Y-74754086D01*
X128376795Y-74845408D01*
X128376791Y-74845417D01*
X128349500Y-74947270D01*
X105573705Y-74947270D01*
X105573208Y-74945417D01*
X105573207Y-74945413D01*
X105520480Y-74854087D01*
X105445913Y-74779520D01*
X105411930Y-74759900D01*
X105354591Y-74726795D01*
X105354582Y-74726791D01*
X105252729Y-74699500D01*
X105252727Y-74699500D01*
X105147273Y-74699500D01*
X105147271Y-74699500D01*
X105045417Y-74726791D01*
X105045408Y-74726795D01*
X104954086Y-74779520D01*
X104879520Y-74854086D01*
X104826795Y-74945408D01*
X104826791Y-74945417D01*
X104799500Y-75047270D01*
X84774479Y-75047270D01*
X84788216Y-75014105D01*
X84790992Y-75007402D01*
X84790995Y-75007391D01*
X84823601Y-74843469D01*
X84823601Y-74676330D01*
X84790995Y-74512408D01*
X84790992Y-74512397D01*
X84727034Y-74357988D01*
X84634174Y-74219012D01*
X84628114Y-74212952D01*
X84339320Y-74501745D01*
X84330790Y-74486970D01*
X84248031Y-74404211D01*
X84233253Y-74395679D01*
X84522048Y-74106886D01*
X84515988Y-74100826D01*
X84377011Y-74007966D01*
X84377012Y-74007966D01*
X84222603Y-73944008D01*
X84222592Y-73944005D01*
X84058670Y-73911400D01*
X83891532Y-73911400D01*
X83727609Y-73944005D01*
X83727598Y-73944008D01*
X83573189Y-74007966D01*
X83434215Y-74100825D01*
X83434209Y-74100829D01*
X83428152Y-74106885D01*
X83716947Y-74395680D01*
X83702171Y-74404211D01*
X83619412Y-74486970D01*
X83610881Y-74501746D01*
X83322086Y-74212951D01*
X83316030Y-74219008D01*
X83316026Y-74219014D01*
X83223167Y-74357988D01*
X83159209Y-74512397D01*
X83159206Y-74512408D01*
X83126601Y-74676330D01*
X67141400Y-74676330D01*
X67141400Y-73406281D01*
X80586101Y-73406281D01*
X80586101Y-73573519D01*
X80593517Y-73610799D01*
X80618726Y-73737538D01*
X80618729Y-73737548D01*
X80682724Y-73892047D01*
X80682726Y-73892050D01*
X80682727Y-73892052D01*
X80717120Y-73943525D01*
X80775044Y-74030215D01*
X80775640Y-74031106D01*
X80893895Y-74149361D01*
X81032949Y-74242274D01*
X81032954Y-74242276D01*
X81032953Y-74242276D01*
X81167404Y-74297967D01*
X81187457Y-74306273D01*
X81351482Y-74338900D01*
X81351484Y-74338900D01*
X81518718Y-74338900D01*
X81518720Y-74338900D01*
X81682745Y-74306273D01*
X81837253Y-74242274D01*
X81976307Y-74149361D01*
X82094562Y-74031106D01*
X82187475Y-73892052D01*
X82251474Y-73737544D01*
X82279405Y-73597129D01*
X88685573Y-73597129D01*
X88685573Y-73702588D01*
X88712864Y-73804441D01*
X88712868Y-73804450D01*
X88765593Y-73895772D01*
X88817354Y-73947533D01*
X88839028Y-73999859D01*
X88817354Y-74052185D01*
X88765593Y-74103945D01*
X88712868Y-74195267D01*
X88712864Y-74195276D01*
X88685573Y-74297129D01*
X88685573Y-74402588D01*
X88712864Y-74504441D01*
X88712868Y-74504450D01*
X88722123Y-74520480D01*
X88765593Y-74595772D01*
X88840160Y-74670339D01*
X88931486Y-74723066D01*
X89033343Y-74750358D01*
X89033344Y-74750359D01*
X89033346Y-74750359D01*
X89138802Y-74750359D01*
X89138802Y-74750358D01*
X89240660Y-74723066D01*
X89331986Y-74670339D01*
X89406553Y-74595772D01*
X89459280Y-74504446D01*
X89486572Y-74402588D01*
X89486573Y-74402588D01*
X89486573Y-74297130D01*
X89486572Y-74297129D01*
X89476883Y-74260970D01*
X89459280Y-74195272D01*
X89406553Y-74103946D01*
X89354792Y-74052185D01*
X89333118Y-73999859D01*
X89352711Y-73952558D01*
X101930273Y-73952558D01*
X101930273Y-74109441D01*
X101970874Y-74260967D01*
X102026889Y-74357988D01*
X102049314Y-74396830D01*
X102160243Y-74507759D01*
X102296103Y-74586197D01*
X102296105Y-74586198D01*
X102402615Y-74614737D01*
X102447631Y-74626799D01*
X102447632Y-74626800D01*
X102447634Y-74626800D01*
X102604514Y-74626800D01*
X102604514Y-74626799D01*
X102720309Y-74595772D01*
X102756040Y-74586198D01*
X102756040Y-74586197D01*
X102756043Y-74586197D01*
X102891903Y-74507759D01*
X103002832Y-74396830D01*
X103081270Y-74260970D01*
X103091337Y-74223401D01*
X103111737Y-74147270D01*
X107799500Y-74147270D01*
X107799500Y-74252729D01*
X107826791Y-74354582D01*
X107826795Y-74354591D01*
X107851182Y-74396830D01*
X107879520Y-74445913D01*
X107954087Y-74520480D01*
X108045413Y-74573207D01*
X108147270Y-74600499D01*
X108147271Y-74600500D01*
X108147273Y-74600500D01*
X108252729Y-74600500D01*
X108252729Y-74600499D01*
X108354587Y-74573207D01*
X108445913Y-74520480D01*
X108520480Y-74445913D01*
X108573207Y-74354587D01*
X108600499Y-74252729D01*
X108600500Y-74252729D01*
X108600500Y-74147271D01*
X108600499Y-74147270D01*
X108590362Y-74109439D01*
X108573207Y-74045413D01*
X108520480Y-73954087D01*
X108445913Y-73879520D01*
X108404690Y-73855720D01*
X108354591Y-73826795D01*
X108354582Y-73826791D01*
X108252729Y-73799500D01*
X108252727Y-73799500D01*
X108147273Y-73799500D01*
X108147271Y-73799500D01*
X108045417Y-73826791D01*
X108045408Y-73826795D01*
X107954086Y-73879520D01*
X107879520Y-73954086D01*
X107826795Y-74045408D01*
X107826791Y-74045417D01*
X107799500Y-74147270D01*
X103111737Y-74147270D01*
X103118168Y-74123270D01*
X103121873Y-74109440D01*
X103121873Y-73952559D01*
X103121872Y-73952558D01*
X103119452Y-73943528D01*
X103097081Y-73860036D01*
X103081271Y-73801032D01*
X103075633Y-73791267D01*
X103002832Y-73665170D01*
X102891903Y-73554241D01*
X102879834Y-73547273D01*
X102756040Y-73475801D01*
X102604514Y-73435200D01*
X102604512Y-73435200D01*
X102447634Y-73435200D01*
X102447632Y-73435200D01*
X102296105Y-73475801D01*
X102160242Y-73554241D01*
X102049314Y-73665169D01*
X101970874Y-73801032D01*
X101930273Y-73952558D01*
X89352711Y-73952558D01*
X89354792Y-73947533D01*
X89377567Y-73924758D01*
X89406553Y-73895772D01*
X89459280Y-73804446D01*
X89486572Y-73702588D01*
X89486573Y-73702588D01*
X89486573Y-73597130D01*
X89486572Y-73597129D01*
X89483930Y-73587270D01*
X89459280Y-73495272D01*
X89406553Y-73403946D01*
X89331986Y-73329379D01*
X89276377Y-73297273D01*
X89240664Y-73276654D01*
X89240655Y-73276650D01*
X89138802Y-73249359D01*
X89138800Y-73249359D01*
X89033346Y-73249359D01*
X89033344Y-73249359D01*
X88931490Y-73276650D01*
X88931481Y-73276654D01*
X88840159Y-73329379D01*
X88765593Y-73403945D01*
X88712868Y-73495267D01*
X88712864Y-73495276D01*
X88685573Y-73597129D01*
X82279405Y-73597129D01*
X82284101Y-73573519D01*
X82284101Y-73406281D01*
X82251474Y-73242256D01*
X82251472Y-73242251D01*
X82187477Y-73087752D01*
X82187476Y-73087750D01*
X82187475Y-73087748D01*
X82094562Y-72948694D01*
X81976307Y-72830439D01*
X81961402Y-72820480D01*
X81923987Y-72795480D01*
X81837253Y-72737526D01*
X81837249Y-72737524D01*
X81837247Y-72737523D01*
X81837248Y-72737523D01*
X81682749Y-72673528D01*
X81682739Y-72673525D01*
X81572899Y-72651677D01*
X81518720Y-72640900D01*
X81351482Y-72640900D01*
X81304982Y-72650149D01*
X81187462Y-72673525D01*
X81187452Y-72673528D01*
X81032953Y-72737523D01*
X80893895Y-72830438D01*
X80893894Y-72830440D01*
X80775641Y-72948693D01*
X80775639Y-72948694D01*
X80682724Y-73087752D01*
X80618729Y-73242251D01*
X80618726Y-73242261D01*
X80597182Y-73350572D01*
X80586101Y-73406281D01*
X67141400Y-73406281D01*
X67141400Y-72136281D01*
X83126101Y-72136281D01*
X83126101Y-72303519D01*
X83133621Y-72341325D01*
X83158726Y-72467538D01*
X83158729Y-72467548D01*
X83222724Y-72622047D01*
X83222726Y-72622050D01*
X83222727Y-72622052D01*
X83234697Y-72639966D01*
X83302757Y-72741826D01*
X83315640Y-72761106D01*
X83433895Y-72879361D01*
X83572949Y-72972274D01*
X83572954Y-72972276D01*
X83572953Y-72972276D01*
X83727452Y-73036271D01*
X83727457Y-73036273D01*
X83891482Y-73068900D01*
X83891484Y-73068900D01*
X84058718Y-73068900D01*
X84058720Y-73068900D01*
X84222745Y-73036273D01*
X84377253Y-72972274D01*
X84430706Y-72936558D01*
X96850273Y-72936558D01*
X96850273Y-73093441D01*
X96890874Y-73244967D01*
X96953874Y-73354087D01*
X96969314Y-73380830D01*
X97080243Y-73491759D01*
X97155557Y-73535241D01*
X97216105Y-73570198D01*
X97298472Y-73592268D01*
X97367631Y-73610799D01*
X97367632Y-73610800D01*
X97367634Y-73610800D01*
X97524514Y-73610800D01*
X97524514Y-73610799D01*
X97647501Y-73577845D01*
X97676040Y-73570198D01*
X97676040Y-73570197D01*
X97676043Y-73570197D01*
X97811903Y-73491759D01*
X97922832Y-73380830D01*
X98001270Y-73244970D01*
X98007083Y-73223278D01*
X98037621Y-73109307D01*
X98041872Y-73093441D01*
X98041873Y-73093441D01*
X98041873Y-72936559D01*
X98041872Y-72936558D01*
X98001271Y-72785032D01*
X97992870Y-72770481D01*
X97922832Y-72649170D01*
X97811903Y-72538241D01*
X97805439Y-72534509D01*
X97676040Y-72459801D01*
X97524514Y-72419200D01*
X97524512Y-72419200D01*
X97367634Y-72419200D01*
X97367632Y-72419200D01*
X97216105Y-72459801D01*
X97080242Y-72538241D01*
X96969314Y-72649169D01*
X96890874Y-72785032D01*
X96850273Y-72936558D01*
X84430706Y-72936558D01*
X84516307Y-72879361D01*
X84634562Y-72761106D01*
X84727475Y-72622052D01*
X84791474Y-72467544D01*
X84824101Y-72303519D01*
X84824101Y-72136281D01*
X84791474Y-71972256D01*
X84770028Y-71920480D01*
X84727477Y-71817752D01*
X84727476Y-71817750D01*
X84727475Y-71817748D01*
X84646974Y-71697270D01*
X88685573Y-71697270D01*
X88685573Y-71802729D01*
X88712864Y-71904582D01*
X88712868Y-71904591D01*
X88765593Y-71995913D01*
X88817354Y-72047674D01*
X88839028Y-72100000D01*
X88817354Y-72152326D01*
X88765593Y-72204086D01*
X88712868Y-72295408D01*
X88712864Y-72295417D01*
X88685573Y-72397270D01*
X88685573Y-72502729D01*
X88712864Y-72604582D01*
X88712868Y-72604591D01*
X88741733Y-72654587D01*
X88765593Y-72695913D01*
X88840160Y-72770480D01*
X88931486Y-72823207D01*
X89033343Y-72850499D01*
X89033344Y-72850500D01*
X89033346Y-72850500D01*
X89138802Y-72850500D01*
X89138802Y-72850499D01*
X89240660Y-72823207D01*
X89331986Y-72770480D01*
X89406553Y-72695913D01*
X89459280Y-72604587D01*
X89486572Y-72502729D01*
X89486573Y-72502729D01*
X89486573Y-72397271D01*
X89486572Y-72397270D01*
X89459281Y-72295417D01*
X89459280Y-72295414D01*
X89459280Y-72295413D01*
X89406553Y-72204087D01*
X89354792Y-72152326D01*
X89333118Y-72100000D01*
X89354792Y-72047674D01*
X89356553Y-72045913D01*
X89406553Y-71995913D01*
X89459280Y-71904587D01*
X89486572Y-71802729D01*
X89486573Y-71802729D01*
X89486573Y-71697271D01*
X92416464Y-71697271D01*
X92416464Y-71802730D01*
X92443755Y-71904583D01*
X92443759Y-71904592D01*
X92496484Y-71995914D01*
X92548245Y-72047675D01*
X92569919Y-72100001D01*
X92548245Y-72152327D01*
X92496484Y-72204087D01*
X92443759Y-72295409D01*
X92443755Y-72295418D01*
X92416464Y-72397271D01*
X92416464Y-72502730D01*
X92443755Y-72604583D01*
X92443759Y-72604592D01*
X92464722Y-72640900D01*
X92496484Y-72695914D01*
X92571051Y-72770481D01*
X92662377Y-72823208D01*
X92764234Y-72850500D01*
X92764235Y-72850501D01*
X92764237Y-72850501D01*
X92869693Y-72850501D01*
X92869693Y-72850500D01*
X92971551Y-72823208D01*
X93062877Y-72770481D01*
X93137444Y-72695914D01*
X93190171Y-72604588D01*
X93217463Y-72502730D01*
X93217464Y-72502730D01*
X93217464Y-72397272D01*
X93217463Y-72397271D01*
X93190172Y-72295418D01*
X93190172Y-72295417D01*
X93190171Y-72295414D01*
X93137444Y-72204088D01*
X93085683Y-72152327D01*
X93064009Y-72100001D01*
X93085683Y-72047675D01*
X93087445Y-72045913D01*
X93137444Y-71995914D01*
X93190171Y-71904588D01*
X93217463Y-71802730D01*
X93217464Y-71802730D01*
X93217464Y-71697272D01*
X93217463Y-71697271D01*
X93212485Y-71678694D01*
X93190171Y-71595414D01*
X93190169Y-71595411D01*
X93190167Y-71595405D01*
X93180941Y-71579426D01*
X93180939Y-71579423D01*
X93162375Y-71547270D01*
X99599500Y-71547270D01*
X99599500Y-71652729D01*
X99626791Y-71754582D01*
X99626795Y-71754591D01*
X99654587Y-71802728D01*
X99679520Y-71845913D01*
X99754087Y-71920480D01*
X99845413Y-71973207D01*
X99947270Y-72000499D01*
X99947271Y-72000500D01*
X99947273Y-72000500D01*
X100052729Y-72000500D01*
X100052729Y-72000499D01*
X100154587Y-71973207D01*
X100245778Y-71920558D01*
X101930273Y-71920558D01*
X101930273Y-72077441D01*
X101970874Y-72228967D01*
X102035744Y-72341326D01*
X102049314Y-72364830D01*
X102160243Y-72475759D01*
X102296103Y-72554197D01*
X102296105Y-72554198D01*
X102402615Y-72582737D01*
X102447631Y-72594799D01*
X102447632Y-72594800D01*
X102447634Y-72594800D01*
X102604514Y-72594800D01*
X102604514Y-72594799D01*
X102711024Y-72566259D01*
X102756040Y-72554198D01*
X102756040Y-72554197D01*
X102756043Y-72554197D01*
X102790144Y-72534509D01*
X107156581Y-72534509D01*
X107156581Y-72639968D01*
X107183872Y-72741821D01*
X107183876Y-72741830D01*
X107230858Y-72823205D01*
X107236601Y-72833152D01*
X107311168Y-72907719D01*
X107402494Y-72960446D01*
X107402498Y-72960447D01*
X107413290Y-72963339D01*
X107458223Y-72997818D01*
X107465615Y-73053970D01*
X107446464Y-73087142D01*
X107429520Y-73104086D01*
X107376795Y-73195408D01*
X107376791Y-73195417D01*
X107349500Y-73297270D01*
X107349500Y-73402729D01*
X107376791Y-73504582D01*
X107376795Y-73504591D01*
X107416590Y-73573517D01*
X107429520Y-73595913D01*
X107504087Y-73670480D01*
X107595413Y-73723207D01*
X107697270Y-73750499D01*
X107697271Y-73750500D01*
X107697273Y-73750500D01*
X107802729Y-73750500D01*
X107802729Y-73750499D01*
X107904587Y-73723207D01*
X107995913Y-73670480D01*
X108070480Y-73595913D01*
X108123207Y-73504587D01*
X108133033Y-73467913D01*
X108143251Y-73429782D01*
X110988085Y-73429782D01*
X110988085Y-73535241D01*
X111015376Y-73637094D01*
X111015380Y-73637103D01*
X111024401Y-73652727D01*
X111068105Y-73728425D01*
X111142672Y-73802992D01*
X111233998Y-73855719D01*
X111335855Y-73883011D01*
X111335856Y-73883012D01*
X111409061Y-73883012D01*
X111461387Y-73904686D01*
X111483061Y-73957012D01*
X111483061Y-74030217D01*
X111510352Y-74132070D01*
X111510356Y-74132079D01*
X111557048Y-74212951D01*
X111563081Y-74223401D01*
X111637648Y-74297968D01*
X111728974Y-74350695D01*
X111830831Y-74377987D01*
X111830832Y-74377988D01*
X111830834Y-74377988D01*
X111936290Y-74377988D01*
X111936290Y-74377987D01*
X112038148Y-74350695D01*
X112129474Y-74297968D01*
X112204041Y-74223401D01*
X112256768Y-74132075D01*
X112263414Y-74107270D01*
X116299500Y-74107270D01*
X116299500Y-74212729D01*
X116326791Y-74314582D01*
X116326795Y-74314591D01*
X116374276Y-74396830D01*
X116379520Y-74405913D01*
X116454087Y-74480480D01*
X116545413Y-74533207D01*
X116647270Y-74560499D01*
X116647271Y-74560500D01*
X116647273Y-74560500D01*
X116752729Y-74560500D01*
X116752729Y-74560499D01*
X116854587Y-74533207D01*
X116945913Y-74480480D01*
X117020480Y-74405913D01*
X117073207Y-74314587D01*
X117100499Y-74212729D01*
X117100500Y-74212729D01*
X117100500Y-74107271D01*
X117100499Y-74107270D01*
X117099608Y-74103946D01*
X117073207Y-74005413D01*
X117020480Y-73914087D01*
X116945913Y-73839520D01*
X116917128Y-73822901D01*
X116854591Y-73786795D01*
X116854582Y-73786791D01*
X116752729Y-73759500D01*
X116752727Y-73759500D01*
X116647273Y-73759500D01*
X116647271Y-73759500D01*
X116545417Y-73786791D01*
X116545408Y-73786795D01*
X116454086Y-73839520D01*
X116379520Y-73914086D01*
X116326795Y-74005408D01*
X116326791Y-74005417D01*
X116299500Y-74107270D01*
X112263414Y-74107270D01*
X112284060Y-74030217D01*
X112284061Y-74030217D01*
X112284061Y-73924759D01*
X112284060Y-73924758D01*
X112282913Y-73920479D01*
X112256768Y-73822901D01*
X112204041Y-73731575D01*
X112129474Y-73657008D01*
X112038148Y-73604281D01*
X112038145Y-73604280D01*
X112038143Y-73604279D01*
X111936290Y-73576988D01*
X111936288Y-73576988D01*
X111863085Y-73576988D01*
X111810759Y-73555314D01*
X111805971Y-73543755D01*
X112659500Y-73543755D01*
X112659500Y-73649214D01*
X112686791Y-73751067D01*
X112686795Y-73751076D01*
X112728263Y-73822901D01*
X112739520Y-73842398D01*
X112814087Y-73916965D01*
X112905413Y-73969692D01*
X113007270Y-73996984D01*
X113007271Y-73996985D01*
X113007273Y-73996985D01*
X113112729Y-73996985D01*
X113112729Y-73996984D01*
X113214587Y-73969692D01*
X113305913Y-73916965D01*
X113357674Y-73865204D01*
X113410000Y-73843530D01*
X113462326Y-73865204D01*
X113514087Y-73916965D01*
X113605413Y-73969692D01*
X113707270Y-73996984D01*
X113707271Y-73996985D01*
X113707273Y-73996985D01*
X113812729Y-73996985D01*
X113812729Y-73996984D01*
X113914587Y-73969692D01*
X114005913Y-73916965D01*
X114078169Y-73844708D01*
X114130494Y-73823035D01*
X114182820Y-73844709D01*
X114194580Y-73860036D01*
X114207844Y-73883011D01*
X114209520Y-73885913D01*
X114284087Y-73960480D01*
X114375413Y-74013207D01*
X114477270Y-74040499D01*
X114477271Y-74040500D01*
X114477273Y-74040500D01*
X114582729Y-74040500D01*
X114582729Y-74040499D01*
X114599941Y-74035887D01*
X114618389Y-74030945D01*
X114657719Y-74020406D01*
X114684587Y-74013207D01*
X114775913Y-73960480D01*
X114850480Y-73885913D01*
X114903207Y-73794587D01*
X114930499Y-73692729D01*
X114930500Y-73692729D01*
X114930500Y-73587271D01*
X114930499Y-73587270D01*
X114923615Y-73561576D01*
X114919782Y-73547270D01*
X123199500Y-73547270D01*
X123199500Y-73652729D01*
X123226791Y-73754582D01*
X123226795Y-73754591D01*
X123255576Y-73804441D01*
X123279520Y-73845913D01*
X123354087Y-73920480D01*
X123445413Y-73973207D01*
X123547270Y-74000499D01*
X123547271Y-74000500D01*
X123547273Y-74000500D01*
X123652729Y-74000500D01*
X123652729Y-74000499D01*
X123754587Y-73973207D01*
X123845913Y-73920480D01*
X123920480Y-73845913D01*
X123973207Y-73754587D01*
X124000499Y-73652729D01*
X124000500Y-73652729D01*
X124000500Y-73547271D01*
X124000499Y-73547270D01*
X123997275Y-73535239D01*
X123973207Y-73445413D01*
X123971175Y-73441893D01*
X123969877Y-73439644D01*
X123950614Y-73406281D01*
X134058000Y-73406281D01*
X134058000Y-73573519D01*
X134065416Y-73610799D01*
X134090625Y-73737538D01*
X134090628Y-73737548D01*
X134154623Y-73892047D01*
X134154625Y-73892050D01*
X134154626Y-73892052D01*
X134189019Y-73943525D01*
X134246943Y-74030215D01*
X134247539Y-74031106D01*
X134365794Y-74149361D01*
X134504848Y-74242274D01*
X134504853Y-74242276D01*
X134504852Y-74242276D01*
X134639303Y-74297967D01*
X134659356Y-74306273D01*
X134823381Y-74338900D01*
X134823383Y-74338900D01*
X134990617Y-74338900D01*
X134990619Y-74338900D01*
X135154644Y-74306273D01*
X135309152Y-74242274D01*
X135448206Y-74149361D01*
X135566461Y-74031106D01*
X135659374Y-73892052D01*
X135723373Y-73737544D01*
X135756000Y-73573519D01*
X135756000Y-73406281D01*
X135723373Y-73242256D01*
X135723371Y-73242251D01*
X135659376Y-73087752D01*
X135659375Y-73087750D01*
X135659374Y-73087748D01*
X135566461Y-72948694D01*
X135448206Y-72830439D01*
X135433301Y-72820480D01*
X135395886Y-72795480D01*
X135309152Y-72737526D01*
X135309148Y-72737524D01*
X135309146Y-72737523D01*
X135309147Y-72737523D01*
X135154648Y-72673528D01*
X135154638Y-72673525D01*
X135044798Y-72651677D01*
X134990619Y-72640900D01*
X134823381Y-72640900D01*
X134776881Y-72650149D01*
X134659361Y-72673525D01*
X134659351Y-72673528D01*
X134504852Y-72737523D01*
X134365794Y-72830438D01*
X134365793Y-72830440D01*
X134247540Y-72948693D01*
X134247538Y-72948694D01*
X134154623Y-73087752D01*
X134090628Y-73242251D01*
X134090625Y-73242261D01*
X134069081Y-73350572D01*
X134058000Y-73406281D01*
X123950614Y-73406281D01*
X123935920Y-73380830D01*
X123920480Y-73354087D01*
X123845913Y-73279520D01*
X123786071Y-73244970D01*
X123754591Y-73226795D01*
X123754582Y-73226791D01*
X123652729Y-73199500D01*
X123652727Y-73199500D01*
X123547273Y-73199500D01*
X123547271Y-73199500D01*
X123445417Y-73226791D01*
X123445408Y-73226795D01*
X123354086Y-73279520D01*
X123279520Y-73354086D01*
X123226795Y-73445408D01*
X123226791Y-73445417D01*
X123199500Y-73547270D01*
X114919782Y-73547270D01*
X114903208Y-73485417D01*
X114903207Y-73485413D01*
X114850480Y-73394087D01*
X114775913Y-73319520D01*
X114701667Y-73276654D01*
X114684591Y-73266795D01*
X114684582Y-73266791D01*
X114582729Y-73239500D01*
X114582727Y-73239500D01*
X114477273Y-73239500D01*
X114477271Y-73239500D01*
X114375417Y-73266791D01*
X114375408Y-73266795D01*
X114284086Y-73319520D01*
X114211831Y-73391775D01*
X114159505Y-73413449D01*
X114107179Y-73391775D01*
X114095421Y-73376451D01*
X114080480Y-73350572D01*
X114005913Y-73276005D01*
X113947458Y-73242256D01*
X113914591Y-73223280D01*
X113914582Y-73223276D01*
X113812729Y-73195985D01*
X113812727Y-73195985D01*
X113707273Y-73195985D01*
X113707271Y-73195985D01*
X113605417Y-73223276D01*
X113605408Y-73223280D01*
X113514086Y-73276005D01*
X113462326Y-73327766D01*
X113410000Y-73349440D01*
X113357674Y-73327766D01*
X113305913Y-73276005D01*
X113214591Y-73223280D01*
X113214582Y-73223276D01*
X113112729Y-73195985D01*
X113112727Y-73195985D01*
X113007273Y-73195985D01*
X113007271Y-73195985D01*
X112905417Y-73223276D01*
X112905408Y-73223280D01*
X112814086Y-73276005D01*
X112739520Y-73350571D01*
X112686795Y-73441893D01*
X112686791Y-73441902D01*
X112659500Y-73543755D01*
X111805971Y-73543755D01*
X111789085Y-73502988D01*
X111789085Y-73429783D01*
X111789084Y-73429782D01*
X111782161Y-73403946D01*
X111761792Y-73327925D01*
X111709065Y-73236599D01*
X111634498Y-73162032D01*
X111543176Y-73109307D01*
X111543167Y-73109303D01*
X111441314Y-73082012D01*
X111441312Y-73082012D01*
X111335858Y-73082012D01*
X111335856Y-73082012D01*
X111234002Y-73109303D01*
X111233993Y-73109307D01*
X111142671Y-73162032D01*
X111068105Y-73236598D01*
X111015380Y-73327920D01*
X111015376Y-73327929D01*
X110988085Y-73429782D01*
X108143251Y-73429782D01*
X108149682Y-73405782D01*
X108150499Y-73402729D01*
X108150500Y-73402729D01*
X108150500Y-73297271D01*
X108150499Y-73297270D01*
X108142333Y-73266795D01*
X108123207Y-73195413D01*
X108070480Y-73104087D01*
X107995913Y-73029520D01*
X107904591Y-72976795D01*
X107904589Y-72976794D01*
X107904587Y-72976793D01*
X107904584Y-72976792D01*
X107904579Y-72976790D01*
X107893787Y-72973898D01*
X107848855Y-72939418D01*
X107841466Y-72883265D01*
X107860616Y-72850096D01*
X107877561Y-72833152D01*
X107930288Y-72741826D01*
X107957580Y-72639968D01*
X107957581Y-72639968D01*
X107957581Y-72534512D01*
X107939637Y-72467544D01*
X107931339Y-72436574D01*
X107931339Y-72436572D01*
X107930290Y-72432659D01*
X107930289Y-72432656D01*
X107930288Y-72432652D01*
X107924294Y-72422270D01*
X111410573Y-72422270D01*
X111410573Y-72527729D01*
X111437864Y-72629582D01*
X111437868Y-72629591D01*
X111463235Y-72673527D01*
X111490593Y-72720913D01*
X111565160Y-72795480D01*
X111656486Y-72848207D01*
X111758343Y-72875499D01*
X111758344Y-72875500D01*
X111758346Y-72875500D01*
X111863802Y-72875500D01*
X111863802Y-72875499D01*
X111965660Y-72848207D01*
X112056986Y-72795480D01*
X112131553Y-72720913D01*
X112184280Y-72629587D01*
X112211572Y-72527729D01*
X112211573Y-72527729D01*
X112211573Y-72422271D01*
X112211572Y-72422270D01*
X112210749Y-72419200D01*
X112184280Y-72320413D01*
X112131553Y-72229087D01*
X112081755Y-72179289D01*
X112060081Y-72126963D01*
X112081754Y-72074638D01*
X112140480Y-72015913D01*
X112193207Y-71924587D01*
X112220499Y-71822729D01*
X112220500Y-71822729D01*
X112220500Y-71717271D01*
X112220499Y-71717270D01*
X112216481Y-71702276D01*
X112193207Y-71615413D01*
X112140480Y-71524087D01*
X112088719Y-71472326D01*
X112078256Y-71447067D01*
X112067075Y-71422124D01*
X112067491Y-71421077D01*
X112067045Y-71420000D01*
X112087239Y-71369198D01*
X112087982Y-71368410D01*
X112099122Y-71357270D01*
X115329500Y-71357270D01*
X115329500Y-71462729D01*
X115356791Y-71564582D01*
X115356795Y-71564591D01*
X115382643Y-71609360D01*
X115409520Y-71655913D01*
X115484087Y-71730480D01*
X115575413Y-71783207D01*
X115677270Y-71810499D01*
X115677271Y-71810500D01*
X115677273Y-71810500D01*
X115782729Y-71810500D01*
X115782729Y-71810499D01*
X115884587Y-71783207D01*
X115975913Y-71730480D01*
X116050480Y-71655913D01*
X116103207Y-71564587D01*
X116127931Y-71472314D01*
X116162409Y-71427383D01*
X116218562Y-71419990D01*
X116263495Y-71454469D01*
X116270885Y-71472310D01*
X116278434Y-71500480D01*
X116279325Y-71503805D01*
X116279326Y-71503807D01*
X116314419Y-71564589D01*
X116332051Y-71595129D01*
X116406618Y-71669696D01*
X116497944Y-71722423D01*
X116599801Y-71749715D01*
X116599802Y-71749716D01*
X116599804Y-71749716D01*
X116705260Y-71749716D01*
X116705260Y-71749715D01*
X116807118Y-71722423D01*
X116898444Y-71669696D01*
X116973011Y-71595129D01*
X117025738Y-71503803D01*
X117045642Y-71429520D01*
X117053031Y-71401944D01*
X117053031Y-71296487D01*
X117053030Y-71296486D01*
X117052573Y-71294782D01*
X117025738Y-71194629D01*
X116998395Y-71147270D01*
X118199500Y-71147270D01*
X118199500Y-71252729D01*
X118226791Y-71354582D01*
X118226795Y-71354591D01*
X118270056Y-71429521D01*
X118279520Y-71445913D01*
X118354087Y-71520480D01*
X118445413Y-71573207D01*
X118547270Y-71600499D01*
X118547271Y-71600500D01*
X118547273Y-71600500D01*
X118652729Y-71600500D01*
X118652729Y-71600499D01*
X118754587Y-71573207D01*
X118845913Y-71520480D01*
X118920480Y-71445913D01*
X118973207Y-71354587D01*
X119000499Y-71252729D01*
X119000500Y-71252729D01*
X119000500Y-71147271D01*
X118998974Y-71141577D01*
X118998974Y-71141576D01*
X118995141Y-71127270D01*
X120069500Y-71127270D01*
X120069500Y-71232729D01*
X120096791Y-71334582D01*
X120096795Y-71334591D01*
X120136134Y-71402727D01*
X120149520Y-71425913D01*
X120224087Y-71500480D01*
X120315413Y-71553207D01*
X120417270Y-71580499D01*
X120417271Y-71580500D01*
X120417273Y-71580500D01*
X120522729Y-71580500D01*
X120522729Y-71580499D01*
X120624587Y-71553207D01*
X120715913Y-71500480D01*
X120790480Y-71425913D01*
X120843207Y-71334587D01*
X120853206Y-71297270D01*
X125279500Y-71297270D01*
X125279500Y-71402729D01*
X125306791Y-71504582D01*
X125306795Y-71504591D01*
X125350001Y-71579426D01*
X125359520Y-71595913D01*
X125434087Y-71670480D01*
X125525413Y-71723207D01*
X125627270Y-71750499D01*
X125627271Y-71750500D01*
X125627273Y-71750500D01*
X125732729Y-71750500D01*
X125732729Y-71750499D01*
X125744780Y-71747270D01*
X128157269Y-71747270D01*
X128157269Y-71852729D01*
X128184560Y-71954582D01*
X128184564Y-71954591D01*
X128237289Y-72045913D01*
X128289050Y-72097674D01*
X128310724Y-72150000D01*
X128289050Y-72202326D01*
X128237289Y-72254086D01*
X128184564Y-72345408D01*
X128184560Y-72345417D01*
X128157269Y-72447270D01*
X128157269Y-72552729D01*
X128184560Y-72654582D01*
X128184564Y-72654591D01*
X128208422Y-72695914D01*
X128237289Y-72745913D01*
X128311856Y-72820480D01*
X128403182Y-72873207D01*
X128505039Y-72900499D01*
X128505040Y-72900500D01*
X128505042Y-72900500D01*
X128610498Y-72900500D01*
X128610498Y-72900499D01*
X128712356Y-72873207D01*
X128803682Y-72820480D01*
X128878249Y-72745913D01*
X128930976Y-72654587D01*
X128958268Y-72552729D01*
X128958269Y-72552729D01*
X128958269Y-72447271D01*
X128958268Y-72447270D01*
X128955402Y-72436575D01*
X128930976Y-72345413D01*
X128878249Y-72254087D01*
X128826488Y-72202326D01*
X128804814Y-72150000D01*
X128810497Y-72136281D01*
X136598000Y-72136281D01*
X136598000Y-72303519D01*
X136605520Y-72341325D01*
X136630625Y-72467538D01*
X136630628Y-72467548D01*
X136694623Y-72622047D01*
X136694625Y-72622050D01*
X136694626Y-72622052D01*
X136706596Y-72639966D01*
X136774656Y-72741826D01*
X136787539Y-72761106D01*
X136905794Y-72879361D01*
X137044848Y-72972274D01*
X137044853Y-72972276D01*
X137044852Y-72972276D01*
X137199351Y-73036271D01*
X137199356Y-73036273D01*
X137363381Y-73068900D01*
X137363383Y-73068900D01*
X137530617Y-73068900D01*
X137530619Y-73068900D01*
X137694644Y-73036273D01*
X137849152Y-72972274D01*
X137988206Y-72879361D01*
X138106461Y-72761106D01*
X138199374Y-72622052D01*
X138263373Y-72467544D01*
X138296000Y-72303519D01*
X138296000Y-72136281D01*
X138263373Y-71972256D01*
X138241927Y-71920480D01*
X138199376Y-71817752D01*
X138199375Y-71817750D01*
X138199374Y-71817748D01*
X138106461Y-71678694D01*
X137988206Y-71560439D01*
X137849152Y-71467526D01*
X137849148Y-71467524D01*
X137849146Y-71467523D01*
X137849147Y-71467523D01*
X137694648Y-71403528D01*
X137694638Y-71403525D01*
X137584798Y-71381677D01*
X137530619Y-71370900D01*
X137363381Y-71370900D01*
X137316881Y-71380149D01*
X137199361Y-71403525D01*
X137199351Y-71403528D01*
X137044852Y-71467523D01*
X136905794Y-71560438D01*
X136905793Y-71560440D01*
X136787540Y-71678693D01*
X136787538Y-71678694D01*
X136694623Y-71817752D01*
X136630628Y-71972251D01*
X136630625Y-71972261D01*
X136605217Y-72100000D01*
X136598000Y-72136281D01*
X128810497Y-72136281D01*
X128826488Y-72097674D01*
X128843842Y-72080320D01*
X128858452Y-72065710D01*
X128878249Y-72045913D01*
X128930976Y-71954587D01*
X128958268Y-71852729D01*
X128958269Y-71852729D01*
X128958269Y-71747271D01*
X128958268Y-71747270D01*
X128951820Y-71723207D01*
X128930976Y-71645413D01*
X128913653Y-71615408D01*
X128910104Y-71609261D01*
X128896112Y-71585026D01*
X128878249Y-71554087D01*
X128803682Y-71479520D01*
X128774596Y-71462727D01*
X128712360Y-71426795D01*
X128712351Y-71426791D01*
X128610498Y-71399500D01*
X128610496Y-71399500D01*
X128505042Y-71399500D01*
X128505040Y-71399500D01*
X128403186Y-71426791D01*
X128403177Y-71426795D01*
X128311855Y-71479520D01*
X128237289Y-71554086D01*
X128184564Y-71645408D01*
X128184560Y-71645417D01*
X128157269Y-71747270D01*
X125744780Y-71747270D01*
X125834587Y-71723207D01*
X125925913Y-71670480D01*
X126000480Y-71595913D01*
X126053207Y-71504587D01*
X126080499Y-71402729D01*
X126080500Y-71402729D01*
X126080500Y-71297271D01*
X126080499Y-71297270D01*
X126079832Y-71294782D01*
X126053207Y-71195413D01*
X126000480Y-71104087D01*
X125925913Y-71029520D01*
X125861290Y-70992210D01*
X125834591Y-70976795D01*
X125834582Y-70976791D01*
X125732729Y-70949500D01*
X125732727Y-70949500D01*
X125627273Y-70949500D01*
X125627271Y-70949500D01*
X125525417Y-70976791D01*
X125525408Y-70976795D01*
X125434086Y-71029520D01*
X125359520Y-71104086D01*
X125306795Y-71195408D01*
X125306791Y-71195417D01*
X125279500Y-71297270D01*
X120853206Y-71297270D01*
X120855985Y-71286899D01*
X120859637Y-71273270D01*
X120864644Y-71254582D01*
X120870499Y-71232729D01*
X120870500Y-71232729D01*
X120870500Y-71127271D01*
X120870499Y-71127270D01*
X120851393Y-71055966D01*
X120843207Y-71025413D01*
X120790480Y-70934087D01*
X120722723Y-70866330D01*
X134058500Y-70866330D01*
X134058500Y-71033469D01*
X134091105Y-71197391D01*
X134091108Y-71197402D01*
X134155066Y-71351811D01*
X134247926Y-71490787D01*
X134253986Y-71496847D01*
X134542779Y-71208052D01*
X134551311Y-71222830D01*
X134634070Y-71305589D01*
X134648845Y-71314119D01*
X134360052Y-71602913D01*
X134366112Y-71608973D01*
X134505089Y-71701833D01*
X134505088Y-71701833D01*
X134659497Y-71765791D01*
X134659508Y-71765794D01*
X134823431Y-71798400D01*
X134990569Y-71798400D01*
X135154491Y-71765794D01*
X135154502Y-71765791D01*
X135308911Y-71701833D01*
X135447888Y-71608972D01*
X135453946Y-71602912D01*
X135165153Y-71314119D01*
X135179930Y-71305589D01*
X135262689Y-71222830D01*
X135271219Y-71208053D01*
X135560012Y-71496846D01*
X135566072Y-71490788D01*
X135658933Y-71351811D01*
X135722891Y-71197402D01*
X135722894Y-71197391D01*
X135755500Y-71033469D01*
X135755500Y-70866330D01*
X135722894Y-70702408D01*
X135722891Y-70702397D01*
X135658933Y-70547988D01*
X135566073Y-70409012D01*
X135560013Y-70402952D01*
X135271219Y-70691745D01*
X135262689Y-70676970D01*
X135179930Y-70594211D01*
X135165152Y-70585679D01*
X135453947Y-70296886D01*
X135447887Y-70290826D01*
X135308910Y-70197966D01*
X135308911Y-70197966D01*
X135154502Y-70134008D01*
X135154491Y-70134005D01*
X134990569Y-70101400D01*
X134823431Y-70101400D01*
X134659508Y-70134005D01*
X134659497Y-70134008D01*
X134505088Y-70197966D01*
X134366114Y-70290825D01*
X134366108Y-70290829D01*
X134360051Y-70296885D01*
X134648846Y-70585680D01*
X134634070Y-70594211D01*
X134551311Y-70676970D01*
X134542780Y-70691746D01*
X134253985Y-70402951D01*
X134247929Y-70409008D01*
X134247925Y-70409014D01*
X134155066Y-70547988D01*
X134091108Y-70702397D01*
X134091105Y-70702408D01*
X134058500Y-70866330D01*
X120722723Y-70866330D01*
X120715913Y-70859520D01*
X120654541Y-70824087D01*
X120624591Y-70806795D01*
X120624582Y-70806791D01*
X120522729Y-70779500D01*
X120522727Y-70779500D01*
X120417273Y-70779500D01*
X120417271Y-70779500D01*
X120315417Y-70806791D01*
X120315408Y-70806795D01*
X120224086Y-70859520D01*
X120149520Y-70934086D01*
X120096795Y-71025408D01*
X120096791Y-71025417D01*
X120069500Y-71127270D01*
X118995141Y-71127270D01*
X118973208Y-71045417D01*
X118973207Y-71045413D01*
X118920480Y-70954087D01*
X118845913Y-70879520D01*
X118786838Y-70845413D01*
X118754591Y-70826795D01*
X118754582Y-70826791D01*
X118652729Y-70799500D01*
X118652727Y-70799500D01*
X118547273Y-70799500D01*
X118547271Y-70799500D01*
X118445417Y-70826791D01*
X118445408Y-70826795D01*
X118354086Y-70879520D01*
X118279520Y-70954086D01*
X118226795Y-71045408D01*
X118226791Y-71045417D01*
X118199500Y-71147270D01*
X116998395Y-71147270D01*
X116973011Y-71103303D01*
X116898444Y-71028736D01*
X116892680Y-71025408D01*
X116807122Y-70976011D01*
X116807113Y-70976007D01*
X116705260Y-70948716D01*
X116705258Y-70948716D01*
X116599804Y-70948716D01*
X116599802Y-70948716D01*
X116497948Y-70976007D01*
X116497939Y-70976011D01*
X116406617Y-71028736D01*
X116332051Y-71103302D01*
X116279326Y-71194624D01*
X116279322Y-71194633D01*
X116254599Y-71286899D01*
X116220120Y-71331832D01*
X116163968Y-71339224D01*
X116119035Y-71304745D01*
X116111644Y-71286903D01*
X116103207Y-71255413D01*
X116050480Y-71164087D01*
X115975913Y-71089520D01*
X115902739Y-71047273D01*
X115884591Y-71036795D01*
X115884582Y-71036791D01*
X115782729Y-71009500D01*
X115782727Y-71009500D01*
X115677273Y-71009500D01*
X115677271Y-71009500D01*
X115575417Y-71036791D01*
X115575408Y-71036795D01*
X115484086Y-71089520D01*
X115409520Y-71164086D01*
X115356795Y-71255408D01*
X115356791Y-71255417D01*
X115329500Y-71357270D01*
X112099122Y-71357270D01*
X112140480Y-71315913D01*
X112193207Y-71224587D01*
X112220499Y-71122729D01*
X112220500Y-71122729D01*
X112220500Y-71017271D01*
X112220499Y-71017270D01*
X112209653Y-70976793D01*
X112193207Y-70915413D01*
X112140480Y-70824087D01*
X112065913Y-70749520D01*
X112026545Y-70726791D01*
X111974591Y-70696795D01*
X111974582Y-70696791D01*
X111872729Y-70669500D01*
X111872727Y-70669500D01*
X111767273Y-70669500D01*
X111767271Y-70669500D01*
X111665417Y-70696791D01*
X111665408Y-70696795D01*
X111574086Y-70749520D01*
X111499520Y-70824086D01*
X111446795Y-70915408D01*
X111446791Y-70915417D01*
X111419500Y-71017270D01*
X111419500Y-71122729D01*
X111446791Y-71224582D01*
X111446795Y-71224591D01*
X111499520Y-71315913D01*
X111551281Y-71367674D01*
X111572955Y-71420000D01*
X111551281Y-71472326D01*
X111499520Y-71524086D01*
X111446795Y-71615408D01*
X111446791Y-71615417D01*
X111419500Y-71717270D01*
X111419500Y-71822729D01*
X111446791Y-71924582D01*
X111446795Y-71924591D01*
X111499521Y-72015915D01*
X111549317Y-72065710D01*
X111570992Y-72118035D01*
X111549318Y-72170361D01*
X111549318Y-72170362D01*
X111490593Y-72229086D01*
X111437868Y-72320408D01*
X111437864Y-72320417D01*
X111410573Y-72422270D01*
X107924294Y-72422270D01*
X107877561Y-72341326D01*
X107802994Y-72266759D01*
X107711672Y-72214034D01*
X107711663Y-72214030D01*
X107609810Y-72186739D01*
X107609808Y-72186739D01*
X107504354Y-72186739D01*
X107504352Y-72186739D01*
X107402498Y-72214030D01*
X107402489Y-72214034D01*
X107311167Y-72266759D01*
X107236601Y-72341325D01*
X107183876Y-72432647D01*
X107183872Y-72432656D01*
X107156581Y-72534509D01*
X102790144Y-72534509D01*
X102891903Y-72475759D01*
X103002832Y-72364830D01*
X103081270Y-72228970D01*
X103087938Y-72204087D01*
X103101219Y-72154520D01*
X103121872Y-72077441D01*
X103121873Y-72077441D01*
X103121873Y-71920559D01*
X103121872Y-71920558D01*
X103081271Y-71769032D01*
X103072931Y-71754587D01*
X103002832Y-71633170D01*
X102891903Y-71522241D01*
X102861325Y-71504587D01*
X102756040Y-71443801D01*
X102604514Y-71403200D01*
X102604512Y-71403200D01*
X102447634Y-71403200D01*
X102447632Y-71403200D01*
X102296105Y-71443801D01*
X102160242Y-71522241D01*
X102049314Y-71633169D01*
X101970874Y-71769032D01*
X101930273Y-71920558D01*
X100245778Y-71920558D01*
X100245913Y-71920480D01*
X100320480Y-71845913D01*
X100373207Y-71754587D01*
X100400499Y-71652729D01*
X100400500Y-71652729D01*
X100400500Y-71547271D01*
X100400499Y-71547270D01*
X100393320Y-71520479D01*
X100373207Y-71445413D01*
X100320480Y-71354087D01*
X100245913Y-71279520D01*
X100235088Y-71273270D01*
X100154591Y-71226795D01*
X100154582Y-71226791D01*
X100052729Y-71199500D01*
X100052727Y-71199500D01*
X99947273Y-71199500D01*
X99947271Y-71199500D01*
X99845417Y-71226791D01*
X99845408Y-71226795D01*
X99754086Y-71279520D01*
X99679520Y-71354086D01*
X99626795Y-71445408D01*
X99626791Y-71445417D01*
X99599500Y-71547270D01*
X93162375Y-71547270D01*
X93148990Y-71524086D01*
X93137444Y-71504088D01*
X93062877Y-71429521D01*
X93058152Y-71426793D01*
X92971555Y-71376796D01*
X92971546Y-71376792D01*
X92869693Y-71349501D01*
X92869691Y-71349501D01*
X92764237Y-71349501D01*
X92764235Y-71349501D01*
X92662381Y-71376792D01*
X92662372Y-71376796D01*
X92571050Y-71429521D01*
X92496484Y-71504087D01*
X92443759Y-71595409D01*
X92443755Y-71595418D01*
X92416464Y-71697271D01*
X89486573Y-71697271D01*
X89486572Y-71697270D01*
X89481594Y-71678693D01*
X89459280Y-71595413D01*
X89406553Y-71504087D01*
X89331986Y-71429520D01*
X89327259Y-71426791D01*
X89240664Y-71376795D01*
X89240655Y-71376791D01*
X89138802Y-71349500D01*
X89138800Y-71349500D01*
X89033346Y-71349500D01*
X89033344Y-71349500D01*
X88931490Y-71376791D01*
X88931481Y-71376795D01*
X88840159Y-71429520D01*
X88765593Y-71504086D01*
X88712868Y-71595408D01*
X88712864Y-71595417D01*
X88685573Y-71697270D01*
X84646974Y-71697270D01*
X84634562Y-71678694D01*
X84516307Y-71560439D01*
X84377253Y-71467526D01*
X84377249Y-71467524D01*
X84377247Y-71467523D01*
X84377248Y-71467523D01*
X84222749Y-71403528D01*
X84222739Y-71403525D01*
X84112899Y-71381677D01*
X84058720Y-71370900D01*
X83891482Y-71370900D01*
X83844982Y-71380149D01*
X83727462Y-71403525D01*
X83727452Y-71403528D01*
X83572953Y-71467523D01*
X83433895Y-71560438D01*
X83433894Y-71560440D01*
X83315641Y-71678693D01*
X83315639Y-71678694D01*
X83222724Y-71817752D01*
X83158729Y-71972251D01*
X83158726Y-71972261D01*
X83133318Y-72100000D01*
X83126101Y-72136281D01*
X67141400Y-72136281D01*
X67141400Y-70866281D01*
X80586101Y-70866281D01*
X80586101Y-71033519D01*
X80588837Y-71047273D01*
X80618726Y-71197538D01*
X80618729Y-71197548D01*
X80682724Y-71352047D01*
X80682726Y-71352050D01*
X80682727Y-71352052D01*
X80708404Y-71390480D01*
X80775427Y-71490788D01*
X80775640Y-71491106D01*
X80893895Y-71609361D01*
X81032949Y-71702274D01*
X81032954Y-71702276D01*
X81032953Y-71702276D01*
X81187452Y-71766271D01*
X81187457Y-71766273D01*
X81351482Y-71798900D01*
X81351484Y-71798900D01*
X81518718Y-71798900D01*
X81518720Y-71798900D01*
X81682745Y-71766273D01*
X81837253Y-71702274D01*
X81976307Y-71609361D01*
X82094562Y-71491106D01*
X82187475Y-71352052D01*
X82251474Y-71197544D01*
X82284101Y-71033519D01*
X82284101Y-70866281D01*
X82251474Y-70702256D01*
X82251472Y-70702251D01*
X82187477Y-70547752D01*
X82187476Y-70547750D01*
X82187475Y-70547748D01*
X82181617Y-70538981D01*
X88916235Y-70538981D01*
X88916235Y-70644440D01*
X88943526Y-70746293D01*
X88943530Y-70746302D01*
X88978455Y-70806793D01*
X88996255Y-70837624D01*
X89070822Y-70912191D01*
X89162148Y-70964918D01*
X89264005Y-70992210D01*
X89264006Y-70992211D01*
X89264008Y-70992211D01*
X89369464Y-70992211D01*
X89369464Y-70992210D01*
X89471322Y-70964918D01*
X89562648Y-70912191D01*
X89637215Y-70837624D01*
X89689942Y-70746298D01*
X89717234Y-70644440D01*
X89717235Y-70644440D01*
X89717235Y-70571235D01*
X89738909Y-70518909D01*
X89791235Y-70497235D01*
X89864440Y-70497235D01*
X89864440Y-70497234D01*
X89966298Y-70469942D01*
X90057624Y-70417215D01*
X90104075Y-70370764D01*
X90156400Y-70349089D01*
X90208726Y-70370763D01*
X90220486Y-70386087D01*
X90240593Y-70420913D01*
X90315160Y-70495480D01*
X90406486Y-70548207D01*
X90508343Y-70575499D01*
X90508344Y-70575500D01*
X90508346Y-70575500D01*
X90613802Y-70575500D01*
X90613802Y-70575499D01*
X90715660Y-70548207D01*
X90806986Y-70495480D01*
X90881553Y-70420913D01*
X90932268Y-70333070D01*
X90977201Y-70298592D01*
X91033353Y-70305984D01*
X91106486Y-70348207D01*
X91208343Y-70375499D01*
X91208344Y-70375500D01*
X91208346Y-70375500D01*
X91313802Y-70375500D01*
X91313802Y-70375499D01*
X91415660Y-70348207D01*
X91506986Y-70295480D01*
X91581553Y-70220913D01*
X91634280Y-70129587D01*
X91661572Y-70027729D01*
X91661573Y-70027729D01*
X91661573Y-69921008D01*
X91683247Y-69868682D01*
X91735573Y-69847008D01*
X91754728Y-69849530D01*
X91758346Y-69850500D01*
X91863802Y-69850500D01*
X91863802Y-69850499D01*
X91965660Y-69823207D01*
X92056986Y-69770480D01*
X92110196Y-69717270D01*
X93689500Y-69717270D01*
X93689500Y-69822729D01*
X93716791Y-69924582D01*
X93716795Y-69924591D01*
X93757973Y-69995913D01*
X93769520Y-70015913D01*
X93844087Y-70090480D01*
X93935413Y-70143207D01*
X94037270Y-70170499D01*
X94037271Y-70170500D01*
X94037273Y-70170500D01*
X94142729Y-70170500D01*
X94142729Y-70170499D01*
X94244587Y-70143207D01*
X94335913Y-70090480D01*
X94387674Y-70038719D01*
X94440000Y-70017045D01*
X94492326Y-70038719D01*
X94544087Y-70090480D01*
X94635413Y-70143207D01*
X94737270Y-70170499D01*
X94737271Y-70170500D01*
X94737273Y-70170500D01*
X94842729Y-70170500D01*
X94842729Y-70170499D01*
X94944587Y-70143207D01*
X95035913Y-70090480D01*
X95067119Y-70059273D01*
X95119444Y-70037599D01*
X95171770Y-70059272D01*
X95190923Y-70092446D01*
X95223087Y-70212481D01*
X95223089Y-70212486D01*
X95277071Y-70305984D01*
X95295564Y-70338015D01*
X95398058Y-70440509D01*
X95471185Y-70482729D01*
X95494645Y-70496274D01*
X95523588Y-70512984D01*
X95523589Y-70512984D01*
X95523591Y-70512985D01*
X95545700Y-70518909D01*
X95663595Y-70550499D01*
X95663596Y-70550500D01*
X95663598Y-70550500D01*
X95808550Y-70550500D01*
X95808550Y-70550499D01*
X95948558Y-70512984D01*
X96074088Y-70440509D01*
X96176582Y-70338015D01*
X96249057Y-70212485D01*
X96286572Y-70072477D01*
X96286573Y-70072477D01*
X96286573Y-69427523D01*
X96286572Y-69427522D01*
X96435573Y-69427522D01*
X96435573Y-70072477D01*
X96473087Y-70212481D01*
X96473089Y-70212486D01*
X96527071Y-70305984D01*
X96545564Y-70338015D01*
X96648058Y-70440509D01*
X96721185Y-70482729D01*
X96744645Y-70496274D01*
X96773588Y-70512984D01*
X96773589Y-70512984D01*
X96773591Y-70512985D01*
X96795700Y-70518909D01*
X96913595Y-70550499D01*
X96913596Y-70550500D01*
X96913598Y-70550500D01*
X97058550Y-70550500D01*
X97058550Y-70550499D01*
X97198558Y-70512984D01*
X97324088Y-70440509D01*
X97426582Y-70338015D01*
X97499057Y-70212485D01*
X97536572Y-70072477D01*
X97536573Y-70072477D01*
X97536573Y-69427523D01*
X97536572Y-69427522D01*
X97685573Y-69427522D01*
X97685573Y-70072477D01*
X97723087Y-70212481D01*
X97723089Y-70212486D01*
X97777071Y-70305984D01*
X97795564Y-70338015D01*
X97898058Y-70440509D01*
X97971185Y-70482729D01*
X97994645Y-70496274D01*
X98023588Y-70512984D01*
X98023589Y-70512984D01*
X98023591Y-70512985D01*
X98045700Y-70518909D01*
X98163595Y-70550499D01*
X98163596Y-70550500D01*
X98204455Y-70550500D01*
X98256781Y-70572174D01*
X98278455Y-70624500D01*
X98256781Y-70676826D01*
X98179520Y-70754086D01*
X98126795Y-70845408D01*
X98126791Y-70845417D01*
X98099500Y-70947270D01*
X98099500Y-71052729D01*
X98126791Y-71154582D01*
X98126795Y-71154591D01*
X98167207Y-71224587D01*
X98179520Y-71245913D01*
X98254087Y-71320480D01*
X98345413Y-71373207D01*
X98447270Y-71400499D01*
X98447271Y-71400500D01*
X98447273Y-71400500D01*
X98552729Y-71400500D01*
X98552729Y-71400499D01*
X98654587Y-71373207D01*
X98745913Y-71320480D01*
X98820480Y-71245913D01*
X98873207Y-71154587D01*
X98900499Y-71052729D01*
X98900500Y-71052729D01*
X98900500Y-71047270D01*
X106699500Y-71047270D01*
X106699500Y-71152729D01*
X106726791Y-71254582D01*
X106726795Y-71254591D01*
X106764836Y-71320479D01*
X106779520Y-71345913D01*
X106854087Y-71420480D01*
X106945413Y-71473207D01*
X107047270Y-71500499D01*
X107047271Y-71500500D01*
X107047273Y-71500500D01*
X107152729Y-71500500D01*
X107152729Y-71500499D01*
X107254587Y-71473207D01*
X107345913Y-71420480D01*
X107397674Y-71368719D01*
X107450000Y-71347045D01*
X107502326Y-71368719D01*
X107554087Y-71420480D01*
X107645413Y-71473207D01*
X107747270Y-71500499D01*
X107747271Y-71500500D01*
X107747273Y-71500500D01*
X107852729Y-71500500D01*
X107852729Y-71500499D01*
X107954587Y-71473207D01*
X108045913Y-71420480D01*
X108120480Y-71345913D01*
X108173207Y-71254587D01*
X108200499Y-71152729D01*
X108200500Y-71152729D01*
X108200500Y-71047271D01*
X108200499Y-71047270D01*
X108200002Y-71045417D01*
X108173207Y-70945413D01*
X108120480Y-70854087D01*
X108045913Y-70779520D01*
X107995614Y-70750480D01*
X107954591Y-70726795D01*
X107954582Y-70726791D01*
X107852729Y-70699500D01*
X107852727Y-70699500D01*
X107747273Y-70699500D01*
X107747271Y-70699500D01*
X107645417Y-70726791D01*
X107645408Y-70726795D01*
X107554086Y-70779520D01*
X107502326Y-70831281D01*
X107450000Y-70852955D01*
X107397674Y-70831281D01*
X107345913Y-70779520D01*
X107254591Y-70726795D01*
X107254582Y-70726791D01*
X107152729Y-70699500D01*
X107152727Y-70699500D01*
X107047273Y-70699500D01*
X107047271Y-70699500D01*
X106945417Y-70726791D01*
X106945408Y-70726795D01*
X106854086Y-70779520D01*
X106779520Y-70854086D01*
X106726795Y-70945408D01*
X106726791Y-70945417D01*
X106699500Y-71047270D01*
X98900500Y-71047270D01*
X98900500Y-70947271D01*
X98900499Y-70947270D01*
X98900002Y-70945417D01*
X98873207Y-70845413D01*
X98820480Y-70754087D01*
X98745913Y-70679520D01*
X98741247Y-70676826D01*
X98654591Y-70626795D01*
X98654582Y-70626791D01*
X98551792Y-70599249D01*
X98506859Y-70564771D01*
X98499467Y-70508618D01*
X98533944Y-70463686D01*
X98574088Y-70440509D01*
X98676582Y-70338015D01*
X98749057Y-70212485D01*
X98786572Y-70072477D01*
X98786573Y-70072477D01*
X98786573Y-69427523D01*
X98786572Y-69427522D01*
X98935573Y-69427522D01*
X98935573Y-70072477D01*
X98973087Y-70212481D01*
X98973089Y-70212486D01*
X99027071Y-70305984D01*
X99045564Y-70338015D01*
X99148058Y-70440509D01*
X99221185Y-70482729D01*
X99244645Y-70496274D01*
X99273588Y-70512984D01*
X99273589Y-70512984D01*
X99273591Y-70512985D01*
X99295700Y-70518909D01*
X99413595Y-70550499D01*
X99413596Y-70550500D01*
X99413598Y-70550500D01*
X99558550Y-70550500D01*
X99558550Y-70550499D01*
X99698558Y-70512984D01*
X99824088Y-70440509D01*
X99926582Y-70338015D01*
X99999057Y-70212485D01*
X100036572Y-70072477D01*
X100036573Y-70072477D01*
X100036573Y-69427523D01*
X100036572Y-69427522D01*
X100185573Y-69427522D01*
X100185573Y-70072477D01*
X100223087Y-70212481D01*
X100223089Y-70212486D01*
X100277071Y-70305984D01*
X100295564Y-70338015D01*
X100398058Y-70440509D01*
X100471185Y-70482729D01*
X100494645Y-70496274D01*
X100523588Y-70512984D01*
X100523589Y-70512984D01*
X100523591Y-70512985D01*
X100545700Y-70518909D01*
X100663595Y-70550499D01*
X100663596Y-70550500D01*
X100663598Y-70550500D01*
X100808550Y-70550500D01*
X100808550Y-70550499D01*
X100948558Y-70512984D01*
X101074088Y-70440509D01*
X101176582Y-70338015D01*
X101249057Y-70212485D01*
X101286572Y-70072477D01*
X101286573Y-70072477D01*
X101286573Y-69427523D01*
X101286572Y-69427522D01*
X101435573Y-69427522D01*
X101435573Y-70072477D01*
X101473087Y-70212481D01*
X101473089Y-70212486D01*
X101527071Y-70305984D01*
X101545564Y-70338015D01*
X101648058Y-70440509D01*
X101721185Y-70482729D01*
X101744645Y-70496274D01*
X101773588Y-70512984D01*
X101773589Y-70512984D01*
X101773591Y-70512985D01*
X101795700Y-70518909D01*
X101913595Y-70550499D01*
X101913596Y-70550500D01*
X101913598Y-70550500D01*
X102058550Y-70550500D01*
X102058550Y-70550499D01*
X102198558Y-70512984D01*
X102324088Y-70440509D01*
X102426582Y-70338015D01*
X102499057Y-70212485D01*
X102536572Y-70072477D01*
X102536573Y-70072477D01*
X102536573Y-69427523D01*
X102536572Y-69427522D01*
X102685573Y-69427522D01*
X102685573Y-70072477D01*
X102723087Y-70212481D01*
X102723089Y-70212486D01*
X102777071Y-70305984D01*
X102795564Y-70338015D01*
X102898058Y-70440509D01*
X102971185Y-70482729D01*
X102994645Y-70496274D01*
X103023588Y-70512984D01*
X103023589Y-70512984D01*
X103023591Y-70512985D01*
X103045700Y-70518909D01*
X103163595Y-70550499D01*
X103163596Y-70550500D01*
X103163598Y-70550500D01*
X103308550Y-70550500D01*
X103308550Y-70550499D01*
X103448558Y-70512984D01*
X103574088Y-70440509D01*
X103676582Y-70338015D01*
X103749057Y-70212485D01*
X103786572Y-70072477D01*
X103786573Y-70072477D01*
X103786573Y-69427523D01*
X103786572Y-69427522D01*
X103778338Y-69396793D01*
X103749057Y-69287515D01*
X103737083Y-69266776D01*
X103936073Y-69266776D01*
X103936073Y-69675000D01*
X104246541Y-69675000D01*
X104236073Y-69700272D01*
X104236073Y-69799728D01*
X104246541Y-69825000D01*
X103936074Y-69825000D01*
X103936074Y-70233224D01*
X103945985Y-70301250D01*
X103997286Y-70406188D01*
X104079883Y-70488785D01*
X104184823Y-70540087D01*
X104252854Y-70549999D01*
X104411073Y-70549999D01*
X104411073Y-69989532D01*
X104436345Y-70000000D01*
X104535801Y-70000000D01*
X104561073Y-69989532D01*
X104561073Y-70549999D01*
X104719284Y-70549999D01*
X104719297Y-70549998D01*
X104787323Y-70540087D01*
X104892261Y-70488786D01*
X104974858Y-70406189D01*
X104988996Y-70377270D01*
X127959500Y-70377270D01*
X127959500Y-70482729D01*
X127986791Y-70584582D01*
X127986795Y-70584591D01*
X128011162Y-70626795D01*
X128039520Y-70675913D01*
X128114087Y-70750480D01*
X128205413Y-70803207D01*
X128307270Y-70830499D01*
X128307271Y-70830500D01*
X128307273Y-70830500D01*
X128412729Y-70830500D01*
X128412729Y-70830499D01*
X128514587Y-70803207D01*
X128605913Y-70750480D01*
X128680480Y-70675913D01*
X128733207Y-70584587D01*
X128760499Y-70482729D01*
X128760500Y-70482729D01*
X128760500Y-70377274D01*
X128760025Y-70375500D01*
X128752066Y-70345798D01*
X128733208Y-70275417D01*
X128733207Y-70275413D01*
X128680480Y-70184087D01*
X128605913Y-70109520D01*
X128558337Y-70082052D01*
X128514591Y-70056795D01*
X128514582Y-70056791D01*
X128412729Y-70029500D01*
X128412727Y-70029500D01*
X128307273Y-70029500D01*
X128307271Y-70029500D01*
X128205417Y-70056791D01*
X128205408Y-70056795D01*
X128114086Y-70109520D01*
X128039520Y-70184086D01*
X127986795Y-70275408D01*
X127986791Y-70275417D01*
X127959500Y-70377270D01*
X104988996Y-70377270D01*
X105026160Y-70301249D01*
X105036072Y-70233223D01*
X105036073Y-70233212D01*
X105036073Y-69897894D01*
X111097959Y-69897894D01*
X111097959Y-70003353D01*
X111125250Y-70105206D01*
X111125254Y-70105215D01*
X111170790Y-70184086D01*
X111177979Y-70196537D01*
X111252546Y-70271104D01*
X111343872Y-70323831D01*
X111445729Y-70351123D01*
X111445730Y-70351124D01*
X111445732Y-70351124D01*
X111551188Y-70351124D01*
X111551188Y-70351123D01*
X111653046Y-70323831D01*
X111744372Y-70271104D01*
X111818939Y-70196537D01*
X111871666Y-70105211D01*
X111898958Y-70003353D01*
X111898959Y-70003353D01*
X111898959Y-69897895D01*
X111898958Y-69897894D01*
X111885999Y-69849531D01*
X111871666Y-69796037D01*
X111818939Y-69704711D01*
X111744372Y-69630144D01*
X111718857Y-69615413D01*
X111670112Y-69587270D01*
X112024779Y-69587270D01*
X112024779Y-69692729D01*
X112052070Y-69794582D01*
X112052074Y-69794591D01*
X112085817Y-69853036D01*
X112104799Y-69885913D01*
X112179366Y-69960480D01*
X112270692Y-70013207D01*
X112372549Y-70040499D01*
X112372550Y-70040500D01*
X112481766Y-70040500D01*
X112534092Y-70062174D01*
X112553243Y-70095346D01*
X112554211Y-70098954D01*
X112558761Y-70115937D01*
X112589707Y-70169537D01*
X112611488Y-70207262D01*
X112686055Y-70281829D01*
X112777381Y-70334556D01*
X112879238Y-70361848D01*
X112879239Y-70361849D01*
X112879241Y-70361849D01*
X112984697Y-70361849D01*
X112984697Y-70361848D01*
X113086555Y-70334556D01*
X113177881Y-70281829D01*
X113252448Y-70207262D01*
X113305175Y-70115936D01*
X113332467Y-70014078D01*
X113332468Y-70014078D01*
X113332468Y-69935870D01*
X113332468Y-69908622D01*
X113305175Y-69806762D01*
X113252448Y-69715436D01*
X113234282Y-69697270D01*
X113449500Y-69697270D01*
X113449500Y-69697273D01*
X113449500Y-69802727D01*
X113476793Y-69904587D01*
X113529520Y-69995913D01*
X113604087Y-70070480D01*
X113695413Y-70123207D01*
X113797270Y-70150499D01*
X113797271Y-70150500D01*
X113797273Y-70150500D01*
X113902729Y-70150500D01*
X113902729Y-70150499D01*
X114004587Y-70123207D01*
X114095913Y-70070480D01*
X114170480Y-69995913D01*
X114223207Y-69904587D01*
X114250499Y-69802729D01*
X114250500Y-69802729D01*
X114250500Y-69697271D01*
X114250499Y-69697270D01*
X114250135Y-69695913D01*
X114236687Y-69645724D01*
X115172376Y-69645724D01*
X115172376Y-69751183D01*
X115199667Y-69853036D01*
X115199671Y-69853045D01*
X115227342Y-69900972D01*
X115252396Y-69944367D01*
X115326963Y-70018934D01*
X115418289Y-70071661D01*
X115520146Y-70098953D01*
X115520147Y-70098954D01*
X115520149Y-70098954D01*
X115625605Y-70098954D01*
X115625605Y-70098953D01*
X115727463Y-70071661D01*
X115818789Y-70018934D01*
X115893356Y-69944367D01*
X115946083Y-69853041D01*
X115973375Y-69751183D01*
X115973376Y-69751183D01*
X115973376Y-69645725D01*
X115973375Y-69645724D01*
X115969200Y-69630144D01*
X115946083Y-69543867D01*
X115893356Y-69452541D01*
X115818789Y-69377974D01*
X115804112Y-69369500D01*
X115727467Y-69325249D01*
X115727458Y-69325245D01*
X115625605Y-69297954D01*
X115625603Y-69297954D01*
X115520149Y-69297954D01*
X115520147Y-69297954D01*
X115418293Y-69325245D01*
X115418284Y-69325249D01*
X115326962Y-69377974D01*
X115252396Y-69452540D01*
X115199671Y-69543862D01*
X115199667Y-69543871D01*
X115172376Y-69645724D01*
X114236687Y-69645724D01*
X114223207Y-69595413D01*
X114170480Y-69504087D01*
X114095913Y-69429520D01*
X114092452Y-69427522D01*
X114004591Y-69376795D01*
X114004582Y-69376791D01*
X113902729Y-69349500D01*
X113902727Y-69349500D01*
X113797273Y-69349500D01*
X113797271Y-69349500D01*
X113695417Y-69376791D01*
X113695408Y-69376795D01*
X113604086Y-69429520D01*
X113529520Y-69504086D01*
X113476795Y-69595408D01*
X113476791Y-69595417D01*
X113449500Y-69697270D01*
X113234282Y-69697270D01*
X113177881Y-69640869D01*
X113110203Y-69601795D01*
X113086559Y-69588144D01*
X113086550Y-69588140D01*
X112984697Y-69560849D01*
X112984695Y-69560849D01*
X112879241Y-69560849D01*
X112875481Y-69560849D01*
X112823155Y-69539175D01*
X112804003Y-69506002D01*
X112798487Y-69485417D01*
X112798486Y-69485413D01*
X112745759Y-69394087D01*
X112671192Y-69319520D01*
X112633839Y-69297954D01*
X112579870Y-69266795D01*
X112579861Y-69266791D01*
X112478008Y-69239500D01*
X112478006Y-69239500D01*
X112372552Y-69239500D01*
X112372550Y-69239500D01*
X112270696Y-69266791D01*
X112270687Y-69266795D01*
X112179365Y-69319520D01*
X112104799Y-69394086D01*
X112052074Y-69485408D01*
X112052070Y-69485417D01*
X112024779Y-69587270D01*
X111670112Y-69587270D01*
X111653050Y-69577419D01*
X111653041Y-69577415D01*
X111551188Y-69550124D01*
X111551186Y-69550124D01*
X111445732Y-69550124D01*
X111445730Y-69550124D01*
X111343876Y-69577415D01*
X111343867Y-69577419D01*
X111252545Y-69630144D01*
X111177979Y-69704710D01*
X111125254Y-69796032D01*
X111125250Y-69796041D01*
X111097959Y-69897894D01*
X105036073Y-69897894D01*
X105036073Y-69825000D01*
X104725605Y-69825000D01*
X104736073Y-69799728D01*
X104736073Y-69700272D01*
X104725605Y-69675000D01*
X105036072Y-69675000D01*
X105036072Y-69266789D01*
X105036071Y-69266775D01*
X105026160Y-69198749D01*
X105013319Y-69172482D01*
X104999800Y-69144829D01*
X128559931Y-69144829D01*
X128559931Y-69250288D01*
X128587222Y-69352141D01*
X128587226Y-69352150D01*
X128613000Y-69396791D01*
X128639951Y-69443472D01*
X128714518Y-69518039D01*
X128805844Y-69570766D01*
X128907701Y-69598058D01*
X128907702Y-69598059D01*
X128907704Y-69598059D01*
X129013160Y-69598059D01*
X129013160Y-69598058D01*
X129115018Y-69570766D01*
X129206344Y-69518039D01*
X129258105Y-69466278D01*
X129310431Y-69444604D01*
X129362757Y-69466278D01*
X129414518Y-69518039D01*
X129505844Y-69570766D01*
X129607701Y-69598058D01*
X129607702Y-69598059D01*
X129607704Y-69598059D01*
X129713160Y-69598059D01*
X129713160Y-69598058D01*
X129719792Y-69596281D01*
X136598000Y-69596281D01*
X136598000Y-69763519D01*
X136606602Y-69806762D01*
X136630625Y-69927538D01*
X136630628Y-69927548D01*
X136694623Y-70082047D01*
X136694625Y-70082050D01*
X136694626Y-70082052D01*
X136735489Y-70143207D01*
X136785801Y-70218506D01*
X136787539Y-70221106D01*
X136905794Y-70339361D01*
X137044848Y-70432274D01*
X137044853Y-70432276D01*
X137044852Y-70432276D01*
X137199351Y-70496271D01*
X137199356Y-70496273D01*
X137363381Y-70528900D01*
X137363383Y-70528900D01*
X137530617Y-70528900D01*
X137530619Y-70528900D01*
X137694644Y-70496273D01*
X137849152Y-70432274D01*
X137988206Y-70339361D01*
X138106461Y-70221106D01*
X138199374Y-70082052D01*
X138263373Y-69927544D01*
X138296000Y-69763519D01*
X138296000Y-69596281D01*
X138263373Y-69432256D01*
X138263354Y-69432210D01*
X138199376Y-69277752D01*
X138199375Y-69277750D01*
X138199374Y-69277748D01*
X138106461Y-69138694D01*
X137988206Y-69020439D01*
X137974398Y-69011213D01*
X137938182Y-68987014D01*
X137849152Y-68927526D01*
X137849148Y-68927524D01*
X137849146Y-68927523D01*
X137849147Y-68927523D01*
X137694648Y-68863528D01*
X137694638Y-68863525D01*
X137584798Y-68841677D01*
X137530619Y-68830900D01*
X137363381Y-68830900D01*
X137316881Y-68840149D01*
X137199361Y-68863525D01*
X137199351Y-68863528D01*
X137044852Y-68927523D01*
X136905794Y-69020438D01*
X136905793Y-69020440D01*
X136787540Y-69138693D01*
X136787538Y-69138694D01*
X136694623Y-69277752D01*
X136630628Y-69432251D01*
X136630625Y-69432261D01*
X136609581Y-69538060D01*
X136598000Y-69596281D01*
X129719792Y-69596281D01*
X129815018Y-69570766D01*
X129906344Y-69518039D01*
X129980911Y-69443472D01*
X130033638Y-69352146D01*
X130060930Y-69250288D01*
X130060931Y-69250288D01*
X130060931Y-69144830D01*
X130060930Y-69144829D01*
X130040708Y-69069360D01*
X130033638Y-69042972D01*
X129980911Y-68951646D01*
X129906344Y-68877079D01*
X129826654Y-68831070D01*
X129815022Y-68824354D01*
X129815013Y-68824350D01*
X129713160Y-68797059D01*
X129713158Y-68797059D01*
X129607704Y-68797059D01*
X129607702Y-68797059D01*
X129505848Y-68824350D01*
X129505839Y-68824354D01*
X129414517Y-68877079D01*
X129362757Y-68928840D01*
X129310431Y-68950514D01*
X129258105Y-68928840D01*
X129206344Y-68877079D01*
X129115022Y-68824354D01*
X129115013Y-68824350D01*
X129013160Y-68797059D01*
X129013158Y-68797059D01*
X128907704Y-68797059D01*
X128907702Y-68797059D01*
X128805848Y-68824350D01*
X128805839Y-68824354D01*
X128714517Y-68877079D01*
X128639951Y-68951645D01*
X128587226Y-69042967D01*
X128587222Y-69042976D01*
X128559931Y-69144829D01*
X104999800Y-69144829D01*
X104974859Y-69093811D01*
X104892262Y-69011214D01*
X104787322Y-68959912D01*
X104719296Y-68950000D01*
X104561073Y-68950000D01*
X104561073Y-69510467D01*
X104535801Y-69500000D01*
X104436345Y-69500000D01*
X104411073Y-69510467D01*
X104411073Y-68950000D01*
X104252861Y-68950000D01*
X104252849Y-68950001D01*
X104184822Y-68959912D01*
X104079884Y-69011213D01*
X103997287Y-69093810D01*
X103945985Y-69198750D01*
X103936073Y-69266776D01*
X103737083Y-69266776D01*
X103676582Y-69161985D01*
X103574088Y-69059491D01*
X103545483Y-69042976D01*
X103448559Y-68987016D01*
X103448554Y-68987014D01*
X103308550Y-68949500D01*
X103308548Y-68949500D01*
X103163598Y-68949500D01*
X103163596Y-68949500D01*
X103023591Y-68987014D01*
X103023586Y-68987016D01*
X102898057Y-69059491D01*
X102795564Y-69161984D01*
X102723089Y-69287513D01*
X102723087Y-69287518D01*
X102685573Y-69427522D01*
X102536572Y-69427522D01*
X102499058Y-69287518D01*
X102499056Y-69287513D01*
X102463698Y-69226271D01*
X102426582Y-69161985D01*
X102324088Y-69059491D01*
X102295483Y-69042976D01*
X102198559Y-68987016D01*
X102198554Y-68987014D01*
X102058550Y-68949500D01*
X102058548Y-68949500D01*
X101913598Y-68949500D01*
X101913596Y-68949500D01*
X101773591Y-68987014D01*
X101773586Y-68987016D01*
X101648057Y-69059491D01*
X101545564Y-69161984D01*
X101473089Y-69287513D01*
X101473087Y-69287518D01*
X101435573Y-69427522D01*
X101286572Y-69427522D01*
X101249058Y-69287518D01*
X101249056Y-69287513D01*
X101213698Y-69226271D01*
X101176582Y-69161985D01*
X101074088Y-69059491D01*
X101045483Y-69042976D01*
X100948559Y-68987016D01*
X100948554Y-68987014D01*
X100808550Y-68949500D01*
X100808548Y-68949500D01*
X100663598Y-68949500D01*
X100663596Y-68949500D01*
X100523591Y-68987014D01*
X100523586Y-68987016D01*
X100398057Y-69059491D01*
X100295564Y-69161984D01*
X100223089Y-69287513D01*
X100223087Y-69287518D01*
X100185573Y-69427522D01*
X100036572Y-69427522D01*
X99999058Y-69287518D01*
X99999056Y-69287513D01*
X99963698Y-69226271D01*
X99926582Y-69161985D01*
X99824088Y-69059491D01*
X99795483Y-69042976D01*
X99698559Y-68987016D01*
X99698554Y-68987014D01*
X99558550Y-68949500D01*
X99558548Y-68949500D01*
X99413598Y-68949500D01*
X99413596Y-68949500D01*
X99273591Y-68987014D01*
X99273586Y-68987016D01*
X99148057Y-69059491D01*
X99045564Y-69161984D01*
X98973089Y-69287513D01*
X98973087Y-69287518D01*
X98935573Y-69427522D01*
X98786572Y-69427522D01*
X98749058Y-69287518D01*
X98749056Y-69287513D01*
X98713698Y-69226271D01*
X98676582Y-69161985D01*
X98574088Y-69059491D01*
X98545483Y-69042976D01*
X98448559Y-68987016D01*
X98448554Y-68987014D01*
X98308550Y-68949500D01*
X98308548Y-68949500D01*
X98163598Y-68949500D01*
X98163596Y-68949500D01*
X98023591Y-68987014D01*
X98023586Y-68987016D01*
X97898057Y-69059491D01*
X97795564Y-69161984D01*
X97723089Y-69287513D01*
X97723087Y-69287518D01*
X97685573Y-69427522D01*
X97536572Y-69427522D01*
X97499058Y-69287518D01*
X97499056Y-69287513D01*
X97463698Y-69226271D01*
X97426582Y-69161985D01*
X97324088Y-69059491D01*
X97295483Y-69042976D01*
X97198559Y-68987016D01*
X97198554Y-68987014D01*
X97058550Y-68949500D01*
X97058548Y-68949500D01*
X96913598Y-68949500D01*
X96913596Y-68949500D01*
X96773591Y-68987014D01*
X96773586Y-68987016D01*
X96648057Y-69059491D01*
X96545564Y-69161984D01*
X96473089Y-69287513D01*
X96473087Y-69287518D01*
X96435573Y-69427522D01*
X96286572Y-69427522D01*
X96249058Y-69287518D01*
X96249056Y-69287513D01*
X96213698Y-69226271D01*
X96176582Y-69161985D01*
X96074088Y-69059491D01*
X96045483Y-69042976D01*
X95948559Y-68987016D01*
X95948554Y-68987014D01*
X95808550Y-68949500D01*
X95808548Y-68949500D01*
X95663598Y-68949500D01*
X95663596Y-68949500D01*
X95523591Y-68987014D01*
X95523586Y-68987016D01*
X95398057Y-69059491D01*
X95295564Y-69161984D01*
X95223089Y-69287513D01*
X95223087Y-69287518D01*
X95185572Y-69427525D01*
X95185188Y-69430442D01*
X95184446Y-69431725D01*
X95184317Y-69432210D01*
X95184187Y-69432175D01*
X95156866Y-69479489D01*
X95102157Y-69494143D01*
X95059496Y-69473103D01*
X95035913Y-69449520D01*
X94944591Y-69396795D01*
X94944582Y-69396791D01*
X94842729Y-69369500D01*
X94842727Y-69369500D01*
X94737273Y-69369500D01*
X94737271Y-69369500D01*
X94635417Y-69396791D01*
X94635408Y-69396795D01*
X94544086Y-69449520D01*
X94492326Y-69501281D01*
X94440000Y-69522955D01*
X94387674Y-69501281D01*
X94335913Y-69449520D01*
X94244591Y-69396795D01*
X94244582Y-69396791D01*
X94142729Y-69369500D01*
X94142727Y-69369500D01*
X94037273Y-69369500D01*
X94037271Y-69369500D01*
X93935417Y-69396791D01*
X93935408Y-69396795D01*
X93844086Y-69449520D01*
X93769520Y-69524086D01*
X93716795Y-69615408D01*
X93716791Y-69615417D01*
X93689500Y-69717270D01*
X92110196Y-69717270D01*
X92131553Y-69695913D01*
X92184280Y-69604587D01*
X92211572Y-69502729D01*
X92211573Y-69502729D01*
X92211573Y-69397271D01*
X92211572Y-69397270D01*
X92184281Y-69295417D01*
X92184280Y-69295413D01*
X92131553Y-69204087D01*
X92056986Y-69129520D01*
X91995136Y-69093811D01*
X91965664Y-69076795D01*
X91965655Y-69076791D01*
X91863802Y-69049500D01*
X91863800Y-69049500D01*
X91758346Y-69049500D01*
X91758344Y-69049500D01*
X91656490Y-69076791D01*
X91656481Y-69076795D01*
X91565159Y-69129520D01*
X91490593Y-69204086D01*
X91437868Y-69295408D01*
X91437864Y-69295417D01*
X91410573Y-69397270D01*
X91410573Y-69503991D01*
X91388899Y-69556317D01*
X91336573Y-69577991D01*
X91317423Y-69575470D01*
X91313802Y-69574500D01*
X91313800Y-69574500D01*
X91208346Y-69574500D01*
X91208344Y-69574500D01*
X91106490Y-69601791D01*
X91106481Y-69601795D01*
X91015159Y-69654520D01*
X90940593Y-69729086D01*
X90889877Y-69816929D01*
X90844943Y-69851408D01*
X90788791Y-69844015D01*
X90715664Y-69801795D01*
X90715655Y-69801791D01*
X90613802Y-69774500D01*
X90613800Y-69774500D01*
X90508346Y-69774500D01*
X90508344Y-69774500D01*
X90406490Y-69801791D01*
X90406481Y-69801795D01*
X90315159Y-69854520D01*
X90268708Y-69900972D01*
X90216382Y-69922646D01*
X90164056Y-69900972D01*
X90152296Y-69885645D01*
X90132191Y-69850822D01*
X90057624Y-69776255D01*
X89966302Y-69723530D01*
X89966293Y-69723526D01*
X89864440Y-69696235D01*
X89864438Y-69696235D01*
X89758984Y-69696235D01*
X89758982Y-69696235D01*
X89657128Y-69723526D01*
X89657119Y-69723530D01*
X89565797Y-69776255D01*
X89491231Y-69850821D01*
X89438506Y-69942143D01*
X89438502Y-69942152D01*
X89411211Y-70044005D01*
X89411211Y-70117211D01*
X89389537Y-70169537D01*
X89337211Y-70191211D01*
X89264006Y-70191211D01*
X89162152Y-70218502D01*
X89162143Y-70218506D01*
X89070821Y-70271231D01*
X88996255Y-70345797D01*
X88943530Y-70437119D01*
X88943526Y-70437128D01*
X88916235Y-70538981D01*
X82181617Y-70538981D01*
X82094562Y-70408694D01*
X81976307Y-70290439D01*
X81963421Y-70281829D01*
X81941894Y-70267445D01*
X81837253Y-70197526D01*
X81837249Y-70197524D01*
X81837247Y-70197523D01*
X81837248Y-70197523D01*
X81682749Y-70133528D01*
X81682739Y-70133525D01*
X81562055Y-70109520D01*
X81518720Y-70100900D01*
X81351482Y-70100900D01*
X81308147Y-70109520D01*
X81187462Y-70133525D01*
X81187452Y-70133528D01*
X81032953Y-70197523D01*
X80893895Y-70290438D01*
X80893894Y-70290440D01*
X80775641Y-70408693D01*
X80775639Y-70408694D01*
X80682724Y-70547752D01*
X80618729Y-70702251D01*
X80618726Y-70702261D01*
X80594494Y-70824086D01*
X80586101Y-70866281D01*
X67141400Y-70866281D01*
X67141400Y-69596281D01*
X83126101Y-69596281D01*
X83126101Y-69763519D01*
X83134703Y-69806762D01*
X83158726Y-69927538D01*
X83158729Y-69927548D01*
X83222724Y-70082047D01*
X83222726Y-70082050D01*
X83222727Y-70082052D01*
X83263590Y-70143207D01*
X83313902Y-70218506D01*
X83315640Y-70221106D01*
X83433895Y-70339361D01*
X83572949Y-70432274D01*
X83572954Y-70432276D01*
X83572953Y-70432276D01*
X83727452Y-70496271D01*
X83727457Y-70496273D01*
X83891482Y-70528900D01*
X83891484Y-70528900D01*
X84058718Y-70528900D01*
X84058720Y-70528900D01*
X84222745Y-70496273D01*
X84286314Y-70469942D01*
X84296394Y-70465767D01*
X84377248Y-70432276D01*
X84377247Y-70432276D01*
X84377253Y-70432274D01*
X84516307Y-70339361D01*
X84634562Y-70221106D01*
X84727475Y-70082052D01*
X84791474Y-69927544D01*
X84824101Y-69763519D01*
X84824101Y-69596281D01*
X84791474Y-69432256D01*
X84791455Y-69432210D01*
X84727477Y-69277752D01*
X84727476Y-69277750D01*
X84727475Y-69277748D01*
X84634562Y-69138694D01*
X84516307Y-69020439D01*
X84502499Y-69011213D01*
X84466283Y-68987014D01*
X84377253Y-68927526D01*
X84377249Y-68927524D01*
X84377247Y-68927523D01*
X84377248Y-68927523D01*
X84222749Y-68863528D01*
X84222739Y-68863525D01*
X84112899Y-68841677D01*
X84058720Y-68830900D01*
X83891482Y-68830900D01*
X83844982Y-68840149D01*
X83727462Y-68863525D01*
X83727452Y-68863528D01*
X83572953Y-68927523D01*
X83433895Y-69020438D01*
X83433894Y-69020440D01*
X83315641Y-69138693D01*
X83315639Y-69138694D01*
X83222724Y-69277752D01*
X83158729Y-69432251D01*
X83158726Y-69432261D01*
X83137682Y-69538060D01*
X83126101Y-69596281D01*
X67141400Y-69596281D01*
X67141400Y-65255400D01*
X67163074Y-65203074D01*
X67215400Y-65181400D01*
X74141951Y-65181400D01*
X74194277Y-65203074D01*
G37*
%TD.AperFunction*%
%TD*%
M02*
